<svg width="359" height="261" viewBox="0 0 359 261" fill="none" xmlns="http://www.w3.org/2000/svg">
<path d="M24.223 217.239C27.695 217.239 30.533 215.865 32.737 213.117L37.266 217.782C33.673 221.828 29.438 223.85 24.563 223.85C19.687 223.85 15.672 222.311 12.517 219.231C9.361 216.151 7.784 212.265 7.784 207.57C7.784 202.876 9.392 198.959 12.607 195.818C15.823 192.678 19.755 191.108 24.405 191.108C29.597 191.108 33.945 193.086 37.447 197.041L33.054 202.023C30.82 199.245 28.043 197.856 24.722 197.856C22.064 197.856 19.792 198.724 17.906 200.46C16.018 202.197 15.076 204.536 15.076 207.48C15.076 210.424 15.966 212.786 17.748 214.567C19.528 216.349 21.688 217.239 24.223 217.239V217.239Z" fill="white"/>
<path d="M42.836 223.488V191.833H49.901V217.193H63.396V223.488H42.836V223.488Z" fill="white"/>
<path d="M94.327 219.118C91.127 222.243 87.187 223.805 82.507 223.805C77.827 223.805 73.887 222.243 70.687 219.118C67.487 215.993 65.887 212.107 65.887 207.458C65.887 202.808 67.487 198.921 70.687 195.796C73.887 192.671 77.827 191.109 82.507 191.109C87.187 191.109 91.127 192.671 94.327 195.796C97.527 198.921 99.127 202.808 99.127 207.457C99.127 212.107 97.527 215.993 94.327 219.118V219.118ZM91.927 207.479C91.927 204.657 91.021 202.249 89.209 200.256C87.399 198.264 85.171 197.267 82.529 197.267C79.887 197.267 77.661 198.264 75.85 200.257C74.038 202.249 73.132 204.657 73.132 207.479C73.132 210.303 74.038 212.703 75.85 214.68C77.661 216.658 79.887 217.646 82.53 217.646C85.171 217.646 87.398 216.658 89.21 214.68C91.02 212.703 91.926 210.303 91.926 207.48L91.927 207.479Z" fill="white"/>
<path d="M113.482 215.314C114.66 216.779 116.245 217.511 118.236 217.511C120.23 217.511 121.807 216.779 122.97 215.314C124.131 213.85 124.714 211.85 124.714 209.314V191.834H131.778V209.54C131.778 214.13 130.509 217.654 127.975 220.114C125.438 222.575 122.192 223.804 118.236 223.804C114.282 223.804 111.029 222.568 108.478 220.092C105.926 217.617 104.651 214.099 104.651 209.54V191.833H111.716V209.313C111.716 211.85 112.305 213.85 113.482 215.314V215.314Z" fill="white"/>
<path d="M163.297 195.977C166.315 198.739 167.826 202.581 167.826 207.502C167.826 212.423 166.353 216.318 163.41 219.186C160.467 222.055 155.975 223.488 149.937 223.488H139.113V191.833H150.3C155.945 191.833 160.277 193.214 163.297 195.977ZM158.111 214.793C159.847 213.163 160.715 210.793 160.715 207.683C160.715 204.574 159.847 202.181 158.111 200.506C156.375 198.83 153.711 197.992 150.119 197.992H146.179V217.239H150.662C153.892 217.239 156.375 216.423 158.112 214.793H158.111Z" fill="white"/>
<path d="M208.04 191.833H215.105V223.488H208.04L192.96 203.653V223.488H185.895V191.833H192.506L208.04 212.212V191.833V191.833Z" fill="white"/>
<path d="M245.446 223.488L242.502 216.65H229.232L226.29 223.488H218.772L232.449 191.833H239.286L252.964 223.488H245.446V223.488ZM235.891 201.253L231.905 210.446H239.831L235.891 201.253Z" fill="white"/>
<path d="M267.727 197.947V223.488H260.662V197.947H251.695V191.833H276.693V197.947H267.727Z" fill="white"/>
<path d="M281.855 191.833H288.92V223.488H281.855V191.833Z" fill="white"/>
<path d="M308.393 211.986L316.453 191.833H324.108L311.382 223.488H305.405L292.678 191.833H300.333L308.393 211.986Z" fill="white"/>
<path d="M350.69 191.833V198.128H334.93V204.649H349.105V210.672H334.931V217.239H351.188V223.489H327.865V191.833H350.69V191.833Z" fill="white"/>
<path d="M16.124 250.448C18.07 250.448 19.66 249.678 20.896 248.138L23.435 250.752C21.42 253.02 19.047 254.153 16.314 254.153C13.581 254.153 11.33 253.291 9.562 251.563C7.793 249.838 6.909 247.659 6.909 245.028C6.909 242.396 7.809 240.2 9.612 238.44C11.415 236.68 13.619 235.8 16.225 235.8C19.135 235.8 21.573 236.909 23.536 239.126L21.074 241.918C19.821 240.361 18.264 239.582 16.403 239.582C14.913 239.582 13.64 240.069 12.583 241.042C11.524 242.016 10.996 243.327 10.996 244.977C10.996 246.627 11.495 247.952 12.494 248.949C13.492 249.949 14.702 250.448 16.124 250.448V250.448Z" fill="white"/>
<path d="M41.102 251.5C39.309 253.252 37.1 254.129 34.477 254.129C31.854 254.129 29.645 253.252 27.851 251.5C26.057 249.75 25.161 247.57 25.161 244.965C25.161 242.358 26.057 240.179 27.851 238.428C29.645 236.676 31.854 235.8 34.477 235.8C37.1 235.8 39.309 236.676 41.102 238.428C42.896 240.178 43.793 242.358 43.793 244.965C43.793 247.571 42.896 249.749 41.103 251.5H41.102ZM39.757 244.977C39.757 243.395 39.249 242.045 38.234 240.927C37.218 239.811 35.97 239.253 34.489 239.253C33.009 239.253 31.76 239.811 30.745 240.928C29.73 242.045 29.222 243.395 29.222 244.977C29.222 246.559 29.73 247.905 30.745 249.013C31.76 250.122 33.008 250.675 34.489 250.675C35.97 250.675 37.219 250.122 38.234 249.013C39.249 247.905 39.757 246.56 39.757 244.977Z" fill="white"/>
<path d="M63.035 242.78L58.237 252.478H55.877L51.104 242.781V253.951H47.144V236.206H52.5L57.07 245.954L61.665 236.206H66.995V253.951H63.035V242.781V242.78Z" fill="white"/>
<path d="M83.584 237.793C84.828 238.851 85.45 240.475 85.45 242.667C85.45 244.858 84.812 246.462 83.534 247.477C82.256 248.493 80.306 249 77.683 249H75.322V253.95H71.362V236.206H77.632C80.356 236.206 82.341 236.735 83.584 237.793V237.793ZM80.678 244.774C81.151 244.24 81.388 243.462 81.388 242.438C81.388 241.415 81.08 240.686 80.462 240.256C79.844 239.824 78.884 239.607 77.581 239.607H75.321V245.573H77.987C79.307 245.573 80.204 245.307 80.678 244.774V244.774Z" fill="white"/>
<path d="M93.243 249.369C93.903 250.189 94.792 250.599 95.909 250.599C97.026 250.599 97.909 250.189 98.562 249.369C99.213 248.548 99.539 247.426 99.539 246.005V236.206H103.499V246.132C103.499 248.705 102.789 250.681 101.367 252.059C99.945 253.439 98.126 254.129 95.909 254.129C93.692 254.129 91.869 253.435 90.439 252.047C89.009 250.659 88.293 248.687 88.293 246.132V236.206H92.253V246.005C92.253 247.426 92.583 248.548 93.243 249.369V249.369Z" fill="white"/>
<path d="M115.125 239.633V253.951H111.165V239.633H106.139V236.206H120.152V239.633H115.125V239.633Z" fill="white"/>
<path d="M123.045 236.206H127.006V253.951H123.046V236.206H123.045Z" fill="white"/>
<path d="M143.785 236.206H147.745V253.951H143.785L135.331 242.831V253.951H131.371V236.206H135.078L143.785 247.63V236.206V236.206Z" fill="white"/>
<path d="M163.636 244.914H167.621V251.209C165.861 253.172 163.424 254.153 160.31 254.153C157.703 254.153 155.517 253.291 153.748 251.563C151.979 249.838 151.095 247.659 151.095 245.028C151.095 242.396 151.997 240.2 153.799 238.44C155.601 236.68 157.775 235.8 160.323 235.8C162.869 235.8 165.083 236.638 166.961 238.313L164.905 241.283C164.109 240.59 163.377 240.113 162.709 239.849C162.017 239.583 161.281 239.449 160.539 239.456C159.032 239.456 157.763 239.967 156.731 240.991C155.699 242.016 155.183 243.364 155.183 245.041C155.183 246.716 155.677 248.058 156.667 249.064C157.657 250.071 158.837 250.574 160.209 250.574C161.579 250.574 162.721 250.312 163.636 249.788V244.914V244.914Z" fill="white"/>
<path d="M190.036 236.206V239.684H181.812V243.517H189.631V246.995H181.811V253.951H177.851V236.206H190.036Z" fill="white"/>
<path d="M208.313 251.5C206.52 253.252 204.311 254.129 201.688 254.129C199.064 254.129 196.856 253.252 195.063 251.5C193.268 249.75 192.371 247.57 192.371 244.965C192.371 242.358 193.268 240.179 195.063 238.428C196.856 236.676 199.064 235.8 201.688 235.8C204.311 235.8 206.52 236.676 208.313 238.428C210.107 240.178 211.003 242.358 211.003 244.965C211.003 247.571 210.107 249.749 208.313 251.5V251.5ZM206.968 244.977C206.968 243.395 206.46 242.045 205.445 240.927C204.429 239.811 203.181 239.253 201.7 239.253C200.22 239.253 198.971 239.811 197.956 240.928C196.941 242.045 196.433 243.395 196.433 244.977C196.433 246.559 196.941 247.905 197.956 249.013C198.971 250.122 200.22 250.675 201.7 250.675C203.181 250.675 204.43 250.122 205.445 249.013C206.46 247.905 206.968 246.56 206.968 244.977Z" fill="white"/>
<path d="M219.051 249.369C219.712 250.189 220.601 250.599 221.717 250.599C222.834 250.599 223.717 250.189 224.37 249.369C225.021 248.548 225.347 247.426 225.347 246.005V236.206H229.307V246.132C229.307 248.705 228.597 250.681 227.175 252.059C225.754 253.439 223.935 254.129 221.717 254.129C219.5 254.129 217.676 253.435 216.247 252.047C214.816 250.659 214.101 248.687 214.101 246.132V236.206H218.062V246.005C218.062 247.426 218.392 248.548 219.052 249.369H219.051Z" fill="white"/>
<path d="M245.833 236.206H249.793V253.951H245.833L237.379 242.831V253.951H233.419V236.206H237.125L245.833 247.63V236.206V236.206Z" fill="white"/>
<path d="M267.715 238.529C269.406 240.078 270.253 242.231 270.253 244.989C270.253 247.749 269.428 249.931 267.778 251.539C266.128 253.147 263.61 253.951 260.226 253.951H254.158V236.206H260.428C263.594 236.206 266.022 236.98 267.715 238.529V238.529ZM264.808 249.076C265.781 248.163 266.268 246.834 266.268 245.091C266.268 243.348 265.781 242.007 264.808 241.067C263.834 240.129 262.341 239.658 260.327 239.658H258.119V250.448H260.632C262.442 250.448 263.834 249.991 264.808 249.076V249.076Z" fill="white"/>
<path d="M285.815 253.95L284.165 250.118H276.727L275.077 253.951H270.863L278.53 236.206H282.363L290.028 253.951H285.815V253.95ZM280.459 241.486L278.225 246.64H282.667L280.459 241.486Z" fill="white"/>
<path d="M298.305 239.633V253.951H294.345V239.633H289.318V236.206H303.331V239.633H298.305Z" fill="white"/>
<path d="M306.223 236.206H310.184V253.951H306.224V236.206H306.223Z" fill="white"/>
<path d="M329.477 251.5C327.683 253.252 325.474 254.129 322.851 254.129C320.227 254.129 318.02 253.252 316.226 251.5C314.431 249.75 313.534 247.57 313.534 244.965C313.534 242.358 314.431 240.179 316.226 238.428C318.02 236.676 320.227 235.8 322.851 235.8C325.474 235.8 327.683 236.676 329.477 238.428C331.27 240.178 332.167 242.358 332.167 244.965C332.167 247.571 331.27 249.749 329.477 251.5V251.5ZM328.131 244.977C328.131 243.395 327.624 242.045 326.608 240.927C325.593 239.811 324.344 239.253 322.864 239.253C321.384 239.253 320.134 239.811 319.119 240.928C318.104 242.045 317.596 243.395 317.596 244.977C317.596 246.559 318.104 247.905 319.119 249.013C320.135 250.122 321.383 250.675 322.864 250.675C324.344 250.675 325.593 250.122 326.608 249.013C327.624 247.905 328.131 246.56 328.131 244.977Z" fill="white"/>
<path d="M347.932 236.206H351.892V253.951H347.932L339.478 242.831V253.951H335.518V236.206H339.224L347.932 247.63V236.206V236.206Z" fill="white"/>
<path d="M123.786 110.78H101.535V162.691H153.444V140.442H123.786V110.78Z" fill="white"/>
<path d="M235.017 110.946V140.442H205.519L205.356 140.278V162.691H257.265V110.78H234.851L235.017 110.946Z" fill="white"/>
<path d="M101.535 58.878H123.952L123.786 58.707V29.21H153.281L153.444 29.376V6.96301H101.535V58.878Z" fill="white"/>
<path d="M205.356 6.96301V29.21H235.017V58.878H257.265V6.96301H205.356Z" fill="white"/>
<path d="M202.609 58.878L172.943 29.21H205.356V6.96301H153.444V29.376L182.944 58.878H202.609Z" fill="white"/>
<path d="M175.856 110.78H156.194L180.772 135.361L185.857 140.442H153.444V162.691H205.356V140.278L190.604 125.527L175.856 110.78Z" fill="white"/>
<path d="M235.017 58.8781V91.2841L229.934 86.2001L205.356 61.6241V81.2881L220.102 96.0321L234.851 110.78H257.265V58.8781H235.017Z" fill="white"/>
<path d="M153.444 88.365L123.952 58.8781H101.535V110.78H123.786V78.3711L153.444 108.029V88.365Z" fill="white"/>
</svg>
