<svg width="491" height="426" viewBox="0 0 491 426" fill="none" xmlns="http://www.w3.org/2000/svg">
<path opacity="0.3" d="M0.0700684 289.697C0.0700684 285.796 3.2322 282.634 7.13289 282.634H304.868C308.769 282.634 311.931 285.796 311.931 289.697V389.596C311.931 393.497 308.769 396.659 304.868 396.659H7.1329C3.23221 396.659 0.0700684 393.497 0.0700684 389.596V289.697Z" fill="white"/>
<path opacity="0.7" d="M165.925 7.2845C165.925 3.38382 169.087 0.22168 172.987 0.22168H470.723C474.623 0.22168 477.786 3.38381 477.786 7.2845V107.184C477.786 111.085 474.623 114.247 470.723 114.247H172.987C169.087 114.247 165.925 111.085 165.925 107.184V7.2845Z" fill="white"/>
<circle cx="261.221" cy="57.2352" r="12.327" fill="white"/>
<circle cx="223.66" cy="57.2352" r="12.327" fill="white"/>
<circle cx="178.253" cy="198.441" r="12.327" fill="white"/>
<circle cx="140.692" cy="198.442" r="12.327" fill="white"/>
<circle cx="95.2838" cy="339.646" r="12.327" fill="white"/>
<circle cx="57.723" cy="339.647" r="12.327" fill="white"/>
<path opacity="0.5" d="M83.0381 148.491C83.0381 144.59 86.2002 141.428 90.1009 141.428H387.836C391.737 141.428 394.899 144.59 394.899 148.491V248.39C394.899 252.291 391.737 255.453 387.836 255.453H90.1009C86.2002 255.453 83.0381 252.291 83.0381 248.39V148.491Z" fill="white"/>
<path d="M304.05 57.2347C304.05 52.1448 308.177 48.0186 313.266 48.0186H433.12C438.209 48.0186 442.336 52.1448 442.336 57.2347C442.336 62.3246 438.209 66.4508 433.12 66.4508H313.266C308.177 66.4508 304.05 62.3246 304.05 57.2347Z" fill="white"/>
<path d="M220.011 198.441C220.011 193.351 224.137 189.225 229.227 189.225H349.08C354.17 189.225 358.297 193.351 358.297 198.441C358.297 203.531 354.17 207.657 349.08 207.657H229.227C224.137 207.657 220.011 203.531 220.011 198.441Z" fill="white"/>
<path d="M138.421 339.647C138.421 334.557 142.548 330.431 147.638 330.431H267.491C272.581 330.431 276.707 334.557 276.707 339.647C276.707 344.737 272.581 348.863 267.491 348.863H147.638C142.548 348.863 138.421 344.737 138.421 339.647Z" fill="white"/>
<path d="M386.359 118.639C387.25 116.883 388.248 115.104 389.418 113.347C390.589 111.59 391.845 109.985 393.187 108.532L388.009 92.6117C387.562 91.1802 388.258 89.5751 389.575 88.8594L411.905 77.776C413.33 77.0385 414.945 77.5591 415.846 78.7303L425.213 92.5685C429.309 92.3082 433.275 92.5252 437.302 93.3494L448.429 80.8561C449.489 79.6849 451.193 79.5113 452.483 80.3789L473.123 94.2605C474.413 95.1281 474.838 96.7332 474.165 98.1647L466.908 113.261C469.202 116.688 470.934 120.397 472.234 124.192L488.538 127.62C490.003 127.945 491.054 129.311 490.919 130.916L489.229 155.881C489.094 157.486 487.926 158.679 486.373 158.766L469.75 160.024C468.924 161.824 467.947 163.711 466.82 165.403C465.692 167.095 464.393 168.765 463.051 170.218L468.229 186.139C468.676 187.57 467.98 189.175 466.663 189.891L444.333 200.974C442.908 201.712 441.293 201.191 440.392 200.02L431.025 186.182C426.929 186.442 422.963 186.225 418.936 185.401L407.81 197.894C406.684 199.022 405.045 199.239 403.755 198.371L383.115 184.49C381.825 183.622 381.336 181.974 382.074 180.586L389.33 165.49C387.036 162.063 385.304 158.354 384.004 154.558L367.7 151.131C366.235 150.805 365.184 149.439 365.32 147.834L367.009 122.869C367.144 121.264 368.313 120.071 369.865 119.984L386.359 118.639ZM415.113 158.896C425.755 166.054 440.316 163.126 447.469 152.389C454.623 141.653 451.768 127.012 441.126 119.854C430.483 112.697 415.922 115.625 408.769 126.361C401.615 137.098 404.47 151.738 415.113 158.896Z" fill="url(#paint0_linear)"/>
<path d="M302.357 352.892C300.643 349.781 299.007 346.488 297.578 342.959C296.149 339.43 295.033 335.929 294.231 332.453L265.249 323.999C262.662 323.212 260.977 320.545 261.249 317.855L267.412 273.326C267.761 270.453 270.177 268.576 272.837 268.423L302.97 268.52C306.743 262.151 311.093 256.463 316.412 251.299L309.097 222.032C308.429 219.262 309.9 216.547 312.503 215.506L354.15 198.849C356.753 197.808 359.577 198.805 361.026 201.263L376.15 227.407C383.586 227.47 390.871 228.656 397.848 230.574L419.514 209.76C421.486 207.908 424.589 207.73 426.843 209.562L462.327 237.434C464.581 239.266 465.172 242.219 463.725 244.62L448.716 270.667C450.56 273.726 452.379 277.099 453.755 280.496C455.131 283.894 456.3 287.527 457.102 291.002L486.083 299.456C488.671 300.244 490.356 302.911 490.084 305.601L483.92 350.13C483.572 353.002 481.156 354.88 478.496 355.032L448.362 354.936C444.59 361.304 440.239 366.992 434.921 372.157L442.236 401.424C442.774 404.246 441.433 406.908 438.83 407.949L397.182 424.606C394.579 425.647 391.626 424.702 390.307 422.193L375.183 396.048C367.747 395.985 360.461 394.799 353.485 392.882L331.819 413.695C329.847 415.547 326.743 415.725 324.489 413.893L289.006 386.021C286.752 384.19 286.161 381.237 287.608 378.836L302.357 352.892ZM391.544 350.934C413.018 342.345 423.443 317.675 414.711 296.112C405.978 274.549 381.263 263.933 359.789 272.522C338.315 281.11 327.89 305.78 336.622 327.343C345.355 348.907 370.069 359.523 391.544 350.934Z" fill="url(#paint1_linear)"/>
<defs>
<linearGradient id="paint0_linear" x1="420.574" y1="155.205" x2="474.041" y2="195.822" gradientUnits="userSpaceOnUse">
<stop stop-color="#F39242"/>
<stop offset="0.802928" stop-color="#E9700D"/>
</linearGradient>
<linearGradient id="paint1_linear" x1="445.783" y1="364.9" x2="316.23" y2="252.51" gradientUnits="userSpaceOnUse">
<stop offset="0.263156" stop-color="#F39242"/>
<stop offset="1" stop-color="#E9700D"/>
</linearGradient>
</defs>
</svg>
