<svg width="450" height="428" viewBox="0 0 450 428" fill="none" xmlns="http://www.w3.org/2000/svg">
<path opacity="0.9" d="M362.775 214.106C362.775 194.596 358.932 175.277 351.466 157.253C344 139.228 333.057 122.851 319.261 109.056C305.466 95.2603 289.089 84.3172 271.064 76.8512C253.04 69.3852 233.721 65.5425 214.211 65.5425L214.211 214.106H362.775Z" fill="white"/>
<path opacity="0.7" d="M214.212 65.5425C194.702 65.5425 175.383 69.3852 157.359 76.8512C139.334 84.3172 122.957 95.2603 109.162 109.056C95.3662 122.851 84.4231 139.228 76.9571 157.253C69.4911 175.278 65.6484 194.596 65.6484 214.106L214.212 214.106L214.212 65.5425Z" fill="white"/>
<path opacity="0.5" d="M65.6484 214.106C65.6484 233.616 69.4911 252.934 76.9571 270.959C84.4231 288.983 95.3662 305.361 109.162 319.156C122.957 332.951 139.334 343.894 157.359 351.36C175.383 358.826 194.702 362.669 214.212 362.669L214.212 214.106L65.6484 214.106Z" fill="white"/>
<path opacity="0.3" d="M214.211 362.669C233.721 362.669 253.04 358.826 271.064 351.36C289.089 343.894 305.466 332.951 319.261 319.156C333.057 305.361 344 288.983 351.466 270.959C358.932 252.934 362.775 233.616 362.775 214.106H214.211L214.211 362.669Z" fill="white"/>
<path d="M425.261 181.827C416.905 127.195 387.69 77.9317 343.76 44.3972C299.829 10.8627 244.606 -4.3301 189.705 2.01371C134.803 8.35753 84.4999 35.7437 49.3746 78.4129C14.2493 121.082 -2.96144 175.71 1.36172 230.807C5.68488 285.905 31.2051 337.18 72.5555 373.849C113.906 410.517 167.865 429.723 223.084 427.426C278.303 425.129 330.481 401.51 368.643 361.534C406.806 321.558 427.98 268.341 427.713 213.075L389.851 213.258C390.071 258.723 372.652 302.503 341.257 335.39C309.862 368.276 266.937 387.707 221.51 389.597C176.084 391.486 131.694 375.687 97.6763 345.521C63.6588 315.355 42.6643 273.173 39.1078 227.846C35.5513 182.519 49.7099 137.579 78.6062 102.476C107.503 67.3739 148.885 44.8443 194.051 39.6255C239.216 34.4067 284.646 46.9053 320.786 74.4929C356.926 102.081 380.96 142.607 387.834 187.551L425.261 181.827Z" fill="url(#paint0_linear)"/>
<path d="M214.212 0.602539C186.174 0.602539 158.411 6.12498 132.507 16.8546C106.604 27.5841 83.0671 43.3107 63.2414 63.1364C43.4157 82.9621 27.6891 106.499 16.9595 132.402C6.22996 158.306 0.707519 186.069 0.70752 214.107C0.70752 242.144 6.22997 269.907 16.9595 295.811C27.6891 321.714 43.4157 345.251 63.2414 365.077C83.0671 384.902 106.604 400.629 132.507 411.359C158.411 422.088 186.174 427.611 214.212 427.611L214.212 389.748C191.146 389.748 168.306 385.205 146.996 376.379C125.686 367.552 106.324 354.614 90.0139 338.304C73.7041 321.994 60.7664 302.632 51.9395 281.322C43.1127 260.012 38.5696 237.172 38.5696 214.107C38.5696 191.041 43.1127 168.201 51.9395 146.891C60.7664 125.581 73.704 106.219 90.0139 89.9089C106.324 73.5991 125.686 60.6614 146.996 51.8345C168.306 43.0077 191.146 38.4646 214.212 38.4646L214.212 0.602539Z" fill="url(#paint1_linear)"/>
<path d="M448.216 204.12C451.262 208.559 447.455 214.107 441.362 214.107L378.15 214.107C372.058 214.107 368.25 208.559 371.296 204.12L402.903 158.062C405.949 153.624 413.564 153.624 416.61 158.062L448.216 204.12Z" fill="url(#paint2_linear)"/>
<path d="M138.827 170.112V258.412C138.827 258.577 138.82 258.742 138.827 258.905C139.531 274.207 173.018 286.53 214.21 286.53C255.403 286.53 288.89 274.207 289.594 258.905C289.601 258.742 289.594 258.577 289.594 258.412V170.112C288.89 185.414 255.403 197.737 214.21 197.737C173.018 197.737 139.531 185.414 138.827 170.112Z" fill="url(#paint3_linear)"/>
<path d="M289.597 169.731C289.597 185.221 255.846 197.779 214.211 197.779C172.576 197.779 138.824 185.221 138.824 169.731C138.824 154.241 172.576 141.683 214.211 141.683C255.846 141.683 289.597 154.241 289.597 169.731Z" fill="white"/>
<defs>
<linearGradient id="paint0_linear" x1="245.744" y1="15.8425" x2="364.206" y2="292.99" gradientUnits="userSpaceOnUse">
<stop offset="0.097176" stop-color="#F39242"/>
<stop offset="0.458557" stop-color="#EC791A" stop-opacity="0.31"/>
<stop offset="0.692446" stop-color="#EE8229" stop-opacity="0"/>
<stop offset="0.80532" stop-color="#E9700D"/>
</linearGradient>
<linearGradient id="paint1_linear" x1="195.069" y1="26.4494" x2="190.051" y2="410.851" gradientUnits="userSpaceOnUse">
<stop stop-color="#F39242"/>
<stop offset="1" stop-color="#E9700D"/>
</linearGradient>
<linearGradient id="paint2_linear" x1="401.721" y1="154.733" x2="401.75" y2="214.107" gradientUnits="userSpaceOnUse">
<stop stop-color="#F39242"/>
<stop offset="1" stop-color="#E9700D"/>
</linearGradient>
<linearGradient id="paint3_linear" x1="138.824" y1="240.152" x2="289.598" y2="240.028" gradientUnits="userSpaceOnUse">
<stop stop-color="#F39242"/>
<stop offset="1" stop-color="#E9700D"/>
</linearGradient>
</defs>
</svg>
