<svg width="190" height="37" viewBox="0 0 190 37" fill="none" xmlns="http://www.w3.org/2000/svg">
<path fill-rule="evenodd" clip-rule="evenodd" d="M0 15.9347V11.4116H15.9347V0L31.8699 15.9347H0Z" fill="white"/>
<path fill-rule="evenodd" clip-rule="evenodd" d="M0 20.4573L15.9347 36.392V24.9804H31.8699V20.4573H0Z" fill="white"/>
<path fill-rule="evenodd" clip-rule="evenodd" d="M53.2542 23.0552C54.7731 23.0552 55.9916 22.6249 56.9115 21.7646C57.8314 20.9044 58.2913 19.7147 58.2913 18.1963C58.2913 16.6774 57.8314 15.4881 56.9115 14.6269C55.9916 13.7672 54.7731 13.3364 53.2542 13.3364H50.0909V23.0552H53.2542ZM45.0801 9.33765H53.4568C55.3969 9.33765 57.1183 9.70112 58.6195 10.4266C60.1216 11.1517 61.2851 12.1805 62.1129 13.5136C62.9387 14.8466 63.3528 16.4075 63.3528 18.1963C63.3528 19.9845 62.9387 21.5454 62.1129 22.878C61.2851 24.2115 60.1216 25.2408 58.6195 25.9664C57.1183 26.6909 55.3969 27.0539 53.4568 27.0539H45.0801V9.33765Z" fill="white"/>
<path fill-rule="evenodd" clip-rule="evenodd" d="M74.8686 19.9175L72.5908 14.2476L70.3134 19.9175H74.8686ZM76.3364 23.612H68.8447L67.4534 27.0538H62.3408L70.1615 9.33801H75.0964L82.942 27.0538H77.7277L76.3364 23.612Z" fill="white"/>
<path fill-rule="evenodd" clip-rule="evenodd" d="M85.7253 13.3111H80.2832V9.33813H96.1525V13.3111H90.7362V27.0539H85.7253V13.3111Z" fill="white"/>
<path fill-rule="evenodd" clip-rule="evenodd" d="M106.051 19.9177L103.773 14.2477L101.496 19.9177H106.051ZM107.519 23.6121H100.027L98.636 27.0539H93.5234L101.344 9.33813H106.279L114.124 27.0539H108.91L107.519 23.6121Z" fill="white"/>
<path fill-rule="evenodd" clip-rule="evenodd" d="M118.868 26.2312C117.392 25.4474 116.232 24.3546 115.389 22.9547C114.545 21.5543 114.123 19.9676 114.123 18.1965C114.123 16.4245 114.545 14.8383 115.389 13.4384C116.232 12.038 117.392 10.9451 118.868 10.1609C120.345 9.37566 122.011 8.98352 123.867 8.98352C125.486 8.98352 126.946 9.27058 128.246 9.84421C129.545 10.4178 130.624 11.2446 131.485 12.3245L128.296 15.2094C127.149 13.8262 125.757 13.1341 124.12 13.1341C123.158 13.1341 122.302 13.3452 121.551 13.767C120.801 14.1887 120.219 14.7834 119.805 15.5519C119.392 16.3194 119.185 17.2007 119.185 18.1965C119.185 19.1914 119.392 20.0727 119.805 20.8412C120.219 21.6087 120.801 22.2039 121.551 22.6247C122.302 23.0474 123.158 23.2575 124.12 23.2575C125.757 23.2575 127.149 22.5659 128.296 21.1827L131.485 24.0681C130.624 25.148 129.545 25.9748 128.246 26.5484C126.946 27.1215 125.486 27.4086 123.867 27.4086C122.011 27.4086 120.345 27.0165 118.868 26.2312Z" fill="white"/>
<path fill-rule="evenodd" clip-rule="evenodd" d="M144.219 22.6248C144.945 22.204 145.518 21.6088 145.94 20.8413C146.362 20.0728 146.573 19.1916 146.573 18.1967C146.573 17.2008 146.362 16.3196 145.94 15.5515C145.518 14.7835 144.945 14.1889 144.219 13.7671C143.493 13.3454 142.683 13.1342 141.789 13.1342C140.895 13.1342 140.085 13.3454 139.36 13.7671C138.635 14.1889 138.06 14.7835 137.639 15.5515C137.217 16.3196 137.006 17.2008 137.006 18.1967C137.006 19.1916 137.217 20.0728 137.639 20.8413C138.06 21.6088 138.635 22.204 139.36 22.6248C140.085 23.0475 140.895 23.2576 141.789 23.2576C142.683 23.2576 143.493 23.0475 144.219 22.6248ZM136.741 26.2185C135.247 25.4261 134.075 24.3289 133.223 22.929C132.37 21.5286 131.944 19.9515 131.944 18.1967C131.944 16.4414 132.37 14.8637 133.223 13.4633C134.075 12.0634 135.247 10.9668 136.741 10.1734C138.234 9.38054 139.916 8.98315 141.789 8.98315C143.662 8.98315 145.346 9.38054 146.839 10.1734C148.332 10.9668 149.504 12.0634 150.357 13.4633C151.208 14.8637 151.634 16.4414 151.634 18.1967C151.634 19.9515 151.208 21.5286 150.357 22.929C149.504 24.3289 148.332 25.4261 146.839 26.2185C145.346 27.0123 143.662 27.4087 141.789 27.4087C139.916 27.4087 138.234 27.0123 136.741 26.2185Z" fill="white"/>
<path fill-rule="evenodd" clip-rule="evenodd" d="M163.757 13.9695C163.233 13.5138 162.457 13.286 161.428 13.286H158.644V18.4745H161.428C162.457 18.4745 163.233 18.251 163.757 17.8039C164.279 17.3568 164.541 16.7197 164.541 15.8929C164.541 15.0661 164.279 14.4251 163.757 13.9695ZM161.378 22.3466H158.644V27.0542H153.634V9.33789H161.732C163.335 9.33789 164.726 9.60345 165.908 10.1351C167.089 10.6662 168 11.4256 168.641 12.4129C169.282 13.4001 169.603 14.5603 169.603 15.8929C169.603 17.1758 169.303 18.2935 168.704 19.2463C168.106 20.2002 167.249 20.9462 166.135 21.4859L169.957 27.0542H164.592L161.378 22.3466Z" fill="white"/>
<path fill-rule="evenodd" clip-rule="evenodd" d="M185.952 23.1817V27.0538H171.729V9.33801H185.624V13.2102H176.689V16.1963H184.561V19.9424H176.689V23.1817H185.952Z" fill="white"/>
<path fill-rule="evenodd" clip-rule="evenodd" d="M187.28 11.26H187.035V9.53193H186.396V9.33801H187.919V9.53193H187.28V11.26Z" fill="white"/>
<path fill-rule="evenodd" clip-rule="evenodd" d="M188.415 9.71987V11.2602H188.173V9.33777H188.436L189.086 10.6723L189.738 9.33777H190V11.2602H189.758V9.71987L189.17 10.9254H189.006L188.415 9.71987Z" fill="white"/>
</svg>
