<svg width="363" height="258" viewBox="0 0 363 258" fill="none" xmlns="http://www.w3.org/2000/svg">
<path d="M349.498 207.849C348.505 207.849 347.503 207.592 346.617 207.08L336.898 201.475C336.336 201.152 335.996 200.565 335.996 199.92C335.996 199.267 336.336 198.689 336.898 198.366L346.617 192.761C348.397 191.736 350.607 191.736 352.379 192.761L362.098 198.366C362.661 198.689 363 199.276 363 199.92C363 200.574 362.661 201.152 362.098 201.475L352.379 207.08C351.493 207.592 350.492 207.849 349.498 207.849ZM349.498 193.538C348.77 193.538 348.041 193.728 347.387 194.1L337.668 199.706C337.552 199.772 337.536 199.871 337.536 199.929C337.536 199.987 337.552 200.086 337.668 200.152L347.387 205.757C348.687 206.509 350.309 206.509 351.609 205.757L361.328 200.152C361.444 200.086 361.46 199.987 361.46 199.929C361.46 199.871 361.444 199.772 361.328 199.706L351.609 194.1C350.955 193.72 350.227 193.538 349.498 193.538Z" fill="url(#paint0_linear)"/>
<path d="M321.706 176.062C320.084 176.062 318.469 175.648 317.021 174.813L300.298 165.174C299.504 164.719 299.023 163.892 299.023 162.975C299.023 162.057 299.495 161.239 300.298 160.776L317.021 151.136C319.91 149.474 323.494 149.466 326.383 151.136L343.106 160.776C343.901 161.23 344.381 162.057 344.381 162.975C344.381 163.892 343.909 164.711 343.114 165.174L326.392 174.813C324.943 175.648 323.329 176.062 321.706 176.062ZM317.799 173.482C320.216 174.871 323.213 174.871 325.622 173.482L342.344 163.843C342.791 163.578 342.841 163.148 342.841 162.975C342.841 162.801 342.791 162.371 342.344 162.107L325.622 152.467C323.205 151.078 320.208 151.078 317.799 152.467L301.076 162.107C300.629 162.371 300.58 162.801 300.58 162.975C300.58 163.148 300.629 163.578 301.076 163.843L317.799 173.482Z" fill="url(#paint1_linear)" fill-opacity="0.2"/>
<path d="M22.6745 191.239C21.0519 191.239 19.4376 190.826 17.9889 189.991L1.27487 180.343C0.471867 179.888 0 179.062 0 178.144C0 177.226 0.471867 176.408 1.27487 175.945L17.9972 166.305C20.8863 164.635 24.4709 164.635 27.36 166.305L44.0824 175.945C44.8771 176.399 45.3572 177.226 45.3572 178.144C45.3572 179.062 44.8854 179.88 44.0824 180.343L27.36 189.983C25.9113 190.818 24.2888 191.239 22.6745 191.239ZM22.6745 166.603C21.3251 166.603 19.9674 166.95 18.7588 167.645L2.03648 177.284C1.58945 177.549 1.53978 177.979 1.53978 178.152C1.53978 178.326 1.58945 178.756 2.03648 179.02L18.7588 188.66C21.1761 190.049 24.1729 190.049 26.5819 188.66L43.3042 179.02C43.7595 178.756 43.8009 178.326 43.8009 178.152C43.8009 177.979 43.7512 177.549 43.3042 177.284L26.5819 167.645C25.3815 166.95 24.0238 166.603 22.6745 166.603Z" fill="url(#paint2_linear)" fill-opacity="0.2"/>
<g opacity="0.6" filter="url(#filter0_f)">
<path d="M191.997 233.292L72.4239 164.352C70.6772 163.343 70.9007 161.59 72.9123 160.433L149.653 116.187C151.665 115.029 154.711 114.897 156.449 115.906L276.014 184.846C277.761 185.855 277.537 187.607 275.526 188.765L198.785 233.011C196.782 234.168 193.735 234.3 191.997 233.292Z" fill="#1D033E"/>
</g>
<path d="M194.731 245.733C193.332 245.733 191.99 245.443 190.972 244.848L54.5114 166.177C53.3939 165.532 52.7812 164.606 52.7812 163.565C52.7812 162.366 53.6174 161.2 55.0661 160.365L148.082 105.942C150.632 104.471 154.382 104.33 156.617 105.62L293.078 184.299C294.195 184.944 294.808 185.87 294.808 186.911C294.808 188.11 293.972 189.267 292.523 190.111L199.507 244.534C198.125 245.327 196.386 245.733 194.731 245.733ZM152.875 106.289C151.476 106.289 149.994 106.628 148.86 107.282L55.8443 161.705C54.8922 162.258 54.3293 162.953 54.3293 163.573C54.3293 164.168 54.8508 164.598 55.2896 164.846L191.75 243.525C193.489 244.534 196.693 244.385 198.737 243.203L291.753 188.78C292.705 188.226 293.268 187.531 293.268 186.911C293.268 186.316 292.747 185.886 292.308 185.638L155.847 106.959C155.077 106.504 154.009 106.289 152.875 106.289Z" fill="url(#paint3_linear)" fill-opacity="0.2"/>
<path d="M307.782 69.2712L188.689 0.603721C187.87 0.13249 187.017 0.0332842 186.255 0.256499H186.247L184.045 1.02535L184.823 1.20723C184.509 1.57925 184.26 2.03395 184.095 2.57132L157.157 89.8979C156.486 92.0639 157.463 94.6929 159.342 95.7759L278.435 164.443C278.725 164.609 279.014 164.724 279.312 164.799L279.014 165.444L281.117 164.708H281.109C281.97 164.369 282.682 163.592 283.021 162.484L309.951 75.1574C310.638 72.9832 309.661 70.3542 307.782 69.2712Z" fill="url(#paint4_radial)"/>
<path d="M274.16 167.7L274.201 167.75L156.566 99.9257C154.835 98.9254 151.814 99.0494 149.81 100.207L73.8066 144.031L71.2734 143.064L71.9854 146.611C72.0764 147.148 72.4572 147.644 73.1278 148.033L191.848 216.485C193.578 217.485 196.6 217.361 198.603 216.204L274.797 172.272C275.741 171.726 276.279 171.057 276.412 170.395L276.42 170.404L277.148 166.948L274.16 167.7Z" fill="url(#paint5_radial)"/>
<path d="M191.997 213.36L72.4239 144.42C70.6772 143.411 70.9007 141.659 72.9123 140.501L149.653 96.2551C151.665 95.0977 154.711 94.9654 156.449 95.974L276.014 164.914C277.761 165.923 277.537 167.676 275.526 168.833L198.785 213.079C196.782 214.236 193.735 214.369 191.997 213.36Z" fill="url(#paint6_radial)"/>
<path d="M275.534 167.909L198.793 212.155C196.782 213.313 193.735 213.445 191.997 212.436L72.424 143.496C71.828 143.157 71.4803 142.719 71.3395 142.256C71.1077 143.058 71.4472 143.86 72.424 144.422L191.989 213.362C193.735 214.371 196.774 214.238 198.785 213.081L275.526 168.835C276.85 168.066 277.38 167.049 277.099 166.156C276.925 166.776 276.411 167.396 275.534 167.909Z" fill="white"/>
<g opacity="0.4">
<path opacity="0.4" d="M129.464 133.239L125.425 130.908C125.102 130.718 125.143 130.395 125.516 130.181L130.284 127.436C130.657 127.221 131.228 127.196 131.551 127.386L135.59 129.718C135.913 129.908 135.872 130.23 135.499 130.445L130.731 133.19C130.35 133.405 129.787 133.43 129.464 133.239Z" fill="#06033E"/>
<path opacity="0.4" d="M135.695 136.835L131.655 134.504C131.332 134.314 131.374 133.991 131.746 133.776L136.515 131.032C136.887 130.817 137.458 130.792 137.781 130.982L141.821 133.313C142.144 133.503 142.102 133.826 141.73 134.041L136.962 136.785C136.581 137 136.018 137.017 135.695 136.835Z" fill="#06033E"/>
<path opacity="0.4" d="M141.933 140.431L137.893 138.099C137.571 137.909 137.612 137.587 137.984 137.372L142.753 134.627C143.125 134.412 143.697 134.387 144.019 134.578L148.059 136.909C148.382 137.099 148.341 137.422 147.968 137.636L143.2 140.381C142.819 140.588 142.256 140.613 141.933 140.431Z" fill="#06033E"/>
<path opacity="0.4" d="M150.547 137.463L146.507 135.132C146.184 134.942 146.225 134.619 146.598 134.404L150.596 132.098C150.969 131.883 151.54 131.858 151.863 132.048L155.903 134.38C156.225 134.57 156.184 134.892 155.812 135.107L151.813 137.414C151.441 137.62 150.869 137.645 150.547 137.463Z" fill="#06033E"/>
<path opacity="0.4" d="M156.781 141.049L152.741 138.718C152.418 138.528 152.46 138.205 152.832 137.99L156.831 135.684C157.203 135.469 157.774 135.444 158.097 135.634L162.137 137.966C162.46 138.156 162.418 138.478 162.046 138.693L158.047 141C157.675 141.215 157.104 141.239 156.781 141.049Z" fill="#06033E"/>
<path opacity="0.4" d="M163.015 144.647L158.975 142.316C158.653 142.125 158.694 141.803 159.066 141.588L163.065 139.282C163.437 139.067 164.009 139.042 164.332 139.232L168.371 141.563C168.694 141.753 168.653 142.076 168.28 142.291L164.282 144.597C163.909 144.812 163.338 144.837 163.015 144.647Z" fill="#06033E"/>
<path opacity="0.4" d="M169.246 148.241L165.206 145.909C164.883 145.719 164.924 145.397 165.297 145.182L169.295 142.875C169.668 142.66 170.239 142.636 170.562 142.826L174.602 145.157C174.925 145.347 174.883 145.67 174.511 145.885L170.512 148.191C170.14 148.406 169.569 148.423 169.246 148.241Z" fill="#06033E"/>
<path opacity="0.4" d="M175.488 151.836L171.448 149.505C171.125 149.315 171.167 148.992 171.539 148.778L175.538 146.471C175.91 146.256 176.481 146.231 176.804 146.421L180.844 148.753C181.167 148.943 181.125 149.265 180.753 149.48L176.755 151.787C176.382 151.993 175.811 152.018 175.488 151.836Z" fill="#06033E"/>
<path opacity="0.4" d="M181.718 155.424L177.679 153.093C177.356 152.903 177.397 152.58 177.77 152.365L181.768 150.059C182.141 149.844 182.712 149.819 183.035 150.009L187.075 152.341C187.397 152.531 187.356 152.853 186.983 153.068L182.985 155.375C182.612 155.59 182.041 155.614 181.718 155.424Z" fill="#06033E"/>
<path opacity="0.4" d="M187.949 159.02L183.909 156.689C183.586 156.498 183.628 156.176 184 155.961L187.999 153.655C188.371 153.44 188.942 153.415 189.265 153.605L193.305 155.936C193.628 156.126 193.586 156.449 193.214 156.664L189.215 158.97C188.843 159.185 188.272 159.21 187.949 159.02Z" fill="#06033E"/>
<path opacity="0.4" d="M194.183 162.618L190.143 160.286C189.821 160.096 189.862 159.774 190.234 159.559L194.233 157.252C194.605 157.037 195.177 157.012 195.499 157.203L199.539 159.534C199.862 159.724 199.821 160.047 199.448 160.261L195.45 162.568C195.077 162.783 194.506 162.8 194.183 162.618Z" fill="#06033E"/>
<path opacity="0.4" d="M200.414 166.213L196.374 163.882C196.051 163.692 196.092 163.369 196.465 163.154L200.463 160.848C200.836 160.633 201.407 160.608 201.73 160.798L205.77 163.13C206.093 163.32 206.051 163.642 205.679 163.857L201.68 166.164C201.308 166.37 200.745 166.395 200.414 166.213Z" fill="#06033E"/>
<path opacity="0.4" d="M206.652 169.801L202.612 167.47C202.289 167.28 202.331 166.957 202.703 166.742L206.702 164.436C207.074 164.221 207.645 164.196 207.968 164.386L212.008 166.718C212.331 166.908 212.29 167.23 211.917 167.445L207.919 169.752C207.546 169.967 206.983 169.991 206.652 169.801Z" fill="#06033E"/>
<path opacity="0.4" d="M159.734 135.756L155.694 133.425C155.371 133.235 155.413 132.912 155.785 132.697L159.784 130.391C160.156 130.176 160.727 130.151 161.05 130.341L165.09 132.673C165.413 132.863 165.372 133.185 164.999 133.4L161.001 135.707C160.62 135.913 160.057 135.938 159.734 135.756Z" fill="#06033E"/>
<path opacity="0.4" d="M153.406 132.104L149.366 129.773C149.043 129.582 149.085 129.26 149.457 129.045L153.456 126.739C153.828 126.524 154.399 126.499 154.722 126.689L158.762 129.02C159.085 129.21 159.043 129.533 158.671 129.748L154.672 132.054C154.3 132.269 153.737 132.294 153.406 132.104Z" fill="#06033E"/>
<path opacity="0.4" d="M147.066 128.452L138.374 123.443C138.051 123.252 138.092 122.93 138.465 122.715L142.463 120.408C142.836 120.194 143.407 120.169 143.73 120.359L152.422 125.369C152.745 125.559 152.704 125.881 152.331 126.096L148.333 128.403C147.952 128.618 147.389 128.643 147.066 128.452Z" fill="#06033E"/>
<path opacity="0.4" d="M151.501 124.012L144.448 119.944C144.125 119.754 144.167 119.432 144.539 119.217L148.538 116.91C148.91 116.695 149.481 116.671 149.804 116.861L156.857 120.928C157.18 121.118 157.139 121.441 156.766 121.656L152.768 123.962C152.395 124.177 151.824 124.202 151.501 124.012Z" fill="#06033E"/>
<path opacity="0.4" d="M165.968 139.348L161.929 137.017C161.606 136.827 161.647 136.504 162.02 136.289L166.018 133.983C166.391 133.768 166.962 133.743 167.285 133.933L171.325 136.264C171.647 136.455 171.606 136.777 171.233 136.992L167.235 139.298C166.854 139.513 166.291 139.538 165.968 139.348Z" fill="#06033E"/>
<path opacity="0.4" d="M172.207 142.942L168.167 140.61C167.844 140.42 167.885 140.098 168.258 139.883L172.256 137.576C172.629 137.361 173.2 137.337 173.523 137.527L177.563 139.858C177.886 140.048 177.844 140.371 177.472 140.586L173.473 142.892C173.092 143.107 172.53 143.132 172.207 142.942Z" fill="#06033E"/>
<path opacity="0.4" d="M178.441 146.54L174.401 144.208C174.078 144.018 174.12 143.696 174.492 143.481L178.491 141.174C178.863 140.959 179.434 140.934 179.757 141.124L183.797 143.456C184.12 143.646 184.079 143.968 183.706 144.183L179.708 146.49C179.327 146.705 178.764 146.73 178.441 146.54Z" fill="#06033E"/>
<path opacity="0.4" d="M184.675 150.135L180.636 147.804C180.313 147.614 180.354 147.291 180.727 147.076L184.725 144.77C185.098 144.555 185.669 144.53 185.992 144.72L190.032 147.052C190.354 147.242 190.313 147.564 189.94 147.779L185.942 150.086C185.561 150.301 184.998 150.317 184.675 150.135Z" fill="#06033E"/>
<path opacity="0.4" d="M190.902 153.731L186.862 151.4C186.539 151.209 186.581 150.887 186.953 150.672L190.952 148.365C191.324 148.151 191.895 148.126 192.218 148.316L196.258 150.647C196.581 150.837 196.54 151.16 196.167 151.375L192.169 153.681C191.788 153.888 191.225 153.913 190.902 153.731Z" fill="#06033E"/>
<path opacity="0.4" d="M197.144 157.319L193.104 154.987C192.781 154.797 192.823 154.475 193.195 154.26L197.194 151.953C197.566 151.738 198.138 151.714 198.46 151.904L202.5 154.235C202.823 154.425 202.782 154.748 202.409 154.963L198.411 157.269C198.03 157.484 197.467 157.509 197.144 157.319Z" fill="#06033E"/>
<path opacity="0.4" d="M203.371 160.916L199.331 158.585C199.008 158.395 199.049 158.073 199.422 157.858L203.42 155.551C203.793 155.336 204.364 155.311 204.687 155.501L208.727 157.833C209.05 158.023 209.008 158.345 208.636 158.56L204.637 160.867C204.257 161.082 203.694 161.107 203.371 160.916Z" fill="#06033E"/>
<path opacity="0.4" d="M209.601 164.512L205.561 162.181C205.238 161.991 205.28 161.668 205.652 161.453L209.651 159.147C210.023 158.932 210.595 158.907 210.917 159.097L214.957 161.428C215.28 161.619 215.239 161.941 214.866 162.156L210.868 164.463C210.487 164.678 209.924 164.694 209.601 164.512Z" fill="#06033E"/>
<path opacity="0.4" d="M215.843 168.106L211.804 165.775C211.481 165.584 211.522 165.262 211.895 165.047L215.893 162.74C216.266 162.526 216.837 162.501 217.16 162.691L221.199 165.022C221.522 165.212 221.481 165.535 221.108 165.75L217.11 168.056C216.729 168.263 216.166 168.288 215.843 168.106Z" fill="#06033E"/>
<path opacity="0.4" d="M226.92 174.489L218.112 169.413C217.789 169.223 217.831 168.901 218.203 168.686L222.202 166.379C222.574 166.164 223.145 166.139 223.468 166.33L232.276 171.406C232.599 171.596 232.558 171.918 232.185 172.133L228.187 174.44C227.806 174.655 227.243 174.679 226.92 174.489Z" fill="#06033E"/>
<path opacity="0.4" d="M239.066 167.494L231.632 163.212C231.309 163.022 231.35 162.699 231.723 162.485L235.721 160.178C236.094 159.963 236.665 159.938 236.988 160.128L244.422 164.411C244.745 164.601 244.703 164.923 244.331 165.138L240.332 167.445C239.951 167.66 239.389 167.685 239.066 167.494Z" fill="#06033E"/>
<path opacity="0.4" d="M176.879 138.645L172.839 136.314C172.516 136.123 172.557 135.801 172.93 135.586L176.928 133.28C177.301 133.065 177.872 133.04 178.195 133.23L182.235 135.561C182.557 135.751 182.516 136.074 182.144 136.289L178.145 138.595C177.773 138.81 177.21 138.835 176.879 138.645Z" fill="#06033E"/>
<path opacity="0.4" d="M170.504 134.965L166.464 132.634C166.141 132.444 166.182 132.121 166.555 131.906L170.553 129.6C170.926 129.385 171.497 129.36 171.82 129.55L175.86 131.882C176.183 132.072 176.141 132.394 175.769 132.609L171.77 134.916C171.389 135.131 170.826 135.147 170.504 134.965Z" fill="#06033E"/>
<path opacity="0.4" d="M164.105 131.276L160.065 128.944C159.742 128.754 159.784 128.432 160.156 128.217L164.155 125.91C164.527 125.695 165.099 125.671 165.421 125.861L169.461 128.192C169.784 128.382 169.743 128.705 169.37 128.92L165.372 131.226C164.991 131.441 164.428 131.466 164.105 131.276Z" fill="#06033E"/>
<path opacity="0.4" d="M157.711 127.6L153.671 125.269C153.348 125.079 153.389 124.756 153.762 124.541L157.76 122.235C158.133 122.02 158.704 121.995 159.027 122.185L163.067 124.516C163.39 124.707 163.348 125.029 162.976 125.244L158.977 127.55C158.605 127.757 158.033 127.782 157.711 127.6Z" fill="#06033E"/>
<path opacity="0.4" d="M183.113 142.239L179.073 139.907C178.75 139.717 178.792 139.395 179.164 139.18L183.163 136.873C183.535 136.658 184.106 136.634 184.429 136.824L188.469 139.155C188.792 139.345 188.751 139.668 188.378 139.883L184.38 142.189C184.007 142.404 183.444 142.429 183.113 142.239Z" fill="#06033E"/>
<path opacity="0.4" d="M189.351 145.838L185.311 143.507C184.988 143.317 185.03 142.994 185.402 142.779L189.401 140.473C189.773 140.258 190.345 140.233 190.667 140.423L194.707 142.755C195.03 142.945 194.989 143.267 194.616 143.482L190.618 145.789C190.245 146.004 189.682 146.028 189.351 145.838Z" fill="#06033E"/>
<path opacity="0.4" d="M195.589 149.43L191.55 147.099C191.227 146.909 191.268 146.586 191.641 146.371L195.639 144.065C196.012 143.85 196.583 143.825 196.906 144.015L200.946 146.346C201.268 146.537 201.227 146.859 200.855 147.074L196.856 149.381C196.475 149.587 195.912 149.612 195.589 149.43Z" fill="#06033E"/>
<path opacity="0.4" d="M201.832 153.022L197.792 150.691C197.469 150.5 197.51 150.178 197.883 149.963L201.881 147.657C202.254 147.442 202.825 147.417 203.148 147.607L207.188 149.938C207.511 150.128 207.469 150.451 207.097 150.666L203.098 152.972C202.717 153.187 202.155 153.212 201.832 153.022Z" fill="#06033E"/>
<path opacity="0.4" d="M208.058 156.62L204.018 154.288C203.696 154.098 203.737 153.776 204.109 153.561L208.108 151.254C208.48 151.039 209.052 151.014 209.374 151.205L213.414 153.536C213.737 153.726 213.696 154.048 213.323 154.263L209.325 156.57C208.944 156.785 208.381 156.81 208.058 156.62Z" fill="#06033E"/>
<path opacity="0.4" d="M214.293 160.213L210.253 157.882C209.93 157.692 209.971 157.369 210.344 157.154L214.342 154.848C214.715 154.633 215.286 154.608 215.609 154.798L219.649 157.13C219.972 157.32 219.93 157.642 219.558 157.857L215.559 160.164C215.178 160.379 214.615 160.403 214.293 160.213Z" fill="#06033E"/>
<path opacity="0.4" d="M220.527 163.811L216.487 161.48C216.164 161.289 216.206 160.967 216.578 160.752L220.577 158.446C220.949 158.231 221.52 158.206 221.843 158.396L225.883 160.727C226.206 160.917 226.165 161.24 225.792 161.455L221.794 163.761C221.413 163.968 220.85 163.993 220.527 163.811Z" fill="#06033E"/>
<path opacity="0.4" d="M226.754 167.397L222.714 165.066C222.391 164.875 222.432 164.553 222.805 164.338L226.803 162.032C227.176 161.817 227.747 161.792 228.07 161.982L232.11 164.313C232.432 164.503 232.391 164.826 232.019 165.041L228.02 167.347C227.639 167.562 227.076 167.587 226.754 167.397Z" fill="#06033E"/>
<path opacity="0.4" d="M232.996 170.993L228.956 168.661C228.633 168.471 228.674 168.149 229.047 167.934L233.045 165.627C233.418 165.412 233.989 165.387 234.312 165.578L238.352 167.909C238.675 168.099 238.633 168.422 238.261 168.636L234.262 170.943C233.882 171.158 233.319 171.183 232.996 170.993Z" fill="#06033E"/>
<path opacity="0.4" d="M173.605 129.758L169.565 127.427C169.242 127.237 169.284 126.914 169.656 126.699L173.655 124.393C174.027 124.178 174.599 124.153 174.921 124.343L178.961 126.675C179.284 126.865 179.243 127.187 178.87 127.402L174.872 129.709C174.491 129.924 173.928 129.948 173.605 129.758Z" fill="#06033E"/>
<path opacity="0.4" d="M167.402 126.178L163.362 123.847C163.039 123.657 163.081 123.334 163.453 123.119L167.452 120.813C167.824 120.598 168.395 120.573 168.718 120.763L172.758 123.095C173.081 123.285 173.04 123.607 172.667 123.822L168.669 126.129C168.288 126.344 167.725 126.368 167.402 126.178Z" fill="#06033E"/>
<path opacity="0.4" d="M161.199 122.604L157.159 120.273C156.836 120.082 156.878 119.76 157.25 119.545L161.249 117.239C161.621 117.024 162.192 116.999 162.515 117.189L166.555 119.52C166.878 119.71 166.836 120.033 166.464 120.248L162.465 122.554C162.093 122.769 161.53 122.786 161.199 122.604Z" fill="#06033E"/>
<path opacity="0.4" d="M154.992 119.028L150.952 116.696C150.629 116.506 150.671 116.184 151.043 115.969L155.041 113.662C155.414 113.447 155.985 113.423 156.308 113.613L160.348 115.944C160.671 116.134 160.629 116.457 160.257 116.672L156.258 118.978C155.886 119.193 155.315 119.218 154.992 119.028Z" fill="#06033E"/>
<path opacity="0.4" d="M161.382 115.347L157.343 113.016C157.02 112.826 157.061 112.503 157.434 112.288L158.758 111.528C159.131 111.313 159.702 111.288 160.025 111.478L164.065 113.809C164.387 113.999 164.346 114.322 163.974 114.537L162.649 115.297C162.268 115.512 161.705 115.537 161.382 115.347Z" fill="#06033E"/>
<path opacity="0.4" d="M169.461 120.019L165.421 117.688C165.098 117.497 165.139 117.175 165.512 116.96L166.836 116.199C167.209 115.985 167.78 115.96 168.103 116.15L172.143 118.481C172.466 118.671 172.424 118.994 172.052 119.209L170.727 119.969C170.355 120.184 169.792 120.209 169.461 120.019Z" fill="#06033E"/>
<path opacity="0.4" d="M175.648 123.579L171.608 121.248C171.285 121.058 171.327 120.736 171.699 120.521L173.024 119.76C173.396 119.545 173.968 119.52 174.29 119.71L178.33 122.042C178.653 122.232 178.612 122.554 178.239 122.769L176.915 123.53C176.534 123.745 175.971 123.761 175.648 123.579Z" fill="#06033E"/>
<path opacity="0.4" d="M181.824 127.144L177.784 124.813C177.461 124.622 177.503 124.3 177.875 124.085L179.2 123.324C179.572 123.11 180.143 123.085 180.466 123.275L184.506 125.606C184.829 125.796 184.788 126.119 184.415 126.334L183.09 127.094C182.71 127.301 182.147 127.326 181.824 127.144Z" fill="#06033E"/>
<path opacity="0.4" d="M188 130.701L183.96 128.369C183.637 128.179 183.678 127.857 184.051 127.642L185.375 126.881C185.748 126.666 186.319 126.641 186.642 126.832L190.682 129.163C191.005 129.353 190.963 129.675 190.591 129.89L189.266 130.651C188.885 130.866 188.323 130.891 188 130.701Z" fill="#06033E"/>
<path opacity="0.4" d="M222.488 150.583L218.448 148.252C218.125 148.062 218.167 147.739 218.539 147.525L219.864 146.764C220.236 146.549 220.807 146.524 221.13 146.714L225.17 149.046C225.493 149.236 225.452 149.558 225.079 149.773L223.754 150.534C223.374 150.749 222.811 150.774 222.488 150.583Z" fill="#06033E"/>
<path opacity="0.4" d="M228.664 154.146L224.624 151.815C224.301 151.624 224.342 151.302 224.715 151.087L226.039 150.326C226.412 150.111 226.983 150.087 227.306 150.277L231.346 152.608C231.669 152.798 231.627 153.121 231.255 153.336L229.93 154.096C229.549 154.311 228.987 154.336 228.664 154.146Z" fill="#06033E"/>
<path opacity="0.4" d="M234.843 157.71L230.804 155.379C230.481 155.189 230.522 154.866 230.895 154.651L232.219 153.891C232.592 153.676 233.163 153.651 233.486 153.841L237.526 156.173C237.848 156.363 237.807 156.685 237.434 156.9L236.11 157.661C235.729 157.876 235.166 157.9 234.843 157.71Z" fill="#06033E"/>
<path opacity="0.4" d="M241.011 161.271L236.972 158.94C236.649 158.749 236.69 158.427 237.063 158.212L238.387 157.451C238.76 157.236 239.331 157.212 239.654 157.402L243.694 159.733C244.016 159.923 243.975 160.246 243.602 160.461L242.278 161.221C241.905 161.436 241.334 161.453 241.011 161.271Z" fill="#06033E"/>
<path opacity="0.4" d="M179.839 133.352L175.8 131.021C175.477 130.831 175.518 130.508 175.891 130.293L179.889 127.987C180.262 127.772 180.833 127.747 181.156 127.937L185.196 130.268C185.518 130.458 185.477 130.781 185.105 130.996L181.106 133.302C180.725 133.517 180.162 133.534 179.839 133.352Z" fill="#06033E"/>
<path opacity="0.4" d="M186.07 136.948L182.03 134.616C181.707 134.426 181.749 134.104 182.121 133.889L186.12 131.582C186.492 131.367 187.063 131.343 187.386 131.533L191.426 133.864C191.749 134.054 191.708 134.377 191.335 134.592L187.337 136.898C186.964 137.105 186.393 137.13 186.07 136.948Z" fill="#06033E"/>
<path opacity="0.4" d="M192.304 140.536L188.264 138.204C187.942 138.014 187.983 137.692 188.356 137.477L192.354 135.17C192.727 134.955 193.298 134.93 193.621 135.121L197.66 137.452C197.983 137.642 197.942 137.965 197.569 138.179L193.571 140.486C193.198 140.701 192.627 140.726 192.304 140.536Z" fill="#06033E"/>
<path opacity="0.4" d="M198.539 144.133L194.499 141.802C194.176 141.612 194.217 141.289 194.59 141.074L198.588 138.768C198.961 138.553 199.532 138.528 199.855 138.718L203.895 141.05C204.218 141.24 204.176 141.562 203.804 141.777L199.805 144.084C199.433 144.299 198.862 144.323 198.539 144.133Z" fill="#06033E"/>
<path opacity="0.4" d="M204.773 147.729L200.733 145.398C200.41 145.207 200.452 144.885 200.824 144.67L204.823 142.364C205.195 142.149 205.766 142.124 206.089 142.314L210.129 144.645C210.452 144.835 210.411 145.158 210.038 145.373L206.04 147.679C205.667 147.894 205.096 147.911 204.773 147.729Z" fill="#06033E"/>
<path opacity="0.4" d="M211.007 151.327L206.968 148.995C206.645 148.805 206.686 148.483 207.059 148.268L211.057 145.961C211.43 145.746 212.001 145.721 212.324 145.912L216.364 148.243C216.686 148.433 216.645 148.756 216.273 148.97L212.274 151.277C211.902 151.484 211.33 151.509 211.007 151.327Z" fill="#06033E"/>
<path opacity="0.4" d="M217.234 154.914L213.194 152.583C212.871 152.393 212.913 152.071 213.285 151.856L217.284 149.549C217.656 149.334 218.227 149.309 218.55 149.499L222.59 151.831C222.913 152.021 222.872 152.343 222.499 152.558L218.501 154.865C218.128 155.08 217.557 155.105 217.234 154.914Z" fill="#06033E"/>
<path opacity="0.4" d="M223.476 158.51L219.436 156.179C219.113 155.989 219.155 155.666 219.527 155.451L223.526 153.145C223.898 152.93 224.47 152.905 224.792 153.095L228.832 155.427C229.155 155.617 229.114 155.939 228.741 156.154L224.743 158.461C224.37 158.676 223.799 158.7 223.476 158.51Z" fill="#06033E"/>
<path opacity="0.4" d="M229.711 162.108L225.671 159.777C225.348 159.586 225.389 159.264 225.762 159.049L229.76 156.742C230.133 156.527 230.704 156.503 231.027 156.693L235.067 159.024C235.39 159.214 235.348 159.537 234.976 159.752L230.977 162.058C230.605 162.273 230.033 162.29 229.711 162.108Z" fill="#06033E"/>
<path opacity="0.4" d="M144.199 133.792L132.311 126.939C131.988 126.748 132.03 126.426 132.402 126.211L136.401 123.905C136.773 123.69 137.345 123.665 137.667 123.855L149.555 130.708C149.878 130.899 149.837 131.221 149.464 131.436L145.466 133.743C145.085 133.957 144.522 133.982 144.199 133.792Z" fill="#06033E"/>
<path opacity="0.4" d="M220.781 177.952L208.893 171.099C208.571 170.909 208.612 170.586 208.984 170.371L212.983 168.065C213.355 167.85 213.927 167.825 214.249 168.015L226.137 174.869C226.46 175.059 226.419 175.381 226.046 175.596L222.048 177.903C221.667 178.109 221.104 178.134 220.781 177.952Z" fill="#06033E"/>
<path opacity="0.4" d="M195.851 171.517L191.811 169.185C191.488 168.995 191.53 168.673 191.902 168.458L196.671 165.713C197.043 165.498 197.615 165.473 197.937 165.664L201.977 167.995C202.3 168.185 202.259 168.507 201.886 168.722L197.118 171.467C196.745 171.682 196.182 171.707 195.851 171.517Z" fill="#06033E"/>
<path opacity="0.4" d="M150.581 145.417L144.124 141.697C143.801 141.507 143.842 141.185 144.215 140.97L148.983 138.225C149.356 138.01 149.927 137.985 150.25 138.175L156.707 141.896C157.03 142.086 156.988 142.408 156.616 142.623L151.848 145.368C151.467 145.583 150.904 145.608 150.581 145.417Z" fill="#06033E"/>
<path opacity="0.4" d="M189.847 168.05L183.389 164.33C183.067 164.14 183.108 163.817 183.481 163.602L188.249 160.858C188.621 160.643 189.193 160.618 189.515 160.808L195.973 164.528C196.295 164.718 196.254 165.041 195.882 165.256L191.113 168.001C190.732 168.215 190.169 168.24 189.847 168.05Z" fill="#06033E"/>
<path opacity="0.4" d="M159.573 150.601L153.116 146.881C152.793 146.691 152.835 146.368 153.207 146.153L157.975 143.408C158.348 143.194 158.919 143.169 159.242 143.359L165.699 147.079C166.022 147.269 165.981 147.592 165.608 147.807L160.84 150.551C160.467 150.766 159.904 150.791 159.573 150.601Z" fill="#06033E"/>
<path opacity="0.4" d="M159.282 143.373L187.345 159.56C187.693 159.759 187.693 160.089 187.345 160.288L182.486 163.09C182.138 163.289 181.575 163.289 181.228 163.09L153.164 146.911L159.282 143.373Z" fill="#06033E"/>
<path opacity="0.4" d="M213.273 178.037L217.768 180.633C218.033 180.79 218 181.055 217.693 181.228L215.748 182.353C215.442 182.526 214.978 182.551 214.713 182.394L210.218 179.798C209.953 179.641 209.986 179.376 210.292 179.203L212.238 178.078C212.544 177.897 213.008 177.88 213.273 178.037Z" fill="#06033E"/>
<path opacity="0.4" d="M206.995 174.406L211.49 177.002C211.755 177.159 211.722 177.423 211.416 177.597L209.471 178.721C209.164 178.895 208.701 178.92 208.436 178.763L203.941 176.167C203.676 176.01 203.709 175.745 204.015 175.572L205.961 174.447C206.267 174.274 206.73 174.257 206.995 174.406Z" fill="#06033E"/>
<path opacity="0.4" d="M200.757 170.81L205.252 173.406C205.517 173.563 205.484 173.828 205.178 174.001L203.232 175.126C202.926 175.299 202.462 175.324 202.197 175.167L197.702 172.571C197.437 172.414 197.47 172.149 197.777 171.976L199.722 170.852C200.029 170.678 200.492 170.661 200.757 170.81Z" fill="#06033E"/>
<path opacity="0.4" d="M210.437 172.422L214.932 175.017C215.197 175.174 215.164 175.439 214.857 175.613L212.912 176.737C212.606 176.911 212.142 176.935 211.877 176.778L207.382 174.182C207.117 174.025 207.15 173.761 207.456 173.587L209.402 172.463C209.7 172.289 210.164 172.273 210.437 172.422Z" fill="#06033E"/>
</g>
<g opacity="0.4">
<path opacity="0.4" d="M129.464 133.239L125.425 130.908C125.102 130.718 125.143 130.395 125.516 130.181L130.284 127.436C130.657 127.221 131.228 127.196 131.551 127.386L135.59 129.718C135.913 129.908 135.872 130.23 135.499 130.445L130.731 133.19C130.35 133.405 129.787 133.43 129.464 133.239Z" fill="#06033E"/>
<path opacity="0.4" d="M135.695 136.835L131.655 134.504C131.332 134.314 131.374 133.991 131.746 133.776L136.515 131.032C136.887 130.817 137.458 130.792 137.781 130.982L141.821 133.313C142.144 133.503 142.102 133.826 141.73 134.041L136.962 136.785C136.581 137 136.018 137.017 135.695 136.835Z" fill="#06033E"/>
<path opacity="0.4" d="M141.933 140.431L137.893 138.099C137.571 137.909 137.612 137.587 137.984 137.372L142.753 134.627C143.125 134.412 143.697 134.387 144.019 134.578L148.059 136.909C148.382 137.099 148.341 137.422 147.968 137.636L143.2 140.381C142.819 140.588 142.256 140.613 141.933 140.431Z" fill="#06033E"/>
<path opacity="0.4" d="M150.547 137.463L146.507 135.132C146.184 134.942 146.225 134.619 146.598 134.404L150.596 132.098C150.969 131.883 151.54 131.858 151.863 132.048L155.903 134.38C156.225 134.57 156.184 134.892 155.812 135.107L151.813 137.414C151.441 137.62 150.869 137.645 150.547 137.463Z" fill="#06033E"/>
<path opacity="0.4" d="M156.781 141.049L152.741 138.718C152.418 138.528 152.46 138.205 152.832 137.99L156.831 135.684C157.203 135.469 157.774 135.444 158.097 135.634L162.137 137.966C162.46 138.156 162.418 138.478 162.046 138.693L158.047 141C157.675 141.215 157.104 141.239 156.781 141.049Z" fill="#06033E"/>
<path opacity="0.4" d="M163.015 144.647L158.975 142.316C158.653 142.125 158.694 141.803 159.066 141.588L163.065 139.282C163.437 139.067 164.009 139.042 164.332 139.232L168.371 141.563C168.694 141.753 168.653 142.076 168.28 142.291L164.282 144.597C163.909 144.812 163.338 144.837 163.015 144.647Z" fill="#06033E"/>
<path opacity="0.4" d="M169.246 148.241L165.206 145.909C164.883 145.719 164.924 145.397 165.297 145.182L169.295 142.875C169.668 142.66 170.239 142.636 170.562 142.826L174.602 145.157C174.925 145.347 174.883 145.67 174.511 145.885L170.512 148.191C170.14 148.406 169.569 148.423 169.246 148.241Z" fill="#06033E"/>
<path opacity="0.4" d="M175.488 151.836L171.448 149.505C171.125 149.315 171.167 148.992 171.539 148.778L175.538 146.471C175.91 146.256 176.481 146.231 176.804 146.421L180.844 148.753C181.167 148.943 181.125 149.265 180.753 149.48L176.755 151.787C176.382 151.993 175.811 152.018 175.488 151.836Z" fill="#06033E"/>
<path opacity="0.4" d="M181.718 155.424L177.679 153.093C177.356 152.903 177.397 152.58 177.77 152.365L181.768 150.059C182.141 149.844 182.712 149.819 183.035 150.009L187.075 152.341C187.397 152.531 187.356 152.853 186.983 153.068L182.985 155.375C182.612 155.59 182.041 155.614 181.718 155.424Z" fill="#06033E"/>
<path opacity="0.4" d="M187.949 159.02L183.909 156.689C183.586 156.498 183.628 156.176 184 155.961L187.999 153.655C188.371 153.44 188.942 153.415 189.265 153.605L193.305 155.936C193.628 156.126 193.586 156.449 193.214 156.664L189.215 158.97C188.843 159.185 188.272 159.21 187.949 159.02Z" fill="#06033E"/>
<path opacity="0.4" d="M194.183 162.618L190.143 160.286C189.821 160.096 189.862 159.774 190.234 159.559L194.233 157.252C194.605 157.037 195.177 157.012 195.499 157.203L199.539 159.534C199.862 159.724 199.821 160.047 199.448 160.261L195.45 162.568C195.077 162.783 194.506 162.8 194.183 162.618Z" fill="#06033E"/>
<path opacity="0.4" d="M200.414 166.213L196.374 163.882C196.051 163.692 196.092 163.369 196.465 163.154L200.463 160.848C200.836 160.633 201.407 160.608 201.73 160.798L205.77 163.13C206.093 163.32 206.051 163.642 205.679 163.857L201.68 166.164C201.308 166.37 200.745 166.395 200.414 166.213Z" fill="#06033E"/>
<path opacity="0.4" d="M206.652 169.801L202.612 167.47C202.289 167.28 202.331 166.957 202.703 166.742L206.702 164.436C207.074 164.221 207.645 164.196 207.968 164.386L212.008 166.718C212.331 166.908 212.29 167.23 211.917 167.445L207.919 169.752C207.546 169.967 206.983 169.991 206.652 169.801Z" fill="#06033E"/>
<path opacity="0.4" d="M159.734 135.756L155.694 133.425C155.371 133.235 155.413 132.912 155.785 132.697L159.784 130.391C160.156 130.176 160.727 130.151 161.05 130.341L165.09 132.673C165.413 132.863 165.372 133.185 164.999 133.4L161.001 135.707C160.62 135.913 160.057 135.938 159.734 135.756Z" fill="#06033E"/>
<path opacity="0.4" d="M153.406 132.104L149.366 129.773C149.043 129.582 149.085 129.26 149.457 129.045L153.456 126.739C153.828 126.524 154.399 126.499 154.722 126.689L158.762 129.02C159.085 129.21 159.043 129.533 158.671 129.748L154.672 132.054C154.3 132.269 153.737 132.294 153.406 132.104Z" fill="#06033E"/>
<path opacity="0.4" d="M147.066 128.452L138.374 123.443C138.051 123.252 138.092 122.93 138.465 122.715L142.463 120.408C142.836 120.194 143.407 120.169 143.73 120.359L152.422 125.369C152.745 125.559 152.704 125.881 152.331 126.096L148.333 128.403C147.952 128.618 147.389 128.643 147.066 128.452Z" fill="#06033E"/>
<path opacity="0.4" d="M151.501 124.012L144.448 119.944C144.125 119.754 144.167 119.432 144.539 119.217L148.538 116.91C148.91 116.695 149.481 116.671 149.804 116.861L156.857 120.928C157.18 121.118 157.139 121.441 156.766 121.656L152.768 123.962C152.395 124.177 151.824 124.202 151.501 124.012Z" fill="#06033E"/>
<path opacity="0.4" d="M165.968 139.348L161.929 137.017C161.606 136.827 161.647 136.504 162.02 136.289L166.018 133.983C166.391 133.768 166.962 133.743 167.285 133.933L171.325 136.264C171.647 136.455 171.606 136.777 171.233 136.992L167.235 139.298C166.854 139.513 166.291 139.538 165.968 139.348Z" fill="#06033E"/>
<path opacity="0.4" d="M172.207 142.942L168.167 140.61C167.844 140.42 167.885 140.098 168.258 139.883L172.256 137.576C172.629 137.361 173.2 137.337 173.523 137.527L177.563 139.858C177.886 140.048 177.844 140.371 177.472 140.586L173.473 142.892C173.092 143.107 172.53 143.132 172.207 142.942Z" fill="#06033E"/>
<path opacity="0.4" d="M178.441 146.54L174.401 144.208C174.078 144.018 174.12 143.696 174.492 143.481L178.491 141.174C178.863 140.959 179.434 140.934 179.757 141.124L183.797 143.456C184.12 143.646 184.079 143.968 183.706 144.183L179.708 146.49C179.327 146.705 178.764 146.73 178.441 146.54Z" fill="#06033E"/>
<path opacity="0.4" d="M184.675 150.135L180.636 147.804C180.313 147.614 180.354 147.291 180.727 147.076L184.725 144.77C185.098 144.555 185.669 144.53 185.992 144.72L190.032 147.052C190.354 147.242 190.313 147.564 189.94 147.779L185.942 150.086C185.561 150.301 184.998 150.317 184.675 150.135Z" fill="#06033E"/>
<path opacity="0.4" d="M190.902 153.731L186.862 151.4C186.539 151.209 186.581 150.887 186.953 150.672L190.952 148.365C191.324 148.151 191.895 148.126 192.218 148.316L196.258 150.647C196.581 150.837 196.54 151.16 196.167 151.375L192.169 153.681C191.788 153.888 191.225 153.913 190.902 153.731Z" fill="#06033E"/>
<path opacity="0.4" d="M197.144 157.319L193.104 154.987C192.781 154.797 192.823 154.475 193.195 154.26L197.194 151.953C197.566 151.738 198.138 151.714 198.46 151.904L202.5 154.235C202.823 154.425 202.782 154.748 202.409 154.963L198.411 157.269C198.03 157.484 197.467 157.509 197.144 157.319Z" fill="#06033E"/>
<path opacity="0.4" d="M203.371 160.916L199.331 158.585C199.008 158.395 199.049 158.073 199.422 157.858L203.42 155.551C203.793 155.336 204.364 155.311 204.687 155.501L208.727 157.833C209.05 158.023 209.008 158.345 208.636 158.56L204.637 160.867C204.257 161.082 203.694 161.107 203.371 160.916Z" fill="#06033E"/>
<path opacity="0.4" d="M209.601 164.512L205.561 162.181C205.238 161.991 205.28 161.668 205.652 161.453L209.651 159.147C210.023 158.932 210.595 158.907 210.917 159.097L214.957 161.428C215.28 161.619 215.239 161.941 214.866 162.156L210.868 164.463C210.487 164.678 209.924 164.694 209.601 164.512Z" fill="#06033E"/>
<path opacity="0.4" d="M215.843 168.106L211.804 165.775C211.481 165.584 211.522 165.262 211.895 165.047L215.893 162.74C216.266 162.526 216.837 162.501 217.16 162.691L221.199 165.022C221.522 165.212 221.481 165.535 221.108 165.75L217.11 168.056C216.729 168.263 216.166 168.288 215.843 168.106Z" fill="#06033E"/>
<path opacity="0.4" d="M226.92 174.489L218.112 169.413C217.789 169.223 217.831 168.901 218.203 168.686L222.202 166.379C222.574 166.164 223.145 166.139 223.468 166.33L232.276 171.406C232.599 171.596 232.558 171.918 232.185 172.133L228.187 174.44C227.806 174.655 227.243 174.679 226.92 174.489Z" fill="#06033E"/>
<path opacity="0.4" d="M239.066 167.494L231.632 163.212C231.309 163.022 231.35 162.699 231.723 162.485L235.721 160.178C236.094 159.963 236.665 159.938 236.988 160.128L244.422 164.411C244.745 164.601 244.703 164.923 244.331 165.138L240.332 167.445C239.951 167.66 239.389 167.685 239.066 167.494Z" fill="#06033E"/>
<path opacity="0.4" d="M176.879 138.645L172.839 136.314C172.516 136.123 172.557 135.801 172.93 135.586L176.928 133.28C177.301 133.065 177.872 133.04 178.195 133.23L182.235 135.561C182.557 135.751 182.516 136.074 182.144 136.289L178.145 138.595C177.773 138.81 177.21 138.835 176.879 138.645Z" fill="#06033E"/>
<path opacity="0.4" d="M170.504 134.965L166.464 132.634C166.141 132.444 166.182 132.121 166.555 131.906L170.553 129.6C170.926 129.385 171.497 129.36 171.82 129.55L175.86 131.882C176.183 132.072 176.141 132.394 175.769 132.609L171.77 134.916C171.389 135.131 170.826 135.147 170.504 134.965Z" fill="#06033E"/>
<path opacity="0.4" d="M164.105 131.276L160.065 128.944C159.742 128.754 159.784 128.432 160.156 128.217L164.155 125.91C164.527 125.695 165.099 125.671 165.421 125.861L169.461 128.192C169.784 128.382 169.743 128.705 169.37 128.92L165.372 131.226C164.991 131.441 164.428 131.466 164.105 131.276Z" fill="#06033E"/>
<path opacity="0.4" d="M157.711 127.6L153.671 125.269C153.348 125.079 153.389 124.756 153.762 124.541L157.76 122.235C158.133 122.02 158.704 121.995 159.027 122.185L163.067 124.516C163.39 124.707 163.348 125.029 162.976 125.244L158.977 127.55C158.605 127.757 158.033 127.782 157.711 127.6Z" fill="#06033E"/>
<path opacity="0.4" d="M183.113 142.239L179.073 139.907C178.75 139.717 178.792 139.395 179.164 139.18L183.163 136.873C183.535 136.658 184.106 136.634 184.429 136.824L188.469 139.155C188.792 139.345 188.751 139.668 188.378 139.883L184.38 142.189C184.007 142.404 183.444 142.429 183.113 142.239Z" fill="#06033E"/>
<path opacity="0.4" d="M189.351 145.838L185.311 143.507C184.988 143.317 185.03 142.994 185.402 142.779L189.401 140.473C189.773 140.258 190.345 140.233 190.667 140.423L194.707 142.755C195.03 142.945 194.989 143.267 194.616 143.482L190.618 145.789C190.245 146.004 189.682 146.028 189.351 145.838Z" fill="#06033E"/>
<path opacity="0.4" d="M195.589 149.43L191.55 147.099C191.227 146.909 191.268 146.586 191.641 146.371L195.639 144.065C196.012 143.85 196.583 143.825 196.906 144.015L200.946 146.346C201.268 146.537 201.227 146.859 200.855 147.074L196.856 149.381C196.475 149.587 195.912 149.612 195.589 149.43Z" fill="#06033E"/>
<path opacity="0.4" d="M201.832 153.022L197.792 150.691C197.469 150.5 197.51 150.178 197.883 149.963L201.881 147.657C202.254 147.442 202.825 147.417 203.148 147.607L207.188 149.938C207.511 150.128 207.469 150.451 207.097 150.666L203.098 152.972C202.717 153.187 202.155 153.212 201.832 153.022Z" fill="#06033E"/>
<path opacity="0.4" d="M208.058 156.62L204.018 154.288C203.696 154.098 203.737 153.776 204.109 153.561L208.108 151.254C208.48 151.039 209.052 151.014 209.374 151.205L213.414 153.536C213.737 153.726 213.696 154.048 213.323 154.263L209.325 156.57C208.944 156.785 208.381 156.81 208.058 156.62Z" fill="#06033E"/>
<path opacity="0.4" d="M214.293 160.213L210.253 157.882C209.93 157.692 209.971 157.369 210.344 157.154L214.342 154.848C214.715 154.633 215.286 154.608 215.609 154.798L219.649 157.13C219.972 157.32 219.93 157.642 219.558 157.857L215.559 160.164C215.178 160.379 214.615 160.403 214.293 160.213Z" fill="#06033E"/>
<path opacity="0.4" d="M220.527 163.811L216.487 161.48C216.164 161.289 216.206 160.967 216.578 160.752L220.577 158.446C220.949 158.231 221.52 158.206 221.843 158.396L225.883 160.727C226.206 160.917 226.165 161.24 225.792 161.455L221.794 163.761C221.413 163.968 220.85 163.993 220.527 163.811Z" fill="#06033E"/>
<path opacity="0.4" d="M226.754 167.397L222.714 165.066C222.391 164.875 222.432 164.553 222.805 164.338L226.803 162.032C227.176 161.817 227.747 161.792 228.07 161.982L232.11 164.313C232.432 164.503 232.391 164.826 232.019 165.041L228.02 167.347C227.639 167.562 227.076 167.587 226.754 167.397Z" fill="#06033E"/>
<path opacity="0.4" d="M232.996 170.993L228.956 168.661C228.633 168.471 228.674 168.149 229.047 167.934L233.045 165.627C233.418 165.412 233.989 165.387 234.312 165.578L238.352 167.909C238.675 168.099 238.633 168.422 238.261 168.636L234.262 170.943C233.882 171.158 233.319 171.183 232.996 170.993Z" fill="#06033E"/>
<path opacity="0.4" d="M173.605 129.758L169.565 127.427C169.242 127.237 169.284 126.914 169.656 126.699L173.655 124.393C174.027 124.178 174.599 124.153 174.921 124.343L178.961 126.675C179.284 126.865 179.243 127.187 178.87 127.402L174.872 129.709C174.491 129.924 173.928 129.948 173.605 129.758Z" fill="#06033E"/>
<path opacity="0.4" d="M167.402 126.178L163.362 123.847C163.039 123.657 163.081 123.334 163.453 123.119L167.452 120.813C167.824 120.598 168.395 120.573 168.718 120.763L172.758 123.095C173.081 123.285 173.04 123.607 172.667 123.822L168.669 126.129C168.288 126.344 167.725 126.368 167.402 126.178Z" fill="#06033E"/>
<path opacity="0.4" d="M161.199 122.604L157.159 120.273C156.836 120.082 156.878 119.76 157.25 119.545L161.249 117.239C161.621 117.024 162.192 116.999 162.515 117.189L166.555 119.52C166.878 119.71 166.836 120.033 166.464 120.248L162.465 122.554C162.093 122.769 161.53 122.786 161.199 122.604Z" fill="#06033E"/>
<path opacity="0.4" d="M154.992 119.028L150.952 116.696C150.629 116.506 150.671 116.184 151.043 115.969L155.041 113.662C155.414 113.447 155.985 113.423 156.308 113.613L160.348 115.944C160.671 116.134 160.629 116.457 160.257 116.672L156.258 118.978C155.886 119.193 155.315 119.218 154.992 119.028Z" fill="#06033E"/>
<path opacity="0.4" d="M161.382 115.347L157.343 113.016C157.02 112.826 157.061 112.503 157.434 112.288L158.758 111.528C159.131 111.313 159.702 111.288 160.025 111.478L164.065 113.809C164.387 113.999 164.346 114.322 163.974 114.537L162.649 115.297C162.268 115.512 161.705 115.537 161.382 115.347Z" fill="#06033E"/>
<path opacity="0.4" d="M169.461 120.019L165.421 117.688C165.098 117.497 165.139 117.175 165.512 116.96L166.836 116.199C167.209 115.985 167.78 115.96 168.103 116.15L172.143 118.481C172.466 118.671 172.424 118.994 172.052 119.209L170.727 119.969C170.355 120.184 169.792 120.209 169.461 120.019Z" fill="#06033E"/>
<path opacity="0.4" d="M175.648 123.579L171.608 121.248C171.285 121.058 171.327 120.736 171.699 120.521L173.024 119.76C173.396 119.545 173.968 119.52 174.29 119.71L178.33 122.042C178.653 122.232 178.612 122.554 178.239 122.769L176.915 123.53C176.534 123.745 175.971 123.761 175.648 123.579Z" fill="#06033E"/>
<path opacity="0.4" d="M181.824 127.144L177.784 124.813C177.461 124.622 177.503 124.3 177.875 124.085L179.2 123.324C179.572 123.11 180.143 123.085 180.466 123.275L184.506 125.606C184.829 125.796 184.788 126.119 184.415 126.334L183.09 127.094C182.71 127.301 182.147 127.326 181.824 127.144Z" fill="#06033E"/>
<path opacity="0.4" d="M188 130.701L183.96 128.369C183.637 128.179 183.678 127.857 184.051 127.642L185.375 126.881C185.748 126.666 186.319 126.641 186.642 126.832L190.682 129.163C191.005 129.353 190.963 129.675 190.591 129.89L189.266 130.651C188.885 130.866 188.323 130.891 188 130.701Z" fill="#06033E"/>
<path opacity="0.4" d="M222.488 150.583L218.448 148.252C218.125 148.062 218.167 147.739 218.539 147.525L219.864 146.764C220.236 146.549 220.807 146.524 221.13 146.714L225.17 149.046C225.493 149.236 225.452 149.558 225.079 149.773L223.754 150.534C223.374 150.749 222.811 150.774 222.488 150.583Z" fill="#06033E"/>
<path opacity="0.4" d="M228.664 154.146L224.624 151.815C224.301 151.624 224.342 151.302 224.715 151.087L226.039 150.326C226.412 150.111 226.983 150.087 227.306 150.277L231.346 152.608C231.669 152.798 231.627 153.121 231.255 153.336L229.93 154.096C229.549 154.311 228.987 154.336 228.664 154.146Z" fill="#06033E"/>
<path opacity="0.4" d="M234.843 157.71L230.804 155.379C230.481 155.189 230.522 154.866 230.895 154.651L232.219 153.891C232.592 153.676 233.163 153.651 233.486 153.841L237.526 156.173C237.848 156.363 237.807 156.685 237.434 156.9L236.11 157.661C235.729 157.876 235.166 157.9 234.843 157.71Z" fill="#06033E"/>
<path opacity="0.4" d="M241.011 161.271L236.972 158.94C236.649 158.749 236.69 158.427 237.063 158.212L238.387 157.451C238.76 157.236 239.331 157.212 239.654 157.402L243.694 159.733C244.016 159.923 243.975 160.246 243.602 160.461L242.278 161.221C241.905 161.436 241.334 161.453 241.011 161.271Z" fill="#06033E"/>
<path opacity="0.4" d="M179.839 133.352L175.8 131.021C175.477 130.831 175.518 130.508 175.891 130.293L179.889 127.987C180.262 127.772 180.833 127.747 181.156 127.937L185.196 130.268C185.518 130.458 185.477 130.781 185.105 130.996L181.106 133.302C180.725 133.517 180.162 133.534 179.839 133.352Z" fill="#06033E"/>
<path opacity="0.4" d="M186.07 136.948L182.03 134.616C181.707 134.426 181.749 134.104 182.121 133.889L186.12 131.582C186.492 131.367 187.063 131.343 187.386 131.533L191.426 133.864C191.749 134.054 191.708 134.377 191.335 134.592L187.337 136.898C186.964 137.105 186.393 137.13 186.07 136.948Z" fill="#06033E"/>
<path opacity="0.4" d="M192.304 140.536L188.264 138.204C187.942 138.014 187.983 137.692 188.356 137.477L192.354 135.17C192.727 134.955 193.298 134.93 193.621 135.121L197.66 137.452C197.983 137.642 197.942 137.965 197.569 138.179L193.571 140.486C193.198 140.701 192.627 140.726 192.304 140.536Z" fill="#06033E"/>
<path opacity="0.4" d="M198.539 144.133L194.499 141.802C194.176 141.612 194.217 141.289 194.59 141.074L198.588 138.768C198.961 138.553 199.532 138.528 199.855 138.718L203.895 141.05C204.218 141.24 204.176 141.562 203.804 141.777L199.805 144.084C199.433 144.299 198.862 144.323 198.539 144.133Z" fill="#06033E"/>
<path opacity="0.4" d="M204.773 147.729L200.733 145.398C200.41 145.207 200.452 144.885 200.824 144.67L204.823 142.364C205.195 142.149 205.766 142.124 206.089 142.314L210.129 144.645C210.452 144.835 210.411 145.158 210.038 145.373L206.04 147.679C205.667 147.894 205.096 147.911 204.773 147.729Z" fill="#06033E"/>
<path opacity="0.4" d="M211.007 151.327L206.968 148.995C206.645 148.805 206.686 148.483 207.059 148.268L211.057 145.961C211.43 145.746 212.001 145.721 212.324 145.912L216.364 148.243C216.686 148.433 216.645 148.756 216.273 148.97L212.274 151.277C211.902 151.484 211.33 151.509 211.007 151.327Z" fill="#06033E"/>
<path opacity="0.4" d="M217.234 154.914L213.194 152.583C212.871 152.393 212.913 152.071 213.285 151.856L217.284 149.549C217.656 149.334 218.227 149.309 218.55 149.499L222.59 151.831C222.913 152.021 222.872 152.343 222.499 152.558L218.501 154.865C218.128 155.08 217.557 155.105 217.234 154.914Z" fill="#06033E"/>
<path opacity="0.4" d="M223.476 158.51L219.436 156.179C219.113 155.989 219.155 155.666 219.527 155.451L223.526 153.145C223.898 152.93 224.47 152.905 224.792 153.095L228.832 155.427C229.155 155.617 229.114 155.939 228.741 156.154L224.743 158.461C224.37 158.676 223.799 158.7 223.476 158.51Z" fill="#06033E"/>
<path opacity="0.4" d="M229.711 162.108L225.671 159.777C225.348 159.586 225.389 159.264 225.762 159.049L229.76 156.742C230.133 156.527 230.704 156.503 231.027 156.693L235.067 159.024C235.39 159.214 235.348 159.537 234.976 159.752L230.977 162.058C230.605 162.273 230.033 162.29 229.711 162.108Z" fill="#06033E"/>
<path opacity="0.4" d="M144.199 133.792L132.311 126.939C131.988 126.748 132.03 126.426 132.402 126.211L136.401 123.905C136.773 123.69 137.345 123.665 137.667 123.855L149.555 130.708C149.878 130.899 149.837 131.221 149.464 131.436L145.466 133.743C145.085 133.957 144.522 133.982 144.199 133.792Z" fill="#06033E"/>
<path opacity="0.4" d="M220.781 177.952L208.893 171.099C208.571 170.909 208.612 170.586 208.984 170.371L212.983 168.065C213.355 167.85 213.927 167.825 214.249 168.015L226.137 174.869C226.46 175.059 226.419 175.381 226.046 175.596L222.048 177.903C221.667 178.109 221.104 178.134 220.781 177.952Z" fill="#06033E"/>
<path opacity="0.4" d="M195.851 171.517L191.811 169.185C191.488 168.995 191.53 168.673 191.902 168.458L196.671 165.713C197.043 165.498 197.615 165.473 197.937 165.664L201.977 167.995C202.3 168.185 202.259 168.507 201.886 168.722L197.118 171.467C196.745 171.682 196.182 171.707 195.851 171.517Z" fill="#06033E"/>
<path opacity="0.4" d="M150.581 145.417L144.124 141.697C143.801 141.507 143.842 141.185 144.215 140.97L148.983 138.225C149.356 138.01 149.927 137.985 150.25 138.175L156.707 141.896C157.03 142.086 156.988 142.408 156.616 142.623L151.848 145.368C151.467 145.583 150.904 145.608 150.581 145.417Z" fill="#06033E"/>
<path opacity="0.4" d="M189.847 168.05L183.389 164.33C183.067 164.14 183.108 163.817 183.481 163.602L188.249 160.858C188.621 160.643 189.193 160.618 189.515 160.808L195.973 164.528C196.295 164.718 196.254 165.041 195.882 165.256L191.113 168.001C190.732 168.215 190.169 168.24 189.847 168.05Z" fill="#06033E"/>
<path opacity="0.4" d="M159.573 150.601L153.116 146.881C152.793 146.691 152.835 146.368 153.207 146.153L157.975 143.408C158.348 143.194 158.919 143.169 159.242 143.359L165.699 147.079C166.022 147.269 165.981 147.592 165.608 147.807L160.84 150.551C160.467 150.766 159.904 150.791 159.573 150.601Z" fill="#06033E"/>
<path opacity="0.4" d="M159.282 143.373L187.345 159.56C187.693 159.759 187.693 160.089 187.345 160.288L182.486 163.09C182.138 163.289 181.575 163.289 181.228 163.09L153.164 146.911L159.282 143.373Z" fill="#06033E"/>
<path opacity="0.4" d="M213.273 178.037L217.768 180.633C218.033 180.79 218 181.055 217.693 181.228L215.748 182.353C215.442 182.526 214.978 182.551 214.713 182.394L210.218 179.798C209.953 179.641 209.986 179.376 210.292 179.203L212.238 178.078C212.544 177.897 213.008 177.88 213.273 178.037Z" fill="#06033E"/>
<path opacity="0.4" d="M206.995 174.406L211.49 177.002C211.755 177.159 211.722 177.423 211.416 177.597L209.471 178.721C209.164 178.895 208.701 178.92 208.436 178.763L203.941 176.167C203.676 176.01 203.709 175.745 204.015 175.572L205.961 174.447C206.267 174.274 206.73 174.257 206.995 174.406Z" fill="#06033E"/>
<path opacity="0.4" d="M200.757 170.81L205.252 173.406C205.517 173.563 205.484 173.828 205.178 174.001L203.232 175.126C202.926 175.299 202.462 175.324 202.197 175.167L197.702 172.571C197.437 172.414 197.47 172.149 197.777 171.976L199.722 170.852C200.029 170.678 200.492 170.661 200.757 170.81Z" fill="#06033E"/>
<path opacity="0.4" d="M210.437 172.422L214.932 175.017C215.197 175.174 215.164 175.439 214.857 175.613L212.912 176.737C212.606 176.911 212.142 176.935 211.877 176.778L207.382 174.182C207.117 174.025 207.15 173.761 207.456 173.587L209.402 172.463C209.7 172.289 210.164 172.273 210.437 172.422Z" fill="#06033E"/>
</g>
<path d="M276.403 165.154L157.311 96.4865C155.44 95.4035 154.463 92.7745 155.125 90.6085L182.055 3.28196C182.725 1.11596 184.778 0.239631 186.658 1.31437L305.75 69.9818C307.621 71.0648 308.598 73.6938 307.936 75.8598L281.006 163.186C280.336 165.352 278.274 166.229 276.403 165.154Z" fill="url(#paint7_radial)"/>
<path d="M275.275 162.095L159.767 95.4361C157.979 94.4027 157.043 91.8812 157.681 89.8144L183.426 6.33209C184.064 4.25702 186.034 3.41376 187.831 4.44717L303.347 71.1057C305.135 72.1391 306.071 74.6606 305.433 76.7274L279.687 160.21C279.042 162.285 277.071 163.128 275.275 162.095Z" fill="url(#paint8_linear)"/>
<path opacity="0.4" d="M275.275 162.095L159.767 95.4361C157.979 94.4027 157.043 91.8812 157.681 89.8144L183.426 6.33209C184.064 4.25702 186.034 3.41376 187.831 4.44717L303.347 71.1057C305.135 72.1391 306.071 74.6606 305.433 76.7274L279.687 160.21C279.042 162.285 277.071 163.128 275.275 162.095Z" fill="#06033E"/>
<path opacity="0.4" d="M275.275 162.095L159.767 95.4361C157.979 94.4027 157.043 91.8812 157.681 89.8144L183.426 6.33209C184.064 4.25702 186.034 3.41376 187.831 4.44717L303.347 71.1057C305.135 72.1391 306.071 74.6606 305.433 76.7274L279.687 160.21C279.042 162.285 277.071 163.128 275.275 162.095Z" fill="#06033E"/>
<path opacity="0.5" d="M269.077 136.584L190.879 91.4951C189.646 90.7841 189.008 89.0563 189.447 87.6343L207.13 30.293C207.568 28.871 208.918 28.2923 210.151 29.0033L288.349 74.0926C289.582 74.8036 290.22 76.5315 289.781 77.9534L272.098 135.287C271.66 136.709 270.302 137.287 269.077 136.584Z" fill="#1D033E"/>
<path d="M258.514 137.967L180.317 92.878C179.083 92.167 178.446 90.4391 178.885 89.0172L196.567 31.6758C197.006 30.2538 198.355 29.6751 199.589 30.3861L277.786 75.4755C279.02 76.1865 279.657 77.9143 279.219 79.3363L261.536 136.678C261.089 138.1 259.74 138.678 258.514 137.967Z" fill="url(#paint9_radial)"/>
<g opacity="0.5">
<path opacity="0.5" d="M258.514 137.967L180.317 92.878C179.083 92.167 178.446 90.4391 178.885 89.0172L196.567 31.6758C197.006 30.2538 198.355 29.6751 199.589 30.3861L277.786 75.4755C279.02 76.1865 279.657 77.9143 279.219 79.3363L261.536 136.678C261.089 138.1 259.74 138.678 258.514 137.967Z" fill="#06033E"/>
</g>
<path d="M277.778 75.4737L199.581 30.3926C198.811 29.9462 197.992 30.0123 197.379 30.467C197.751 30.4587 198.132 30.5414 198.505 30.7564L276.702 75.8457C277.936 76.5567 278.573 78.2846 278.134 79.7065L260.452 137.048C260.286 137.577 259.997 137.99 259.632 138.263C260.468 138.238 261.222 137.668 261.52 136.684L279.202 79.3428C279.649 77.9125 279.012 76.1847 277.778 75.4737Z" fill="white"/>
<path opacity="0.4" d="M159.881 184.789C158.805 184.789 157.77 184.566 156.984 184.111L125.65 166.047C124.823 165.568 124.367 164.881 124.367 164.121C124.367 163.236 124.996 162.36 126.097 161.732L142.224 152.431C144.194 151.298 147.083 151.183 148.813 152.175L180.139 170.239C180.966 170.718 181.422 171.404 181.43 172.165C181.43 173.049 180.801 173.926 179.7 174.554L163.574 183.855C162.497 184.475 161.156 184.789 159.881 184.789ZM145.924 152.414C144.79 152.414 143.59 152.687 142.671 153.216L126.544 162.517C125.733 162.988 125.27 163.575 125.27 164.129C125.27 164.675 125.725 165.055 126.106 165.27L157.439 183.334C158.863 184.152 161.463 184.037 163.118 183.078L179.245 173.777C180.056 173.306 180.519 172.727 180.519 172.165C180.519 171.619 180.064 171.239 179.683 171.024L148.358 152.96C147.72 152.588 146.843 152.414 145.924 152.414Z" fill="#06033E"/>
<path d="M218.632 60.4781L213.797 57.6921C213.35 57.4358 213.11 56.8157 213.259 56.3032C213.408 55.7989 213.896 55.5922 214.343 55.8485L219.178 58.6345C219.625 58.8908 219.865 59.5108 219.716 60.0234C219.567 60.5277 219.079 60.7344 218.632 60.4781Z" fill="white"/>
<path d="M230.151 67.1134L223.024 63.0046C222.577 62.7483 222.337 62.1282 222.486 61.6157C222.635 61.1114 223.123 60.9047 223.57 61.161L230.698 65.2698C231.145 65.5261 231.385 66.1461 231.236 66.6587C231.087 67.163 230.598 67.3697 230.151 67.1134Z" fill="white"/>
<path d="M208.882 81.9625L204.047 79.1765C203.6 78.9202 203.36 78.3001 203.509 77.7876C203.658 77.2833 204.146 77.0766 204.593 77.3329L209.428 80.1189C209.875 80.3752 210.115 80.9952 209.966 81.5078C209.817 82.0204 209.337 82.2271 208.882 81.9625Z" fill="white"/>
<path d="M219.14 87.8829L212.012 83.7741C211.565 83.5178 211.325 82.8978 211.474 82.3852C211.623 81.8809 212.111 81.6742 212.558 81.9305L219.686 86.0393C220.133 86.2956 220.373 86.9156 220.224 87.4282C220.075 87.9408 219.595 88.1475 219.14 87.8829Z" fill="white"/>
<path d="M204.159 56.6415L201.137 54.8971C200.69 54.6409 200.45 54.0208 200.599 53.5083C200.748 53.004 201.236 52.7973 201.683 53.0536L204.705 54.7979C205.152 55.0542 205.392 55.6743 205.243 56.1868C205.094 56.6994 204.606 56.8978 204.159 56.6415Z" fill="white"/>
<path d="M213.238 66.4048L204.008 61.0807C203.561 60.8245 203.321 60.2044 203.47 59.6919C203.619 59.1876 204.107 58.9809 204.554 59.2372L213.785 64.5612C214.232 64.8175 214.472 65.4376 214.323 65.9501C214.174 66.4544 213.694 66.6611 213.238 66.4048Z" fill="white"/>
<path d="M204.721 70.5302L201.699 68.7858C201.252 68.5295 201.012 67.9095 201.161 67.3969C201.31 66.8926 201.799 66.6859 202.246 66.9422L205.267 68.6866C205.714 68.9429 205.955 69.5629 205.806 70.0755C205.657 70.5881 205.176 70.7947 204.721 70.5302Z" fill="white"/>
<path d="M220.259 97.5652L212.196 92.9108C211.749 92.6545 211.508 92.0345 211.657 91.5219C211.806 91.0176 212.295 90.8109 212.742 91.0672L220.805 95.7217C221.252 95.9779 221.492 96.598 221.343 97.1105C221.194 97.6231 220.706 97.8298 220.259 97.5652Z" fill="white"/>
<path d="M201.344 77.6226L199.406 76.5065C198.959 76.2502 198.719 75.6302 198.868 75.1176C199.017 74.6133 199.506 74.4066 199.953 74.6629L201.89 75.779C202.337 76.0353 202.577 76.6553 202.428 77.1679C202.279 77.6722 201.799 77.8789 201.344 77.6226Z" fill="white"/>
<path d="M199.511 85.6005L197.102 84.2116C196.655 83.9553 196.415 83.3353 196.564 82.8227C196.713 82.3184 197.201 82.1117 197.648 82.368L200.057 83.7569C200.504 84.0132 200.744 84.6332 200.595 85.1458C200.446 85.6584 199.958 85.8568 199.511 85.6005Z" fill="white"/>
<path d="M208.873 90.999L202.524 87.3366C202.077 87.0803 201.837 86.4603 201.986 85.9477C202.135 85.4434 202.623 85.2367 203.07 85.493L209.42 89.1554C209.867 89.4117 210.107 90.0317 209.958 90.5443C209.809 91.0568 209.32 91.2552 208.873 90.999Z" fill="white"/>
<path d="M200.511 90.7L195.949 88.071C195.502 87.8147 195.262 87.1946 195.411 86.6821C195.56 86.1778 196.049 85.9711 196.496 86.2274L201.057 88.8564C201.504 89.1127 201.744 89.7327 201.595 90.2453C201.446 90.7578 200.958 90.9562 200.511 90.7Z" fill="white"/>
<path d="M227.185 101.574L224.254 99.8874C223.807 99.6311 223.567 99.0111 223.716 98.4985C223.865 97.9942 224.353 97.7875 224.801 98.0438L227.731 99.7303C228.178 99.9866 228.418 100.607 228.269 101.119C228.12 101.632 227.632 101.838 227.185 101.574Z" fill="white"/>
<path d="M215.962 77.0106L207.899 72.3561C207.452 72.0998 207.212 71.4798 207.361 70.9672C207.51 70.4629 207.998 70.2563 208.445 70.5125L216.508 75.167C216.955 75.4233 217.195 76.0433 217.046 76.5559C216.897 77.0684 216.417 77.2669 215.962 77.0106Z" fill="white"/>
<path d="M216.92 73.0405L202.864 64.9304C202.416 64.6741 202.176 64.054 202.325 63.5415C202.474 63.0372 202.963 62.8305 203.41 63.0868L217.467 71.1886C217.914 71.4449 218.154 72.065 218.005 72.5775C217.856 73.0984 217.367 73.2968 216.92 73.0405Z" fill="#E8975B"/>
<path d="M208.622 77.2996L200.559 72.6452C200.112 72.3889 199.872 71.7689 200.021 71.2563C200.17 70.752 200.658 70.5453 201.105 70.8016L209.168 75.4561C209.615 75.7123 209.855 76.3324 209.706 76.8449C209.557 77.3492 209.069 77.5559 208.622 77.2996Z" fill="#E8975B"/>
<path d="M222.075 80.5407L219.145 78.8542C218.698 78.5979 218.458 77.9779 218.607 77.4653C218.756 76.961 219.244 76.7543 219.691 77.0106L222.622 78.6971C223.069 78.9534 223.309 79.5734 223.16 80.086C223.011 80.5903 222.531 80.797 222.075 80.5407Z" fill="#E8975B"/>
<path d="M251.895 79.6466L234.543 69.6432C234.096 69.387 233.856 68.7669 234.005 68.2543C234.154 67.75 234.643 67.5434 235.09 67.7997L252.441 77.803C252.888 78.0593 253.128 78.6793 252.979 79.1919C252.83 79.7044 252.342 79.9028 251.895 79.6466Z" fill="#E8975B"/>
<path d="M207.944 85.9467L198.25 80.3581C197.803 80.1018 197.563 79.4818 197.712 78.9692C197.861 78.4649 198.35 78.2582 198.797 78.5145L208.491 84.1031C208.938 84.3594 209.178 84.9795 209.029 85.492C208.88 86.0046 208.4 86.203 207.944 85.9467Z" fill="#F8359E"/>
<path d="M209.405 55.1524L202.278 51.0436C201.831 50.7873 201.59 50.1673 201.739 49.6547C201.888 49.1504 202.377 48.9438 202.824 49.2L209.952 53.3088C210.399 53.5651 210.639 54.1852 210.49 54.6977C210.341 55.2103 209.852 55.417 209.405 55.1524Z" fill="#F8359E"/>
<path d="M199.019 94.3563L190.766 89.5944C190.319 89.3381 190.079 88.7181 190.228 88.2055C190.377 87.7012 190.865 87.4945 191.312 87.7508L199.566 92.5127C200.013 92.769 200.253 93.3891 200.104 93.9016C199.955 94.4142 199.466 94.6209 199.019 94.3563Z" fill="#E8975B"/>
<path d="M253.854 70.7355L250.32 68.7018C249.988 68.5116 249.815 68.057 249.93 67.6849C250.038 67.3129 250.394 67.1641 250.725 67.3542L254.26 69.388C254.591 69.5781 254.765 70.0328 254.649 70.4048C254.533 70.7769 254.177 70.9257 253.854 70.7355Z" fill="white"/>
<path d="M260.593 74.6183L257.058 72.5846C256.727 72.3945 256.553 71.9398 256.669 71.5677C256.776 71.1957 257.132 71.0469 257.463 71.2371L260.998 73.2708C261.329 73.4609 261.503 73.9156 261.387 74.2877C261.28 74.6597 260.924 74.8085 260.593 74.6183Z" fill="white"/>
<path d="M267.335 78.507L263.8 76.4733C263.469 76.2831 263.295 75.8284 263.411 75.4564C263.519 75.0844 263.875 74.9356 264.206 75.1257L267.741 77.1595C268.072 77.3496 268.246 77.8043 268.13 78.1763C268.022 78.5483 267.666 78.6972 267.335 78.507Z" fill="white"/>
<path d="M270.65 80.4164L270.542 80.3502C270.211 80.1601 270.037 79.7054 270.153 79.3334C270.261 78.9613 270.617 78.8125 270.948 79.0027L271.055 79.0688C271.387 79.259 271.56 79.7137 271.445 80.0857C271.329 80.4577 270.973 80.6065 270.65 80.4164Z" fill="#F8359E"/>
<path d="M88.2529 121.72C86.0177 121.72 83.7826 121.141 81.7875 119.992L58.1196 106.343C57.0931 105.748 56.4805 104.69 56.4805 103.507C56.4805 102.325 57.0931 101.267 58.1196 100.672L81.7875 87.0225C85.7776 84.7243 90.7364 84.7243 94.7266 87.0225L118.394 100.672C119.421 101.267 120.034 102.325 120.034 103.507C120.034 104.69 119.421 105.748 118.394 106.343L94.7266 119.992C92.7315 121.141 90.488 121.72 88.2529 121.72ZM82.5574 118.661C86.0757 120.687 90.4384 120.687 93.9567 118.661L117.625 105.012C118.171 104.698 118.494 104.136 118.494 103.507C118.494 102.879 118.171 102.317 117.625 102.003L93.9567 88.3536C90.4384 86.3281 86.0757 86.3281 82.5574 88.3536L58.8895 102.003C58.3431 102.317 58.0202 102.879 58.0202 103.507C58.0202 104.136 58.3431 104.698 58.8895 105.012L82.5574 118.661Z" fill="url(#paint10_linear)" fill-opacity="0.44"/>
<defs>
<filter id="filter0_f" x="47.2461" y="91.2266" width="253.946" height="166.744" filterUnits="userSpaceOnUse" color-interpolation-filters="sRGB">
<feFlood flood-opacity="0" result="BackgroundImageFix"/>
<feBlend mode="normal" in="SourceGraphic" in2="BackgroundImageFix" result="shape"/>
<feGaussianBlur stdDeviation="12" result="effect1_foregroundBlur"/>
</filter>
<linearGradient id="paint0_linear" x1="336.002" y1="199.922" x2="363.001" y2="199.922" gradientUnits="userSpaceOnUse">
<stop stop-color="#AC65E3"/>
<stop offset="1" stop-color="#DE5FE9"/>
</linearGradient>
<linearGradient id="paint1_linear" x1="299.034" y1="162.977" x2="344.382" y2="162.977" gradientUnits="userSpaceOnUse">
<stop stop-color="#AC65E3"/>
<stop offset="1" stop-color="#DE5FE9"/>
</linearGradient>
<linearGradient id="paint2_linear" x1="0.0104308" y1="178.149" x2="45.3581" y2="178.149" gradientUnits="userSpaceOnUse">
<stop stop-color="#AC65E3"/>
<stop offset="1" stop-color="#DE5FE9"/>
</linearGradient>
<linearGradient id="paint3_linear" x1="52.8369" y1="175.249" x2="294.812" y2="175.249" gradientUnits="userSpaceOnUse">
<stop stop-color="#AC65E3"/>
<stop offset="1" stop-color="#DE5FE9"/>
</linearGradient>
<radialGradient id="paint4_radial" cx="0" cy="0" r="1" gradientUnits="userSpaceOnUse" gradientTransform="translate(186.471 -3.70622) scale(184.853 184.604)">
<stop stop-color="#E39A65"/>
<stop offset="0.4742" stop-color="#A92FFB"/>
<stop offset="0.5947" stop-color="#891CFB"/>
<stop offset="0.7421" stop-color="#8F07FA"/>
<stop offset="0.880208" stop-color="#490C6F"/>
</radialGradient>
<radialGradient id="paint5_radial" cx="0" cy="0" r="1" gradientUnits="userSpaceOnUse" gradientTransform="translate(73.3995 144.544) scale(202.135 201.862)">
<stop stop-color="#E365C7"/>
<stop offset="0.4742" stop-color="#A92FFB"/>
<stop offset="0.5679" stop-color="#891CFB"/>
<stop offset="0.6825" stop-color="#6507FA"/>
<stop offset="0.7381" stop-color="#4F0C6F"/>
</radialGradient>
<radialGradient id="paint6_radial" cx="0" cy="0" r="1" gradientUnits="userSpaceOnUse" gradientTransform="translate(91.9985 104.026) scale(181.263 181.019)">
<stop stop-color="#E065E3"/>
<stop offset="0.739583" stop-color="#8107FA"/>
</radialGradient>
<radialGradient id="paint7_radial" cx="0" cy="0" r="1" gradientUnits="userSpaceOnUse" gradientTransform="translate(137.155 34.8) scale(184.89 184.641)">
<stop stop-color="#E39A65"/>
<stop offset="0.4742" stop-color="#A92FFB"/>
<stop offset="0.5875" stop-color="#891CFB"/>
<stop offset="0.7262" stop-color="#6507FA"/>
<stop offset="1" stop-color="#5719BB"/>
</radialGradient>
<linearGradient id="paint8_linear" x1="157.474" y1="83.2681" x2="305.629" y2="83.2681" gradientUnits="userSpaceOnUse">
<stop stop-color="#632082"/>
<stop offset="1" stop-color="#8F07FA"/>
</linearGradient>
<radialGradient id="paint9_radial" cx="0" cy="0" r="1" gradientUnits="userSpaceOnUse" gradientTransform="translate(69.6607 -4.62484) scale(287.961 287.573)">
<stop stop-color="#E39A65"/>
<stop offset="0.4742" stop-color="#A92FFB"/>
<stop offset="0.5875" stop-color="#891CFB"/>
<stop offset="0.7262" stop-color="#8F07FA"/>
<stop offset="1" stop-color="#7419BB"/>
</radialGradient>
<linearGradient id="paint10_linear" x1="56.4951" y1="103.513" x2="120.035" y2="103.513" gradientUnits="userSpaceOnUse">
<stop stop-color="#AC65E3"/>
<stop offset="1" stop-color="#DE5FE9"/>
</linearGradient>
</defs>
</svg>
