<svg id="Layer_1" data-name="Layer 1" xmlns="http://www.w3.org/2000/svg" viewBox="0 0 1024.31 83.41"><title>bgrd</title><path d="M0,83.41V64c1.42-.82,2.85-1.68,4.3-2.5A381.56,381.56,0,0,1,65.47,34.17,524.86,524.86,0,0,1,138.82,14q18.56-3.69,37.26-6.58c9.62-1.49,19.33-2.47,29-3.56,13-1.47,26.11-2.27,39.2-3,17.9-1,35.81-1,53.72-.73,11.34.18,22.69.72,34,1.49,12.11.81,24.21,2,36.29,3.17,20.76,2,41.39,5.06,61.89,8.82,14.44,2.64,28.79,5.84,43.19,8.69,12.3,2.43,24.6,4.85,36.94,7,10.93,1.91,21.92,3.54,32.9,5.13,7,1,14.1,1.8,21.16,2.6,8.5,1,17,1.91,25.51,2.71,7.15.68,14.33,1.19,21.51,1.67,9.48.64,19,1.27,28.47,1.74,7.42.37,14.86.55,22.29.7,11,.22,22.07.41,33.1.46,8.8,0,17.6-.05,26.39-.25q13.67-.31,27.32-1c10.85-.53,21.71-1.11,32.54-1.91,12.11-.91,24.21-2,36.3-3.17,9.46-.9,18.92-1.86,28.36-3,11.33-1.41,22.64-3,34-4.63,9.24-1.34,18.47-2.77,27.68-4.37,12.58-2.18,25.15-4.43,37.68-6.9,18.25-3.6,36.4-7.66,54.41-12.32,7.34-1.9,14.64-3.95,22-5.93.69-.19,1.38-.35,2.07-.52.66,2.6.43,80.22-.24,83.06Z" fill="#5f4b8c"/></svg>