<?xml version="1.0" encoding="utf-8"?>
<!-- Generator: Adobe Illustrator 22.1.0, SVG Export Plug-In . SVG Version: 6.00 Build 0)  -->
<svg version="1.1" id="dd753f21-6b71-4d24-98dc-8d672633fdb2"
	 xmlns="http://www.w3.org/2000/svg" xmlns:xlink="http://www.w3.org/1999/xlink" x="0px" y="0px" viewBox="0 0 156 114.2"
	 style="enable-background:new 0 0 156 114.2;" xml:space="preserve">
<style type="text/css">
	.st0{fill:#F2F2F2;}
	.st1{opacity:0.45;}
	.st2{fill:#9A346D;}
	.st3{opacity:0.1;enable-background:new    ;}
	.st4{opacity:0.5;fill:#9A346D;enable-background:new    ;}
	.st5{fill:url(#SVGID_1_);}
	.st6{fill:url(#SVGID_2_);}
	.st7{fill:url(#SVGID_3_);}
	.st8{fill:url(#SVGID_4_);}
	.st9{opacity:0.3;enable-background:new    ;}
	.st10{fill:#FFFFFF;}
	.st11{fill:none;stroke:#D22050;stroke-width:2;stroke-miterlimit:10;}
	.st12{fill:#D22050;}
	.st13{fill:none;stroke:#5F4A8B;stroke-width:2;stroke-miterlimit:10;}
	.st14{fill:#5F4A8B;}
	.st15{fill:#969396;}
	.st16{fill:#707070;}
</style>
<g>
	<ellipse class="st0" cx="77.7" cy="107.2" rx="38.8" ry="6.5"/>
	<g class="st1">
		<path class="st2" d="M68.4,39.3c0,0.1,0,0.1,0,0.2C68.4,39.4,68.4,39.4,68.4,39.3z"/>
		<path class="st2" d="M88,34.6C88,34.6,88,34.6,88,34.6C88,34.6,88,34.6,88,34.6z"/>
		<path class="st2" d="M87.9,34.4C87.9,34.4,87.9,34.5,87.9,34.4C87.9,34.5,87.9,34.4,87.9,34.4z"/>
		<path class="st2" d="M87.9,39.7C87.9,39.7,87.9,39.7,87.9,39.7C87.9,39.7,87.9,39.7,87.9,39.7z"/>
		<path class="st2" d="M88,39.5c0,0,0,0.1,0,0.1C87.9,39.6,88,39.5,88,39.5z"/>
		<path class="st2" d="M69.3,40.8c-0.1-0.1-0.3-0.2-0.4-0.3C69,40.6,69.2,40.7,69.3,40.8z"/>
		<path class="st2" d="M68.9,40.5c-0.1,0-0.1-0.1-0.1-0.2C68.8,40.4,68.9,40.5,68.9,40.5z"/>
		<path class="st2" d="M97.8,72.6c0-0.1,0-0.1-0.1-0.2C97.7,72.5,97.8,72.5,97.8,72.6z"/>
		<path class="st2" d="M97,71.6c0.1,0,0.1,0.1,0.2,0.1C97.1,71.7,97,71.6,97,71.6z"/>
		<path class="st2" d="M97.3,71.8c0.1,0.1,0.2,0.2,0.3,0.3C97.5,72.1,97.4,71.9,97.3,71.8z"/>
		<path class="st2" d="M97.1,71.7c0.1,0,0.1,0.1,0.2,0.1C97.3,71.8,97.2,71.7,97.1,71.7z"/>
		<path class="st2" d="M97.7,72.4c0-0.1-0.1-0.1-0.1-0.2C97.6,72.3,97.7,72.3,97.7,72.4z"/>
		<path class="st2" d="M97.8,72.8c0-0.1,0-0.1,0-0.2C97.8,72.7,97.8,72.7,97.8,72.8z"/>
		<path class="st2" d="M148.5,63.6h-9.7c0.5-0.3,0.7-0.8,0.7-1.4v-4.4c0-0.9-0.8-1.7-1.7-1.7l0,0h-11.1c0.7-0.2,1.2-0.9,1.2-1.6
			v-4.4c0-0.6-0.3-1.1-0.7-1.4h10.7c0.9,0,1.7-0.8,1.7-1.7c0,0,0,0,0,0v-4.4c0-0.9-0.8-1.7-1.7-1.7l0,0H126c0.7-0.2,1.2-0.9,1.2-1.6
			v-4.4c0-0.6-0.3-1.1-0.7-1.4h11.4c0.9,0,1.7-0.8,1.7-1.7c0,0,0,0,0,0v-4.4c0-0.9-0.7-1.7-1.7-1.7c0,0,0,0,0,0h-6
			c0.7-0.2,1.2-0.9,1.2-1.6v-4.4c0-0.9-0.8-1.7-1.7-1.7l0,0h-16.2c-0.9,0-1.7,0.8-1.7,1.7v0c0-0.9-0.8-1.7-1.7-1.7l0,0H95.5
			c-0.7,0-1.2,0.4-1.5,1c0,0.1,0,0.2,0,0.3v4.4c0,0.2-0.1,0.5-0.2,0.7c0.1,0.4,0.3,0.7,0.6,1h4.2c0.4,0,0.8,0.1,1.1,0.4h1.8
			c-0.7,0.2-1.2,0.9-1.2,1.6c0-0.1,0-0.2,0-0.3c0,0,0,0,0,0v4.4c0,0.1,0,0.3-0.1,0.4c0,0,0.1,0.1,0.1,0.1c0-0.1,0-0.1,0-0.2
			c0,0.1,0,0.2,0,0.3c0,0.1,0,0.1,0,0.2c0.1,0.4,0.3,0.7,0.7,0.9h-1.4l0,0c-0.1,0-0.3,0-0.4,0c0,0-0.1,0-0.1,0
			c-0.2,0-0.3,0.1-0.5,0.1l-10,0.3c-0.5,0.3-0.7,0.8-0.7,1.4v4.4c0,0.7,0.5,1.4,1.2,1.6l9.5,0.1c0.2,0,0.3,0,0.5,0.1
			c0.1,0,0.2,0,0.3,0.1h0c-0.1-0.1-0.2-0.1-0.3-0.1h2.3c-0.7,0.2-1.2,0.9-1.2,1.6c0-0.1,0-0.2,0-0.3c0,0,0,0,0,0c0,0.1,0,0.2,0,0.3
			v4.4c0,0.2,0,0.2,0-0.1c0,0.6,0.3,1.1,0.7,1.4l5.9,0.2c0.2,0,0.4,0,0.6,0.1h1.4c-0.3,0.2-0.5,0.4-0.6,0.7c0.2,0.3,0.2,0.6,0.2,0.9
			v4.4c0,0.2,0,0.5-0.1,0.7c0.2,0.4,0.5,0.6,0.9,0.7h-1.6c-0.3,0.2-0.6,0.3-0.9,0.3h-5.9c-0.5,0.3-0.8,0.8-0.8,1.4
			c0-0.6-0.2,5.2-0.2,5.2c0,0.5,9.2,0.8,9.2,0.8c0.2,0,0.5,0,0.7,0.1c0.1,0,0.2,0,0.3,0h0h1.4c-0.5,0.3-0.7,0.8-0.7,1.4
			c0-0.1,0-0.2,0-0.2c0,0,0,0,0,0.1c0,0.1,0,0.2,0,0.4v4.2c0,0.9,0.8,1.7,1.7,1.7l0,0h-2.6c-0.2,0.1-0.5,0.2-0.8,0.2H98.8
			c-0.6,0.3-0.9,0.9-0.9,1.5v4.4c0,0.9,0.8,1.7,1.7,1.7l0,0h16.2c0.9,0,1.7-0.8,1.7-1.7l0,0c0,0.9,0.8,1.7,1.7,1.7l0,0h16.2
			c0.9,0,1.7-0.8,1.7-1.7l0,0v-4.4c0-0.9-0.8-1.7-1.7-1.7l0,0h13.1c0.9,0,1.7-0.8,1.7-1.7v-4.4C150.1,64.4,149.4,63.6,148.5,63.6
			C148.5,63.6,148.5,63.6,148.5,63.6z M108.3,33.5c-0.5,0.3-0.7,0.8-0.7,1.4c0-0.6-0.3-1.1-0.7-1.4H108.3z M106.4,40.9
			c0.7-0.2,1.2-0.9,1.2-1.6c0,0.7,0.5,1.4,1.2,1.6H106.4z M112.3,25.7c0.7-0.2,1.2-0.9,1.2-1.6c0,0.7,0.5,1.4,1.2,1.6H112.3z
			 M117.4,73.1c0-0.9-0.8-1.7-1.7-1.7l0,0h3.4C118.2,71.4,117.4,72.1,117.4,73.1C117.4,73.1,117.4,73.1,117.4,73.1L117.4,73.1z
			 M119.2,63.6c0.5-0.3,0.7-0.8,0.7-1.4c0,0.6,0.3,1.1,0.7,1.4H119.2z M119.9,57.8c0-0.7-0.5-1.4-1.2-1.6h2.3
			C120.4,56.4,119.9,57,119.9,57.8L119.9,57.8z M119.2,48.4c0.5-0.3,0.7-0.8,0.7-1.4c0,0.6,0.3,1.1,0.7,1.4H119.2z M119.9,42.6
			c0-0.7-0.5-1.4-1.2-1.6h2.3C120.4,41.2,119.9,41.8,119.9,42.6L119.9,42.6z M119.2,33.2c0.5-0.3,0.7-0.8,0.7-1.4
			c0,0.6,0.3,1.1,0.7,1.4H119.2z M119.9,27.4c0-0.7-0.5-1.4-1.2-1.6h2.3C120.4,26,119.9,26.6,119.9,27.4L119.9,27.4z M131.3,63.9
			c-0.5,0.3-0.7,0.8-0.7,1.4c0-0.6-0.3-1.1-0.7-1.4H131.3z M128.9,71.4c0.9,0,1.7-0.8,1.7-1.7l0,0c0,0.9,0.8,1.7,1.7,1.7l0,0H128.9z
			"/>
		<path class="st2" d="M97.9,73.1c0-0.1,0-0.1,0-0.2C97.9,72.9,97.9,73,97.9,73.1z"/>
		<path class="st2" d="M88,39.3c0,0.1,0,0.1,0,0.2C88,39.4,88,39.3,88,39.3z"/>
		<path class="st2" d="M68.4,39.5c0,0.1,0,0.1,0,0.2C68.4,39.7,68.4,39.6,68.4,39.5z"/>
		<path class="st2" d="M49.6,49.4C49.6,49.4,49.6,49.4,49.6,49.4c-0.1-0.1-0.1-0.2-0.1-0.2c0,0.1,0,0.2,0,0.3
			c0.1,0.2,0.1,0.3,0.1,0.5c0-0.2,0-0.3,0.1-0.5C49.6,49.5,49.6,49.5,49.6,49.4C49.6,49.5,49.6,49.5,49.6,49.4z"/>
		<path class="st2" d="M72.6,18H56.4c-0.9,0-1.7,0.8-1.7,1.7l0,0c0-0.9-0.8-1.7-1.7-1.7c0,0,0,0,0,0H36.8c-0.9,0-1.7,0.8-1.7,1.7v0
			v4.4c0,0.7,0.5,1.4,1.2,1.6H23.7c-0.9,0-1.7,0.8-1.7,1.7c0,0,0,0,0,0v4.4c0,0.6,0.3,1.1,0.7,1.4H11.3c-0.9,0-1.7,0.8-1.7,1.7
			c0,0,0,0,0,0v4.4c0,0.9,0.8,1.7,1.7,1.7h0h11.9c-0.7,0.2-1.2,0.9-1.2,1.6V47c0,0.6,0.3,1.1,0.7,1.4H12.1c-0.9,0-1.7,0.8-1.7,1.7
			c0,0,0,0,0,0v4.4c0,0.9,0.8,1.7,1.7,1.7h0h11.1C22.5,56.4,22,57,22,57.8v4.4c0,0.9,0.8,1.7,1.7,1.7h0h9.7
			c-0.5,0.3-0.7,0.8-0.7,1.4v4.4c0,0.9,0.7,1.7,1.7,1.7H21.2c-0.9,0-1.7,0.8-1.7,1.7l0,0v4.4c0,0.9,0.8,1.7,1.7,1.7h0h16.2
			c0.9,0,1.7-0.8,1.7-1.7l0,0c0,0.9,0.8,1.7,1.7,1.7c0,0,0,0,0,0H57c0.9,0,1.7-0.8,1.7-1.7l0,0v-4.4c0-0.6-0.4-1.2-0.9-1.5h-3.5
			c-0.3,0-0.5-0.1-0.8-0.2h-3c0.9,0,1.7-0.8,1.7-1.7c0,0,0,0,0,0c0,0.7,0.4-4.2,0.4-4.2c0-0.9,0.8-1.7,1.7-1.7c0,0,0,0,0,0l6.2-0.2
			c0.2-0.1,0.3-0.3,0.4-0.5c-0.1-0.2-0.1-0.4-0.1-0.7V58c0-0.3,0.1-0.7,0.3-0.9c-0.1-0.3-0.4-0.6-0.6-0.8h-8.8
			c-0.3,0-0.6-0.1-0.9-0.3h-2.3c0.7-0.2,1.2-0.9,1.2-1.6l-0.1-4.4c0-0.2,0-0.4,0-0.5c-0.1-0.4-0.3-0.7-0.6-0.9h1.4l0,0
			c0.8,0,10.2-0.6,10.9-1.2c0-0.1,0-0.2,0-0.4c0-0.1,0-0.2,0-0.3v-4.4c0-0.1,0-0.1,0-0.2c-0.1-0.6-0.5-1.1-1.1-1.3h2
			c0.2-0.1,0.5-0.2,0.8-0.2h4.6c0.6-0.3,0.9-0.9,0.9-1.5v-4.4c0-0.6-0.3-1.1-0.7-1.4l-4.8-0.3c-0.8,0-1.4-0.3-0.9,0h-1.4
			c0.4-0.3,0.7-0.8,0.7-1.4c0-0.1,0-0.2,0-0.3v-4.4c0,0,0,0,0,0c-0.1-0.6-0.6-1.1-1.1-1.3h1.8c0.3-0.2,0.7-0.4,1.1-0.4h10.8
			c0.4-0.3,0.6-0.8,0.6-1.3v-4.4C74.3,18.7,73.5,18,72.6,18C72.6,18,72.6,18,72.6,18z M30,33.5c-0.5,0.3-0.7,0.8-0.7,1.4
			c0-0.6-0.3-1.1-0.7-1.4H30z M29.2,39.3c0,0.7,0.5,1.4,1.2,1.6h-2.3C28.8,40.7,29.2,40,29.2,39.3L29.2,39.3z M30.7,48.7
			C30.3,49,30,49.5,30,50.1c0-0.6-0.3-1.1-0.7-1.4H30.7z M28.8,56.1c0.7-0.2,1.2-0.9,1.2-1.6c0,0.7,0.5,1.4,1.2,1.6H28.8z
			 M49.5,33.5c-0.5,0.3-0.7,0.8-0.7,1.4c0-0.6-0.3-1.1-0.7-1.4H49.5z M39.1,73.1c0-0.9-0.8-1.7-1.7-1.7c0,0,0,0,0,0h3.4
			C39.9,71.4,39.1,72.1,39.1,73.1C39.1,73.1,39.1,73.1,39.1,73.1z M40.9,63.6c0.5-0.3,0.7-0.8,0.7-1.4c0,0.6,0.3,1.1,0.7,1.4H40.9z
			 M41.6,57.8c0-0.7-0.5-1.4-1.2-1.6h2.3C42.1,56.4,41.6,57,41.6,57.8z M40.9,48.4c0.5-0.3,0.7-0.8,0.7-1.4c0,0.6,0.3,1.1,0.7,1.4
			H40.9z M41.6,42.6c0-0.7-0.5-1.4-1.2-1.6h2.3C42.1,41.2,41.6,41.8,41.6,42.6z M40.9,33.2c0.5-0.3,0.7-0.8,0.7-1.4
			c0,0.6,0.3,1.1,0.7,1.4H40.9z M41.6,27.4c0-0.7-0.5-1.4-1.2-1.6h2.3C42.1,26,41.6,26.6,41.6,27.4z M47.6,40.9
			c0.7-0.2,1.2-0.9,1.2-1.6c0,0.7,0.5,1.4,1.2,1.6H47.6z M53.5,25.7c0.7-0.2,1.2-0.9,1.2-1.6c0,0.7,0.5,1.4,1.2,1.6H53.5z"/>
		<path class="st2" d="M68.9,33.6L68.9,33.6L68.9,33.6z"/>
		<path class="st2" d="M68.8,33.7L68.8,33.7L68.8,33.7z"/>
		<path class="st2" d="M68.7,33.9L68.7,33.9L68.7,33.9z"/>
		<path class="st2" d="M68.5,39.8c0,0.1,0,0.1,0.1,0.2C68.5,39.9,68.5,39.8,68.5,39.8z"/>
		<path class="st2" d="M68.6,40.2c0,0.1,0.1,0.1,0.1,0.2C68.7,40.3,68.7,40.2,68.6,40.2z"/>
		<path class="st2" d="M68.5,40c0,0.1,0.1,0.1,0.1,0.2C68.6,40.1,68.6,40,68.5,40z"/>
		<path class="st2" d="M68.4,34.5C68.4,34.5,68.4,34.4,68.4,34.5C68.4,34.4,68.4,34.5,68.4,34.5z"/>
		<path class="st2" d="M68.5,34.3C68.5,34.3,68.5,34.2,68.5,34.3C68.5,34.2,68.5,34.3,68.5,34.3z"/>
		<path class="st2" d="M68.4,34.7C68.4,34.6,68.4,34.6,68.4,34.7C68.4,34.6,68.4,34.6,68.4,34.7z"/>
		<path class="st3" d="M53.6,25.8H36.7c-0.7,0-1.3-0.6-1.3-1.3v-5.1c0-0.7,0.6-1.3,1.3-1.3h16.9c0.7,0,1.3,0.6,1.3,1.3v5.1
			C54.9,25.2,54.3,25.8,53.6,25.8z"/>
		<path class="st3" d="M112.1,25.8H95.2c-0.7,0-1.3-0.6-1.3-1.3v-5.1c0-0.7,0.6-1.3,1.3-1.3h16.9c0.7,0,1.3,0.6,1.3,1.3v5.1
			C113.4,25.2,112.8,25.8,112.1,25.8z"/>
		<path class="st3" d="M138.1,33.4h-16.9c-0.7,0-1.3-0.6-1.3-1.3v-5.1c0-0.7,0.6-1.3,1.3-1.3h16.9c0.7,0,1.3,0.6,1.3,1.3V32
			C139.5,32.8,138.9,33.4,138.1,33.4z"/>
		<path class="st3" d="M106.2,41H89.3c-0.7,0-1.3-0.6-1.3-1.3v-5.1c0-0.7,0.6-1.3,1.3-1.3h16.9c0.7,0,1.3,0.6,1.3,1.3v5.1
			C107.5,40.4,106.9,41,106.2,41z"/>
		<path class="st3" d="M138.1,48.8h-16.9c-0.7,0-1.3-0.6-1.3-1.3v-5.1c0-0.7,0.6-1.3,1.3-1.3h16.9c0.7,0,1.3,0.6,1.3,1.3v5.1
			C139.5,48.2,138.9,48.8,138.1,48.8z"/>
		<path class="st3" d="M138.1,64h-16.9c-0.7,0-1.3-0.6-1.3-1.3v-5.1c0-0.7,0.6-1.3,1.3-1.3h16.9c0.7,0,1.3,0.6,1.3,1.3v5.1
			C139.5,63.4,138.9,64,138.1,64z"/>
		<path class="st3" d="M129.3,63.8h-17.1c-0.5,0-1,0.4-1.2,0.9c0,0.1,0,0.1,0,0.2c0,0,0,0.1,0,0.1c0,0,0,0,0,0v5.3
			c0,0.7,0.5,1.2,1.2,1.2h17.1c0.7,0,1.2-0.5,1.2-1.2V65C130.6,64.3,130,63.8,129.3,63.8z"/>
		<path class="st3" d="M116.1,79.2H99.2c-0.7,0-1.3-0.6-1.3-1.3v-5.1c0-0.7,0.6-1.3,1.3-1.3h16.9c0.7,0,1.3,0.6,1.3,1.3v5.1
			C117.4,78.6,116.8,79.2,116.1,79.2z"/>
		<path class="st3" d="M59.8,33.4H42.9c-0.7,0-1.3-0.6-1.3-1.3v-5.1c0-0.7,0.6-1.3,1.3-1.3h16.9c0.7,0,1.3,0.6,1.3,1.3V32
			C61.2,32.8,60.6,33.4,59.8,33.4z"/>
		<path class="st3" d="M47.7,41H30.8c-0.7,0-1.3-0.6-1.3-1.3v-5.1c0-0.7,0.6-1.3,1.3-1.3h16.9c0.7,0,1.3,0.6,1.3,1.3v5.1
			C49,40.4,48.4,41,47.7,41z"/>
		<path class="st3" d="M40.2,48.8H23.3c-0.7,0-1.3-0.6-1.3-1.3v-5.1c0-0.7,0.6-1.3,1.3-1.3h16.9c0.7,0,1.3,0.6,1.3,1.3v5.1
			C41.6,48.2,41,48.8,40.2,48.8z"/>
		<path class="st3" d="M48.2,56.4H31.3c-0.7,0-1.3-0.6-1.3-1.3v-5.1c0-0.7,0.6-1.3,1.3-1.3h16.9c0.7,0,1.3,0.6,1.3,1.3V55
			C49.6,55.8,49,56.4,48.2,56.4z"/>
		<path class="st3" d="M40.2,64H23.3c-0.7,0-1.3-0.6-1.3-1.3v-5.1c0-0.7,0.6-1.3,1.3-1.3h16.9c0.7,0,1.3,0.6,1.3,1.3v5.1
			C41.6,63.4,41,64,40.2,64z"/>
		<path class="st2" d="M31.4,71.6H14.5c-0.7,0-1.3-0.6-1.3-1.3v-5.1c0-0.7,0.6-1.3,1.3-1.3h16.9c0.7,0,1.3,0.6,1.3,1.3v5.1
			C32.7,71,32.1,71.6,31.4,71.6z"/>
		<path class="st2" d="M145.7,56.4h-16.9c-0.7,0-1.3-0.6-1.3-1.3v-5.1c0-0.7,0.6-1.3,1.3-1.3h16.9c0.7,0,1.3,0.6,1.3,1.3V55
			C147.1,55.8,146.5,56.4,145.7,56.4z"/>
		<path class="st2" d="M144.9,41H128c-0.7,0-1.3-0.6-1.3-1.3v-5.1c0-0.7,0.6-1.3,1.3-1.3h16.9c0.7,0,1.3,0.6,1.3,1.3v5.1
			C146.2,40.4,145.6,41,144.9,41z"/>
		<path class="st2" d="M154.7,79.1h-16.9c-0.7,0-1.3-0.6-1.3-1.3v-5.1c0-0.7,0.6-1.3,1.3-1.3h16.9c0.7,0,1.3,0.6,1.3,1.3v5.1
			C156,78.5,155.4,79.1,154.7,79.1z"/>
		<path class="st2" d="M18.2,79.2H1.3c-0.7,0-1.3-0.6-1.3-1.3v-5.1c0-0.7,0.6-1.3,1.3-1.3h16.9c0.7,0,1.3,0.6,1.3,1.3v5.1
			C19.6,78.6,19,79.2,18.2,79.2z"/>
		<path class="st2" d="M20.9,63.8H4c-0.7,0-1.3-0.6-1.3-1.3v-5.1C2.6,56.6,3.2,56,4,56h16.9c0.7,0,1.3,0.6,1.3,1.3v5.1
			C22.2,63.2,21.6,63.8,20.9,63.8z"/>
		<path class="st2" d="M20.9,48.7H4c-0.7,0-1.3-0.6-1.3-1.3v-5.1C2.6,41.6,3.2,41,4,41h16.9c0.7,0,1.3,0.6,1.3,1.3v5.1
			C22.2,48.1,21.6,48.7,20.9,48.7z"/>
		<path class="st2" d="M21.6,33.4H4.7c-0.7,0-1.3-0.6-1.3-1.3v-5.1c0-0.7,0.6-1.3,1.3-1.3h16.9c0.7,0,1.3,0.6,1.3,1.3V32
			C22.9,32.8,22.3,33.4,21.6,33.4z"/>
		<path class="st3" d="M21.6,33.4H4.7c-0.7,0-1.3-0.6-1.3-1.3v-5.1c0-0.7,0.6-1.3,1.3-1.3h16.9c0.7,0,1.3,0.6,1.3,1.3V32
			C22.9,32.8,22.3,33.4,21.6,33.4z"/>
		<path class="st2" d="M34,25.8H17.1c-0.7,0-1.3-0.6-1.3-1.3v-5.1c0-0.7,0.6-1.3,1.3-1.3H34c0.7,0,1.3,0.6,1.3,1.3v5.1
			C35.4,25.2,34.8,25.8,34,25.8z"/>
		<path class="st3" d="M51.1,71.6H34.2c-0.7,0-1.3-0.6-1.3-1.3v-5.1c0-0.7,0.6-1.3,1.3-1.3h16.9c0.7,0,1.3,0.6,1.3,1.3v5.1
			C52.4,71,51.8,71.6,51.1,71.6z"/>
		<path class="st3" d="M37.8,79.2H20.9c-0.7,0-1.3-0.6-1.3-1.3v-5.1c0-0.7,0.6-1.3,1.3-1.3h16.9c0.7,0,1.3,0.6,1.3,1.3v5.1
			C39.1,78.6,38.5,79.2,37.8,79.2z"/>
	</g>
	<circle class="st4" cx="122.9" cy="4.4" r="4.4"/>
	<path class="st0" d="M38.2,12.3h-1c0.4,0,0.7-0.4,0.7-0.8c0-0.4-0.3-0.7-0.7-0.7h-8.5c-0.4,0-0.7,0.3-0.8,0.7
		c0,0.4,0.3,0.7,0.7,0.8c0,0,0,0,0.1,0h1c-0.4,0-0.7,0.4-0.7,0.8c0,0.4,0.3,0.7,0.7,0.7h-1.5c-0.4,0-0.7,0.3-0.8,0.7
		c0,0.4,0.3,0.7,0.7,0.8c0,0,0,0,0.1,0h8.4c0.4,0,0.7-0.4,0.7-0.8c0-0.4-0.3-0.7-0.7-0.7h1.5c0.4,0,0.7-0.4,0.7-0.8
		C38.9,12.7,38.6,12.4,38.2,12.3L38.2,12.3z"/>
	<path class="st0" d="M122.4,3.9h-0.8c0.3,0,0.5-0.3,0.5-0.6c0-0.3-0.2-0.5-0.5-0.5h-6.4c-0.3,0-0.5,0.3-0.5,0.6
		c0,0.3,0.2,0.5,0.5,0.5h0.8c-0.3,0-0.6,0.2-0.6,0.5c0,0.3,0.2,0.6,0.5,0.6c0,0,0,0,0.1,0h-1.1c-0.3,0-0.5,0.3-0.5,0.6
		c0,0.3,0.2,0.5,0.5,0.5h6.4c0.3,0,0.6-0.2,0.6-0.5c0-0.3-0.2-0.6-0.5-0.6c0,0,0,0-0.1,0h1.1c0.3,0,0.6-0.2,0.6-0.5
		C123,4.1,122.8,3.9,122.4,3.9C122.4,3.9,122.4,3.9,122.4,3.9L122.4,3.9z"/>
	<path class="st0" d="M58.3,2h-1C57.6,2,58,1.7,58,1.3c0-0.4-0.3-0.7-0.7-0.8c0,0,0,0-0.1,0h-8.5c-0.4,0-0.7,0.3-0.8,0.7
		C48,1.7,48.3,2,48.7,2c0,0,0,0,0.1,0h1c-0.4,0-0.7,0.4-0.7,0.8c0,0.4,0.3,0.7,0.7,0.7h-1.5c-0.4,0-0.7,0.3-0.8,0.7
		c0,0.4,0.3,0.7,0.7,0.8c0,0,0,0,0.1,0h8.4c0.4,0,0.7-0.4,0.7-0.8c0-0.4-0.3-0.7-0.7-0.7h1.5c0.4,0,0.7-0.4,0.7-0.8
		C58.9,2.3,58.6,2,58.3,2L58.3,2z"/>
	
		<linearGradient id="SVGID_1_" gradientUnits="userSpaceOnUse" x1="74.9354" y1="323.4705" x2="74.9354" y2="330.2859" gradientTransform="matrix(1 0 0 -1 0 410.1279)">
		<stop  offset="0" style="stop-color:#808080;stop-opacity:0.25"/>
		<stop  offset="0.54" style="stop-color:#808080;stop-opacity:0.12"/>
		<stop  offset="1" style="stop-color:#808080;stop-opacity:0.1"/>
	</linearGradient>
	<polygon class="st5" points="83.8,81.9 86.7,81.9 86.7,80.2 86.7,79.8 63.1,79.8 63.1,80.2 63.1,81.9 66,81.9 66,84 61.3,84 
		61.3,86.7 88.6,86.7 88.6,84 83.8,84 	"/>
	
		<linearGradient id="SVGID_2_" gradientUnits="userSpaceOnUse" x1="160.6654" y1="243.9636" x2="160.6654" y2="314.4945" gradientTransform="matrix(1 0 0 -1 -85.73 336.3879)">
		<stop  offset="0" style="stop-color:#808080;stop-opacity:0.25"/>
		<stop  offset="0.54" style="stop-color:#808080;stop-opacity:0.12"/>
		<stop  offset="1" style="stop-color:#808080;stop-opacity:0.1"/>
	</linearGradient>
	<path class="st6" d="M103.2,83.9L103.2,83.9c0.2-2.8,0.1-5.3-0.2-7.3c-0.3-2.4-0.9-4.4-1.7-6c-1.5-3.2-3.7-4.9-5.6-5.9
		c-1.3-0.6-2.7-1-4.1-1.1c-0.1-1-1.1-1.7-2.1-1.6c-0.8,0.1-1.4,0.7-1.6,1.5v-4.7h-10v-2.6h13.4c0.8,0,1.5-0.7,1.5-1.5V41
		c0-0.8-0.7-1.5-1.5-1.5h-5.1V25.9c0.7-0.3,1.2-1.1,1.2-1.9c0,0,0,0,0-0.1c0,0,0,0,0-0.1c0-1.1-0.9-2-2-2s-2,0.9-2,2l0,0
		c0,0,0,0,0,0.1c0,0,0,0,0,0.1c0,0.8,0.4,1.5,1.1,1.8v13.6H65.7V25.9c0.7-0.4,1.1-1,1.1-1.8c0,0,0,0,0-0.1c0,0,0,0,0-0.1
		c0-1.1-0.9-2-2-2c-1.1,0-2,0.9-2,2c0,0,0,0,0,0.1c0,0,0,0,0,0.1c0,0.8,0.5,1.5,1.2,1.9v13.5h-5.5c-0.8,0-1.5,0.7-1.5,1.5v13.7
		c0,0.8,0.7,1.5,1.5,1.5h13.4v2.6h-10v3.9c-0.1-0.2-0.2-0.5-0.4-0.7l0,0c-0.7-0.7-1.9-0.7-2.6,0c-0.3,0.3-0.5,0.8-0.5,1.3v0.3
		c0,0-1.9,0-4.1,1.1c-1.9,0.9-4.1,2.7-5.6,5.9c-0.8,1.6-1.4,3.6-1.7,6c-0.3,2.1-0.4,4.5-0.2,7.3c-4.2,3.5,1.1,8.6,1.1,8.6
		c4.3,0,4.2-7.2,4.2-8.4h0c0,0,0-0.1,0-0.2l0,0l0,0c-0.3-2-0.4-4-0.3-6.1c0.1-1.5,0.4-3.2,1-4.6c0.5-1.2,1.2-2.2,2.1-3
		c1-0.9,2.2-1.5,3.5-1.7v1.2c0,1,0.8,1.8,1.8,1.8c0.8,0,1.5-0.5,1.7-1.2v9.6H88v-9.4c0.1,0.4,0.2,0.7,0.5,1l0.1,0.1
		c0.7,0.7,1.9,0.7,2.6,0c0.4-0.3,0.5-0.8,0.5-1.3v-1.7c1.3,0.2,2.4,0.8,3.4,1.7c0.9,0.8,1.6,1.9,2.1,3c0.6,1.5,0.9,3.1,1,4.6
		c0.1,2,0.1,4.1-0.3,6.1l0,0l0,0c0,0.1,0,0.2,0,0.2h0c0,1.2-0.1,8.4,4.2,8.4C102.1,92.4,107.4,87.4,103.2,83.9z"/>
	
		<linearGradient id="SVGID_3_" gradientUnits="userSpaceOnUse" x1="68.1185" y1="301.4496" x2="68.1185" y2="323.469" gradientTransform="matrix(1 0 0 -1 0 410.1279)">
		<stop  offset="0" style="stop-color:#808080;stop-opacity:0.25"/>
		<stop  offset="0.54" style="stop-color:#808080;stop-opacity:0.12"/>
		<stop  offset="1" style="stop-color:#808080;stop-opacity:0.1"/>
	</linearGradient>
	<polygon class="st7" points="62.6,86.9 62.6,89.3 65.8,89.3 65.8,92.9 65.8,92.9 65.8,96.1 65.8,100.8 65.8,103.4 65.8,105 
		62.1,105 62.1,108.7 72.1,108.7 72.1,105 70.5,105 70.5,103.4 70.5,103.4 70.5,100.8 70.5,100.8 70.5,96.1 70.5,96.1 70.5,92.9 
		70.5,92.9 70.5,89.3 74.1,89.3 74.1,86.9 74.1,86.7 62.6,86.7 	"/>
	
		<linearGradient id="SVGID_4_" gradientUnits="userSpaceOnUse" x1="80.9648" y1="301.4496" x2="80.9648" y2="323.469" gradientTransform="matrix(1 0 0 -1 0 410.1279)">
		<stop  offset="0" style="stop-color:#808080;stop-opacity:0.25"/>
		<stop  offset="0.54" style="stop-color:#808080;stop-opacity:0.12"/>
		<stop  offset="1" style="stop-color:#808080;stop-opacity:0.1"/>
	</linearGradient>
	<polygon class="st8" points="75.2,86.9 75.2,89.3 79.9,89.3 79.9,92.9 79.9,92.9 79.9,96.1 79.9,100.8 79.9,103.4 79.9,105 
		76.2,105 76.2,108.7 86.2,108.7 86.2,105 84.6,105 84.6,103.4 84.6,100.8 84.6,96.1 84.6,92.9 84.6,92.9 84.6,89.3 86.7,89.3 
		86.7,86.9 86.7,86.7 75.2,86.7 	"/>
	<path class="st2" d="M59.3,40.2h31.3c1.1,0,2,0.9,2,2v12.4c0,1.1-0.9,2-2,2H59.3c-1.1,0-2-0.9-2-2V42.1
		C57.3,41,58.2,40.2,59.3,40.2z"/>
	<rect x="60.1" y="54" class="st3" width="29.6" height="0.3"/>
	<rect x="60.1" y="42.7" class="st9" width="29.6" height="11.2"/>
	<circle class="st3" cx="67" cy="48.6" r="4.1"/>
	<circle class="st10" cx="67" cy="48.3" r="4.1"/>
	<circle class="st3" cx="82.8" cy="48.6" r="4.1"/>
	<circle class="st10" cx="82.8" cy="48.3" r="4.1"/>
	<rect x="71.9" y="56.5" class="st2" width="6.1" height="3.6"/>
	<rect x="62.2" y="59" class="st2" width="25.5" height="20.4"/>
	<polygon class="st2" points="86.4,79.4 86.4,81.5 83.6,81.5 83.6,83.5 66.3,83.5 66.3,81.5 63.5,81.5 63.5,79.4 	"/>
	<polygon class="st9" points="86.4,79.4 86.4,81.5 83.6,81.5 83.6,83.5 66.3,83.5 66.3,81.5 63.5,81.5 63.5,79.4 	"/>
	<rect x="61.7" y="83.5" class="st2" width="26.5" height="2.6"/>
	<rect x="62.9" y="86.1" class="st2" width="11.2" height="2.6"/>
	<rect x="75.2" y="86.1" class="st2" width="11.2" height="2.6"/>
	<rect x="62.4" y="103.9" class="st2" width="9.7" height="3.6"/>
	<polygon class="st2" points="66,92.2 66,95.3 66,99.9 66,102.4 66,103.9 70.6,103.9 70.6,102.4 70.6,99.9 70.6,95.3 70.6,92.2 
		70.6,88.6 66,88.6 	"/>
	<polygon class="st2" points="79.8,88.6 79.8,92.2 79.8,95.3 79.8,99.9 79.8,102.4 79.8,103.9 84.4,103.9 84.4,102.4 84.4,99.9 
		84.4,95.3 84.4,92.2 84.4,88.6 	"/>
	<rect x="76.2" y="103.9" class="st2" width="9.7" height="3.6"/>
	<path class="st2" d="M62.3,63.4v6.1c0,0,0,0.1,0,0.1c-0.1,1-0.9,1.7-1.9,1.6c-0.9-0.1-1.6-0.8-1.6-1.8v-6.1c0-1,0.8-1.8,1.8-1.8
		c0.5,0,0.9,0.2,1.3,0.5l0,0c0.3,0.3,0.4,0.7,0.5,1.1C62.3,63.3,62.3,63.3,62.3,63.4z"/>
	<path class="st2" d="M91.2,63.9V70c0,1-0.8,1.8-1.8,1.8c-0.5,0-0.9-0.2-1.3-0.5l0-0.1c-0.3-0.3-0.5-0.8-0.5-1.2v-6.1
		c0-1,0.8-1.8,1.8-1.8C90.4,62.1,91.2,62.9,91.2,63.9L91.2,63.9z"/>
	<path class="st2" d="M58.7,63.6v4.7c-1.3,0.2-2.4,0.8-3.4,1.6c-0.9,0.8-1.6,1.8-2,3c-0.6,1.4-0.9,3-1,4.5c-0.1,2-0.1,4.1,0.3,6.1
		h-5.1c-0.2-2.8-0.2-5.2,0.1-7.3c0.3-2.3,0.9-4.2,1.6-5.8c1.5-3.1,3.6-4.8,5.4-5.7C56.9,63.6,58.7,63.6,58.7,63.6z"/>
	<path class="st2" d="M48.5,91.7c0,0-5.1-4.9-1-8.3h5.1C52.6,83.4,53.1,91.7,48.5,91.7z"/>
	<path class="st9" d="M48.5,91.7c0,0-5.1-4.9-1-8.3h5.1C52.6,83.4,53.1,91.7,48.5,91.7z"/>
	<rect x="66.3" y="62.1" class="st9" width="17.3" height="13.3"/>
	<rect x="66" y="88.6" class="st9" width="4.6" height="3.6"/>
	<rect x="66" y="95.3" class="st9" width="4.6" height="4.6"/>
	<rect x="66" y="102.4" class="st9" width="4.6" height="1.5"/>
	<rect x="79.8" y="88.6" class="st9" width="4.6" height="3.6"/>
	<rect x="79.8" y="95.3" class="st9" width="4.6" height="4.6"/>
	<rect x="79.8" y="102.4" class="st9" width="4.6" height="1.5"/>
	<path class="st9" d="M58.7,63.6v4.7c-1.3,0.2-2.4,0.8-3.4,1.6l-0.6-5.3C56.9,63.6,58.7,63.6,58.7,63.6z"/>
	<path class="st9" d="M53.3,72.9c-0.6,1.4-0.9,3-1,4.5l-4.7-1.3c0.3-2.3,0.9-4.2,1.6-5.8L53.3,72.9z"/>
	<path class="st2" d="M91.2,63.6v4.7c1.3,0.2,2.4,0.8,3.4,1.6c0.9,0.8,1.6,1.8,2,3c0.6,1.4,0.9,3,1,4.5c0.1,2,0.1,4.1-0.3,6.1h5.1
		c0.2-2.8,0.2-5.2-0.1-7.3c-0.3-2.3-0.9-4.2-1.6-5.8c-1.5-3.1-3.6-4.8-5.4-5.7C93,63.6,91.2,63.6,91.2,63.6z"/>
	<path class="st2" d="M101.4,91.7c0,0,5.1-4.9,1-8.3h-5.1C97.3,83.4,96.8,91.7,101.4,91.7z"/>
	<path class="st9" d="M101.4,91.7c0,0,5.1-4.9,1-8.3h-5.1C97.3,83.4,96.8,91.7,101.4,91.7z"/>
	<path class="st9" d="M91.2,63.6v4.7c1.3,0.2,2.4,0.8,3.4,1.6l0.6-5.3C93,63.6,91.2,63.6,91.2,63.6z"/>
	<path class="st9" d="M96.6,72.9c0.6,1.4,0.9,3,1,4.5l4.7-1.3c-0.3-2.3-0.9-4.2-1.6-5.8L96.6,72.9z"/>
	<rect x="71.9" y="56.5" class="st3" width="6.1" height="0.4"/>
	<path class="st3" d="M88.1,62.7v8.5c-0.3-0.3-0.5-0.8-0.5-1.2v-6.1C87.7,63.4,87.8,63,88.1,62.7z"/>
	<path class="st3" d="M62.3,63.2v6.4c0,0.4-0.2,0.8-0.5,1.1v-8.6C62.1,62.5,62.2,62.8,62.3,63.2z"/>
	<rect x="63.5" y="79.4" class="st3" width="23" height="0.3"/>
	<rect x="62.9" y="86.1" class="st3" width="11.2" height="0.2"/>
	<rect x="75.2" y="86.1" class="st3" width="11.2" height="0.2"/>
	<rect x="64.2" y="25.1" class="st2" width="1.8" height="15.1"/>
	<rect x="84.3" y="25.1" class="st2" width="1.8" height="15.1"/>
	<circle class="st3" cx="65" cy="25.2" r="2"/>
	<circle class="st2" cx="65" cy="25.1" r="2"/>
	<circle class="st3" cx="85.3" cy="25.2" r="2"/>
	<circle class="st2" cx="85.3" cy="25.1" r="2"/>
	<path class="st11" d="M23,71.3c0,0,5.8,11.4,1.1,17.7s0.4,23.3,0.4,23.3"/>
	<path class="st12" d="M24.7,67.8c0,2.2-1.6,4-1.6,4s-1.6-1.8-1.6-4s1.6-4,1.6-4S24.7,65.6,24.7,67.8z"/>
	<path class="st13" d="M26,71.3c0,0-5.8,11.4-1.1,17.7s-0.4,23.3-0.4,23.3"/>
	<path class="st14" d="M24.3,67.8c0,2.2,1.6,4,1.6,4s1.6-1.8,1.6-4s-1.6-4-1.6-4S24.3,65.6,24.3,67.8z"/>
	<path class="st11" d="M28.4,71.3c0,0,5.8,11.4,1.1,17.7s0.4,23.3,0.4,23.3"/>
	<path class="st12" d="M30.1,67.8c0,2.2-1.6,4-1.6,4s-1.6-1.8-1.6-4s1.6-4,1.6-4S30.1,65.6,30.1,67.8z"/>
	<path class="st12" d="M29.2,76.9c-1.5,1.6-3.9,1.8-3.9,1.8s0.1-2.4,1.6-4s3.9-1.8,3.9-1.8S30.7,75.4,29.2,76.9z"/>
	<path class="st12" d="M29.4,84.8c-1.5,1.6-3.9,1.8-3.9,1.8s0.1-2.4,1.6-4s3.9-1.8,3.9-1.8S30.9,83.2,29.4,84.8z"/>
	<path class="st12" d="M21.1,89.2c1.4,1.7,1.4,4.1,1.4,4.1s-2.4-0.3-3.8-2s-1.4-4.1-1.4-4.1S19.6,87.5,21.1,89.2z"/>
	<path class="st12" d="M22.4,72.3c1.8,1.2,2.4,3.6,2.4,3.6s-2.4,0.4-4.2-0.9s-2.4-3.6-2.4-3.6S20.6,71.1,22.4,72.3z"/>
	<path class="st13" d="M31.4,71.3c0,0-5.8,11.4-1.1,17.7s-0.4,23.3-0.4,23.3"/>
	<path class="st14" d="M29.7,67.8c0,2.2,1.6,4,1.6,4s1.6-1.8,1.6-4s-1.6-4-1.6-4S29.7,65.6,29.7,67.8z"/>
	<path class="st14" d="M30.1,77.1c-1.5,1.6-1.6,4-1.6,4s2.4-0.1,4-1.7c1.5-1.6,1.6-4,1.6-4S31.7,75.5,30.1,77.1z"/>
	<path class="st14" d="M33.2,88c-1.5,1.6-1.6,4-1.6,4s2.4-0.1,4-1.7c1.5-1.6,1.6-4,1.6-4S34.7,86.5,33.2,88z"/>
	<path class="st13" d="M28.7,85.6c0,0,3.5-5.5,8.4-5.6"/>
	<path class="st11" d="M26,82.3c0,0-3.5-5.5-8.4-5.6"/>
	<path class="st13" d="M25.5,90.2c0,0,3.5-5.5,8.4-5.6"/>
	<circle class="st14" cx="37" cy="79.9" r="0.9"/>
	<circle class="st12" cx="17.6" cy="76.7" r="0.9"/>
	<path class="st11" d="M28.1,92c0,0-3.5-5.5-8.4-5.6"/>
	<circle class="st12" cx="19.8" cy="86.4" r="0.9"/>
	<circle class="st14" cx="34" cy="84.6" r="0.9"/>
	<path class="st15" d="M47.5,105.7c0,0-8.5-1.7-10.7-3.9c-2.3-2.3-12.4-6.2-13.5-3.4c-1.1,2.8-15.2,12.4-5.6,14.1
		c9.6,1.7,22.5,2.3,25.4,1.1C45.8,112.5,47.5,105.7,47.5,105.7z"/>
	<path class="st16" d="M17.6,111.4c9.6,1.7,22.5,2.3,25.4,1.1c2.1-0.9,3.6-5,4.2-6.9l0.3,0.1c0,0-1.7,6.8-4.5,7.9
		c-2.8,1.1-15.8,0.6-25.4-1.1c-2.8-0.5-3.6-1.6-3.3-3.1C14.6,110.3,15.6,111.1,17.6,111.4z"/>
	<path class="st12" d="M138.8,73.4c0,0,2,2.6-0.9,6.6c-3,4-5.4,7.4-4.4,9.9c0,0,4.5-7.4,8.1-7.5C145.2,82.2,142.8,77.8,138.8,73.4z"
		/>
	<path class="st3" d="M138.8,73.4c0.2,0.3,0.3,0.5,0.4,0.8c3.5,4.2,5.4,8.1,2,8.2c-3.2,0.1-7,5.8-7.9,7.2c0,0.1,0.1,0.2,0.1,0.3
		c0,0,4.5-7.4,8.1-7.5C145.2,82.2,142.8,77.8,138.8,73.4z"/>
	<path class="st14" d="M142.5,76.7c0,0.9-0.1,1.7-0.2,1.7c-0.1,0-0.2-0.8-0.2-1.7s0.1-0.5,0.3-0.5S142.5,75.8,142.5,76.7z"/>
	<path class="st14" d="M143.8,77.8c-0.8,0.4-1.5,0.7-1.6,0.6c-0.1-0.1,0.6-0.6,1.4-1c0.8-0.4,0.5-0.1,0.6,0
		C144.2,77.5,144.6,77.4,143.8,77.8z"/>
	<path class="st12" d="M128.1,73.4c0,0-2,2.6,0.9,6.6c3,4,5.4,7.4,4.4,9.9c0,0-4.5-7.4-8.1-7.5C121.7,82.2,124.1,77.8,128.1,73.4z"
		/>
	<path class="st3" d="M128.1,73.4c-0.2,0.3-0.3,0.5-0.4,0.8c-3.5,4.2-5.4,8.1-2,8.2c3.2,0.1,7,5.8,7.9,7.2c0,0.1-0.1,0.2-0.1,0.3
		c0,0-4.5-7.4-8.1-7.5C121.7,82.2,124.1,77.8,128.1,73.4z"/>
	<path class="st14" d="M124.3,76.7c0,0.9,0.1,1.7,0.2,1.7s0.2-0.8,0.2-1.7s-0.1-0.5-0.3-0.5S124.3,75.8,124.3,76.7z"/>
	<path class="st14" d="M123,77.8c0.8,0.4,1.5,0.7,1.6,0.6c0.1-0.1-0.6-0.6-1.4-1s-0.5-0.1-0.6,0S122.2,77.4,123,77.8z"/>
	<path class="st15" d="M125,89.5c0,0,5.7-0.2,7.4-1.4c1.7-1.2,8.7-2.7,9.1-0.7c0.4,1.9,8.5,9.7,2.1,9.7c-6.4,0.1-14.9-1-16.6-2
		S125,89.5,125,89.5z"/>
	<path class="st16" d="M143.7,96.5c-6.4,0.1-14.9-1-16.6-2c-1.3-0.8-1.8-3.6-2-4.9H125c0,0,0.4,4.6,2.1,5.6s10.2,2.1,16.6,2
		c1.8,0,2.5-0.7,2.4-1.6C145.8,96.1,145.1,96.5,143.7,96.5z"/>
</g>
</svg>
