<?xml version="1.0" encoding="utf-8"?>
<!-- Generator: Adobe Illustrator 22.1.0, SVG Export Plug-In . SVG Version: 6.00 Build 0)  -->
<svg version="1.1" id="Layer_1" xmlns="http://www.w3.org/2000/svg" xmlns:xlink="http://www.w3.org/1999/xlink" x="0px" y="0px"
	 viewBox="0 0 1156.4 296.3" style="enable-background:new 0 0 1156.4 296.3;" xml:space="preserve">
<style type="text/css">
	.st0{clip-path:url(#SVGID_2_);fill:#F7F7F7;}
	.st1{clip-path:url(#SVGID_4_);}
	.st2{fill:#F7F7F7;}
	.st3{opacity:0.1;fill:#252223;enable-background:new    ;}
	.st4{opacity:0.3;fill:#5F4A8B;enable-background:new    ;}
	.st5{opacity:0.4;fill:#FFFFFF;enable-background:new    ;}
	.st6{fill:#9A346D;}
	.st7{fill:none;stroke:#5F4A8B;stroke-miterlimit:10;}
	.st8{fill:none;stroke:#5F4A8B;stroke-width:2;stroke-miterlimit:10;}
	.st9{fill:#5F4A8B;}
	.st10{opacity:0.25;enable-background:new    ;}
	.st11{opacity:0.1;enable-background:new    ;}
	.st12{fill:#EEA0A1;}
	.st13{fill:#E7F0F4;}
	.st14{fill:#D22050;}
</style>
<g>
	<defs>
		<rect id="SVGID_3_" x="-1" y="-0.4" width="1159.7" height="298.5"/>
	</defs>
	<clipPath id="SVGID_2_">
		<use xlink:href="#SVGID_3_"  style="overflow:visible;"/>
	</clipPath>
	<g style="clip-path:url(#SVGID_2_);">
		<path class="st2" d="M1164.3,254.9c-3-13.2-2.4-26.5,1.7-39.7c6.4-50.5,11.6-101.2,19.6-151.4C1025,10.5,860.7-27.3,644.7,29.7
			c-83.4,22-164.4,20.8-251.3,24C331.1,56,269.3,44.3,207.2,39S79.5,35.4,24.6,62.1c-54.8,26.7-94.8,84.4-79.5,138.7
			c15.6,55,81.4,88.3,144.5,93.1c63,4.8,125.3-12,187.2-23.5C393,248.6,513.3,245,630.7,259.7c180.6,22.6,357.1,42.3,536,11.1
			C1165.4,265.7,1164.5,260.4,1164.3,254.9z"/>
	</g>
</g>
</svg>
