<svg id="Layer_1" data-name="Layer 1" xmlns="http://www.w3.org/2000/svg" xmlns:xlink="http://www.w3.org/1999/xlink" viewBox="0 0 191.84 147.23"><defs><linearGradient id="linear-gradient" x1="138.31" y1="-827.53" x2="138.31" y2="-764.68" gradientTransform="matrix(1, 0, 0, -1, 0, -760.96)" gradientUnits="userSpaceOnUse"><stop offset="0" stop-color="#818181" stop-opacity="0.25"/><stop offset="0.54" stop-color="#818181" stop-opacity="0.12"/><stop offset="1" stop-color="#818181" stop-opacity="0.1"/></linearGradient><linearGradient id="linear-gradient-2" x1="-1933.94" y1="-923.26" x2="-1933.94" y2="-839.76" gradientTransform="translate(-1876.13 -808.04) rotate(180)" xlink:href="#linear-gradient"/><linearGradient id="linear-gradient-3" x1="80.62" y1="-908.19" x2="80.62" y2="-866.68" xlink:href="#linear-gradient"/><linearGradient id="linear-gradient-4" x1="85.45" y1="-869.26" x2="85.45" y2="-832.39" xlink:href="#linear-gradient"/></defs><title>img</title><path d="M11.05,75.65c6.51,8.28,4,20.38-.16,30.07C9.5,109,7.94,112.4,8.52,115.88c.71,4.25,4.51,7.36,8.49,9A25.29,25.29,0,0,0,39.65,123c5.77-3.59,9.91-9.43,15.78-12.85,9.82-5.73,22.32-3.57,33,.38,7.55,2.79,15.8,6.43,23.3,3.51C117,112,120.63,107,122.62,101.7c.95-2.56,1.65-5.33,3.48-7.36a13,13,0,0,1,4-2.78c13.3-6.6,30.09-3.07,43-10.38,8.72-4.93,14.31-14.25,16.78-24s2.19-19.9,1.55-29.9c-.44-7.11-1.24-14.7-5.78-20.18-4.81-5.81-13.06-8-20.51-6.86S150.9,5.31,145,9.94c-7.43,5.79-14.32,13-23.44,15.35-6.21,1.6-12.74.73-19.15.42-10.71-.5-21.42.62-32.07,1.85C60.11,28.74,49.84,30,40.13,33.35c-6.88,2.34-12.38,6.6-18.87,9.57C17,44.86,12.41,45.4,8.41,47.87,3.47,50.91-1,56.21.21,62.4,1.42,68.3,7.59,71.25,11.05,75.65Z" fill="#5f4b8c" opacity="0.1" style="isolation:isolate"/><path d="M34.68,111.86S34.07,94,24.41,83.9A27.06,27.06,0,0,1,17,68.47a45.47,45.47,0,0,1-.22-8.33" fill="none" stroke="#545562" stroke-miterlimit="10" stroke-width="2"/><path d="M10.7,53.75c.67,2,6.19,6.58,6.19,6.58s1.7-7,1-9a3.81,3.81,0,0,0-7.23,2.4Z" fill="#5f4b8c"/><path d="M8.41,66.77c1.64,1.32,8.77,2.16,8.77,2.16s-2.38-6.78-4-8.09a3.8,3.8,0,0,0-4.75,5.93Z" fill="#5f4b8c"/><path d="M14.92,85.57C17,85.87,23.58,83,23.58,83S18.11,78.35,16,78a3.81,3.81,0,1,0-1.11,7.53Z" fill="#5f4b8c"/><path d="M23.05,98.67c2,.66,9-1.06,9-1.06s-4.6-5.51-6.6-6.17a3.8,3.8,0,0,0-2.37,7.23Z" fill="#5f4b8c"/><path d="M24.88,66.8c-1,1.87-7.16,5.52-7.16,5.52s-.56-7.16.41-9a3.8,3.8,0,0,1,6.75,3.51Z" fill="#5f4b8c"/><path d="M34.2,82.25c-1.48,1.49-8.48,3.12-8.48,3.12s1.61-7,3.09-8.49a3.8,3.8,0,0,1,5.39,5.37Z" fill="#5f4b8c"/><path d="M41.2,98.51C40,100.23,33.37,103,33.37,103s.4-7.17,1.61-8.89a3.81,3.81,0,0,1,6.36,4.18l-.15.21Z" fill="#5f4b8c"/><path d="M119.6,99.73s-2.91-1-4.3,1.57a4.65,4.65,0,0,0,.06,4.49,6.59,6.59,0,0,0,6.4,3.62c3-.17,4-2.48,4.31-4.64a4.77,4.77,0,0,0-6.32-5.1Z" fill="#5f4b8c"/><path d="M116,106a4.68,4.68,0,0,1-.06-4.49c1.4-2.56,4.3-1.57,4.3-1.57l.15-.06a4.72,4.72,0,0,1,3.41.08,4.74,4.74,0,0,0-4-.38l-.15.05s-2.9-1-4.3,1.57a4.68,4.68,0,0,0,.06,4.49,7,7,0,0,0,3.29,3.11A7.21,7.21,0,0,1,116,106Z" fill="#fff" opacity="0.1" style="isolation:isolate"/><path d="M118.1,101s1.07.84,3.68,0" fill="#010101" opacity="0.2" style="isolation:isolate"/><path d="M117.87,94.81s1.84,5,1.69,6.3L121,101s-2.46-4.39-1.84-6.15Z" fill="#5f4b8c"/><path d="M117.87,94.81s1.84,5,1.69,6.3L121,101s-2.46-4.39-1.84-6.15Z" fill="#010101" opacity="0.2" style="isolation:isolate"/><path d="M125.39,95.23s-2.9-1.49-4.2-.26-1.5,4.36-1.5,4.36S124.43,100,125.39,95.23Z" fill="#5f4b8c"/><path d="M125.39,95.23s-2.9-1.49-4.2-.26-1.5,4.36-1.5,4.36S124.43,100,125.39,95.23Z" fill="#fff" opacity="0.1" style="isolation:isolate"/><path d="M119.69,99.33s.77-3.64,5.7-4.1" fill="none" stroke="#5f4b8c" stroke-miterlimit="10"/><path d="M36.29,77.56s.59-9.66-4.1-15.59A14.69,14.69,0,0,1,29,53.27a25,25,0,0,1,.31-4.5" fill="none" stroke="#545562" stroke-miterlimit="10" stroke-width="2"/><path d="M26.36,45c.25,1.11,3,3.87,3,3.87s1.28-3.68,1-4.79a2.06,2.06,0,1,0-4,.92Z" fill="#5f4b8c"/><path d="M24.45,51.91c.81.8,4.61,1.62,4.61,1.62s-.93-3.78-1.74-4.57a2.06,2.06,0,0,0-2.87,3Z" fill="#5f4b8c"/><path d="M27,62.38c1.09.27,4.8-.94,4.8-.94S29.09,58.65,28,58.38a2.06,2.06,0,1,0-1,4Z" fill="#5f4b8c"/><path d="M30.71,69.86c1,.45,4.89-.12,4.89-.12s-2.2-3.2-3.24-3.65a2.06,2.06,0,1,0-1.73,3.74l.08,0Z" fill="#5f4b8c"/><path d="M33.33,52.78c-.62.95-4.14,2.6-4.14,2.6s.06-3.89.68-4.84a2.06,2.06,0,0,1,3.46,2.24Z" fill="#5f4b8c"/><path d="M37.56,61.58c-.88.73-4.73,1.25-4.73,1.25s1.22-3.69,2.1-4.42a2.06,2.06,0,1,1,2.63,3.17Z" fill="#5f4b8c"/><path d="M40.49,70.71c-.74.86-4.45,2-4.45,2s.59-3.83,1.33-4.7a2.06,2.06,0,1,1,3.13,2.68Z" fill="#5f4b8c"/><path d="M26.36,45c.25,1.11,3,3.87,3,3.87s1.28-3.68,1-4.79a2.06,2.06,0,1,0-4,.92Z" fill="#fff" opacity="0.5" style="isolation:isolate"/><path d="M24.45,51.91c.81.8,4.61,1.62,4.61,1.62s-.93-3.78-1.74-4.57a2.06,2.06,0,0,0-2.87,3Z" fill="#fff" opacity="0.5" style="isolation:isolate"/><path d="M27,62.38c1.09.27,4.8-.94,4.8-.94S29.09,58.65,28,58.38a2.06,2.06,0,1,0-1,4Z" fill="#fff" opacity="0.5" style="isolation:isolate"/><path d="M30.71,69.86c1,.45,4.89-.12,4.89-.12s-2.2-3.2-3.24-3.65a2.06,2.06,0,1,0-1.73,3.74l.08,0Z" fill="#fff" opacity="0.5" style="isolation:isolate"/><path d="M33.33,52.78c-.62.95-4.14,2.6-4.14,2.6s.06-3.89.68-4.84a2.06,2.06,0,0,1,3.46,2.24Z" fill="#fff" opacity="0.5" style="isolation:isolate"/><path d="M37.56,61.58c-.88.73-4.73,1.25-4.73,1.25s1.22-3.69,2.1-4.42a2.06,2.06,0,1,1,2.63,3.17Z" fill="#fff" opacity="0.5" style="isolation:isolate"/><path d="M40.49,70.71c-.74.86-4.45,2-4.45,2s.59-3.83,1.33-4.7a2.06,2.06,0,1,1,3.13,2.68Z" fill="#fff" opacity="0.5" style="isolation:isolate"/><polygon points="92.18 3.72 92.18 6.89 92.18 66.57 184.43 66.57 184.43 6.89 184.43 3.72 92.18 3.72" fill="url(#linear-gradient)"/><rect x="93.55" y="6.57" width="89.91" height="58.86" fill="#fff"/><rect x="93.55" y="3.78" width="89.91" height="4.33" fill="#eeedee"/><circle cx="96.97" cy="5.87" r="1.05" fill="#f05555"/><circle cx="99.86" cy="5.87" r="1.05" fill="#f6eb16"/><circle cx="102.74" cy="5.87" r="1.05" fill="#85cba1"/><rect x="97.54" y="15.04" width="82.25" height="1.4" fill="#5f4b8c" opacity="0.5" style="isolation:isolate"/><rect x="97.54" y="17.83" width="82.25" height="1.4" fill="#5f4b8c" opacity="0.5" style="isolation:isolate"/><rect x="97.54" y="20.62" width="82.25" height="1.4" fill="#5f4b8c" opacity="0.5" style="isolation:isolate"/><rect x="97.54" y="47.93" width="82.25" height="1.4" fill="#5f4b8c" opacity="0.5" style="isolation:isolate"/><rect x="97.54" y="50.72" width="82.25" height="1.4" fill="#5f4b8c" opacity="0.5" style="isolation:isolate"/><rect x="97.54" y="53.51" width="82.25" height="1.4" fill="#5f4b8c" opacity="0.5" style="isolation:isolate"/><rect x="125.89" y="23.42" width="53.9" height="1.4" fill="#5f4b8c" opacity="0.5" style="isolation:isolate"/><rect x="97.54" y="26.21" width="43.31" height="1.4" fill="#5f4b8c" opacity="0.5" style="isolation:isolate"/><rect x="120.9" y="29" width="33.33" height="1.4" fill="#5f4b8c" opacity="0.5" style="isolation:isolate"/><path d="M71.69,126.92H57.16v-8.18H71.69Zm-13.92-.61H71.08v-7H57.77Z" fill="#5f4b8c" opacity="0.2" style="isolation:isolate"/><path d="M47.49,114.65a3.41,3.41,0,0,0,2.87.42,5,5,0,0,0,.75-.33c9.31.2,17.94.1,18.28-.9.55-1.66-2.92-9.85-4.68-13.81A4.39,4.39,0,0,0,66,98.7c2.44,2.78,7,6.37,9.65,6.55,0,0,3.93,9.33,8.35,7.86s4.91-9.34,2.7-10.32L72,93.46V78a5.84,5.84,0,0,0,.62-2.87c0-.18,0-.36,0-.55l-.49-4.42s0-.14-.1-.41c-1.09-4.26-3.54-7.12-7-7.55a2.48,2.48,0,0,0,.3-1,17.23,17.23,0,0,1-.08-2.48c.23-.93,1.1-1.54,1.81-2.19a17.06,17.06,0,0,0,3.42-5.13,17.15,17.15,0,0,0,2-5.52,5.7,5.7,0,0,0-2-5.28c-1.24-.9-3-1.13-3.88-2.38a9.91,9.91,0,0,1-.85-1.87,7.38,7.38,0,0,0-4.36-3.77c-6.53-2.35-14.54.35-18.7,5.77a32.57,32.57,0,0,0-3.31,5.8l-3.51,7.25c-.6,1.25-1.19,2.81-.38,3.93.39.55,1.07.89,1.34,1.51.37.82-.09,1.9.45,2.62a3.53,3.53,0,0,0,1.25.8,4.73,4.73,0,0,1,1.51,1.34l-7.7,6a5.15,5.15,0,0,0-2,3.58l-.76,7.59a9.14,9.14,0,0,0-.34,2.65,4.5,4.5,0,0,0,.46,2.38l.17,0c.18,5.32.5,13,.82,14.4.18.84,1.33,2.33,2.88,3.85l-.54,1.56h.18l-.18.48h.36a25.29,25.29,0,0,1-5.76,9.82S37.41,114.36,47.49,114.65ZM38.33,88.78v-6c.9.14,1.56.45,1.77,1Zm2.6-26,0,.05h0Z" fill="url(#linear-gradient-2)"/><path d="M63.09,76.36S63.56,92.91,64,95s7.23,8.41,10.72,8.64c0,0,3.73,8.86,7.93,7.46s4.67-8.86,2.56-9.79l-14-8.86V74.73Z" fill="#fab697"/><path d="M63.44,96.65s6.07,13.06,5.37,15.17-39.65,0-39.65,0,7.23-7.23,5.83-15.17Z" fill="#5f4b8c"/><path d="M58.78,57.94s-.93,9.1.7,11.2S53,72.4,52.26,72.4a76.27,76.27,0,0,1-9.57-3.27c-1.39-.7-2.55-5.83-2.55-5.83s7,1.4,9.09-6.76Z" fill="#fab697"/><path d="M61.22,34.61a7,7,0,0,1,4.15,3.58,10.18,10.18,0,0,0,.8,1.78c.85,1.18,2.51,1.41,3.69,2.26a5.41,5.41,0,0,1,1.87,5,16.11,16.11,0,0,1-1.9,5.24,16.27,16.27,0,0,1-3.25,4.88c-.67.62-1.5,1.2-1.72,2.09a16.91,16.91,0,0,0,.07,2.35c-.16,1.94-2.48,2.84-4.42,3.06a2.87,2.87,0,0,1-2.39-.51,4.16,4.16,0,0,1-.65-1.12,5.38,5.38,0,0,0-9.59-.1c-.45.87-.72,1.93-1.54,2.46-1.27.82-3-.14-3.89-1.32s-1.61-2.66-2.93-3.37a3.1,3.1,0,0,1-1.19-.75c-.51-.69-.08-1.71-.42-2.49-.26-.59-.9-.92-1.28-1.44-.77-1.07-.21-2.55.36-3.73l3.34-6.89a29.94,29.94,0,0,1,3.14-5.51C47.42,34.94,55,32.38,61.22,34.61Z" fill="#5f4b8c"/><path d="M52.72,70.77s-9.1,0-11.43-8.4L33.63,68.3a5,5,0,0,0-1.88,3.41L31,78.93s-.82,2.68.12,4.31c0,0,9.68-2.44,9.91.35l-6.76,18.89s10.5.24,13.29-1.63c0,0,11.43,2.33,14.23-.23s5.6-2.33,3.26-8.16a11.54,11.54,0,0,0,2.56-11.2c-2.1-6.53-.11.12-.11.12s4.54-2.22,4.31-6.41l-.47-4.21s0-.13-.09-.39c-1.42-5.53-5.24-8.58-10.61-6.63a5,5,0,0,1-3.17-.09S59.24,71.24,52.72,70.77Z" fill="#010101" opacity="0.1" style="isolation:isolate"/><path d="M52.72,70.3s-9.1,0-11.43-8.39l-7.66,5.93a5,5,0,0,0-1.88,3.4L31,78.46s-.82,2.69.12,4.32c0,0,9.68-2.45,9.91.35L34.29,102s10.49.23,13.29-1.64c0,0,11.43,2.34,14.23-.23S67.4,97.82,65.07,92a11.54,11.54,0,0,0,2.56-11.2c-2.11-6.53-.12.12-.12.12s4.55-2.21,4.32-6.41l-.47-4.2s0-.14-.09-.39c-1.42-5.54-5.24-8.59-10.61-6.64a4.9,4.9,0,0,1-3.17-.08S59.24,70.77,52.72,70.3Z" fill="#9a356e"/><path d="M31.14,78.23s.47,16.56.94,18.66,7.23,8.39,10.72,8.63c0,0,3.74,8.86,7.93,7.46s4.67-8.86,2.56-9.8l-14-8.86V76.6Z" fill="#fab697"/><path d="M41.17,78.81s-5.36,3.64-10,3.34c0,0-.46-6.25.94-6.6S39.54,75.55,41.17,78.81Z" fill="#010101" opacity="0.1" style="isolation:isolate"/><path d="M41.17,78.58s-5.36,3.64-10,3.33c0,0-.46-6.25.94-6.59S39.54,75.32,41.17,78.58Z" fill="#9a356e"/><path d="M48.75,57l9.56,1.4s-.21,2.1-.25,4.52A10.73,10.73,0,0,1,46.8,61.1,10.54,10.54,0,0,0,48.75,57Z" fill="#010101" opacity="0.1" style="isolation:isolate"/><circle cx="54.35" cy="52.58" r="10.73" fill="#fab697"/><path d="M51.53,50.52a3.43,3.43,0,0,0,1.43.2c1.9,0,3.79-.08,5.69-.21a7,7,0,0,0,4.07-1.18,4.66,4.66,0,0,0,1-5.34,9.56,9.56,0,0,0-4-4.09,11.75,11.75,0,0,0-3-1.36,10.07,10.07,0,0,0-8.91,2.23,15.82,15.82,0,0,0-4.83,8.09c-.28,1.06-.65,2.33-1.7,2.65a2.87,2.87,0,0,0,3.64.77c1.82-.86,2.74-4.16,4.37-4.68C51,47,50,49.81,51.53,50.52Z" fill="#010101" opacity="0.1" style="isolation:isolate"/><path d="M51.53,50.28a3.28,3.28,0,0,0,1.43.21c1.9,0,3.79-.09,5.69-.21a7,7,0,0,0,4.07-1.19,4.65,4.65,0,0,0,1-5.33,9.45,9.45,0,0,0-4-4.09,11.84,11.84,0,0,0-3-1.36,10.1,10.1,0,0,0-8.92,2.24,15.74,15.74,0,0,0-4.82,8.08c-.29,1.07-.65,2.33-1.71,2.66a2.89,2.89,0,0,0,3.65.76c1.81-.86,2.74-4.16,4.37-4.68C51,46.79,50,49.58,51.53,50.28Z" fill="#5f4b8c"/><path d="M65.19,91.87a41.74,41.74,0,0,0-10.73-1.4" fill="#010101" opacity="0.1" style="isolation:isolate"/><path d="M41.17,79.28s3.5,2.56,2.56,4" fill="#010101" opacity="0.1" style="isolation:isolate"/><g opacity="0.7"><polygon points="137.87 105.72 23.37 105.72 23.37 115.73 30.03 115.73 30.03 117.69 30.03 147.23 131.44 147.23 131.44 117.69 131.44 115.73 137.87 115.73 137.87 105.72" fill="url(#linear-gradient-3)"/></g><rect x="31.06" y="111.55" width="99.34" height="35.68" fill="#e0e1e0"/><rect x="31.06" y="113.42" width="99.34" height="5.6" fill="#010101" opacity="0.1" style="isolation:isolate"/><rect x="24.53" y="107.59" width="112.17" height="9.56" fill="#e0e1e0"/><rect x="45.73" y="105.23" width="21.46" height="3.03" rx="1.19" ry="1.19" fill="#545562"/><g opacity="0.7"><rect x="58.78" y="71.43" width="53.32" height="36.87" rx="5.16" ry="5.16" fill="url(#linear-gradient-4)"/></g><rect x="59.74" y="72.11" width="50.51" height="36.19" rx="4.9" ry="4.9" fill="#3f404a"/><rect x="60.44" y="72.11" width="50.51" height="36.19" rx="4.9" ry="4.9" fill="#545562"/><circle cx="88.05" cy="89.96" r="1.63" fill="#e0e1e0"/><circle cx="102.87" cy="39.1" r="4.02" fill="#5f4b8c" opacity="0.5" style="isolation:isolate"/><circle cx="115.66" cy="39.1" r="4.02" fill="#5f4b8c" opacity="0.5" style="isolation:isolate"/><circle cx="128.45" cy="39.1" r="4.02" fill="#5f4b8c" opacity="0.5" style="isolation:isolate"/></svg>