<?xml version="1.0" encoding="UTF-8"?>
<svg width="1440px" height="572px" viewBox="0 0 1440 572" version="1.1" xmlns="http://www.w3.org/2000/svg" xmlns:xlink="http://www.w3.org/1999/xlink">
    <!-- Generator: Sketch 52.5 (67469) - http://www.bohemiancoding.com/sketch -->
    <title>For Tab</title>
    <desc>Created with Sketch.</desc>
    <g id="For-Tab" stroke="none" stroke-width="1" fill="none" fill-rule="evenodd">
        <g id="Group-39">
            <rect id="Rectangle" fill="#FFFFFF" x="0" y="0" width="1440" height="572"></rect>
            <g id="Group-38" transform="translate(725.000000, 267.000000)">
                <g id="Group" transform="translate(159.000000, 140.000000)">
                    <path d="M36.3593074,22.8082192 C36.3593074,22.9771689 36.3593074,23.1461187 36.3593074,23.3150685 C36.3593074,23.3150685 36.3593074,23.4840183 36.3593074,23.4840183 C36.1991342,23.9908676 36.038961,24.3287671 35.8787879,24.6666667 C33.3160173,28.0456621 30.5930736,31.5936073 28.030303,34.9726027 C27.7099567,35.3105023 27.3896104,35.8173516 27.0692641,36.1552511 C26.7489177,36.6621005 26.2683983,36.8310502 25.6277056,37 C25.6277056,37 25.4675325,37 25.4675325,37 C20.6623377,37 15.6969697,37 10.8917749,37 C10.8917749,37 10.8917749,37 10.8917749,37 C10.4112554,37 10.0909091,36.6621005 9.61038961,36.4931507 C9.45021645,36.3242009 9.29004329,36.1552511 9.12987013,35.9863014 C7.04761905,33.283105 5.12554113,30.5799087 3.04329004,28.0456621 C2.24242424,27.0319635 1.44155844,25.8493151 0.640692641,24.8356164 C0.480519481,24.4977169 0.32034632,24.1598174 0.16017316,23.8219178 C0.16017316,23.652968 0.16017316,23.4840183 0,23.3150685 C0,23.1461187 0,22.9771689 0,22.8082192 C0,22.6392694 0,22.4703196 0.16017316,22.3013699 C0.640692641,20.4429224 0.961038961,18.5844749 1.44155844,16.7260274 C2.08225108,13.8538813 2.72294372,10.9817352 3.36363636,8.27853881 C3.52380952,7.43378995 4.004329,6.75799087 4.80519481,6.42009132 C4.80519481,6.42009132 4.80519481,6.42009132 4.80519481,6.42009132 C8.80952381,4.39269406 12.974026,2.3652968 16.978355,0.337899543 C17.2987013,0.168949772 17.7792208,0 18.2597403,0 C18.4199134,0 18.5800866,0 18.7402597,0 C19.0606061,0 19.3809524,0.168949772 19.8614719,0.337899543 C23.7056277,2.19634703 27.3896104,4.22374429 31.2337662,6.08219178 C31.5541126,6.25114155 31.8744589,6.42009132 32.3549784,6.5890411 C32.995671,6.92694064 33.4761905,7.60273973 33.7965368,8.44748858 C33.7965368,8.61643836 33.95671,8.78538813 33.95671,8.9543379 C34.4372294,11.1506849 34.9177489,13.1780822 35.3982684,15.3744292 C35.8787879,17.2328767 36.1991342,19.260274 36.6796537,21.1187215 C36.8398268,21.6255708 37,22.3013699 37,22.8082192 C36.3593074,22.4703196 36.1991342,22.6392694 36.3593074,22.8082192 Z M23.2251082,28.2146119 C23.2251082,28.2146119 23.2251082,28.2146119 23.2251082,28.2146119 C23.2251082,27.8767123 23.2251082,27.8767123 23.3852814,27.7077626 C24.1861472,27.2009132 24.987013,26.5251142 25.4675325,25.6803653 C26.2683983,24.6666667 26.9090909,23.4840183 27.3896104,22.3013699 C27.3896104,22.3013699 27.3896104,22.1324201 27.5497835,22.1324201 C27.7099567,22.1324201 27.8701299,22.1324201 28.030303,22.1324201 C28.3506494,22.1324201 28.5108225,22.1324201 28.8311688,22.1324201 C28.991342,22.1324201 28.991342,22.1324201 29.1515152,22.3013699 C29.4718615,22.4703196 29.7922078,22.4703196 29.952381,22.6392694 C30.1125541,22.6392694 30.2727273,22.8082192 30.4329004,22.8082192 C30.7532468,22.8082192 31.0735931,22.8082192 31.2337662,22.6392694 C31.3939394,22.4703196 31.5541126,22.1324201 31.3939394,21.9634703 C31.2337662,21.7945205 31.0735931,21.6255708 30.7532468,21.456621 C30.5930736,21.456621 30.4329004,21.2876712 30.2727273,21.2876712 C29.7922078,21.2876712 29.3116883,21.1187215 28.8311688,21.1187215 C28.5108225,21.1187215 28.3506494,20.9497717 28.1904762,20.7808219 C28.030303,20.6118721 28.030303,20.6118721 27.8701299,20.4429224 C27.8701299,20.4429224 27.7099567,20.2739726 27.7099567,20.2739726 C27.7099567,20.1050228 27.7099567,20.1050228 27.7099567,20.1050228 C27.7099567,20.1050228 27.7099567,19.9360731 27.7099567,19.9360731 C27.7099567,19.7671233 27.7099567,19.5981735 27.7099567,19.260274 C27.7099567,18.4155251 27.7099567,17.739726 27.5497835,17.0639269 C27.2294372,15.8812785 26.9090909,14.6986301 26.1082251,13.5159817 C26.1082251,13.5159817 26.1082251,13.347032 26.1082251,13.347032 C26.2683983,13.1780822 26.2683983,13.0091324 26.2683983,13.0091324 C26.2683983,12.8401826 26.4285714,12.8401826 26.4285714,12.6712329 C26.5887446,12.5022831 26.5887446,12.5022831 26.7489177,12.3333333 C27.2294372,12.1643836 27.5497835,11.826484 28.030303,11.4885845 C28.1904762,11.3196347 28.3506494,11.3196347 28.3506494,11.1506849 C28.5108225,10.9817352 28.5108225,10.8127854 28.5108225,10.4748858 C28.5108225,10.1369863 28.3506494,9.96803653 28.030303,9.79908676 C27.7099567,9.63013699 27.5497835,9.79908676 27.3896104,9.96803653 C27.2294372,9.96803653 27.2294372,10.1369863 27.0692641,10.3059361 C26.7489177,10.6438356 26.5887446,10.8127854 26.2683983,11.1506849 C26.1082251,11.3196347 25.9480519,11.4885845 25.7878788,11.6575342 C25.4675325,11.826484 25.3073593,11.9954338 24.987013,11.9954338 C24.8268398,11.9954338 24.8268398,11.9954338 24.6666667,11.826484 C24.5064935,11.6575342 24.5064935,11.6575342 24.3463203,11.4885845 C23.3852814,10.4748858 22.2640693,9.79908676 20.982684,9.46118721 C20.3419913,9.12328767 19.5411255,8.9543379 18.9004329,8.9543379 C18.7402597,8.9543379 18.7402597,8.9543379 18.5800866,8.78538813 C18.5800866,8.61643836 18.4199134,8.44748858 18.4199134,8.27853881 C18.2597403,7.94063927 18.2597403,7.43378995 18.4199134,6.92694064 C18.4199134,6.5890411 18.5800866,6.25114155 18.5800866,5.91324201 C18.5800866,5.74429224 18.5800866,5.57534247 18.5800866,5.40639269 C18.4199134,5.06849315 18.0995671,4.73059361 17.7792208,4.73059361 C17.4588745,4.73059361 17.1385281,5.06849315 16.978355,5.40639269 C16.978355,5.57534247 16.978355,5.74429224 16.978355,6.08219178 C16.978355,6.42009132 17.1385281,6.92694064 17.1385281,7.26484018 C17.1385281,7.43378995 17.1385281,7.60273973 17.1385281,7.7716895 C17.1385281,7.94063927 17.1385281,8.10958904 16.978355,8.27853881 C16.8181818,8.44748858 16.8181818,8.61643836 16.6580087,8.78538813 C16.6580087,8.78538813 16.6580087,8.78538813 16.4978355,8.78538813 C16.4978355,8.78538813 16.3376623,8.78538813 16.3376623,8.78538813 C15.8571429,8.78538813 15.5367965,8.9543379 15.0562771,8.9543379 C13.2943723,9.46118721 11.6926407,10.3059361 10.4112554,11.6575342 C10.4112554,11.6575342 10.2510823,11.826484 10.0909091,11.826484 C9.77056277,11.826484 9.45021645,11.6575342 9.29004329,11.4885845 C9.12987013,11.3196347 8.96969697,11.3196347 8.80952381,11.1506849 C8.48917749,10.8127854 8.16883117,10.4748858 7.84848485,10.1369863 C7.68831169,9.96803653 7.68831169,9.96803653 7.52813853,9.96803653 C7.04761905,9.79908676 6.72727273,10.1369863 6.56709957,10.4748858 C6.56709957,10.8127854 6.56709957,10.9817352 6.72727273,11.3196347 C6.88744589,11.4885845 6.88744589,11.4885845 7.04761905,11.4885845 C7.20779221,11.6575342 7.36796537,11.6575342 7.52813853,11.826484 C7.84848485,11.9954338 8.16883117,12.3333333 8.48917749,12.5022831 C8.80952381,12.6712329 8.80952381,13.0091324 8.96969697,13.347032 C8.96969697,13.5159817 8.96969697,13.6849315 8.96969697,13.6849315 C8.16883117,15.0365297 7.68831169,16.5570776 7.52813853,18.0776256 C7.52813853,18.7534247 7.52813853,19.5981735 7.52813853,20.2739726 C7.52813853,20.2739726 7.52813853,20.4429224 7.52813853,20.4429224 C7.52813853,20.4429224 7.52813853,20.6118721 7.36796537,20.6118721 C7.20779221,20.6118721 7.20779221,20.7808219 7.04761905,20.7808219 C6.88744589,20.7808219 6.88744589,20.9497717 6.72727273,20.9497717 C6.56709957,21.1187215 6.40692641,21.1187215 6.24675325,21.1187215 C6.08658009,21.1187215 5.92640693,21.1187215 5.92640693,21.1187215 C5.60606061,21.1187215 5.44588745,21.1187215 5.12554113,21.2876712 C4.80519481,21.2876712 4.64502165,21.2876712 4.48484848,21.456621 C4.32467532,21.456621 4.16450216,21.6255708 4.004329,21.7945205 C3.84415584,21.9634703 3.84415584,22.1324201 3.84415584,22.3013699 C3.84415584,22.6392694 4.16450216,22.8082192 4.48484848,22.9771689 C4.80519481,22.9771689 4.96536797,22.9771689 5.28571429,22.8082192 C5.60606061,22.6392694 5.76623377,22.6392694 6.08658009,22.4703196 C6.24675325,22.4703196 6.40692641,22.3013699 6.40692641,22.3013699 C6.56709957,22.3013699 6.72727273,22.1324201 7.04761905,22.1324201 C7.20779221,22.1324201 7.52813853,22.3013699 7.68831169,22.3013699 C7.68831169,22.3013699 7.84848485,22.3013699 7.84848485,22.4703196 C8.00865801,22.8082192 8.00865801,23.1461187 8.16883117,23.3150685 C8.96969697,25.3424658 10.2510823,26.8630137 12.012987,27.8767123 C12.012987,27.8767123 12.1731602,28.0456621 12.1731602,28.0456621 C12.1731602,28.2146119 12.1731602,28.3835616 12.1731602,28.7214612 C12.1731602,29.0593607 12.012987,29.2283105 11.8528139,29.56621 C11.5324675,29.9041096 11.3722944,30.4109589 11.0519481,30.7488584 C11.0519481,30.7488584 10.8917749,30.9178082 10.8917749,30.9178082 C10.8917749,31.086758 10.7316017,31.2557078 10.8917749,31.5936073 C11.0519481,31.9315068 11.3722944,32.2694064 11.8528139,32.1004566 C12.012987,31.9315068 12.1731602,31.7625571 12.3333333,31.5936073 C12.4935065,31.4246575 12.4935065,31.086758 12.6536797,30.9178082 C12.8138528,30.5799087 12.8138528,30.2420091 12.974026,30.0730594 C13.1341991,29.7351598 13.2943723,29.3972603 13.6147186,29.2283105 C13.7748918,29.0593607 13.9350649,29.0593607 14.0952381,29.2283105 C15.0562771,29.56621 16.017316,29.7351598 16.978355,29.7351598 C17.4588745,29.7351598 17.9393939,29.7351598 18.4199134,29.7351598 C19.2207792,29.56621 19.8614719,29.3972603 20.5021645,29.2283105 C20.5021645,29.2283105 20.6623377,29.2283105 20.6623377,29.2283105 C20.8225108,29.3972603 20.982684,29.56621 21.1428571,29.7351598 C21.3030303,29.9041096 21.4632035,30.0730594 21.4632035,30.4109589 C21.6233766,30.9178082 21.7835498,31.2557078 21.9437229,31.7625571 C21.9437229,31.9315068 22.1038961,32.1004566 22.2640693,32.2694064 C22.4242424,32.6073059 22.9047619,32.7762557 23.2251082,32.4383562 C23.3852814,32.2694064 23.5454545,32.1004566 23.5454545,31.7625571 C23.5454545,31.5936073 23.5454545,31.2557078 23.3852814,31.086758 C23.2251082,30.7488584 23.0649351,30.5799087 22.9047619,30.2420091 C22.7445887,30.0730594 22.5844156,29.7351598 22.5844156,29.56621 C23.3852814,28.890411 23.2251082,28.5525114 23.2251082,28.2146119 Z" id="Shape" fill="#4422EE" fill-rule="nonzero"></path>
                    <path d="M22.8118799,28.914204 C22.8118799,29.2534126 22.8118799,29.5926211 22.9740512,29.9318297 C23.1362226,30.101434 23.298394,30.4406425 23.298394,30.6102468 C23.4605654,30.7798511 23.6227368,31.1190597 23.7849081,31.4582682 C23.9470795,31.6278725 23.9470795,31.7974768 23.9470795,32.1366854 C23.9470795,32.4758939 23.7849081,32.6454982 23.6227368,32.8151025 C23.298394,33.1543111 22.8118799,32.9847068 22.6497085,32.6454982 C22.4875371,32.4758939 22.4875371,32.3062897 22.3253657,32.1366854 C22.1631944,31.6278725 22.001023,31.288664 21.8388516,30.7798511 C21.8388516,30.6102468 21.6766802,30.2710383 21.5145088,30.101434 C21.3523375,29.9318297 21.1901661,29.7622254 21.0279947,29.5926211 C21.0279947,29.5926211 20.8658233,29.5926211 20.8658233,29.5926211 C20.2171378,29.9318297 19.4062809,30.101434 18.7575954,30.101434 C18.2710813,30.101434 17.7845671,30.2710383 17.298053,30.101434 C16.3250247,30.101434 15.3519965,29.9318297 14.3789682,29.5926211 C14.2167968,29.5926211 14.0546254,29.5926211 13.8924541,29.5926211 C13.5681113,29.7622254 13.4059399,30.101434 13.2437686,30.4406425 C13.0815972,30.7798511 13.0815972,31.1190597 12.9194258,31.288664 C12.9194258,31.4582682 12.7572544,31.7974768 12.595083,31.9670811 C12.4329117,32.1366854 12.2707403,32.4758939 12.1085689,32.4758939 C11.6220548,32.6454982 11.1355406,32.3062897 11.1355406,31.9670811 C11.1355406,31.7974768 11.1355406,31.6278725 11.1355406,31.288664 C11.1355406,31.1190597 11.1355406,31.1190597 11.297712,31.1190597 C11.6220548,30.7798511 11.7842262,30.2710383 12.1085689,29.9318297 C12.2707403,29.7622254 12.2707403,29.4230168 12.4329117,29.0838083 C12.4329117,28.914204 12.4329117,28.7445997 12.4329117,28.4053911 C12.4329117,28.2357869 12.4329117,28.2357869 12.2707403,28.2357869 C10.4868551,27.0485569 9.1894841,25.5221183 8.37862721,23.6564712 C8.21645583,23.3172626 8.05428445,23.1476583 8.05428445,22.8084498 C8.05428445,22.8084498 8.05428445,22.6388455 7.89211308,22.6388455 C7.7299417,22.6388455 7.40559894,22.6388455 7.24342756,22.4692412 C7.08125618,22.4692412 6.91908481,22.4692412 6.59474205,22.6388455 C6.43257067,22.6388455 6.27039929,22.8084498 6.27039929,22.8084498 C5.94605654,22.9780541 5.62171378,22.9780541 5.4595424,23.1476583 C5.13519965,23.3172626 4.97302827,23.3172626 4.64868551,23.3172626 C4.32434276,23.3172626 4,22.9780541 4,22.6388455 C4,22.4692412 4,22.2996369 4.16217138,22.1300326 C4.32434276,21.9604284 4.48651413,21.7908241 4.64868551,21.7908241 C4.81085689,21.7908241 5.13519965,21.6212198 5.29737103,21.6212198 C5.62171378,21.6212198 5.78388516,21.6212198 6.10822792,21.4516155 C6.27039929,21.4516155 6.43257067,21.4516155 6.43257067,21.4516155 C6.59474205,21.4516155 6.75691343,21.4516155 6.91908481,21.2820112 C7.08125618,21.2820112 7.08125618,21.1124069 7.24342756,21.1124069 C7.40559894,21.1124069 7.40559894,20.9428027 7.56777032,20.9428027 C7.56777032,20.9428027 7.7299417,20.9428027 7.7299417,20.7731984 C7.7299417,20.7731984 7.7299417,20.6035941 7.7299417,20.6035941 C7.7299417,19.925177 7.7299417,19.0771555 7.7299417,18.3987384 C7.89211308,16.8722999 8.37862721,15.3458613 9.1894841,13.989027 C9.1894841,13.8194227 9.35165548,13.6498185 9.1894841,13.6498185 C9.1894841,13.3106099 9.02731272,12.9714013 8.70296997,12.801797 C8.37862721,12.6321928 8.05428445,12.2929842 7.7299417,12.1233799 C7.56777032,11.9537756 7.40559894,11.9537756 7.24342756,11.7841713 C7.08125618,11.7841713 7.08125618,11.6145671 6.91908481,11.6145671 C6.75691343,11.4449628 6.59474205,11.1057542 6.75691343,10.7665456 C6.91908481,10.2577328 7.24342756,10.0881285 7.7299417,10.2577328 C7.89211308,10.2577328 8.05428445,10.4273371 8.05428445,10.4273371 C8.37862721,10.7665456 8.70296997,11.1057542 9.02731272,11.4449628 C9.1894841,11.6145671 9.35165548,11.7841713 9.51382686,11.7841713 C9.83816961,11.9537756 10.000341,12.1233799 10.3246837,12.1233799 C10.4868551,12.1233799 10.4868551,12.1233799 10.6490265,11.9537756 C11.9463975,10.5969414 13.5681113,9.57931566 15.3519965,9.24010709 C15.8385106,9.07050281 16.1628534,9.07050281 16.6493675,9.07050281 C16.6493675,9.07050281 16.8115389,9.07050281 16.8115389,9.07050281 C16.8115389,9.07050281 16.8115389,9.07050281 16.9737103,9.07050281 C16.9737103,8.90089852 17.1358816,8.73129424 17.298053,8.56168996 C17.4602244,8.39208567 17.4602244,8.22248139 17.4602244,8.0528771 C17.4602244,7.88327282 17.4602244,7.71366854 17.4602244,7.54406425 C17.4602244,7.20485569 17.298053,6.69604284 17.298053,6.35683427 C17.298053,6.18722999 17.298053,6.0176257 17.298053,5.67841713 C17.4602244,5.33920857 17.6223958,5 18.1089099,5 C18.4332527,5 18.7575954,5.33920857 18.9197668,5.67841713 C18.9197668,5.84802142 18.9197668,6.0176257 18.9197668,6.18722999 C18.9197668,6.52643855 18.7575954,6.86564712 18.7575954,7.20485569 C18.7575954,7.71366854 18.7575954,8.0528771 18.7575954,8.56168996 C18.7575954,8.73129424 18.9197668,8.90089852 18.9197668,9.07050281 C18.9197668,9.24010709 19.0819382,9.24010709 19.2441095,9.24010709 C20.0549664,9.24010709 20.7036519,9.40971137 21.3523375,9.74891994 C22.6497085,10.2577328 23.7849081,10.9361499 24.7579364,11.7841713 C24.9201078,11.9537756 25.0822792,11.9537756 25.0822792,12.1233799 C25.2444505,12.2929842 25.2444505,12.2929842 25.4066219,12.2929842 C25.7309647,12.2929842 26.0553074,12.1233799 26.2174788,11.9537756 C26.3796502,11.7841713 26.5418216,11.6145671 26.7039929,11.4449628 C26.8661643,11.1057542 27.1905071,10.9361499 27.5148498,10.5969414 C27.6770212,10.4273371 27.6770212,10.4273371 27.8391926,10.2577328 C28.001364,10.0881285 28.3257067,10.0881285 28.4878781,10.0881285 C28.8122209,10.2577328 28.9743922,10.4273371 28.9743922,10.7665456 C28.9743922,10.9361499 28.9743922,11.2753585 28.8122209,11.4449628 C28.6500495,11.6145671 28.6500495,11.7841713 28.4878781,11.7841713 C28.001364,12.1233799 27.6770212,12.2929842 27.1905071,12.6321928 C27.0283357,12.6321928 27.0283357,12.801797 26.8661643,12.9714013 C26.8661643,13.1410056 26.7039929,13.1410056 26.7039929,13.3106099 C26.7039929,13.4802142 26.5418216,13.6498185 26.5418216,13.6498185 C26.5418216,13.6498185 26.5418216,13.8194227 26.5418216,13.8194227 C27.1905071,14.8370484 27.6770212,16.0242784 28.001364,17.3811127 C28.1635353,18.0595298 28.1635353,18.9075513 28.1635353,19.5859684 C28.1635353,19.7555727 28.1635353,19.925177 28.1635353,20.2643855 C28.1635353,20.2643855 28.1635353,20.4339898 28.1635353,20.4339898 C28.1635353,20.4339898 28.1635353,20.6035941 28.1635353,20.6035941 C28.1635353,20.6035941 28.1635353,20.7731984 28.3257067,20.7731984 C28.4878781,20.7731984 28.4878781,20.9428027 28.6500495,21.1124069 C28.8122209,21.2820112 28.9743922,21.4516155 29.298735,21.4516155 C29.7852491,21.4516155 30.2717633,21.6212198 30.7582774,21.6212198 C30.9204488,21.6212198 31.0826202,21.6212198 31.2447915,21.7908241 C31.5691343,21.9604284 31.7313057,21.9604284 31.893477,22.2996369 C32.0556484,22.6388455 32.0556484,22.8084498 31.7313057,22.9780541 C31.5691343,23.1476583 31.2447915,23.3172626 30.9204488,23.1476583 C30.7582774,23.1476583 30.596106,22.9780541 30.4339346,22.9780541 C30.1095919,22.8084498 29.7852491,22.8084498 29.6230777,22.6388455 C29.4609064,22.6388455 29.4609064,22.6388455 29.298735,22.4692412 C28.9743922,22.2996369 28.8122209,22.2996369 28.4878781,22.4692412 C28.3257067,22.4692412 28.1635353,22.4692412 28.001364,22.4692412 C27.8391926,22.4692412 27.8391926,22.4692412 27.8391926,22.6388455 C27.3526785,23.9956798 26.8661643,25.0133055 25.893136,26.0309312 C25.2444505,26.8789526 24.595765,27.3877654 23.7849081,28.0661826 C22.9740512,28.5749954 22.8118799,28.5749954 22.8118799,28.914204 C22.8118799,28.914204 22.8118799,28.914204 22.8118799,28.914204 Z M21.0279947,21.7908241 C20.7036519,21.7908241 20.3793092,21.9604284 20.3793092,22.2996369 C20.3793092,22.4692412 20.3793092,22.6388455 20.3793092,22.8084498 C20.8658233,23.9956798 21.3523375,25.1829097 21.8388516,26.3701397 C22.001023,26.539744 22.001023,26.539744 22.1631944,26.539744 C22.8118799,26.0309312 23.4605654,25.5221183 23.9470795,24.8437012 C24.4335936,24.3348883 24.7579364,23.6564712 25.0822792,22.9780541 C25.0822792,22.9780541 25.0822792,22.8084498 25.0822792,22.6388455 C25.0822792,22.4692412 25.0822792,22.4692412 24.9201078,22.4692412 C24.9201078,22.4692412 24.9201078,22.4692412 24.7579364,22.4692412 C24.595765,22.4692412 24.2714223,22.4692412 24.1092509,22.2996369 C23.1362226,22.1300326 22.3253657,21.9604284 21.3523375,21.7908241 C21.3523375,21.7908241 21.1901661,21.7908241 21.0279947,21.7908241 Z M15.6763392,16.363487 C15.8385106,16.363487 15.8385106,16.363487 15.6763392,16.363487 C16.1628534,16.1938827 16.3250247,16.0242784 16.3250247,15.6850699 C16.3250247,15.3458613 16.3250247,15.0066527 16.3250247,14.6674442 C16.3250247,13.6498185 16.4871961,12.6321928 16.4871961,11.6145671 C16.4871961,11.4449628 16.4871961,11.4449628 16.3250247,11.4449628 C16.3250247,11.4449628 16.3250247,11.4449628 16.3250247,11.4449628 C16.000682,11.4449628 15.6763392,11.6145671 15.5141678,11.6145671 C14.3789682,11.9537756 13.2437686,12.6321928 12.2707403,13.4802142 C12.2707403,13.4802142 12.1085689,13.6498185 12.1085689,13.6498185 C12.1085689,13.8194227 12.1085689,13.8194227 12.1085689,13.8194227 C12.1085689,13.8194227 12.2707403,13.989027 12.2707403,13.989027 C13.2437686,14.6674442 14.2167968,15.3458613 15.1898251,16.1938827 C15.3519965,16.1938827 15.3519965,16.363487 15.5141678,16.363487 C15.5141678,16.363487 15.6763392,16.363487 15.6763392,16.363487 Z M9.67599824,19.7555727 C9.67599824,19.925177 9.67599824,20.0947812 9.67599824,20.2643855 C9.67599824,20.2643855 9.67599824,20.4339898 9.67599824,20.4339898 C9.67599824,20.4339898 9.67599824,20.6035941 9.83816961,20.6035941 C9.83816961,20.6035941 10.000341,20.6035941 10.000341,20.6035941 C11.1355406,20.2643855 12.2707403,19.925177 13.4059399,19.5859684 C13.5681113,19.5859684 13.5681113,19.5859684 13.7302827,19.4163641 C14.0546254,19.2467598 14.0546254,18.9075513 14.0546254,18.737947 C14.0546254,18.5683427 13.8924541,18.3987384 13.7302827,18.2291341 C12.7572544,17.3811127 11.9463975,16.5330913 11.1355406,15.6850699 C11.1355406,15.6850699 10.9733693,15.6850699 10.9733693,15.5154656 C10.8111979,15.5154656 10.8111979,15.5154656 10.8111979,15.5154656 C10.8111979,15.5154656 10.6490265,15.6850699 10.6490265,15.6850699 C10.000341,16.8722999 9.67599824,18.2291341 9.67599824,19.7555727 Z M14.8654823,22.6388455 C14.8654823,22.2996369 14.703311,22.1300326 14.5411396,21.9604284 C14.3789682,21.9604284 14.2167968,21.7908241 14.0546254,21.9604284 C13.5681113,22.1300326 13.0815972,22.1300326 12.4329117,22.2996369 C11.7842262,22.4692412 10.9733693,22.4692412 10.3246837,22.6388455 C10.1625124,22.6388455 10.1625124,22.8084498 10.1625124,22.9780541 C10.1625124,22.9780541 10.1625124,22.9780541 10.1625124,22.9780541 C10.8111979,24.5044926 11.7842262,25.8613269 13.0815972,26.7093483 C13.0815972,26.7093483 13.0815972,26.7093483 13.2437686,26.7093483 C13.2437686,26.7093483 13.4059399,26.7093483 13.4059399,26.7093483 C13.4059399,26.7093483 13.4059399,26.539744 13.4059399,26.539744 C13.7302827,25.8613269 13.8924541,25.1829097 14.2167968,24.5044926 C14.3789682,23.9956798 14.703311,23.4868669 14.8654823,22.9780541 C14.8654823,22.8084498 14.8654823,22.6388455 14.8654823,22.6388455 Z M25.5687933,19.7555727 C25.5687933,19.4163641 25.5687933,18.9075513 25.5687933,18.5683427 C25.4066219,17.550717 25.0822792,16.5330913 24.595765,15.5154656 C24.595765,15.3458613 24.595765,15.3458613 24.4335936,15.5154656 C23.7849081,16.1938827 23.1362226,16.7026956 22.4875371,17.3811127 C22.1631944,17.7203213 21.8388516,18.0595298 21.5145088,18.3987384 C21.1901661,18.737947 21.1901661,19.2467598 21.6766802,19.4163641 C21.8388516,19.4163641 21.8388516,19.5859684 22.001023,19.5859684 C22.6497085,19.7555727 23.298394,19.925177 23.9470795,20.0947812 C24.595765,20.2643855 25.0822792,20.4339898 25.7309647,20.6035941 C25.893136,20.6035941 25.893136,20.6035941 25.893136,20.4339898 C25.893136,20.4339898 25.893136,20.4339898 25.893136,20.2643855 C25.5687933,20.0947812 25.5687933,19.925177 25.5687933,19.7555727 Z M19.4062809,16.363487 C19.5684523,16.363487 19.7306237,16.363487 19.8927951,16.1938827 C20.8658233,15.5154656 21.8388516,14.6674442 22.8118799,13.989027 C22.8118799,13.989027 22.8118799,13.989027 22.9740512,13.8194227 C22.9740512,13.8194227 23.1362226,13.6498185 22.9740512,13.6498185 C22.9740512,13.6498185 22.8118799,13.4802142 22.8118799,13.4802142 C21.6766802,12.4625885 20.5414806,11.7841713 19.0819382,11.4449628 C18.9197668,11.4449628 18.7575954,11.4449628 18.7575954,11.4449628 C18.595424,11.4449628 18.595424,11.4449628 18.595424,11.6145671 C18.595424,11.6145671 18.595424,11.7841713 18.595424,11.7841713 C18.595424,12.2929842 18.595424,12.801797 18.595424,13.1410056 C18.595424,13.6498185 18.595424,14.3282356 18.7575954,14.8370484 C18.7575954,15.0066527 18.7575954,15.3458613 18.7575954,15.5154656 C18.9197668,16.0242784 19.0819382,16.363487 19.4062809,16.363487 Z M15.0276537,27.5573697 C15.0276537,27.5573697 15.0276537,27.5573697 15.0276537,27.5573697 C15.1898251,27.5573697 15.1898251,27.726974 15.0276537,27.5573697 C15.8385106,27.726974 16.3250247,27.8965783 16.9737103,27.8965783 C17.9467385,27.8965783 18.9197668,27.8965783 19.7306237,27.5573697 C19.8927951,27.5573697 19.8927951,27.3877654 19.8927951,27.2181611 C19.8927951,27.2181611 19.8927951,27.2181611 19.8927951,27.2181611 C19.5684523,26.539744 19.0819382,25.8613269 18.7575954,25.1829097 C18.595424,24.6740969 18.2710813,24.3348883 18.1089099,23.9956798 C17.9467385,23.8260755 17.9467385,23.6564712 17.7845671,23.6564712 C17.4602244,23.4868669 17.1358816,23.6564712 16.9737103,23.9956798 C16.9737103,23.9956798 16.9737103,23.9956798 16.9737103,24.165284 C16.3250247,25.1829097 15.6763392,26.3701397 15.0276537,27.5573697 C15.0276537,27.5573697 15.0276537,27.5573697 15.0276537,27.5573697 Z M18.9197668,19.5859684 C18.9197668,19.2467598 18.9197668,19.0771555 18.595424,18.737947 C18.595424,18.737947 18.4332527,18.5683427 18.4332527,18.5683427 C18.4332527,18.5683427 18.2710813,18.3987384 18.2710813,18.3987384 C18.1089099,18.2291341 18.1089099,18.2291341 17.9467385,18.2291341 C17.6223958,18.2291341 17.4602244,18.2291341 17.1358816,18.2291341 C16.9737103,18.2291341 16.8115389,18.2291341 16.8115389,18.3987384 C16.8115389,18.5683427 16.6493675,18.5683427 16.4871961,18.737947 C16.3250247,18.9075513 16.3250247,18.9075513 16.3250247,19.0771555 C16.3250247,19.2467598 16.1628534,19.2467598 16.1628534,19.4163641 C16.1628534,19.5859684 16.1628534,19.7555727 16.1628534,19.925177 C16.1628534,20.2643855 16.3250247,20.6035941 16.6493675,20.7731984 C16.8115389,20.9428027 16.9737103,20.9428027 17.298053,21.1124069 C17.4602244,21.1124069 17.7845671,21.1124069 17.9467385,21.1124069 C18.1089099,21.1124069 18.2710813,20.9428027 18.4332527,20.7731984 C18.595424,20.6035941 18.595424,20.4339898 18.7575954,20.2643855 C18.9197668,20.0947812 18.9197668,19.925177 18.9197668,19.5859684 Z" id="Shape" fill="#FDFEFE" fill-rule="nonzero"></path>
                    <path d="M20.5849057,21 C20.754717,21 20.9245283,21 21.0943396,21 C22.1132075,21.1744783 22.9622642,21.3489567 23.9811321,21.523435 C24.1509434,21.523435 24.3207547,21.6979133 24.6603774,21.6979133 C24.6603774,21.6979133 24.6603774,21.6979133 24.8301887,21.6979133 C25,21.6979133 25,21.8723916 25,21.8723916 C25,22.04687 25,22.04687 25,22.2213483 C24.6603774,22.9192616 24.3207547,23.6171749 23.8113208,24.1406099 C23.3018868,24.8385232 22.6226415,25.3619582 21.9433962,25.8853932 C21.7735849,26.0598715 21.7735849,26.0598715 21.6037736,25.7109148 C21.0943396,24.4895665 20.5849057,23.2682183 20.0754717,22.04687 C20.0754717,21.8723916 19.9056604,21.6979133 20.0754717,21.523435 C19.9056604,21.1744783 20.245283,21 20.5849057,21 Z" id="Path" fill="#4422EE"></path>
                    <path d="M16.4074074,16 C16.2592593,16 16.2592593,16 16.1111111,16 C15.962963,16 15.962963,15.8275862 15.8148148,15.8275862 C14.9259259,15.137931 14.037037,14.4482759 13.1481481,13.5862069 C13.1481481,13.5862069 13,13.5862069 13,13.4137931 C13,13.4137931 13,13.2413793 13,13.2413793 C13,13.2413793 13.1481481,13.0689655 13.1481481,13.0689655 C14.037037,12.2068966 14.9259259,11.5172414 16.1111111,11.1724138 C16.4074074,11.1724138 16.5555556,11 16.8518519,11 C16.8518519,11 16.8518519,11 16.8518519,11 C17,11 17,11 17,11.1724138 C16.8518519,12.2068966 16.8518519,13.2413793 16.8518519,14.2758621 C16.8518519,14.6206897 16.8518519,14.9655172 16.8518519,15.3103448 C17,15.6551724 16.8518519,15.8275862 16.4074074,16 C16.5555556,16 16.5555556,16 16.4074074,16 Z" id="Path" fill="#4422EE"></path>
                    <path d="M10,19.0145985 C10,17.7007299 10.2962963,16.3868613 10.8888889,15.2372263 C10.8888889,15.2372263 10.8888889,15.0729927 11.037037,15.0729927 C11.037037,15.0729927 11.1851852,14.9087591 11.1851852,15.0729927 C11.1851852,15.0729927 11.3333333,15.0729927 11.3333333,15.2372263 C12.0740741,16.0583942 12.962963,16.879562 13.7037037,17.7007299 C13.8518519,17.8649635 14,18.0291971 14,18.1934307 C14,18.5218978 14,18.850365 13.7037037,18.850365 C13.5555556,18.850365 13.5555556,19.0145985 13.4074074,19.0145985 C12.3703704,19.3430657 11.3333333,19.6715328 10.2962963,20 C10.2962963,20 10.1481481,20 10.1481481,20 C10,20 10,20 10,19.8357664 C10,19.8357664 10,19.6715328 10,19.6715328 C10,19.3430657 10,19.1788321 10,19.0145985 Z" id="Path" fill="#4422EE"></path>
                    <path d="M15,22.703125 C15,22.8789062 15,22.8789062 15,23.0546875 C14.8275862,23.5820312 14.6551724,24.109375 14.3103448,24.6367187 C13.9655172,25.3398438 13.7931034,26.0429688 13.4482759,26.7460937 C13.4482759,26.7460937 13.4482759,26.921875 13.4482759,26.921875 C13.4482759,26.921875 13.2758621,27.0976562 13.2758621,26.921875 C13.2758621,26.921875 13.2758621,26.921875 13.1034483,26.921875 C11.7241379,25.8671875 10.6896552,24.6367187 10,23.0546875 C10,23.0546875 10,23.0546875 10,23.0546875 C10,22.8789062 10,22.8789062 10.1724138,22.703125 C10.862069,22.5273437 11.7241379,22.5273437 12.4137931,22.3515625 C12.9310345,22.1757812 13.4482759,22.1757812 14.137931,22 C14.3103448,22 14.4827586,22 14.6551724,22 C14.8275862,22.1757812 15,22.3515625 15,22.703125 Z" id="Path" fill="#4422EE"></path>
                    <path d="M25,19.1869919 C25,19.3495935 25,19.5121951 25,19.6747967 C25,19.6747967 25,19.6747967 25,19.8373984 C25,20 25,20 24.8576014,20 C24.2880072,19.8373984 23.8608114,19.6747967 23.2912172,19.5121951 C22.7216229,19.3495935 22.1520286,19.1869919 21.5824343,19.0243902 C21.4400358,19.0243902 21.4400358,19.0243902 21.2976372,18.8617886 C21.0128401,18.5365854 20.8704415,18.2113821 21.1552386,17.8861789 C21.4400358,17.5609756 21.7248329,17.2357724 22.0096301,16.9105691 C22.5792243,16.2601626 23.1488186,15.7723577 23.7184129,15.1219512 C23.8608114,14.9593496 23.8608114,14.9593496 23.8608114,15.1219512 C24.2880072,16.097561 24.5728043,17.0731707 24.7152029,18.0487805 C25,18.3739837 25,18.8617886 25,19.1869919 Z" id="Path" fill="#4422EE"></path>
                    <path d="M19.7407407,16 C19.4444444,16 19.1481481,15.6428571 19.1481481,15.2857143 C19.1481481,15.1071429 19.1481481,14.75 19.1481481,14.5714286 C19.1481481,14.0357143 19.1481481,13.3214286 19,12.7857143 C19,12.25 19,11.7142857 19,11.3571429 C19,11.3571429 19,11.1785714 19,11.1785714 C19,11 19,11 19.1481481,11 C19.2962963,11 19.4444444,11 19.4444444,11 C20.7777778,11.3571429 21.8148148,12.0714286 22.8518519,13.1428571 C22.8518519,13.1428571 23,13.3214286 23,13.3214286 C23,13.5 23,13.5 23,13.5 C23,13.5 23,13.5 22.8518519,13.6785714 C21.962963,14.3928571 21.0740741,15.1071429 20.1851852,16 C20.037037,15.8214286 19.8888889,16 19.7407407,16 Z" id="Path" fill="#4422EE"></path>
                    <path d="M15,27.6795467 C15,27.6795467 15,27.6795467 15,27.6795467 C15.6575873,26.4530312 16.3151746,25.37983 16.9727618,24.4599433 C16.9727618,24.4599433 16.9727618,24.4599433 16.9727618,24.3066289 C17.1371587,24 17.4659523,24 17.7947459,24 C17.9591428,24 18.1235396,24.1533144 18.1235396,24.3066289 C18.2879364,24.6132578 18.61673,25.0732011 18.7811269,25.37983 C19.1099205,25.9930878 19.603111,26.6063456 19.9319046,27.2196034 C19.9319046,27.2196034 19.9319046,27.2196034 19.9319046,27.2196034 C20.0963014,27.3729179 19.9319046,27.3729179 19.7675078,27.5262323 C18.7811269,27.8328612 17.7947459,27.8328612 16.9727618,27.8328612 C16.4795714,28.1394901 15.8219841,27.9861756 15,27.6795467 C15.1643968,27.8328612 15.1643968,27.6795467 15,27.6795467 C15,27.6795467 15,27.6795467 15,27.6795467 Z" id="Path" fill="#4422EE"></path>
                    <path d="M20,19.5211268 C20,19.6901408 20,19.8591549 20,20.028169 C20,20.1971831 19.8125,20.3661972 19.625,20.5352113 C19.4375,20.7042254 19.25,20.8732394 19.0625,20.8732394 C18.875,21.0422535 18.5,21.0422535 18.3125,20.8732394 C18.125,20.8732394 17.75,20.7042254 17.5625,20.5352113 C17.1875,20.3661972 17,20.028169 17,19.6901408 C17,19.5211268 17,19.3521127 17,19.1830986 C17,19.0140845 17,19.0140845 17.1875,18.8450704 C17.1875,18.6760563 17.375,18.6760563 17.375,18.5070423 C17.5625,18.3380282 17.5625,18.3380282 17.75,18.1690141 C17.75,18 17.9375,18 18.125,18 C18.5,18 18.6875,18 19.0625,18 C19.25,18 19.4375,18 19.4375,18.1690141 C19.4375,18.1690141 19.625,18.3380282 19.625,18.3380282 C19.625,18.3380282 19.8125,18.5070423 19.8125,18.5070423 C20,19.0140845 20,19.3521127 20,19.5211268 Z" id="Path" fill="#4422EE"></path>
                </g>
                <g id="Group-Copy" transform="translate(395.000000, 140.000000)">
                    <path d="M36.3593074,22.8082192 C36.3593074,22.9771689 36.3593074,23.1461187 36.3593074,23.3150685 C36.3593074,23.3150685 36.3593074,23.4840183 36.3593074,23.4840183 C36.1991342,23.9908676 36.038961,24.3287671 35.8787879,24.6666667 C33.3160173,28.0456621 30.5930736,31.5936073 28.030303,34.9726027 C27.7099567,35.3105023 27.3896104,35.8173516 27.0692641,36.1552511 C26.7489177,36.6621005 26.2683983,36.8310502 25.6277056,37 C25.6277056,37 25.4675325,37 25.4675325,37 C20.6623377,37 15.6969697,37 10.8917749,37 C10.8917749,37 10.8917749,37 10.8917749,37 C10.4112554,37 10.0909091,36.6621005 9.61038961,36.4931507 C9.45021645,36.3242009 9.29004329,36.1552511 9.12987013,35.9863014 C7.04761905,33.283105 5.12554113,30.5799087 3.04329004,28.0456621 C2.24242424,27.0319635 1.44155844,25.8493151 0.640692641,24.8356164 C0.480519481,24.4977169 0.32034632,24.1598174 0.16017316,23.8219178 C0.16017316,23.652968 0.16017316,23.4840183 0,23.3150685 C0,23.1461187 0,22.9771689 0,22.8082192 C0,22.6392694 0,22.4703196 0.16017316,22.3013699 C0.640692641,20.4429224 0.961038961,18.5844749 1.44155844,16.7260274 C2.08225108,13.8538813 2.72294372,10.9817352 3.36363636,8.27853881 C3.52380952,7.43378995 4.004329,6.75799087 4.80519481,6.42009132 C4.80519481,6.42009132 4.80519481,6.42009132 4.80519481,6.42009132 C8.80952381,4.39269406 12.974026,2.3652968 16.978355,0.337899543 C17.2987013,0.168949772 17.7792208,0 18.2597403,0 C18.4199134,0 18.5800866,0 18.7402597,0 C19.0606061,0 19.3809524,0.168949772 19.8614719,0.337899543 C23.7056277,2.19634703 27.3896104,4.22374429 31.2337662,6.08219178 C31.5541126,6.25114155 31.8744589,6.42009132 32.3549784,6.5890411 C32.995671,6.92694064 33.4761905,7.60273973 33.7965368,8.44748858 C33.7965368,8.61643836 33.95671,8.78538813 33.95671,8.9543379 C34.4372294,11.1506849 34.9177489,13.1780822 35.3982684,15.3744292 C35.8787879,17.2328767 36.1991342,19.260274 36.6796537,21.1187215 C36.8398268,21.6255708 37,22.3013699 37,22.8082192 C36.3593074,22.4703196 36.1991342,22.6392694 36.3593074,22.8082192 Z M23.2251082,28.2146119 C23.2251082,28.2146119 23.2251082,28.2146119 23.2251082,28.2146119 C23.2251082,27.8767123 23.2251082,27.8767123 23.3852814,27.7077626 C24.1861472,27.2009132 24.987013,26.5251142 25.4675325,25.6803653 C26.2683983,24.6666667 26.9090909,23.4840183 27.3896104,22.3013699 C27.3896104,22.3013699 27.3896104,22.1324201 27.5497835,22.1324201 C27.7099567,22.1324201 27.8701299,22.1324201 28.030303,22.1324201 C28.3506494,22.1324201 28.5108225,22.1324201 28.8311688,22.1324201 C28.991342,22.1324201 28.991342,22.1324201 29.1515152,22.3013699 C29.4718615,22.4703196 29.7922078,22.4703196 29.952381,22.6392694 C30.1125541,22.6392694 30.2727273,22.8082192 30.4329004,22.8082192 C30.7532468,22.8082192 31.0735931,22.8082192 31.2337662,22.6392694 C31.3939394,22.4703196 31.5541126,22.1324201 31.3939394,21.9634703 C31.2337662,21.7945205 31.0735931,21.6255708 30.7532468,21.456621 C30.5930736,21.456621 30.4329004,21.2876712 30.2727273,21.2876712 C29.7922078,21.2876712 29.3116883,21.1187215 28.8311688,21.1187215 C28.5108225,21.1187215 28.3506494,20.9497717 28.1904762,20.7808219 C28.030303,20.6118721 28.030303,20.6118721 27.8701299,20.4429224 C27.8701299,20.4429224 27.7099567,20.2739726 27.7099567,20.2739726 C27.7099567,20.1050228 27.7099567,20.1050228 27.7099567,20.1050228 C27.7099567,20.1050228 27.7099567,19.9360731 27.7099567,19.9360731 C27.7099567,19.7671233 27.7099567,19.5981735 27.7099567,19.260274 C27.7099567,18.4155251 27.7099567,17.739726 27.5497835,17.0639269 C27.2294372,15.8812785 26.9090909,14.6986301 26.1082251,13.5159817 C26.1082251,13.5159817 26.1082251,13.347032 26.1082251,13.347032 C26.2683983,13.1780822 26.2683983,13.0091324 26.2683983,13.0091324 C26.2683983,12.8401826 26.4285714,12.8401826 26.4285714,12.6712329 C26.5887446,12.5022831 26.5887446,12.5022831 26.7489177,12.3333333 C27.2294372,12.1643836 27.5497835,11.826484 28.030303,11.4885845 C28.1904762,11.3196347 28.3506494,11.3196347 28.3506494,11.1506849 C28.5108225,10.9817352 28.5108225,10.8127854 28.5108225,10.4748858 C28.5108225,10.1369863 28.3506494,9.96803653 28.030303,9.79908676 C27.7099567,9.63013699 27.5497835,9.79908676 27.3896104,9.96803653 C27.2294372,9.96803653 27.2294372,10.1369863 27.0692641,10.3059361 C26.7489177,10.6438356 26.5887446,10.8127854 26.2683983,11.1506849 C26.1082251,11.3196347 25.9480519,11.4885845 25.7878788,11.6575342 C25.4675325,11.826484 25.3073593,11.9954338 24.987013,11.9954338 C24.8268398,11.9954338 24.8268398,11.9954338 24.6666667,11.826484 C24.5064935,11.6575342 24.5064935,11.6575342 24.3463203,11.4885845 C23.3852814,10.4748858 22.2640693,9.79908676 20.982684,9.46118721 C20.3419913,9.12328767 19.5411255,8.9543379 18.9004329,8.9543379 C18.7402597,8.9543379 18.7402597,8.9543379 18.5800866,8.78538813 C18.5800866,8.61643836 18.4199134,8.44748858 18.4199134,8.27853881 C18.2597403,7.94063927 18.2597403,7.43378995 18.4199134,6.92694064 C18.4199134,6.5890411 18.5800866,6.25114155 18.5800866,5.91324201 C18.5800866,5.74429224 18.5800866,5.57534247 18.5800866,5.40639269 C18.4199134,5.06849315 18.0995671,4.73059361 17.7792208,4.73059361 C17.4588745,4.73059361 17.1385281,5.06849315 16.978355,5.40639269 C16.978355,5.57534247 16.978355,5.74429224 16.978355,6.08219178 C16.978355,6.42009132 17.1385281,6.92694064 17.1385281,7.26484018 C17.1385281,7.43378995 17.1385281,7.60273973 17.1385281,7.7716895 C17.1385281,7.94063927 17.1385281,8.10958904 16.978355,8.27853881 C16.8181818,8.44748858 16.8181818,8.61643836 16.6580087,8.78538813 C16.6580087,8.78538813 16.6580087,8.78538813 16.4978355,8.78538813 C16.4978355,8.78538813 16.3376623,8.78538813 16.3376623,8.78538813 C15.8571429,8.78538813 15.5367965,8.9543379 15.0562771,8.9543379 C13.2943723,9.46118721 11.6926407,10.3059361 10.4112554,11.6575342 C10.4112554,11.6575342 10.2510823,11.826484 10.0909091,11.826484 C9.77056277,11.826484 9.45021645,11.6575342 9.29004329,11.4885845 C9.12987013,11.3196347 8.96969697,11.3196347 8.80952381,11.1506849 C8.48917749,10.8127854 8.16883117,10.4748858 7.84848485,10.1369863 C7.68831169,9.96803653 7.68831169,9.96803653 7.52813853,9.96803653 C7.04761905,9.79908676 6.72727273,10.1369863 6.56709957,10.4748858 C6.56709957,10.8127854 6.56709957,10.9817352 6.72727273,11.3196347 C6.88744589,11.4885845 6.88744589,11.4885845 7.04761905,11.4885845 C7.20779221,11.6575342 7.36796537,11.6575342 7.52813853,11.826484 C7.84848485,11.9954338 8.16883117,12.3333333 8.48917749,12.5022831 C8.80952381,12.6712329 8.80952381,13.0091324 8.96969697,13.347032 C8.96969697,13.5159817 8.96969697,13.6849315 8.96969697,13.6849315 C8.16883117,15.0365297 7.68831169,16.5570776 7.52813853,18.0776256 C7.52813853,18.7534247 7.52813853,19.5981735 7.52813853,20.2739726 C7.52813853,20.2739726 7.52813853,20.4429224 7.52813853,20.4429224 C7.52813853,20.4429224 7.52813853,20.6118721 7.36796537,20.6118721 C7.20779221,20.6118721 7.20779221,20.7808219 7.04761905,20.7808219 C6.88744589,20.7808219 6.88744589,20.9497717 6.72727273,20.9497717 C6.56709957,21.1187215 6.40692641,21.1187215 6.24675325,21.1187215 C6.08658009,21.1187215 5.92640693,21.1187215 5.92640693,21.1187215 C5.60606061,21.1187215 5.44588745,21.1187215 5.12554113,21.2876712 C4.80519481,21.2876712 4.64502165,21.2876712 4.48484848,21.456621 C4.32467532,21.456621 4.16450216,21.6255708 4.004329,21.7945205 C3.84415584,21.9634703 3.84415584,22.1324201 3.84415584,22.3013699 C3.84415584,22.6392694 4.16450216,22.8082192 4.48484848,22.9771689 C4.80519481,22.9771689 4.96536797,22.9771689 5.28571429,22.8082192 C5.60606061,22.6392694 5.76623377,22.6392694 6.08658009,22.4703196 C6.24675325,22.4703196 6.40692641,22.3013699 6.40692641,22.3013699 C6.56709957,22.3013699 6.72727273,22.1324201 7.04761905,22.1324201 C7.20779221,22.1324201 7.52813853,22.3013699 7.68831169,22.3013699 C7.68831169,22.3013699 7.84848485,22.3013699 7.84848485,22.4703196 C8.00865801,22.8082192 8.00865801,23.1461187 8.16883117,23.3150685 C8.96969697,25.3424658 10.2510823,26.8630137 12.012987,27.8767123 C12.012987,27.8767123 12.1731602,28.0456621 12.1731602,28.0456621 C12.1731602,28.2146119 12.1731602,28.3835616 12.1731602,28.7214612 C12.1731602,29.0593607 12.012987,29.2283105 11.8528139,29.56621 C11.5324675,29.9041096 11.3722944,30.4109589 11.0519481,30.7488584 C11.0519481,30.7488584 10.8917749,30.9178082 10.8917749,30.9178082 C10.8917749,31.086758 10.7316017,31.2557078 10.8917749,31.5936073 C11.0519481,31.9315068 11.3722944,32.2694064 11.8528139,32.1004566 C12.012987,31.9315068 12.1731602,31.7625571 12.3333333,31.5936073 C12.4935065,31.4246575 12.4935065,31.086758 12.6536797,30.9178082 C12.8138528,30.5799087 12.8138528,30.2420091 12.974026,30.0730594 C13.1341991,29.7351598 13.2943723,29.3972603 13.6147186,29.2283105 C13.7748918,29.0593607 13.9350649,29.0593607 14.0952381,29.2283105 C15.0562771,29.56621 16.017316,29.7351598 16.978355,29.7351598 C17.4588745,29.7351598 17.9393939,29.7351598 18.4199134,29.7351598 C19.2207792,29.56621 19.8614719,29.3972603 20.5021645,29.2283105 C20.5021645,29.2283105 20.6623377,29.2283105 20.6623377,29.2283105 C20.8225108,29.3972603 20.982684,29.56621 21.1428571,29.7351598 C21.3030303,29.9041096 21.4632035,30.0730594 21.4632035,30.4109589 C21.6233766,30.9178082 21.7835498,31.2557078 21.9437229,31.7625571 C21.9437229,31.9315068 22.1038961,32.1004566 22.2640693,32.2694064 C22.4242424,32.6073059 22.9047619,32.7762557 23.2251082,32.4383562 C23.3852814,32.2694064 23.5454545,32.1004566 23.5454545,31.7625571 C23.5454545,31.5936073 23.5454545,31.2557078 23.3852814,31.086758 C23.2251082,30.7488584 23.0649351,30.5799087 22.9047619,30.2420091 C22.7445887,30.0730594 22.5844156,29.7351598 22.5844156,29.56621 C23.3852814,28.890411 23.2251082,28.5525114 23.2251082,28.2146119 Z" id="Shape" fill="#4422EE" fill-rule="nonzero"></path>
                    <path d="M22.8118799,28.914204 C22.8118799,29.2534126 22.8118799,29.5926211 22.9740512,29.9318297 C23.1362226,30.101434 23.298394,30.4406425 23.298394,30.6102468 C23.4605654,30.7798511 23.6227368,31.1190597 23.7849081,31.4582682 C23.9470795,31.6278725 23.9470795,31.7974768 23.9470795,32.1366854 C23.9470795,32.4758939 23.7849081,32.6454982 23.6227368,32.8151025 C23.298394,33.1543111 22.8118799,32.9847068 22.6497085,32.6454982 C22.4875371,32.4758939 22.4875371,32.3062897 22.3253657,32.1366854 C22.1631944,31.6278725 22.001023,31.288664 21.8388516,30.7798511 C21.8388516,30.6102468 21.6766802,30.2710383 21.5145088,30.101434 C21.3523375,29.9318297 21.1901661,29.7622254 21.0279947,29.5926211 C21.0279947,29.5926211 20.8658233,29.5926211 20.8658233,29.5926211 C20.2171378,29.9318297 19.4062809,30.101434 18.7575954,30.101434 C18.2710813,30.101434 17.7845671,30.2710383 17.298053,30.101434 C16.3250247,30.101434 15.3519965,29.9318297 14.3789682,29.5926211 C14.2167968,29.5926211 14.0546254,29.5926211 13.8924541,29.5926211 C13.5681113,29.7622254 13.4059399,30.101434 13.2437686,30.4406425 C13.0815972,30.7798511 13.0815972,31.1190597 12.9194258,31.288664 C12.9194258,31.4582682 12.7572544,31.7974768 12.595083,31.9670811 C12.4329117,32.1366854 12.2707403,32.4758939 12.1085689,32.4758939 C11.6220548,32.6454982 11.1355406,32.3062897 11.1355406,31.9670811 C11.1355406,31.7974768 11.1355406,31.6278725 11.1355406,31.288664 C11.1355406,31.1190597 11.1355406,31.1190597 11.297712,31.1190597 C11.6220548,30.7798511 11.7842262,30.2710383 12.1085689,29.9318297 C12.2707403,29.7622254 12.2707403,29.4230168 12.4329117,29.0838083 C12.4329117,28.914204 12.4329117,28.7445997 12.4329117,28.4053911 C12.4329117,28.2357869 12.4329117,28.2357869 12.2707403,28.2357869 C10.4868551,27.0485569 9.1894841,25.5221183 8.37862721,23.6564712 C8.21645583,23.3172626 8.05428445,23.1476583 8.05428445,22.8084498 C8.05428445,22.8084498 8.05428445,22.6388455 7.89211308,22.6388455 C7.7299417,22.6388455 7.40559894,22.6388455 7.24342756,22.4692412 C7.08125618,22.4692412 6.91908481,22.4692412 6.59474205,22.6388455 C6.43257067,22.6388455 6.27039929,22.8084498 6.27039929,22.8084498 C5.94605654,22.9780541 5.62171378,22.9780541 5.4595424,23.1476583 C5.13519965,23.3172626 4.97302827,23.3172626 4.64868551,23.3172626 C4.32434276,23.3172626 4,22.9780541 4,22.6388455 C4,22.4692412 4,22.2996369 4.16217138,22.1300326 C4.32434276,21.9604284 4.48651413,21.7908241 4.64868551,21.7908241 C4.81085689,21.7908241 5.13519965,21.6212198 5.29737103,21.6212198 C5.62171378,21.6212198 5.78388516,21.6212198 6.10822792,21.4516155 C6.27039929,21.4516155 6.43257067,21.4516155 6.43257067,21.4516155 C6.59474205,21.4516155 6.75691343,21.4516155 6.91908481,21.2820112 C7.08125618,21.2820112 7.08125618,21.1124069 7.24342756,21.1124069 C7.40559894,21.1124069 7.40559894,20.9428027 7.56777032,20.9428027 C7.56777032,20.9428027 7.7299417,20.9428027 7.7299417,20.7731984 C7.7299417,20.7731984 7.7299417,20.6035941 7.7299417,20.6035941 C7.7299417,19.925177 7.7299417,19.0771555 7.7299417,18.3987384 C7.89211308,16.8722999 8.37862721,15.3458613 9.1894841,13.989027 C9.1894841,13.8194227 9.35165548,13.6498185 9.1894841,13.6498185 C9.1894841,13.3106099 9.02731272,12.9714013 8.70296997,12.801797 C8.37862721,12.6321928 8.05428445,12.2929842 7.7299417,12.1233799 C7.56777032,11.9537756 7.40559894,11.9537756 7.24342756,11.7841713 C7.08125618,11.7841713 7.08125618,11.6145671 6.91908481,11.6145671 C6.75691343,11.4449628 6.59474205,11.1057542 6.75691343,10.7665456 C6.91908481,10.2577328 7.24342756,10.0881285 7.7299417,10.2577328 C7.89211308,10.2577328 8.05428445,10.4273371 8.05428445,10.4273371 C8.37862721,10.7665456 8.70296997,11.1057542 9.02731272,11.4449628 C9.1894841,11.6145671 9.35165548,11.7841713 9.51382686,11.7841713 C9.83816961,11.9537756 10.000341,12.1233799 10.3246837,12.1233799 C10.4868551,12.1233799 10.4868551,12.1233799 10.6490265,11.9537756 C11.9463975,10.5969414 13.5681113,9.57931566 15.3519965,9.24010709 C15.8385106,9.07050281 16.1628534,9.07050281 16.6493675,9.07050281 C16.6493675,9.07050281 16.8115389,9.07050281 16.8115389,9.07050281 C16.8115389,9.07050281 16.8115389,9.07050281 16.9737103,9.07050281 C16.9737103,8.90089852 17.1358816,8.73129424 17.298053,8.56168996 C17.4602244,8.39208567 17.4602244,8.22248139 17.4602244,8.0528771 C17.4602244,7.88327282 17.4602244,7.71366854 17.4602244,7.54406425 C17.4602244,7.20485569 17.298053,6.69604284 17.298053,6.35683427 C17.298053,6.18722999 17.298053,6.0176257 17.298053,5.67841713 C17.4602244,5.33920857 17.6223958,5 18.1089099,5 C18.4332527,5 18.7575954,5.33920857 18.9197668,5.67841713 C18.9197668,5.84802142 18.9197668,6.0176257 18.9197668,6.18722999 C18.9197668,6.52643855 18.7575954,6.86564712 18.7575954,7.20485569 C18.7575954,7.71366854 18.7575954,8.0528771 18.7575954,8.56168996 C18.7575954,8.73129424 18.9197668,8.90089852 18.9197668,9.07050281 C18.9197668,9.24010709 19.0819382,9.24010709 19.2441095,9.24010709 C20.0549664,9.24010709 20.7036519,9.40971137 21.3523375,9.74891994 C22.6497085,10.2577328 23.7849081,10.9361499 24.7579364,11.7841713 C24.9201078,11.9537756 25.0822792,11.9537756 25.0822792,12.1233799 C25.2444505,12.2929842 25.2444505,12.2929842 25.4066219,12.2929842 C25.7309647,12.2929842 26.0553074,12.1233799 26.2174788,11.9537756 C26.3796502,11.7841713 26.5418216,11.6145671 26.7039929,11.4449628 C26.8661643,11.1057542 27.1905071,10.9361499 27.5148498,10.5969414 C27.6770212,10.4273371 27.6770212,10.4273371 27.8391926,10.2577328 C28.001364,10.0881285 28.3257067,10.0881285 28.4878781,10.0881285 C28.8122209,10.2577328 28.9743922,10.4273371 28.9743922,10.7665456 C28.9743922,10.9361499 28.9743922,11.2753585 28.8122209,11.4449628 C28.6500495,11.6145671 28.6500495,11.7841713 28.4878781,11.7841713 C28.001364,12.1233799 27.6770212,12.2929842 27.1905071,12.6321928 C27.0283357,12.6321928 27.0283357,12.801797 26.8661643,12.9714013 C26.8661643,13.1410056 26.7039929,13.1410056 26.7039929,13.3106099 C26.7039929,13.4802142 26.5418216,13.6498185 26.5418216,13.6498185 C26.5418216,13.6498185 26.5418216,13.8194227 26.5418216,13.8194227 C27.1905071,14.8370484 27.6770212,16.0242784 28.001364,17.3811127 C28.1635353,18.0595298 28.1635353,18.9075513 28.1635353,19.5859684 C28.1635353,19.7555727 28.1635353,19.925177 28.1635353,20.2643855 C28.1635353,20.2643855 28.1635353,20.4339898 28.1635353,20.4339898 C28.1635353,20.4339898 28.1635353,20.6035941 28.1635353,20.6035941 C28.1635353,20.6035941 28.1635353,20.7731984 28.3257067,20.7731984 C28.4878781,20.7731984 28.4878781,20.9428027 28.6500495,21.1124069 C28.8122209,21.2820112 28.9743922,21.4516155 29.298735,21.4516155 C29.7852491,21.4516155 30.2717633,21.6212198 30.7582774,21.6212198 C30.9204488,21.6212198 31.0826202,21.6212198 31.2447915,21.7908241 C31.5691343,21.9604284 31.7313057,21.9604284 31.893477,22.2996369 C32.0556484,22.6388455 32.0556484,22.8084498 31.7313057,22.9780541 C31.5691343,23.1476583 31.2447915,23.3172626 30.9204488,23.1476583 C30.7582774,23.1476583 30.596106,22.9780541 30.4339346,22.9780541 C30.1095919,22.8084498 29.7852491,22.8084498 29.6230777,22.6388455 C29.4609064,22.6388455 29.4609064,22.6388455 29.298735,22.4692412 C28.9743922,22.2996369 28.8122209,22.2996369 28.4878781,22.4692412 C28.3257067,22.4692412 28.1635353,22.4692412 28.001364,22.4692412 C27.8391926,22.4692412 27.8391926,22.4692412 27.8391926,22.6388455 C27.3526785,23.9956798 26.8661643,25.0133055 25.893136,26.0309312 C25.2444505,26.8789526 24.595765,27.3877654 23.7849081,28.0661826 C22.9740512,28.5749954 22.8118799,28.5749954 22.8118799,28.914204 C22.8118799,28.914204 22.8118799,28.914204 22.8118799,28.914204 Z M21.0279947,21.7908241 C20.7036519,21.7908241 20.3793092,21.9604284 20.3793092,22.2996369 C20.3793092,22.4692412 20.3793092,22.6388455 20.3793092,22.8084498 C20.8658233,23.9956798 21.3523375,25.1829097 21.8388516,26.3701397 C22.001023,26.539744 22.001023,26.539744 22.1631944,26.539744 C22.8118799,26.0309312 23.4605654,25.5221183 23.9470795,24.8437012 C24.4335936,24.3348883 24.7579364,23.6564712 25.0822792,22.9780541 C25.0822792,22.9780541 25.0822792,22.8084498 25.0822792,22.6388455 C25.0822792,22.4692412 25.0822792,22.4692412 24.9201078,22.4692412 C24.9201078,22.4692412 24.9201078,22.4692412 24.7579364,22.4692412 C24.595765,22.4692412 24.2714223,22.4692412 24.1092509,22.2996369 C23.1362226,22.1300326 22.3253657,21.9604284 21.3523375,21.7908241 C21.3523375,21.7908241 21.1901661,21.7908241 21.0279947,21.7908241 Z M15.6763392,16.363487 C15.8385106,16.363487 15.8385106,16.363487 15.6763392,16.363487 C16.1628534,16.1938827 16.3250247,16.0242784 16.3250247,15.6850699 C16.3250247,15.3458613 16.3250247,15.0066527 16.3250247,14.6674442 C16.3250247,13.6498185 16.4871961,12.6321928 16.4871961,11.6145671 C16.4871961,11.4449628 16.4871961,11.4449628 16.3250247,11.4449628 C16.3250247,11.4449628 16.3250247,11.4449628 16.3250247,11.4449628 C16.000682,11.4449628 15.6763392,11.6145671 15.5141678,11.6145671 C14.3789682,11.9537756 13.2437686,12.6321928 12.2707403,13.4802142 C12.2707403,13.4802142 12.1085689,13.6498185 12.1085689,13.6498185 C12.1085689,13.8194227 12.1085689,13.8194227 12.1085689,13.8194227 C12.1085689,13.8194227 12.2707403,13.989027 12.2707403,13.989027 C13.2437686,14.6674442 14.2167968,15.3458613 15.1898251,16.1938827 C15.3519965,16.1938827 15.3519965,16.363487 15.5141678,16.363487 C15.5141678,16.363487 15.6763392,16.363487 15.6763392,16.363487 Z M9.67599824,19.7555727 C9.67599824,19.925177 9.67599824,20.0947812 9.67599824,20.2643855 C9.67599824,20.2643855 9.67599824,20.4339898 9.67599824,20.4339898 C9.67599824,20.4339898 9.67599824,20.6035941 9.83816961,20.6035941 C9.83816961,20.6035941 10.000341,20.6035941 10.000341,20.6035941 C11.1355406,20.2643855 12.2707403,19.925177 13.4059399,19.5859684 C13.5681113,19.5859684 13.5681113,19.5859684 13.7302827,19.4163641 C14.0546254,19.2467598 14.0546254,18.9075513 14.0546254,18.737947 C14.0546254,18.5683427 13.8924541,18.3987384 13.7302827,18.2291341 C12.7572544,17.3811127 11.9463975,16.5330913 11.1355406,15.6850699 C11.1355406,15.6850699 10.9733693,15.6850699 10.9733693,15.5154656 C10.8111979,15.5154656 10.8111979,15.5154656 10.8111979,15.5154656 C10.8111979,15.5154656 10.6490265,15.6850699 10.6490265,15.6850699 C10.000341,16.8722999 9.67599824,18.2291341 9.67599824,19.7555727 Z M14.8654823,22.6388455 C14.8654823,22.2996369 14.703311,22.1300326 14.5411396,21.9604284 C14.3789682,21.9604284 14.2167968,21.7908241 14.0546254,21.9604284 C13.5681113,22.1300326 13.0815972,22.1300326 12.4329117,22.2996369 C11.7842262,22.4692412 10.9733693,22.4692412 10.3246837,22.6388455 C10.1625124,22.6388455 10.1625124,22.8084498 10.1625124,22.9780541 C10.1625124,22.9780541 10.1625124,22.9780541 10.1625124,22.9780541 C10.8111979,24.5044926 11.7842262,25.8613269 13.0815972,26.7093483 C13.0815972,26.7093483 13.0815972,26.7093483 13.2437686,26.7093483 C13.2437686,26.7093483 13.4059399,26.7093483 13.4059399,26.7093483 C13.4059399,26.7093483 13.4059399,26.539744 13.4059399,26.539744 C13.7302827,25.8613269 13.8924541,25.1829097 14.2167968,24.5044926 C14.3789682,23.9956798 14.703311,23.4868669 14.8654823,22.9780541 C14.8654823,22.8084498 14.8654823,22.6388455 14.8654823,22.6388455 Z M25.5687933,19.7555727 C25.5687933,19.4163641 25.5687933,18.9075513 25.5687933,18.5683427 C25.4066219,17.550717 25.0822792,16.5330913 24.595765,15.5154656 C24.595765,15.3458613 24.595765,15.3458613 24.4335936,15.5154656 C23.7849081,16.1938827 23.1362226,16.7026956 22.4875371,17.3811127 C22.1631944,17.7203213 21.8388516,18.0595298 21.5145088,18.3987384 C21.1901661,18.737947 21.1901661,19.2467598 21.6766802,19.4163641 C21.8388516,19.4163641 21.8388516,19.5859684 22.001023,19.5859684 C22.6497085,19.7555727 23.298394,19.925177 23.9470795,20.0947812 C24.595765,20.2643855 25.0822792,20.4339898 25.7309647,20.6035941 C25.893136,20.6035941 25.893136,20.6035941 25.893136,20.4339898 C25.893136,20.4339898 25.893136,20.4339898 25.893136,20.2643855 C25.5687933,20.0947812 25.5687933,19.925177 25.5687933,19.7555727 Z M19.4062809,16.363487 C19.5684523,16.363487 19.7306237,16.363487 19.8927951,16.1938827 C20.8658233,15.5154656 21.8388516,14.6674442 22.8118799,13.989027 C22.8118799,13.989027 22.8118799,13.989027 22.9740512,13.8194227 C22.9740512,13.8194227 23.1362226,13.6498185 22.9740512,13.6498185 C22.9740512,13.6498185 22.8118799,13.4802142 22.8118799,13.4802142 C21.6766802,12.4625885 20.5414806,11.7841713 19.0819382,11.4449628 C18.9197668,11.4449628 18.7575954,11.4449628 18.7575954,11.4449628 C18.595424,11.4449628 18.595424,11.4449628 18.595424,11.6145671 C18.595424,11.6145671 18.595424,11.7841713 18.595424,11.7841713 C18.595424,12.2929842 18.595424,12.801797 18.595424,13.1410056 C18.595424,13.6498185 18.595424,14.3282356 18.7575954,14.8370484 C18.7575954,15.0066527 18.7575954,15.3458613 18.7575954,15.5154656 C18.9197668,16.0242784 19.0819382,16.363487 19.4062809,16.363487 Z M15.0276537,27.5573697 C15.0276537,27.5573697 15.0276537,27.5573697 15.0276537,27.5573697 C15.1898251,27.5573697 15.1898251,27.726974 15.0276537,27.5573697 C15.8385106,27.726974 16.3250247,27.8965783 16.9737103,27.8965783 C17.9467385,27.8965783 18.9197668,27.8965783 19.7306237,27.5573697 C19.8927951,27.5573697 19.8927951,27.3877654 19.8927951,27.2181611 C19.8927951,27.2181611 19.8927951,27.2181611 19.8927951,27.2181611 C19.5684523,26.539744 19.0819382,25.8613269 18.7575954,25.1829097 C18.595424,24.6740969 18.2710813,24.3348883 18.1089099,23.9956798 C17.9467385,23.8260755 17.9467385,23.6564712 17.7845671,23.6564712 C17.4602244,23.4868669 17.1358816,23.6564712 16.9737103,23.9956798 C16.9737103,23.9956798 16.9737103,23.9956798 16.9737103,24.165284 C16.3250247,25.1829097 15.6763392,26.3701397 15.0276537,27.5573697 C15.0276537,27.5573697 15.0276537,27.5573697 15.0276537,27.5573697 Z M18.9197668,19.5859684 C18.9197668,19.2467598 18.9197668,19.0771555 18.595424,18.737947 C18.595424,18.737947 18.4332527,18.5683427 18.4332527,18.5683427 C18.4332527,18.5683427 18.2710813,18.3987384 18.2710813,18.3987384 C18.1089099,18.2291341 18.1089099,18.2291341 17.9467385,18.2291341 C17.6223958,18.2291341 17.4602244,18.2291341 17.1358816,18.2291341 C16.9737103,18.2291341 16.8115389,18.2291341 16.8115389,18.3987384 C16.8115389,18.5683427 16.6493675,18.5683427 16.4871961,18.737947 C16.3250247,18.9075513 16.3250247,18.9075513 16.3250247,19.0771555 C16.3250247,19.2467598 16.1628534,19.2467598 16.1628534,19.4163641 C16.1628534,19.5859684 16.1628534,19.7555727 16.1628534,19.925177 C16.1628534,20.2643855 16.3250247,20.6035941 16.6493675,20.7731984 C16.8115389,20.9428027 16.9737103,20.9428027 17.298053,21.1124069 C17.4602244,21.1124069 17.7845671,21.1124069 17.9467385,21.1124069 C18.1089099,21.1124069 18.2710813,20.9428027 18.4332527,20.7731984 C18.595424,20.6035941 18.595424,20.4339898 18.7575954,20.2643855 C18.9197668,20.0947812 18.9197668,19.925177 18.9197668,19.5859684 Z" id="Shape" fill="#FDFEFE" fill-rule="nonzero"></path>
                    <path d="M20.5849057,21 C20.754717,21 20.9245283,21 21.0943396,21 C22.1132075,21.1744783 22.9622642,21.3489567 23.9811321,21.523435 C24.1509434,21.523435 24.3207547,21.6979133 24.6603774,21.6979133 C24.6603774,21.6979133 24.6603774,21.6979133 24.8301887,21.6979133 C25,21.6979133 25,21.8723916 25,21.8723916 C25,22.04687 25,22.04687 25,22.2213483 C24.6603774,22.9192616 24.3207547,23.6171749 23.8113208,24.1406099 C23.3018868,24.8385232 22.6226415,25.3619582 21.9433962,25.8853932 C21.7735849,26.0598715 21.7735849,26.0598715 21.6037736,25.7109148 C21.0943396,24.4895665 20.5849057,23.2682183 20.0754717,22.04687 C20.0754717,21.8723916 19.9056604,21.6979133 20.0754717,21.523435 C19.9056604,21.1744783 20.245283,21 20.5849057,21 Z" id="Path" fill="#4422EE"></path>
                    <path d="M16.4074074,16 C16.2592593,16 16.2592593,16 16.1111111,16 C15.962963,16 15.962963,15.8275862 15.8148148,15.8275862 C14.9259259,15.137931 14.037037,14.4482759 13.1481481,13.5862069 C13.1481481,13.5862069 13,13.5862069 13,13.4137931 C13,13.4137931 13,13.2413793 13,13.2413793 C13,13.2413793 13.1481481,13.0689655 13.1481481,13.0689655 C14.037037,12.2068966 14.9259259,11.5172414 16.1111111,11.1724138 C16.4074074,11.1724138 16.5555556,11 16.8518519,11 C16.8518519,11 16.8518519,11 16.8518519,11 C17,11 17,11 17,11.1724138 C16.8518519,12.2068966 16.8518519,13.2413793 16.8518519,14.2758621 C16.8518519,14.6206897 16.8518519,14.9655172 16.8518519,15.3103448 C17,15.6551724 16.8518519,15.8275862 16.4074074,16 C16.5555556,16 16.5555556,16 16.4074074,16 Z" id="Path" fill="#4422EE"></path>
                    <path d="M10,19.0145985 C10,17.7007299 10.2962963,16.3868613 10.8888889,15.2372263 C10.8888889,15.2372263 10.8888889,15.0729927 11.037037,15.0729927 C11.037037,15.0729927 11.1851852,14.9087591 11.1851852,15.0729927 C11.1851852,15.0729927 11.3333333,15.0729927 11.3333333,15.2372263 C12.0740741,16.0583942 12.962963,16.879562 13.7037037,17.7007299 C13.8518519,17.8649635 14,18.0291971 14,18.1934307 C14,18.5218978 14,18.850365 13.7037037,18.850365 C13.5555556,18.850365 13.5555556,19.0145985 13.4074074,19.0145985 C12.3703704,19.3430657 11.3333333,19.6715328 10.2962963,20 C10.2962963,20 10.1481481,20 10.1481481,20 C10,20 10,20 10,19.8357664 C10,19.8357664 10,19.6715328 10,19.6715328 C10,19.3430657 10,19.1788321 10,19.0145985 Z" id="Path" fill="#4422EE"></path>
                    <path d="M15,22.703125 C15,22.8789062 15,22.8789062 15,23.0546875 C14.8275862,23.5820312 14.6551724,24.109375 14.3103448,24.6367187 C13.9655172,25.3398438 13.7931034,26.0429688 13.4482759,26.7460937 C13.4482759,26.7460937 13.4482759,26.921875 13.4482759,26.921875 C13.4482759,26.921875 13.2758621,27.0976562 13.2758621,26.921875 C13.2758621,26.921875 13.2758621,26.921875 13.1034483,26.921875 C11.7241379,25.8671875 10.6896552,24.6367187 10,23.0546875 C10,23.0546875 10,23.0546875 10,23.0546875 C10,22.8789062 10,22.8789062 10.1724138,22.703125 C10.862069,22.5273437 11.7241379,22.5273437 12.4137931,22.3515625 C12.9310345,22.1757812 13.4482759,22.1757812 14.137931,22 C14.3103448,22 14.4827586,22 14.6551724,22 C14.8275862,22.1757812 15,22.3515625 15,22.703125 Z" id="Path" fill="#4422EE"></path>
                    <path d="M25,19.1869919 C25,19.3495935 25,19.5121951 25,19.6747967 C25,19.6747967 25,19.6747967 25,19.8373984 C25,20 25,20 24.8576014,20 C24.2880072,19.8373984 23.8608114,19.6747967 23.2912172,19.5121951 C22.7216229,19.3495935 22.1520286,19.1869919 21.5824343,19.0243902 C21.4400358,19.0243902 21.4400358,19.0243902 21.2976372,18.8617886 C21.0128401,18.5365854 20.8704415,18.2113821 21.1552386,17.8861789 C21.4400358,17.5609756 21.7248329,17.2357724 22.0096301,16.9105691 C22.5792243,16.2601626 23.1488186,15.7723577 23.7184129,15.1219512 C23.8608114,14.9593496 23.8608114,14.9593496 23.8608114,15.1219512 C24.2880072,16.097561 24.5728043,17.0731707 24.7152029,18.0487805 C25,18.3739837 25,18.8617886 25,19.1869919 Z" id="Path" fill="#4422EE"></path>
                    <path d="M19.7407407,16 C19.4444444,16 19.1481481,15.6428571 19.1481481,15.2857143 C19.1481481,15.1071429 19.1481481,14.75 19.1481481,14.5714286 C19.1481481,14.0357143 19.1481481,13.3214286 19,12.7857143 C19,12.25 19,11.7142857 19,11.3571429 C19,11.3571429 19,11.1785714 19,11.1785714 C19,11 19,11 19.1481481,11 C19.2962963,11 19.4444444,11 19.4444444,11 C20.7777778,11.3571429 21.8148148,12.0714286 22.8518519,13.1428571 C22.8518519,13.1428571 23,13.3214286 23,13.3214286 C23,13.5 23,13.5 23,13.5 C23,13.5 23,13.5 22.8518519,13.6785714 C21.962963,14.3928571 21.0740741,15.1071429 20.1851852,16 C20.037037,15.8214286 19.8888889,16 19.7407407,16 Z" id="Path" fill="#4422EE"></path>
                    <path d="M15,27.6795467 C15,27.6795467 15,27.6795467 15,27.6795467 C15.6575873,26.4530312 16.3151746,25.37983 16.9727618,24.4599433 C16.9727618,24.4599433 16.9727618,24.4599433 16.9727618,24.3066289 C17.1371587,24 17.4659523,24 17.7947459,24 C17.9591428,24 18.1235396,24.1533144 18.1235396,24.3066289 C18.2879364,24.6132578 18.61673,25.0732011 18.7811269,25.37983 C19.1099205,25.9930878 19.603111,26.6063456 19.9319046,27.2196034 C19.9319046,27.2196034 19.9319046,27.2196034 19.9319046,27.2196034 C20.0963014,27.3729179 19.9319046,27.3729179 19.7675078,27.5262323 C18.7811269,27.8328612 17.7947459,27.8328612 16.9727618,27.8328612 C16.4795714,28.1394901 15.8219841,27.9861756 15,27.6795467 C15.1643968,27.8328612 15.1643968,27.6795467 15,27.6795467 C15,27.6795467 15,27.6795467 15,27.6795467 Z" id="Path" fill="#4422EE"></path>
                    <path d="M20,19.5211268 C20,19.6901408 20,19.8591549 20,20.028169 C20,20.1971831 19.8125,20.3661972 19.625,20.5352113 C19.4375,20.7042254 19.25,20.8732394 19.0625,20.8732394 C18.875,21.0422535 18.5,21.0422535 18.3125,20.8732394 C18.125,20.8732394 17.75,20.7042254 17.5625,20.5352113 C17.1875,20.3661972 17,20.028169 17,19.6901408 C17,19.5211268 17,19.3521127 17,19.1830986 C17,19.0140845 17,19.0140845 17.1875,18.8450704 C17.1875,18.6760563 17.375,18.6760563 17.375,18.5070423 C17.5625,18.3380282 17.5625,18.3380282 17.75,18.1690141 C17.75,18 17.9375,18 18.125,18 C18.5,18 18.6875,18 19.0625,18 C19.25,18 19.4375,18 19.4375,18.1690141 C19.4375,18.1690141 19.625,18.3380282 19.625,18.3380282 C19.625,18.3380282 19.8125,18.5070423 19.8125,18.5070423 C20,19.0140845 20,19.3521127 20,19.5211268 Z" id="Path" fill="#4422EE"></path>
                </g>
                <g id="Group-2" transform="translate(280.000000, 153.000000)">
                    <g id="Group" transform="translate(4.000000, 79.000000)">
                        <path d="M17.04,11.5266667 C17.04,11.6533333 17.04,11.6533333 17.04,11.78 C17.04,11.78 17.04,11.9066667 17.04,11.9066667 C17.04,12.16 16.92,12.2866667 16.8,12.4133333 C15.6,13.9333333 14.4,15.58 13.2,17.1 C13.08,17.2266667 12.96,17.48 12.84,17.6066667 C12.72,17.86 12.48,17.9866667 12.24,17.9866667 C12.24,17.9866667 12.24,17.9866667 12.12,17.9866667 C9.84,17.9866667 7.68,17.9866667 5.4,17.9866667 C5.4,17.9866667 5.4,17.9866667 5.4,17.9866667 C5.16,17.9866667 5.04,17.86 4.8,17.7333333 C4.68,17.6066667 4.68,17.6066667 4.56,17.48 C3.6,16.2133333 2.64,15.0733333 1.8,13.8066667 C1.44,13.3 1.08,12.7933333 0.72,12.2866667 C0.6,12.16 0.48,12.0333333 0.48,11.78 C0.48,11.6533333 0.48,11.6533333 0.48,11.5266667 C0.48,11.4 0.48,11.4 0.48,11.2733333 C0.48,11.1466667 0.48,11.1466667 0.48,11.02 C0.72,10.1333333 0.84,9.24666667 1.08,8.48666667 C1.32,7.22 1.68,5.82666667 1.92,4.56 C2.04,4.18 2.16,3.92666667 2.52,3.67333333 C2.52,3.67333333 2.52,3.67333333 2.52,3.67333333 C4.44,2.78666667 6.24,1.77333333 8.16,0.886666667 C8.28,0.76 8.52,0.76 8.76,0.633333333 C8.88,0.633333333 8.88,0.633333333 9,0.633333333 C9.12,0.633333333 9.36,0.76 9.48,0.76 C11.28,1.64666667 12.96,2.53333333 14.76,3.42 C14.88,3.54666667 15.12,3.54666667 15.24,3.67333333 C15.6,3.8 15.84,4.18 15.84,4.43333333 C15.84,4.56 15.84,4.56 15.84,4.68666667 C16.08,5.7 16.32,6.58666667 16.44,7.6 C16.68,8.48666667 16.8,9.37333333 17.04,10.26 C17.04,10.5133333 17.16,10.7666667 17.16,11.02 C17.04,11.4 17.04,11.5266667 17.04,11.5266667 Z M11.04,14.06 C11.04,14.06 11.04,14.06 11.04,14.06 C11.04,13.9333333 11.04,13.9333333 11.16,13.8066667 C11.52,13.5533333 11.88,13.3 12.12,12.92 C12.48,12.4133333 12.84,11.9066667 12.96,11.2733333 C12.96,11.2733333 12.96,11.2733333 13.08,11.1466667 C13.2,11.1466667 13.2,11.1466667 13.32,11.1466667 C13.44,11.1466667 13.56,11.1466667 13.68,11.1466667 C13.68,11.1466667 13.8,11.1466667 13.8,11.1466667 C13.92,11.1466667 14.04,11.2733333 14.16,11.2733333 C14.28,11.2733333 14.28,11.2733333 14.4,11.4 C14.52,11.4 14.64,11.4 14.76,11.2733333 C14.88,11.1466667 14.88,11.02 14.76,10.8933333 C14.64,10.7666667 14.64,10.7666667 14.52,10.64 C14.4,10.64 14.4,10.64 14.28,10.64 C14.04,10.64 13.8,10.64 13.56,10.5133333 C13.44,10.5133333 13.32,10.5133333 13.32,10.3866667 C13.32,10.3866667 13.2,10.26 13.2,10.26 C13.2,10.26 13.2,10.26 13.2,10.1333333 C13.2,10.1333333 13.2,10.0066667 13.2,10.0066667 C13.2,10.0066667 13.2,9.88 13.2,9.88 C13.2,9.75333333 13.2,9.75333333 13.2,9.62666667 C13.2,9.24666667 13.2,8.86666667 13.08,8.61333333 C12.96,7.98 12.72,7.47333333 12.48,6.96666667 C12.48,6.96666667 12.48,6.96666667 12.48,6.84 C12.48,6.84 12.6,6.71333333 12.6,6.71333333 C12.6,6.71333333 12.6,6.58666667 12.72,6.58666667 C12.72,6.58666667 12.84,6.46 12.84,6.46 C13.08,6.33333333 13.2,6.20666667 13.44,6.08 C13.56,6.08 13.56,5.95333333 13.56,5.95333333 C13.68,5.82666667 13.68,5.82666667 13.68,5.7 C13.68,5.57333333 13.56,5.44666667 13.44,5.44666667 C13.32,5.44666667 13.2,5.44666667 13.08,5.44666667 C13.08,5.44666667 12.96,5.57333333 12.96,5.57333333 C12.84,5.7 12.72,5.82666667 12.6,5.95333333 C12.48,6.08 12.48,6.08 12.36,6.20666667 C12.24,6.33333333 12.12,6.33333333 12,6.33333333 C12,6.33333333 11.88,6.33333333 11.88,6.33333333 C11.88,6.33333333 11.76,6.20666667 11.76,6.20666667 C11.28,5.82666667 10.8,5.44666667 10.2,5.19333333 C9.84,5.06666667 9.6,4.94 9.24,4.94 C9.12,4.94 9.12,4.94 9.12,4.81333333 C9.12,4.68666667 9.12,4.68666667 9,4.56 C9,4.30666667 9,4.18 9,3.92666667 C9,3.8 9,3.67333333 9.12,3.54666667 C9.12,3.42 9.12,3.42 9.12,3.29333333 C9.12,3.16666667 8.88,3.04 8.76,3.04 C8.64,3.04 8.52,3.16666667 8.4,3.29333333 C8.4,3.42 8.4,3.42 8.4,3.54666667 C8.4,3.8 8.4,3.92666667 8.52,4.18 C8.52,4.30666667 8.52,4.30666667 8.52,4.43333333 C8.52,4.56 8.52,4.56 8.52,4.68666667 C8.52,4.81333333 8.4,4.81333333 8.4,4.94 C8.4,4.94 8.4,4.94 8.4,4.94 C8.4,4.94 8.4,4.94 8.28,4.94 C8.04,4.94 7.92,4.94 7.68,5.06666667 C6.84,5.32 6.12,5.7 5.52,6.33333333 C5.52,6.33333333 5.4,6.33333333 5.4,6.33333333 C5.28,6.33333333 5.16,6.20666667 5.04,6.20666667 C4.92,6.20666667 4.92,6.08 4.8,6.08 C4.68,5.95333333 4.56,5.7 4.32,5.57333333 C4.32,5.57333333 4.2,5.44666667 4.2,5.44666667 C3.96,5.32 3.84,5.44666667 3.72,5.7 C3.72,5.82666667 3.72,5.95333333 3.84,6.08 C3.84,6.08 3.96,6.20666667 3.96,6.20666667 C4.08,6.20666667 4.08,6.33333333 4.2,6.33333333 C4.32,6.46 4.56,6.58666667 4.68,6.71333333 C4.8,6.84 4.92,6.96666667 4.92,7.09333333 C4.92,7.22 4.92,7.22 4.92,7.34666667 C4.56,7.98 4.32,8.61333333 4.32,9.37333333 C4.32,9.75333333 4.32,10.0066667 4.32,10.3866667 C4.32,10.3866667 4.32,10.3866667 4.32,10.5133333 C4.32,10.5133333 4.32,10.5133333 4.32,10.64 C4.32,10.64 4.2,10.64 4.2,10.7666667 C4.2,10.7666667 4.08,10.7666667 4.08,10.8933333 C3.96,10.8933333 3.96,11.02 3.84,11.02 C3.72,11.02 3.72,11.02 3.72,11.02 C3.6,11.02 3.48,11.02 3.36,11.02 C3.24,11.02 3.12,11.02 3,11.02 C2.88,11.02 2.76,11.1466667 2.76,11.2733333 C2.76,11.4 2.64,11.4 2.76,11.5266667 C2.76,11.6533333 2.88,11.78 3.12,11.78 C3.24,11.78 3.36,11.78 3.48,11.6533333 C3.6,11.6533333 3.72,11.5266667 3.84,11.5266667 C3.84,11.5266667 3.96,11.5266667 3.96,11.4 C4.08,11.4 4.08,11.4 4.2,11.4 C4.32,11.4 4.44,11.4 4.56,11.4 C4.56,11.4 4.56,11.4 4.56,11.4 C4.56,11.5266667 4.68,11.6533333 4.68,11.78 C5.04,12.6666667 5.64,13.4266667 6.48,13.9333333 C6.48,13.9333333 6.48,13.9333333 6.48,14.06 C6.48,14.1866667 6.48,14.1866667 6.48,14.3133333 C6.48,14.44 6.48,14.5666667 6.36,14.6933333 C6.24,14.82 6.12,15.0733333 6,15.3266667 C6,15.3266667 6,15.4533333 6,15.4533333 C6,15.58 6,15.58 6,15.7066667 C6,15.8333333 6.24,16.0866667 6.48,15.96 C6.6,15.96 6.72,15.8333333 6.72,15.7066667 C6.72,15.58 6.84,15.4533333 6.84,15.3266667 C6.84,15.2 6.96,15.0733333 6.96,14.9466667 C7.08,14.82 7.08,14.6933333 7.32,14.5666667 C7.44,14.5666667 7.44,14.5666667 7.56,14.5666667 C8.04,14.6933333 8.4,14.82 8.88,14.82 C9.12,14.82 9.36,14.82 9.48,14.82 C9.84,14.82 10.2,14.6933333 10.44,14.5666667 C10.44,14.5666667 10.56,14.5666667 10.56,14.5666667 C10.68,14.6933333 10.68,14.6933333 10.8,14.82 C10.92,14.9466667 10.92,14.9466667 10.92,15.0733333 C10.92,15.3266667 11.04,15.4533333 11.16,15.7066667 C11.16,15.8333333 11.28,15.8333333 11.28,15.96 C11.4,16.0866667 11.64,16.2133333 11.76,16.0866667 C11.88,15.96 11.88,15.96 11.88,15.8333333 C11.88,15.7066667 11.88,15.58 11.76,15.58 C11.64,15.4533333 11.64,15.3266667 11.52,15.2 C11.4,15.0733333 11.4,14.9466667 11.28,14.9466667 C11.04,14.3133333 11.04,14.1866667 11.04,14.06 Z" id="Shape" fill="#4422EE" fill-rule="nonzero"></path>
                        <path d="M11.04,14.06 C11.04,14.1866667 11.04,14.3133333 11.16,14.44 C11.16,14.5666667 11.28,14.6933333 11.4,14.6933333 C11.52,14.82 11.52,14.9466667 11.64,15.0733333 C11.64,15.2 11.76,15.2 11.76,15.3266667 C11.76,15.4533333 11.76,15.58 11.64,15.58 C11.52,15.7066667 11.28,15.58 11.16,15.4533333 C11.16,15.3266667 11.04,15.3266667 11.04,15.2 C10.92,14.9466667 10.92,14.82 10.8,14.5666667 C10.8,14.44 10.68,14.3133333 10.68,14.3133333 C10.56,14.1866667 10.56,14.1866667 10.44,14.06 C10.44,14.06 10.44,14.06 10.32,14.06 C9.96,14.1866667 9.72,14.3133333 9.36,14.3133333 C9.12,14.3133333 8.88,14.3133333 8.76,14.3133333 C8.28,14.3133333 7.8,14.1866667 7.44,14.06 C7.32,14.06 7.32,14.06 7.2,14.06 C7.08,14.1866667 6.96,14.3133333 6.84,14.44 C6.84,14.5666667 6.72,14.6933333 6.72,14.82 C6.72,14.9466667 6.6,15.0733333 6.6,15.2 C6.6,15.3266667 6.48,15.4533333 6.36,15.4533333 C6.12,15.58 6,15.4533333 5.88,15.2 C5.88,15.0733333 5.88,14.9466667 5.88,14.9466667 C5.88,14.9466667 5.88,14.82 5.88,14.82 C6,14.5666667 6.12,14.44 6.24,14.1866667 C6.36,14.06 6.36,13.9333333 6.36,13.8066667 C6.36,13.68 6.36,13.68 6.36,13.5533333 C6.36,13.5533333 6.36,13.4266667 6.36,13.4266667 C5.52,12.92 4.92,12.16 4.56,11.2733333 C4.56,11.1466667 4.44,11.02 4.44,10.8933333 C4.44,10.8933333 4.44,10.8933333 4.44,10.8933333 C4.32,10.8933333 4.2,10.8933333 4.08,10.8933333 C3.96,10.8933333 3.96,10.8933333 3.84,10.8933333 C3.84,10.8933333 3.72,10.8933333 3.72,11.02 C3.6,11.02 3.48,11.1466667 3.36,11.1466667 C3.24,11.1466667 3.12,11.2733333 3,11.2733333 C2.88,11.2733333 2.76,11.1466667 2.64,11.02 C2.64,10.8933333 2.64,10.8933333 2.64,10.7666667 C2.64,10.64 2.76,10.64 2.88,10.5133333 C3,10.5133333 3.12,10.5133333 3.24,10.5133333 C3.36,10.5133333 3.48,10.5133333 3.6,10.5133333 C3.6,10.5133333 3.72,10.5133333 3.72,10.5133333 C3.84,10.5133333 3.84,10.5133333 3.96,10.3866667 C3.96,10.3866667 4.08,10.3866667 4.08,10.26 C4.08,10.26 4.2,10.1333333 4.2,10.1333333 C4.2,10.1333333 4.2,10.1333333 4.2,10.0066667 C4.2,10.0066667 4.2,10.0066667 4.2,9.88 C4.2,9.5 4.2,9.24666667 4.2,8.86666667 C4.32,8.10666667 4.44,7.47333333 4.8,6.84 C4.8,6.71333333 4.8,6.71333333 4.8,6.58666667 C4.8,6.46 4.68,6.33333333 4.56,6.20666667 C4.44,6.08 4.2,5.95333333 4.08,5.82666667 C3.96,5.82666667 3.96,5.7 3.84,5.7 C3.84,5.7 3.72,5.57333333 3.72,5.57333333 C3.6,5.44666667 3.6,5.32 3.6,5.19333333 C3.6,4.94 3.84,4.81333333 4.08,4.94 C4.08,4.94 4.2,4.94 4.2,5.06666667 C4.32,5.19333333 4.56,5.32 4.68,5.57333333 C4.68,5.7 4.8,5.7 4.92,5.7 C5.04,5.82666667 5.16,5.82666667 5.28,5.82666667 C5.28,5.82666667 5.4,5.82666667 5.4,5.82666667 C6,5.19333333 6.72,4.81333333 7.56,4.56 C7.8,4.56 7.92,4.43333333 8.16,4.43333333 C8.16,4.43333333 8.16,4.43333333 8.28,4.43333333 C8.28,4.43333333 8.28,4.43333333 8.28,4.43333333 C8.28,4.30666667 8.4,4.30666667 8.4,4.18 C8.4,4.05333333 8.4,4.05333333 8.4,3.92666667 C8.4,3.8 8.4,3.8 8.4,3.67333333 C8.4,3.42 8.4,3.29333333 8.28,3.04 C8.28,2.91333333 8.28,2.91333333 8.28,2.78666667 C8.28,2.66 8.4,2.53333333 8.64,2.53333333 C8.76,2.53333333 9,2.66 9,2.78666667 C9,2.91333333 9,2.91333333 9,3.04 C9,3.16666667 9,3.29333333 8.88,3.42 C8.88,3.67333333 8.88,3.8 8.88,4.05333333 C8.88,4.18 8.88,4.18 9,4.30666667 C9,4.30666667 9.12,4.43333333 9.12,4.43333333 C9.48,4.43333333 9.84,4.56 10.08,4.68666667 C10.68,4.94 11.16,5.19333333 11.64,5.7 C11.64,5.7 11.76,5.82666667 11.76,5.82666667 C11.76,5.82666667 11.88,5.82666667 11.88,5.82666667 C12,5.82666667 12.12,5.7 12.24,5.7 C12.36,5.57333333 12.36,5.57333333 12.48,5.44666667 C12.6,5.32 12.72,5.19333333 12.84,5.06666667 C12.84,5.06666667 12.96,4.94 12.96,4.94 C13.08,4.94 13.2,4.81333333 13.32,4.94 C13.44,4.94 13.56,5.06666667 13.56,5.19333333 C13.56,5.32 13.56,5.44666667 13.44,5.44666667 C13.44,5.57333333 13.32,5.57333333 13.32,5.57333333 C13.08,5.7 12.96,5.82666667 12.72,5.95333333 C12.72,5.95333333 12.6,6.08 12.6,6.08 C12.6,6.08 12.48,6.20666667 12.48,6.20666667 C12.48,6.20666667 12.36,6.33333333 12.36,6.33333333 C12.36,6.33333333 12.36,6.33333333 12.36,6.46 C12.72,6.96666667 12.84,7.47333333 12.96,8.10666667 C13.08,8.48666667 13.08,8.74 13.08,9.12 C13.08,9.24666667 13.08,9.24666667 13.08,9.37333333 C13.08,9.37333333 13.08,9.5 13.08,9.5 C13.08,9.5 13.08,9.62666667 13.08,9.62666667 C13.08,9.62666667 13.08,9.75333333 13.08,9.75333333 C13.08,9.75333333 13.2,9.88 13.2,9.88 C13.32,10.0066667 13.32,10.0066667 13.44,10.0066667 C13.68,10.0066667 13.92,10.0066667 14.16,10.1333333 C14.28,10.1333333 14.28,10.1333333 14.4,10.1333333 C14.52,10.1333333 14.64,10.26 14.64,10.3866667 C14.76,10.5133333 14.64,10.64 14.64,10.7666667 C14.52,10.8933333 14.4,10.8933333 14.28,10.8933333 C14.16,10.8933333 14.16,10.8933333 14.04,10.7666667 C13.92,10.7666667 13.8,10.64 13.68,10.64 C13.68,10.64 13.56,10.64 13.56,10.64 C13.44,10.64 13.32,10.64 13.2,10.64 C13.08,10.64 13.08,10.64 12.96,10.64 C12.96,10.64 12.96,10.64 12.84,10.7666667 C12.6,11.4 12.36,11.9066667 12,12.4133333 C11.76,12.7933333 11.4,13.0466667 11.04,13.3 C11.04,13.8066667 11.04,13.9333333 11.04,14.06 C11.04,14.06 11.04,14.06 11.04,14.06 Z M10.2,10.7666667 C10.08,10.7666667 9.96,10.8933333 9.84,11.02 C9.84,11.1466667 9.84,11.1466667 9.84,11.2733333 C10.08,11.78 10.32,12.4133333 10.44,12.92 C10.44,13.0466667 10.56,13.0466667 10.56,12.92 C10.8,12.6666667 11.16,12.4133333 11.4,12.16 C11.64,11.9066667 11.76,11.6533333 11.88,11.2733333 C11.88,11.2733333 11.88,11.1466667 11.88,11.1466667 C11.88,11.1466667 11.88,11.02 11.76,11.02 C11.76,11.02 11.76,11.02 11.76,11.02 C11.64,11.02 11.52,11.02 11.52,11.02 C11.16,10.8933333 10.68,10.8933333 10.32,10.7666667 C10.32,10.7666667 10.2,10.7666667 10.2,10.7666667 Z M7.8,8.23333333 C7.8,8.23333333 7.8,8.23333333 7.8,8.23333333 C8.04,8.23333333 8.04,8.10666667 8.04,7.98 C8.04,7.85333333 8.04,7.72666667 8.04,7.6 C8.04,7.09333333 8.04,6.71333333 8.16,6.20666667 C8.16,6.08 8.16,6.08 8.04,6.08 C8.04,6.08 8.04,6.08 8.04,6.08 C7.92,6.08 7.8,6.08 7.68,6.20666667 C7.08,6.33333333 6.6,6.58666667 6.24,7.09333333 C6.24,7.09333333 6.24,7.09333333 6.12,7.22 C6.12,7.22 6.12,7.34666667 6.12,7.34666667 C6.12,7.34666667 6.12,7.34666667 6.24,7.34666667 C6.72,7.72666667 7.08,7.98 7.56,8.36 C7.56,8.36 7.68,8.36 7.68,8.48666667 C7.68,8.23333333 7.68,8.23333333 7.8,8.23333333 Z M5.04,9.75333333 C5.04,9.88 5.04,9.88 5.04,10.0066667 C5.04,10.0066667 5.04,10.0066667 5.04,10.1333333 C5.04,10.1333333 5.04,10.1333333 5.16,10.1333333 C5.16,10.1333333 5.28,10.1333333 5.28,10.1333333 C5.76,10.0066667 6.36,9.75333333 6.84,9.62666667 C6.84,9.62666667 6.96,9.62666667 6.96,9.62666667 C7.08,9.5 7.08,9.37333333 7.08,9.24666667 C7.08,9.12 6.96,9.12 6.96,8.99333333 C6.6,8.61333333 6.12,8.23333333 5.76,7.85333333 C5.76,7.85333333 5.76,7.85333333 5.76,7.85333333 C5.76,7.85333333 5.64,7.85333333 5.64,7.85333333 C5.64,7.85333333 5.64,7.85333333 5.64,7.98 C5.16,8.61333333 5.04,9.12 5.04,9.75333333 Z M7.44,11.1466667 C7.44,11.02 7.44,10.8933333 7.32,10.8933333 C7.2,10.8933333 7.2,10.8933333 7.08,10.8933333 C6.84,10.8933333 6.6,11.02 6.36,11.02 C6,11.02 5.76,11.1466667 5.4,11.1466667 C5.28,11.1466667 5.28,11.1466667 5.28,11.2733333 C5.28,11.2733333 5.28,11.2733333 5.28,11.2733333 C5.52,12.0333333 6,12.54 6.6,13.0466667 C6.6,13.0466667 6.6,13.0466667 6.6,13.0466667 C6.6,13.0466667 6.6,13.0466667 6.72,13.0466667 C6.72,13.0466667 6.72,13.0466667 6.72,13.0466667 C6.84,12.7933333 6.96,12.4133333 7.08,12.16 C7.2,11.9066667 7.32,11.6533333 7.32,11.5266667 C7.32,11.2733333 7.44,11.1466667 7.44,11.1466667 Z M12.24,9.88 C12.24,9.62666667 12.24,9.5 12.24,9.24666667 C12.12,8.74 12,8.23333333 11.76,7.85333333 C11.76,7.85333333 11.76,7.85333333 11.64,7.85333333 C11.4,8.10666667 11.04,8.36 10.8,8.74 C10.68,8.86666667 10.44,8.99333333 10.32,9.12 C10.2,9.24666667 10.2,9.5 10.32,9.62666667 C10.32,9.62666667 10.44,9.62666667 10.44,9.62666667 C10.68,9.75333333 11.04,9.75333333 11.28,9.88 C11.52,10.0066667 11.76,10.0066667 12.12,10.1333333 C12.24,10.1333333 12.24,10.1333333 12.24,10.0066667 C12.24,10.0066667 12.24,10.0066667 12.24,10.0066667 C12.24,10.0066667 12.24,9.88 12.24,9.88 Z M9.48,8.23333333 C9.6,8.23333333 9.6,8.23333333 9.72,8.10666667 C10.2,7.72666667 10.56,7.47333333 11.04,7.09333333 C11.04,7.09333333 11.04,7.09333333 11.04,7.09333333 C11.04,7.09333333 11.04,6.96666667 11.04,6.96666667 C11.04,6.96666667 11.04,6.96666667 11.04,6.84 C10.56,6.33333333 9.96,6.08 9.36,5.95333333 C9.36,5.95333333 9.24,5.95333333 9.24,5.95333333 C9.24,5.95333333 9.12,5.95333333 9.12,6.08 C9.12,6.08 9.12,6.08 9.12,6.20666667 C9.12,6.46 9.12,6.58666667 9.12,6.84 C9.12,7.09333333 9.12,7.34666667 9.12,7.6 C9.12,7.72666667 9.12,7.85333333 9.12,7.98 C9.24,8.10666667 9.36,8.23333333 9.48,8.23333333 Z M7.44,13.4266667 C7.44,13.4266667 7.44,13.4266667 7.44,13.4266667 C7.44,13.4266667 7.56,13.4266667 7.44,13.4266667 C7.8,13.5533333 8.04,13.5533333 8.4,13.68 C8.88,13.68 9.24,13.68 9.72,13.5533333 C9.84,13.5533333 9.84,13.5533333 9.72,13.4266667 C9.72,13.4266667 9.72,13.4266667 9.72,13.4266667 C9.6,13.0466667 9.36,12.7933333 9.24,12.4133333 C9.12,12.16 9,12.0333333 8.88,11.78 C8.88,11.6533333 8.76,11.6533333 8.76,11.6533333 C8.64,11.5266667 8.52,11.6533333 8.4,11.78 C8.4,11.78 8.4,11.78 8.4,11.78 C8.04,12.2866667 7.8,12.92 7.44,13.4266667 C7.44,13.4266667 7.44,13.4266667 7.44,13.4266667 Z M9.24,9.75333333 C9.24,9.62666667 9.24,9.5 9.12,9.37333333 C9.12,9.37333333 9.12,9.37333333 9,9.24666667 C9,9.24666667 9,9.12 8.88,9.12 C8.88,9.12 8.76,8.99333333 8.76,8.99333333 C8.64,8.99333333 8.52,8.99333333 8.4,8.99333333 C8.28,8.99333333 8.28,8.99333333 8.28,9.12 C8.28,9.12 8.16,9.24666667 8.16,9.24666667 C8.16,9.24666667 8.04,9.37333333 8.04,9.37333333 C8.04,9.37333333 8.04,9.5 8.04,9.5 C8.04,9.62666667 8.04,9.62666667 8.04,9.75333333 C8.04,9.88 8.16,10.0066667 8.28,10.1333333 C8.4,10.1333333 8.52,10.26 8.52,10.26 C8.64,10.26 8.76,10.26 8.76,10.26 C8.88,10.26 8.88,10.1333333 9,10.1333333 C9.12,10.1333333 9.12,10.0066667 9.12,9.88 C9.24,10.0066667 9.24,9.88 9.24,9.75333333 Z" id="Shape" fill="#FDFEFE" fill-rule="nonzero"></path>
                        <path d="M10.2,10.7666667 C10.32,10.7666667 10.32,10.7666667 10.44,10.7666667 C10.8,10.8933333 11.28,10.8933333 11.64,11.02 C11.76,11.02 11.88,11.02 11.88,11.02 C11.88,11.02 11.88,11.02 11.88,11.02 C11.88,11.02 12,11.02 12,11.1466667 C12,11.1466667 12,11.2733333 12,11.2733333 C11.88,11.5266667 11.76,11.9066667 11.52,12.16 C11.28,12.4133333 11.04,12.6666667 10.68,12.92 C10.56,12.92 10.56,12.92 10.56,12.92 C10.32,12.4133333 10.08,11.78 9.96,11.2733333 C9.96,11.1466667 9.96,11.1466667 9.96,11.02 C9.84,10.8933333 9.96,10.7666667 10.2,10.7666667 Z" id="Path" fill="#4422EE"></path>
                        <path d="M7.8,8.23333333 C7.8,8.23333333 7.68,8.23333333 7.68,8.23333333 C7.68,8.23333333 7.56,8.23333333 7.56,8.10666667 C7.08,7.72666667 6.72,7.47333333 6.24,7.09333333 C6.24,7.09333333 6.24,7.09333333 6.12,7.09333333 C6.12,7.09333333 6.12,7.09333333 6.12,6.96666667 C6.12,6.96666667 6.12,6.96666667 6.24,6.84 C6.72,6.46 7.2,6.20666667 7.68,5.95333333 C7.8,5.95333333 7.92,5.82666667 8.04,5.82666667 C8.04,5.82666667 8.04,5.82666667 8.04,5.82666667 C8.16,5.82666667 8.16,5.82666667 8.16,5.95333333 C8.16,6.46 8.16,6.84 8.04,7.34666667 C8.04,7.47333333 8.04,7.6 8.04,7.72666667 C8.04,8.10666667 7.92,8.23333333 7.8,8.23333333 C7.8,8.23333333 7.8,8.23333333 7.8,8.23333333 Z" id="Path" fill="#4422EE"></path>
                        <path d="M5.04,9.75333333 C5.04,9.12 5.16,8.48666667 5.52,7.98 C5.52,7.98 5.52,7.85333333 5.52,7.85333333 C5.52,7.85333333 5.52,7.85333333 5.64,7.85333333 C5.64,7.85333333 5.64,7.85333333 5.64,7.85333333 C6,8.23333333 6.48,8.61333333 6.84,8.99333333 C6.96,8.99333333 6.96,9.12 6.96,9.24666667 C6.96,9.37333333 6.96,9.5 6.84,9.62666667 C6.84,9.62666667 6.72,9.62666667 6.72,9.62666667 C6.24,9.75333333 5.64,9.88 5.16,10.1333333 C5.16,10.1333333 5.04,10.1333333 5.04,10.1333333 C5.04,10.1333333 5.04,10.1333333 4.92,10.1333333 C4.92,10.1333333 4.92,10.1333333 4.92,10.0066667 C5.04,10.0066667 5.04,9.88 5.04,9.75333333 Z" id="Path" fill="#4422EE"></path>
                        <path d="M7.44,11.1466667 C7.44,11.1466667 7.44,11.2733333 7.44,11.2733333 C7.32,11.5266667 7.2,11.78 7.2,11.9066667 C7.08,12.16 6.96,12.54 6.84,12.7933333 C6.84,12.7933333 6.84,12.7933333 6.84,12.7933333 C6.84,12.7933333 6.84,12.7933333 6.72,12.7933333 C6.72,12.7933333 6.72,12.7933333 6.72,12.7933333 C6.12,12.4133333 5.64,11.78 5.4,11.02 C5.4,11.02 5.4,11.02 5.4,11.02 C5.4,10.8933333 5.4,10.8933333 5.52,10.8933333 C5.88,10.8933333 6.12,10.7666667 6.48,10.7666667 C6.72,10.7666667 6.96,10.64 7.2,10.64 C7.32,10.64 7.32,10.64 7.44,10.64 C7.32,10.8933333 7.44,11.02 7.44,11.1466667 Z" id="Path" fill="#4422EE"></path>
                        <path d="M12.24,9.88 C12.24,10.0066667 12.24,10.0066667 12.24,10.1333333 C12.24,10.1333333 12.24,10.1333333 12.24,10.1333333 C12.24,10.26 12.24,10.26 12.12,10.26 C11.88,10.1333333 11.64,10.1333333 11.28,10.0066667 C11.04,9.88 10.68,9.88 10.44,9.75333333 C10.44,9.75333333 10.32,9.75333333 10.32,9.75333333 C10.2,9.62666667 10.08,9.37333333 10.32,9.24666667 C10.44,9.12 10.68,8.99333333 10.8,8.86666667 C11.04,8.61333333 11.4,8.36 11.64,7.98 C11.64,7.98 11.64,7.98 11.76,7.98 C12,8.36 12.12,8.86666667 12.24,9.37333333 C12.24,9.5 12.24,9.62666667 12.24,9.88 Z" id="Path" fill="#4422EE"></path>
                        <path d="M9.48,8.23333333 C9.36,8.23333333 9.24,8.10666667 9.24,7.98 C9.24,7.85333333 9.24,7.72666667 9.24,7.6 C9.24,7.34666667 9.24,7.09333333 9.24,6.84 C9.24,6.58666667 9.24,6.46 9.24,6.20666667 C9.24,6.20666667 9.24,6.20666667 9.24,6.08 C9.24,6.08 9.24,5.95333333 9.36,5.95333333 C9.48,5.95333333 9.48,5.95333333 9.48,5.95333333 C10.08,6.08 10.68,6.33333333 11.16,6.84 C11.16,6.84 11.16,6.84 11.16,6.96666667 C11.16,6.96666667 11.16,7.09333333 11.16,7.09333333 C11.16,7.09333333 11.16,7.09333333 11.16,7.09333333 C10.68,7.47333333 10.32,7.72666667 9.84,8.10666667 C9.6,8.23333333 9.6,8.23333333 9.48,8.23333333 Z" id="Path" fill="#4422EE"></path>
                        <path d="M7.44,13.4266667 C7.44,13.4266667 7.44,13.4266667 7.44,13.4266667 C7.8,12.7933333 8.04,12.2866667 8.28,11.78 C8.28,11.78 8.28,11.78 8.28,11.78 C8.4,11.6533333 8.52,11.6533333 8.64,11.6533333 C8.76,11.6533333 8.76,11.78 8.76,11.78 C8.88,12.0333333 9,12.16 9.12,12.4133333 C9.24,12.7933333 9.48,13.0466667 9.6,13.4266667 C9.6,13.4266667 9.6,13.4266667 9.6,13.4266667 C9.6,13.5533333 9.6,13.5533333 9.6,13.5533333 C9.24,13.68 8.76,13.68 8.28,13.68 C8.04,13.68 7.8,13.5533333 7.44,13.4266667 C7.56,13.4266667 7.44,13.4266667 7.44,13.4266667 C7.44,13.4266667 7.44,13.4266667 7.44,13.4266667 Z" id="Path" fill="#4422EE"></path>
                        <path d="M9.24,9.75333333 C9.24,9.88 9.24,9.88 9.24,10.0066667 C9.24,10.1333333 9.12,10.1333333 9.12,10.26 C9,10.3866667 9,10.3866667 8.88,10.3866667 C8.76,10.3866667 8.64,10.3866667 8.64,10.3866667 C8.52,10.3866667 8.4,10.26 8.4,10.26 C8.28,10.1333333 8.16,10.0066667 8.16,9.88 C8.16,9.75333333 8.16,9.75333333 8.16,9.62666667 C8.16,9.62666667 8.16,9.5 8.16,9.5 C8.16,9.5 8.28,9.37333333 8.28,9.37333333 C8.28,9.37333333 8.4,9.24666667 8.4,9.24666667 C8.4,9.24666667 8.52,9.12 8.52,9.12 C8.64,9.12 8.76,9.12 8.88,9.12 C9,9.12 9,9.12 9,9.24666667 C9,9.24666667 9,9.37333333 9.12,9.37333333 C9.12,9.37333333 9.12,9.37333333 9.24,9.5 C9.24,9.5 9.24,9.62666667 9.24,9.75333333 Z" id="Path" fill="#4422EE"></path>
                    </g>
                    <polygon id="Path" stroke="#0A025D" stroke-width="2" points="92 61.8277551 36.8815789 0 21 10.68 66.5607287 61.8277551 66.5607287 89 92 89"></polygon>
                    <polyline id="Path" stroke="#0A025D" stroke-width="2" points="38 30 38 40.3241167 48.5 41.5514593 53.75 66.7480799 66.65625 61.5499232 92.46875 61.5499232 108 67.8310292 99.5416667 77 92.46875 63.6436252"></polyline>
                    <polyline id="Path" stroke="#0A025D" stroke-width="2" points="37.1827957 0 20 0 21.2273425 10.68 67 89"></polyline>
                    <polyline id="Path" stroke="#0A025D" points="18.969697 1 16 41 20 11.7103825"></polyline>
                    <polygon id="Path" stroke="#0A025D" stroke-width="2" points="96 122 88.2159827 92 68.6825054 92 62 122 72.574514 96.902439 84.9114471 96.902439"></polygon>
                    <polygon id="Rectangle" stroke="#0A025D" stroke-width="3" transform="translate(77.998052, 90.364603) rotate(180.000000) translate(-77.998052, -90.364603) " points="73.4409454 89.0985541 82.5551586 89.0985541 82.5551586 91.6306529 73.4409454 91.6306529"></polygon>
                    <circle id="Oval" stroke="#0A025D" cx="17" cy="73" r="3"></circle>
                    <circle id="Oval" stroke="#0A025D" cx="16" cy="43" r="3"></circle>
                    <circle id="Oval" stroke="#0A025D" cx="10" cy="73" r="3"></circle>
                    <path d="M16.3,46 L16.7,70" id="Path" stroke="#0A025D"></path>
                    <path d="M14,46 L9,71" id="Path" stroke="#0A025D"></path>
                    <polygon id="Rectangle" stroke="#0A025D" points="27.0208568 101 5.12329223e-10 101 -5.12326048e-10 77 27.0208568 77"></polygon>
                    <polyline id="Path" stroke="#0A025D" stroke-width="2" points="92 73 73 73 73 90"></polyline>
                    <polygon id="Rectangle" fill="#4422EE" transform="translate(76.855303, 79.054586) rotate(180.000000) translate(-76.855303, -79.054586) " points="73.4193896 77.4268087 80.291217 77.4268087 80.291217 80.6823642 73.4193896 80.6823642"></polygon>
                </g>
                <polygon id="Path" stroke="#0A025D" stroke-width="3" points="40 108.329302 137.085978 0 165 18.72 84.7922677 108.329302 84.7922677 156 40 156"></polygon>
                <polyline id="Path" stroke="#0A025D" stroke-width="2" points="135 53 135 71.2017544 116.671021 73.3859649 107.615202 118.016667 85.084323 108.697368 40.0950119 108.697368 13 119.836842 27.7790974 136 40.0950119 112.410526"></polyline>
                <polyline id="Path" stroke="#0A025D" stroke-width="3" points="137.692644 0 168 0 165.819615 18.72 85 156"></polyline>
                <polyline id="Path" stroke="#0A025D" stroke-width="2" fill="#FEFEFE" points="168.384615 0 175 70 166 18.7150259"></polyline>
                <polygon id="Path" stroke="#0A025D" stroke-width="3" points="34 212 47.458693 160 81.432799 160 93 212 74.6670777 168.38943 53.2786683 168.38943"></polygon>
                <rect id="Rectangle" fill="#0A025D" x="57" y="156" width="16" height="4"></rect>
                <circle id="Oval" stroke="#0A025D" stroke-width="2" cx="173" cy="129" r="5"></circle>
                <circle id="Oval" stroke="#0A025D" stroke-width="2" cx="185" cy="129" r="5"></circle>
                <path d="M173.8,81 L173.2,124" id="Path" stroke="#0A025D" stroke-width="2"></path>
                <path d="M176,80 L185,123" id="Path" stroke="#0A025D" stroke-width="2"></path>
                <rect id="Rectangle" stroke="#0A025D" stroke-width="2" x="94" y="195" width="20" height="17"></rect>
                <rect id="Rectangle" stroke="#0A025D" stroke-width="2" x="94" y="178" width="20" height="17"></rect>
                <rect id="Rectangle" stroke="#0A025D" stroke-width="2" x="94" y="161" width="20" height="17"></rect>
                <rect id="Rectangle" stroke="#0A025D" x="98" y="163" width="2" height="12"></rect>
                <rect id="Rectangle-Copy-2" stroke="#0A025D" x="98" y="180" width="2" height="12"></rect>
                <rect id="Rectangle-Copy-5" stroke="#0A025D" x="98" y="198" width="2" height="12"></rect>
                <rect id="Rectangle" stroke="#0A025D" x="103" y="163" width="2" height="12"></rect>
                <rect id="Rectangle-Copy-3" stroke="#0A025D" x="103" y="180" width="2" height="12"></rect>
                <rect id="Rectangle-Copy-6" stroke="#0A025D" x="103" y="198" width="2" height="12"></rect>
                <rect id="Rectangle-Copy" stroke="#0A025D" x="108" y="163" width="2" height="12"></rect>
                <rect id="Rectangle-Copy-4" stroke="#0A025D" x="108" y="180" width="2" height="12"></rect>
                <rect id="Rectangle-Copy-7" stroke="#0A025D" x="108" y="198" width="2" height="12"></rect>
                <rect id="Rectangle" stroke="#0A025D" stroke-width="2" x="477" y="195" width="20" height="17"></rect>
                <rect id="Rectangle" stroke="#0A025D" x="481" y="198" width="2" height="12"></rect>
                <rect id="Rectangle" stroke="#0A025D" x="486" y="198" width="2" height="12"></rect>
                <rect id="Rectangle" stroke="#0A025D" x="491" y="198" width="2" height="12"></rect>
                <rect id="Rectangle" stroke="#0A025D" stroke-width="2" x="477" y="178" width="20" height="17"></rect>
                <rect id="Rectangle" stroke="#0A025D" x="481" y="181" width="2" height="12"></rect>
                <rect id="Rectangle" stroke="#0A025D" x="486" y="181" width="2" height="12"></rect>
                <rect id="Rectangle" stroke="#0A025D" x="491" y="181" width="2" height="12"></rect>
                <rect id="Rectangle" stroke="#0A025D" stroke-width="2" x="477" y="161" width="20" height="17"></rect>
                <rect id="Rectangle" stroke="#0A025D" x="481" y="163" width="2" height="12"></rect>
                <rect id="Rectangle" stroke="#0A025D" x="486" y="163" width="2" height="12"></rect>
                <rect id="Rectangle" stroke="#0A025D" x="491" y="163" width="2" height="12"></rect>
                <polyline id="Path" stroke="#0A025D" stroke-width="2" points="40 126 73 126 73 156"></polyline>
                <rect id="Rectangle" fill="#4422EE" x="61" y="136" width="12" height="6"></rect>
                <polyline id="Path" stroke="#0A025D" stroke-width="3" points="11 213 122.010777 213 139 259"></polyline>
                <path d="M111,212 L114,249" id="Path" stroke="#0A025D" stroke-width="3"></path>
                <polygon id="Path" stroke="#0A025D" stroke-width="3" fill="#FEFEFE" points="551 108.329302 453.986151 0 426 18.72 506.207732 108.329302 506.207732 156 551 156"></polygon>
                <polyline id="Path" stroke="#0A025D" stroke-width="2" points="457 53 457 71.2017544 475.328979 73.3859649 484.384798 118.016667 506.915677 108.697368 551.904988 108.697368 579 119.836842 564.220903 136 551.904988 112.410526"></polyline>
                <polyline id="Path" stroke="#0A025D" stroke-width="3" points="454.380035 0 424 0 426.180385 18.72 507 156"></polyline>
                <polyline id="Path" stroke="#0A025D" stroke-width="2" fill="#FEFEFE" points="423.615385 1 417 71 426 19.7150259"></polyline>
                <polygon id="Path" stroke="#0A025D" stroke-width="3" points="558 212 544.614057 160 510.639951 160 499 212 517.332922 168.38943 538.794081 168.38943"></polygon>
                <polygon id="Rectangle" fill="#0A025D" transform="translate(527.139268, 158.185419) rotate(180.000000) translate(-527.139268, -158.185419) " points="519.146247 155.978876 535.132288 155.978876 535.132288 160.391962 519.146247 160.391962"></polygon>
                <circle id="Oval" stroke="#0A025D" stroke-width="2" cx="419" cy="129" r="5"></circle>
                <circle id="Oval" stroke="#0A025D" stroke-width="2" cx="417" cy="76" r="5"></circle>
                <circle id="Oval" stroke="#0A025D" stroke-width="2" cx="407" cy="129" r="5"></circle>
                <path d="M418.15,81 L418.85,124" id="Path" stroke="#0A025D" stroke-width="2"></path>
                <path d="M416,80 L407,123" id="Path" stroke="#0A025D" stroke-width="2"></path>
                <polygon id="Rectangle" stroke="#0A025D" stroke-width="2" transform="translate(177.773477, 158.249753) rotate(180.000000) translate(-177.773477, -158.249753) " points="144 134 211.546954 134 211.546954 182.499506 144 182.499506"></polygon>
                <polygon id="Rectangle-Copy-8" stroke="#0A025D" stroke-width="2" transform="translate(413.773477, 158.249753) rotate(180.000000) translate(-413.773477, -158.249753) " points="380 134 447.546954 134 447.546954 182.499506 380 182.499506"></polygon>
                <polyline id="Path" stroke="#0A025D" stroke-width="2" points="552 126 519 126 519 156"></polyline>
                <polygon id="Rectangle" fill="#4422EE" transform="translate(525.156637, 138.420579) rotate(180.000000) translate(-525.156637, -138.420579) " points="519.15283 135.562925 531.160444 135.562925 531.160444 141.278234 519.15283 141.278234"></polygon>
                <polyline id="Path" stroke="#0A025D" stroke-width="3" points="580 212 466.384912 212 449 272"></polyline>
                <path d="M480,212 L477,254" id="Path" stroke="#0A025D" stroke-width="3"></path>
                <polyline id="Path" stroke="#0A025D" stroke-width="2" points="454 256 384.613718 256 374 284"></polyline>
                <path d="M391,257 L389,282" id="Path" stroke="#0A025D" stroke-width="2"></path>
                <circle id="Oval" stroke="#0A025D" stroke-width="2" fill="#FEFEFE" cx="175" cy="76" r="5"></circle>
                <path d="M13,212 L0.5,259.5" id="Path-2" stroke="#0A025D" stroke-width="3"></path>
            </g>
            <path d="M622.169918,554.192719 C585.444305,552.394004 571.375288,565.344754 569,572 L1440,572 L1440,404 C1408.93854,430.441113 1328.54416,479.72591 1256.55465,465.695931 C1166.4764,447.888651 1126.64464,541.062099 1016.10237,554.372591 C905.377386,567.683084 924.196979,541.062099 855.679043,518.937901 C787.161108,496.813704 763.773652,527.751606 729.606042,541.062099 C695.438431,554.372591 668.213971,556.351178 622.169918,554.192719 Z" id="Path" fill="#CBCBFD"></path>
            <path d="M175.834957,456.799096 C114.138481,409.060757 32.8533735,429.213768 0,445.221834 L0,572 L871,572 C836.295732,546.558609 797.272711,546.844468 782.157075,550.131838 C758.558172,562.709605 692.08022,577.574237 614.651142,536.26771 C517.941916,484.670283 419.381796,500.53542 374.497609,508.396523 C329.613423,516.257627 253.109793,516.400556 175.834957,456.799096 Z" id="Path" fill="#CBCBFD" opacity="0.5"></path>
            <path d="M655.834957,505.262925 C594.138481,477.607611 419.700182,562.726362 386.846809,572 L480,572 L1351,572 C1316.29573,557.261539 1277.27271,557.42714 1262.15707,559.331548 C1238.55817,566.617978 1172.08022,575.229213 1094.65114,551.299915 C997.941916,521.408991 899.381796,530.599829 854.497609,535.153848 C809.613423,539.707867 733.109793,539.790667 655.834957,505.262925 Z" id="Path-Copy" fill="#CBCBFD" opacity="0.5"></path>
        </g>
    </g>
</svg>