<?xml version="1.0" encoding="utf-8"?>
<!-- Generator: Adobe Illustrator 23.1.1, SVG Export Plug-In . SVG Version: 6.00 Build 0)  -->
<svg version="1.1" id="Layer_1" xmlns="http://www.w3.org/2000/svg" xmlns:xlink="http://www.w3.org/1999/xlink" x="0px" y="0px"
	 viewBox="0 0 55 45" style="enable-background:new 0 0 55 45;" xml:space="preserve">
<style type="text/css">
	.st0{fill:#D1D2D9;}
	.st1{fill:#0063FF;}
	.st2{fill:#F4F5F8;}
	.st3{opacity:0.11;}
	.st4{fill:#336EE5;}
	.st5{fill:#FFFFFF;}
	.st6{enable-background:new    ;}
	.st7{fill:#2444A2;}
	.st8{fill:#122E7D;}
	.st9{fill:#0B266F;}
	.st10{fill:#0061FF;}
	.st11{fill:#0060FF;}
	.st12{fill:#005DFF;}
	.st13{fill:#CADEFC;}
	.st14{fill:none;}
	.st15{opacity:0.3;}
	.st16{clip-path:url(#SVGID_2_);enable-background:new    ;}
	.st17{fill:#E6F2FC;}
	.st18{fill:#E7F2FC;}
	.st19{fill:#E9F3FD;}
	.st20{fill:#EAF4FD;}
	.st21{fill:#EBF4FD;}
	.st22{fill:#ECF5FD;}
	.st23{clip-path:url(#SVGID_4_);enable-background:new    ;}
	.st24{fill:#E4F1FC;}
	.st25{fill:#EEF6FD;}
	.st26{fill:#E5F1FC;}
	.st27{fill:#F2F8FE;}
	.st28{clip-path:url(#SVGID_6_);}
	.st29{opacity:0.6;fill:#001959;}
	.st30{opacity:0.8392157;fill:#001959;}
	.st31{opacity:0.9372549;fill:#001959;}
	.st32{clip-path:url(#SVGID_8_);enable-background:new    ;}
	.st33{clip-path:url(#SVGID_10_);enable-background:new    ;}
	.st34{fill:#609FFC;}
	.st35{fill:#5C9DFC;}
	.st36{fill:#589AFC;}
	.st37{fill:#5498FC;}
	.st38{fill:#5095FD;}
	.st39{fill:#4C93FD;}
	.st40{fill:#4890FD;}
	.st41{fill:#448EFD;}
	.st42{fill:#5E9FFC;}
	.st43{fill:#3B88FD;}
	.st44{clip-path:url(#SVGID_12_);enable-background:new    ;}
	.st45{clip-path:url(#SVGID_14_);enable-background:new    ;}
	.st46{clip-path:url(#SVGID_16_);enable-background:new    ;}
	.st47{clip-path:url(#SVGID_18_);enable-background:new    ;}
	.st48{fill:#2E80FE;}
	.st49{clip-path:url(#SVGID_20_);enable-background:new    ;}
	.st50{fill:#00164D;}
	.st51{clip-path:url(#SVGID_22_);}
	.st52{fill:#E5E5E5;}
	.st53{fill:#BFBFBF;}
	.st54{fill:#001345;}
	.st55{fill:#000D30;}
	.st56{fill:#FF9D5C;}
	.st57{fill:#2176FC;}
	.st58{fill:#6DA2F5;}
	.st59{fill:#3582FA;}
	.st60{fill:#FCFCFC;}
	.st61{fill:#F5F5F5;}
	.st62{fill:#FAFAFA;}
	.st63{clip-path:url(#SVGID_32_);}
	.st64{clip-path:url(#SVGID_34_);}
	.st65{fill:#F37715;}
	.st66{fill:#F47D22;}
	.st67{fill:#F58D45;}
	.st68{clip-path:url(#SVGID_36_);enable-background:new    ;}
	.st69{clip-path:url(#SVGID_38_);enable-background:new    ;}
	.st70{clip-path:url(#SVGID_40_);enable-background:new    ;}
	.st71{clip-path:url(#SVGID_42_);enable-background:new    ;}
	.st72{clip-path:url(#SVGID_44_);enable-background:new    ;}
	.st73{clip-path:url(#SVGID_46_);enable-background:new    ;}
	.st74{fill:#F26D00;}
	.st75{fill:#2E7BFF;}
	.st76{opacity:0.6;fill:#0063FF;}
	.st77{opacity:0.6;}
	.st78{fill:none;stroke:#0063FF;stroke-width:0.1;stroke-miterlimit:10;}
	.st79{fill:none;stroke:#0063FF;stroke-width:0.1;stroke-miterlimit:10;stroke-dasharray:0.994576,0.994576;}
	.st80{fill:none;stroke:#001959;stroke-width:0.1;stroke-miterlimit:10;}
	.st81{fill:none;stroke:#001959;stroke-width:0.1;stroke-miterlimit:10;stroke-dasharray:0.994576,0.994576;}
	.st82{opacity:0.6;fill:none;stroke:#FFFFFF;stroke-miterlimit:10;stroke-dasharray:1;}
	.st83{clip-path:url(#SVGID_48_);enable-background:new    ;}
	.st84{clip-path:url(#SVGID_50_);enable-background:new    ;}
	.st85{clip-path:url(#SVGID_52_);}
	.st86{clip-path:url(#SVGID_54_);enable-background:new    ;}
	.st87{clip-path:url(#SVGID_56_);enable-background:new    ;}
	.st88{clip-path:url(#SVGID_58_);enable-background:new    ;}
	.st89{clip-path:url(#SVGID_60_);enable-background:new    ;}
	.st90{clip-path:url(#SVGID_62_);enable-background:new    ;}
	.st91{clip-path:url(#SVGID_64_);enable-background:new    ;}
	.st92{clip-path:url(#SVGID_66_);enable-background:new    ;}
	.st93{fill:#002883;}
	.st94{clip-path:url(#SVGID_68_);}
	.st95{clip-path:url(#SVGID_70_);}
	.st96{clip-path:url(#SVGID_72_);enable-background:new    ;}
	.st97{clip-path:url(#SVGID_74_);enable-background:new    ;}
	.st98{clip-path:url(#SVGID_76_);}
	.st99{clip-path:url(#SVGID_78_);enable-background:new    ;}
	.st100{clip-path:url(#SVGID_80_);enable-background:new    ;}
	.st101{clip-path:url(#SVGID_82_);enable-background:new    ;}
	.st102{clip-path:url(#SVGID_84_);enable-background:new    ;}
	.st103{clip-path:url(#SVGID_86_);enable-background:new    ;}
	.st104{clip-path:url(#SVGID_88_);enable-background:new    ;}
	.st105{clip-path:url(#SVGID_90_);enable-background:new    ;}
	.st106{clip-path:url(#SVGID_92_);}
	.st107{clip-path:url(#SVGID_94_);enable-background:new    ;}
	.st108{clip-path:url(#SVGID_96_);enable-background:new    ;}
	.st109{clip-path:url(#SVGID_98_);enable-background:new    ;}
	.st110{clip-path:url(#SVGID_100_);enable-background:new    ;}
	.st111{clip-path:url(#SVGID_102_);enable-background:new    ;}
	.st112{clip-path:url(#SVGID_104_);enable-background:new    ;}
	.st113{opacity:0.3;fill:#2E7BFF;}
	.st114{clip-path:url(#SVGID_106_);enable-background:new    ;}
	.st115{clip-path:url(#SVGID_108_);enable-background:new    ;}
	.st116{clip-path:url(#SVGID_110_);enable-background:new    ;}
	.st117{clip-path:url(#SVGID_112_);enable-background:new    ;}
	.st118{clip-path:url(#SVGID_114_);enable-background:new    ;}
	.st119{clip-path:url(#SVGID_116_);enable-background:new    ;}
	.st120{fill:#1BE0E6;}
	.st121{fill:#2CE3E8;}
	.st122{fill:#37E5EA;}
	.st123{fill:#53EBEE;}
	.st124{clip-path:url(#SVGID_118_);enable-background:new    ;}
	.st125{clip-path:url(#SVGID_120_);enable-background:new    ;}
	.st126{clip-path:url(#SVGID_122_);enable-background:new    ;}
	.st127{clip-path:url(#SVGID_124_);enable-background:new    ;}
	.st128{clip-path:url(#SVGID_126_);enable-background:new    ;}
	.st129{clip-path:url(#SVGID_128_);enable-background:new    ;}
	.st130{clip-path:url(#SVGID_130_);}
	.st131{clip-path:url(#SVGID_132_);enable-background:new    ;}
	.st132{clip-path:url(#SVGID_134_);enable-background:new    ;}
	.st133{clip-path:url(#SVGID_136_);enable-background:new    ;}
	.st134{clip-path:url(#SVGID_138_);enable-background:new    ;}
	.st135{clip-path:url(#SVGID_140_);enable-background:new    ;}
	.st136{clip-path:url(#SVGID_142_);enable-background:new    ;}
	.st137{clip-path:url(#SVGID_144_);enable-background:new    ;}
	.st138{clip-path:url(#SVGID_146_);enable-background:new    ;}
	.st139{clip-path:url(#SVGID_148_);}
	.st140{clip-path:url(#SVGID_150_);enable-background:new    ;}
	.st141{clip-path:url(#SVGID_152_);enable-background:new    ;}
	.st142{clip-path:url(#SVGID_154_);enable-background:new    ;}
	.st143{clip-path:url(#SVGID_156_);enable-background:new    ;}
	.st144{clip-path:url(#SVGID_158_);enable-background:new    ;}
	.st145{clip-path:url(#SVGID_160_);enable-background:new    ;}
	.st146{clip-path:url(#SVGID_162_);enable-background:new    ;}
	.st147{clip-path:url(#SVGID_164_);}
	.st148{clip-path:url(#SVGID_170_);}
	.st149{clip-path:url(#SVGID_172_);enable-background:new    ;}
	.st150{clip-path:url(#SVGID_174_);enable-background:new    ;}
	.st151{clip-path:url(#SVGID_176_);enable-background:new    ;}
	.st152{clip-path:url(#SVGID_178_);enable-background:new    ;}
	.st153{clip-path:url(#SVGID_180_);enable-background:new    ;}
	.st154{clip-path:url(#SVGID_182_);enable-background:new    ;}
	.st155{clip-path:url(#SVGID_184_);}
	.st156{clip-path:url(#SVGID_186_);enable-background:new    ;}
	.st157{clip-path:url(#SVGID_188_);enable-background:new    ;}
	.st158{clip-path:url(#SVGID_190_);enable-background:new    ;}
	.st159{clip-path:url(#SVGID_192_);enable-background:new    ;}
	.st160{clip-path:url(#SVGID_194_);enable-background:new    ;}
	.st161{clip-path:url(#SVGID_196_);enable-background:new    ;}
	.st162{clip-path:url(#SVGID_198_);enable-background:new    ;}
	.st163{clip-path:url(#SVGID_200_);enable-background:new    ;}
	.st164{clip-path:url(#SVGID_202_);enable-background:new    ;}
	.st165{clip-path:url(#SVGID_204_);enable-background:new    ;}
	.st166{clip-path:url(#SVGID_206_);enable-background:new    ;}
	.st167{clip-path:url(#SVGID_208_);enable-background:new    ;}
	.st168{clip-path:url(#SVGID_210_);enable-background:new    ;}
	.st169{clip-path:url(#SVGID_212_);enable-background:new    ;}
	.st170{clip-path:url(#SVGID_214_);}
	.st171{clip-path:url(#SVGID_216_);enable-background:new    ;}
	.st172{clip-path:url(#SVGID_218_);enable-background:new    ;}
	.st173{clip-path:url(#SVGID_220_);enable-background:new    ;}
	.st174{clip-path:url(#SVGID_222_);enable-background:new    ;}
	.st175{clip-path:url(#SVGID_224_);enable-background:new    ;}
	.st176{clip-path:url(#SVGID_226_);enable-background:new    ;}
	.st177{clip-path:url(#SVGID_228_);enable-background:new    ;}
	.st178{clip-path:url(#SVGID_230_);}
	.st179{clip-path:url(#SVGID_236_);}
	.st180{clip-path:url(#SVGID_238_);enable-background:new    ;}
	.st181{clip-path:url(#SVGID_240_);enable-background:new    ;}
	.st182{clip-path:url(#SVGID_242_);enable-background:new    ;}
	.st183{clip-path:url(#SVGID_244_);enable-background:new    ;}
	.st184{clip-path:url(#SVGID_246_);enable-background:new    ;}
	.st185{clip-path:url(#SVGID_248_);enable-background:new    ;}
	.st186{clip-path:url(#SVGID_250_);enable-background:new    ;}
	.st187{clip-path:url(#SVGID_252_);enable-background:new    ;}
	.st188{clip-path:url(#SVGID_254_);enable-background:new    ;}
	.st189{clip-path:url(#SVGID_256_);enable-background:new    ;}
	.st190{clip-path:url(#SVGID_258_);enable-background:new    ;}
	.st191{clip-path:url(#SVGID_260_);enable-background:new    ;}
	.st192{fill:#1B77F9;}
	.st193{fill:#0D6DFC;}
	.st194{clip-path:url(#SVGID_262_);enable-background:new    ;}
	.st195{fill:#1C78F9;}
	.st196{clip-path:url(#SVGID_264_);enable-background:new    ;}
	.st197{fill:#1975FA;}
	.st198{fill:#1874FA;}
	.st199{fill:#1673FA;}
	.st200{fill:#1572FA;}
	.st201{fill:#1472FB;}
	.st202{fill:#1371FB;}
	.st203{fill:#1270FB;}
	.st204{fill:#116FFB;}
	.st205{fill:#0869FD;}
	.st206{fill:none;stroke:url(#SVGID_265_);stroke-miterlimit:10;}
	.st207{fill:none;stroke:url(#SVGID_266_);stroke-miterlimit:10;}
	.st208{fill:none;stroke:url(#SVGID_267_);stroke-miterlimit:10;}
	.st209{fill:none;stroke:url(#SVGID_268_);stroke-miterlimit:10;}
	.st210{fill:none;stroke:url(#SVGID_269_);stroke-miterlimit:10;}
	.st211{fill:none;stroke:url(#SVGID_270_);stroke-miterlimit:10;}
	.st212{fill:none;stroke:url(#SVGID_271_);stroke-miterlimit:10;}
	.st213{fill:#004ED6;}
	.st214{opacity:0.6;fill:#14BBC4;}
	.st215{opacity:0.2;fill:#03002D;}
	.st216{opacity:0.3;fill:#0F054C;}
	.st217{fill:url(#SVGID_272_);}
	.st218{fill:#01266D;}
	.st219{fill:#023381;}
	.st220{fill:#012165;}
	.st221{fill:#0161F4;}
	.st222{clip-path:url(#SVGID_274_);}
	.st223{fill:#003AAC;}
	.st224{fill:#5C95FF;}
	.st225{fill:#015FED;}
	.st226{fill:#025BDA;}
	.st227{fill:#001959;}
	.st228{fill:#5B95FF;}
	.st229{fill:none;stroke:#FFFFFF;stroke-width:1.5;stroke-miterlimit:10;}
	.st230{fill:none;stroke:#FFFFFF;stroke-width:1.5;stroke-linecap:round;stroke-miterlimit:10;}
	.st231{fill:none;stroke:#0063FF;stroke-width:1.5;stroke-miterlimit:10;}
	.st232{fill:none;stroke:#0063FF;stroke-width:1.5;stroke-linecap:round;stroke-miterlimit:10;}
	.st233{fill:none;stroke:#FFFFFF;stroke-linecap:round;stroke-miterlimit:10;}
	.st234{fill:none;stroke:#0063FF;stroke-linecap:round;stroke-miterlimit:10;}
	.st235{opacity:0.53;}
	.st236{opacity:0.45;fill:url(#SVGID_275_);}
	.st237{opacity:0.57;}
	.st238{fill:#E2EDFF;}
	.st239{clip-path:url(#SVGID_277_);enable-background:new    ;}
	.st240{fill:#A7C9FF;}
	.st241{fill:#ABCCFF;}
	.st242{fill:#B0CEFF;}
	.st243{fill:#B4D1FF;}
	.st244{fill:#B8D4FF;}
	.st245{fill:#BCD6FF;}
	.st246{fill:#C0D9FF;}
	.st247{fill:#C4DBFF;}
	.st248{fill:#A3C7FF;}
	.st249{fill:#9FC4FF;}
	.st250{fill:#9BC2FF;}
	.st251{opacity:0.4;}
	.st252{clip-path:url(#SVGID_279_);enable-background:new    ;}
	.st253{clip-path:url(#SVGID_281_);enable-background:new    ;}
	.st254{clip-path:url(#SVGID_283_);enable-background:new    ;}
	.st255{opacity:0.45;fill:url(#SVGID_284_);}
	.st256{clip-path:url(#SVGID_286_);enable-background:new    ;}
	.st257{clip-path:url(#SVGID_288_);enable-background:new    ;}
	.st258{clip-path:url(#SVGID_290_);enable-background:new    ;}
	.st259{clip-path:url(#SVGID_292_);enable-background:new    ;}
	.st260{opacity:0.45;fill:url(#SVGID_293_);}
	.st261{clip-path:url(#SVGID_295_);enable-background:new    ;}
	.st262{clip-path:url(#SVGID_297_);enable-background:new    ;}
	.st263{clip-path:url(#SVGID_299_);enable-background:new    ;}
	.st264{clip-path:url(#SVGID_301_);}
	.st265{fill:#98999B;}
	.st266{clip-path:url(#SVGID_303_);}
	.st267{clip-path:url(#SVGID_305_);}
	.st268{clip-path:url(#SVGID_309_);enable-background:new    ;}
	.st269{fill:#4096FF;}
	.st270{fill:#1271FF;}
	.st271{clip-path:url(#SVGID_311_);}
	.st272{fill:#1D7AFF;}
	.st273{fill:#2D87FF;}
	.st274{fill:none;stroke:#FFFFFF;stroke-width:6;stroke-linecap:round;stroke-miterlimit:10;}
	.st275{clip-path:url(#SVGID_313_);enable-background:new    ;}
	.st276{fill:#057CFF;}
	.st277{fill:#057BFF;}
	.st278{fill:#057AFF;}
	.st279{fill:#0579FF;}
	.st280{fill:#0478FF;}
	.st281{fill:#0477FF;}
	.st282{fill:#0476FF;}
	.st283{fill:#0475FF;}
	.st284{fill:#0372FF;}
	.st285{clip-path:url(#SVGID_315_);enable-background:new    ;}
	.st286{clip-path:url(#SVGID_317_);enable-background:new    ;}
	.st287{clip-path:url(#SVGID_319_);enable-background:new    ;}
	.st288{clip-path:url(#SVGID_321_);enable-background:new    ;}
	.st289{fill:#036FFF;}
	.st290{clip-path:url(#SVGID_323_);enable-background:new    ;}
	.st291{clip-path:url(#SVGID_325_);enable-background:new    ;}
	.st292{clip-path:url(#SVGID_327_);enable-background:new    ;}
	.st293{clip-path:url(#SVGID_329_);enable-background:new    ;}
	.st294{clip-path:url(#SVGID_331_);enable-background:new    ;}
	.st295{clip-path:url(#SVGID_333_);enable-background:new    ;}
	.st296{clip-path:url(#SVGID_335_);enable-background:new    ;}
	.st297{fill:none;stroke:#0063FF;stroke-linecap:round;stroke-miterlimit:10;stroke-dasharray:8,6;}
	.st298{fill:#6976F4;stroke:#6976F4;}
	.st299{fill:none;stroke:#6976F4;stroke-width:2;}
	.st300{fill:#E3147C;}
	.st301{fill:none;stroke:#E3147C;}
	.st302{fill:#684FF1;}
	.st303{fill:none;stroke:#001959;stroke-width:2;stroke-miterlimit:10;}
	.st304{fill:#6976F4;}
	.st305{fill:none;stroke:#E3147C;stroke-width:2;stroke-miterlimit:10;}
	.st306{opacity:0.22;fill:#684FF1;}
	.st307{fill:none;stroke:#684FF1;stroke-width:2;stroke-miterlimit:10;}
	.st308{fill:none;stroke:#FFFFFF;stroke-width:1.5;stroke-linecap:round;stroke-linejoin:round;}
	.st309{fill:none;stroke:#FFFFFF;stroke-width:2;stroke-linecap:round;stroke-linejoin:round;}
	.st310{fill-rule:evenodd;clip-rule:evenodd;fill:#D1D2D9;}
	.st311{fill:none;stroke:#0063FF;stroke-width:1.5;stroke-linecap:round;stroke-linejoin:round;}
	.st312{fill:none;stroke:#0063FF;stroke-width:2;stroke-linecap:round;stroke-linejoin:round;}
	.st313{fill-rule:evenodd;clip-rule:evenodd;fill:#001959;}
	.st314{fill:#003659;}
	.st315{fill:none;stroke:#000000;stroke-width:2;stroke-linecap:round;stroke-linejoin:round;}
	.st316{fill:#EFEFF2;}
	.st317{opacity:0.22;fill:#0063FF;}
	.st318{fill-rule:evenodd;clip-rule:evenodd;fill:#B8CFFF;}
	.st319{fill-rule:evenodd;clip-rule:evenodd;fill:#FFFFFF;}
	.st320{fill-rule:evenodd;clip-rule:evenodd;fill:#5CBFAB;}
	.st321{fill-rule:evenodd;clip-rule:evenodd;fill:#0063FF;}
	.st322{fill-rule:evenodd;clip-rule:evenodd;fill:#FEFEFE;}
	.st323{opacity:0.05;}
	.st324{opacity:0.05;enable-background:new    ;}
	.st325{fill-rule:evenodd;clip-rule:evenodd;fill:#EEF8FF;}
	.st326{fill:#FEFEFE;}
	.st327{fill-rule:evenodd;clip-rule:evenodd;fill:#FFFFFF;stroke:#001959;stroke-width:11;}
	.st328{fill:none;stroke:#0063FF;stroke-width:3;}
	.st329{fill:none;stroke:#0063FF;stroke-linecap:round;stroke-dasharray:3;}
	.st330{fill:none;stroke:#001959;stroke-width:2;stroke-linecap:square;}
	.st331{fill:none;stroke:#FFFFFF;stroke-width:9;}
	.st332{fill:none;stroke:#001959;stroke-width:3;}
	.st333{fill-rule:evenodd;clip-rule:evenodd;fill:#FEFEFE;stroke:#001959;stroke-width:11;}
	.st334{opacity:0.1;}
	.st335{opacity:0.1;fill-rule:evenodd;clip-rule:evenodd;fill:#0063FF;enable-background:new    ;}
	.st336{fill-rule:evenodd;clip-rule:evenodd;fill:#FEFEFE;stroke:#001959;}
	.st337{fill:#FEFEFE;stroke:#001959;}
	.st338{fill-rule:evenodd;clip-rule:evenodd;fill:#FEFEFE;stroke:#001959;stroke-width:2;}
	.st339{fill-rule:evenodd;clip-rule:evenodd;fill:#FEFEFE;stroke:#001959;stroke-linecap:round;}
	.st340{fill:none;stroke:#001959;stroke-width:2;stroke-linecap:round;}
	.st341{fill:none;stroke:#001959;}
	.st342{fill:none;stroke:#0063FF;stroke-width:2;}
	.st343{fill:#B8CFFF;}
	.st344{opacity:0.3;fill-rule:evenodd;clip-rule:evenodd;fill:#B8CFFF;enable-background:new    ;}
	.st345{fill-rule:evenodd;clip-rule:evenodd;fill:#E49D7D;}
	.st346{opacity:0.2;fill-rule:evenodd;clip-rule:evenodd;fill:#0063FF;enable-background:new    ;}
	.st347{fill-rule:evenodd;clip-rule:evenodd;fill:#FFDECC;}
	.st348{opacity:0.2;fill-rule:evenodd;clip-rule:evenodd;enable-background:new    ;}
	.st349{opacity:0.05;fill-rule:evenodd;clip-rule:evenodd;enable-background:new    ;}
	.st350{opacity:0.1;fill-rule:evenodd;clip-rule:evenodd;enable-background:new    ;}
	.st351{fill:none;stroke:#0063FF;stroke-width:2;stroke-linecap:square;stroke-dasharray:5,6;}
	.st352{fill:none;stroke:#0063FF;}
	.st353{fill-rule:evenodd;clip-rule:evenodd;fill:#10048A;}
	.st354{fill-rule:evenodd;clip-rule:evenodd;fill:#9F6E53;}
	.st355{fill-rule:evenodd;clip-rule:evenodd;fill:#020202;}
	.st356{fill-rule:evenodd;clip-rule:evenodd;fill:#B8CFFF;stroke:#001959;}
	.st357{fill:none;stroke:#001959;stroke-dasharray:2.7953999,2.7953999;}
	.st358{fill:none;stroke:#001959;stroke-dasharray:3.0797,3.0797;}
	.st359{fill:none;stroke:#001959;stroke-dasharray:2.868,2.868;}
	.st360{fill:none;stroke:#001959;stroke-dasharray:2.8852,2.8852;}
	.st361{fill:none;stroke:#001959;stroke-dasharray:2.8276,2.8276;}
	.st362{fill:none;stroke:#001959;stroke-dasharray:3.0137,3.0137;}
	.st363{fill:none;stroke:#001959;stroke-dasharray:2.8104,2.8104;}
	.st364{fill:none;stroke:#B8CFFF;}
	.st365{fill-rule:evenodd;clip-rule:evenodd;fill:#0F0CA3;}
	.st366{fill-rule:evenodd;clip-rule:evenodd;fill:#002883;}
	.st367{fill-rule:evenodd;clip-rule:evenodd;fill:#003AAC;}
	.st368{opacity:0.3;fill-rule:evenodd;clip-rule:evenodd;fill:#524F63;enable-background:new    ;}
	.st369{opacity:0.6;fill-rule:evenodd;clip-rule:evenodd;fill:#B8CFFF;enable-background:new    ;}
	.st370{opacity:0.3;enable-background:new    ;}
	.st371{opacity:0.2;enable-background:new    ;}
	.st372{fill-rule:evenodd;clip-rule:evenodd;}
	.st373{opacity:0.1;enable-background:new    ;}
	.st374{fill-rule:evenodd;clip-rule:evenodd;fill:#524F63;}
	.st375{opacity:0.6;enable-background:new    ;}
	.st376{fill:none;stroke:#001959;stroke-width:2;}
	.st377{fill-rule:evenodd;clip-rule:evenodd;fill:none;stroke:#001959;stroke-width:2;}
	.st378{fill-rule:evenodd;clip-rule:evenodd;fill:none;stroke:#001959;stroke-width:3;}
	.st379{opacity:0.5;fill-rule:evenodd;clip-rule:evenodd;fill:#B8CFFF;enable-background:new    ;}
	.st380{fill:#FEFEFF;}
	.st381{fill:#356FE5;}
</style>
<g id="PLow-3_2_">
	<g id="COMMUNICATION-02-Copy_2_" transform="translate(13.000000, 12.000000)">
		<g id="Oval_10_">
			<circle class="st319" cx="-7.8986664" cy="7.7803741" r="0.9625083"/>
		</g>
		<g>
			<circle class="st319" cx="-5.3961449" cy="7.7803741" r="0.9625083"/>
		</g>
		<g id="Group_11_" transform="translate(25.000000, 0.000000)">
			<g id="Path_16_" class="st370">
				<path class="st318" d="M12.6478262,22.4393768c0-2.8091602-1.1896858-5.2820873-3.0233335-6.778861
					c0.0218277-0.2820005,0.0436583-0.5748472,0.0436583-0.8676939c0-4.5553942-3.1433973-8.2539406-7.0289841-8.2539406
					c-1.2442582,0-2.4012039,0.3796163-3.4162583,1.0412331c-2.7504716-2.0933118-6.3413639-3.3623147-10.2706079-3.3623147
					c-6.3850241,0-11.8859663,3.3514686-14.3199148,8.1671705c-0.1309738-0.0108461-0.2728634-0.0108461-0.414753-0.0108461
					c-3.8855858,0-7.0289803,3.6985455-7.0289803,8.2539387c0,1.6811581,0.4256668,3.2321606,1.1569424,4.5337029
					c0,4.0998535,3.3507729,7.4187851,7.4655647,7.4187851H5.7389059c3.2416277,0,5.8720379-2.6139278,5.8720379-5.8352432
					C12.2658186,25.4979973,12.6478262,24.0120716,12.6478262,22.4393768z"/>
			</g>
			<g transform="translate(43.968326, 0.000000)">
				<g>
					<path class="st319" d="M-58.0341759,4.0225692v3.8720846c0,0.2060771-0.1964645,0.3687701-0.4474983,0.3687701h-9.3974457
						c-0.2401199,0-0.4474945-0.162693-0.4474945-0.3687701V4.0225692c0-0.2060776,0.1964645-0.4121549,0.4474945-0.4121549
						h9.3974457C-58.2306404,3.6104143-58.0341759,3.8164916-58.0341759,4.0225692z"/>
				</g>
				<g>
					<path class="st318" d="M-58.0341759,4.0442615v1.0846176h-10.2815285V4.0442615
						c0-0.238616,0.1964645-0.4446933,0.4475021-0.4446933l0,0h9.3974419
						C-58.2306404,3.6104143-58.0341759,3.8056455-58.0341759,4.0442615L-58.0341759,4.0442615z"/>
				</g>
				<g>
					<ellipse class="st319" cx="-67.7590561" cy="4.3696465" rx="0.2946934" ry="0.2928467"/>
				</g>
				<g>
					<ellipse class="st319" cx="-66.8858948" cy="4.3696465" rx="0.2946933" ry="0.2928467"/>
				</g>
				<g>
					<ellipse class="st319" cx="-66.0236435" cy="4.3696465" rx="0.2946933" ry="0.2928467"/>
				</g>
				<g>
					<ellipse class="st318" cx="-66.2855911" cy="6.6690359" rx="1.1569443" ry="1.1496946"/>
				</g>
				<g id="Rectangle_14_">
					<rect x="-63.8079834" y="5.8989577" class="st321" width="4.8897266" height="0.1925017"/>
				</g>
				<g>
					<rect x="-63.8079834" y="6.3111124" class="st318" width="4.8897266" height="0.1925017"/>
				</g>
				<g>
					<rect x="-63.8079834" y="6.7341132" class="st318" width="4.8897266" height="0.1925017"/>
				</g>
				<g>
					<rect x="-63.8079834" y="7.157114" class="st318" width="4.8897266" height="0.1925017"/>
				</g>
			</g>
			<g transform="translate(102.057416, 18.029851)">
				<g>
					<path class="st319" d="M-92.9677429-10.1135054V4.7999864c0,0.4446931-0.4256668,0.8026171-0.9604797,0.8026171h-20.3775024
						c-0.5348129,0-0.9604797-0.357924-0.9604797-0.8026171v-14.9134922c0-0.4446936,0.4256668-0.9002333,0.9604797-0.9002333
						h20.3665848C-93.4043198-11.0028915-92.9677429-10.5581989-92.9677429-10.1135054z"/>
				</g>
				<g>
					<path class="st318" d="M-92.9677429-10.0484285v2.3427739h-22.2984619v-2.3427739
						c0-0.5314627,0.4256668-0.954463,0.9604797-0.954463l0,0h20.3665848
						C-93.4043198-11.0137386-92.9677429-10.5798912-92.9677429-10.0484285L-92.9677429-10.0484285z"/>
				</g>
				<g>
					<ellipse class="st319" cx="-110.3000717" cy="-9.3542728" rx="0.6439595" ry="0.6399245"/>
				</g>
				<g>
					<path class="st321" d="M-99.7893448,0.2879773c0-0.1084621,0.0327454-0.2277696,0.0873184-0.3253856
						c0.0218277-0.0325384,0.0327377-0.0542307,0.0545731-0.0867691c0.4802399-0.7050018,0.7313156-1.5293112,0.7313156-2.3753126
						c0.0108719-2.4295433-2.0519791-4.4035473-4.6059875-4.4035473c-2.2265778,0-4.0820541,1.5076189-4.518631,3.5033152
						c-0.0654907,0.2928464-0.0982361,0.5965397-0.0982361,0.9002323c0,2.4295433,1.9864502,4.457778,4.5295486,4.457778
						c0.4038391,0,0.9495697-0.1193075,1.2551727-0.2060765c0.3056107-0.0867707,0.6003036-0.195232,0.6767044-0.2169243
						c0.0764008-0.0325384,0.1637192-0.0433846,0.2510376-0.0433846s0.1855469,0.0216923,0.2728653,0.0542307l1.5062103,0.5314622
						c0.0327377,0.0108461,0.0654831,0.0216923,0.0982285,0.0216923c0.1200638,0,0.2073746-0.0976152,0.2073746-0.2060766l0,0
						c0-0.0216923-0.01091-0.0433846-0.01091-0.075923L-99.7893448,0.2879773z"/>
				</g>
				<g>
					<path class="st321" d="M-102.7690201,2.1860585c-0.0982361,0.0216923-0.2182922,0.0542307-0.3492661,0.0867691
						c-0.2728653,0.0542307-0.633049,0.1193075-0.9059143,0.1193075c-2.5540085,0-4.529541-2.0173888-4.529541-4.457778
						c0-0.1843851,0.01091-0.3796163,0.0436554-0.5640006c0.0109177-0.1084621,0.0327454-0.2277703,0.0654907-0.3362317
						c0.0218277-0.1193082,0.0545731-0.2386158,0.0982285-0.357924l-0.2073746,0.1843851
						c-0.8622513,0.7375402-1.3643265,1.8113114-1.3643265,2.95016c0,0.7700779,0.2292099,1.518465,0.6548767,2.1583886
						c0.0654907,0.0976152,0.0982285,0.1626935,0.0873184,0.2060781c-0.0109177,0.0433846-0.3165207,1.6377726-0.3165207,1.6377726
						c-0.0109177,0.075923,0.01091,0.1518459,0.0764008,0.2060766c0.0436554,0.0325384,0.0873108,0.0433846,0.1309738,0.0433846
						c0.0218277,0,0.0545731,0,0.0764008-0.0108461l1.4843826-0.5856929
						c0.0982285-0.0433846,0.2182922-0.0433846,0.3165207,0.0108461c0.5129852,0.2060766,1.0587158,0.3145394,1.6044388,0.3145394
						c1.222435,0,2.3902969-0.5206175,3.1870575-1.4533882c0,0,0.0873184-0.1193075,0.1855469-0.2494626
						C-102.5398178,2.1209817-102.659874,2.1535201-102.7690201,2.1860585L-102.7690201,2.1860585z"/>
				</g>
			</g>
			<g transform="translate(26.253231, 21.973881)">
				<g>
					<path class="st319" d="M-43.7292671-13.721303v3.8720846c0,0.2060776-0.1964607,0.3687696-0.4474983,0.3687696h-9.3974419
						c-0.2401199,0-0.4474983-0.1626921-0.4474983-0.3687696v-3.8720846c0-0.2060776,0.1964645-0.4121552,0.4474983-0.4121552
						h9.3974419C-43.9257278-14.1334581-43.7292671-13.9273806-43.7292671-13.721303z"/>
				</g>
				<g>
					<path class="st318" d="M-43.7292671-13.6887646v1.0846176h-10.2815247v-1.0846176
						c0-0.238616,0.1964645-0.4446936,0.4474983-0.4446936h9.3974457
						C-43.9257278-14.1334581-43.7292671-13.9382267-43.7292671-13.6887646z"/>
				</g>
				<g>
					<ellipse class="st319" cx="-53.4432335" cy="-13.3742256" rx="0.2946933" ry="0.2928467"/>
				</g>
				<g>
					
						<ellipse transform="matrix(0.1601975 -0.987085 0.987085 0.1601975 -30.9606647 -63.1378098)" class="st319" cx="-52.5857124" cy="-13.3736696" rx="0.2929" ry="0.2946519"/>
				</g>
				<g>
					<ellipse class="st319" cx="-51.7187309" cy="-13.3742256" rx="0.2946933" ry="0.2928467"/>
				</g>
				<g>
					<ellipse class="st321" cx="-45.7484627" cy="-11.0639906" rx="1.1569443" ry="1.1496946"/>
				</g>
				<g>
					<rect x="-53.126709" y="-11.8449144" class="st321" width="4.8897266" height="0.1925017"/>
				</g>
				<g>
					<rect x="-53.126709" y="-11.4219141" class="st318" width="4.8897266" height="0.1925017"/>
				</g>
				<g>
					<rect x="-53.126709" y="-10.9989128" class="st318" width="4.8897266" height="0.1925017"/>
				</g>
				<g>
					<rect x="-53.126709" y="-10.5867586" class="st318" width="4.8897266" height="0.1925017"/>
				</g>
			</g>
		</g>
		<g transform="translate(202.000000, 44.000000)">
			<g>
				<path class="st318" d="M-163.749649-14.1588326c0,0.0766945,0.5914459,0.1424303,1.3334503,0.1424303
					c0.7419891,0,1.3334351-0.0657358,1.3334351-0.1424303c0-0.0766935-0.5914459-0.1424303-1.3334351-0.1424303
					C-163.1582031-14.3012629-163.749649-14.2355261-163.749649-14.1588326z"/>
			</g>
			<g transform="translate(44.131034, 67.159574)">
				<g>
					<path class="st321" d="M-206.2999115-81.2855377c0,0,1.1828918-1.3147507,1.5162506-2.1035919
						c0.3333588-0.7888489-0.2150726-0.931282-0.483902-0.514946c-0.2688446,0.4163361-0.7742615,1.3585739-0.9140625,0.2300797
						c-0.1397858-1.1284866,0.0430145-1.3695221-0.1182861-1.5119553c-0.1720581-0.1424332-0.3763733-0.0438232-0.5269165,0.4930267
						c-0.1505585,0.5368576-0.677475,0.6464233-0.817276,0.1424332c-0.1397858-0.5149384-0.483902-1.6324768-0.9893188-1.5776901
						c-0.5054169,0.0657349,0.0107422,0.8764954,0,1.3476105c-0.0107574,0.4601593-0.4193878,0.3834686-0.7420044-0.0328674
						c-0.3226013-0.4163361-1.4087067-1.7091675-1.8926239-1.314743c-0.483902,0.383461,0.193573,0.898407,0,1.3914337
						c-0.1935577,0.4930344-0.1720428,1.3037872,0.7527618,0.9860611c0.9248047-0.306778,0.8602753,0.569725,0.9140472,0.7231064
						c0.0430145,0.153389,0.2688293,0.6792908,0.8495331,0.4163361c0.5806885-0.2629471,0.8925323-0.1424255,0.6774597,0.0766983
						c-0.2150574,0.2191238-0.5914307,0.4492035-0.3978729,0.569725c0.1935577,0.1205139,0.9570618-0.2739105,1.2689209-0.0657425
						c0.3226013,0.2191238,0.4408875,0.723114,0.4408875,0.723114h0.4624023V-81.2855377z"/>
				</g>
				<g>
					<path class="st313" d="M-210.8486633-84.988739c0.2043304,0.153389,0.4193878,0.3067703,0.6344604,0.4492035
						s0.4301453,0.2848663,0.6559753,0.4053802c0.1075287,0.0657349,0.2258148,0.1205215,0.3441162,0.1643448
						c0.1182861,0.0438232,0.2365723,0.0876465,0.3548584,0.1314774l0.7312469,0.2410355
						c0.2473297,0.0876465,0.483902,0.1753006,0.7204895,0.2958145c0.2258148,0.1205215,0.4624023,0.2519913,0.6344452,0.4711151
						c0.0430145,0.0547867,0.0752869,0.1095657,0.1075439,0.1753006c0.0214996,0.0657349,0.0430145,0.1314774,0.0430145,0.1972122
						c0.0107574,0.1314774,0.0322571,0.2629471,0.0430145,0.3944244c0.0107574,0.2629471,0.0322571,0.5259018,0,0.7888489
						c0.0107574-0.2629471-0.0215149-0.5259018-0.053772-0.7778931c-0.0107574-0.1314774-0.0322571-0.2629471-0.053772-0.3834686
						c-0.0107422-0.1314697-0.0645142-0.2410355-0.1505432-0.3396378c-0.1613007-0.1862564-0.3763733-0.3286896-0.6129456-0.4382477
						c-0.2258301-0.1095657-0.4731598-0.1972122-0.7097473-0.2848663l-0.7312317-0.2519913
						c-0.1182861-0.0438232-0.2473297-0.0876465-0.3656158-0.1424332c-0.1183014-0.0547791-0.2365875-0.1095581-0.3441162-0.1862564
						C-210.0421448-84.3313675-210.4615326-84.6490936-210.8486633-84.988739z"/>
				</g>
			</g>
			<g>
				<ellipse class="st318" cx="-168.0080414" cy="-12.7454815" rx="7.7748103" ry="0.8326719"/>
			</g>
			<g>
				<ellipse class="st318" cx="-172.212677" cy="-11.5731659" rx="1.3334392" ry="0.1925017"/>
			</g>
			<g>
				<polygon class="st313" points="-173.3955688,-18.4098415 -168.4489441,-18.4098415 -166.5563202,-19.483551 
					-170.5673828,-19.483551 				"/>
			</g>
			<g>
				<path class="st321" d="M-173.3955688-24.8959198v6.4860783h0.6559601v-0.2519932l2.172226-0.8217163v-6.2779102
					C-170.5673828-25.7614613-171.9008331-27.350111-173.3955688-24.8959198z"/>
			</g>
			<g>
				<path class="st313" d="M-172.7396088-25.0054817v6.343647l2.828186-0.9422359v-6.2779083
					C-169.9114227-25.881979-171.2448578-27.4596729-172.7396088-25.0054817z"/>
			</g>
			<g>
				<rect x="-173.3955688" y="-18.4098415" class="st321" width="4.9466295" height="0.8436282"/>
			</g>
			<g>
				<polygon class="st318" points="-166.5563202,-19.483551 -166.5563202,-18.7933102 -168.4489441,-17.5662136 
					-168.4489441,-18.4098415 				"/>
			</g>
			<g>
				<polygon class="st313" points="-166.5872192,-15.1693563 -166.7364349,-15.1693563 -166.7364349,-18.7849064 
					-166.5872192,-18.7849064 				"/>
			</g>
			<g>
				<path class="st366" d="M-170.1910095-21.893919c0,0,1.9571381,1.1284904,3.032486,1.2380524
					c1.0753632,0.1095619,0.8495331,2.1583748,0.8925476,2.5308857c0.0322571,0.3615551,0.2688446,2.7171412,0.2688446,2.7171412
					s-0.2796021,0.2191238-0.5484314,0.0986042c0,0-1.3979645-3.5607672-1.6345367-4.9741201
					c0,0-2.1829681-0.8874531-3.1185303-1.8187294C-171.3093872-22.1020851-170.7071838-21.8720055-170.1910095-21.893919z"/>
			</g>
			<g>
				<path class="st313" d="M-171.5997314-22.2335606c0,0-1.387207,1.6653442,0,2.936264
					c1.0430908,0.7998047,3.5379181,0.887455,3.5379181,0.887455s-0.3226013,2.6075783,0.1290436,4.2400532
					c0,0,0.2688293,0.2519932,0.6989746,0.0766935c0,0,0.1182861-1.1613588,0.3656311-2.0816813
					c0,0-1.1291351-3.1334763-1.3334503-4.1195354c0,0-1.9356384-0.8217144-3.1185303-1.8187313
					C-171.3093872-22.1020851-171.4384308-22.1787796-171.5997314-22.2335606z"/>
			</g>
			<g>
				<path class="st313" d="M-168.5672302-30.231596c0,0,1.9033813,0.5697231,0.6129456,2.9362659
					c-0.2473297,0.5587654,0.1505585,0.9093647-0.0752716,1.6653442c-0.2365723,0.7669353-1.1183624,2.4432354-3.3981171,1.4790878
					c-2.2797546-0.9751034-2.1507111-2.4980164-1.7958374-3.1444321c0.3548584-0.6464176,0.4086304-0.7669353,0.3441162-1.9063816
					c-0.0645294-1.1394463,0.8602753-3.0020008,2.6776276-2.7500095
					C-168.3951721-31.699728-168.5672302-30.231596-168.5672302-30.231596z"/>
			</g>
			<g>
				<path class="st345" d="M-168.4489441-29.0592804c0,0,0.1290436,2.6075783-1.6022797,2.4761028
					c-1.7313232-0.1314735-1.7635803-1.4133511-1.6883087-1.522913c0,0-0.5484161-0.4492054-0.0214996-0.9531898
					c0.2580872-0.2739048,0.5269165,0.2739048,0.5269165,0.2739048s1.35495,0.525898,2.5163422-0.7011967
					C-168.7285309-29.4865723-168.6425018-29.2017117-168.4489441-29.0592804z"/>
			</g>
			<g>
				<path class="st345" d="M-170.2125244-26.5941334c0,0-0.0967865,0.4492054,0,0.7011986s-0.2150726,0.6245022-0.537674,0.2519932
					c-0.3226013-0.361557-0.2795868-0.6025925-0.2795868-0.6025925s0.0860291-0.208168,0.0645142-0.5587673
					C-170.965271-26.8132572-170.6103973-26.6598701-170.2125244-26.5941334z"/>
			</g>
			<g>
				<path class="st321" d="M-166.3089905-21.6200123c0,0-2.3765259-0.0109577-2.7421417-2.1583748
					c-0.3763885-2.1474171-1.1613922-2.1145782-1.1613922-2.1145782s0.0107574,0.3615856-0.3441162,0.394453
					c0,0,0.9033051,3.3306885,1.58078,3.6812878c0.6667175,0.3505993,1.978653,0.679285,2.548584,0.679285
					C-166.4272766-21.1379395-166.2014465-21.3789768-166.3089905-21.6200123z"/>
			</g>
			<g>
				<path class="st318" d="M-170.1910095-21.893919c0,0,0-1.259964,0.2043152-1.6324749s0.4731598-0.8217163,0.2365723-1.4571762
					c-0.2365723-0.6354599-0.4624023-0.9203224-0.4624023-0.9203224l-0.8172607-0.3505974
					c0,0-0.5161743-0.1205196-0.871048,0.0986061l0.3118591,3.9113674
					C-171.5997314-22.2335606-170.8792419-21.8281803-170.1910095-21.893919z"/>
			</g>
			<g>
				<path class="st318" d="M-161.4268799-20.6887341v0.4272919c0,0.1533871-1.7743378,0.2739048-3.9573059,0.2739048
					s-3.9573059-0.1205177-3.9573059-0.2739048v-0.4272919H-161.4268799z"/>
			</g>
			<g>
				<ellipse class="st353" cx="-165.3734283" cy="-20.6887341" rx="3.9573028" ry="0.273905"/>
			</g>
			<g>
				<path class="st345" d="M-166.3089905-21.6200123c0,0,0.5269318-0.0986061,0.677475-0.0766945
					c0.1613007,0.0109558,0.4409027,0.3067741,0.677475,0.3944244s-0.0967865,0.2739048-0.4731598,0.208168
					c-0.3871307-0.0657368-0.6129456,0.0438251-1.0108337-0.0438251
					C-166.4272766-21.1379395-166.2229614-21.3351517-166.3089905-21.6200123z"/>
			</g>
			<g>
				<path class="st313" d="M-162.2548981-13.0522547v0.3067732c0,0.1095629-1.2796783,0.1972113-2.8712006,0.1972113
					c-1.5807648,0-2.8712006-0.0876484-2.8712006-0.1972113v-0.3067732H-162.2548981z"/>
			</g>
			<g>
				<polygon class="st313" points="-162.08284,-23.7126484 -163.1366882,-20.7654285 -166.5670776,-20.7654285 
					-165.5024719,-23.7126484 				"/>
			</g>
			<g>
				<path class="st367" d="M-167.9865417-13.0522547c0,0.109561,1.2796783,0.1972113,2.8712006,0.1972113
					c1.5807648,0,2.8712006-0.0876503,2.8712006-0.1972113c0-0.1095629-1.2796783-0.1972113-2.8712006-0.1972113
					S-167.9865417-13.1618176-167.9865417-13.0522547z"/>
			</g>
			<g>
				<rect x="-165.3734283" y="-19.9984932" class="st318" width="0.5161696" height="6.8366761"/>
			</g>
			<g>
				<path class="st313" d="M-166.0078888-15.396884c0,0,0.5161743,0.7998028,0.8925476,1.0627527
					c0.3656158,0.262949,0.2473297,0.7669344-0.2580872,0.4492044c-0.4946594-0.3067741-0.7850037-0.6573725-0.9678192-0.7121544
					c-0.1828156-0.054781-0.2150726-0.7121544-0.2150726-0.7121544S-166.2014465-15.2763662-166.0078888-15.396884z"/>
			</g>
			<g>
				<path class="st313" d="M-167.3520813-14.0383148c0,0-0.1935577,0.1972122,0.2258301,0.4053802
					c0.4193878,0.2191238,1.1506195,0.4053812,1.0215759,0.5806799c-0.1290436,0.1862555-1.0538483-0.0766945-1.3334351-0.1095629
					c-0.2795868-0.0328693-0.5806885-0.1643429-0.5484314-0.3505983s0.0645294-0.6464167,0.0645294-0.6464167
					S-167.7714691-13.9616203-167.3520813-14.0383148z"/>
			</g>
			<g>
				<polygon class="st313" points="-166.5670776,-20.7654285 -168.8145599,-20.7654285 -168.8145599,-20.9078598 
					-166.5133057,-20.9078598 				"/>
			</g>
			<g>
				<path class="st354" d="M-169.2339478-28.1827831c0,0-0.0322571,0.3286858,0.0430145,0.5368538
					c0.0860291,0.208168-0.0860291,0.3615551-0.2043152,0.3286858c-0.1182861-0.0219116-0.1505585-0.0876484-0.1505585-0.0876484
					L-169.2339478-28.1827831z"/>
			</g>
			<g>
				<path class="st321" d="M-168.6962738-20.7763844c0,0-2.8819427-1.205183-2.9464722-2.048811
					c-0.0645142-0.8436298,0.2796021-2.4870605,0.0967865-2.8924408c-0.1828156-0.4163361-0.3548737-0.4272919-0.3548737-0.4272919
					s-0.6129456,0-0.6989746,0.7778912c-0.0967865,0.7778912-0.0645294,3.0677395,0.8387756,3.6374607
					c0.9032898,0.569725,2.9357147,1.2599659,2.9357147,1.2599659S-168.5887451-20.5243912-168.6962738-20.7763844z"/>
			</g>
			<g>
				<path class="st345" d="M-168.6962738-20.7763844c0,0,0.4731598-0.0219116,0.6559601,0
					c0.1828156,0.0219116,0.4946747,0.3067741,0.6882324,0.4163361c0.1828156,0.1095619,0.139801,0.2739048,0.0430145,0.2739048
					c0,0-0.2580872,0.0986061-0.6559601,0c-0.3978882-0.0986061-0.871048-0.3834667-0.871048-0.3834667
					S-168.5994873-20.5463047-168.6962738-20.7763844z"/>
			</g>
			<g>
				<path class="st354" d="M-168.6640167-28.0293961c0,0.054781-0.0214996,0.0986042-0.0537567,0.1314735
					c-0.0322723,0.0438251-0.0752869,0.0766945-0.139801,0.0766945c-0.0645294,0-0.1182861-0.0328693-0.1505585-0.0766945
					c-0.0107422-0.0219116-0.0214996-0.0438251-0.0322571-0.0657368c0-0.0219135-0.0107422-0.0438251-0.0107422-0.0766945
					c0.0214996,0.0109577,0.0429993,0.0328693,0.0537567,0.0438251c0.0215149,0.0109558,0.0322571,0.0219135,0.0430145,0.0328693
					c0.0322571,0.0219116,0.053772,0.0328674,0.0752716,0.0219116c0.0215149,0,0.053772-0.0109558,0.0860291-0.0328674
					L-168.6640167-28.0293961z"/>
			</g>
			<g>
				<path class="st354" d="M-169.664093-28.2266083c-0.0430145,0.0438251-0.1075287,0.0766926-0.1720581,0.0876484
					c-0.0645142,0.0109577-0.1397858,0-0.2043152-0.0328674c-0.0645142-0.0328693-0.1075287-0.0876503-0.139801-0.1533871
					c-0.0107422-0.0328693-0.0214996-0.0657368-0.0322571-0.0876503c0-0.0328674-0.0107574-0.0657368-0.0107574-0.0986061
					c0.0215149,0.0219135,0.0430145,0.054781,0.053772,0.0766945l0.053772,0.0657368
					c0.0430145,0.0438251,0.0752716,0.0766945,0.1182861,0.0986061
					C-169.9006653-28.2156525-169.7931366-28.2156525-169.664093-28.2266083z"/>
			</g>
			<g>
				<path class="st354" d="M-169.664093-27.141943c-0.053772,0.0109558-0.1075287,0.0109558-0.1613007,0
					c-0.053772-0.0109577-0.1075439-0.054781-0.139801-0.0986061c-0.0322571-0.054781-0.0537567-0.1205196-0.0430145-0.1753006
					c0.0107574-0.054781,0.0322723-0.1095619,0.0752716-0.1533871c0.0107574,0.0547829,0,0.1095638,0.0107574,0.1533871
					c0.0107574,0.0438251,0.0215149,0.0766945,0.0430145,0.1095638
					C-169.8361511-27.2515049-169.7501221-27.1967239-169.664093-27.141943z"/>
			</g>
			<g>
				<polygon class="st313" points="-168.4756165,-12.5469418 -168.6248322,-12.5469418 -168.6248322,-17.564888 
					-168.4756165,-17.564888 				"/>
			</g>
			<g>
				<polygon class="st313" points="-173.2120819,-12.5469418 -173.3612976,-12.5469418 -173.3612976,-17.564888 
					-173.2120819,-17.564888 				"/>
			</g>
			<g>
				<polygon class="st313" points="-169.8942871,-15.1377792 -170.0435028,-15.1377792 -170.0435028,-17.5700588 
					-169.8942871,-17.5700588 				"/>
			</g>
		</g>
		<g transform="translate(0.000000, 33.000000)">
			<g>
				<ellipse class="st318" cx="-4.7536845" cy="-1.9155258" rx="7.8920293" ry="0.8304175"/>
			</g>
			<g>
				<path class="st318" d="M3.7277899-2.4837062c0,0.0983393,0.7204347,0.1748247,1.6155195,0.1748247
					c0.8950858,0,1.615519-0.0764854,1.615519-0.1748247S6.2383952-2.658531,5.3433094-2.658531
					C4.4482245-2.658531,3.7277899-2.5820456,3.7277899-2.4837062z"/>
			</g>
			<g>
				<path class="st318" d="M1.5228255-0.8010173c0,0.0983393,0.7204347,0.1748247,1.6155193,0.1748247
					s1.615519-0.0764855,1.615519-0.1748247s-0.7204347-0.1748247-1.615519-0.1748247S1.5228255-0.8993566,1.5228255-0.8010173z"/>
			</g>
			<g>
				<path class="st313" d="M-0.0162846-3.7839649c0,0-2.1285553-1.311187-2.3796151-2.4147685
					c-0.1855667-0.8085651-0.1855667-2.2071629-0.1855667-2.2071629l0.2073977-3.3981571c0,0-1.7137599,0.5681801-2.1067243,0
					c0,0-0.0873251,4.4798861,1.069736,6.359252s3.2310376,2.272723,3.2310376,2.272723S0.1256198-3.3141236-0.0162846-3.7839649z"
					/>
			</g>
			<g>
				<path class="st313" d="M-0.0162846-3.7839649c0,0,0.6549407,0.0327792,0.7422664,0.2513101
					C0.813306-3.3141236,0.562247-2.7896495,0.6059091-2.4837062C0.6495712-2.166836,0.562247-1.7625535-0.0162846-1.7625535
					c-0.5785301,0-0.4584574-0.4370618-0.1528196-0.480768c0.3056393-0.0437062,0-0.928757,0-0.928757
					S0.103788-3.4233899-0.0162846-3.7839649z"/>
			</g>
			<g>
				<path class="st313" d="M-3.389226-21.9438934c0,0,1.681013-0.0764866,2.0303144,1.3985996
					c0.3383855,1.4641571-0.5676149,2.3819866-1.626435,2.6442242l-2.0848925-2.8627567
					c0,0-1.6700978-0.9178295-0.4475422-2.0978966C-4.5353713-23.5063896-3.389226-21.9438934-3.389226-21.9438934z"/>
			</g>
			<g>
				<path class="st345" d="M-5.0811553-20.7638264c0,0-0.6331086,1.3767452-0.4038792,2.3819885
					c0.2292285,1.0161705,1.768338,1.1800671,1.768338,1.1800671s0.1419039,0.2840919,0,0.7211533
					c0,0,0.6876879,0.0983391,0.7095189-0.4589157c0,0-0.1091568-0.4589138,0-0.9615364
					c0,0,0.9714944-0.5572548,0.4802892-1.2565536c-0.3711326-0.4589138-0.6003621,0-0.6003621,0
					s-1.0588195-0.4370613-0.9714944-1.9230728C-4.0769129-21.0697689-4.7318535-20.7091923-5.0811553-20.7638264z"/>
			</g>
			<g>
				<polygon class="st313" points="-6.0635653,-13.6834211 -6.9259028,-15.4316692 -7.0896382,-15.3442564 -6.2382159,-13.5195227 
									"/>
			</g>
			<g>
				<path class="st321" d="M-2.5487194-12.6235447c0,0,0.3056386,0.9724627,0.7750126,1.3221121
					c0,0-0.0218319,0.1748247-0.4802901,0.5572548c0,0-0.9060004-1.0708027-1.1243134-1.5734234L-2.5487194-12.6235447z"/>
			</g>
			<g>
				<path class="st318" d="M-3.7057805-16.4696922c0,0-1.3535428,1.5406446-0.7750125,4.6765652
					c0,0,0.1528196,0.5572538,2.1067243,0c0,0-0.2619765-0.4370623-0.1528196-0.9833899
					c0.1091568-0.5354004-0.6549399-3.8133669-0.6549399-3.8133669S-3.3783102-16.4259853-3.7057805-16.4696922z"/>
			</g>
			<g>
				<path class="st354" d="M-4.6991067-19.8569221c0.0109158,0.1092663-0.0654941,0.2076054-0.1746507,0.2513103
					c-0.0545778,0.0218544-0.1091566,0.0218544-0.1637349,0.0109272c-0.0545788-0.0109272-0.0982409-0.0327797-0.1309876-0.0764866
					c0.0545778-0.0109253,0.0982409-0.0109253,0.1419034-0.0109253s0.0764093-0.0109272,0.1200724-0.0327797
					C-4.8410106-19.7367306-4.7755165-19.7804356-4.6991067-19.8569221z"/>
			</g>
			<g>
				<path class="st321" d="M-2.9962618-16.928606c0,0,1.0588194-0.1638985,1.2334702,1.1800671
					c0.1637355,1.3439655-0.1419038,4.523592-3.7659059,3.1796265c0,0,0.2947235-0.3605766,0.2728915-0.6774464
					c0,0,2.357785,0.6009607,2.2813752-1.1363611c-0.0436628-1.223774-0.0764098-1.6608362-0.4584582-2.1088247
					C-3.432889-16.4806175-2.9853466-16.6117363-2.9962618-16.928606z"/>
			</g>
			<g>
				<path class="st354" d="M-5.3758779-19.6274643c0,0-0.1419034,0.3059425-0.3383861,0.426136
					c-0.1964817,0.1201916-0.0109153,0.3824291,0.1200728,0.3605747c0.1309876-0.0218525,0.1309876-0.0218525,0.1309876-0.0218525
					L-5.3758779-19.6274643z"/>
			</g>
			<g>
				<path class="st366" d="M-2.3740687-11.8040533c0,0,0.4366263,0.9724627-0.2401447,1.9121466
					c-0.6876876,0.939682-5.5233293,6.1079416-6.2110162,7.4082003c0,0-0.502121-0.1857517-0.5785303-0.6555927
					c0,0,5.0648704-7.3207898,4.922967-8.6647549C-4.480793-11.836834-4.3170586-11.224947-2.3740687-11.8040533z"/>
			</g>
			<g>
				<path class="st313" d="M-8.8252296-2.4837062c0,0-0.2510605,0.4042826-0.4475422,0.557255
					c-0.1964827,0.1420439-1.4190378-0.8413446-1.637351-1.2347002c-0.2183132-0.393357,0.1964827-0.4698424,0.6003618-0.2294579
					C-9.9058809-3.1502259-9.6111574-2.8224287-9.40376-3.1283722C-9.40376-3.1283722-9.2946033-2.647604-8.8252296-2.4837062z"/>
			</g>
			<g>
				<path class="st345" d="M-5.2885528-13.1917257c0,0-0.2401447-0.2185316-0.4038796-0.3605757
					c-0.1637354-0.1311197-0.3274703-0.2076054-0.3711329-0.1311197c-0.0545783,0.0764866,0.1419034,0.2950172,0.1419034,0.2950172
					s-0.50212-0.6009607-0.5785298-0.5900335c-0.0764098,0.0109262-0.2947235,0.2185307,0,0.7102261
					c0.2947226,0.4916945,0.9824104,0.6446667,0.9824104,0.6446667S-5.255806-12.9622679-5.2885528-13.1917257z"/>
			</g>
			<g>
				<path class="st345" d="M-1.8282856-11.1703138c0,0,0.1964824,0.1201916,0.2947234,0.4370623
					c0.1091567,0.3168688,0.5239521-0.0764856,0.6549399,0s0.0327469,0.4479876-0.2619757,0.5572538
					c-0.3056393,0.1092663-0.6767718,0.1311188-0.7531816,0c-0.087325-0.1311188-0.3602173-0.5572538-0.3602173-0.5572538
					S-1.8937795-11.0501223-1.8282856-11.1703138z"/>
			</g>
			<g>
				<path class="st313" d="M-3.389226-19.4089336c0,0,0.1419036,0.9396839-0.1091568,1.3002605
					c-0.2510605,0.3605747-1.4299524-0.0764866-1.5172784-0.3605766c-0.0873251-0.28409-0.5130363-0.3059444-0.5130363-0.3059444
					s-0.1746507,0.0327797-0.1419034,0.28409c0.0327468,0.2513123-0.0218315,1.7919559,1.5281935,1.7701015
					c0.8623381-0.1092644,1.0915668-1.3439655,1.026073-2.4366207C-3.1054184-19.1466961-3.2909851-19.2559624-3.389226-19.4089336z
					"/>
			</g>
			<g transform="translate(72.581486, 90.249691)">
				<g>
					<path class="st321" d="M-69.6287079-91.0069962c0,0-1.2007294-1.3111877-1.5391159-2.0979004
						s0.2183151-0.9287567,0.4912109-0.5135498c0.2728882,0.4152145,0.7859268,1.3548965,0.9278259,0.2294617
						c0.1419067-1.1254349-0.043663-1.3658218,0.120079-1.5078659c0.1746445-0.1420441,0.3820419-0.0437088,0.5348663,0.4916916
						c0.1528168,0.5354004,0.6876831,0.6446686,0.8295898,0.1420517c0.1418991-0.5135498,0.4912033-1.6280594,1.0042419-1.5734253
						c0.5130386,0.0655594-0.0109177,0.8741226,0,1.3439636c0.0109177,0.4589157,0.4257126,0.382431,0.7531815-0.0327759
						c0.3274689-0.4152145,1.4299545-1.7045441,1.9211578-1.3111877c0.4912033,0.382431-0.1964874,0.8959732,0,1.3876724
						c0.1964798,0.4916916,0.1746521,1.3002548-0.7640991,0.9833908c-0.9387436-0.3059464-0.8732529,0.5681763-0.9278336,0.7211456
						c-0.043663,0.152977-0.2728882,0.6774521-0.8623352,0.4152145s-0.9059982-0.1420441-0.6876907,0.0764847
						c0.2183151,0.2185287,0.6003647,0.4479904,0.4038849,0.5681763c-0.1964874,0.1201935-0.9714966-0.2731628-1.2880478-0.0655594
						c-0.3274765,0.2185364-0.4475479,0.7211533-0.4475479,0.7211533h-0.469368V-91.0069962z"/>
				</g>
				<g>
					<path class="st313" d="M-65.0113831-94.7001724c-0.3929672,0.3387222-0.8077621,0.6555939-1.2662201,0.9178314
						c-0.1091537,0.0655594-0.2292252,0.1311188-0.3492966,0.1857529c-0.1200714,0.0546265-0.2401505,0.0983353-0.3711319,0.1420441
						l-0.7422714,0.2513123c-0.2510605,0.08741-0.4912033,0.1748199-0.7204285,0.2840881
						c-0.2292328,0.1092606-0.4584579,0.2403793-0.6222,0.4370575c-0.0764084,0.0983429-0.1309814,0.2076111-0.1528168,0.3387299
						c-0.0218277,0.1311188-0.043663,0.2622299-0.0545807,0.3824234c-0.0327454,0.2622375-0.0545731,0.5135498-0.0545731,0.7757874
						c-0.0327454-0.2622375-0.0218353-0.5244751,0-0.7867126c0.01091-0.1311188,0.0218277-0.2622375,0.043663-0.3933563
						c0.01091-0.0655594,0.0218277-0.1311188,0.043663-0.1966782c0.0327454-0.0655594,0.0654907-0.1201935,0.1091537-0.1748199
						c0.1637344-0.2185364,0.4038773-0.3496552,0.6440277-0.469841c0.2401428-0.1201935,0.4802856-0.2076111,0.7313461-0.2950211
						l0.7422638-0.240387c0.1200714-0.0437012,0.2510605-0.08741,0.3602219-0.1311188
						c0.1200714-0.0437012,0.2292252-0.1092606,0.3492966-0.1638947c0.2292328-0.1201935,0.4475479-0.2622375,0.6658554-0.4042816
						C-65.4370956-94.3942261-65.2187805-94.5472031-65.0113831-94.7001724z"/>
				</g>
			</g>
		</g>
	</g>
</g>
</svg>
