<?xml version="1.0" encoding="utf-8"?>
<!-- Generator: Adobe Illustrator 23.1.1, SVG Export Plug-In . SVG Version: 6.00 Build 0)  -->
<svg version="1.1" id="Layer_1" xmlns="http://www.w3.org/2000/svg" xmlns:xlink="http://www.w3.org/1999/xlink" x="0px" y="0px"
	 viewBox="0 0 183 150" style="enable-background:new 0 0 183 150;" xml:space="preserve">
<style type="text/css">
	.st0{fill:#4C96C1;}
	.st1{fill:#1D67F6;}
	.st2{fill:#EAF0FD;}
	.st3{fill:#BCCFFB;}
	.st4{fill:#021B55;}
	.st5{fill:#EAB8A2;}
	.st6{fill:#EFC0B4;}
	.st7{opacity:0.25;fill:#BCCFFB;}
	.st8{fill:#FFFFFF;}
	.st9{fill:#DBA88F;}
</style>
<path class="st1" d="M61.6,43.6C52.6,51.2,47,62.4,47,75c0,4.1,0.6,8.1,1.7,11.8l39.9-11.7L61.6,43.6z"/>
<path class="st2" d="M91.8,72.1l15.8-37.4c-5.1-2.3-10.9-3.6-16.9-3.6c-10.1,0-19.3,3.6-26.5,9.7l27.1,31.5L91.8,72.1z"/>
<path class="st3" d="M132.7,61.5c-3.3-11.7-11.7-21.2-22.6-26.2L94.3,72.7L132.7,61.5z"/>
<path class="st1" d="M135.8,75c0-3.9-0.5-7.7-1.6-11.3L95.8,75l-0.2,0.5l26.1,30.4C130.3,98.4,135.8,87.4,135.8,75z"/>
<path class="st2" d="M90.2,77L50.2,88.7c3.6,12.1,12.7,21.8,24.3,26.4l15.9-37.8L90.2,77z"/>
<path class="st4" d="M77.3,116.3c4.7,1.8,9.7,2.8,15,2.8c10.4,0,19.8-3.8,27-10.2L93.2,78.6L77.3,116.3z"/>
<g>
	<g>
		<path class="st5" d="M63.6,108.5c-1.8,0.9-3.7,0.4-3.7,0.4l-7.1-0.8l-6.3,2.3l-4.2-8.4l4.2-3.7l5.6-3.9c0,0,2.8-3.6,8.2-7
			c1.8-1.2,3-1.6,3.8-1.7c0.8-0.1,1.3,0.9,0.6,1.5l-2.5,2c0,0-4.3,3-4.1,3.5s0.7,0.3,0.7,0.3l4.3-3c0,0,5.4-3.4,6.3-2.6
			c1,0.8,0.1,1.8,0.1,1.8L65.5,92l-3.6,3.5c-0.1,0.1,0,0.3,0.2,0.2l5.6-2.8c0,0,3.5-2,6-1.8c2.5,0.2,0.9,2.1,0.9,2.1l-4.7,1.9
			c0,0-6.1,3.1-6.4,3.8c-0.3,0.7,1,0.8,1,0.8l4.6-0.8c0.4-0.1,2.8-0.3,3.2-0.3c1.3,0,2.3,0.3,2.6,1.1c0.4,1.1-2.9,1.8-2.9,1.8
			l-7.8,1.9l-4.5,1.8c-0.1,0-0.1,0.2,0,0.2c1.1,0.3,1.3,0.3,1.5,0.2"/>
		<g>
			<path class="st6" d="M71,92.3l0.2,1.6c0,0,1.3,0.3,1.7-0.6c0.5-1-1-1.1-1-1.1L71,92.3z"/>
			<path class="st6" d="M70.4,100l0.3,1.6c0,0,1.4,0.4,1.9-0.6c0.5-1-1.1-1.2-1.1-1.2L70.4,100z"/>
			<path class="st6" d="M66.2,88.8l0.7,1.6c0,0,1.3-0.1,1.4-1.3c0.1-1.2-1.3-0.8-1.3-0.8L66.2,88.8z"/>
			<path class="st6" d="M62.2,87.1l0.5,1c0,0,0.8-0.1,0.9-0.8c0.1-0.7-0.8-0.5-0.8-0.5L62.2,87.1z"/>
		</g>
	</g>
	
		<rect x="34.6" y="102.5" transform="matrix(-0.4465 -0.8948 0.8948 -0.4465 -40.4419 192.5014)" class="st3" width="9.5" height="12.4"/>
	
		<rect x="31.6" y="103.6" transform="matrix(-0.4465 -0.8948 0.8948 -0.4465 -44.335 192.2391)" class="st4" width="11.4" height="12.4"/>
	
		<rect x="35.7" y="106.1" transform="matrix(-0.4465 -0.8948 0.8948 -0.4465 -44.7178 197.0154)" class="st7" width="5.8" height="12.4"/>
	<circle class="st8" cx="38.2" cy="105.3" r="0.8"/>
	<circle class="st8" cx="36.6" cy="106.2" r="0.8"/>
</g>
<g>
	<g>
		<path class="st5" d="M135.5,75.6c1.9,0.5,2.9,2.3,2.9,2.3l4.5,5.5l6.1,2.7l-2.8,9l-5.6-0.2l-6.8-1.1c0,0-4.5,0.6-10.8-0.6
			c-2.1-0.4-3.3-0.9-3.9-1.4c-0.7-0.5-0.3-1.6,0.6-1.5l3.2,0.3c0,0,5.2,0.8,5.4,0.3c0.2-0.5-0.3-0.7-0.3-0.7l-5.2-0.8
			c0,0-6.2-1.3-6.3-2.5c-0.1-1.3,1.2-1.4,1.2-1.4l5.2,0.7l5.1,0c0.1,0,0.1-0.2,0-0.2l-6-1.8c0,0-3.9-0.9-5.6-2.8
			c-1.7-1.9,0.8-2.1,0.8-2.1l4.8,1.9c0,0,6.5,2,7.3,1.7c0.7-0.3-0.1-1.3-0.1-1.3l-3.9-2.6c-0.3-0.2-2.2-1.8-2.5-2.1
			c-1-0.9-1.4-1.8-1.1-2.6c0.4-1.1,3.4,0.7,3.4,0.7l7,4l4.5,1.8c0.1,0,0.2-0.1,0.1-0.1c-0.6-1-0.8-1.1-0.9-1.2"/>
		<g>
			<path class="st6" d="M119.1,82.1l0.9-1.3c0,0-0.7-1.1-1.7-0.8c-1,0.4,0,1.5,0,1.5L119.1,82.1z"/>
			<path class="st6" d="M124.8,77.1l0.9-1.4c0,0-0.7-1.2-1.8-0.8s0,1.6,0,1.6L124.8,77.1z"/>
			<path class="st6" d="M120.1,88l0.6-1.7c0,0-1-0.8-2,0s0.4,1.5,0.4,1.5L120.1,88z"/>
			<path class="st6" d="M121.8,92l0.4-1c0,0-0.7-0.5-1.2,0c-0.6,0.5,0.3,0.9,0.3,0.9L121.8,92z"/>
		</g>
	</g>
	
		<rect x="148.6" y="86" transform="matrix(-0.2961 0.9552 -0.9552 -0.2961 286.7801 -26.9376)" class="st1" width="9.5" height="12.4"/>
	
		<rect x="149.8" y="86.6" transform="matrix(-0.2961 0.9552 -0.9552 -0.2961 290.2389 -28.233)" class="st2" width="11.4" height="12.4"/>
	
		<rect x="153.5" y="83.9" transform="matrix(-0.2961 0.9552 -0.9552 -0.2961 288.7022 -32.5003)" class="st7" width="5.8" height="12.4"/>
	<circle class="st8" cx="151.7" cy="95.4" r="0.8"/>
	<circle class="st8" cx="153.6" cy="95.9" r="0.8"/>
</g>
<g>
	<g>
		<path class="st5" d="M75.5,34.6c-0.2-2,1-3.6,1-3.6l3.4-6.3l0.2-6.7l9.4-0.8l1.9,5.2l1.6,6.7c0,0,2.3,4,3.5,10.2
			c0.4,2.1,0.4,3.4,0.2,4.2c-0.2,0.8-1.4,0.9-1.6,0l-0.9-3c0,0-1.2-5.1-1.7-5.1c-0.6,0-0.6,0.6-0.6,0.6l1.2,5.1c0,0,1.2,6.2,0,6.8
			c-1.1,0.6-1.7-0.6-1.7-0.6l-1.2-5.7l-2-4c-0.1-0.1-0.2-0.1-0.2,0.1l0.6,6.2c0,0,0.6,4-0.5,6.3c-1.1,2.3-2.3,0-2.3,0l0-5.1
			c0,0-0.6-6.8-1.2-7.4c-0.6-0.6-1.1,0.6-1.1,0.6l-1,4.6c-0.1,0.4-0.8,2.7-1,3.1c-0.5,1.2-1.1,2-2,2c-1.1,0-0.6-3.4-0.6-3.4l1.1-8
			l0-4.8c0-0.1-0.1-0.1-0.2-0.1c-0.7,1-0.8,1.1-0.8,1.3"/>
		<g>
			<path class="st6" d="M87.8,47.4L86.2,47c0,0-0.8,1.1-0.1,1.8c0.7,0.8,1.4-0.5,1.4-0.5L87.8,47.4z"/>
			<path class="st6" d="M80.9,44l-1.6-0.3c0,0-0.8,1.1-0.1,1.9c0.7,0.8,1.5-0.6,1.5-0.6L80.9,44z"/>
			<path class="st6" d="M92.8,44.2l-1.7,0.1c0,0-0.4,1.3,0.7,1.8c1.1,0.6,1.2-0.9,1.2-0.9L92.8,44.2z"/>
			<path class="st6" d="M95.9,41.1l-1.1,0.1c0,0-0.2,0.8,0.4,1.1c0.7,0.3,0.8-0.6,0.8-0.6L95.9,41.1z"/>
		</g>
	</g>
	
		<rect x="79.5" y="5.7" transform="matrix(0.9964 -8.436775e-02 8.436775e-02 0.9964 -0.702 7.1499)" class="st3" width="9.5" height="12.4"/>
	
		<rect x="78.3" y="3.4" transform="matrix(0.9964 -8.436775e-02 8.436775e-02 0.9964 -0.5105 7.1208)" class="st2" width="11.4" height="12.4"/>
	
		<rect x="78.3" y="3.6" transform="matrix(0.9964 -8.436775e-02 8.436775e-02 0.9964 -0.5432 6.8852)" class="st7" width="5.8" height="12.4"/>
	<circle class="st8" cx="87.9" cy="12.2" r="0.8"/>
	<circle class="st8" cx="87.6" cy="10.3" r="0.8"/>
</g>
<path class="st9" d="M103.5,117.6l-4.7,1.2c0,0,1.7,2.7,3.3,2.9C103.7,122,103.5,117.6,103.5,117.6z"/>
<path class="st5" d="M98.3,118c0.3,0.1,3,3.2,3,3.2c2.5,1.4,2.2-3.5,2.2-3.5l5.7-2.1c0.1,0.7,0.2,4.3,0.2,4.3
	c0.1,2.6-2.6,7.9-2.6,7.9l0.1,1.7l-9.1,1.1l-1.3-2l-3.4-9.2l-1.6-4.9c0,0-1.1-4,1.9-4.1C95.3,110.2,98.3,118,98.3,118z"/>
<polygon class="st3" points="99.4,142.7 109,141.2 107,129.1 97.4,130.6 "/>
<polygon class="st1" points="98.9,145.1 110.3,143.3 108.4,131.2 96.9,133 "/>
<polygon class="st7" points="104.6,144.2 110.3,143.3 108.4,131.1 102.6,132 "/>
<ellipse transform="matrix(0.9996 -2.981156e-02 2.981156e-02 0.9996 -4.0067 3.0271)" class="st8" cx="99.5" cy="135.9" rx="0.8" ry="0.7"/>
<ellipse class="st6" cx="93" cy="113" rx="1.5" ry="1"/>
<path class="st9" d="M48.2,65.5l1.2-4.7c0,0-3.2,0.2-4.1,1.5C44.3,63.7,48.2,65.5,48.2,65.5z"/>
<path class="st5" d="M50.3,60.8c-0.2,0.2-4.2,1.1-4.2,1.1c-2.5,1.6,2.1,3.6,2.1,3.6l-0.8,6c-0.7-0.2-3.9-1.8-3.9-1.8
	c-2.4-1.1-5.7-6.1-5.7-6.1L36.2,63l3.3-8.5l2.4-0.2l9.8,1.4l5.1,0.9c0,0,4,0.9,2.7,3.6C58.6,61.9,50.3,60.8,50.3,60.8z"/>
<polygon class="st4" points="28,50.1 24.8,59.2 36.4,63.2 39.6,54.1 "/>
<polygon class="st1" points="26.2,48.5 22.3,59.4 33.9,63.4 37.8,52.5 "/>
<polygon class="st7" points="24.3,53.9 22.4,59.4 34,63.4 35.9,57.9 "/>
<ellipse transform="matrix(0.4476 -0.8943 0.8943 0.4476 -28.9613 59.8855)" class="st8" cx="34" cy="53.4" rx="0.8" ry="0.7"/>
<ellipse transform="matrix(0.4476 -0.8943 0.8943 0.4476 -29.4979 57.9519)" class="st8" cx="32.2" cy="52.9" rx="0.8" ry="0.7"/>
<path class="st9" d="M124.2,46.5l2.9,3.8c0,0,1.8-2.6,1.4-4.2C128.1,44.6,124.2,46.5,124.2,46.5z"/>
<path class="st5" d="M126.5,51.1c0-0.3,1.8-4,1.8-4c0.3-2.9-4.1-0.6-4.1-0.6l-4.2-4.5c0.6-0.4,3.9-1.9,3.9-1.9
	c2.4-1.1,8.3-0.7,8.3-0.7l1.5-0.8l4.5,7.9l-1.4,2l-7.2,6.7l-3.9,3.4c0,0-3.2,2.6-4.5-0.2C120.5,56.9,126.5,51.1,126.5,51.1z"/>
<polygon class="st4" points="148.9,40.5 143.8,32.3 133.4,38.8 138.5,47 "/>
<polygon class="st4" points="151.3,40.1 145.2,30.2 134.8,36.8 140.9,46.6 "/>
<polygon class="st7" points="148.2,35.2 145.2,30.2 134.8,36.8 137.8,41.7 "/>
<ellipse transform="matrix(0.9095 -0.4158 0.4158 0.9095 -4.9985 63.1752)" class="st8" cx="142.6" cy="43.1" rx="0.7" ry="0.8"/>
<ellipse transform="matrix(0.9095 -0.4158 0.4158 0.9095 -4.402 63.7267)" class="st8" cx="144.1" cy="42" rx="0.7" ry="0.8"/>
<ellipse transform="matrix(0.4476 -0.8943 0.8943 0.4476 -20.5495 84.2869)" class="st6" cx="57.9" cy="58.8" rx="1.5" ry="1"/>
<ellipse transform="matrix(0.5982 -0.8014 0.8014 0.5982 3.5045 122.5403)" class="st6" cx="123.9" cy="57.8" rx="1" ry="1.5"/>
</svg>
