<?xml version="1.0" encoding="utf-8"?>
<!-- Generator: Adobe Illustrator 23.1.1, SVG Export Plug-In . SVG Version: 6.00 Build 0)  -->
<svg version="1.1" id="Layer_1" xmlns="http://www.w3.org/2000/svg" xmlns:xlink="http://www.w3.org/1999/xlink" x="0px" y="0px"
	 viewBox="0 0 49.3902512 45" style="enable-background:new 0 0 49.3902512 45;" xml:space="preserve">
<style type="text/css">
	.st0{fill:#D1D2D9;}
	.st1{fill:#0063FF;}
	.st2{fill:#F4F5F8;}
	.st3{opacity:0.11;}
	.st4{fill:#336EE5;}
	.st5{fill:#FFFFFF;}
	.st6{enable-background:new    ;}
	.st7{fill:#2444A2;}
	.st8{fill:#122E7D;}
	.st9{fill:#0B266F;}
	.st10{fill:#0061FF;}
	.st11{fill:#0060FF;}
	.st12{fill:#005DFF;}
	.st13{fill:#CADEFC;}
	.st14{fill:none;}
	.st15{opacity:0.3;}
	.st16{clip-path:url(#SVGID_2_);enable-background:new    ;}
	.st17{fill:#E6F2FC;}
	.st18{fill:#E7F2FC;}
	.st19{fill:#E9F3FD;}
	.st20{fill:#EAF4FD;}
	.st21{fill:#EBF4FD;}
	.st22{fill:#ECF5FD;}
	.st23{clip-path:url(#SVGID_4_);enable-background:new    ;}
	.st24{fill:#E4F1FC;}
	.st25{fill:#EEF6FD;}
	.st26{fill:#E5F1FC;}
	.st27{fill:#F2F8FE;}
	.st28{clip-path:url(#SVGID_6_);}
	.st29{opacity:0.6;fill:#001959;}
	.st30{opacity:0.8392157;fill:#001959;}
	.st31{opacity:0.9372549;fill:#001959;}
	.st32{clip-path:url(#SVGID_8_);enable-background:new    ;}
	.st33{clip-path:url(#SVGID_10_);enable-background:new    ;}
	.st34{fill:#609FFC;}
	.st35{fill:#5C9DFC;}
	.st36{fill:#589AFC;}
	.st37{fill:#5498FC;}
	.st38{fill:#5095FD;}
	.st39{fill:#4C93FD;}
	.st40{fill:#4890FD;}
	.st41{fill:#448EFD;}
	.st42{fill:#5E9FFC;}
	.st43{fill:#3B88FD;}
	.st44{clip-path:url(#SVGID_12_);enable-background:new    ;}
	.st45{clip-path:url(#SVGID_14_);enable-background:new    ;}
	.st46{clip-path:url(#SVGID_16_);enable-background:new    ;}
	.st47{clip-path:url(#SVGID_18_);enable-background:new    ;}
	.st48{fill:#2E80FE;}
	.st49{clip-path:url(#SVGID_20_);enable-background:new    ;}
	.st50{fill:#00164D;}
	.st51{clip-path:url(#SVGID_22_);}
	.st52{fill:#E5E5E5;}
	.st53{fill:#BFBFBF;}
	.st54{fill:#001345;}
	.st55{fill:#000D30;}
	.st56{fill:#FF9D5C;}
	.st57{fill:#2176FC;}
	.st58{fill:#6DA2F5;}
	.st59{fill:#3582FA;}
	.st60{fill:#FCFCFC;}
	.st61{fill:#F5F5F5;}
	.st62{fill:#FAFAFA;}
	.st63{clip-path:url(#SVGID_32_);}
	.st64{clip-path:url(#SVGID_34_);}
	.st65{fill:#F37715;}
	.st66{fill:#F47D22;}
	.st67{fill:#F58D45;}
	.st68{clip-path:url(#SVGID_36_);enable-background:new    ;}
	.st69{clip-path:url(#SVGID_38_);enable-background:new    ;}
	.st70{clip-path:url(#SVGID_40_);enable-background:new    ;}
	.st71{clip-path:url(#SVGID_42_);enable-background:new    ;}
	.st72{clip-path:url(#SVGID_44_);enable-background:new    ;}
	.st73{clip-path:url(#SVGID_46_);enable-background:new    ;}
	.st74{fill:#F26D00;}
	.st75{fill:#2E7BFF;}
	.st76{opacity:0.6;fill:#0063FF;}
	.st77{opacity:0.6;}
	.st78{fill:none;stroke:#0063FF;stroke-width:0.1;stroke-miterlimit:10;}
	.st79{fill:none;stroke:#0063FF;stroke-width:0.1;stroke-miterlimit:10;stroke-dasharray:0.994576,0.994576;}
	.st80{fill:none;stroke:#001959;stroke-width:0.1;stroke-miterlimit:10;}
	.st81{fill:none;stroke:#001959;stroke-width:0.1;stroke-miterlimit:10;stroke-dasharray:0.994576,0.994576;}
	.st82{opacity:0.6;fill:none;stroke:#FFFFFF;stroke-miterlimit:10;stroke-dasharray:1;}
	.st83{clip-path:url(#SVGID_48_);enable-background:new    ;}
	.st84{clip-path:url(#SVGID_50_);enable-background:new    ;}
	.st85{clip-path:url(#SVGID_52_);}
	.st86{clip-path:url(#SVGID_54_);enable-background:new    ;}
	.st87{clip-path:url(#SVGID_56_);enable-background:new    ;}
	.st88{clip-path:url(#SVGID_58_);enable-background:new    ;}
	.st89{clip-path:url(#SVGID_60_);enable-background:new    ;}
	.st90{clip-path:url(#SVGID_62_);enable-background:new    ;}
	.st91{clip-path:url(#SVGID_64_);enable-background:new    ;}
	.st92{clip-path:url(#SVGID_66_);enable-background:new    ;}
	.st93{fill:#002883;}
	.st94{clip-path:url(#SVGID_68_);}
	.st95{clip-path:url(#SVGID_70_);}
	.st96{clip-path:url(#SVGID_72_);enable-background:new    ;}
	.st97{clip-path:url(#SVGID_74_);enable-background:new    ;}
	.st98{clip-path:url(#SVGID_76_);}
	.st99{clip-path:url(#SVGID_78_);enable-background:new    ;}
	.st100{clip-path:url(#SVGID_80_);enable-background:new    ;}
	.st101{clip-path:url(#SVGID_82_);enable-background:new    ;}
	.st102{clip-path:url(#SVGID_84_);enable-background:new    ;}
	.st103{clip-path:url(#SVGID_86_);enable-background:new    ;}
	.st104{clip-path:url(#SVGID_88_);enable-background:new    ;}
	.st105{clip-path:url(#SVGID_90_);enable-background:new    ;}
	.st106{clip-path:url(#SVGID_92_);}
	.st107{clip-path:url(#SVGID_94_);enable-background:new    ;}
	.st108{clip-path:url(#SVGID_96_);enable-background:new    ;}
	.st109{clip-path:url(#SVGID_98_);enable-background:new    ;}
	.st110{clip-path:url(#SVGID_100_);enable-background:new    ;}
	.st111{clip-path:url(#SVGID_102_);enable-background:new    ;}
	.st112{clip-path:url(#SVGID_104_);enable-background:new    ;}
	.st113{opacity:0.3;fill:#2E7BFF;}
	.st114{clip-path:url(#SVGID_106_);enable-background:new    ;}
	.st115{clip-path:url(#SVGID_108_);enable-background:new    ;}
	.st116{clip-path:url(#SVGID_110_);enable-background:new    ;}
	.st117{clip-path:url(#SVGID_112_);enable-background:new    ;}
	.st118{clip-path:url(#SVGID_114_);enable-background:new    ;}
	.st119{clip-path:url(#SVGID_116_);enable-background:new    ;}
	.st120{fill:#1BE0E6;}
	.st121{fill:#2CE3E8;}
	.st122{fill:#37E5EA;}
	.st123{fill:#53EBEE;}
	.st124{clip-path:url(#SVGID_118_);enable-background:new    ;}
	.st125{clip-path:url(#SVGID_120_);enable-background:new    ;}
	.st126{clip-path:url(#SVGID_122_);enable-background:new    ;}
	.st127{clip-path:url(#SVGID_124_);enable-background:new    ;}
	.st128{clip-path:url(#SVGID_126_);enable-background:new    ;}
	.st129{clip-path:url(#SVGID_128_);enable-background:new    ;}
	.st130{clip-path:url(#SVGID_130_);}
	.st131{clip-path:url(#SVGID_132_);enable-background:new    ;}
	.st132{clip-path:url(#SVGID_134_);enable-background:new    ;}
	.st133{clip-path:url(#SVGID_136_);enable-background:new    ;}
	.st134{clip-path:url(#SVGID_138_);enable-background:new    ;}
	.st135{clip-path:url(#SVGID_140_);enable-background:new    ;}
	.st136{clip-path:url(#SVGID_142_);enable-background:new    ;}
	.st137{clip-path:url(#SVGID_144_);enable-background:new    ;}
	.st138{clip-path:url(#SVGID_146_);enable-background:new    ;}
	.st139{clip-path:url(#SVGID_148_);}
	.st140{clip-path:url(#SVGID_150_);enable-background:new    ;}
	.st141{clip-path:url(#SVGID_152_);enable-background:new    ;}
	.st142{clip-path:url(#SVGID_154_);enable-background:new    ;}
	.st143{clip-path:url(#SVGID_156_);enable-background:new    ;}
	.st144{clip-path:url(#SVGID_158_);enable-background:new    ;}
	.st145{clip-path:url(#SVGID_160_);enable-background:new    ;}
	.st146{clip-path:url(#SVGID_162_);enable-background:new    ;}
	.st147{clip-path:url(#SVGID_164_);}
	.st148{clip-path:url(#SVGID_170_);}
	.st149{clip-path:url(#SVGID_172_);enable-background:new    ;}
	.st150{clip-path:url(#SVGID_174_);enable-background:new    ;}
	.st151{clip-path:url(#SVGID_176_);enable-background:new    ;}
	.st152{clip-path:url(#SVGID_178_);enable-background:new    ;}
	.st153{clip-path:url(#SVGID_180_);enable-background:new    ;}
	.st154{clip-path:url(#SVGID_182_);enable-background:new    ;}
	.st155{clip-path:url(#SVGID_184_);}
	.st156{clip-path:url(#SVGID_186_);enable-background:new    ;}
	.st157{clip-path:url(#SVGID_188_);enable-background:new    ;}
	.st158{clip-path:url(#SVGID_190_);enable-background:new    ;}
	.st159{clip-path:url(#SVGID_192_);enable-background:new    ;}
	.st160{clip-path:url(#SVGID_194_);enable-background:new    ;}
	.st161{clip-path:url(#SVGID_196_);enable-background:new    ;}
	.st162{clip-path:url(#SVGID_198_);enable-background:new    ;}
	.st163{clip-path:url(#SVGID_200_);enable-background:new    ;}
	.st164{clip-path:url(#SVGID_202_);enable-background:new    ;}
	.st165{clip-path:url(#SVGID_204_);enable-background:new    ;}
	.st166{clip-path:url(#SVGID_206_);enable-background:new    ;}
	.st167{clip-path:url(#SVGID_208_);enable-background:new    ;}
	.st168{clip-path:url(#SVGID_210_);enable-background:new    ;}
	.st169{clip-path:url(#SVGID_212_);enable-background:new    ;}
	.st170{clip-path:url(#SVGID_214_);}
	.st171{clip-path:url(#SVGID_216_);enable-background:new    ;}
	.st172{clip-path:url(#SVGID_218_);enable-background:new    ;}
	.st173{clip-path:url(#SVGID_220_);enable-background:new    ;}
	.st174{clip-path:url(#SVGID_222_);enable-background:new    ;}
	.st175{clip-path:url(#SVGID_224_);enable-background:new    ;}
	.st176{clip-path:url(#SVGID_226_);enable-background:new    ;}
	.st177{clip-path:url(#SVGID_228_);enable-background:new    ;}
	.st178{clip-path:url(#SVGID_230_);}
	.st179{clip-path:url(#SVGID_236_);}
	.st180{clip-path:url(#SVGID_238_);enable-background:new    ;}
	.st181{clip-path:url(#SVGID_240_);enable-background:new    ;}
	.st182{clip-path:url(#SVGID_242_);enable-background:new    ;}
	.st183{clip-path:url(#SVGID_244_);enable-background:new    ;}
	.st184{clip-path:url(#SVGID_246_);enable-background:new    ;}
	.st185{clip-path:url(#SVGID_248_);enable-background:new    ;}
	.st186{clip-path:url(#SVGID_250_);enable-background:new    ;}
	.st187{clip-path:url(#SVGID_252_);enable-background:new    ;}
	.st188{clip-path:url(#SVGID_254_);enable-background:new    ;}
	.st189{clip-path:url(#SVGID_256_);enable-background:new    ;}
	.st190{clip-path:url(#SVGID_258_);enable-background:new    ;}
	.st191{clip-path:url(#SVGID_260_);enable-background:new    ;}
	.st192{fill:#1B77F9;}
	.st193{fill:#0D6DFC;}
	.st194{clip-path:url(#SVGID_262_);enable-background:new    ;}
	.st195{fill:#1C78F9;}
	.st196{clip-path:url(#SVGID_264_);enable-background:new    ;}
	.st197{fill:#1975FA;}
	.st198{fill:#1874FA;}
	.st199{fill:#1673FA;}
	.st200{fill:#1572FA;}
	.st201{fill:#1472FB;}
	.st202{fill:#1371FB;}
	.st203{fill:#1270FB;}
	.st204{fill:#116FFB;}
	.st205{fill:#0869FD;}
	.st206{fill:none;stroke:url(#SVGID_265_);stroke-miterlimit:10;}
	.st207{fill:none;stroke:url(#SVGID_266_);stroke-miterlimit:10;}
	.st208{fill:none;stroke:url(#SVGID_267_);stroke-miterlimit:10;}
	.st209{fill:none;stroke:url(#SVGID_268_);stroke-miterlimit:10;}
	.st210{fill:none;stroke:url(#SVGID_269_);stroke-miterlimit:10;}
	.st211{fill:none;stroke:url(#SVGID_270_);stroke-miterlimit:10;}
	.st212{fill:none;stroke:url(#SVGID_271_);stroke-miterlimit:10;}
	.st213{fill:#004ED6;}
	.st214{opacity:0.6;fill:#14BBC4;}
	.st215{opacity:0.2;fill:#03002D;}
	.st216{opacity:0.3;fill:#0F054C;}
	.st217{fill:url(#SVGID_272_);}
	.st218{fill:#01266D;}
	.st219{fill:#023381;}
	.st220{fill:#012165;}
	.st221{fill:#0161F4;}
	.st222{clip-path:url(#SVGID_274_);}
	.st223{fill:#003AAC;}
	.st224{fill:#5C95FF;}
	.st225{fill:#015FED;}
	.st226{fill:#025BDA;}
	.st227{fill:#001959;}
	.st228{fill:#5B95FF;}
	.st229{fill:none;stroke:#FFFFFF;stroke-width:1.5;stroke-miterlimit:10;}
	.st230{fill:none;stroke:#FFFFFF;stroke-width:1.5;stroke-linecap:round;stroke-miterlimit:10;}
	.st231{fill:none;stroke:#0063FF;stroke-width:1.5;stroke-miterlimit:10;}
	.st232{fill:none;stroke:#0063FF;stroke-width:1.5;stroke-linecap:round;stroke-miterlimit:10;}
	.st233{fill:none;stroke:#FFFFFF;stroke-linecap:round;stroke-miterlimit:10;}
	.st234{fill:none;stroke:#0063FF;stroke-linecap:round;stroke-miterlimit:10;}
	.st235{opacity:0.53;}
	.st236{opacity:0.45;fill:url(#SVGID_275_);}
	.st237{opacity:0.57;}
	.st238{fill:#E2EDFF;}
	.st239{clip-path:url(#SVGID_277_);enable-background:new    ;}
	.st240{fill:#A7C9FF;}
	.st241{fill:#ABCCFF;}
	.st242{fill:#B0CEFF;}
	.st243{fill:#B4D1FF;}
	.st244{fill:#B8D4FF;}
	.st245{fill:#BCD6FF;}
	.st246{fill:#C0D9FF;}
	.st247{fill:#C4DBFF;}
	.st248{fill:#A3C7FF;}
	.st249{fill:#9FC4FF;}
	.st250{fill:#9BC2FF;}
	.st251{opacity:0.4;}
	.st252{clip-path:url(#SVGID_279_);enable-background:new    ;}
	.st253{clip-path:url(#SVGID_281_);enable-background:new    ;}
	.st254{clip-path:url(#SVGID_283_);enable-background:new    ;}
	.st255{opacity:0.45;fill:url(#SVGID_284_);}
	.st256{clip-path:url(#SVGID_286_);enable-background:new    ;}
	.st257{clip-path:url(#SVGID_288_);enable-background:new    ;}
	.st258{clip-path:url(#SVGID_290_);enable-background:new    ;}
	.st259{clip-path:url(#SVGID_292_);enable-background:new    ;}
	.st260{opacity:0.45;fill:url(#SVGID_293_);}
	.st261{clip-path:url(#SVGID_295_);enable-background:new    ;}
	.st262{clip-path:url(#SVGID_297_);enable-background:new    ;}
	.st263{clip-path:url(#SVGID_299_);enable-background:new    ;}
	.st264{clip-path:url(#SVGID_301_);}
	.st265{fill:#98999B;}
	.st266{clip-path:url(#SVGID_303_);}
	.st267{clip-path:url(#SVGID_305_);}
	.st268{clip-path:url(#SVGID_309_);enable-background:new    ;}
	.st269{fill:#4096FF;}
	.st270{fill:#1271FF;}
	.st271{clip-path:url(#SVGID_311_);}
	.st272{fill:#1D7AFF;}
	.st273{fill:#2D87FF;}
	.st274{fill:none;stroke:#FFFFFF;stroke-width:6;stroke-linecap:round;stroke-miterlimit:10;}
	.st275{clip-path:url(#SVGID_313_);enable-background:new    ;}
	.st276{fill:#057CFF;}
	.st277{fill:#057BFF;}
	.st278{fill:#057AFF;}
	.st279{fill:#0579FF;}
	.st280{fill:#0478FF;}
	.st281{fill:#0477FF;}
	.st282{fill:#0476FF;}
	.st283{fill:#0475FF;}
	.st284{fill:#0372FF;}
	.st285{clip-path:url(#SVGID_315_);enable-background:new    ;}
	.st286{clip-path:url(#SVGID_317_);enable-background:new    ;}
	.st287{clip-path:url(#SVGID_319_);enable-background:new    ;}
	.st288{clip-path:url(#SVGID_321_);enable-background:new    ;}
	.st289{fill:#036FFF;}
	.st290{clip-path:url(#SVGID_323_);enable-background:new    ;}
	.st291{clip-path:url(#SVGID_325_);enable-background:new    ;}
	.st292{clip-path:url(#SVGID_327_);enable-background:new    ;}
	.st293{clip-path:url(#SVGID_329_);enable-background:new    ;}
	.st294{clip-path:url(#SVGID_331_);enable-background:new    ;}
	.st295{clip-path:url(#SVGID_333_);enable-background:new    ;}
	.st296{clip-path:url(#SVGID_335_);enable-background:new    ;}
	.st297{fill:none;stroke:#0063FF;stroke-linecap:round;stroke-miterlimit:10;stroke-dasharray:8,6;}
	.st298{fill:#6976F4;stroke:#6976F4;}
	.st299{fill:none;stroke:#6976F4;stroke-width:2;}
	.st300{fill:#E3147C;}
	.st301{fill:none;stroke:#E3147C;}
	.st302{fill:#684FF1;}
	.st303{fill:none;stroke:#001959;stroke-width:2;stroke-miterlimit:10;}
	.st304{fill:#6976F4;}
	.st305{fill:none;stroke:#E3147C;stroke-width:2;stroke-miterlimit:10;}
	.st306{opacity:0.22;fill:#684FF1;}
	.st307{fill:none;stroke:#684FF1;stroke-width:2;stroke-miterlimit:10;}
	.st308{fill:none;stroke:#FFFFFF;stroke-width:1.5;stroke-linecap:round;stroke-linejoin:round;}
	.st309{fill:none;stroke:#FFFFFF;stroke-width:2;stroke-linecap:round;stroke-linejoin:round;}
	.st310{fill-rule:evenodd;clip-rule:evenodd;fill:#D1D2D9;}
	.st311{fill:none;stroke:#0063FF;stroke-width:1.5;stroke-linecap:round;stroke-linejoin:round;}
	.st312{fill:none;stroke:#0063FF;stroke-width:2;stroke-linecap:round;stroke-linejoin:round;}
	.st313{fill-rule:evenodd;clip-rule:evenodd;fill:#001959;}
	.st314{fill:#003659;}
	.st315{fill:none;stroke:#000000;stroke-width:2;stroke-linecap:round;stroke-linejoin:round;}
	.st316{fill:#EFEFF2;}
	.st317{opacity:0.22;fill:#0063FF;}
	.st318{fill-rule:evenodd;clip-rule:evenodd;fill:#B8CFFF;}
	.st319{fill-rule:evenodd;clip-rule:evenodd;fill:#FFFFFF;}
	.st320{fill-rule:evenodd;clip-rule:evenodd;fill:#5CBFAB;}
	.st321{fill-rule:evenodd;clip-rule:evenodd;fill:#0063FF;}
	.st322{fill-rule:evenodd;clip-rule:evenodd;fill:#FEFEFE;}
	.st323{opacity:0.05;}
	.st324{opacity:0.05;enable-background:new    ;}
	.st325{fill-rule:evenodd;clip-rule:evenodd;fill:#EEF8FF;}
	.st326{fill:#FEFEFE;}
	.st327{fill-rule:evenodd;clip-rule:evenodd;fill:#FFFFFF;stroke:#001959;stroke-width:11;}
	.st328{fill:none;stroke:#0063FF;stroke-width:3;}
	.st329{fill:none;stroke:#0063FF;stroke-linecap:round;stroke-dasharray:3;}
	.st330{fill:none;stroke:#001959;stroke-width:2;stroke-linecap:square;}
	.st331{fill:none;stroke:#FFFFFF;stroke-width:9;}
	.st332{fill:none;stroke:#001959;stroke-width:3;}
	.st333{fill-rule:evenodd;clip-rule:evenodd;fill:#FEFEFE;stroke:#001959;stroke-width:11;}
	.st334{opacity:0.1;}
	.st335{opacity:0.1;fill-rule:evenodd;clip-rule:evenodd;fill:#0063FF;enable-background:new    ;}
	.st336{fill-rule:evenodd;clip-rule:evenodd;fill:#FEFEFE;stroke:#001959;}
	.st337{fill:#FEFEFE;stroke:#001959;}
	.st338{fill-rule:evenodd;clip-rule:evenodd;fill:#FEFEFE;stroke:#001959;stroke-width:2;}
	.st339{fill-rule:evenodd;clip-rule:evenodd;fill:#FEFEFE;stroke:#001959;stroke-linecap:round;}
	.st340{fill:none;stroke:#001959;stroke-width:2;stroke-linecap:round;}
	.st341{fill:none;stroke:#001959;}
	.st342{fill:none;stroke:#0063FF;stroke-width:2;}
	.st343{fill:#B8CFFF;}
	.st344{opacity:0.3;fill-rule:evenodd;clip-rule:evenodd;fill:#B8CFFF;enable-background:new    ;}
	.st345{fill-rule:evenodd;clip-rule:evenodd;fill:#E49D7D;}
	.st346{opacity:0.2;fill-rule:evenodd;clip-rule:evenodd;fill:#0063FF;enable-background:new    ;}
	.st347{fill-rule:evenodd;clip-rule:evenodd;fill:#FFDECC;}
	.st348{opacity:0.2;fill-rule:evenodd;clip-rule:evenodd;enable-background:new    ;}
	.st349{opacity:0.05;fill-rule:evenodd;clip-rule:evenodd;enable-background:new    ;}
	.st350{opacity:0.1;fill-rule:evenodd;clip-rule:evenodd;enable-background:new    ;}
	.st351{fill:none;stroke:#0063FF;stroke-width:2;stroke-linecap:square;stroke-dasharray:5,6;}
	.st352{fill:none;stroke:#0063FF;}
	.st353{fill-rule:evenodd;clip-rule:evenodd;fill:#10048A;}
	.st354{fill-rule:evenodd;clip-rule:evenodd;fill:#9F6E53;}
	.st355{fill-rule:evenodd;clip-rule:evenodd;fill:#020202;}
	.st356{fill-rule:evenodd;clip-rule:evenodd;fill:#B8CFFF;stroke:#001959;}
	.st357{fill:none;stroke:#001959;stroke-dasharray:2.7953999,2.7953999;}
	.st358{fill:none;stroke:#001959;stroke-dasharray:3.0797,3.0797;}
	.st359{fill:none;stroke:#001959;stroke-dasharray:2.868,2.868;}
	.st360{fill:none;stroke:#001959;stroke-dasharray:2.8852,2.8852;}
	.st361{fill:none;stroke:#001959;stroke-dasharray:2.8276,2.8276;}
	.st362{fill:none;stroke:#001959;stroke-dasharray:3.0137,3.0137;}
	.st363{fill:none;stroke:#001959;stroke-dasharray:2.8104,2.8104;}
	.st364{fill:none;stroke:#B8CFFF;}
	.st365{fill-rule:evenodd;clip-rule:evenodd;fill:#0F0CA3;}
	.st366{fill-rule:evenodd;clip-rule:evenodd;fill:#002883;}
	.st367{fill-rule:evenodd;clip-rule:evenodd;fill:#003AAC;}
	.st368{opacity:0.3;fill-rule:evenodd;clip-rule:evenodd;fill:#524F63;enable-background:new    ;}
	.st369{opacity:0.6;fill-rule:evenodd;clip-rule:evenodd;fill:#B8CFFF;enable-background:new    ;}
	.st370{opacity:0.3;enable-background:new    ;}
	.st371{opacity:0.2;enable-background:new    ;}
	.st372{fill-rule:evenodd;clip-rule:evenodd;}
	.st373{opacity:0.1;enable-background:new    ;}
	.st374{fill-rule:evenodd;clip-rule:evenodd;fill:#524F63;}
	.st375{opacity:0.6;enable-background:new    ;}
	.st376{fill:none;stroke:#001959;stroke-width:2;}
	.st377{fill-rule:evenodd;clip-rule:evenodd;fill:none;stroke:#001959;stroke-width:2;}
	.st378{fill-rule:evenodd;clip-rule:evenodd;fill:none;stroke:#001959;stroke-width:3;}
	.st379{opacity:0.5;fill-rule:evenodd;clip-rule:evenodd;fill:#B8CFFF;enable-background:new    ;}
	.st380{fill:#FEFEFF;}
	.st381{fill:#356FE5;}
</style>
<g id="PLow-4_1_">
	<g id="Group-3-Copy_5_" transform="translate(30.000000, 22.000000)">
		<g id="Path_15_" class="st370">
			<path class="st318" d="M18.9321861,10.4912529c0.0067253-2.4191456-1.159338-4.6902766-3.1257811-6.0879998
				c0.0268021-0.257514,0.0405273-0.5162308,0.0411263-0.7751448c0-4.094183-3.2602396-7.4119825-7.2797117-7.4119825
				C7.3297448-3.7852054,6.1124349-3.4645131,5.0344853-2.8530409C2.1884031-4.7337055-1.5267172-5.87185-5.5910192-5.87185
				c-6.6109672,0-12.3014832,3.0126154-14.8251171,7.3326931c-0.1402473-0.0082597-0.2813187-0.0128025-0.4236221-0.0128025
				c-4.0198822,0-7.2797279,3.3190384-7.2797279,7.4132218c-0.0028038,1.4461451,0.4133148,2.8618956,1.1976719,4.0747728l0,0
				c0,3.683691,3.4625931,6.6698761,7.7321243,6.6698761h30.9753914c3.3536015,0,6.0721865-2.344841,6.0721865-5.2372837l0,0
				C18.5632229,13.1995049,18.9348583,11.858161,18.9321861,10.4912529L18.9321861,10.4912529z"/>
		</g>
		<g id="Group-7_1_" transform="translate(0.000000, 189.000000)">
			<g id="Oval_9_">
				<ellipse class="st321" cx="-26.7839584" cy="-169.5248413" rx="2.5683227" ry="0.3362169"/>
			</g>
			<g>
				<path class="st321" d="M-26.0432148-170.6488953c0.114603-0.081131,0.1980076-0.1906891,0.2390842-0.3140717
					c0.0312119-0.1242065-0.0299625-0.2712097-0.1672955-0.3194885c-0.1535645-0.0509796-0.3177395,0.0417786-0.4419632,0.1350708
					s-0.2671757,0.2001495-0.4294777,0.1800842c0.1701221-0.1342926,0.2468662-0.3361969,0.2022533-0.5321198
					c-0.007103-0.0399017-0.0265179-0.0773926-0.056181-0.1084747c-0.0855217-0.0791931-0.2397099-0.0455627-0.3420849,0.0168152
					c-0.3246059,0.1985168-0.4151211,0.582016-0.4169922,0.9264526c-0.0324612-0.1242218-0.0049953-0.2538605-0.005619-0.3796997
					s-0.0412006-0.2712097-0.1654243-0.3379211c-0.0766106-0.0358124-0.1627483-0.0534058-0.2496967-0.0509949
					c-0.1454468-0.0048828-0.3083744,0.0081329-0.407629,0.1008911c-0.1248474,0.1149902-0.0917625,0.3080902,0.0156059,0.4339447
					c0.1073704,0.1258392,0.2715454,0.2066498,0.4226112,0.2939911c0.1208477,0.0626068,0.2239037,0.1480713,0.3015099,0.2500458
					c0.0093517,0.0142517,0.0168858,0.0293579,0.0224724,0.0450287h0.9151363
					C-26.402235-170.3999176-26.2126179-170.5141296-26.0432148-170.6488953z"/>
			</g>
		</g>
		<g id="WinnerMule-01_1_" transform="translate(10.000000, 0.000000)">
			<g>
				<path class="st321" d="M-17.472147-12.6522226c0,0-2.0927067,0.4585352-3.8569088,1.9306707
					c-1.0706882,0.8929348-1.7763691,2.1237373-2.0927086,3.4752069c-0.0730019,0.3378668-0.1825027,0.7360668-0.3285065,1.1463351
					c-0.620512,1.7858701-2.0197067,3.1976717-3.8082428,3.8492739c-1.8372021,0.6636678-5.7184448,2.3771374-6.4362946,5.2248764
					c0,0,5.9982853-2.7270732,13.8824444,6.7694116c0,0,0.7908478-3.9699397,2.4333801-4.344008
					c0,0,8.8575106-1.3273358,7.9814911-9.7498837c0,0-0.0365-5.9247446-3.139061-8.3018827H-17.472147L-17.472147-12.6522226z"/>
			</g>
			<g>
				<path class="st227" d="M-27.1385098,2.0285511l-0.0884876-0.1854007
					c4.7498932-2.2685513,5.7136154-7.880537,5.7227459-7.9369202l0.202858,0.0329065
					C-21.3107243-6.0033765-22.2898979-0.287153-27.1385098,2.0285511z"/>
			</g>
			<g>
				<polygon class="st353" points="-11.9072313,-2.3789313 -12.1554155,10.976347 -14.0581579,10.976347 -15.0036221,-2.1619687 
									"/>
			</g>
			<g id="XMLID_1_" transform="translate(96.448598, 0.000000)">
				<g id="XMLID_48_">
					<g id="XMLID_49_">
						<g id="XMLID_50_">
							<g id="XMLID_51_">
								<path class="st345" d="M-112.9189072-14.7068911c-0.0973892-0.2276087-0.206955-0.4791775-0.2556458-0.7067862
									c-0.0730438-0.4432402-0.1582642-0.8864784-0.231308-1.3297176
									c-0.0365219-0.1916714-0.0608673-0.3833427-0.0730362-0.5869923
									c-0.024353-0.3593845,0.0730362-0.6708488,0.3895569-0.8984585
									c0.0486984-0.0359383,0.0365219-0.0718765,0.0121765-0.1197948
									c-0.2799988-0.4552174-0.4991302-0.9343948-0.6695633-1.4375324
									c-0.0973892-0.2994862-0.1339111-0.5989723-0.1217346-0.8984566
									c0.0243454-0.4432392,0.4260788-0.7906437,0.8886871-0.7427254
									c0.1582642,0.0119781,0.2799988,0.1078148,0.3895645,0.2156296
									c0.1339111,0.1557331,0.2191315,0.3354244,0.2799988,0.5270958
									c0.2313004,0.7067852,0.3286896,1.4135723,0.2799988,2.1443195c0,0.0119781,0,0.0359383,0,0.0479164
									c0.170433,0,0.3286896-0.0239582,0.4991226-0.0119781c0.1582642,0,0.3286972,0.0359383,0.4869537,0.0479164
									c0-0.0838547,0-0.1796913,0-0.2875061c-0.0121689-0.4432392,0.024353-0.8744984,0.1217422-1.3057594
									c0.0608673-0.2875061,0.1217346-0.5750122,0.2556458-0.8385601
									c0.0365219-0.0838566,0.0973969-0.1677113,0.1582642-0.2395878c0.1582565-0.1916714,0.377388-0.2515697,0.6452103-0.1796932
									c0.3652191,0.0958366,0.6208649,0.4432392,0.6452179,0.8026237
									c0.0243454,0.5151157-0.1217422,0.9823132-0.3408661,1.4375324c-0.1339188,0.2875061-0.2921753,0.551054-0.4382629,0.82658
									c-0.0243454,0.0479183-0.0243454,0.0838566,0.024353,0.1197948c0.3165131,0.2515678,0.4260788,0.5750141,0.377388,0.9343967
									c-0.0608749,0.5270958-0.1582642,1.0541897-0.231308,1.5812855
									c-0.0486908,0.2994862-0.0973892,0.5989714-0.2313004,0.8864784
									c-0.0121765,0.0239592-0.0243454,0.0479183-0.0243454,0.0598974
									c-0.0973969-0.1437531-0.170433-0.2875071-0.2799988-0.419281c-0.170433-0.2276087-0.401741-0.4192801-0.6695633-0.5630331
									c-0.3165207-0.1677122-0.6330414-0.1916714-0.9495621-0.0479183
									c-0.4139099,0.1916714-0.6573868,0.4671984-0.8643417,0.8625202
									C-112.8702087-14.8027258-112.9067307-14.7308493-112.9189072-14.7068911z"/>
							</g>
						</g>
					</g>
				</g>
				<g id="XMLID_44_" transform="translate(2.369998, 19.240253)">
					<g id="XMLID_45_">
						<g id="XMLID_46_">
							<g id="XMLID_47_">
								<path class="st322" d="M-114.5462952-35.8398933c0,0.2036476-0.0608749,0.3833389-0.2191315,0.5390739
									c-0.1460876,0.1437531-0.3286972,0.2036514-0.547821,0.1916695
									c-0.1095657-0.0119781-0.206955-0.0359383-0.2921753-0.0958366c-0.0121765,0-0.0121765-0.0119781-0.0121765-0.0239563
									c-0.0243454-0.1317749-0.0486908-0.2515678-0.0608673-0.3833427
									c-0.0243454-0.1197929-0.0365219-0.2395897-0.0608673-0.3713608
									c-0.0243454-0.1197968-0.0365219-0.2276115-0.0486984-0.3474045
									c-0.0121689-0.0479202-0.0121689-0.0958366-0.0121689-0.1437531c0-0.011982,0-0.0239601,0.0121689-0.0239601
									c0.1095657-0.0958366,0.231308-0.1557312,0.3773956-0.1677132c0.3043442-0.0239563,0.5356445,0.0958366,0.7060776,0.3114662
									c0.1095657,0.1317749,0.1582642,0.275528,0.1826096,0.4432411c0,0.0119781,0,0.0239563,0,0.0359383
									C-114.5462952-35.8638535-114.5462952-35.8518753-114.5462952-35.8398933z"/>
							</g>
						</g>
					</g>
				</g>
				<g id="XMLID_40_" transform="translate(14.812485, 19.823291)">
					<g id="XMLID_41_">
						<g id="XMLID_42_">
							<g id="XMLID_43_">
								<path class="st322" d="M-124.8461914-37.1536789c0.1582642,0.0119781,0.2921753,0.0598984,0.4139099,0.1557312
									c0.0121765,0.011982,0.0121765,0.011982,0.0121765,0.0359383c-0.0243454,0.155735-0.0365219,0.3234444-0.0608673,0.4791794
									c-0.024353,0.1557312-0.0486984,0.3114662-0.0730438,0.4791756
									c-0.0121765,0.1078148-0.0365219,0.2156296-0.0486984,0.3114662c0,0.0119781-0.0121689,0.0239601-0.0243454,0.0359383
									c-0.0973892,0.0479164-0.206955,0.0718765-0.3286972,0.0598984
									c-0.2799988-0.011982-0.4747772-0.1317749-0.6086884-0.3593826
									c-0.0852203-0.1437531-0.1095657-0.2875099-0.0973892-0.4432411
									c0.0121689-0.2036514,0.0973892-0.3833427,0.2434769-0.5270958
									c0.1217346-0.1197929,0.2678223-0.1916695,0.4504318-0.2156296
									C-124.9314041-37.1536789-124.8827133-37.1536789-124.8461914-37.1536789z"/>
							</g>
						</g>
					</g>
				</g>
				<g id="XMLID_36_" transform="translate(6.517493, 33.233165)">
					<g id="XMLID_37_">
						<g id="XMLID_38_">
							<g id="XMLID_39_">
								<path class="st345" d="M-116.9894562-47.8801613l-2.0817261,0.011982
									c0.0365219,0.8505402,0.0730438,1.7010803,0.1095657,2.5635986c0.6695633-0.0479164,1.339119-0.1078148,2.0086823-0.1557312
									C-116.9772797-46.2749138-116.9894562-47.0775375-116.9894562-47.8801613z"/>
							</g>
						</g>
					</g>
				</g>
				<g id="XMLID_32_" transform="translate(4.147496, 26.819747)">
					<g id="XMLID_33_">
						<g id="XMLID_34_">
							<g id="XMLID_35_">
								<path class="st354" d="M-115.7151031-40.4604683c-0.1582642-0.0239601-0.3652191-0.0359383-0.5721741-0.0838547
									c-0.2921677-0.0718803-0.5112991-0.2395897-0.6939087-0.4672012
									c-0.170433-0.2276077-0.1826019-0.4552155-0.0852127-0.6948051c0.1460876-0.3354263,0.377388-0.5869942,0.6939087-0.7786636
									c0.1460876-0.0838585,0.3043442-0.155735,0.4504318-0.2156296c0.170433-0.0718765,0.3652115-0.0479202,0.5356445,0.0359383
									c0.4869537,0.2276077,0.8886948,0.5390739,1.1078186,1.0302315
									c0.0365219,0.0958366,0.0730438,0.1916695,0.0852203,0.2875061c0.0243454,0.1437531-0.0243454,0.2875061-0.1095657,0.407299
									c-0.206955,0.275528-0.4869537,0.4552193-0.8643417,0.4791794
									C-115.3133698-40.4604683-115.4838028-40.4604683-115.7151031-40.4604683z"/>
							</g>
						</g>
					</g>
				</g>
				<g id="XMLID_28_" transform="translate(15.997484, 2.915190)">
					<g id="XMLID_29_">
						<g id="XMLID_30_">
							<g id="XMLID_31_">
								<path class="st355" d="M-126.0068436-23.719614c0.0121765,0,0.024353,0,0.024353,0
									c0.0121689,0,0.0121689,0.0119781,0.0243454,0.0119781c0.1582565,0.0359383,0.2556534,0.1197948,0.3043442,0.2635479
									c0.0365219,0.1078148,0.0486984,0.2276096,0.0365219,0.3474045
									c-0.0852127,0.4911575-0.2921677,0.9343967-0.584343,1.3297176
									c-0.0486984,0.0598965-0.1095657,0.1197948-0.1582565,0.1796913
									c-0.0852203,0.0838566-0.1582642,0.0598965-0.1947861-0.0479183
									c-0.0243454-0.0598965-0.0365219-0.131773-0.0486908-0.1916714c-0.0121765-0.0838547-0.024353-0.1796913-0.0365219-0.263546
									c0-0.0359383,0-0.0718765,0-0.1078167c0-0.0119781,0.0121689-0.0239582,0.0121689-0.0239582
									c0.0121765-0.1437531,0.024353-0.2994862,0.0486984-0.4432392c0.0365219-0.2515678,0.0973892-0.5031357,0.206955-0.7427254
									C-126.2868423-23.5519028-126.201622-23.6836758-126.0068436-23.719614z"/>
							</g>
						</g>
					</g>
				</g>
				<g id="XMLID_24_" transform="translate(1.777498, 2.332152)">
					<g id="XMLID_25_">
						<g id="XMLID_26_">
							<g id="XMLID_27_">
								<path class="st355" d="M-114.8790131-23.2443924c0.0121765,0,0.024353,0,0.024353,0
									c0.1217346,0.0239601,0.2191238,0.0958366,0.2678223,0.1916714c0.0608673,0.0838566,0.1095657,0.1796913,0.1460876,0.275528
									c0.1582565,0.4073009,0.2191238,0.82658,0.206955,1.2578411c0,0.1437531-0.0365219,0.2875061-0.0730438,0.4312592
									c-0.0121765,0.0718765-0.0852203,0.0838566-0.1460876,0.0359383s-0.1095657-0.1078148-0.1582565-0.1677113
									c-0.2799988-0.3713627-0.4747849-0.7666855-0.584343-1.1859646
									c-0.0486984-0.1796913-0.0852203-0.3593845-0.0365219-0.5390759
									c0.0365219-0.1197929,0.1095581-0.2036495,0.2434769-0.2515678
									C-114.9520493-23.2204323-114.915535-23.2324123-114.8790131-23.2443924z"/>
							</g>
						</g>
					</g>
				</g>
				<g id="XMLID_19_" transform="translate(12.442487, 29.734937)">
					<g id="XMLID_20_">
						<g id="XMLID_21_">
							<g id="XMLID_22_">
								<g id="XMLID_23_">
									<path class="st355" d="M-123.5109711-45.0168419c0.024353,0,0.0608749,0.0119781,0.0852203,0.0239601
										c0.0243454,0.0119781,0.0486984,0.0359383,0.0730438,0.0598946
										c0.0243454,0.0239601,0.0243454,0.0598984,0.0243454,0.0838585
										c-0.0121765,0.0598946-0.0486908,0.1078148-0.0973892,0.1437531
										c-0.0852203,0.0598984-0.170433,0.0958366-0.2678223,0.1317749c-0.0121765,0-0.024353,0.0119781-0.0486984,0.0119781
										c-0.0121765,0-0.0121765,0-0.0243454,0c-0.0121765,0-0.024353-0.0119781-0.0365219-0.0239601
										c-0.0121765-0.0119781,0-0.0239563,0.0121689-0.0359383c0.024353-0.0359383,0.0486984-0.0718765,0.0730438-0.1078148
										c0.0365219-0.0598984,0.0608749-0.1197929,0.0608749-0.1916695c0-0.0359383,0.0121689-0.0598984,0.0365219-0.0958366
										C-123.5961838-45.0048637-123.5596619-45.0168419-123.5109711-45.0168419z"/>
								</g>
							</g>
						</g>
					</g>
				</g>
				<g id="XMLID_14_" transform="translate(8.294992, 29.734937)">
					<g id="XMLID_15_">
						<g id="XMLID_16_">
							<g id="XMLID_17_">
								<g id="XMLID_18_">
									<path class="st355" d="M-120.2399902-45.040802c-0.0243454,0-0.0608673,0.011982-0.0852127,0.0239601
										c-0.024353,0.0119781-0.0608749,0.0359383-0.0852203,0.0598984
										c-0.0243454,0.0239563-0.0243454,0.0598946-0.0243454,0.0838547
										c0.0121689,0.0598984,0.0365219,0.1078148,0.0973892,0.155735c0.0730438,0.0598946,0.170433,0.1078148,0.2678223,0.1557312
										c0.0121765,0.0119781,0.024353,0.0119781,0.0486984,0.0119781c0.0121689,0,0.0121689,0,0.0243454,0
										s0.0243454-0.0119781,0.0365219-0.0239563c0.0121765-0.011982,0-0.0239601,0-0.0359383
										c-0.0243454-0.0359383-0.0486984-0.0718765-0.0730438-0.1078148
										c-0.0365219-0.0598984-0.0486908-0.1197968-0.0486908-0.1916733c0-0.0359383-0.0121765-0.0718765-0.0365219-0.0958366
										C-120.1547699-45.02882-120.1912918-45.040802-120.2399902-45.040802z"/>
								</g>
							</g>
						</g>
					</g>
				</g>
				<g id="XMLID_10_" transform="translate(7.702492, 13.992911)">
					<g id="XMLID_11_">
						<g id="XMLID_12_">
							<g id="XMLID_13_">
								<path class="st355" d="M-118.5274963-32.0061264c0-0.0598984-0.0121765-0.1197929-0.0365219-0.1677132l0,0
									c-0.0486984-0.1437531-0.170433-0.263546-0.3408661-0.3234444
									c-0.3286972-0.1078148-0.6452179-0.1078148-0.9739075,0.0359383c-0.0121765,0-0.0243454,0.0119781-0.0365219,0.0239601
									c-0.0973892,0.0718765-0.1217346,0.1916695-0.0730438,0.2875061
									c0.0365219,0.0598984,0.0730438,0.1197929,0.1460876,0.1677113
									c0.0608673,0.0479183,0.0486908,0.1557331,0.0730438,0.2276096c0,0.0239582,0,0.0359383-0.0121765,0.0718765
									c0.1339111-0.0239582,0.206955-0.0838566,0.2191315-0.1796913c0.170433,0.0838566,0.2434769,0.2635479,0.1947784,0.4671974
									c0.0121765,0,0.0121765,0,0.024353,0.0119801c0,0,0,0,0.0121689,0
									c0.0730438-0.0359383,0.1339111-0.1197948,0.1947861-0.2276096v0.1437531
									c0.0121689,0,0.0121689,0.0119801,0.0243454,0.0119801c0.0608673-0.1078148,0.1339111-0.2036514,0.1947784-0.3114662
									c0,0.0239601,0.0121765,0.0598984,0.024353,0.1078148c0.1217346-0.0838547,0.206955-0.1796913,0.2556458-0.3114643
									c0.0121765,0.0479183,0.0365219,0.0958347,0.0486984,0.1437531
									C-118.5640182-31.8863316-118.5396729-31.9462299-118.5274963-32.0061264z"/>
							</g>
						</g>
					</g>
				</g>
				<g id="XMLID_6_" transform="translate(15.997484, 22.738481)">
					<g id="XMLID_7_">
						<g id="XMLID_8_">
							<g id="XMLID_9_">
								<path class="st355" d="M-126.1894455-38.7870712c-0.0608749,0-0.1095657-0.0119781-0.170433-0.0239563
									c-0.0973969-0.0359383-0.1704407-0.0958366-0.2069626-0.1796913
									c-0.0365143-0.0958366-0.0486908-0.1916733-0.0243454-0.275528
									c0.0243454-0.1197929,0.1217422-0.1916733,0.2434769-0.2276115c0.0730438-0.0239563,0.1339111-0.0239563,0.206955-0.0119781
									s0.0973892,0.0838547,0.0486984,0.1317749c-0.0121765,0.0119781-0.024353,0.0239601-0.0365219,0.0359383
									c-0.0365219,0.0479164-0.0365219,0.0838547,0,0.1317749c0.0365219,0.0479164,0.0852127,0.0718765,0.1460876,0.0598946
									c0.0121689,0,0.0365219-0.0119781,0.0486908-0.0119781c0.0121765,0,0.024353-0.0119781,0.0365219-0.0119781
									c0.0608673-0.0239601,0.1095657,0.0119781,0.1095657,0.0598946c0,0.0479202-0.0121765,0.0958366-0.0365219,0.1317749
									c-0.0486984,0.1078148-0.1339111,0.1916695-0.2678223,0.2156296
									C-126.1164093-38.7870712-126.1529236-38.7870712-126.1894455-38.7870712z"/>
							</g>
						</g>
					</g>
				</g>
				<g id="XMLID_2_" transform="translate(2.962497, 22.155443)">
					<g id="XMLID_3_">
						<g id="XMLID_4_">
							<g id="XMLID_5_">
								<path class="st355" d="M-115.8083572-38.2998657c0.0608673,0,0.1095657,0,0.1582565-0.011982
									c0.0973969-0.0239563,0.170433-0.0838547,0.206955-0.1677094c0.0365219-0.0838585,0.0486984-0.1796913,0.024353-0.275528
									c-0.0365219-0.1197929-0.1217422-0.2036514-0.2556534-0.2515678
									c-0.0730438-0.0239601-0.1339111-0.0359383-0.206955-0.0239601
									c-0.0730438,0.011982-0.0973892,0.0718765-0.0486984,0.1197968c0.0121765,0.0119781,0.024353,0.0239563,0.0365219,0.0359383
									c0.0365219,0.0479164,0.0365219,0.0838547,0,0.1317711c-0.0365219,0.0479202-0.0852127,0.0598984-0.14608,0.0479202
									c-0.0121765,0-0.0365219-0.011982-0.0486984-0.0239601s-0.0243454-0.0119781-0.0365219-0.0239601
									c-0.0608673-0.0239563-0.1095657,0-0.1095657,0.0598984c0,0.0479164,0.0121765,0.0958366,0.0365219,0.1317749
									c0.0486984,0.1197929,0.1339111,0.1916695,0.2678223,0.2276077
									C-115.8814011-38.2998657-115.8448792-38.2998657-115.8083572-38.2998657z"/>
							</g>
						</g>
					</g>
				</g>
				<g>
					<path class="st355" d="M-112.3710785-14.5870962c0.170433,0.0718765,0.9130325,0.3114653,1.7043304,0.0479174
						c0.024353-0.0119791,0.0365219,0.0239592,0.024353,0.0359392c-0.0486984,0.0838556-0.1582642,0.2515669-0.3652191,0.3953209
						c-0.3652115,0.2515678-0.8278198,0.2395887-1.1443405-0.0838566c-0.0973892-0.0958357-0.1826019-0.2156296-0.2313004-0.3713617
						C-112.3954315-14.5751171-112.383255-14.5870962-112.3710785-14.5870962z"/>
				</g>
				<g>
					<path class="st319" d="M-112.1276016-14.5032396c0.1095581,0.0239582,0.6452103,0.1677113,1.2417297,0.0359383
						c0.0121689,0,0.0243454,0,0.0243454,0.0119791v0.0718756c0,0.0119801-0.0121765,0.0239592-0.0243454,0.0359383
						c-0.1095657,0.0479183-0.6817398,0.275528-1.2417297-0.0359383c-0.0121765-0.0119791-0.024353-0.0239582-0.024353-0.0359373
						v-0.0718765C-112.1519547-14.5032396-112.1397781-14.5152197-112.1276016-14.5032396z"/>
				</g>
				<g>
					<path class="st354" d="M-112.4319534-13.86833l1.9234695-0.0119801
						C-110.5084839-13.8803101-111.3850021-12.9818525-112.4319534-13.86833z"/>
				</g>
				<g>
					<path class="st355" d="M-112.6023865-14.551158c0,0,0.0973892-0.1197939,0.231308-0.1437531
						C-112.3710785-14.694911-112.5293427-14.7188702-112.6023865-14.551158z"/>
				</g>
				<g>
					<path class="st355" d="M-111.4702148-13.8323917c0,0-0.1582642,0.0479174-0.2799988-0.0119801
						C-111.7380447-13.8443718-111.6163025-13.7365561-111.4702148-13.8323917z"/>
				</g>
				<g>
					<path class="st355" d="M-110.6910934-14.6589727c0,0,0.1582642,0.0479174,0.2191315,0.1557331
						C-110.471962-14.5032396-110.5084839-14.6469936-110.6910934-14.6589727z"/>
				</g>
			</g>
			<g>
				<path class="st313" d="M-18.0961838,10.5785112v1.2571955c0,0-0.0850258,0.4321604,0.546587,0.3666821h3.8989859
					c0,0,0.2672205-0.4190674-0.1093168-0.6155033l-2.4414215-1.0214701h-1.8948345V10.5785112z"/>
			</g>
			<g>
				<path class="st313" d="M-14.1779175,10.7708817v1.3899164l4.3534136,0.0483437c0,0,0.422904-0.3142433,0-0.6405687
					l-2.3384047-0.7856054h-2.0150089V10.7708817z"/>
			</g>
			<g id="Rectangle_13_">
				<rect x="-15.8293238" y="12.2091417" class="st322" width="5.9863505" height="4.1093163"/>
				<path class="st227" d="M-9.7402296,16.4211903h-6.191865v-4.3147812h6.191865V16.4211903z M-15.7266293,16.2157249h5.7809334
					v-3.9038506h-5.7809334V16.2157249z"/>
			</g>
			<g>
				<rect x="-18.7192879" y="12.2091417" class="st318" width="2.8899634" height="4.1093163"/>
				<path class="st227" d="M-15.7266293,16.4211903h-3.0954304v-4.3147812h3.0954304V16.4211903z M-18.6165943,16.2157249h2.6844997
					v-3.9038506h-2.6844997V16.2157249z"/>
			</g>
			<g>
				<rect x="-24.7056408" y="16.3184586" class="st318" width="2.8899627" height="3.6983848"/>
				<path class="st227" d="M-21.7129288,20.1195755h-3.0954304v-3.9038506h3.0954304V20.1195755z M-24.6028938,19.9141102h2.6844997
					v-3.4929199h-2.6844997V19.9141102z"/>
			</g>
			<g>
				<rect x="-22.0221024" y="16.3184586" class="st322" width="6.1927772" height="3.6983848"/>
				<path class="st227" d="M-15.7266293,20.1195755h-6.3982334v-3.9038506h6.3982334V20.1195755z M-21.9193974,19.9141102h5.9873028
					v-3.4929199h-5.9873028V19.9141102z"/>
			</g>
			<g>
				<rect x="-15.8293238" y="16.3184586" class="st322" width="5.9863505" height="3.6983848"/>
				<path class="st227" d="M-9.7402296,20.1195755h-6.191865v-3.9038506h6.191865V20.1195755z M-15.7266293,19.9141102h5.7809334
					v-3.4929199h-5.7809334V19.9141102z"/>
			</g>
			<g>
				<rect x="-9.8429737" y="16.3184586" class="st322" width="5.986352" height="3.6983848"/>
				<path class="st227" d="M-3.753931,20.1195755h-6.1917648v-3.9038506h6.1917648V20.1195755z M-9.7402296,19.9141102h5.7808328
					v-3.4929199h-5.7808328V19.9141102z"/>
			</g>
			<g>
				<rect x="-31.1048622" y="21.0441723" class="st227" width="11.9726982" height="0.2054658"/>
			</g>
			<g>
				<rect x="-17.4807129" y="21.0441723" class="st227" width="10.7340841" height="0.2054658"/>
			</g>
			<g>
				<rect x="-5.3016462" y="21.0441723" class="st227" width="1.8579206" height="0.2054658"/>
			</g>
			<g>
				<rect x="-1.9987432" y="21.0441723" class="st227" width="4.7477856" height="0.2054658"/>
			</g>
			<g>
				<rect x="-23.673481" y="22.4824333" class="st227" width="12.7983742" height="0.2054658"/>
			</g>
			<g>
				<rect x="-9.2236557" y="22.4824333" class="st227" width="5.1606231" height="0.2054658"/>
			</g>
			<g>
				<rect x="-26.7699146" y="22.4824333" class="st227" width="1.8578204" height="0.2054658"/>
			</g>
			<g>
				<rect x="-3.8566639" y="19.8113766" class="st227" width="10.7341843" height="0.2054658"/>
			</g>
			<g>
				<rect x="-37.2976303" y="19.8113766" class="st227" width="12.5920048" height="0.2054658"/>
			</g>
			<g id="Group_10_" transform="translate(40.186916, 72.000000)">
				<g>
					<rect x="-64.7408524" y="-78.7241135" class="st227" width="0.1780771" height="0.2054658"/>
				</g>
				<g>
					<path class="st227" d="M-65.0732269-78.5186462h-0.5743637v-0.2054672h0.5743637V-78.5186462z M-66.2219467-78.5186462
						h-0.5743637v-0.2054672h0.5743637V-78.5186462z M-67.3706741-78.5186462h-0.5743561v-0.2054672h0.5743561V-78.5186462z
						 M-68.5193939-78.5186462h-0.3638763v-0.2054672h0.3638763V-78.5186462z"/>
				</g>
				<g>
					<rect x="-69.2274933" y="-78.7241135" class="st227" width="0.1780771" height="0.2054658"/>
				</g>
			</g>
			<g transform="translate(51.238318, 40.000000)">
				<g>
					
						<rect x="-73.5396194" y="-50.7663078" transform="matrix(0.472934 -0.8810979 0.8810979 0.472934 5.9448256 -91.4149551)" class="st227" width="0.2053957" height="0.179677"/>
				</g>
				<g>
					<path class="st227" d="M-73.8951035-50.8114586l-0.5516891-0.3099022l0.1007233-0.1791801l0.5516891,0.3099022
						L-73.8951035-50.8114586z M-74.9985809-51.4311676l-0.5516891-0.3099022l0.1007309-0.1791801l0.5516815,0.3099022
						L-74.9985809-51.4311676z M-76.1019592-52.0508728l-0.5516891-0.309906l0.1007309-0.1791801l0.5516891,0.309906
						L-76.1019592-52.0508728z M-77.2053299-52.6705818l-0.4513626-0.253521l0.1005249-0.1791801l0.4513626,0.253521
						L-77.2053299-52.6705818z"/>
				</g>
				<g>
					
						<rect x="-77.9527359" y="-53.2453156" transform="matrix(0.495037 -0.8688719 0.8688719 0.495037 6.8667793 -94.4790268)" class="st227" width="0.205522" height="0.1961766"/>
				</g>
			</g>
			<g transform="translate(74.345794, 17.000000)">
				<g>
					
						<rect x="-93.7311554" y="-30.2782516" transform="matrix(0.880217 -0.4745714 0.4745714 0.880217 3.1119602 -48.049572)" class="st227" width="0.2054091" height="0.1775773"/>
				</g>
				<g>
					<path class="st227" d="M-93.9288177-30.5181293l-0.2878342-0.5141659l0.1793823-0.1003246l0.2878265,0.5141659
						L-93.9288177-30.5181293z M-94.5043869-31.5464611l-0.2879333-0.5142651l0.179184-0.1003265l0.2879333,0.514267
						L-94.5043869-31.5464611z M-95.0802536-32.574894l-0.2878342-0.514164l0.1793823-0.1003265l0.2878342,0.514164
						L-95.0802536-32.574894z M-95.6558151-33.6032257l-0.2879333-0.5141678l0.1791763-0.1003227l0.2879333,0.514164
						L-95.6558151-33.6032257z"/>
				</g>
				<g>
					
						<rect x="-96.3502274" y="-34.9479027" transform="matrix(0.8512644 -0.5247371 0.5247371 0.8512644 3.9748232 -55.6889572)" class="st227" width="0.2054832" height="0.1837347"/>
				</g>
			</g>
			<g transform="translate(126.588785, 17.000000)">
				<g>
					
						<rect x="-137.8270721" y="-30.2921677" transform="matrix(0.4747405 -0.8801258 0.8801258 0.4747405 -45.7778168 -137.0843201)" class="st227" width="0.1775773" height="0.2054091"/>
				</g>
				<g>
					<path class="st227" d="M-137.4262695-30.5173264l-0.1783752-0.1019306l0.2942505-0.5146675l0.1783752,0.1019306
						L-137.4262695-30.5173264z M-136.8378601-31.5466614l-0.1783752-0.1019306l0.2942505-0.5146694l0.1783752,0.1019325
						L-136.8378601-31.5466614z M-136.2494507-32.5758972l-0.1783752-0.1019287l0.2942505-0.5146675l0.1783752,0.1019287
						L-136.2494507-32.5758972z M-135.6610413-33.6052322l-0.1783905-0.1019287l0.2942657-0.5146713l0.1783752,0.1019325
						L-135.6610413-33.6052322z"/>
				</g>
				<g>
					
						<rect x="-135.1418152" y="-34.9587402" transform="matrix(0.4747405 -0.8801258 0.8801258 0.4747405 -40.2601662 -137.1720734)" class="st227" width="0.1776656" height="0.2054091"/>
				</g>
			</g>
			<g transform="translate(139.649533, 40.000000)">
				<g>
					
						<rect x="-148.1707458" y="-50.6147423" transform="matrix(0.8533301 -0.521371 0.521371 0.8533301 4.6167955 -84.6125412)" class="st227" width="0.1840711" height="0.2055105"/>
				</g>
				<g>
					<path class="st227" d="M-147.6591644-50.6384964l-0.1021271-0.1783791l0.5042419-0.2886353l0.1021271,0.1783791
						L-147.6591644-50.6384964z M-146.6506958-51.2156677l-0.1021271-0.1783791l0.5042419-0.2886353l0.1021271,0.1783791
						L-146.6506958-51.2156677z M-145.6422272-51.7928391l-0.1021271-0.1783752l0.5042419-0.2886353l0.1021271,0.1783752
						L-145.6422272-51.7928391z M-144.6337585-52.3701096l-0.1021271-0.1783752l0.5042419-0.2885361l0.1021271,0.1783791
						L-144.6337585-52.3701096z"/>
				</g>
				<g>
					
						<rect x="-143.579071" y="-53.2514877" transform="matrix(0.8533301 -0.521371 0.521371 0.8533301 6.664979 -82.6053009)" class="st227" width="0.1840711" height="0.2055105"/>
				</g>
			</g>
			<g transform="translate(146.682243, 72.000000)">
				<g>
					<rect x="-153.7817078" y="-78.7241135" class="st227" width="0.1800836" height="0.2054658"/>
				</g>
				<g>
					<path class="st227" d="M-149.0890961-78.5186462h-0.4372253v-0.2054672h0.4372253V-78.5186462z M-150.1455231-78.5186462
						h-0.6192017v-0.2054672h0.6192017V-78.5186462z M-151.3839417-78.5186462h-0.6192017v-0.2054672h0.6192017V-78.5186462z
						 M-152.622345-78.5186462h-0.6192169v-0.2054672h0.6192169V-78.5186462z"/>
				</g>
				<g>
					<rect x="-148.9090118" y="-78.7241135" class="st227" width="0.1799832" height="0.2054658"/>
				</g>
			</g>
			<g transform="translate(139.649533, 89.000000)">
				<g>
					
						<rect x="-148.1813965" y="-92.1991577" transform="matrix(0.5089886 -0.8607733 0.8607733 0.5089886 6.5756688 -172.6882324)" class="st227" width="0.2053704" height="0.1825209"/>
				</g>
				<g>
					<path class="st227" d="M-144.1929321-89.8832855l-0.5077362-0.2749939l0.0979156-0.1805801l0.5077515,0.2749863
						L-144.1929321-89.8832855z M-145.2084198-90.4333649l-0.5076447-0.2749939l0.0979156-0.1805878l0.5076447,0.2749939
						L-145.2084198-90.4333649z M-146.2238007-90.9834518l-0.5077515-0.2749863l0.0979156-0.1805878l0.5077515,0.2749939
						L-146.2238007-90.9834518z M-147.2393036-91.5335312l-0.5077362-0.2749939l0.0979156-0.1805801l0.5077515,0.2749863
						L-147.2393036-91.5335312z"/>
				</g>
				<g>
					
						<rect x="-143.589798" y="-89.7052612" transform="matrix(0.4594229 -0.8882176 0.8882176 0.4594229 2.0334377 -175.8925171)" class="st227" width="0.2055074" height="0.1768813"/>
				</g>
			</g>
			<g>
				<path class="st321" d="M-6.0846477-4.2107091c0.2142162-0.0918808,0.4788361-0.2625165,0.6174479-0.5906644
					c0.0252004-0.0656281,0.1134081-0.0525026,0.1260085,0.0131269c0.063004,0.2231388,0.2268162,0.4856567,0.6048441,0.6037893
					c0.063004,0.0262523,0.0756044,0.1181331,0.0126004,0.1443853c-0.2016158,0.0787551-0.4536328,0.2493908-0.6048446,0.5906641
					c-0.0252004,0.0656283-0.1134081,0.0525029-0.1260085-0.0131271c-0.063004-0.2100134-0.2394195-0.4856565-0.6300478-0.6037893
					C-6.1350517-4.0925765-6.1476517-4.1844573-6.0846477-4.2107091z"/>
			</g>
			<g>
				<path class="st343" d="M-26.028614-9.056571c-0.0050144,0-0.0099316-0.0002003-0.0149479-0.0007019
					c-0.0763474-0.0067215-0.1374454-0.062603-0.152092-0.1390505c-0.0336094-0.1105585-0.1604195-0.4045115-0.5569057-0.5247002
					c-0.076849-0.0316029-0.1200886-0.0972157-0.1200886-0.1706533c0.0001011-0.0731373,0.0430393-0.1383486,0.1094551-0.1665401
					c0.2718811-0.1169786,0.4606934-0.2973633,0.5612183-0.5361366c0.0260849-0.0682211,0.0936031-0.1116619,0.168848-0.1053419
					c0.0764465,0.0067225,0.1376457,0.062603,0.1523933,0.1389503c0.0494595,0.1747665,0.1840954,0.4159479,0.5326252,0.5252018
					c0.0789566,0.032506,0.126009,0.1032352,0.1259079,0.1791811c0,0.0706291-0.0400295,0.1312246-0.1044388,0.1580114
					c-0.1727581,0.0677195-0.4062157,0.2150974-0.5484772,0.5374422C-25.8988934-9.0987072-25.9600906-9.056571-26.028614-9.056571z
					 M-26.0640278-9.2414703c-0.0004005,0.0007029-0.0007019,0.0015049-0.0010033,0.0022078
					C-26.0647297-9.2399654-26.0644283-9.2407675-26.0640278-9.2414703z M-25.9965096-9.2457838
					c0.0001011,0.0003014,0.0001011,0.0005016,0.0002003,0.000803C-25.9963093-9.245182-25.9964085-9.2453823-25.9965096-9.2457838z
					 M-26.6253471-9.8950882c0.3708019,0.1329308,0.5336304,0.4028053,0.6012478,0.5709505
					c0.1606216-0.3053894,0.3929749-0.4604921,0.553997-0.5360374c-0.3546505-0.1320276-0.5127621-0.3854485-0.5826893-0.5692444
					C-26.1734829-10.1976681-26.3653049-10.0189896-26.6253471-9.8950882z M-26.0805817-10.5134916
					c0.0001011,0.0003004,0.0001011,0.0007019,0.0003014,0.0010033
					C-26.0803814-10.5127897-26.0804806-10.5130911-26.0805817-10.5134916z M-26.0112572-10.5177059
					c-0.0003014,0.0005016-0.0005016,0.0010033-0.0007019,0.0015049
					C-26.0117588-10.5167027-26.0114574-10.5172043-26.0112572-10.5177059z"/>
			</g>
			<g>
				<path class="st1" d="M-3.8516476-4.125391c-0.0056183,0-0.0114372-0.0002007-0.0171556-0.0007024
					c-0.0589912-0.0053172-0.1075485-0.0360165-0.1298206-0.0822663C-4.0275178-4.2730694-4.1289463-4.4251623-4.474165-4.5014095
					L-4.5103822-4.517261c-0.0513668-0.0354147-0.078053-0.1019301-0.0649104-0.1615233
					c0.0121393-0.0549779,0.0554795-0.0959105,0.1138687-0.1079497c0.1037364-0.0279908,0.3493323-0.1111603,0.4692206-0.2953572
					c0.038224-0.053072,0.0998235-0.0778522,0.1627274-0.0689235c0.0605965,0.0085278,0.1100566,0.0466514,0.1292188,0.0995226
					c0.0396285,0.0883865,0.1517918,0.2161002,0.4450421,0.2836194c0.0687227,0.0117378,0.1206911,0.068923,0.1205909,0.1379466
					C-3.1347244-4.5609021-3.186693-4.5038171-3.2609334-4.4911761c-0.2095792,0.0561819-0.3635783,0.1552029-0.4486539,0.292347
					C-3.7442999-4.150372-3.7953653-4.125391-3.8516476-4.125391z M-4.2379994-4.6460781
					c0.218307,0.0814638,0.3315742,0.1955333,0.3899634,0.2856255c0.0824673-0.1109595,0.2017539-0.200851,0.3550506-0.2668648
					C-3.6914284-4.7068753-3.7998798-4.8165307-3.859473-4.91505C-3.9636104-4.7840252-4.109684-4.6993508-4.2379994-4.6460781z
					 M-3.299057-4.5672226c0.0011036,0.0003009,0.0022073,0.0005016,0.0033107,0.0007019
					C-3.2968497-4.566721-3.2979534-4.5670223-3.299057-4.5672226z M-3.3046751-4.6917262
					C-3.3053775-4.6916261-3.30618-4.6914253-3.3069828-4.6910238C-3.3062804-4.6912246-3.3054779-4.6915255-3.3046751-4.6917262z
					 M-3.8906741-4.9748435C-3.8901725-4.9731383-3.88937-4.9714327-3.8884671-4.969727
					C-3.8891692-4.9714327-3.8899717-4.9731383-3.8906741-4.9748435z"/>
			</g>
			<g transform="translate(75.350467, 43.000000)">
				<g>
					<polyline class="st318" points="-93.3969955,-52.592907 -93.3969955,-45.5829811 -93.2872086,-45.2577782 
						-87.4810104,-45.3782234 -87.2370529,-46.0888519 -87.2370529,-52.2436142 					"/>
				</g>
				<g>
					<rect x="-93.3238068" y="-53.3998909" class="st318" width="6.0257607" height="1.2526331"/>
				</g>
				<g>
					<path class="st318" d="M-93.1164398-52.9783325l-2.0004578,2.854557l1.6711121,3.7458572l-1.5735245,0.6263161
						l-1.9882584-3.9987907c0,0-0.2561569-0.6022263,0.1341782-1.0478783l2.9030991-3.9747009
						c0,0,0.487915-0.8310738,1.6345139-0.8551598h4.1472855c0,0,0.8294601,0.0361328,1.5857315,1.1683197l2.5371628,3.4688301
						c0,0,0.5245056,0.6263161,0.1707687,1.2405891l-1.9028702,3.9987907l-1.6345215-0.5420074l1.7321014-3.818119
						l-2.0004578-2.7702484"/>
				</g>
			</g>
			<g>
				<path class="st345" d="M-12.1561604-3.2007945l1.0746326,0.3952684l-0.3123932,0.3353789l0.037487,0.6827359
					c0,0,0.049984,0.2395575-0.2124262,0.4431798l-0.7997255,0.8144926c0,0-0.099966-0.3114232,0-0.574935
					c0,0,0.3873663-0.5749365,0.3623753-1.1738273l-0.4748373,1.0899822c0,0-0.3498802,0.0598893-0.2249241-0.4551578
					L-12.1561604-3.2007945z"/>
			</g>
			<g>
				<polygon class="st365" points="-17.7865219,-2.1015527 -17.8935833,10.7708817 -16.0378494,10.7708817 -14.3843431,-2.1734653 
									"/>
			</g>
			<g>
				<path class="st345" d="M-18.2639332-3.2007945l-1.0746326,0.3952684l0.3123932,0.3353789l-0.037487,0.6827359
					c0,0-0.049984,0.2395575,0.2124271,0.4431798l0.7997246,0.8144926c0,0,0.099966-0.3114232,0-0.574935
					c0,0-0.3873653-0.5749365-0.3623753-1.1738273l0.4748363,1.0899822c0,0,0.3498802,0.0598893,0.2249222-0.4551578
					L-18.2639332-3.2007945z"/>
			</g>
		</g>
	</g>
</g>
</svg>
