<svg width="414" height="41" viewBox="0 0 414 41" fill="none" xmlns="http://www.w3.org/2000/svg">
<path d="M6.5 20.4807C6.5 21.3749 5.8 22.0703 4.9 22.0703H1.6C0.7 22.0703 0 21.3749 0 20.4807C0 19.5866 0.7 18.8912 1.6 18.8912H4.8C5.7 18.7919 6.5 19.5866 6.5 20.4807Z" fill="#FF671D"/>
<path d="M19.8706 20.4807C19.8706 21.3749 19.2051 22.0703 18.3494 22.0703H10.4578C9.60208 22.0703 8.93652 21.3749 8.93652 20.4807C8.93652 19.5866 9.60208 18.8912 10.4578 18.8912H18.3494C19.11 18.7919 19.8706 19.5866 19.8706 20.4807Z" fill="#FF671D"/>
<path d="M9.60168 11.5398C9.60168 12.4339 8.93612 13.1293 8.08041 13.1293H5.03787C4.18216 13.1293 3.5166 12.4339 3.5166 11.5398C3.5166 10.6457 4.18216 9.95031 5.03787 9.95031H8.08041C8.84104 9.85097 9.60168 10.6457 9.60168 11.5398Z" fill="#ABC8E7"/>
<path d="M23.2935 11.5398C23.2935 12.4339 22.6279 13.1293 21.7722 13.1293H13.8806C13.0249 13.1293 12.3594 12.4339 12.3594 11.5398C12.3594 10.6457 13.0249 9.95031 13.8806 9.95031H21.7722C22.5329 9.85097 23.2935 10.6457 23.2935 11.5398Z" fill="#ABC8E7"/>
<path d="M9.60168 29.4217C9.60168 30.3158 8.93612 31.0112 8.08041 31.0112H5.03787C4.18216 31.0112 3.5166 30.3158 3.5166 29.4217C3.5166 28.5276 4.18216 27.8322 5.03787 27.8322H8.08041C8.84104 27.7328 9.60168 28.5276 9.60168 29.4217Z" fill="#ABC8E7"/>
<path d="M23.2935 29.4217C23.2935 30.3158 22.6279 31.0112 21.7722 31.0112H13.8806C13.0249 31.0112 12.3594 30.3158 12.3594 29.4217C12.3594 28.5276 13.0249 27.8322 13.8806 27.8322H21.7722C22.5329 27.7328 23.2935 28.5276 23.2935 29.4217Z" fill="#ABC8E7"/>
<path d="M24.3398 2.40031C24.3398 3.19506 23.6743 3.79112 22.8186 3.79112H15.5926C14.7368 3.79112 14.0713 3.19506 14.0713 2.40031C14.0713 1.60555 14.7368 1.00949 15.5926 1.00949H22.8186C23.5792 0.910147 24.3398 1.60555 24.3398 2.40031Z" fill="#4197CB"/>
<path d="M34.6084 2.40031C34.6084 3.19506 33.9428 3.79112 33.0871 3.79112H29.284C28.4283 3.79112 27.7627 3.19506 27.7627 2.40031C27.7627 1.60555 28.4283 1.00949 29.284 1.00949H33.0871C33.8478 0.910147 34.6084 1.60555 34.6084 2.40031Z" fill="#4197CB"/>
<path d="M24.3398 38.4621C24.3398 39.2569 23.6743 39.8529 22.8186 39.8529H15.5926C14.7368 39.8529 14.0713 39.2569 14.0713 38.4621C14.0713 37.6674 14.7368 37.0713 15.5926 37.0713H22.8186C23.5792 37.0713 24.3398 37.6674 24.3398 38.4621Z" fill="#4197CB"/>
<path d="M34.6084 38.4621C34.6084 39.2569 33.9428 39.8529 33.0871 39.8529H29.284C28.4283 39.8529 27.7627 39.2569 27.7627 38.4621C27.7627 37.6674 28.4283 37.0713 29.284 37.0713H33.0871C33.8478 37.0713 34.6084 37.6674 34.6084 38.4621Z" fill="#4197CB"/>
<path d="M56.0958 28.1301C60.6117 28.1301 64.2726 24.7498 64.2726 20.58C64.2726 16.4101 60.6117 13.0298 56.0958 13.0298C51.5798 13.0298 47.9189 16.4101 47.9189 20.58C47.9189 24.7498 51.5798 28.1301 56.0958 28.1301Z" stroke="#FF671D" stroke-width="2.52" stroke-miterlimit="10"/>
<path d="M42.1197 25.5472C40.5984 27.1367 38.4116 28.1301 35.9395 28.1301C31.3757 28.1301 27.7627 24.7524 27.7627 20.58C27.7627 16.4075 31.4708 13.0298 35.9395 13.0298C38.4116 13.0298 40.5984 14.0232 42.1197 15.6127" stroke="#FF671D" stroke-width="2.52" stroke-miterlimit="10" stroke-linecap="round"/>
<path d="M71.8789 28.6275V13.7259C71.8789 13.7259 79.4852 11.739 83.2884 14.322C85.6654 15.9115 85.6654 18.3951 85.5703 28.3295" stroke="#FF671D" stroke-width="2.52" stroke-miterlimit="10" stroke-linecap="round"/>
<path d="M102.115 3.49316C102.115 3.49316 95.1738 5.38071 95.1738 10.2486C95.1738 14.2223 95.1738 28.6273 95.1738 28.6273" stroke="#FF671D" stroke-width="2.52" stroke-miterlimit="10" stroke-linecap="round"/>
<path d="M99.4524 13.3282C99.0721 13.3282 95.1738 12.7321 95.1738 17.0039V28.6272" stroke="#FF671D" stroke-width="2.52" stroke-miterlimit="10" stroke-linecap="round"/>
<path d="M110.195 6.47363V28.6274" stroke="#FF671D" stroke-width="2.52" stroke-miterlimit="10" stroke-linecap="round" stroke-linejoin="bevel"/>
<path d="M133.49 13.6264V27.4353C133.49 27.4353 125.598 29.4222 121.89 26.8392C119.513 25.2497 119.608 23.2628 119.703 13.4277" stroke="#FF671D" stroke-width="2.52" stroke-miterlimit="10" stroke-linecap="round"/>
<path d="M166.008 28.6275V13.7259C166.008 13.7259 173.614 11.739 177.417 14.322C179.794 15.9115 179.794 18.3951 179.699 28.3295" stroke="#FF671D" stroke-width="2.52" stroke-miterlimit="10" stroke-linecap="round"/>
<path d="M146.706 21.3749H157.069C157.069 21.3749 158.02 15.4142 152.601 13.7254C148.417 12.4339 141.286 13.4274 141.286 20.8782C141.286 29.1237 152.22 28.4283 157.355 27.5342" stroke="#FF671D" stroke-width="2.52" stroke-miterlimit="10" stroke-linecap="round"/>
<path d="M188.637 9.75195C188.637 9.75195 188.637 22.9647 188.637 23.8588C188.637 26.8392 190.728 28.4287 195.673 28.4287" stroke="#FF671D" stroke-width="2.52" stroke-miterlimit="10" stroke-linecap="round" stroke-linejoin="bevel"/>
<path d="M188.637 17.0036C188.637 12.7318 192.25 13.0299 192.535 13.0299" stroke="#FF671D" stroke-width="2.52" stroke-miterlimit="10" stroke-linecap="round" stroke-linejoin="bevel"/>
<g clip-path="url(#clip0)">
<path d="M367.596 12.6356C366.636 11.722 365.483 11.0397 364.169 10.607C362.859 10.1756 360.854 9.96582 358.041 9.96582H353.466V30.1845H360.115C362.742 30.1845 364.785 29.7489 366.186 28.8903C367.588 28.0304 368.684 26.8213 369.443 25.2986C370.195 23.792 370.576 22.1661 370.576 20.4678C370.576 18.7856 370.319 17.2761 369.813 15.9806C369.302 14.6747 368.556 13.5492 367.596 12.6356ZM367.285 20.2581C367.285 21.4017 367.103 22.4184 366.743 23.2811C366.388 24.1327 365.865 24.8624 365.188 25.4505C364.515 26.0352 363.711 26.4359 362.799 26.6422C361.841 26.8589 360.267 26.969 358.119 26.969H356.679V13.2335H357.289C359.373 13.2335 360.989 13.3401 362.091 13.5513C363.144 13.7527 364.072 14.1583 364.849 14.7583C365.62 15.3534 366.224 16.1374 366.644 17.088C367.069 18.0517 367.285 19.1187 367.285 20.2581Z" fill="#001959"/>
<path d="M395.366 9.93604H392.284V15.0466H389.946V17.9133H392.284V27.2608C392.284 28.2494 392.525 28.9987 393.001 29.4894C393.48 29.9834 394.196 30.2334 395.131 30.2334C395.577 30.2334 396.198 30.1652 397.03 30.0261L397.455 29.9546V27.224H395.752C395.566 27.224 395.445 27.2147 395.376 27.2093C395.371 27.1578 395.366 27.0857 395.366 26.9847V17.9133H398.052V15.0466H395.366V9.93604Z" fill="#001959"/>
<path d="M297.155 9.95703L290.048 24.5239L282.891 9.95703H281.554L278.698 30.2339H281.934L283.532 18.3339L289.382 30.2339H290.719L296.492 18.4415L298.088 30.2339H301.377L298.494 9.95703H297.155Z" fill="#001959"/>
<path d="M314.81 16.6638C313.566 15.5661 312.093 15.0107 310.418 15.0107C308.344 15.0107 306.563 15.7615 305.122 17.2414C303.684 18.7187 302.954 20.5186 302.954 22.5906C302.954 24.6613 303.678 26.4678 305.107 27.9608C306.54 29.4597 308.29 30.2197 310.308 30.2197C311.964 30.2197 313.473 29.64 314.81 28.4939V30.2332L317.784 30.2197V15.0464H314.81V16.6638V16.6638ZM313.61 19.3239C314.483 20.2275 314.908 21.3199 314.908 22.6641C314.908 24.0063 314.477 25.0934 313.59 25.9878C312.704 26.8828 311.678 27.3175 310.455 27.3175C309.219 27.3175 308.188 26.8651 307.302 25.9334C306.411 24.997 305.977 23.9237 305.977 22.6523C305.977 21.3789 306.404 20.3042 307.28 19.3672C308.149 18.4387 309.184 17.987 310.442 17.987C311.704 17.987 312.741 18.4243 313.61 19.3239Z" fill="#001959"/>
<path d="M347.789 16.6638C346.544 15.5661 345.072 15.0107 343.397 15.0107C341.323 15.0107 339.541 15.7615 338.101 17.2414C336.662 18.7187 335.933 20.5186 335.933 22.5906C335.933 24.6613 336.657 26.4678 338.085 27.9608C339.518 29.4597 341.268 30.2197 343.287 30.2197C344.942 30.2197 346.452 29.64 347.789 28.4939V30.2332L350.763 30.2197V15.0464H347.789V16.6638V16.6638ZM346.589 19.3239C347.462 20.2275 347.886 21.3199 347.886 22.6641C347.886 24.0063 347.455 25.0934 346.569 25.9878C345.682 26.8828 344.657 27.3175 343.433 27.3175C342.197 27.3175 341.166 26.8651 340.28 25.9334C339.389 24.997 338.956 23.9237 338.956 22.6523C338.956 21.3789 339.382 20.3042 340.259 19.3672C341.128 18.4387 342.162 17.987 343.421 17.987C344.683 17.987 345.719 18.4243 346.589 19.3239Z" fill="#001959"/>
<path d="M384.413 16.6638C383.168 15.5661 381.696 15.0107 380.021 15.0107C377.947 15.0107 376.165 15.7615 374.725 17.2414C373.286 18.7187 372.557 20.5186 372.557 22.5906C372.557 24.6613 373.281 26.4678 374.709 27.9608C376.142 29.4597 377.892 30.2197 379.911 30.2197C381.566 30.2197 383.076 29.64 384.413 28.4939V30.2332L387.387 30.2197V15.0464H384.413V16.6638V16.6638ZM383.213 19.3239C384.086 20.2275 384.51 21.3199 384.51 22.6641C384.51 24.0063 384.079 25.0934 383.193 25.9878C382.306 26.8828 381.281 27.3175 380.057 27.3175C378.821 27.3175 377.79 26.8651 376.904 25.9334C376.013 24.997 375.58 23.9237 375.58 22.6523C375.58 21.3789 376.006 20.3042 376.883 19.3672C377.752 18.4387 378.786 17.987 380.045 17.987C381.307 17.987 382.343 18.4243 383.213 19.3239Z" fill="#001959"/>
<path d="M411.027 16.6638C409.782 15.5661 408.31 15.0107 406.635 15.0107C404.561 15.0107 402.779 15.7615 401.339 17.2414C399.9 18.7187 399.171 20.5186 399.171 22.5906C399.171 24.6613 399.895 26.4678 401.323 27.9608C402.757 29.4597 404.507 30.2197 406.525 30.2197C408.18 30.2197 409.69 29.64 411.027 28.4939V30.2332L414.001 30.2197V15.0464H411.027V16.6638V16.6638ZM409.827 19.3239C410.7 20.2275 411.125 21.3199 411.125 22.6641C411.125 24.0063 410.694 25.0934 409.807 25.9878C408.921 26.8828 407.895 27.3175 406.671 27.3175C405.436 27.3175 404.404 26.8651 403.519 25.9334C402.627 24.997 402.194 23.9237 402.194 22.6523C402.194 21.3789 402.62 20.3042 403.497 19.3672C404.366 18.4387 405.401 17.987 406.659 17.987C407.921 17.987 408.957 18.4243 409.827 19.3239Z" fill="#001959"/>
<path d="M327.828 24.6248L323.569 15.0464H320.253L326.152 28.4583L323.261 35.1249H326.577L335.286 15.0464H331.944L327.828 24.6248Z" fill="#001959"/>
<path d="M239.961 14.7344V34.1179C239.961 34.6117 240.222 34.9921 240.647 35.2382L250.028 40.7912C250.45 41.0361 250.969 41.0826 251.391 40.8378L260.77 35.2551C261.195 35.0083 261.458 34.613 261.458 34.1179V14.7173L250.709 21.1726L239.961 14.7344Z" fill="#001959"/>
<path d="M236.784 32.0906V13.3793C236.784 13.0933 236.856 12.732 237.41 12.4552L250.319 4.70333C250.561 4.56418 250.858 4.56418 251.1 4.70333L264.25 12.5986C264.497 12.7402 264.64 12.8329 264.635 13.1585L264.635 32.0906C264.635 32.4833 265.065 32.6682 265.405 32.4779L268.048 30.894C268.299 30.7537 268.419 30.5424 268.419 30.2531V10.8853C268.419 10.5441 268.306 10.4273 268.063 10.2848L251.105 0.107668C250.86 -0.0355209 250.559 -0.0359132 250.314 0.10664L233.388 10.2746C233.144 10.4168 233 10.6594 233 10.9437V30.2531C233 30.5321 233.117 30.7403 233.353 30.8843L236.023 32.4832C236.363 32.6903 236.784 32.4918 236.784 32.0906Z" fill="#001959"/>
<path d="M258.369 12.9174L250.709 8.3291L243.049 12.9174L250.709 17.5057L258.369 12.9174Z" fill="#0063FF"/>
</g>
<defs>
<clipPath id="clip0">
<rect x="233" width="181" height="41" fill="white"/>
</clipPath>
</defs>
</svg>
