<svg width="811" height="214" viewBox="0 0 811 214" fill="none" xmlns="http://www.w3.org/2000/svg">
<path d="M806.999 214C806.999 179.503 807 148.774 807 127.558C807 110.989 793.793 97.5455 777.224 97.5021C644.672 97.1549 170.849 95.3219 33.6482 95.0028C17.0797 94.9643 3.99998 81.5445 3.99998 64.9759C3.99998 48.8593 3.99998 26.7693 3.99998 0" stroke="url(#paint0_linear)" stroke-width="8"/>
<path d="M806.999 214C806.999 179.503 807 148.774 807 127.558C807 110.989 793.793 97.5455 777.224 97.5021C644.672 97.1549 170.849 95.3219 33.6482 95.0028C17.0797 94.9643 4 81.5445 4 64.9759C4 48.8593 4 26.7693 4 0" stroke="url(#paint1_linear)" stroke-width="8"/>
<defs>
<linearGradient id="paint0_linear" x1="807" y1="223" x2="37.6128" y2="62.1855" gradientUnits="userSpaceOnUse">
<stop stop-color="#A93DDB" stop-opacity="0.4"/>
<stop offset="0.322917" stop-color="#A93DDB"/>
<stop offset="0.744792" stop-color="#663DDB"/>
<stop offset="1" stop-color="#663DDB" stop-opacity="0.4"/>
</linearGradient>
<linearGradient id="paint1_linear" x1="807" y1="223" x2="37.6128" y2="62.1855" gradientUnits="userSpaceOnUse">
<stop stop-color="#A93DDB" stop-opacity="0.4"/>
<stop offset="0.322917" stop-color="#A93DDB"/>
<stop offset="0.744792" stop-color="#663DDB"/>
<stop offset="1" stop-color="#663DDB" stop-opacity="0.4"/>
</linearGradient>
</defs>
</svg>
