<svg width="475" height="301" viewBox="0 0 475 301" fill="none" xmlns="http://www.w3.org/2000/svg">
<path d="M419.908 198.401C417.607 218.112 412.827 233.939 406.265 246.56C397.533 263.377 382.598 270.153 369.256 277.243C365.4 279.288 361.392 281.031 357.267 282.456C332.989 290.882 305.816 288.646 284.472 284.198C269.501 281.075 254.305 279.154 239.028 278.452C234.671 278.256 230.309 278.158 225.944 278.16C219.212 278.169 97.9949 280.469 68.482 220.719C61.1955 205.98 56.201 187.975 54.4067 166.028C49.3292 103.982 77.2355 63.231 113.232 36.5952C181.325 -13.7906 274.662 -11.6775 341.751 40.0355C386.44 74.4817 428.281 126.614 419.908 198.401Z" fill="#B8CFFF"/>
<path opacity="0.1" d="M242.084 282.818C237.727 282.622 233.366 282.524 229 282.526L178.579 170.778L242.084 282.818Z" fill="black"/>
<path d="M85.5528 241.901C94.0304 258.714 105.564 269.853 118.518 276.941C122.261 278.985 126.153 280.728 130.158 282.152C153.729 290.576 180.112 288.342 200.835 283.894C215.37 280.772 230.124 278.851 244.957 278.15C249.187 277.954 253.422 277.856 257.66 277.857C264.197 277.866 303.597 281.661 310.131 282.152C352.591 285.365 418.41 272.256 413.508 216.066L341.813 73.0769L315.13 143.62L306.614 166.138L283.144 132.974L271.025 115.851L215.836 181.004L200.237 145.532C158.062 180.972 134.417 200.843 92.2416 236.283L86.2183 241.342L85.5528 241.901Z" fill="#F2F2F2"/>
<path opacity="0.1" d="M120 269.598C123.668 271.508 127.481 273.135 131.405 274.465L215.356 180L120 269.598Z" fill="black"/>
<path opacity="0.1" d="M278.94 137.971L268.177 128.33L219.231 193.386L268.93 137.872L278.94 137.971Z" fill="black"/>
<path opacity="0.1" d="M333.302 116.677L344.653 91.7917L360.37 128.028L346.836 101.833L333.302 116.677Z" fill="black"/>
<path d="M475 268.044C475 275.278 368.668 300.351 237.5 300.351C106.332 300.351 0 275.278 0 268.044C0 260.811 106.332 274.156 237.5 274.156C368.668 274.156 475 260.811 475 268.044Z" fill="#005A45"/>
<path d="M237.5 281.142C368.668 281.142 475 275.278 475 268.044C475 260.811 368.668 254.947 237.5 254.947C106.332 254.947 0 260.811 0 268.044C0 275.278 106.332 281.142 237.5 281.142Z" fill="#B8F8E0"/>
<path d="M333.351 260.354C333.351 260.354 336.653 260.253 337.648 259.544C338.644 258.835 342.729 257.989 342.976 259.126C343.222 260.262 347.939 264.779 344.21 264.809C340.482 264.839 335.547 264.228 334.553 263.623C333.56 263.018 333.351 260.354 333.351 260.354Z" fill="#A8A8A8"/>
<path opacity="0.2" d="M344.277 264.413C340.548 264.443 335.613 263.832 334.62 263.227C333.863 262.766 333.562 261.113 333.461 260.35C333.391 260.353 333.351 260.354 333.351 260.354C333.351 260.354 333.56 263.018 334.553 263.623C335.547 264.228 340.481 264.839 344.21 264.809C345.286 264.8 345.658 264.417 345.638 263.85C345.488 264.193 345.078 264.407 344.277 264.413Z" fill="black"/>
<path d="M390.221 270.112C390.221 270.112 395.18 269.357 396.551 268.108C397.922 266.858 403.925 264.839 404.504 266.507C405.084 268.175 413.015 274.124 407.4 274.849C401.786 275.573 394.236 275.551 392.629 274.82C391.021 274.089 390.221 270.112 390.221 270.112Z" fill="#A8A8A8"/>
<path opacity="0.2" d="M407.429 274.24C401.814 274.965 394.264 274.943 392.657 274.212C391.433 273.655 390.677 271.217 390.386 270.086C390.281 270.103 390.221 270.112 390.221 270.112C390.221 270.112 391.021 274.089 392.629 274.82C394.236 275.551 401.786 275.573 407.4 274.849C409.021 274.64 409.512 273.995 409.378 273.144C409.215 273.687 408.635 274.085 407.429 274.24Z" fill="black"/>
<path d="M268.175 269.753C268.175 269.753 272.36 269.116 273.517 268.062C274.675 267.007 279.741 265.303 280.23 266.711C280.718 268.119 287.412 273.139 282.674 273.751C277.935 274.362 271.564 274.344 270.207 273.727C268.85 273.109 268.175 269.753 268.175 269.753Z" fill="#A8A8A8"/>
<path opacity="0.2" d="M282.698 273.237C277.959 273.848 271.588 273.83 270.231 273.213C269.198 272.743 268.56 270.686 268.314 269.731C268.226 269.746 268.175 269.753 268.175 269.753C268.175 269.753 268.85 273.109 270.207 273.727C271.564 274.344 277.935 274.362 282.674 273.751C284.042 273.574 284.456 273.03 284.342 272.312C284.205 272.77 283.716 273.106 282.698 273.237Z" fill="black"/>
<path opacity="0.1" d="M219.23 287.272C219.23 294.115 200.94 291.998 178.546 291.998C156.151 291.998 138.133 294.115 138.133 287.272C138.133 280.428 156.42 278.94 178.815 278.94C201.209 278.94 219.23 280.428 219.23 287.272Z" fill="black"/>
<path d="M190.739 249.684C193.028 250.407 195.163 251.549 197.034 253.052C197.175 253.14 197.277 253.279 197.32 253.439C197.368 253.802 196.884 253.95 196.532 254.051C195.499 254.348 194.839 255.319 194.078 256.079C193.317 256.839 192.094 257.435 191.207 256.828C190.973 256.649 190.77 256.435 190.604 256.193L186.854 251.298C188.125 250.587 189.462 250 190.846 249.545" fill="#F1F1F1"/>
<path d="M167.595 168.067H185.476C186.711 168.067 187.713 169.105 187.713 170.385V208.826C187.713 210.107 186.711 211.145 185.476 211.145H167.595C166.359 211.145 165.358 210.107 165.358 208.826V170.385C165.358 169.105 166.359 168.067 167.595 168.067Z" fill="#FD8369"/>
<path d="M185.791 281.578V286.601H198.951V284.476L190.798 280.595L185.791 281.578Z" fill="#333333"/>
<path d="M157.244 276.762C156.578 278.307 155.007 282.312 155.007 282.312L161.574 286.591H167.524L168.221 284.227L160.746 278.298L157.244 276.762Z" fill="#333333"/>
<path d="M179.99 167.105C176.925 167.105 174.441 163.858 174.441 159.853C174.441 155.847 176.925 152.6 179.99 152.6C183.055 152.6 185.539 155.847 185.539 159.853C185.539 163.858 183.055 167.105 179.99 167.105Z" fill="#DE8E68"/>
<path d="M184.031 146.899C184.758 145.864 186.81 146.097 188.614 147.444C189.297 147.943 189.878 148.578 190.322 149.312C190.38 149.285 190.444 149.27 190.508 149.268C191.384 149.268 205.948 157.341 205.81 161.066C205.672 164.791 200.786 170.764 199.081 171.91C199.081 171.91 191.384 168.185 191.798 166.989C192.212 165.793 196.644 161.966 197.422 161.209C196.508 160.714 189.198 153.207 188.372 152.357C187.505 152.165 186.688 151.782 185.977 151.234C184.176 149.886 183.302 147.946 184.031 146.899Z" fill="#DE8E68"/>
<path d="M188.214 178.445C186.536 177.046 189.314 165.318 192.29 165.03C195.267 164.742 200.459 170.555 200.25 172.205C200.041 173.855 192.453 181.961 188.214 178.445Z" fill="#F8BB00"/>
<path d="M194.874 206.525C194.874 208.457 193.942 275.301 192.264 281.097C190.773 281.87 186.859 282.063 185.554 281.483C184.249 280.904 175.923 207.584 175.923 204.366C175.923 201.147 194.874 206.525 194.874 206.525Z" fill="#200D59"/>
<path d="M161.445 279.008C163.226 276.111 186.404 219.838 188.222 205.963C186.319 204.435 172.156 201.999 171.01 204.773C169.863 207.547 156.098 276.136 156.569 277.026C157.041 277.917 160.107 279.306 161.445 279.008Z" fill="#002883"/>
<path d="M179.912 169.24C167.889 169.24 168.635 203.724 171.244 205.849C173.854 207.974 194.265 208.071 195.57 206.525C196.874 204.98 199.957 169.24 179.912 169.24Z" fill="#FFD12E"/>
<path d="M171.163 157.389C171.163 155.919 172.519 154.859 172.519 154.043C172.519 153.228 172.054 151.768 173.093 150.722C174.355 149.453 176.366 149.982 178.167 149.982C179.859 149.982 180.793 147.944 183.102 147.944C184.642 147.944 184.446 150.015 185.022 150.529C185.449 150.916 188.776 151.657 188.776 153.234C188.776 154.996 188.732 157.36 185.201 157.36C184.966 156.514 184.083 154.656 183.076 153.829C182.558 154.061 179.721 155.274 179.018 155.488C178.316 155.703 177.289 158.821 176.2 159.198C175.111 159.574 175.042 161.651 174.247 161.562C173.451 161.473 171.163 161.126 171.163 157.389Z" fill="#FD8369"/>
<path d="M175.213 161.945C174.403 161.945 173.746 161.264 173.746 160.424C173.746 159.585 174.403 158.904 175.213 158.904C176.023 158.904 176.68 159.585 176.68 160.424C176.68 161.264 176.023 161.945 175.213 161.945Z" fill="#DE8E68"/>
<path d="M177.217 171.944C177.452 172.785 182.382 171.765 182.287 170.814L181.444 162.372L175.504 163.697C175.504 163.697 176.978 171.108 177.217 171.944Z" fill="#DE8E68"/>
<path d="M143.636 176.473L164.484 283.591" stroke="#333333" stroke-width="7" stroke-miterlimit="10" stroke-linecap="round"/>
<path d="M146.979 206.031C147.534 205.449 148.251 205.06 149.029 204.92C151.516 200.761 159.965 187.941 163.691 183.283C166.377 185.282 169.656 188.779 169.656 188.779C168.286 190.371 158.025 202.953 152.565 207.887C152.568 208.404 152.471 208.917 152.279 209.394C152.087 209.87 151.804 210.302 151.447 210.664C150.066 212.097 147.944 212.221 146.71 210.944C145.477 209.667 145.598 207.464 146.979 206.031Z" fill="#DE8E68"/>
<path d="M175.19 174.891C170.368 171.175 162.418 180.159 162.549 182.522C162.679 184.884 168.789 190.124 170.879 190.129C173.431 190.133 179.295 178.053 175.19 174.891Z" fill="#FFD12E"/>
<path d="M28.6445 212.724C28.6445 236.886 43.8024 256.437 62.5346 256.437L28.6445 212.724Z" fill="#007458"/>
<path d="M62.5352 256.437C62.5352 232.004 79.4504 212.233 100.354 212.233L62.5352 256.437Z" fill="#003E31"/>
<path d="M40.9238 214.914C40.9238 237.866 50.5897 256.437 62.5349 256.437L40.9238 214.914Z" fill="#2EC396"/>
<path d="M62.5352 256.437C62.5352 225.217 82.0866 199.954 106.248 199.954L62.5352 256.437Z" fill="#005A45"/>
<path d="M55.4053 256.746C55.4053 256.746 60.2114 256.598 61.6599 255.566C63.1083 254.535 69.053 253.303 69.4123 254.957C69.7716 256.611 76.6351 263.184 71.209 263.228C65.7828 263.272 58.601 262.383 57.1554 261.502C55.7097 260.622 55.4053 256.746 55.4053 256.746Z" fill="#A8A8A8"/>
<path d="M22.2656 266.233C22.2656 266.233 25.524 265.737 26.4249 264.916C27.3257 264.095 31.2697 262.768 31.6502 263.864C32.0308 264.96 37.2418 268.868 33.553 269.344C29.8641 269.82 24.9039 269.806 23.8477 269.326C22.7915 268.845 22.2656 266.233 22.2656 266.233Z" fill="#A8A8A8"/>
<path d="M356 232C356 247.477 347.949 260 338 260L356 232Z" fill="#007458"/>
<path d="M338 260C338 244.523 328.607 232 317 232L338 260Z" fill="#003E31"/>
<path d="M350 234C350 248.371 344.633 260 338 260L350 234Z" fill="#2EC396"/>
<path d="M338 260C338 240.102 327.266 224 314 224L338 260Z" fill="#005A45"/>
<rect x="200" y="102" width="1" height="41" fill="#23232A"/>
<path d="M215.5 101.5C208.7 97.5 203 99.8333 201 101.5V117C204.333 116 211.9 114.6 215.5 117C219.1 119.4 226 118 229 117L232 101.5C229.333 103.167 222.3 105.5 215.5 101.5Z" fill="#D83544" stroke="#626372"/>
<rect x="271" y="74.7086" width="1" height="41" fill="#23232A"/>
<path d="M286.5 74.2086C279.7 70.2086 274 72.5419 272 74.2086V89.7086C275.333 88.7086 282.9 87.3086 286.5 89.7086C290.1 92.1086 297 90.7086 300 89.7086L303 74.2086C300.333 75.8753 293.3 78.2086 286.5 74.2086Z" fill="#C4C4C4" stroke="#626372"/>
</svg>
