<svg width="452" height="286" viewBox="0 0 452 286" fill="none" xmlns="http://www.w3.org/2000/svg">
<path d="M398.964 188.553C396.782 207.251 392.247 222.263 386.023 234.235C377.74 250.187 363.573 256.614 350.918 263.34C347.261 265.279 343.459 266.933 339.546 268.284C316.516 276.277 290.741 274.156 270.495 269.937C256.294 266.974 241.88 265.152 227.389 264.487C223.256 264.3 219.119 264.208 214.978 264.209C208.592 264.217 93.6106 266.4 65.6159 209.723C58.7042 195.742 53.9666 178.664 52.2646 157.846C47.4483 98.9907 73.9191 60.3364 108.064 35.0708C172.654 -12.7231 261.19 -10.7188 324.828 38.3341C367.218 71.0084 406.907 120.459 398.964 188.553Z" fill="#B8CFFF"/>
<path opacity="0.1" d="M230.287 268.628C226.154 268.442 222.017 268.349 217.876 268.35L170.049 162.352L230.287 268.628Z" fill="black"/>
<path d="M81.8083 229.815C89.8498 245.763 100.79 256.329 113.078 263.053C116.628 264.992 120.32 266.645 124.119 267.996C146.478 275.987 171.503 273.867 191.16 269.648C204.948 266.687 218.943 264.865 233.012 264.2C237.025 264.014 241.042 263.921 245.063 263.922C251.263 263.931 288.637 267.53 294.834 267.996C335.11 271.044 397.543 258.609 392.893 205.309L324.886 69.6758L299.576 136.59L291.498 157.949L269.235 126.492L257.74 110.25L205.39 172.051L190.594 138.403C150.588 172.021 128.159 190.869 88.153 224.487L82.4396 229.285L81.8083 229.815Z" fill="#F2F2F2"/>
<path opacity="0.1" d="M118.277 254.191C121.756 256.002 125.373 257.546 129.096 258.808L208.729 169.202L118.277 254.191Z" fill="black"/>
<path opacity="0.1" d="M265.248 131.232L255.038 122.087L208.61 183.797L255.752 131.138L265.248 131.232Z" fill="black"/>
<path opacity="0.1" d="M316.812 111.033L327.58 87.428L342.488 121.8L329.65 96.9528L316.812 111.033Z" fill="black"/>
<path d="M451.222 254.614C451.222 261.475 350.359 285.259 225.939 285.259C101.519 285.259 0.65625 261.475 0.65625 254.614C0.65625 247.753 101.519 260.412 225.939 260.412C350.359 260.412 451.222 247.753 451.222 254.614Z" fill="#005A45"/>
<path d="M225.939 267.038C350.359 267.038 451.222 261.475 451.222 254.614C451.222 247.753 350.359 242.19 225.939 242.19C101.519 242.19 0.65625 247.753 0.65625 254.614C0.65625 261.475 101.519 267.038 225.939 267.038Z" fill="#B8F8E0"/>
<path d="M316.859 247.32C316.859 247.32 319.992 247.223 320.936 246.551C321.88 245.879 325.755 245.076 325.989 246.154C326.223 247.232 330.697 251.517 327.16 251.545C323.623 251.574 318.942 250.994 318 250.42C317.058 249.846 316.859 247.32 316.859 247.32Z" fill="#A8A8A8"/>
<path opacity="0.2" d="M327.223 251.17C323.687 251.198 319.005 250.619 318.063 250.045C317.346 249.608 317.06 248.039 316.964 247.316C316.898 247.318 316.859 247.32 316.859 247.32C316.859 247.32 317.058 249.846 318 250.42C318.942 250.994 323.623 251.574 327.16 251.545C328.181 251.537 328.534 251.174 328.514 250.636C328.373 250.961 327.983 251.164 327.223 251.17Z" fill="black"/>
<path d="M370.804 256.576C370.804 256.576 375.508 255.86 376.809 254.674C378.109 253.489 383.803 251.573 384.353 253.156C384.902 254.738 392.425 260.381 387.1 261.068C381.774 261.756 374.613 261.735 373.088 261.041C371.563 260.348 370.804 256.576 370.804 256.576Z" fill="#A8A8A8"/>
<path opacity="0.2" d="M387.126 260.491C381.801 261.178 374.639 261.158 373.115 260.464C371.953 259.936 371.237 257.624 370.961 256.551C370.861 256.567 370.804 256.576 370.804 256.576C370.804 256.576 371.563 260.348 373.088 261.041C374.613 261.735 381.774 261.756 387.1 261.068C388.637 260.87 389.102 260.258 388.975 259.451C388.821 259.967 388.271 260.344 387.126 260.491Z" fill="black"/>
<path d="M255.036 256.235C255.036 256.235 259.006 255.631 260.104 254.631C261.202 253.63 266.007 252.013 266.471 253.349C266.934 254.685 273.284 259.447 268.789 260.027C264.295 260.607 258.251 260.589 256.964 260.004C255.677 259.419 255.036 256.235 255.036 256.235Z" fill="#A8A8A8"/>
<path opacity="0.2" d="M268.812 259.54C264.317 260.12 258.273 260.102 256.986 259.517C256.006 259.071 255.401 257.12 255.169 256.214C255.085 256.228 255.036 256.235 255.036 256.235C255.036 256.235 255.677 259.419 256.964 260.004C258.251 260.589 264.295 260.607 268.789 260.027C270.087 259.859 270.479 259.343 270.372 258.662C270.242 259.097 269.777 259.415 268.812 259.54Z" fill="black"/>
<path opacity="0.1" d="M208.609 263.367C208.609 269.858 191.26 267.85 170.018 267.85C148.775 267.85 131.684 269.858 131.684 263.367C131.684 256.875 149.031 255.464 170.273 255.464C191.516 255.464 208.609 256.875 208.609 263.367Z" fill="black"/>
<path d="M181.584 237.198C183.755 237.884 185.78 238.967 187.555 240.393C187.689 240.477 187.786 240.608 187.827 240.76C187.872 241.104 187.413 241.245 187.079 241.341C186.099 241.623 185.473 242.544 184.751 243.264C184.029 243.985 182.87 244.55 182.028 243.975C181.806 243.805 181.613 243.602 181.456 243.372L177.898 238.729C179.105 238.055 180.373 237.498 181.685 237.067" fill="#F1F1F1"/>
<path d="M159.63 149.346H176.591C177.763 149.346 178.713 150.33 178.713 151.545V188.008C178.713 189.223 177.763 190.207 176.591 190.207H159.63C158.458 190.207 157.508 189.223 157.508 188.008V151.545C157.508 150.33 158.458 149.346 159.63 149.346Z" fill="#EFEFF2"/>
<path d="M176.89 257.017V261.782H189.373V259.766L181.639 256.085L176.89 257.017Z" fill="#383842"/>
<path d="M149.811 252.449C149.18 253.915 147.69 257.714 147.69 257.714L153.919 261.773H159.562L160.224 259.53L153.134 253.906L149.811 252.449Z" fill="#383842"/>
<path d="M171.388 148.433C168.481 148.433 166.124 145.353 166.124 141.554C166.124 137.754 168.481 134.674 171.388 134.674C174.295 134.674 176.651 137.754 176.651 141.554C176.651 145.353 174.295 148.433 171.388 148.433Z" fill="#B5B5C0"/>
<path d="M175.22 129.267C175.91 128.284 177.857 128.506 179.568 129.783C180.216 130.257 180.766 130.859 181.188 131.555C181.244 131.53 181.304 131.515 181.365 131.513C182.196 131.513 196.01 139.171 195.879 142.704C195.748 146.238 191.114 151.904 189.496 152.99C189.496 152.99 182.196 149.457 182.588 148.323C182.981 147.189 187.185 143.558 187.922 142.84C187.056 142.371 180.122 135.25 179.338 134.443C178.516 134.261 177.741 133.898 177.066 133.379C175.358 132.1 174.529 130.26 175.22 129.267Z" fill="#B5B5C0"/>
<path d="M179.189 159.19C177.598 157.863 180.232 146.738 183.056 146.465C185.879 146.192 190.804 151.706 190.606 153.271C190.408 154.836 183.21 162.525 179.189 159.19Z" fill="#7D7E8D"/>
<path d="M185.506 185.826C185.506 187.658 184.622 251.063 183.031 256.561C181.616 257.294 177.903 257.477 176.665 256.927C175.428 256.378 167.529 186.83 167.529 183.777C167.529 180.724 185.506 185.826 185.506 185.826Z" fill="#0F0F11"/>
<path d="M153.797 254.58C155.486 251.831 177.472 198.453 179.196 185.292C177.391 183.843 163.957 181.532 162.87 184.163C161.782 186.795 148.725 251.855 149.172 252.7C149.619 253.545 152.528 254.862 153.797 254.58Z" fill="#383842"/>
<path d="M171.314 150.458C159.91 150.458 160.617 183.168 163.092 185.184C165.568 187.2 184.928 187.292 186.166 185.826C187.404 184.36 190.328 150.458 171.314 150.458Z" fill="#999AA7"/>
<path d="M163.015 139.217C163.015 137.823 164.3 136.816 164.3 136.043C164.3 135.27 163.86 133.884 164.845 132.893C166.042 131.689 167.95 132.191 169.658 132.191C171.263 132.191 172.149 130.258 174.34 130.258C175.8 130.258 175.614 132.222 176.161 132.71C176.566 133.076 179.722 133.78 179.722 135.275C179.722 136.947 179.679 139.19 176.33 139.19C176.108 138.387 175.27 136.624 174.315 135.84C173.823 136.06 171.132 137.21 170.466 137.414C169.799 137.617 168.825 140.575 167.792 140.932C166.76 141.29 166.694 143.26 165.939 143.175C165.184 143.091 163.015 142.761 163.015 139.217Z" fill="#EFEFF2"/>
<path d="M166.857 143.538C166.088 143.538 165.465 142.893 165.465 142.096C165.465 141.3 166.088 140.654 166.857 140.654C167.625 140.654 168.248 141.3 168.248 142.096C168.248 142.893 167.625 143.538 166.857 143.538Z" fill="#B5B5C0"/>
<path d="M168.757 153.023C168.98 153.821 173.656 152.853 173.566 151.951L172.767 143.943L167.132 145.2C167.132 145.2 168.531 152.23 168.757 153.023Z" fill="#B5B5C0"/>
<path d="M136.903 157.319L156.68 258.927" stroke="#383842" stroke-width="7" stroke-miterlimit="10" stroke-linecap="round"/>
<path d="M140.075 185.356C140.602 184.804 141.282 184.436 142.02 184.303C144.379 180.357 152.394 168.197 155.928 163.778C158.476 165.675 161.586 168.992 161.586 168.992C160.286 170.502 150.553 182.437 145.374 187.117C145.377 187.608 145.285 188.094 145.102 188.546C144.92 188.999 144.652 189.408 144.313 189.751C143.003 191.111 140.991 191.228 139.821 190.017C138.65 188.805 138.765 186.716 140.075 185.356Z" fill="#B5B5C0"/>
<path d="M166.835 155.818C162.26 152.294 154.719 160.815 154.843 163.056C154.967 165.298 160.763 170.267 162.745 170.273C165.165 170.277 170.728 158.818 166.835 155.818Z" fill="#999AA7"/>
<path d="M27.8271 202.14C27.8271 225.059 42.2053 243.604 59.9739 243.604L27.8271 202.14Z" fill="#007458"/>
<path d="M59.9746 243.604C59.9746 220.428 76.0198 201.674 95.8485 201.674L59.9746 243.604Z" fill="#003E31"/>
<path d="M39.4746 204.217C39.4746 225.988 48.6433 243.604 59.974 243.604L39.4746 204.217Z" fill="#2EC396"/>
<path d="M59.9746 243.604C59.9746 213.99 78.5203 190.026 101.439 190.026L59.9746 243.604Z" fill="#005A45"/>
<path d="M53.2119 243.897C53.2119 243.897 57.7708 243.756 59.1448 242.778C60.5187 241.799 66.1576 240.631 66.4984 242.2C66.8393 243.769 73.3497 250.004 68.2026 250.046C63.0556 250.087 56.2433 249.244 54.872 248.409C53.5007 247.573 53.2119 243.897 53.2119 243.897Z" fill="#A8A8A8"/>
<path d="M21.7764 252.895C21.7764 252.895 24.8671 252.425 25.7216 251.646C26.5762 250.868 30.3173 249.609 30.6782 250.649C31.0392 251.688 35.9822 255.396 32.4831 255.847C28.984 256.299 24.2789 256.285 23.2771 255.829C22.2752 255.374 21.7764 252.895 21.7764 252.895Z" fill="#A8A8A8"/>
<path d="M338.344 220.424C338.344 235.104 330.707 246.984 321.27 246.984L338.344 220.424Z" fill="#007458"/>
<path d="M321.27 246.984C321.27 232.303 312.36 220.424 301.35 220.424L321.27 246.984Z" fill="#003E31"/>
<path d="M332.652 222.321C332.652 235.953 327.561 246.984 321.27 246.984L332.652 222.321Z" fill="#2EC396"/>
<path d="M321.27 246.984C321.27 228.109 311.087 212.835 298.504 212.835L321.27 246.984Z" fill="#005A45"/>
</svg>
