<svg width="300" height="300" viewBox="0 0 300 300" fill="none" xmlns="http://www.w3.org/2000/svg">
<g clip-path="url(#clip0)">
<mask id="mask0" mask-type="alpha" maskUnits="userSpaceOnUse" x="-3" y="8" width="293" height="278">
<path opacity="0.3" d="M87.8789 76.9639L177.023 82.7688L115.82 172.745L87.8789 76.9639Z" fill="white"/>
<path opacity="0.5" d="M87.874 76.9607L177.017 82.7658L111.822 8.75408L87.874 76.9607Z" fill="white"/>
<path opacity="0.4" d="M224.91 11.6554L177.012 82.7654L111.816 8.75293L224.91 11.6554Z" fill="white"/>
<path opacity="0.6" d="M224.917 11.6546L177.02 82.7636L271.792 111.698L224.917 11.6546Z" fill="white"/>
<path opacity="0.6" d="M87.8739 76.9614L1.39063 37.7783L111.823 8.75383L87.8739 76.9614Z" fill="white"/>
<path opacity="0.3" d="M87.8765 76.9605L1.39432 37.7773L-2.59717 153.875L87.8765 76.9605Z" fill="white"/>
<path opacity="0.2" d="M-2.59706 153.874L87.8754 76.9599L115.816 172.739L-2.59706 153.874Z" fill="white"/>
<path opacity="0.4" d="M115.817 210.475L115.816 172.742L210.282 145.169L115.817 210.475Z" fill="white"/>
<path opacity="0.2" d="M115.81 210.475L176.975 285.166L210.275 145.171L115.81 210.475Z" fill="white"/>
<path opacity="0.5" d="M289.542 207.259L177.049 285.525L210.28 145.168L289.542 207.259Z" fill="white"/>
<path opacity="0.4" d="M289.723 207.204L271.786 111.7L210.276 145.169L289.723 207.204Z" fill="white"/>
<path opacity="0.3" d="M177.016 82.7646L271.787 111.698L210.278 145.167L177.016 82.7646Z" fill="white"/>
<path opacity="0.1" d="M115.821 210.474L177.056 285.525L22.6843 246.754L115.821 210.474Z" fill="white"/>
<path opacity="0.4" d="M22.686 246.754L-2.59375 153.876L115.822 172.742L22.686 246.754Z" fill="white"/>
<path opacity="0.5" d="M115.83 210.473L22.693 246.753L115.83 172.74L115.83 210.473Z" fill="white"/>
<path opacity="0.5" d="M177.022 82.7628L210.288 145.165L115.821 172.739L177.022 82.7628Z" fill="white"/>
</mask>
<g mask="url(#mask0)">
<circle cx="135.468" cy="142.65" r="118.577" fill="#C4C4C4"/>
</g>
<path d="M145.09 79.3809H238.999L281.028 122.576V251.677C281.028 262.665 272.121 271.572 261.133 271.572H145.09C134.102 271.572 125.195 262.665 125.195 251.677V99.2754C125.195 88.2879 134.102 79.3809 145.09 79.3809Z" stroke="white" stroke-width="3"/>
<path d="M241.133 120.006V81.1095L278.98 120.006H241.133Z" fill="#392959" stroke="white" stroke-width="3"/>
<path d="M96.9271 280C96.9271 280 72.0696 280 67.0077 280C53.7475 280 43 269.194 43 255.864C43 242.535 53.7475 231.729 67.0077 231.729C72.4364 220.637 83.7953 213 96.9271 213C106.641 213 115.384 217.178 121.473 223.845C122.616 223.702 123.784 223.63 124.964 223.63C140.449 223.63 153 236.249 153 251.814C153 267.381 140.449 280 124.964 280C120.122 280 96.9271 280 96.9271 280Z" fill="white"/>
<mask id="path-21-inside-1" fill="white">
<path d="M236.257 173.913C238.099 168.438 238.563 162.593 237.607 156.897C236.651 151.2 234.304 145.827 230.776 141.254C227.247 136.68 222.645 133.048 217.377 130.678C212.109 128.308 206.338 127.274 200.575 127.667C194.812 128.06 189.235 129.869 184.338 132.932C179.441 135.995 175.375 140.219 172.5 145.229C169.625 150.239 168.031 155.881 167.857 161.655C167.683 167.429 168.936 173.156 171.505 178.33L188.302 169.991C187.105 167.579 186.521 164.91 186.602 162.219C186.683 159.528 187.426 156.898 188.766 154.563C190.106 152.228 192.001 150.259 194.284 148.831C196.566 147.403 199.166 146.56 201.852 146.377C204.538 146.194 207.228 146.676 209.683 147.781C212.138 148.885 214.283 150.578 215.928 152.71C217.573 154.841 218.666 157.346 219.112 160.001C219.557 162.656 219.341 165.38 218.483 167.932L236.257 173.913Z"/>
</mask>
<path d="M236.257 173.913C238.099 168.438 238.563 162.593 237.607 156.897C236.651 151.2 234.304 145.827 230.776 141.254C227.247 136.68 222.645 133.048 217.377 130.678C212.109 128.308 206.338 127.274 200.575 127.667C194.812 128.06 189.235 129.869 184.338 132.932C179.441 135.995 175.375 140.219 172.5 145.229C169.625 150.239 168.031 155.881 167.857 161.655C167.683 167.429 168.936 173.156 171.505 178.33L188.302 169.991C187.105 167.579 186.521 164.91 186.602 162.219C186.683 159.528 187.426 156.898 188.766 154.563C190.106 152.228 192.001 150.259 194.284 148.831C196.566 147.403 199.166 146.56 201.852 146.377C204.538 146.194 207.228 146.676 209.683 147.781C212.138 148.885 214.283 150.578 215.928 152.71C217.573 154.841 218.666 157.346 219.112 160.001C219.557 162.656 219.341 165.38 218.483 167.932L236.257 173.913Z" stroke="white" stroke-width="6" mask="url(#path-21-inside-1)"/>
<path d="M154.473 171.754C154.473 166.759 158.522 162.709 163.518 162.709H242.417C247.413 162.709 251.463 166.759 251.463 171.754V223.869C251.463 228.864 247.413 232.914 242.417 232.914H163.518C158.522 232.914 154.473 228.864 154.473 223.869V171.754Z" fill="url(#paint0_linear)"/>
<circle cx="99" cy="72" r="52" fill="url(#paint1_linear)"/>
<path d="M81.3814 136.58H82.8814V135.08V100.073V98.5734H81.3814H71.1632H69.6632V100.073V135.08V136.58H71.1632H81.3814ZM71.0994 74.4234C69.7277 75.722 69.0586 77.4003 69.0586 79.3304C69.0586 81.2604 69.7277 82.9387 71.0994 84.2374C72.4702 85.5351 74.2209 86.1363 76.2119 86.1363C78.2028 86.1363 79.9536 85.5351 81.3244 84.2374C82.6961 82.9387 83.3652 81.2604 83.3652 79.3304C83.3652 77.4003 82.6961 75.722 81.3244 74.4234C79.9536 73.1257 78.2028 72.5244 76.2119 72.5244C74.2209 72.5244 72.4702 73.1257 71.0994 74.4234Z" stroke="white" stroke-width="3"/>
</g>
<defs>
<linearGradient id="paint0_linear" x1="154.473" y1="204.946" x2="251.463" y2="204.861" gradientUnits="userSpaceOnUse">
<stop stop-color="#F39242"/>
<stop offset="1" stop-color="#E9700D"/>
</linearGradient>
<linearGradient id="paint1_linear" x1="47" y1="82.5691" x2="151.001" y2="82.503" gradientUnits="userSpaceOnUse">
<stop stop-color="#F39242"/>
<stop offset="1" stop-color="#E9700D"/>
</linearGradient>
<clipPath id="clip0">
<rect width="300" height="300" fill="white"/>
</clipPath>
</defs>
</svg>
