<svg width="300" height="300" viewBox="0 0 300 300" fill="none" xmlns="http://www.w3.org/2000/svg">
<g opacity="0.3">
<line x1="26" y1="83" x2="274" y2="83" stroke="white" stroke-width="4"/>
<line x1="28" y1="84.7549" x2="28" y2="225.755" stroke="white" stroke-width="4"/>
<path d="M274 81L274 227.755" stroke="white" stroke-width="4"/>
<line x1="110" y1="82.7549" x2="110" y2="225.755" stroke="white" stroke-width="4"/>
<line x1="192" y1="82.7549" x2="192" y2="225.755" stroke="white" stroke-width="4"/>
<line x1="28" y1="130.755" x2="273" y2="130.755" stroke="white" stroke-width="4"/>
<line x1="28" y1="177.755" x2="273" y2="177.755" stroke="white" stroke-width="4"/>
<line x1="26" y1="225.755" x2="273" y2="225.755" stroke="white" stroke-width="4"/>
</g>
<ellipse cx="199.267" cy="173.677" rx="57.0949" ry="22.9559" fill="#392959"/>
<path d="M142.17 174.078V246.168C142.17 246.302 142.165 246.437 142.17 246.57C142.703 259.063 168.066 269.124 199.265 269.124C230.464 269.124 255.827 259.063 256.36 246.57C256.365 246.437 256.36 246.302 256.36 246.168V174.078C255.827 186.571 230.464 196.631 199.265 196.631C168.066 196.631 142.703 186.571 142.17 174.078Z" fill="#392959"/>
<g opacity="0.8">
<ellipse opacity="0.4" cx="199.267" cy="173.677" rx="57.0949" ry="22.9559" fill="white"/>
<path opacity="0.53" d="M142.17 174.078V246.168C142.17 246.302 142.165 246.437 142.17 246.57C142.703 259.063 168.066 269.124 199.265 269.124C230.464 269.124 255.827 259.063 256.36 246.57C256.365 246.437 256.36 246.302 256.36 246.168V174.078C255.827 186.571 230.464 196.631 199.265 196.631C168.066 196.631 142.703 186.571 142.17 174.078Z" fill="white"/>
</g>
<ellipse cx="89.0436" cy="206.757" rx="38.5827" ry="15.5128" fill="#392959"/>
<path d="M50.4585 207.029V255.745C50.4585 255.836 50.4552 255.927 50.4585 256.017C50.8189 264.459 67.9581 271.258 89.0412 271.258C110.124 271.258 127.263 264.459 127.624 256.017C127.627 255.927 127.624 255.836 127.624 255.745V207.029C127.263 215.471 110.124 222.27 89.0412 222.27C67.9581 222.27 50.8189 215.471 50.4585 207.029Z" fill="#392959"/>
<g opacity="0.7">
<ellipse opacity="0.25" cx="89.0436" cy="206.757" rx="38.5827" ry="15.5128" fill="white"/>
<path opacity="0.4" d="M50.4585 207.029V255.745C50.4585 255.836 50.4552 255.927 50.4585 256.017C50.8189 264.459 67.9581 271.258 89.0412 271.258C110.124 271.258 127.263 264.459 127.624 256.017C127.627 255.927 127.624 255.836 127.624 255.745V207.029C127.263 215.471 110.124 222.27 89.0412 222.27C67.9581 222.27 50.8189 215.471 50.4585 207.029Z" fill="white"/>
</g>
<path d="M198 173.5L197.477 175.43C198.453 175.695 199.473 175.189 199.853 174.252L198 173.5ZM249.5 46.5L231.284 60.6949L252.685 69.3733L249.5 46.5ZM87.2547 204.523C86.7153 205.487 87.0594 206.706 88.0232 207.245C88.9871 207.785 90.2058 207.441 90.7453 206.477L87.2547 204.523ZM118.913 152.052L119.437 150.121C118.551 149.881 117.616 150.274 117.168 151.075L118.913 152.052ZM199.853 174.252L244.589 63.9323L240.882 62.4291L196.147 172.748L199.853 174.252ZM90.7453 206.477L120.658 153.028L117.168 151.075L87.2547 204.523L90.7453 206.477ZM118.39 153.982L197.477 175.43L198.523 171.57L119.437 150.121L118.39 153.982Z" fill="white"/>
<path d="M109.841 102.565C108.944 100.936 108.087 99.2108 107.338 97.3628C106.59 95.5148 106.005 93.6807 105.585 91.8606L90.4071 87.4331C89.0521 87.0206 88.1696 85.6239 88.3119 84.215L91.5399 60.8942C91.7226 59.3896 92.9877 58.4065 94.3809 58.3264L110.162 58.377C112.138 55.0418 114.417 52.0628 117.202 49.3581L113.371 34.0301C113.021 32.5794 113.792 31.1578 115.155 30.6126L136.967 21.889C138.33 21.3438 139.809 21.8659 140.567 23.153L148.489 36.8453C152.383 36.8784 156.198 37.4996 159.852 38.5037L171.199 27.6032C172.232 26.6334 173.857 26.54 175.038 27.4994L193.622 42.0967C194.802 43.0561 195.112 44.6025 194.354 45.86L186.493 59.5017C187.459 61.1038 188.412 62.87 189.132 64.6496C189.853 66.4291 190.465 68.3316 190.885 70.1518L206.063 74.5793C207.418 74.9917 208.301 76.3884 208.159 77.7973L204.931 101.118C204.748 102.623 203.483 103.606 202.09 103.686L186.308 103.635C184.332 106.971 182.054 109.95 179.268 112.654L183.099 127.982C183.381 129.46 182.679 130.855 181.315 131.4L159.504 140.123C158.14 140.669 156.594 140.174 155.903 138.859L147.982 125.167C144.088 125.134 140.272 124.513 136.618 123.509L125.271 134.409C124.238 135.379 122.613 135.472 121.433 134.513L102.849 119.916C101.668 118.956 101.359 117.41 102.117 116.152L109.841 102.565ZM156.551 101.539C167.797 97.0414 173.257 84.1212 168.684 72.8279C164.11 61.5346 151.167 55.9748 139.92 60.4729C128.673 64.971 123.213 77.8912 127.787 89.1845C132.36 100.478 145.304 106.038 156.551 101.539Z" fill="url(#paint0_linear)"/>
<path d="M30.8412 135.222C30.4902 134.093 30.1767 132.909 29.9468 131.662C29.7169 130.415 29.5876 129.197 29.5588 128.008L20.6538 123.346C19.861 122.919 19.4895 121.936 19.7591 121.075L24.7668 106.922C25.074 106.006 25.9897 105.55 26.8696 105.675L36.713 107.681C38.3743 105.846 40.1787 104.272 42.2644 102.932L41.8403 92.8852C41.8081 91.9359 42.4716 91.1449 43.3924 90.9752L58.1256 88.2589C59.0464 88.0891 59.9023 88.6 60.2107 89.4983L63.3973 99.0359C65.8237 99.5438 68.1254 100.409 70.2771 101.493L78.7581 96.1084C79.5272 95.6323 80.5537 95.7774 81.1674 96.5239L90.8928 107.96C91.5065 108.707 91.5012 109.711 90.8667 110.401L84.2098 117.933C84.6069 119.053 84.9749 120.275 85.1963 121.476C85.4177 122.677 85.5556 123.941 85.5843 125.13L94.4894 129.792C95.2822 130.219 95.6537 131.201 95.3841 132.063L90.3763 146.216C90.0692 147.132 89.1534 147.587 88.2736 147.463L78.4301 145.457C76.7689 147.292 74.9645 148.866 72.8788 150.206L73.3028 160.253C73.289 161.21 72.6716 161.993 71.7507 162.163L57.0175 164.879C56.0967 165.049 55.1948 164.546 54.9324 163.64L51.7458 154.102C49.3195 153.594 47.0177 152.729 44.866 151.645L36.3851 157.029C35.6159 157.506 34.5894 157.36 33.9758 156.614L24.2503 145.177C23.6366 144.431 23.6419 143.427 24.2764 142.737L30.8412 135.222ZM60.1263 140.426C67.7231 139.025 72.789 131.644 71.3839 124.022C69.9789 116.401 62.6137 111.311 55.0169 112.712C47.42 114.113 42.3541 121.494 43.7592 129.115C45.1643 136.737 52.5295 141.826 60.1263 140.426Z" fill="url(#paint1_linear)"/>
<defs>
<linearGradient id="paint0_linear" x1="88.2969" y1="93.068" x2="208.174" y2="92.9911" gradientUnits="userSpaceOnUse">
<stop stop-color="#F39242"/>
<stop offset="1" stop-color="#E9700D"/>
</linearGradient>
<linearGradient id="paint1_linear" x1="19.6719" y1="134.362" x2="95.4717" y2="134.315" gradientUnits="userSpaceOnUse">
<stop stop-color="#F39242"/>
<stop offset="1" stop-color="#E9700D"/>
</linearGradient>
</defs>
</svg>
