<svg width="249" height="241" viewBox="0 0 249 241" fill="none" xmlns="http://www.w3.org/2000/svg">
<rect width="249" height="241" fill="black" fill-opacity="0"/>
<rect width="249" height="241" fill="black" fill-opacity="0"/>
<rect width="249" height="241" fill="black" fill-opacity="0"/>
<rect width="249" height="241" fill="black" fill-opacity="0"/>
<path d="M123.637 0.021243C121.436 0.131854 119.279 0.676266 117.293 1.62254L30.7285 42.8808C28.488 43.9481 26.5193 45.5011 24.9688 47.4245C23.4182 49.3478 22.3255 51.592 21.772 53.9905L0.415885 146.667C-0.0772586 148.802 -0.132448 151.014 0.253582 153.17C0.639613 155.327 1.45902 157.385 2.66331 159.223C2.95532 159.673 3.26938 160.108 3.60435 160.527L63.521 234.838C65.0719 236.761 67.0407 238.313 69.2812 239.38C71.5218 240.447 73.9765 241 76.463 241L172.549 240.978C175.034 240.98 177.489 240.428 179.729 239.363C181.97 238.298 183.939 236.748 185.491 234.827L245.385 160.504C246.937 158.581 248.031 156.336 248.584 153.936C249.138 151.537 249.139 149.044 248.585 146.645L227.196 53.9684C226.642 51.57 225.549 49.3257 223.999 47.4024C222.448 45.479 220.48 43.926 218.239 42.8587L131.663 1.62254C129.166 0.432202 126.406 -0.118409 123.637 0.021243Z" fill="#D4D4D4"/>
<path d="M124.494 31.5601C121.633 31.5603 119.313 34.1313 119.313 37.3026C119.313 37.3513 119.323 37.3978 119.324 37.4462C119.32 37.8771 119.299 38.3962 119.313 38.7714C119.381 40.6006 119.781 42.0005 120.022 43.6857C120.457 47.2927 120.823 50.2826 120.597 53.0616C120.378 54.1096 119.604 55.068 118.915 55.7341L118.793 57.9207C115.683 58.1777 112.553 58.6483 109.427 59.3564C95.9732 62.4034 84.39 69.316 75.5713 78.6493C74.9991 78.2598 73.998 77.5434 73.7003 77.324C72.7752 77.4487 71.8403 77.7334 70.6225 77.0259C68.3038 75.469 66.192 73.3199 63.6367 70.7311C62.4658 69.4928 61.6179 68.3136 60.2268 67.1199C59.9109 66.8488 59.4288 66.4822 59.0754 66.2033C57.9878 65.3384 56.7051 64.8873 55.4662 64.845C53.8735 64.7906 52.3401 65.4118 51.3367 66.6671C49.5529 68.8989 50.124 72.3101 52.6099 74.2871C52.6351 74.3071 52.662 74.3227 52.6874 74.3423C53.029 74.6185 53.4473 74.9725 53.7613 75.2037C55.2375 76.2909 56.586 76.8475 58.0569 77.7106C61.1557 79.6195 63.7247 81.2024 65.7623 83.1108C66.558 83.9569 66.6971 85.4477 66.803 86.0925L68.4637 87.5723C59.5737 100.918 55.4594 117.402 57.8908 134.198L55.7209 134.827C55.149 135.564 54.3408 136.723 53.4956 137.069C50.8296 137.907 47.8292 138.214 44.207 138.593C42.5063 138.734 41.039 138.65 39.2361 138.991C38.8392 139.066 38.2863 139.209 37.8522 139.311C37.8371 139.314 37.823 139.318 37.8079 139.322C37.7842 139.327 37.7531 139.339 37.7304 139.344C34.6765 140.08 32.7147 142.88 33.3462 145.639C33.978 148.398 36.961 150.076 40.0332 149.416C40.0553 149.41 40.0876 149.41 40.1107 149.405C40.1454 149.397 40.1759 149.38 40.2103 149.371C40.6386 149.278 41.1753 149.173 41.5499 149.073C43.3225 148.6 44.6062 147.904 46.1998 147.295C49.628 146.069 52.4675 145.044 55.2337 144.645C56.3891 144.555 57.6064 145.356 58.2119 145.694L60.4704 145.307C65.6676 161.381 76.5594 174.372 90.3512 182.524L89.4101 184.777C89.7493 185.651 90.1234 186.835 89.8708 187.699C88.8651 190.3 87.1425 193.046 85.181 196.107C84.2312 197.521 83.2592 198.619 82.4021 200.237C82.197 200.625 81.9359 201.22 81.7379 201.629C80.4062 204.471 81.383 207.744 83.941 208.973C86.5151 210.209 89.7102 208.905 91.0929 206.057C91.0951 206.053 91.102 206.05 91.104 206.046C91.1054 206.043 91.1026 206.038 91.104 206.035C91.3009 205.632 91.58 205.101 91.7461 204.721C92.4802 203.044 92.7245 201.606 93.2407 199.984C94.6116 196.549 95.3648 192.944 97.252 190.699C97.7688 190.084 98.6113 189.847 99.4848 189.614L100.658 187.493C112.682 192.097 126.14 193.332 139.584 190.287C142.651 189.593 145.612 188.694 148.474 187.615C148.804 188.198 149.417 189.32 149.581 189.603C150.469 189.891 151.438 190.04 152.227 191.204C153.639 193.61 154.605 196.457 155.781 199.895C156.297 201.518 156.553 202.955 157.287 204.633C157.454 205.015 157.732 205.553 157.929 205.958C159.309 208.815 162.514 210.123 165.092 208.885C167.65 207.655 168.627 204.382 167.295 201.541C167.097 201.131 166.825 200.536 166.62 200.149C165.763 198.531 164.791 197.444 163.841 196.03C161.879 192.969 160.252 190.426 159.246 187.825C158.826 186.483 159.317 185.649 159.645 184.777C159.449 184.552 159.029 183.285 158.781 182.689C173.114 174.248 183.686 160.772 188.651 145.208C189.322 145.313 190.487 145.519 190.865 145.595C191.645 145.082 192.361 144.413 193.766 144.523C196.532 144.922 199.372 145.947 202.8 147.174C204.394 147.783 205.677 148.49 207.45 148.963C207.824 149.063 208.361 149.156 208.789 149.25C208.824 149.258 208.854 149.275 208.889 149.283C208.912 149.288 208.944 149.289 208.967 149.294C212.039 149.954 215.022 148.277 215.653 145.517C216.284 142.758 214.323 139.958 211.269 139.223C210.825 139.122 210.195 138.951 209.764 138.869C207.961 138.529 206.493 138.613 204.793 138.472C201.17 138.093 198.17 137.785 195.504 136.948C194.417 136.527 193.644 135.237 193.268 134.706L191.175 134.098C192.26 126.269 191.968 118.121 190.09 109.968C188.196 101.74 184.847 94.214 180.381 87.5834C180.918 87.0967 181.931 86.2013 182.219 85.9379C182.303 85.0106 182.231 84.0383 183.193 83.0114C185.231 81.1029 187.8 79.5203 190.899 77.6112C192.369 76.748 193.729 76.1916 195.205 75.1043C195.539 74.8585 195.995 74.4691 196.346 74.1877C198.831 72.21 199.403 68.7991 197.619 66.5678C195.834 64.3364 192.376 64.1262 189.891 66.1039C189.537 66.3834 189.057 66.748 188.74 67.0205C187.349 68.2143 186.49 69.3933 185.319 70.6317C182.764 73.2207 180.651 75.3805 178.333 76.9375C177.328 77.521 175.857 77.3191 175.189 77.2799L173.218 78.6824C161.981 66.9285 146.681 59.4137 130.207 57.9539C130.161 57.2652 130.101 56.0204 130.085 55.6458C129.411 55.002 128.596 54.4524 128.391 53.0616C128.166 50.2826 128.542 47.2927 128.978 43.6857C129.219 42.0005 129.618 40.6006 129.687 38.7714C129.702 38.3556 129.677 37.7522 129.676 37.3026C129.675 34.1313 127.356 31.5598 124.494 31.5601H124.494ZM118.007 71.6477L116.468 98.7593L116.357 98.8146C116.254 101.24 114.253 103.177 111.796 103.177C110.789 103.177 109.86 102.854 109.106 102.304L109.061 102.326L86.7752 86.5674C93.6246 79.8491 102.386 74.8842 112.482 72.5975C114.327 72.1797 116.17 71.8698 118.007 71.6477ZM130.993 71.6477C142.781 73.0939 153.683 78.4183 162.036 86.5784L139.894 102.238L139.817 102.205C137.851 103.637 135.082 103.281 133.55 101.366C132.923 100.581 132.594 99.6579 132.554 98.7262L132.532 98.7152L130.993 71.6477ZM78.6933 96.6942L99.042 114.85L99.0198 114.96C100.857 116.553 101.127 119.317 99.5955 121.233C98.968 122.018 98.1281 122.544 97.2263 122.79L97.2042 122.878L71.1207 130.388C69.7932 118.279 72.6542 106.508 78.6933 96.6942ZM170.151 96.7052C173.175 101.594 175.464 107.053 176.827 112.972C178.174 118.82 178.512 124.658 177.957 130.299L151.74 122.768L151.718 122.657C149.37 122.017 147.928 119.635 148.474 117.246C148.698 116.267 149.219 115.439 149.925 114.828L149.914 114.772L170.151 96.7052H170.151ZM120.321 116.252H128.657L133.838 122.713L131.978 130.774L124.494 134.363L116.988 130.763L115.128 122.701L120.321 116.252ZM147.046 138.361C147.4 138.343 147.753 138.375 148.098 138.438L148.142 138.383L175.122 142.933C171.174 153.999 163.618 163.585 153.523 170.001L143.049 144.766L143.083 144.722C142.121 142.492 143.083 139.877 145.297 138.814C145.864 138.542 146.456 138.391 147.046 138.361H147.046ZM101.732 138.472C103.791 138.5 105.638 139.926 106.116 142.016C106.34 142.995 106.231 143.965 105.862 144.821L105.939 144.921L95.5767 169.901C85.8883 163.7 78.1715 154.414 74.0435 143.021L100.791 138.494L100.835 138.549C101.135 138.494 101.438 138.467 101.732 138.472V138.472ZM124.328 149.416C125.045 149.389 125.773 149.536 126.465 149.868C127.372 150.304 128.072 150.99 128.513 151.812H128.613L141.798 175.577C140.087 176.15 138.328 176.639 136.529 177.046C126.444 179.33 116.392 178.638 107.29 175.544L120.442 151.823H120.464C121.254 150.351 122.75 149.473 124.328 149.416Z" fill="white" stroke="white" stroke-width="0.25"/>
<rect width="51.1029" height="62.2936" fill="black" fill-opacity="0" transform="translate(181 178)"/>
<rect width="51.1029" height="62.2936" fill="black" fill-opacity="0" transform="translate(181 178)"/>
<path d="M205.641 240.219C231.044 240.219 232.055 232.574 232.055 232.574L232.103 186.03V185.453C232.103 189.588 220.7 192.905 206.603 192.905C192.507 192.905 181.104 189.54 181.104 185.453V186.03L181.152 232.574C181.152 232.574 182.162 240.219 207.566 240.219" fill="#C7C7C7"/>
<path d="M205.641 240.219C231.044 240.219 232.055 232.574 232.055 232.574L232.103 186.03V185.453C232.103 189.588 220.7 192.905 206.603 192.905C192.507 192.905 181.104 189.54 181.104 185.453V186.03L181.152 232.574C181.152 232.574 182.162 240.219 207.566 240.219" fill="#727272"/>
<path d="M206.556 192.906C220.639 192.906 232.055 189.569 232.055 185.453C232.055 181.337 220.639 178 206.556 178C192.473 178 181.057 181.337 181.057 185.453C181.057 189.569 192.473 192.906 206.556 192.906Z" fill="#262B3E" stroke="#9E9E9E" stroke-width="2" stroke-miterlimit="10"/>
<rect width="56.0001" height="101" fill="black" fill-opacity="0" transform="translate(96 69)"/>
<path d="M105.533 69H106.939C106.98 69.0631 107.048 69.0429 107.104 69.048C107.707 69.115 108.297 69.2654 108.858 69.4949C110.27 70.0706 111.317 71.0805 112.194 72.2875C113.535 74.1947 114.557 76.306 115.22 78.5392C115.811 80.5068 116.288 82.5064 116.65 84.5284C117.052 86.5971 117.373 88.676 117.613 90.765C117.813 92.5046 117.897 94.2544 118.049 95.9991C117.667 96.7504 117.352 97.5336 117.108 98.3398C116.789 99.2406 116.562 100.171 116.429 101.117C115.775 99.0543 115.709 96.9359 115.78 94.7367C115.387 95.5804 115.049 96.4482 114.766 97.3348C114.76 97.1023 114.768 96.8696 114.789 96.638C114.82 95.224 114.789 93.81 114.716 92.3961C114.574 90.0153 114.289 87.6451 113.862 85.2985C113.408 82.6273 112.563 80.0369 111.355 77.61C110.764 76.4587 110.087 75.3654 109.109 74.4943C108.176 73.6711 107.145 73.0298 105.852 72.9944C104.142 72.9399 102.476 73.544 101.201 74.6811C100.316 75.4386 99.8298 76.4713 99.4268 77.5419C98.7703 79.327 98.7374 81.1752 98.9706 83.0311C99.2805 85.3907 99.7892 87.7202 100.491 89.9949C102.121 95.2802 104.555 100.286 107.707 104.836C108.673 106.294 109.823 107.622 111.129 108.788C111.814 109.384 112.171 109.316 112.614 108.535C113.143 107.574 113.546 106.549 113.813 105.485C114.003 104.761 114.161 104.028 114.32 103.301C114.443 103.917 114.62 104.52 114.85 105.104C115.245 105.978 115.527 106.932 116.462 107.437C116.501 107.456 116.532 107.49 116.547 107.531C116.562 107.572 116.561 107.617 116.543 107.657C116.29 108.513 116.442 109.361 116.614 110.207C116.808 111.091 117.075 111.957 117.413 112.798C117.608 113.331 117.842 113.85 118.112 114.35C117.954 113.512 117.987 112.649 118.208 111.825C118.408 110.987 118.751 110.19 119.222 109.467C118.865 112.608 119.412 115.61 120.505 118.615C120.519 118.57 120.53 118.523 120.538 118.476C120.499 116.883 120.568 115.29 120.746 113.707C120.829 112.746 121.053 111.802 121.412 110.906C121.628 110.422 121.894 109.967 122.426 109.73C122.57 109.664 122.659 109.669 122.733 109.833C123.25 110.966 123.644 112.151 123.909 113.368C124.068 114.171 124.193 114.979 124.003 115.797C124.003 115.845 123.972 115.913 124.03 115.934C124.089 115.954 124.147 115.881 124.188 115.827C125.331 114.275 126.228 112.611 126.565 110.689C126.646 110.208 126.679 109.72 126.664 109.232C126.664 108.755 126.524 108.298 126.494 107.826C127.041 108.301 127.542 108.826 127.992 109.394C128.828 110.472 129.528 111.621 129.855 112.962C130.042 113.641 130.109 114.348 130.053 115.05C130.01 115.461 129.896 115.858 129.88 116.272L129.842 116.327L129.86 116.34L129.88 116.272C129.926 116.199 129.977 116.13 130.015 116.055C130.573 114.919 131.026 113.736 131.371 112.52C131.696 111.44 131.86 110.319 131.857 109.192C131.857 109.061 131.837 108.939 131.824 108.758C132.023 108.882 132.196 109.044 132.331 109.235C132.798 109.864 132.973 110.598 133.109 111.348C133.201 111.853 133.282 112.358 133.363 112.863C133.478 112.64 133.572 112.405 133.642 112.164C134.119 110.786 134.292 109.322 134.149 107.871C134.08 107.21 133.851 106.575 133.482 106.021C133.438 105.971 133.414 105.907 133.414 105.841C133.414 105.775 133.438 105.712 133.482 105.662C133.691 105.325 133.851 104.959 133.956 104.576C133.969 104.608 133.98 104.64 133.989 104.672C134.266 106.008 134.73 107.298 135.368 108.505C135.839 109.359 136.202 109.412 136.939 108.758C137.788 108.006 138.562 107.174 139.251 106.273C141.355 103.484 143.167 100.487 144.657 97.3298C146.518 93.5088 147.861 89.4588 148.652 85.2858C149.012 83.3846 149.293 81.4732 149.032 79.529C148.861 77.9848 148.275 76.5152 147.336 75.2745C146.414 74.0953 145.124 73.4792 143.686 73.1409C142.966 72.9518 142.212 72.9316 141.483 73.0818C140.754 73.2321 140.07 73.5488 139.484 74.0069C138.752 74.5496 138.118 75.2122 137.608 75.9663C136.538 77.622 135.702 79.4163 135.122 81.299C134.523 83.1898 134.089 85.1286 133.824 87.0937C133.611 88.5607 133.434 90.0327 133.338 91.5149C133.294 92.2042 133.244 92.891 133.216 93.5803C133.173 94.7114 133.178 95.8527 133.216 96.9712C133.241 97.7893 133.348 98.6049 133.335 99.4255C133.17 98.9988 133.011 98.5746 132.843 98.1504C132.737 97.8802 132.62 97.6151 132.509 97.35C132.547 98.0898 132.509 98.8119 132.509 99.5366C132.514 100.235 132.388 100.929 132.139 101.582C131.908 102.175 131.566 102.683 130.914 102.905C130.722 102.971 130.618 102.958 130.549 102.738C130.388 102.22 130.355 101.671 130.453 101.137C130.617 100.368 130.927 99.6374 131.366 98.9836C131.401 98.9256 131.47 98.8675 131.442 98.8018C131.414 98.7362 131.305 98.7539 131.231 98.7539C130.707 98.7839 130.192 98.9071 129.711 99.1174C129.87 97.0546 130.027 94.9917 130.217 92.9314C130.415 90.8281 130.664 88.7324 130.996 86.6468C131.5 83.4683 132.29 80.3416 133.358 77.3045C134.118 75.1078 135.16 73.055 136.762 71.3204C138.483 69.457 140.632 68.7955 143.098 69.1515C145.093 69.4488 146.946 70.3578 148.398 71.7522C150.771 73.9489 151.774 76.7541 151.947 79.9077C151.947 80.6989 151.947 81.4909 151.947 82.2837C151.927 83.0436 151.869 83.8021 151.772 84.5561C151.481 86.8552 150.986 89.1239 150.292 91.3356C148.601 96.8374 146.236 102.049 143.544 107.129C143.136 107.887 142.693 108.644 142.247 109.402C141.927 109.937 141.993 110.227 142.452 110.613L142.614 110.742C143.33 111.304 143.976 111.947 144.541 112.659C145.696 114.161 146.497 115.904 146.885 117.757C147.213 119.163 147.342 120.607 147.268 122.049C147.21 123.145 147.07 124.228 146.938 125.316C146.789 126.541 146.654 127.765 146.49 128.987C146.287 130.502 146.054 132.017 145.851 133.517C145.598 135.456 145.255 137.383 144.931 139.312C144.622 141.148 144.323 142.983 144.018 144.819C143.803 146.127 143.643 147.45 143.357 148.743C142.802 151.252 141.91 153.659 140.939 156.035C140.85 155.987 140.853 155.891 140.82 155.812C140.68 155.469 140.566 155.115 140.396 154.782C139.243 152.437 137.747 150.275 135.958 148.366C134.479 146.784 132.792 145.407 130.945 144.271C128.95 143.034 126.824 142.165 124.459 141.92C122.819 141.754 121.164 141.999 119.643 142.632C117.921 143.35 116.345 144.377 114.994 145.662C113.158 147.339 111.54 149.238 110.179 151.315C109.079 153.004 108.233 154.844 107.667 156.777C107.413 157.62 107.299 158.491 107.086 159.34L106.904 159.928C106.863 159.847 106.836 159.794 106.81 159.739C106.007 157.918 105.234 156.088 104.529 154.229C103.894 152.693 103.375 151.111 102.978 149.498C102.572 147.639 102.489 145.738 102.354 143.847C102.27 142.66 102.185 141.473 102.101 140.287C102.035 139.277 101.885 138.297 101.774 137.305C101.624 135.992 101.569 134.674 101.5 133.356C101.422 131.823 101.277 130.293 101.135 128.765C101.005 127.383 100.893 126 100.798 124.614C100.68 123.114 100.775 121.604 101.082 120.13C101.665 117.436 102.945 115.08 104.673 112.959C105.138 112.389 105.647 111.855 106.194 111.363C106.534 111.058 106.574 110.805 106.369 110.396C106.331 110.321 106.288 110.245 106.245 110.169C104.367 106.887 102.615 103.534 101.072 100.069C99.1759 95.8199 97.5233 91.4846 96.6539 86.9043C96.3075 85.2414 96.1057 83.5519 96.0507 81.8545C96.0507 81.8014 96.0836 81.7307 96 81.7004V80.9707C96.071 80.9505 96.0507 80.8899 96.0507 80.8445C96.0545 80.3186 96.0892 79.7933 96.1546 79.2714C96.3179 77.6405 96.7702 76.0513 97.4904 74.5776C98.9072 71.7446 101.308 70.1362 104.278 69.2676C104.686 69.1464 105.115 69.0884 105.533 69ZM131.617 136.416C131.85 136.416 132.085 136.416 132.319 136.416C132.552 136.416 132.785 136.368 133.016 136.33C136.054 135.893 138.858 134.457 140.982 132.25C142.444 130.735 142.939 128.967 142.323 126.947C141.572 124.467 139.915 122.357 137.679 121.034C137.058 120.649 136.358 120.407 135.631 120.326C134.904 120.246 134.168 120.329 133.477 120.569C132.376 120.924 131.378 121.542 130.572 122.37C128.666 124.277 127.352 126.693 126.788 129.326C126.337 131.303 126.664 133.176 127.548 134.969C127.731 135.378 128.021 135.73 128.387 135.989C128.753 136.249 129.182 136.406 129.629 136.444C130.306 136.514 130.96 136.401 131.619 136.413L131.617 136.416ZM116.994 136.489H117.42C118.475 136.471 119.395 136.156 119.975 135.227C120.598 134.226 120.967 133.09 121.052 131.916C121.151 130.586 120.887 129.288 120.528 128.015C119.638 124.874 117.808 122.46 114.911 120.867C113.964 120.301 112.835 120.115 111.755 120.347C110.234 120.701 109.031 121.557 107.953 122.62C106.835 123.77 105.98 125.149 105.447 126.659C105.106 127.472 104.993 128.362 105.121 129.234C105.249 130.106 105.612 130.926 106.171 131.608C106.866 132.481 107.686 133.246 108.605 133.881C111.132 135.696 114.001 136.391 116.997 136.487L116.994 136.489Z" fill="#493636"/>
<path d="M140.944 156.004C141.035 156.398 141.136 156.79 141.215 157.186C141.702 159.711 141.116 161.983 139.588 164.024C137.724 166.496 135.12 168.316 132.151 169.22C130.64 169.678 129.072 169.924 127.493 169.95C127.414 169.95 127.318 169.904 127.257 170H123.66C123.625 169.927 123.556 169.952 123.5 169.95C121.43 169.902 119.366 169.707 117.324 169.366C115.587 169.056 113.882 168.649 112.282 167.882C108.838 166.23 107.157 163.486 107.147 159.701C107.147 159.572 107.213 159.428 107.104 159.31C107.317 158.459 107.439 157.59 107.684 156.747C108.25 154.814 109.096 152.974 110.196 151.285C111.558 149.208 113.176 147.308 115.012 145.632C116.362 144.347 117.938 143.32 119.661 142.602C121.181 141.968 122.837 141.724 124.476 141.89C126.841 142.143 128.968 143.004 130.962 144.241C132.81 145.376 134.496 146.754 135.976 148.336C137.765 150.245 139.26 152.407 140.414 154.752C140.576 155.085 140.695 155.439 140.837 155.782C140.858 155.858 140.855 155.954 140.944 156.004ZM135.588 161.034C135.505 161.06 135.431 161.106 135.37 161.168C133.834 162.312 132.255 163.385 130.491 164.162C127.884 165.324 124.979 165.651 122.177 165.099C119.805 164.657 117.597 163.756 115.453 162.683C114.523 162.218 113.631 161.691 112.721 161.191H112.7H112.723C112.723 161.327 112.83 161.403 112.901 161.494C114.876 163.986 117.543 165.846 120.57 166.841C122.935 167.674 125.497 167.776 127.921 167.132C130.785 166.374 133.033 164.69 134.797 162.334C135.12 161.941 135.392 161.508 135.606 161.047L135.634 161.019C135.634 161.019 135.634 161.019 135.634 161.001L135.588 161.034ZM136.419 153.459C136.44 153.286 136.425 153.11 136.376 152.943C136.327 152.775 136.244 152.62 136.133 152.485C135.733 151.949 135.243 151.487 134.686 151.116C134.115 150.713 133.419 150.522 132.722 150.578C132.024 150.634 131.368 150.933 130.869 151.422C130.258 152.033 130.073 152.81 130.025 153.618C129.929 155.079 129.469 156.493 128.686 157.731C128.261 158.423 127.802 159.095 127.323 159.751C127.039 160.143 127.12 160.479 127.541 160.721C127.68 160.794 127.835 160.832 127.992 160.832C128.149 160.832 128.304 160.794 128.443 160.721C130.549 159.83 132.564 158.784 134.356 157.348C135.616 156.34 136.369 155.083 136.419 153.459ZM112.868 153.99C112.861 154.526 113.012 155.052 113.301 155.504C113.942 156.583 114.878 157.378 115.889 158.087C117.232 159.029 118.715 159.729 120.178 160.463C120.469 160.595 120.772 160.7 121.082 160.777C121.229 160.815 121.383 160.814 121.53 160.775C121.677 160.736 121.811 160.66 121.919 160.554C122.003 160.498 122.064 160.413 122.088 160.315C122.113 160.217 122.099 160.113 122.051 160.024C121.947 159.786 121.799 159.569 121.615 159.385C121.529 159.299 121.417 159.209 121.432 159.085C121.437 159.008 121.424 158.932 121.393 158.861C121.362 158.791 121.315 158.729 121.255 158.681C121.151 158.567 121.052 158.444 120.956 158.322C119.889 156.919 119.287 155.219 119.235 153.459C119.133 151.576 117.605 150.318 115.856 150.609C114.236 150.876 112.868 152.358 112.868 153.99Z" fill="#B27F6F"/>
<path d="M151.949 79.8877H152V82.2561H151.954C151.951 81.47 151.949 80.6805 151.949 79.8877Z" fill="#B18070"/>
<path d="M114.333 103.296C114.16 104.024 114.003 104.756 113.826 105.481C113.56 106.544 113.159 107.569 112.632 108.531C112.188 109.323 111.834 109.392 111.147 108.783C109.841 107.617 108.691 106.289 107.725 104.832C104.569 100.285 102.131 95.2844 100.496 90.0027C99.7941 87.728 99.2854 85.3985 98.9755 83.0389C98.7423 81.1805 98.7753 79.3348 99.4317 77.5497C99.8246 76.4816 100.311 75.4515 101.206 74.6889C102.478 73.5503 104.142 72.9435 105.852 72.9947C107.145 73.0275 108.176 73.6663 109.109 74.4945C110.092 75.3656 110.764 76.4589 111.355 77.6103C112.563 80.0371 113.408 82.6276 113.861 85.2987C114.287 87.6488 114.571 90.0223 114.71 92.4064C114.797 93.8204 114.814 95.2343 114.784 96.6483C114.763 96.8799 114.755 97.1126 114.761 97.3452C114.741 97.4285 114.723 97.5118 114.703 97.5977C114.337 98.9129 114.16 100.273 114.176 101.638C114.196 102.188 114.28 102.741 114.333 103.296Z" fill="url(#paint0_radial)"/>
<path d="M133.333 99.4255C133.348 98.6049 133.241 97.7919 133.214 96.9713C133.178 95.8401 133.171 94.6989 133.214 93.5803C133.241 92.891 133.292 92.2042 133.335 91.5149C133.429 90.0328 133.606 88.5607 133.822 87.0938C134.087 85.1286 134.521 83.1899 135.12 81.299C135.699 79.4164 136.536 77.6221 137.606 75.9664C138.116 75.2122 138.75 74.5497 139.482 74.007C140.067 73.5488 140.752 73.2322 141.481 73.0819C142.21 72.9316 142.964 72.9518 143.684 73.141C145.121 73.4793 146.414 74.0954 147.334 75.2745C148.273 76.5152 148.858 77.9849 149.03 79.529C149.283 81.4732 149.009 83.3821 148.649 85.2859C147.851 89.4564 146.501 93.503 144.635 97.3197C143.145 100.477 141.333 103.474 139.228 106.263C138.54 107.163 137.766 107.996 136.917 108.748C136.179 109.397 135.817 109.343 135.345 108.495C134.707 107.288 134.243 105.998 133.966 104.662C133.957 104.63 133.946 104.598 133.933 104.566C134.131 103.646 134.131 102.694 133.933 101.774C133.781 100.98 133.58 100.195 133.333 99.4255Z" fill="url(#paint1_radial)"/>
<path d="M133.332 99.4256C133.583 100.194 133.787 100.978 133.943 101.771C134.14 102.692 134.14 103.643 133.943 104.564C133.838 104.946 133.678 105.312 133.469 105.65C133.425 105.699 133.401 105.763 133.401 105.829C133.401 105.895 133.425 105.959 133.469 106.008C133.839 106.562 134.067 107.197 134.136 107.859C134.279 109.309 134.106 110.774 133.629 112.151C133.559 112.393 133.466 112.627 133.35 112.851C133.264 112.346 133.185 111.841 133.097 111.336C132.96 110.578 132.782 109.851 132.318 109.222C132.183 109.031 132.01 108.869 131.811 108.745C131.824 108.914 131.842 109.048 131.844 109.179C131.843 110.304 131.677 111.423 131.35 112.5C131.006 113.716 130.552 114.899 129.994 116.035C129.956 116.11 129.905 116.181 129.86 116.252C129.878 115.84 129.989 115.441 130.032 115.03C130.089 114.328 130.022 113.621 129.834 112.942C129.508 111.601 128.821 110.452 127.972 109.374C127.522 108.806 127.02 108.281 126.474 107.806H126.453H126.476C126.507 108.278 126.636 108.733 126.646 109.212C126.661 109.7 126.628 110.188 126.547 110.669C126.21 112.591 125.31 114.255 124.17 115.807C124.132 115.86 124.099 115.944 124.012 115.913C123.926 115.883 123.974 115.825 123.985 115.777C124.175 114.959 124.05 114.154 123.891 113.348C123.627 112.131 123.232 110.946 122.715 109.813C122.644 109.649 122.552 109.644 122.408 109.71C121.886 109.945 121.622 110.402 121.394 110.886C121.035 111.782 120.811 112.726 120.728 113.686C120.55 115.27 120.481 116.863 120.52 118.456C120.512 118.503 120.501 118.549 120.487 118.595C119.394 115.593 118.847 112.588 119.204 109.447C118.733 110.169 118.39 110.967 118.19 111.805C117.969 112.629 117.936 113.492 118.094 114.33C117.824 113.83 117.59 113.311 117.395 112.778C117.057 111.937 116.79 111.071 116.596 110.187C116.424 109.344 116.277 108.493 116.525 107.637C116.543 107.597 116.544 107.552 116.529 107.511C116.514 107.47 116.483 107.436 116.444 107.417C115.509 106.912 115.227 105.955 114.832 105.084C114.602 104.5 114.425 103.897 114.302 103.281C114.249 102.726 114.165 102.173 114.155 101.612C114.139 100.248 114.317 98.8876 114.682 97.5723C114.705 97.489 114.723 97.4057 114.741 97.3198C115.023 96.4332 115.362 95.5654 115.755 94.7217C115.686 96.9184 115.755 99.0393 116.403 101.102C116.536 100.156 116.763 99.2256 117.083 98.3248C117.327 97.5186 117.641 96.7354 118.023 95.9841L118.008 96.1887C117.988 96.2156 117.973 96.2454 117.962 96.277C117.864 96.8723 117.864 97.4796 117.962 98.0748C117.981 98.3921 118.062 98.7026 118.201 98.9888C118.374 99.6952 118.644 100.375 119.001 101.009C119.46 99.7261 119.894 98.5141 119.508 97.1885C119.901 97.4739 120.157 97.888 120.489 98.2288C120.891 98.7685 121.26 99.3317 121.594 99.9155C121.875 100.445 122.115 100.994 122.312 101.559C122.587 100.135 123.072 98.7582 123.749 97.4739C123.954 99.0747 124.304 100.552 125.054 101.933C125.244 101.698 125.41 101.444 125.548 101.175C126.178 100.132 126.421 98.9016 126.233 97.6986C126.152 97.4631 126.098 97.2191 126.073 96.9714H126.126C126.85 98.164 127.435 99.4346 127.87 100.759C128.015 100.507 128.179 100.268 128.362 100.042C128.733 99.6469 129.178 99.3278 129.672 99.1024C130.153 98.8921 130.668 98.7689 131.193 98.7389C131.264 98.7389 131.363 98.6959 131.403 98.7868C131.444 98.8777 131.363 98.9106 131.327 98.9686C130.889 99.6224 130.579 100.353 130.415 101.122C130.317 101.656 130.35 102.205 130.511 102.723C130.582 102.943 130.684 102.955 130.876 102.89C131.528 102.668 131.87 102.163 132.1 101.567C132.35 100.914 132.475 100.22 132.47 99.5216C132.47 98.7995 132.498 98.0748 132.47 97.335C132.582 97.6026 132.699 97.8678 132.805 98.1354C133.008 98.5672 133.17 98.9939 133.332 99.4256Z" fill="#050505"/>
<path d="M131.619 136.413C130.96 136.398 130.306 136.512 129.645 136.441C129.197 136.403 128.768 136.246 128.402 135.987C128.036 135.728 127.746 135.375 127.564 134.967C126.666 133.174 126.339 131.3 126.803 129.323C127.365 126.693 128.675 124.28 130.577 122.372C131.383 121.544 132.381 120.926 133.482 120.572C134.173 120.332 134.909 120.249 135.636 120.329C136.363 120.409 137.063 120.651 137.684 121.036C139.915 122.361 141.567 124.47 142.315 126.947C142.934 128.967 142.439 130.735 140.974 132.25C138.85 134.452 136.049 135.884 133.016 136.32C132.785 136.358 132.552 136.391 132.319 136.406C132.085 136.421 131.857 136.413 131.619 136.413ZM132.516 136.012C132.915 136.034 133.314 136.004 133.705 135.924C135.309 135.557 136.323 134.522 136.942 133.058C137.214 132.526 137.342 131.932 137.314 131.336C137.312 131.181 137.271 131.03 137.194 130.896C137.117 130.762 137.007 130.649 136.875 130.569C136.742 130.488 136.592 130.442 136.437 130.436C136.282 130.429 136.128 130.462 135.989 130.53C135.831 130.599 135.677 130.677 135.527 130.763C135.354 130.859 135.172 130.937 134.982 130.997C134.313 131.197 133.715 130.957 133.259 130.316C133.057 130.069 132.951 129.758 132.96 129.44C132.97 129.121 133.095 128.817 133.312 128.584C133.452 128.409 133.626 128.263 133.773 128.091C133.899 127.964 133.987 127.805 134.026 127.631C134.066 127.457 134.056 127.275 133.997 127.107C133.939 126.938 133.834 126.789 133.695 126.677C133.556 126.564 133.388 126.493 133.211 126.47C132.381 126.309 131.522 126.382 130.732 126.682C129.239 127.25 128.129 128.238 127.766 129.823C127.499 131.036 127.609 132.3 128.081 133.449C128.285 134.002 128.617 134.499 129.05 134.901C129.482 135.302 130.004 135.596 130.572 135.759C131.203 135.944 131.859 136.03 132.516 136.012Z" fill="white"/>
<path d="M116.997 136.486C114.001 136.391 111.129 135.694 108.607 133.883C107.688 133.249 106.868 132.483 106.174 131.611C105.614 130.929 105.251 130.108 105.123 129.236C104.996 128.365 105.108 127.475 105.449 126.662C105.982 125.151 106.838 123.773 107.956 122.622C109.03 121.554 110.237 120.698 111.758 120.35C112.838 120.117 113.966 120.303 114.913 120.87C117.81 122.453 119.638 124.877 120.53 128.018C120.89 129.28 121.156 130.588 121.055 131.919C120.97 133.093 120.6 134.229 119.977 135.229C119.397 136.163 118.479 136.492 117.423 136.492L116.997 136.486ZM110.381 131.323C110.394 131.469 110.407 131.702 110.437 131.934C110.458 132.104 110.492 132.273 110.536 132.439C110.995 134.136 111.981 135.35 113.722 135.868C114.229 136.019 114.766 135.982 115.291 136.022C116.22 136.121 117.155 135.894 117.934 135.381C119.377 134.411 120.175 133.085 120.008 131.3C119.939 130.543 119.313 130.038 118.54 130.631C118.403 130.736 118.256 130.827 118.102 130.904C117.859 131.043 117.58 131.103 117.302 131.077C117.023 131.051 116.76 130.939 116.548 130.757C115.633 130.04 115.593 129.099 116.444 128.316C116.528 128.24 116.611 128.164 116.698 128.081C116.853 127.933 116.947 127.734 116.964 127.521C116.98 127.308 116.917 127.096 116.786 126.927C116.691 126.783 116.563 126.662 116.413 126.574C116.263 126.487 116.095 126.435 115.922 126.422C115.432 126.368 114.936 126.383 114.449 126.465C113.295 126.645 112.246 127.238 111.498 128.131C110.749 129.025 110.352 130.159 110.381 131.323Z" fill="white"/>
<path d="M129.863 116.262L129.842 116.331L129.825 116.318L129.863 116.262Z" fill="#050505"/>
<path d="M136.419 153.46C136.366 155.081 135.613 156.338 134.359 157.345C132.567 158.785 130.557 159.83 128.445 160.719C128.306 160.792 128.151 160.83 127.994 160.83C127.837 160.83 127.682 160.792 127.543 160.719C127.122 160.466 127.036 160.141 127.325 159.749C127.804 159.093 128.263 158.424 128.689 157.729C129.472 156.491 129.932 155.077 130.027 153.616C130.075 152.806 130.26 152.03 130.871 151.419C131.37 150.93 132.026 150.632 132.724 150.576C133.422 150.52 134.117 150.711 134.688 151.114C135.246 151.484 135.735 151.947 136.135 152.482C136.247 152.618 136.329 152.774 136.378 152.942C136.426 153.11 136.441 153.286 136.419 153.46Z" fill="#050505"/>
<path d="M112.868 153.989C112.868 152.358 114.237 150.876 115.856 150.609C117.605 150.318 119.134 151.576 119.235 153.459C119.286 155.223 119.888 156.926 120.958 158.332C121.055 158.456 121.151 158.585 121.258 158.691C121.318 158.739 121.365 158.801 121.396 158.871C121.427 158.942 121.44 159.018 121.435 159.095C121.42 159.219 121.529 159.309 121.617 159.395C121.799 159.576 121.945 159.79 122.048 160.024C122.097 160.113 122.11 160.217 122.086 160.315C122.062 160.413 122.001 160.498 121.917 160.554C121.808 160.66 121.674 160.736 121.528 160.775C121.381 160.814 121.227 160.814 121.08 160.776C120.77 160.7 120.467 160.595 120.175 160.463C118.715 159.729 117.23 159.032 115.887 158.087C114.873 157.378 113.94 156.572 113.299 155.504C113.011 155.052 112.861 154.525 112.868 153.989Z" fill="#050505"/>
<path d="M112.724 161.188C113.634 161.693 114.528 162.215 115.456 162.68C117.6 163.751 119.805 164.655 122.18 165.096C124.982 165.648 127.887 165.321 130.494 164.16C132.268 163.382 133.837 162.309 135.373 161.165C135.433 161.103 135.508 161.057 135.591 161.031L135.604 161.046C135.389 161.508 135.118 161.94 134.795 162.334C133.021 164.68 130.783 166.354 127.919 167.131C125.495 167.775 122.933 167.674 120.568 166.841C117.542 165.843 114.877 163.982 112.904 161.488C112.833 161.397 112.726 161.319 112.726 161.185L112.724 161.188Z" fill="white"/>
<path d="M135.588 161.034L135.616 161.003C135.616 161.003 135.629 161.019 135.616 161.021L135.588 161.049V161.034Z" fill="white"/>
<path d="M126.112 96.9738C126.136 97.2215 126.19 97.4655 126.271 97.701C126.459 98.904 126.217 100.135 125.587 101.178C125.448 101.446 125.283 101.7 125.093 101.935C124.332 100.552 123.993 99.077 123.787 97.4762C123.11 98.7606 122.626 100.137 122.35 101.562C122.153 100.996 121.913 100.447 121.633 99.9179C121.299 99.3341 120.93 98.7708 120.528 98.2312C120.878 97.7414 121.327 97.3307 121.848 97.0262C122.368 96.7216 122.947 96.5299 123.547 96.4637C123.615 96.4637 123.683 96.436 123.749 96.4233C123.967 96.4461 124.186 96.4461 124.403 96.4233C124.927 96.4844 125.439 96.6204 125.924 96.8273C126.002 96.8516 126.069 96.9037 126.112 96.9738Z" fill="url(#paint2_radial)"/>
<path d="M123.747 91.3939C123.241 91.2996 122.789 91.0187 122.482 90.6074C122.175 90.1961 122.035 89.6845 122.089 89.1748C122.144 88.665 122.389 88.1945 122.777 87.8571C123.164 87.5196 123.665 87.3401 124.18 87.3543C124.694 87.3685 125.184 87.5753 125.552 87.9336C125.921 88.2918 126.14 88.7751 126.166 89.2871C126.192 89.7991 126.024 90.3022 125.694 90.6959C125.365 91.0897 124.898 91.3453 124.388 91.4116C124.174 91.4286 123.959 91.4227 123.747 91.3939Z" fill="url(#paint3_radial)"/>
<path d="M123.747 91.3936C123.959 91.4223 124.174 91.4282 124.388 91.4112C124.388 92.8706 124.388 94.3301 124.388 95.7895C124.388 95.9965 124.388 96.2036 124.388 96.4106C124.17 96.4333 123.951 96.4333 123.734 96.4106C123.742 94.7391 123.747 93.0667 123.747 91.3936Z" fill="#050505"/>
<path d="M128.398 100.049C128.215 100.275 128.051 100.515 127.906 100.766C127.471 99.4422 126.886 98.1716 126.162 96.979C126.674 97.2066 127.118 97.5614 127.452 98.0092C127.912 98.5594 128.221 99.2187 128.349 99.9231C128.362 99.9666 128.378 100.009 128.398 100.049Z" fill="url(#paint4_radial)"/>
<path d="M118.234 99.0038C118.095 98.7175 118.014 98.407 117.995 98.0897C117.897 97.4945 117.897 96.8872 117.995 96.292C118.006 96.2604 118.021 96.2306 118.041 96.2036C118.122 97.1378 118.196 98.0695 118.234 99.0038Z" fill="#4B3838"/>
<path d="M119.536 97.2016L119.501 97.171L119.529 97.1455L119.547 97.1914L119.536 97.2016Z" fill="#050505"/>
<path d="M132.516 136.012C131.857 136.03 131.2 135.945 130.567 135.76C129.999 135.596 129.477 135.302 129.044 134.901C128.612 134.499 128.28 134.002 128.076 133.449C127.604 132.3 127.494 131.036 127.761 129.823C128.124 128.24 129.234 127.253 130.727 126.682C131.517 126.382 132.376 126.309 133.206 126.47C133.383 126.493 133.551 126.564 133.69 126.677C133.829 126.789 133.934 126.938 133.992 127.107C134.051 127.275 134.061 127.457 134.021 127.631C133.982 127.805 133.894 127.964 133.768 128.091C133.624 128.263 133.449 128.409 133.307 128.584C133.09 128.817 132.965 129.122 132.955 129.44C132.946 129.758 133.052 130.069 133.254 130.316C133.7 130.957 134.306 131.194 134.977 130.997C135.166 130.938 135.349 130.859 135.522 130.763C135.672 130.677 135.826 130.599 135.984 130.53C136.123 130.462 136.277 130.429 136.432 130.436C136.586 130.443 136.737 130.488 136.87 130.569C137.002 130.649 137.112 130.762 137.189 130.896C137.265 131.03 137.307 131.181 137.309 131.336C137.337 131.932 137.209 132.526 136.937 133.058C136.318 134.522 135.307 135.558 133.7 135.924C133.311 136.004 132.913 136.034 132.516 136.012Z" fill="#050505"/>
<path d="M110.381 131.323C110.352 130.161 110.746 129.027 111.492 128.133C112.238 127.239 113.284 126.646 114.437 126.462C114.923 126.38 115.419 126.366 115.909 126.42C116.083 126.432 116.251 126.484 116.401 126.572C116.55 126.659 116.678 126.78 116.774 126.924C116.904 127.094 116.968 127.305 116.951 127.518C116.935 127.731 116.84 127.931 116.685 128.078C116.609 128.162 116.525 128.237 116.432 128.313C115.577 129.093 115.621 130.035 116.536 130.755C116.747 130.936 117.011 131.048 117.289 131.074C117.567 131.1 117.847 131.04 118.089 130.901C118.244 130.824 118.391 130.733 118.528 130.629C119.301 130.035 119.927 130.545 119.995 131.298C120.16 133.083 119.364 134.408 117.922 135.378C117.142 135.891 116.208 136.118 115.278 136.019C114.754 135.979 114.221 136.019 113.709 135.865C111.968 135.36 110.982 134.133 110.523 132.436C110.479 132.271 110.446 132.102 110.425 131.931C110.409 131.704 110.394 131.469 110.381 131.323Z" fill="#050505"/>
<defs>
<radialGradient id="paint0_radial" cx="0" cy="0" r="1" gradientUnits="userSpaceOnUse" gradientTransform="translate(106.828 91.1237) scale(14.0469 13.9932)">
<stop stop-color="#3192C3"/>
<stop offset="1" stop-color="#3192C3"/>
</radialGradient>
<radialGradient id="paint1_radial" cx="0" cy="0" r="1" gradientUnits="userSpaceOnUse" gradientTransform="translate(3030.26 3315.62) scale(883.632 2006.55)">
<stop stop-color="#3192C3"/>
<stop offset="1" stop-color="#3192C3"/>
</radialGradient>
<radialGradient id="paint2_radial" cx="0" cy="0" r="1" gradientUnits="userSpaceOnUse" gradientTransform="translate(769.4 766.84) scale(65.0787 61.7888)">
<stop stop-color="#3192C3"/>
<stop offset="1" stop-color="#3192C3"/>
</radialGradient>
<radialGradient id="paint3_radial" cx="0" cy="0" r="1" gradientUnits="userSpaceOnUse" gradientTransform="translate(590.648 424.637) scale(32.6862 32.4999)">
<stop stop-color="#3192C3"/>
<stop offset="1" stop-color="#3192C3"/>
</radialGradient>
<radialGradient id="paint4_radial" cx="0" cy="0" r="1" gradientUnits="userSpaceOnUse" gradientTransform="translate(409.942 553.172) scale(13.7486 23.2925)">
<stop stop-color="#3192C3"/>
<stop offset="1" stop-color="#3192C3"/>
</radialGradient>
</defs>
</svg>
