<svg width="484" height="296" viewBox="0 0 484 296" fill="none" xmlns="http://www.w3.org/2000/svg">
<path d="M112.419 291.051C115.509 290.309 118.246 288.516 120.165 285.978L120.286 285.826C119.566 286.328 118.873 286.777 118.191 287.182C114.207 289.551 109.978 290.262 105.623 289.299C102.948 288.707 100.207 287.618 97.0169 285.878C99.0395 287.992 101.534 289.595 104.295 290.553C106.893 291.526 109.722 291.7 112.419 291.051ZM87.8566 225.081C88.2257 225.735 88.1714 225.978 87.67 226.457C85.0222 228.947 83.0925 232.105 82.084 235.601C81.2993 238.306 81.4274 241.052 81.6712 243.808C81.8896 246.278 82.0946 248.75 82.2862 251.222C82.4106 252.834 82.4305 254.457 82.6176 256.061C82.9696 259.077 83.1768 262.103 83.3837 265.13C83.5276 267.235 83.6575 269.342 84.1864 271.397C84.8938 274.146 85.9958 276.753 87.0556 279.375C87.4508 280.352 87.8704 281.323 88.3068 282.345L88.4185 282.208C88.592 281.942 88.6893 281.633 88.6997 281.315C88.7158 281.199 88.7323 281.084 88.753 280.97C89.35 277.89 90.5717 274.965 92.3425 272.377C93.836 270.147 95.5833 268.098 97.5493 266.273C99.1255 264.75 100.947 263.506 102.936 262.591C104.844 261.745 106.94 261.417 109.014 261.64C111.517 261.925 113.925 262.765 116.064 264.099C118.959 265.818 121.531 268.031 123.664 270.638C125.496 272.804 126.983 275.241 128.073 277.862C128.085 277.893 128.096 277.925 128.106 277.959L128.138 277.96C129.328 275.086 130.372 272.162 130.922 269.089C131.456 266.104 131.906 263.104 132.395 260.111C132.877 257.164 133.374 254.219 133.787 251.261C134.243 247.997 134.665 244.728 135.055 241.455C135.332 239.136 135.444 236.825 134.999 234.509C134.304 230.887 132.726 227.796 129.763 225.504C129.154 225.032 129.106 224.722 129.512 224.038C131.544 220.558 133.36 216.955 134.948 213.25C137.473 207.458 139.695 201.561 140.48 195.232C140.876 192.497 140.832 189.715 140.348 186.994C139.364 181.996 135.544 178.086 130.674 177.21C127.845 176.701 125.332 177.388 123.296 179.505C121.761 181.134 120.561 183.049 119.761 185.141C117.317 191.278 116.217 197.712 115.608 204.249C115.379 206.711 115.184 209.177 114.977 211.641L114.996 211.634L115.123 211.722L115.142 211.714C115.192 211.693 115.241 211.674 115.291 211.659C115.76 211.51 116.247 211.425 116.738 211.406L117.363 211.388L117.161 211.981C117.064 212.253 116.937 212.514 116.782 212.758C116.494 213.239 116.288 213.766 116.172 214.315C116.028 214.905 116.04 215.523 116.207 216.107C116.219 216.148 116.235 216.188 116.256 216.225C116.267 216.219 116.314 216.212 116.397 216.183C116.532 216.131 116.656 216.053 116.762 215.954C117.173 215.584 117.469 215.103 117.614 214.569C117.901 213.428 118.022 212.251 117.973 211.075L117.993 208.231L118.82 210.737C118.89 210.949 118.978 211.168 119.067 211.393C119.077 211.416 119.086 211.44 119.095 211.463C119.075 210.526 118.997 209.59 118.956 208.653C118.915 207.714 118.969 206.778 119.005 205.839C119.179 201.3 119.651 196.799 120.883 192.414C121.682 189.574 122.743 186.829 124.576 184.473C125.574 183.191 126.804 182.14 128.447 181.8C130.588 181.356 132.531 181.966 134.247 183.232C135.857 184.418 136.646 186.159 137.107 188.053C137.528 189.994 137.57 191.998 137.229 193.955C136.575 198.443 135.356 202.83 133.599 207.01C131.662 211.745 129.142 216.218 126.097 220.326C125.255 221.466 124.291 222.51 123.221 223.439C122.465 224.084 122.023 224.031 121.534 223.17C120.845 221.905 120.331 220.551 120.007 219.147L119.933 219.116C119.905 219.174 119.877 219.244 119.844 219.328C119.789 219.482 119.718 219.629 119.632 219.769C119.592 219.82 119.571 219.884 119.572 219.95C119.574 220.015 119.598 220.078 119.641 220.127C120.511 221.598 120.503 223.162 120.381 224.497C120.25 225.617 120.006 226.721 119.652 227.792L120.501 230.083L118.884 228.143C118.84 228.091 118.808 228.029 118.788 227.963C118.769 227.897 118.764 227.828 118.772 227.76C118.707 226.867 118.537 225.985 118.265 225.132C118.132 224.724 117.93 224.341 117.67 223.999C117.691 225.33 117.502 226.655 117.11 227.927C116.77 229.056 116.369 230.167 115.907 231.252L115.706 231.752L115.331 231.62C115.279 231.731 115.227 231.842 115.174 231.953C115.189 231.83 115.208 231.706 115.226 231.583L114.888 231.464C115.247 230.283 115.13 228.977 114.521 227.352C113.881 225.726 112.889 224.263 111.618 223.067C111.712 223.898 111.705 224.738 111.597 225.567C111.303 227.474 110.517 229.296 109.125 231.302C109.029 231.47 108.881 231.602 108.703 231.676L107.997 231.955L108.116 231.204C108.175 230.908 108.198 230.607 108.185 230.306C107.968 228.418 107.45 226.576 106.65 224.853C106.643 224.836 106.634 224.819 106.625 224.803C106.596 224.813 106.568 224.826 106.541 224.842C106.249 225.017 106.009 225.268 105.848 225.57C105.53 226.135 105.307 226.749 105.188 227.386C104.951 228.56 104.795 229.749 104.72 230.944C104.653 231.852 104.654 232.732 104.663 233.474L104.668 233.872L104.577 233.882L104.578 233.885L104.323 233.91C104.321 234.178 104.318 234.445 104.316 234.712C104.218 234.455 104.133 234.196 104.044 233.938L103.592 233.983L103.483 233.648C102.713 231.294 102.308 228.837 102.28 226.36C101.919 227.378 101.763 228.458 101.824 229.536L101.862 230.283L102.021 231.964L101.939 231.763L101.951 231.988L100.789 229.257C100.639 228.908 100.488 228.559 100.347 228.206C99.8016 226.863 99.4248 225.457 99.2254 224.021C99.1231 223.413 99.1457 222.791 99.2919 222.192C99.3021 222.162 99.3077 222.13 99.3084 222.098C99.3059 222.098 99.2902 222.081 99.2517 222.056C98.7251 221.707 98.3018 221.222 98.0257 220.653C97.5831 219.787 97.2306 218.878 96.9738 217.94C96.6592 219.779 96.0474 221.554 95.1625 223.195C94.6792 224.057 94.2429 224.089 93.4796 223.425C91.4717 221.679 89.947 219.542 88.5245 217.32C85.5477 212.735 83.1831 207.779 81.4912 202.578C80.5709 199.777 79.902 196.9 79.4925 193.98C79.3266 192.917 79.2444 191.843 79.2464 190.767C79.2658 188.82 79.7747 186.91 80.726 185.212C81.8273 183.289 83.5747 182.238 85.6972 181.795C88.6541 181.177 90.7615 182.574 92.4076 184.825C94.1456 187.201 95.145 189.937 95.9285 192.751C96.5504 195.094 96.9899 197.483 97.2429 199.895C97.4889 201.987 97.643 204.083 97.7237 206.19C97.7599 207.135 97.7468 208.076 97.7279 209.018C97.8476 208.694 97.9693 208.371 98.093 208.049L99.3342 204.792L99.1284 207.718C99.0741 208.767 99.1013 209.818 99.2097 210.863C99.27 211.622 99.3848 212.377 99.5532 213.12C99.9102 211.662 100.378 210.233 100.952 208.847L101.308 206.994L101.414 207.382C101.181 204.201 100.906 201.025 100.367 197.877C99.7596 194.326 99.1168 190.783 97.9638 187.358C97.133 184.708 95.825 182.233 94.1046 180.056C91.8645 177.323 88.6031 176.361 85.2334 177.422C82.3941 178.315 79.9767 179.806 78.3405 182.373C76.5296 185.214 75.9696 188.398 76.0013 191.69C76.0295 194.625 76.5651 197.506 77.2556 200.355C78.3977 205.069 80.1741 209.552 82.1579 213.961C83.8696 217.765 85.8066 221.452 87.8566 225.081ZM111.719 246.689C112.474 243.69 114.071 240.97 116.322 238.852C117.595 237.625 119.265 236.894 121.03 236.793C122.032 236.734 123.03 236.976 123.894 237.489C126.79 239.19 128.781 241.61 129.643 244.89C129.929 245.88 129.944 246.929 129.686 247.927C129.428 248.924 128.908 249.834 128.179 250.561C125.751 253.191 122.506 254.919 118.974 255.467C118.139 255.565 117.3 255.619 116.459 255.626C115.859 255.672 115.255 255.664 114.656 255.602C114.154 255.513 113.684 255.299 113.287 254.978C112.891 254.658 112.583 254.242 112.391 253.769C111.299 251.574 111.059 249.051 111.719 246.689ZM91.5393 238.024C92.5718 237.265 93.7948 236.81 95.0712 236.708C95.9184 236.67 96.7602 236.86 97.5086 237.26C101.017 239.053 103.243 241.898 104.332 245.663C104.75 246.951 104.972 248.294 104.99 249.649C104.993 251.021 104.678 252.375 104.072 253.604C103.803 254.258 103.338 254.81 102.74 255.185C102.143 255.559 101.443 255.737 100.74 255.693C96.2264 255.65 92.1447 254.419 88.8177 251.207C87.7663 250.192 86.899 249.049 86.5805 247.572C86.3783 246.651 86.4208 245.693 86.7036 244.794C87.49 242.047 89.198 239.656 91.5393 238.024Z" fill="white"/>
<path d="M127.963 278.387C128.608 280.679 128.727 282.963 127.829 285.222C126.982 287.352 125.548 289.053 123.824 290.506C120.907 292.963 117.273 294.406 113.468 294.618C111.799 294.755 110.124 294.794 108.45 294.733C104.555 294.547 100.656 294.325 96.9031 293.109C94.8146 292.432 92.904 291.45 91.3846 289.809C89.8808 288.184 89.1507 286.234 88.9165 284.061C88.8599 283.536 88.9348 282.996 88.7539 282.484C88.7121 282.63 88.6703 282.776 88.5978 283.029C88.4997 282.797 88.4034 282.571 88.307 282.346L88.2637 282.399L88.3454 282.63C88.4289 282.923 88.466 283.227 88.4555 283.532C88.4602 283.724 88.4648 283.917 88.4856 284.108C88.749 286.551 89.593 288.512 91.0667 290.104C92.4824 291.634 94.2945 292.72 96.7698 293.522C100.419 294.705 104.055 294.959 108.43 295.167C108.917 295.19 109.404 295.2 109.882 295.2C111.211 295.2 112.474 295.125 113.499 295.051C117.394 294.828 121.113 293.35 124.103 290.838C126.085 289.169 127.436 287.384 128.231 285.383C129.079 283.253 129.128 280.925 128.381 278.269L128.296 277.97L128.138 277.961C128.08 278.103 128.022 278.245 127.963 278.387L127.963 278.387Z" fill="white"/>
<path d="M104.149 290.97C106.828 291.965 109.74 292.142 112.519 291.48C115.699 290.707 118.518 288.863 120.502 286.255C121.03 285.673 121.462 285.01 121.781 284.291C121.65 284.299 121.526 284.358 121.437 284.455C120.325 285.306 119.167 286.094 117.968 286.815C114.148 289.085 110.082 289.847 105.715 288.88C102.61 288.193 99.7543 286.9 96.9884 285.375C96.4445 285.075 95.9038 284.769 95.3354 284.451C95.3334 284.514 95.3456 284.577 95.3712 284.634C95.3969 284.692 95.4352 284.743 95.4833 284.784C97.7177 287.639 100.727 289.787 104.149 290.97ZM105.621 289.305C109.976 290.268 114.205 289.557 118.189 287.189C118.871 286.783 119.564 286.335 120.284 285.832L120.163 285.984C118.244 288.522 115.506 290.315 112.417 291.058C109.72 291.706 106.891 291.533 104.293 290.56C101.532 289.601 99.0374 287.999 97.0148 285.885C100.205 287.624 102.946 288.713 105.621 289.305ZM128.071 277.869C126.981 275.247 125.494 272.811 123.662 270.645C121.529 268.037 118.957 265.824 116.062 264.106C113.923 262.772 111.515 261.932 109.012 261.646C106.938 261.423 104.842 261.751 102.934 262.597C100.945 263.512 99.1234 264.757 97.5472 266.279C95.5812 268.104 93.8339 270.153 92.3404 272.383C90.5696 274.971 89.3479 277.896 88.7509 280.977C88.7302 281.09 88.7137 281.205 88.6976 281.321C88.6872 281.639 88.5899 281.948 88.4164 282.215L88.3047 282.351C88.4011 282.577 88.4974 282.803 88.5955 283.034C88.668 282.782 88.7098 282.636 88.7517 282.49C89.0911 280.982 89.3456 279.454 89.8701 277.99C90.845 275.294 92.2588 272.779 94.0541 270.546C95.9756 268.132 98.0732 265.891 100.667 264.177C102.389 262.98 104.374 262.218 106.452 261.957C107.873 261.812 109.307 261.907 110.696 262.238C113.814 262.966 116.503 264.536 118.982 266.492C122.532 269.293 125.392 272.874 127.343 276.959C127.57 277.427 127.756 277.914 127.961 278.392C128.02 278.251 128.077 278.109 128.136 277.967L128.104 277.965C128.094 277.931 128.083 277.899 128.071 277.869Z" fill="white"/>
<path d="M91.3826 289.808C92.9019 291.45 94.8126 292.432 96.9011 293.109C100.654 294.325 104.553 294.547 108.448 294.732C110.122 294.794 111.797 294.755 113.466 294.617C117.271 294.406 120.905 292.963 123.822 290.506C125.546 289.053 126.98 287.352 127.827 285.222C128.725 282.963 128.606 280.679 127.961 278.387V278.386C127.733 278.374 127.725 278.165 127.669 278.025C126.595 275.445 125.13 273.047 123.327 270.914C121.228 268.344 118.694 266.164 115.841 264.474C113.755 263.175 111.409 262.355 108.969 262.073C106.97 261.855 104.949 262.171 103.111 262.989C101.166 263.884 99.3849 265.102 97.8436 266.591C95.9009 268.392 94.1753 270.415 92.7021 272.618C90.9678 275.159 89.7686 278.028 89.1778 281.05C89.0874 281.537 89.0935 282.067 88.752 282.484C88.9328 282.996 88.8579 283.535 88.9145 284.061C89.1487 286.234 89.8788 288.184 91.3826 289.808ZM89.5571 281.435C89.5711 281.332 89.5855 281.23 89.6041 281.129C90.1801 278.164 91.3574 275.349 93.0631 272.859C94.5194 270.685 96.2229 268.688 98.1395 266.908C99.6455 265.452 101.386 264.262 103.287 263.386C105.057 262.601 107.002 262.297 108.926 262.505C111.303 262.779 113.589 263.579 115.619 264.848C118.427 266.514 120.923 268.66 122.992 271.19C124.767 273.287 126.209 275.647 127.266 278.186C127.273 278.203 127.278 278.221 127.283 278.24C127.329 278.432 127.442 278.601 127.602 278.718C128.234 281.094 128.175 283.171 127.424 285.061C126.682 286.926 125.413 288.598 123.543 290.173C120.692 292.565 117.147 293.972 113.435 294.184C111.783 294.319 110.125 294.358 108.469 294.298C104.16 294.093 100.582 293.845 97.0346 292.695C94.7063 291.941 93.0115 290.929 91.7008 289.513C90.3588 288.063 89.5884 286.265 89.3458 284.014C89.328 283.848 89.3246 283.68 89.3208 283.512C89.325 283.193 89.2936 282.875 89.2272 282.562C89.4148 282.214 89.5272 281.83 89.5571 281.435Z" fill="white"/>
<path d="M104.009 291.372C105.686 291.977 107.454 292.291 109.237 292.3C110.378 292.3 111.515 292.164 112.624 291.894C115.896 291.094 118.797 289.197 120.845 286.517L120.994 286.33C121.493 285.768 121.897 285.129 122.191 284.437L122.407 283.857L121.79 283.849H121.779C121.555 283.855 121.341 283.944 121.179 284.101C120.08 284.942 118.936 285.72 117.75 286.433C113.961 288.685 109.944 289.363 105.811 288.448C103.154 287.86 100.417 286.76 97.2011 284.986C96.8412 284.788 96.4825 284.586 96.1166 284.381L94.9388 283.723L94.9054 284.423C94.8994 284.538 94.9179 284.653 94.9595 284.76C95.0011 284.867 95.0649 284.965 95.1468 285.046C97.4349 287.962 100.511 290.158 104.009 291.372ZM96.9917 285.367C99.7576 286.892 102.613 288.186 105.718 288.873C110.085 289.839 114.152 289.077 117.971 286.807C119.17 286.086 120.329 285.298 121.44 284.448C121.53 284.35 121.653 284.291 121.785 284.284C121.465 285.002 121.033 285.665 120.506 286.247C118.521 288.855 115.703 290.7 112.522 291.472C109.743 292.134 106.831 291.957 104.153 290.962C100.73 289.779 97.7211 287.631 95.4866 284.776C95.4385 284.735 95.4002 284.684 95.3746 284.627C95.349 284.569 95.3367 284.506 95.3387 284.443C95.9071 284.761 96.4478 285.067 96.9917 285.367Z" fill="white"/>
<path d="M112.348 284.348C112.54 284.438 112.749 284.485 112.96 284.485C113.178 284.483 113.392 284.437 113.592 284.35C115.454 283.594 117.239 282.661 118.924 281.563C119.632 281.096 120.311 280.586 120.958 280.035C121.977 279.196 122.692 278.043 122.992 276.756L123.009 276.681C123.157 276.03 123.324 275.291 123.03 274.546C122.46 273.1 120.346 271.664 118.763 271.647C118.747 271.647 118.73 271.646 118.714 271.646C116.553 271.646 115.023 273.178 114.901 275.471C114.816 277.065 114.341 278.614 113.52 279.983L113.469 280.072C113.448 280.108 113.428 280.144 113.406 280.18C113.093 280.684 112.751 281.186 112.421 281.672C112.222 281.965 112.023 282.258 111.828 282.554C111.719 282.698 111.644 282.864 111.607 283.041C111.571 283.219 111.575 283.402 111.618 283.577C111.675 283.752 111.77 283.912 111.896 284.046C112.023 284.179 112.177 284.282 112.348 284.348ZM112.19 282.793C112.715 281.997 113.27 281.22 113.773 280.41C113.816 280.342 113.853 280.273 113.893 280.204C114.752 278.777 115.247 277.159 115.334 275.494C115.445 273.411 116.822 272.061 118.759 272.082C120.146 272.097 122.117 273.415 122.627 274.706C122.881 275.351 122.715 276.016 122.569 276.66C122.289 277.856 121.624 278.926 120.676 279.705C120.042 280.244 119.377 280.743 118.684 281.201C117.021 282.281 115.26 283.202 113.424 283.95C113.284 284.015 113.131 284.049 112.977 284.05C112.823 284.05 112.67 284.017 112.529 283.953C111.996 283.706 111.865 283.286 112.19 282.793V282.793ZM97.8 280.523C98.1024 280.766 98.4331 281.011 98.8405 281.292C100.489 282.37 102.218 283.319 104.013 284.13C104.327 284.272 104.658 284.374 104.997 284.433C105.087 284.451 105.178 284.46 105.269 284.46C105.488 284.456 105.703 284.404 105.898 284.305C106.093 284.207 106.264 284.066 106.397 283.892C106.72 283.496 106.678 283.031 106.273 282.509C106.155 282.345 106.051 282.17 105.964 281.987C105.849 281.744 105.707 281.515 105.541 281.304C105.16 280.851 104.823 280.363 104.534 279.846C103.772 278.46 103.344 276.913 103.286 275.331C103.168 273.198 101.586 271.649 99.5257 271.646H99.5219C98.3877 271.649 97.2985 272.091 96.4821 272.88C95.7135 273.551 95.2183 274.482 95.091 275.496C94.9638 276.51 95.2134 277.535 95.7923 278.376C96.3447 279.193 97.0222 279.917 97.8 280.523ZM96.7753 273.2C97.5131 272.485 98.4986 272.084 99.5252 272.081C100.398 272.079 101.236 272.422 101.859 273.034C102.482 273.647 102.839 274.481 102.853 275.356C102.917 277.004 103.364 278.614 104.157 280.059C104.459 280.6 104.812 281.11 105.21 281.584C105.495 281.923 105.64 282.402 105.931 282.776C106.116 283.014 106.307 283.316 106.061 283.617C105.951 283.768 105.8 283.885 105.627 283.954C105.453 284.023 105.264 284.041 105.08 284.007C104.777 283.954 104.482 283.864 104.201 283.738C102.426 282.938 100.716 282.001 99.0868 280.934C98.7416 280.696 98.401 280.449 98.0714 280.184C97.3293 279.607 96.6826 278.916 96.1549 278.137C95.6304 277.383 95.4035 276.461 95.5181 275.549C95.6327 274.637 96.0807 273.8 96.7753 273.2Z" fill="white"/>
<path d="M92.7021 272.612C94.1753 270.409 95.9009 268.386 97.8436 266.585C99.3849 265.096 101.166 263.878 103.111 262.983C104.949 262.165 106.97 261.849 108.969 262.067C111.409 262.349 113.755 263.169 115.841 264.468C118.694 266.158 121.228 268.338 123.327 270.908C125.13 273.041 126.595 275.439 127.669 278.019C127.725 278.16 127.733 278.368 127.961 278.381C127.756 277.903 127.57 277.415 127.343 276.947C125.393 272.863 122.532 269.282 118.983 266.48C116.503 264.525 113.814 262.955 110.696 262.226C109.307 261.895 107.873 261.8 106.453 261.945C104.374 262.206 102.389 262.968 100.668 264.165C98.0735 265.879 95.9759 268.12 94.0544 270.535C92.2591 272.767 90.8453 275.283 89.8704 277.979C89.3459 279.442 89.0914 280.97 88.752 282.479C89.0935 282.061 89.0874 281.531 89.1778 281.044C89.7686 278.023 90.9678 275.154 92.7021 272.612ZM119.096 212.241C119.151 212.268 119.199 212.308 119.237 212.356C119.274 212.405 119.3 212.462 119.313 212.522C119.781 214.049 120.225 215.584 120.157 217.204C120.138 217.678 120.191 218.191 119.84 218.599C120.087 218.701 120.079 218.954 120.134 219.159C120.136 219.169 120.139 219.179 120.142 219.189L120.261 218.702C120.707 216.87 120.356 215.109 119.955 213.627C119.861 213.283 119.758 212.941 119.656 212.6L119.404 211.792L119.25 211.795C119.236 211.947 119.195 212.096 119.127 212.233C119.117 212.233 119.106 212.234 119.096 212.233L119.096 212.241L119.096 212.241ZM97.2862 209.814C96.7421 211.691 96.5106 213.645 96.601 215.597C96.62 215.899 96.6522 216.2 96.6852 216.5L96.7572 217.203L96.7984 217.213C96.7782 217.122 96.7526 217.034 96.734 216.943L96.7263 216.89L96.6751 216.297L96.9504 216.358C96.929 216.206 96.9276 216.05 96.92 215.899C96.799 214.076 96.9716 212.245 97.431 210.477C97.4861 210.276 97.5055 210.055 97.7 209.922C97.4965 209.708 97.5671 209.447 97.5942 209.202L97.4814 209.089L97.2862 209.814ZM110.882 209.696L110.882 209.696C111.105 209.694 111.319 209.779 111.481 209.933C111.405 209.808 111.335 209.681 111.254 209.559L110.289 208.106L110.412 209.344C110.428 209.35 110.445 209.355 110.461 209.361C110.634 209.422 110.783 209.54 110.882 209.696ZM113.468 213.141C113.887 212.709 114.385 212.361 114.935 212.117H114.935C114.949 211.956 114.962 211.796 114.975 211.636L114.78 211.711C114.238 211.942 113.744 212.273 113.325 212.687C113.339 212.74 113.355 212.791 113.368 212.844C113.391 212.946 113.376 213.063 113.468 213.141ZM101.472 208.709L101.472 208.709L101.472 208.709C101.595 209.754 101.658 210.806 101.661 211.858C101.867 212.699 102.19 213.506 102.621 214.256C103.158 212.821 103.598 211.442 103.2 209.882C103.713 210.206 103.957 210.686 104.337 211.031C104.428 210.915 104.524 210.808 104.62 210.701C104.496 210.58 104.379 210.451 104.271 210.314C104.037 210.003 103.753 209.733 103.431 209.515L102.51 208.932L102.78 209.99C103.014 211.044 102.934 212.143 102.551 213.152C102.357 212.699 102.2 212.23 102.082 211.752L102.063 211.677L102.02 211.614C101.853 211.306 101.769 210.959 101.778 210.609C101.767 210.453 101.754 210.298 101.733 210.146C101.673 209.84 101.687 209.525 101.774 209.226C101.826 209.088 101.834 208.937 101.797 208.794L101.412 207.377C101.428 207.591 101.443 207.804 101.459 208.018C101.475 208.247 101.468 208.479 101.472 208.709Z" fill="white"/>
<path d="M119.093 212.249L119.094 212.242L119.09 212.242L119.093 212.249L119.093 212.249ZM114.85 227.355C114.087 225.446 112.887 223.743 111.347 222.384C111.328 222.367 111.292 222.371 111.21 222.353C111.878 225.921 110.528 228.873 108.5 231.642C108.452 231.613 108.415 231.569 108.396 231.516C108.377 231.463 108.378 231.405 108.397 231.353C108.668 229.419 108.008 227.657 107.396 225.888C107.265 225.51 107.078 225.152 106.953 224.773C106.822 224.38 106.625 224.403 106.331 224.595C105.863 224.927 105.509 225.396 105.318 225.938C104.89 227.106 104.623 228.326 104.525 229.567C104.396 230.736 104.331 231.912 104.329 233.088C104.358 233.183 104.383 233.279 104.413 233.375L104.573 233.884L104.664 233.875L104.659 233.477C104.649 232.735 104.649 231.855 104.715 230.947C104.791 229.752 104.947 228.563 105.183 227.389C105.303 226.751 105.526 226.138 105.844 225.572C106.005 225.271 106.244 225.02 106.537 224.844C106.563 224.829 106.591 224.816 106.62 224.805C106.63 224.822 106.638 224.839 106.646 224.856C107.446 226.579 107.964 228.421 108.18 230.309C108.194 230.61 108.171 230.911 108.111 231.206L107.992 231.958L108.698 231.679C108.876 231.605 109.025 231.473 109.12 231.305C110.513 229.299 111.298 227.477 111.593 225.57C111.701 224.741 111.708 223.901 111.614 223.07C112.885 224.266 113.876 225.729 114.517 227.355C115.126 228.98 115.242 230.286 114.884 231.467L115.222 231.586C115.326 231.049 115.38 230.505 115.384 229.958C115.35 229.067 115.17 228.187 114.85 227.355ZM119.837 218.608C119.658 218.98 119.487 219.354 119.299 219.721C119.256 219.791 119.234 219.873 119.238 219.956C119.242 220.039 119.27 220.119 119.32 220.185C120.149 221.532 120.218 223.006 120.063 224.532C119.926 225.671 119.668 226.792 119.293 227.875H119.293C119.285 227.96 119.278 228.079 119.18 228.074C119.059 228.068 119.127 227.944 119.113 227.871C118.897 226.479 118.813 225.05 117.936 223.853C117.811 223.628 117.603 223.461 117.356 223.389C117.54 226.368 116.547 229.026 115.327 231.623L115.701 231.755L115.903 231.255C116.365 230.17 116.766 229.059 117.106 227.929C117.498 226.658 117.687 225.333 117.666 224.002C117.926 224.344 118.127 224.727 118.261 225.135C118.532 225.988 118.703 226.87 118.768 227.763C118.759 227.831 118.765 227.9 118.784 227.966C118.803 228.032 118.836 228.094 118.88 228.146L120.497 230.086L119.648 227.795C120.002 226.724 120.246 225.62 120.376 224.5C120.499 223.164 120.507 221.601 119.637 220.13C119.594 220.081 119.57 220.018 119.568 219.952C119.567 219.887 119.588 219.823 119.628 219.772C119.714 219.632 119.785 219.484 119.84 219.33C119.872 219.247 119.9 219.177 119.929 219.119L120.002 219.15C119.982 219.07 119.961 218.991 119.941 218.91C119.916 218.807 119.872 218.709 119.837 218.608ZM100.948 208.849C100.373 210.236 99.9058 211.665 99.5488 213.123C99.3804 212.38 99.2657 211.625 99.2054 210.865C99.0969 209.821 99.0697 208.769 99.1241 207.721L99.3299 204.795L98.0886 208.052C97.9649 208.374 97.8432 208.697 97.7235 209.021C97.7175 209.322 97.7114 209.623 97.7051 209.924C98.0362 209.055 98.3673 208.185 98.6984 207.316C98.7717 209.652 98.8449 211.964 99.5794 214.209C99.9831 212.357 100.556 210.546 101.29 208.799L101.29 208.799C101.35 208.772 101.409 208.745 101.469 208.718L101.469 208.718C101.466 208.487 101.473 208.256 101.456 208.026C101.441 207.812 101.425 207.599 101.409 207.385L101.304 206.997L100.948 208.849Z" fill="white"/>
<path d="M114.93 212.127C115.454 211.911 116.003 211.766 116.565 211.693C116.678 211.673 116.84 211.622 116.905 211.736C116.962 211.836 116.883 211.971 116.816 212.077C116.352 212.767 116.022 213.538 115.844 214.351C115.722 214.971 115.74 215.61 115.894 216.223C115.977 216.541 116.152 216.643 116.475 216.494C117.268 216.128 117.632 215.442 117.902 214.666C118.205 213.796 118.193 212.886 118.258 211.988C118.295 211.487 118.265 210.981 118.346 210.455C118.593 211.052 118.84 211.648 119.088 212.244L119.091 212.244C119.097 211.985 119.093 211.727 119.088 211.468C119.079 211.445 119.069 211.421 119.06 211.398C118.97 211.173 118.882 210.954 118.812 210.742L117.986 208.236L117.966 211.08C118.015 212.256 117.894 213.433 117.606 214.574C117.462 215.108 117.166 215.589 116.755 215.959C116.649 216.058 116.525 216.136 116.39 216.189C116.307 216.217 116.26 216.224 116.249 216.231C116.228 216.193 116.211 216.153 116.2 216.112C116.033 215.528 116.021 214.91 116.164 214.32C116.281 213.771 116.487 213.244 116.775 212.763C116.93 212.519 117.057 212.258 117.154 211.986L117.356 211.393L116.731 211.411C116.239 211.43 115.753 211.515 115.284 211.664C115.234 211.679 115.184 211.698 115.134 211.719L115.115 211.727L114.989 211.639L114.97 211.646C114.956 211.806 114.943 211.967 114.93 212.127H114.93Z" fill="white"/>
<path d="M101.368 209.079C101.389 209.026 101.394 208.967 101.381 208.911C101.377 208.928 101.374 208.946 101.371 208.964C100.706 210.537 100.195 212.172 99.8455 213.845C99.8147 214.012 99.7843 214.238 99.6005 214.248C99.383 214.26 99.3403 214.016 99.2926 213.847C99.0276 212.882 98.8553 211.893 98.7782 210.895C98.6675 209.828 98.6401 208.755 98.6962 207.684C98.4409 208.354 98.1981 208.968 97.9779 209.59C97.9284 209.73 97.8974 209.896 97.7116 209.935L97.7067 209.929C97.1751 211.76 96.9484 213.667 97.0359 215.572C97.053 215.847 97.0817 216.121 97.1115 216.395L97.2552 216.426C97.3804 216.452 97.4953 216.515 97.5856 216.605C97.5787 216.599 97.5751 216.59 97.5677 216.583L97.5491 216.408C97.5181 216.121 97.4868 215.833 97.4686 215.545C97.3852 213.756 97.5891 211.966 98.0725 210.242C98.1565 210.179 98.2261 210.099 98.2766 210.007C98.2965 210.32 98.3207 210.629 98.3461 210.931C98.4247 211.957 98.6019 212.973 98.8754 213.965L98.8873 214.009C98.9339 214.183 99.0842 214.719 99.625 214.682C100.14 214.653 100.236 214.124 100.272 213.924C100.445 213.022 100.682 212.134 100.98 211.266C101.024 211.539 101.119 211.8 101.261 212.036C101.475 212.892 101.807 213.712 102.248 214.476L102.707 215.272L103.029 214.411C103.483 213.359 103.74 212.233 103.789 211.089C103.839 211.146 103.891 211.202 103.946 211.257C103.994 211.388 104.066 211.507 104.158 211.611C104.176 211.633 104.194 211.655 104.211 211.678C104.751 212.408 105.214 213.192 105.593 214.018C105.691 214.248 105.786 214.478 105.896 214.745L106.599 216.445L106.887 215.07C107.117 213.932 107.456 212.818 107.899 211.744C108.127 212.989 108.524 214.196 109.078 215.333C109.117 215.45 109.188 215.553 109.283 215.632C109.377 215.711 109.491 215.762 109.613 215.779C109.73 215.78 109.845 215.747 109.945 215.685C110.045 215.624 110.125 215.536 110.178 215.431C110.926 214.359 111.385 213.112 111.511 211.81C111.879 212.601 112.187 213.412 112.476 214.2L112.774 215.015L113.804 213.426C114.138 213.09 114.522 212.808 114.942 212.588C115.123 212.62 115.308 212.594 115.474 212.514C115.495 212.504 115.517 212.496 115.539 212.488C115.705 212.439 115.858 212.398 116.004 212.367C115.684 212.914 115.455 213.51 115.323 214.131C115.151 214.866 115.17 215.634 115.379 216.359C115.41 216.493 115.468 216.619 115.55 216.729C115.632 216.839 115.737 216.931 115.856 216.998C115.986 217.056 116.127 217.086 116.269 217.087C116.411 217.087 116.551 217.058 116.681 217.001C116.921 216.913 117.142 216.78 117.331 216.608C117.866 216.132 118.252 215.51 118.443 214.819C118.64 214.145 118.759 213.45 118.796 212.748L118.828 212.852C118.928 213.186 119.028 213.52 119.12 213.857C119.479 215.181 119.796 216.739 119.461 218.318C119.265 218.509 119.119 218.746 119.036 219.007C119.003 219.105 118.959 219.199 118.908 219.288C118.778 219.476 118.708 219.698 118.706 219.926C118.704 220.154 118.77 220.377 118.896 220.567C119.639 221.824 119.627 223.217 119.517 224.414C119.476 224.838 119.41 225.26 119.32 225.676C119.253 225.404 119.177 225.133 119.091 224.864C118.929 224.363 118.683 223.893 118.364 223.473L118.334 223.433C118.18 223.223 117.818 222.731 117.248 222.939C116.735 223.128 116.778 223.667 116.796 223.897L116.803 223.992C116.824 225.244 116.646 226.491 116.276 227.686C116.154 228.118 116.014 228.543 115.865 228.962C115.75 228.307 115.573 227.664 115.334 227.043C114.643 225.284 113.569 223.701 112.191 222.409C112.157 222.374 112.124 222.337 112.094 222.298C111.949 222.124 111.564 221.662 111.033 221.938C110.564 222.184 110.675 222.712 110.722 222.938C110.734 222.989 110.744 223.04 110.75 223.092C110.841 223.869 110.838 224.654 110.74 225.431C110.472 227.018 109.885 228.534 109.013 229.885C108.759 228.023 108.23 226.21 107.446 224.503C107.4 224.379 107.329 224.267 107.237 224.174C107.144 224.081 107.033 224.009 106.91 223.962C106.778 223.924 106.639 223.914 106.502 223.934C106.366 223.954 106.236 224.003 106.12 224.078C105.691 224.328 105.339 224.69 105.101 225.126C104.737 225.772 104.48 226.474 104.339 227.202C104.095 228.415 103.933 229.643 103.855 230.877C103.848 230.972 103.842 231.067 103.836 231.161C103.949 231.685 104.082 232.207 104.231 232.727C104.232 232.122 104.243 231.516 104.287 230.909C104.364 229.694 104.523 228.486 104.764 227.293C104.894 226.61 105.134 225.952 105.475 225.346C105.674 224.978 105.97 224.671 106.33 224.458C106.66 224.275 106.899 224.333 107.048 224.677C107.865 226.443 108.394 228.328 108.617 230.262C108.635 230.599 108.61 230.937 108.544 231.268C108.641 231.223 108.721 231.146 108.769 231.05C109.941 229.361 110.851 227.554 111.169 225.497C111.272 224.686 111.276 223.865 111.182 223.053C111.159 222.802 110.996 222.448 111.234 222.324C111.519 222.175 111.701 222.537 111.888 222.72C113.219 223.969 114.257 225.497 114.928 227.196C115.469 228.642 115.745 230.13 115.304 231.587C115.834 230.352 116.297 229.089 116.693 227.805C117.075 226.565 117.259 225.273 117.236 223.976C117.228 223.754 117.154 223.437 117.398 223.348C117.681 223.244 117.86 223.523 118.016 223.733C118.306 224.114 118.53 224.541 118.678 224.996C118.965 225.891 119.142 226.817 119.206 227.755C119.211 227.789 119.189 227.828 119.217 227.861C119.207 227.819 119.207 227.775 119.216 227.733C119.572 226.668 119.818 225.569 119.949 224.453C120.08 223.024 120.025 221.625 119.269 220.346C119.184 220.226 119.139 220.083 119.14 219.936C119.14 219.789 119.186 219.646 119.27 219.527C119.468 219.224 119.489 218.817 119.816 218.59C119.825 218.594 119.833 218.597 119.841 218.601C120.244 216.95 119.971 215.341 119.538 213.743C119.402 213.24 119.245 212.742 119.098 212.243L119.095 212.235C118.915 212.239 118.871 212.081 118.823 211.954C118.682 211.581 118.522 211.214 118.408 210.87C118.399 212.131 118.413 213.43 118.028 214.692C117.86 215.305 117.519 215.856 117.046 216.279C116.899 216.415 116.726 216.52 116.539 216.591C116.139 216.73 115.918 216.638 115.793 216.231C115.606 215.576 115.59 214.884 115.747 214.221C115.872 213.632 116.092 213.067 116.4 212.549C116.543 212.326 116.661 212.087 116.751 211.837C116.297 211.855 115.848 211.934 115.415 212.072C115.261 212.118 115.109 212.239 114.937 212.118H114.937C114.387 212.363 113.889 212.711 113.47 213.143C113.289 213.423 113.108 213.702 112.883 214.05C112.39 212.56 111.723 211.134 110.896 209.802C111.007 210.409 111.071 211.023 111.088 211.64C110.988 212.918 110.548 214.145 109.814 215.194C109.626 215.484 109.547 215.3 109.456 215.119C108.843 213.844 108.427 212.484 108.22 211.085C108.181 210.851 108.142 210.617 108.092 210.31C107.333 211.783 106.785 213.356 106.463 214.981C106.274 214.527 106.137 214.186 105.992 213.847C105.602 212.993 105.124 212.182 104.565 211.427C104.478 211.304 104.353 211.199 104.339 211.033V211.033C103.959 210.688 103.715 210.208 103.202 209.884C103.6 211.444 103.16 212.823 102.623 214.258C102.192 213.508 101.869 212.701 101.663 211.86C101.323 211.359 101.384 210.764 101.306 210.208C101.234 209.832 101.256 209.445 101.368 209.079ZM104.246 234.458C104.243 234.277 104.24 234.096 104.237 233.915L104.134 233.926C104.197 234.097 104.235 234.276 104.246 234.458Z" fill="white"/>
<path d="M97.7101 209.94C97.8959 209.901 97.9268 209.735 97.9763 209.595C98.1966 208.973 98.4394 208.359 98.6947 207.689C98.6385 208.76 98.6659 209.833 98.7766 210.9C98.8538 211.898 99.026 212.887 99.291 213.852C99.3387 214.021 99.3815 214.265 99.5989 214.253C99.7827 214.243 99.8131 214.017 99.8439 213.85C100.193 212.177 100.704 210.542 101.369 208.969C101.373 208.951 101.376 208.933 101.379 208.916C101.366 208.867 101.335 208.825 101.293 208.798L101.293 208.798L101.293 208.798C100.559 210.545 99.9861 212.356 99.5824 214.208C98.8479 211.963 98.7747 209.65 98.7014 207.314C98.3703 208.184 98.0392 209.054 97.7081 209.923L97.7051 209.934L97.7101 209.94ZM96.9487 217.253L96.7988 217.22C96.8323 217.37 96.8679 217.519 96.9056 217.667C96.9255 217.572 96.9489 217.478 96.9719 217.384C96.9706 217.378 96.9686 217.372 96.9673 217.366C96.9597 217.33 96.9542 217.293 96.9487 217.253ZM99.8216 226.236C99.501 225.003 99.1373 223.607 99.4189 222.124C99.4257 222.088 99.4333 222.048 99.2757 221.931C98.6931 221.479 98.2363 220.885 97.9494 220.205C97.5565 219.38 97.249 218.518 97.0319 217.63C97.0134 217.735 96.9922 217.838 96.9725 217.941C97.2293 218.88 97.5818 219.789 98.0244 220.655C98.3005 221.224 98.7238 221.708 99.2503 222.057C99.2889 222.082 99.3045 222.099 99.3071 222.1C99.3064 222.132 99.3008 222.164 99.2906 222.194C99.1444 222.793 99.1218 223.415 99.2241 224.023C99.4235 225.459 99.8003 226.865 100.346 228.207C100.486 228.561 100.637 228.91 100.788 229.259L101.95 231.989L101.938 231.765L102.02 231.965L100.791 228.95C100.407 228.068 100.083 227.162 99.8216 226.236ZM104.322 233.912L104.577 233.887L104.576 233.883L104.322 233.909V233.912ZM103.695 233.974L103.588 233.635C102.759 231.02 102.372 228.285 102.442 225.542C101.967 226.645 101.728 227.837 101.743 229.038L102.02 231.965L101.861 230.285L101.823 229.538C101.762 228.459 101.917 227.379 102.279 226.362C102.306 228.838 102.712 231.296 103.482 233.649L103.591 233.984L104.043 233.94L104.043 233.938L103.695 233.974ZM103.834 231.176L103.835 231.167C103.775 230.888 103.719 230.609 103.669 230.329C103.719 230.612 103.773 230.894 103.834 231.176ZM103.353 222.579L102.551 223.88C102.546 223.883 102.541 223.887 102.536 223.889C102.618 223.85 102.708 223.829 102.799 223.827C102.877 223.827 102.955 223.844 103.026 223.877C103.136 223.932 103.225 224.022 103.28 224.132C103.268 224.105 103.254 224.079 103.238 224.054L103.353 222.579Z" fill="white"/>
<path d="M97.1522 216.858C97.0387 216.718 96.9687 216.548 96.9511 216.369L96.6758 216.309L96.727 216.901L96.7346 216.954C96.7533 217.045 96.7789 217.133 96.7991 217.224L96.9489 217.258C96.9544 217.297 96.9599 217.335 96.9676 217.37C96.9689 217.376 96.9708 217.382 96.9722 217.389C97.0144 217.207 97.0675 217.029 97.1311 216.854C97.1386 216.855 97.1452 216.857 97.1522 216.858ZM102.104 226.477C102.195 226.159 102.308 225.848 102.442 225.547C102.372 228.289 102.759 231.024 103.588 233.639L103.695 233.978L104.043 233.942C103.994 233.801 103.94 233.66 103.894 233.519C102.92 230.563 102.542 227.442 102.782 224.337C101.783 225.891 101.296 227.719 101.39 229.564C101.175 229.06 100.952 228.559 100.749 228.051C100.216 226.741 99.8479 225.37 99.654 223.97C99.5587 223.421 99.577 222.859 99.7079 222.318C99.7557 222.205 99.7594 222.079 99.7183 221.964C99.6772 221.849 99.5943 221.753 99.4861 221.697C99.0241 221.388 98.6527 220.961 98.4103 220.46C97.8306 219.326 97.4097 218.116 97.1594 216.867L97.1593 216.867C97.1203 217.124 97.0779 217.38 97.0321 217.635C97.2493 218.522 97.5567 219.385 97.9496 220.209C98.2366 220.889 98.6933 221.484 99.276 221.936C99.4335 222.053 99.4259 222.093 99.4191 222.128C99.1375 223.611 99.5013 225.007 99.8219 226.24C100.083 227.166 100.407 228.073 100.791 228.955L102.02 231.97L101.744 229.042C101.708 228.172 101.83 227.303 102.104 226.477ZM104.332 233.091C104.331 233.219 104.328 233.347 104.327 233.476C104.325 233.622 104.324 233.768 104.322 233.914L104.576 233.887L104.416 233.378C104.386 233.282 104.361 233.186 104.332 233.091Z" fill="white"/>
<path d="M103.836 231.173C103.775 230.891 103.721 230.609 103.67 230.326C103.656 230.248 103.645 230.17 103.632 230.092C103.592 229.853 103.555 229.615 103.522 229.376C103.509 229.278 103.496 229.18 103.484 229.081C103.451 228.82 103.423 228.559 103.399 228.297C103.395 228.244 103.388 228.191 103.384 228.138C103.358 227.829 103.339 227.519 103.326 227.208C103.322 227.12 103.32 227.032 103.317 226.944C103.31 226.708 103.306 226.473 103.305 226.237C103.305 226.144 103.304 226.051 103.305 225.958C103.309 225.644 103.316 225.331 103.332 225.017C103.334 224.961 103.341 224.906 103.347 224.85C103.369 224.7 103.374 224.549 103.362 224.398C103.355 224.326 103.339 224.256 103.313 224.189C103.304 224.168 103.293 224.148 103.281 224.129C103.227 224.019 103.137 223.929 103.027 223.874C102.956 223.841 102.879 223.824 102.8 223.824C102.709 223.826 102.619 223.847 102.537 223.886C102.49 223.907 102.445 223.932 102.403 223.961C102.224 224.098 102.082 224.277 101.991 224.483C101.691 225.039 101.449 225.625 101.271 226.231C101.185 226.532 101.1 226.852 101.03 227.183C100.892 226.8 100.766 226.411 100.662 226.013C100.365 224.87 100.027 223.574 100.272 222.284C100.308 222.08 100.281 221.871 100.196 221.683C100.111 221.495 99.9707 221.337 99.7943 221.23C99.3289 220.864 98.9651 220.383 98.7377 219.836C98.3294 218.99 98.0206 218.1 97.8174 217.183C97.8132 217.163 97.8107 217.142 97.8081 217.121C97.8052 217.099 97.8004 217.068 97.7943 217.034C97.7926 217.025 97.7908 217.017 97.7887 217.007C97.781 216.97 97.7713 216.933 97.7596 216.898C97.7572 216.89 97.7559 216.884 97.7532 216.876C97.7366 216.83 97.7158 216.785 97.6911 216.743C97.6849 216.732 97.6774 216.722 97.6706 216.712C97.6459 216.674 97.6174 216.639 97.5855 216.607C97.4952 216.517 97.3803 216.454 97.255 216.428L97.1113 216.396C97.1278 216.548 97.1447 216.7 97.1598 216.852C97.3836 216.902 97.3603 217.117 97.3929 217.273C97.6041 218.222 97.9232 219.143 98.344 220.019C98.6022 220.632 99.0123 221.169 99.5355 221.579C99.6448 221.638 99.7333 221.73 99.7889 221.841C99.8445 221.953 99.8646 222.079 99.8463 222.202C99.5904 223.548 99.9076 224.836 100.243 226.123C100.534 227.13 100.891 228.116 101.313 229.076C101.271 228.152 101.398 227.228 101.688 226.35C101.858 225.773 102.089 225.215 102.374 224.686C102.434 224.543 102.529 224.417 102.648 224.32C102.805 224.211 102.911 224.245 102.931 224.442C102.934 224.627 102.923 224.812 102.898 224.995C102.755 227.874 103.129 230.755 104.003 233.501C104.078 233.493 104.154 233.486 104.23 233.478C104.227 233.228 104.23 232.979 104.23 232.729C104.082 232.209 103.949 231.687 103.836 231.163L103.836 231.173ZM104.134 233.928L104.237 233.917V233.915L104.133 233.926L104.134 233.928Z" fill="white"/>
<path d="M103.998 233.506C104.037 233.631 104.072 233.757 104.113 233.883C104.119 233.899 104.122 233.915 104.128 233.931L104.232 233.921C104.229 233.775 104.226 233.629 104.224 233.484C104.149 233.491 104.073 233.498 103.998 233.506ZM102.893 225C102.918 224.817 102.929 224.632 102.925 224.447C102.905 224.25 102.8 224.216 102.643 224.325C102.523 224.423 102.429 224.548 102.369 224.691C102.083 225.221 101.853 225.778 101.682 226.356C101.392 227.234 101.265 228.157 101.308 229.081C100.886 228.122 100.528 227.135 100.237 226.128C99.9021 224.842 99.585 223.554 99.8409 222.207C99.8591 222.084 99.839 221.958 99.7834 221.847C99.7278 221.735 99.6394 221.644 99.5301 221.585C99.0069 221.175 98.5967 220.637 98.3385 220.024C97.9177 219.148 97.5986 218.227 97.3874 217.279C97.3548 217.123 97.3781 216.908 97.1543 216.857L97.1551 216.865L97.155 216.865L97.1551 216.865C97.4054 218.115 97.8264 219.324 98.406 220.458C98.6484 220.959 99.0198 221.386 99.4818 221.695C99.59 221.751 99.6729 221.847 99.714 221.962C99.7551 222.077 99.7514 222.203 99.7036 222.316C99.5727 222.857 99.5544 223.419 99.6497 223.968C99.8436 225.369 100.211 226.739 100.744 228.049C100.948 228.557 101.171 229.058 101.385 229.562C101.292 227.717 101.779 225.889 102.778 224.336C102.538 227.44 102.916 230.561 103.89 233.517C103.926 233.513 103.962 233.51 103.998 233.506C103.124 230.76 102.75 227.879 102.893 225ZM115.169 231.957C115.222 231.846 115.274 231.735 115.326 231.624L115.221 231.587C115.202 231.71 115.184 231.834 115.169 231.957Z" fill="white"/>
<path d="M117.358 223.388C117.605 223.46 117.814 223.626 117.938 223.852C118.815 225.049 118.9 226.478 119.115 227.87L119.296 227.874V227.874H119.296C119.671 226.79 119.929 225.67 120.065 224.531C120.22 223.004 120.152 221.531 119.322 220.184C119.273 220.117 119.244 220.038 119.241 219.955C119.237 219.872 119.258 219.79 119.302 219.719C119.489 219.353 119.661 218.978 119.839 218.607L119.839 218.606C119.831 218.603 119.823 218.599 119.814 218.596C119.487 218.823 119.466 219.229 119.268 219.532C119.184 219.652 119.138 219.795 119.138 219.941C119.137 220.088 119.182 220.231 119.267 220.351C120.023 221.63 120.078 223.03 119.947 224.459C119.816 225.574 119.57 226.673 119.214 227.738C119.205 227.781 119.205 227.824 119.215 227.867C119.187 227.833 119.209 227.794 119.204 227.76C119.14 226.822 118.963 225.896 118.676 225.001C118.528 224.546 118.304 224.119 118.014 223.739C117.858 223.529 117.679 223.249 117.396 223.353C117.152 223.442 117.226 223.759 117.234 223.981C117.257 225.278 117.073 226.571 116.691 227.81C116.295 229.095 115.832 230.357 115.302 231.592C115.743 230.135 115.467 228.648 114.926 227.201C114.255 225.502 113.217 223.974 111.886 222.725C111.699 222.542 111.517 222.18 111.232 222.329C110.994 222.453 111.157 222.807 111.18 223.058C111.274 223.871 111.27 224.691 111.167 225.503C110.849 227.559 109.939 229.367 108.767 231.056C108.719 231.152 108.639 231.228 108.542 231.274C108.608 230.943 108.633 230.605 108.615 230.268C108.392 228.334 107.863 226.448 107.046 224.682C106.897 224.339 106.658 224.28 106.328 224.463C105.968 224.676 105.672 224.983 105.473 225.351C105.132 225.957 104.892 226.615 104.762 227.298C104.521 228.491 104.362 229.699 104.285 230.914C104.241 231.521 104.23 232.127 104.229 232.732C104.262 232.85 104.296 232.969 104.332 233.087C104.334 231.91 104.399 230.735 104.527 229.565C104.626 228.325 104.893 227.104 105.32 225.937C105.512 225.395 105.866 224.926 106.334 224.594C106.628 224.402 106.825 224.378 106.955 224.772C107.081 225.151 107.268 225.509 107.399 225.887C108.01 227.656 108.67 229.418 108.4 231.352C108.38 231.404 108.38 231.462 108.399 231.515C108.418 231.568 108.454 231.612 108.502 231.641C110.531 228.872 111.88 225.919 111.212 222.352C111.294 222.369 111.331 222.366 111.349 222.383C112.89 223.742 114.09 225.444 114.852 227.354C115.172 228.186 115.353 229.066 115.387 229.957C115.383 230.503 115.328 231.048 115.224 231.585L115.33 231.622C116.549 229.025 117.543 226.366 117.358 223.388Z" fill="white"/>
<path d="M104.323 233.476C104.324 233.348 104.327 233.219 104.329 233.091C104.293 232.973 104.259 232.855 104.226 232.736C104.225 232.986 104.222 233.236 104.225 233.486C104.258 233.482 104.29 233.479 104.323 233.476ZM104.241 234.468C104.23 234.286 104.192 234.106 104.129 233.935L104.04 233.944C104.128 234.202 104.213 234.461 104.311 234.718C104.314 234.451 104.317 234.184 104.319 233.916L104.232 233.925C104.235 234.106 104.238 234.287 104.241 234.468ZM104.128 233.933L104.039 233.943L104.04 233.944L104.129 233.935L104.128 233.933Z" fill="white"/>
<path d="M104.234 233.918V233.92L104.321 233.912V233.909L104.234 233.918ZM103.999 233.502C103.963 233.506 103.927 233.509 103.891 233.513C103.937 233.655 103.991 233.796 104.04 233.938L104.129 233.929C104.124 233.913 104.12 233.896 104.115 233.88C104.073 233.754 104.038 233.628 103.999 233.502Z" fill="white"/>
<path d="M104.236 233.923L104.322 233.914C104.324 233.768 104.325 233.622 104.327 233.476C104.294 233.479 104.261 233.483 104.229 233.486C104.23 233.631 104.233 233.777 104.236 233.923ZM115.414 212.082C115.846 211.943 116.296 211.864 116.749 211.847C116.659 212.097 116.542 212.336 116.398 212.559C116.091 213.077 115.87 213.641 115.746 214.231C115.588 214.893 115.604 215.586 115.792 216.241C115.917 216.648 116.138 216.739 116.538 216.6C116.725 216.53 116.897 216.424 117.045 216.289C117.518 215.866 117.859 215.315 118.027 214.702C118.411 213.439 118.398 212.14 118.407 210.88C118.52 211.224 118.681 211.591 118.822 211.964C118.87 212.09 118.913 212.249 119.094 212.245C118.847 211.649 118.599 211.053 118.352 210.457C118.271 210.982 118.301 211.488 118.265 211.989C118.199 212.887 118.211 213.797 117.908 214.667C117.638 215.444 117.275 216.129 116.481 216.495C116.158 216.644 115.983 216.542 115.9 216.224C115.746 215.612 115.728 214.972 115.85 214.352C116.028 213.539 116.358 212.768 116.822 212.079C116.889 211.972 116.968 211.837 116.911 211.737C116.846 211.623 116.684 211.674 116.571 211.694C116.009 211.767 115.46 211.913 114.936 212.128C115.108 212.249 115.26 212.127 115.414 212.082ZM104.755 210.835L104.769 211.005L104.77 211.005C104.792 211.025 104.812 211.048 104.83 211.072C104.86 211.11 104.891 211.148 104.918 211.187C105.474 211.941 105.954 212.748 106.35 213.597C106.676 212.392 107.13 211.226 107.706 210.119L108.298 208.981L108.044 208.981V208.98C106.721 209.085 105.491 209.707 104.621 210.713C104.624 210.715 104.626 210.718 104.629 210.721L104.755 210.835ZM108.31 208.981L108.646 211.023C108.829 212.254 109.176 213.454 109.678 214.592C110.244 213.7 110.578 212.681 110.653 211.627C110.659 211.251 110.626 210.875 110.553 210.506C110.519 210.29 110.484 210.074 110.463 209.855L110.413 209.355C109.915 209.155 109.391 209.029 108.856 208.981V208.981C108.674 208.981 108.492 208.981 108.31 208.981Z" fill="white"/>
<path d="M104.334 211.042C104.44 211.105 104.532 211.189 104.606 211.288C105.376 212.313 105.989 213.449 106.423 214.656C106.707 213.279 107.155 211.941 107.757 210.671C107.761 210.663 107.764 210.656 107.766 210.648C107.768 210.645 107.771 210.64 107.778 210.629C107.855 210.501 107.901 210.298 108.071 210.312C108.255 210.328 108.247 210.542 108.27 210.683C108.406 211.582 108.606 212.47 108.868 213.34C109.028 213.871 109.232 214.387 109.48 214.883C109.61 215.133 109.731 215.122 109.866 214.896C110.694 213.511 111.196 212.056 110.859 210.409C110.819 210.214 110.666 210.005 110.848 209.801C110.863 209.801 110.876 209.803 110.89 209.805L110.879 209.707H110.879L110.879 209.707C110.78 209.551 110.632 209.434 110.458 209.372C110.442 209.366 110.426 209.361 110.41 209.355L110.459 209.855C110.481 210.073 110.515 210.29 110.549 210.506C110.622 210.875 110.656 211.25 110.649 211.626C110.575 212.68 110.24 213.699 109.675 214.591C109.173 213.454 108.826 212.253 108.643 211.023L108.306 208.98H108.295L107.702 210.119C107.127 211.226 106.672 212.392 106.347 213.597C105.95 212.748 105.47 211.94 104.915 211.186C104.887 211.147 104.857 211.11 104.826 211.072C104.809 211.047 104.789 211.025 104.766 211.004L104.766 211.005L104.751 210.835L104.625 210.72C104.623 210.718 104.62 210.715 104.618 210.712C104.521 210.819 104.425 210.926 104.334 211.042L104.334 211.042Z" fill="white"/>
<path d="M105.987 213.85C106.132 214.189 106.269 214.531 106.458 214.985C106.78 213.359 107.328 211.786 108.087 210.314C108.137 210.62 108.176 210.854 108.215 211.088C108.422 212.488 108.839 213.847 109.451 215.122C109.542 215.303 109.621 215.487 109.809 215.197C110.543 214.148 110.983 212.921 111.083 211.643C111.066 211.027 111.002 210.412 110.891 209.805L110.89 209.799C110.876 209.797 110.863 209.795 110.848 209.794C110.666 209.999 110.819 210.207 110.859 210.403C111.196 212.049 110.694 213.505 109.866 214.89C109.731 215.116 109.61 215.127 109.48 214.877C109.232 214.381 109.028 213.865 108.868 213.334C108.606 212.464 108.406 211.576 108.27 210.677C108.247 210.536 108.255 210.322 108.071 210.306C107.901 210.292 107.855 210.495 107.778 210.623C107.771 210.634 107.768 210.639 107.766 210.642C107.764 210.649 107.761 210.657 107.757 210.665C107.155 211.935 106.707 213.273 106.423 214.65C105.989 213.443 105.376 212.307 104.606 211.282C104.532 211.183 104.44 211.099 104.334 211.036C104.348 211.202 104.473 211.307 104.56 211.43C105.119 212.185 105.597 212.996 105.987 213.85ZM108.839 203.213L108.84 203.213C109.039 203.137 109.239 203.064 109.436 202.984C109.825 202.82 110.164 202.555 110.416 202.216C110.668 201.877 110.824 201.476 110.869 201.055C110.914 200.635 110.845 200.21 110.67 199.825C110.495 199.44 110.22 199.109 109.874 198.867C109.528 198.625 109.124 198.48 108.703 198.448C108.282 198.416 107.861 198.498 107.482 198.685C107.104 198.872 106.782 199.157 106.551 199.511C106.32 199.865 106.188 200.274 106.169 200.697C106.136 201.905 106.717 202.666 108.046 203.156C108.311 203.116 108.582 203.135 108.839 203.213Z" fill="white"/>
<path d="M108.851 208.979L108.838 203.217L108.837 203.217C108.713 203.283 108.573 203.313 108.433 203.303C108.292 203.293 108.157 203.244 108.044 203.16L108.039 208.978C108.16 208.899 108.301 208.858 108.445 208.858C108.589 208.858 108.73 208.9 108.851 208.979Z" fill="white"/>
<path d="M108.293 208.974L108.302 208.957L108.304 208.974C108.486 208.974 108.669 208.974 108.851 208.975V208.975C108.73 208.896 108.589 208.854 108.445 208.854C108.301 208.853 108.16 208.895 108.039 208.974V208.974L108.293 208.974Z" fill="white"/>
<path d="M108.299 208.974H108.311L108.308 208.957L108.299 208.974ZM108.844 203.212C108.587 203.134 108.316 203.115 108.051 203.155C108.164 203.239 108.299 203.289 108.439 203.299C108.58 203.309 108.72 203.279 108.844 203.212ZM113.177 212.826C113.226 212.78 113.277 212.736 113.327 212.691C113.067 211.717 112.52 210.844 111.759 210.185C111.668 210.104 111.579 210.016 111.483 209.937C112.081 210.94 112.584 211.997 112.987 213.093L113.177 212.826Z" fill="white"/>
<path d="M110.906 209.771C110.905 209.782 110.9 209.793 110.894 209.803C111.184 209.847 111.245 210.124 111.35 210.33C111.959 211.424 112.466 212.572 112.865 213.759C113.132 213.566 113.196 213.249 113.463 213.149C113.37 213.07 113.386 212.954 113.362 212.852C113.35 212.798 113.333 212.747 113.319 212.695C113.269 212.74 113.219 212.783 113.169 212.829L112.98 213.096C112.577 212 112.073 210.943 111.476 209.94C111.314 209.787 111.1 209.702 110.877 209.703C110.887 209.711 110.896 209.721 110.901 209.733C110.906 209.745 110.908 209.758 110.906 209.771Z" fill="white"/>
<path d="M112.881 214.054C113.077 213.752 113.273 213.449 113.469 213.147C113.202 213.247 113.138 213.565 112.872 213.757C112.472 212.57 111.965 211.422 111.356 210.329C111.251 210.122 111.19 209.846 110.9 209.801C110.898 209.803 110.896 209.806 110.895 209.806C111.722 211.138 112.389 212.564 112.881 214.054Z" fill="white"/>
<path d="M110.906 209.772C110.908 209.759 110.906 209.746 110.901 209.733C110.896 209.721 110.888 209.711 110.877 209.703H110.877L110.888 209.804L110.894 209.805C110.901 209.795 110.905 209.784 110.906 209.772Z" fill="white"/>
<path d="M110.901 209.802L110.895 209.802L110.896 209.808C110.898 209.808 110.899 209.804 110.901 209.802ZM101.424 209.216C101.405 210.105 101.485 210.994 101.663 211.865C101.66 210.813 101.597 209.762 101.474 208.717L101.474 208.717C101.437 208.754 101.41 208.8 101.396 208.851C101.503 208.945 101.426 209.103 101.424 209.216Z" fill="white"/>
<path d="M101.475 208.717C101.415 208.744 101.355 208.771 101.296 208.799C101.333 208.808 101.368 208.826 101.398 208.851C101.411 208.8 101.438 208.754 101.475 208.717ZM101.398 208.851C101.391 208.872 101.386 208.894 101.382 208.916C101.395 208.972 101.391 209.031 101.369 209.085C101.257 209.45 101.235 209.838 101.307 210.213C101.385 210.769 101.324 211.364 101.665 211.865C101.487 210.994 101.406 210.105 101.426 209.216C101.427 209.103 101.504 208.945 101.398 208.851Z" fill="white"/>
<path d="M101.374 208.916C101.378 208.894 101.384 208.872 101.39 208.851C101.36 208.826 101.325 208.808 101.288 208.799L101.288 208.799C101.33 208.826 101.361 208.868 101.374 208.916ZM96.7379 218.457C96.4111 220.092 95.8412 221.669 95.0471 223.134C94.6233 223.869 94.262 223.911 93.6118 223.371C92.599 222.517 91.6868 221.55 90.8928 220.489C88.0824 216.738 85.7111 212.676 83.8254 208.383C82.215 204.778 80.9864 201.013 80.1597 197.152C79.7323 195.289 79.4655 193.393 79.3623 191.484C79.3107 189.862 79.5782 188.246 80.1497 186.728C81.1602 183.935 83.1577 182.354 86.0262 181.875C86.7767 181.728 87.5501 181.744 88.2941 181.922C89.038 182.099 89.7353 182.435 90.3387 182.906C91.7273 184.015 92.8455 185.426 93.6083 187.032C94.9748 189.782 95.9416 192.714 96.4793 195.738C96.9809 198.465 97.3194 201.22 97.4931 203.987C97.5442 204.788 97.5073 205.589 97.5896 206.386C97.688 207.321 97.6885 208.263 97.5913 209.198L97.5898 209.21L97.6337 209.254C97.6615 209.177 97.6933 209.097 97.7217 209.02C97.7406 208.078 97.7537 207.137 97.7175 206.192C97.6368 204.086 97.4828 201.99 97.2368 199.897C96.9837 197.485 96.5443 195.096 95.9224 192.753C95.1389 189.94 94.1394 187.203 92.4015 184.827C90.7553 182.577 88.6479 181.179 85.691 181.797C83.5685 182.241 81.8211 183.291 80.7198 185.214C79.7685 186.912 79.2596 188.822 79.2403 190.769C79.2382 191.845 79.3205 192.919 79.4863 193.982C79.8958 196.902 80.5647 199.779 81.485 202.58C83.177 207.781 85.5415 212.737 88.5184 217.322C89.9408 219.544 91.4655 221.681 93.4734 223.427C94.2367 224.091 94.673 224.059 95.1563 223.197C96.0412 221.556 96.653 219.781 96.9676 217.942C96.9427 217.852 96.9239 217.759 96.9007 217.668C96.8453 217.931 96.7978 218.195 96.7379 218.457Z" fill="white"/>
<path d="M97.5973 209.213C97.5702 209.458 97.4996 209.72 97.703 209.933C97.7058 209.931 97.7079 209.929 97.7107 209.927C97.7165 209.626 97.7227 209.325 97.7292 209.023C97.7008 209.1 97.669 209.18 97.6412 209.257L97.5973 209.213ZM96.9746 217.389C96.9516 217.483 96.9282 217.577 96.9082 217.671C96.9314 217.762 96.9502 217.855 96.9751 217.946C96.9949 217.842 97.016 217.739 97.0345 217.635C97.0152 217.553 96.9918 217.47 96.9746 217.389Z" fill="white"/>
<path d="M97.1306 216.846C97.067 217.021 97.014 217.2 96.9717 217.381C96.9889 217.463 97.0123 217.545 97.0317 217.627C97.0771 217.372 97.1195 217.116 97.1589 216.859L97.1518 216.85C97.1447 216.849 97.1382 216.847 97.1306 216.846ZM97.4313 210.48C96.9718 212.249 96.7993 214.08 96.9203 215.903C96.9278 216.053 96.9292 216.209 96.9507 216.361L97.1097 216.396C97.08 216.122 97.0513 215.848 97.0341 215.574C96.9467 213.669 97.1733 211.762 97.7049 209.931L97.7002 209.926C97.5057 210.059 97.4864 210.28 97.4313 210.48Z" fill="white"/>
<path d="M97.1484 216.853L97.1547 216.854C97.1397 216.702 97.1228 216.551 97.1063 216.399L96.9473 216.364C96.9649 216.543 97.0348 216.713 97.1484 216.853ZM97.1547 216.854L97.1484 216.853L97.1555 216.862L97.1555 216.862L97.1547 216.854ZM97.7015 209.933L97.7045 209.922C97.7016 209.924 97.6996 209.926 97.6968 209.928L97.7015 209.933ZM119.247 211.801C119.261 211.538 119.247 211.275 119.206 211.015C119.095 210.003 119.113 208.985 119.064 207.971C119 206.681 119.159 205.389 119.215 204.098C119.301 202.156 119.525 200.23 119.789 198.307C120.192 195.028 121.034 191.818 122.294 188.765C123.123 186.828 124.068 184.962 125.649 183.509C126.56 182.673 127.579 181.994 128.832 181.845C131.418 181.539 134.614 182.702 136.113 185.704C137.193 187.939 137.583 190.446 137.233 192.904C136.727 197.135 135.695 201.285 134.161 205.259C132.369 209.992 130.012 214.491 127.143 218.658C126.004 220.307 124.802 221.905 123.262 223.218C122.393 223.959 122.058 223.907 121.512 222.884C120.914 221.711 120.454 220.474 120.139 219.195L120.136 219.205L120.002 219.148C120.327 220.552 120.84 221.906 121.529 223.171C122.018 224.032 122.46 224.085 123.216 223.44C124.286 222.511 125.25 221.467 126.092 220.327C129.137 216.219 131.657 211.745 133.594 207.01C135.351 202.83 136.57 198.444 137.224 193.956C137.565 191.999 137.524 189.995 137.102 188.054C136.641 186.16 135.852 184.419 134.242 183.232C132.526 181.967 130.583 181.356 128.442 181.8C126.799 182.141 125.569 183.192 124.571 184.474C122.738 186.829 121.677 189.575 120.878 192.415C119.646 196.8 119.174 201.301 119 205.84C118.964 206.778 118.91 207.715 118.951 208.654C118.992 209.591 119.07 210.526 119.09 211.464C119.135 211.576 119.179 211.688 119.223 211.802L119.247 211.801Z" fill="white"/>
<path d="M119.122 212.239C119.189 212.102 119.231 211.954 119.244 211.802L119.22 211.803C119.177 211.689 119.132 211.577 119.088 211.465C119.093 211.723 119.097 211.981 119.091 212.24C119.101 212.24 119.111 212.24 119.122 212.239ZM120.137 219.196C120.134 219.186 120.131 219.176 120.128 219.166C120.073 218.961 120.082 218.708 119.835 218.606L119.834 218.607C119.869 218.707 119.914 218.806 119.939 218.909C119.958 218.989 119.979 219.069 119.999 219.149L120.134 219.206L120.137 219.196ZM119.307 212.529C119.295 212.469 119.269 212.412 119.231 212.363C119.194 212.314 119.146 212.275 119.091 212.248C119.238 212.747 119.394 213.245 119.531 213.748C119.964 215.345 120.236 216.955 119.834 218.606L119.834 218.606C120.185 218.198 120.132 217.685 120.152 217.211C120.219 215.591 119.776 214.056 119.307 212.529Z" fill="white"/>
<path d="M119.84 218.601L119.84 218.6L119.84 218.6L119.84 218.601ZM119.116 227.863C119.13 227.936 119.062 228.06 119.183 228.066C119.281 228.071 119.288 227.953 119.296 227.868C119.285 227.881 119.271 227.891 119.255 227.898C119.239 227.905 119.222 227.908 119.205 227.908C119.188 227.907 119.171 227.903 119.155 227.895C119.14 227.888 119.126 227.877 119.116 227.863Z" fill="white"/>
<path d="M119.115 227.867C119.125 227.881 119.139 227.892 119.154 227.899C119.17 227.907 119.187 227.911 119.204 227.912C119.221 227.912 119.238 227.909 119.254 227.902C119.27 227.895 119.284 227.885 119.295 227.872V227.872L119.115 227.867ZM112.709 283.557C112.794 283.596 112.888 283.615 112.982 283.614C113.076 283.612 113.169 283.589 113.253 283.547C115.065 282.812 116.802 281.905 118.441 280.838C119.121 280.39 119.772 279.901 120.391 279.373C121.268 278.655 121.884 277.667 122.144 276.562L122.161 276.487C122.293 275.907 122.417 275.359 122.221 274.864C121.785 273.757 119.969 272.528 118.752 272.515C118.739 272.515 118.725 272.514 118.712 272.514C117.017 272.514 115.862 273.688 115.765 275.516C115.672 277.25 115.157 278.936 114.264 280.425L114.221 280.5C114.194 280.546 114.168 280.593 114.139 280.639C113.817 281.157 113.471 281.667 113.136 282.16C112.939 282.45 112.742 282.739 112.549 283.032C112.478 283.117 112.442 283.227 112.45 283.338C112.505 283.441 112.598 283.52 112.709 283.557Z" fill="white"/>
<path d="M112.527 283.954C112.667 284.018 112.82 284.051 112.974 284.05C113.129 284.05 113.281 284.015 113.421 283.95C115.257 283.202 117.018 282.282 118.681 281.202C119.375 280.744 120.04 280.244 120.673 279.706C121.621 278.927 122.287 277.857 122.567 276.661C122.712 276.016 122.879 275.352 122.624 274.706C122.115 273.415 120.143 272.097 118.756 272.082C116.819 272.061 115.442 273.412 115.332 275.495C115.245 277.16 114.75 278.777 113.891 280.205C113.85 280.273 113.813 280.343 113.771 280.411C113.268 281.221 112.712 281.998 112.187 282.794C111.862 283.286 111.993 283.707 112.527 283.954ZM112.549 283.034C112.741 282.741 112.938 282.452 113.135 282.162C113.47 281.669 113.817 281.159 114.139 280.642C114.167 280.595 114.194 280.549 114.221 280.502L114.263 280.427C115.156 278.938 115.672 277.252 115.765 275.518C115.862 273.69 117.017 272.516 118.712 272.516C118.725 272.516 118.738 272.517 118.752 272.517C119.969 272.53 121.785 273.76 122.221 274.866C122.416 275.362 122.292 275.909 122.161 276.489L122.144 276.565C121.883 277.669 121.267 278.657 120.391 279.375C119.771 279.903 119.12 280.392 118.441 280.84C116.802 281.907 115.065 282.814 113.253 283.55C113.169 283.592 113.076 283.614 112.982 283.616C112.888 283.617 112.794 283.598 112.708 283.559C112.597 283.522 112.505 283.444 112.45 283.34C112.442 283.229 112.477 283.119 112.549 283.034L112.549 283.034ZM98.3403 279.846C98.6262 280.075 98.9404 280.307 99.33 280.577C100.942 281.629 102.632 282.555 104.386 283.347C104.634 283.456 104.894 283.535 105.161 283.581C105.268 283.599 105.378 283.587 105.477 283.544C105.577 283.502 105.662 283.432 105.723 283.342C105.742 283.304 105.74 283.242 105.586 283.044C105.434 282.838 105.302 282.618 105.191 282.388C105.105 282.203 104.999 282.027 104.876 281.865C104.461 281.37 104.092 280.837 103.776 280.274C102.948 278.771 102.483 277.095 102.418 275.38C102.408 274.617 102.098 273.889 101.556 273.353C101.014 272.817 100.284 272.516 99.5223 272.516H99.5193C98.6028 272.522 97.7236 272.882 97.0656 273.521C96.4458 274.05 96.0456 274.793 95.9437 275.603C95.8417 276.412 96.0454 277.231 96.5147 277.898C97.0173 278.639 97.6334 279.297 98.3403 279.846Z" fill="white"/>
<path d="M98.0682 280.184C98.3978 280.45 98.7384 280.696 99.0836 280.934C100.713 282.001 102.423 282.939 104.198 283.738C104.478 283.864 104.774 283.955 105.077 284.007C105.261 284.041 105.45 284.023 105.624 283.954C105.797 283.885 105.948 283.768 106.058 283.618C106.304 283.317 106.113 283.015 105.927 282.776C105.637 282.403 105.492 281.923 105.207 281.584C104.808 281.11 104.456 280.6 104.153 280.06C103.36 278.615 102.914 277.004 102.85 275.356C102.836 274.481 102.479 273.647 101.856 273.035C101.233 272.422 100.395 272.079 99.5219 272.081C98.4954 272.084 97.5099 272.485 96.7721 273.201C96.0775 273.801 95.6295 274.637 95.5149 275.549C95.4003 276.461 95.6272 277.383 96.1517 278.137C96.6794 278.916 97.3261 279.607 98.0682 280.184ZM97.0651 273.521C97.723 272.881 98.6022 272.521 99.5187 272.516H99.5217C100.283 272.516 101.014 272.817 101.556 273.353C102.098 273.889 102.407 274.617 102.417 275.38C102.482 277.095 102.947 278.771 103.776 280.273C104.092 280.837 104.46 281.37 104.875 281.865C104.999 282.027 105.104 282.203 105.19 282.388C105.301 282.618 105.434 282.837 105.585 283.043C105.739 283.242 105.742 283.304 105.723 283.342C105.662 283.432 105.576 283.502 105.477 283.544C105.377 283.586 105.267 283.599 105.161 283.58C104.894 283.535 104.633 283.456 104.385 283.346C102.632 282.555 100.941 281.629 99.3294 280.576C98.9398 280.307 98.6256 280.075 98.3397 279.845C97.6328 279.296 97.0167 278.639 96.5141 277.898C96.0448 277.231 95.8411 276.412 95.943 275.602C96.045 274.793 96.4451 274.05 97.065 273.521H97.0651ZM95.6734 254.666C96.5818 255.11 97.5485 255.08 98.5517 255.158C99.3472 255.186 100.138 255.023 100.858 254.682C101.578 254.342 102.206 253.834 102.691 253.201C103.124 252.697 103.441 252.104 103.621 251.464C103.801 250.823 103.838 250.152 103.731 249.495C103.595 248.565 102.889 248.277 102.114 248.777C101.959 248.877 101.811 248.988 101.65 249.076C100.756 249.569 99.9578 249.382 99.3031 248.533C98.7454 247.81 98.8152 247.009 99.5001 246.289C99.5849 246.2 99.6706 246.11 99.7624 246.029C99.9473 245.9 100.087 245.716 100.16 245.503C100.234 245.29 100.238 245.059 100.172 244.843C100.105 244.612 99.9728 244.405 99.7917 244.247C99.6106 244.089 99.3879 243.986 99.1503 243.952C98.3908 243.834 97.6154 243.872 96.8708 244.063C96.1263 244.254 95.428 244.594 94.8182 245.062C94.2084 245.531 93.6996 246.119 93.3227 246.79C92.9457 247.462 92.7083 248.202 92.6248 248.968C92.5053 250.115 92.732 251.271 93.2756 252.286C93.8191 253.302 94.6545 254.131 95.6734 254.666ZM113.952 253.595C115.047 254.78 116.475 255.099 117.92 255.127C118.24 255.127 118.47 255.13 118.701 255.126C121.328 255.079 123.801 252.533 123.773 249.905C123.761 248.79 123.003 248.317 122.004 248.81C121.673 249.003 121.322 249.16 120.959 249.28C120.589 249.367 120.202 249.331 119.856 249.176C119.509 249.021 119.223 248.756 119.042 248.423C118.827 248.136 118.72 247.783 118.739 247.425C118.758 247.067 118.902 246.727 119.146 246.465C119.314 246.265 119.509 246.087 119.673 245.884C119.822 245.73 119.924 245.537 119.968 245.327C120.011 245.117 119.994 244.899 119.918 244.699C119.842 244.498 119.711 244.324 119.54 244.195C119.368 244.067 119.164 243.99 118.951 243.974C118.068 243.819 117.162 243.879 116.307 244.148C115.452 244.417 114.674 244.888 114.039 245.52C112.621 246.832 112.376 248.557 112.6 250.37C112.695 251.562 113.169 252.692 113.952 253.595Z" fill="white"/>
<path d="M369.331 239.398C370.913 239.717 372.356 240.519 373.462 241.693C374.382 242.666 374.896 243.953 374.899 245.291C374.927 247.984 374.927 250.677 374.899 253.368C374.864 256.702 372.834 259.01 369.27 259.724C368.281 259.917 367.275 260.013 366.267 260.01C356.755 260.032 347.242 260.01 337.73 260.036C337.091 260.036 336.896 259.876 336.898 259.218C336.916 246.992 336.916 234.765 336.898 222.539C336.898 221.893 337.071 221.709 337.723 221.711C346.92 221.731 356.118 221.711 365.315 221.731C366.957 221.683 368.59 221.982 370.109 222.607C372.437 223.631 373.825 225.374 373.934 227.917C374.048 230.38 374.02 232.848 373.848 235.308C373.661 237.721 372.697 238.787 369.826 239.286C369.657 239.317 369.495 239.364 369.331 239.398ZM354.228 255.4C357.748 255.4 361.267 255.431 364.786 255.38C365.744 255.364 366.696 255.215 367.615 254.94C368.155 254.799 368.632 254.481 368.971 254.038C369.31 253.594 369.491 253.05 369.486 252.492C369.546 250.252 369.582 248.007 369.518 245.767C369.467 244.035 368.634 243.139 366.917 242.739C366.374 242.605 365.818 242.532 365.258 242.521C357.761 242.505 350.276 242.521 342.785 242.499C342.209 242.499 342.069 242.706 342.072 243.241C342.089 247.033 342.097 250.823 342.072 254.612C342.072 255.29 342.307 255.423 342.928 255.419C346.692 255.387 350.46 255.4 354.228 255.4ZM353.875 237.938V237.879C357.547 237.879 361.228 237.92 364.905 237.865C367.278 237.83 368.634 236.534 368.657 234.444C368.672 232.941 368.68 231.437 368.657 229.936C368.698 229.199 368.478 228.471 368.036 227.88C367.593 227.289 366.957 226.873 366.238 226.705C365.531 226.49 364.798 226.377 364.06 226.367C356.998 226.342 349.934 226.367 342.87 226.339C342.236 226.339 342.072 226.546 342.077 227.15C342.102 230.446 342.088 233.743 342.089 237.039C342.089 237.932 342.089 237.937 342.98 237.938H353.875ZM303.407 242.62V250.504C303.421 253.469 305.283 255.336 308.253 255.339C316.714 255.348 325.174 255.348 333.634 255.339C334.973 255.339 334.809 255.194 334.82 256.525C334.828 257.443 334.783 258.361 334.834 259.279C334.868 259.891 334.635 260.029 334.061 260.023C331.278 259.997 328.495 260.01 325.713 260.01C319.518 260.01 313.32 259.906 307.131 260.045C302.694 260.146 298.779 256.764 298.306 252.613C298.262 252.212 298.24 251.809 298.242 251.405V230.4C298.218 229.252 298.426 228.112 298.854 227.047C299.282 225.982 299.921 225.014 300.733 224.203C301.545 223.391 302.512 222.752 303.577 222.325C304.643 221.897 305.783 221.689 306.931 221.714C315.958 221.714 324.98 221.709 333.995 221.699C334.627 221.699 334.869 221.842 334.837 222.513C334.783 223.633 334.811 224.757 334.828 225.879C334.828 226.278 334.698 226.466 334.288 226.439C334.087 226.426 333.884 226.439 333.676 226.439H308.16C305.702 226.454 304.019 227.77 303.498 230.077C303.426 230.474 303.397 230.877 303.412 231.28C303.412 233.209 303.435 235.14 303.394 237.069C303.378 237.73 303.594 237.889 304.23 237.888C312.376 237.868 320.523 237.864 328.669 237.874C329.548 237.874 329.548 237.874 329.548 238.746C329.548 239.779 329.513 240.812 329.561 241.843C329.591 242.455 329.408 242.637 328.777 242.634C321.101 242.614 313.426 242.61 305.751 242.62L303.407 242.62ZM377.56 255.379H403.963C406.843 255.379 408.706 253.648 408.85 250.775C408.91 249.43 408.896 248.083 408.806 246.74C408.738 245.618 408.241 244.565 407.418 243.799C406.595 243.033 405.508 242.613 404.384 242.626C397.943 242.614 391.503 242.626 385.061 242.626C383.596 242.666 382.145 242.326 380.849 241.639C378.283 240.213 376.548 238.12 376.336 235.129C376.138 232.939 376.169 230.734 376.431 228.55C376.98 224.693 380.562 221.763 384.564 221.741C393.272 221.694 401.98 221.729 410.688 221.715C411.188 221.715 411.359 221.881 411.347 222.376C411.321 223.447 411.311 224.532 411.347 225.608C411.37 226.2 411.174 226.365 410.582 226.364C402.435 226.345 394.289 226.343 386.142 226.356C385.341 226.322 384.545 226.497 383.832 226.863C383.119 227.23 382.514 227.775 382.075 228.446C381.015 230.01 381.042 234.217 382.148 235.749C382.594 236.387 383.193 236.903 383.891 237.249C384.589 237.594 385.362 237.758 386.14 237.726C392.491 237.716 398.839 237.726 405.193 237.718C406.725 237.666 408.242 238.036 409.577 238.789C412.398 240.472 413.925 242.929 413.982 246.239C414.013 248.01 413.996 249.784 413.982 251.557C413.978 253.782 413.098 255.917 411.533 257.498C409.968 259.08 407.842 259.982 405.617 260.009C396.483 260.047 387.349 260.018 378.215 260.029C377.74 260.029 377.528 259.934 377.543 259.401C377.584 258.104 377.56 256.806 377.56 255.379ZM210.788 270.909C209.202 270.909 207.706 270.916 206.211 270.892C206.086 270.892 205.905 270.685 205.855 270.537C205.815 270.339 205.807 270.137 205.832 269.937V232.785C205.832 231.804 205.832 231.803 206.816 231.803H226.198C227.367 231.774 228.53 231.984 229.615 232.421C230.699 232.857 231.684 233.511 232.506 234.343C233.175 234.995 233.704 235.777 234.06 236.64C234.416 237.503 234.593 238.43 234.579 239.364C234.601 243.716 234.601 248.067 234.579 252.42C234.528 254.427 233.701 256.336 232.273 257.746C230.844 259.157 228.924 259.959 226.917 259.984C222.904 260.079 218.886 260.013 214.871 260.018C213.75 260.018 212.628 260.041 211.505 260.009C210.944 259.993 210.771 260.198 210.775 260.752C210.795 263.848 210.784 266.943 210.784 270.038L210.788 270.909ZM210.788 245.841V254.856C210.788 255.315 210.829 255.621 211.421 255.621C216.175 255.621 220.93 255.657 225.684 255.621C226.707 255.591 227.679 255.171 228.402 254.447C229.125 253.723 229.544 252.75 229.573 251.727C229.613 247.851 229.609 243.971 229.562 240.086C229.532 239.486 229.355 238.902 229.048 238.385C228.13 236.774 226.588 236.243 224.836 236.228C220.417 236.208 216 236.228 211.582 236.209C210.97 236.209 210.775 236.413 210.781 237.026C210.803 239.964 210.788 242.902 210.788 245.841V245.841ZM253.233 248.494C249.532 248.494 245.83 248.508 242.127 248.482C241.461 248.482 241.209 248.664 241.244 249.355C241.296 250.633 241.258 251.912 241.259 253.191C241.259 254.825 242.177 255.764 243.841 255.774C246.712 255.789 249.584 255.774 252.456 255.774C255.576 255.774 258.694 255.787 261.812 255.761C262.377 255.761 262.556 255.93 262.534 256.485C262.496 257.472 262.508 258.46 262.534 259.447C262.544 259.888 262.372 260.026 261.941 260.024C255.479 260.012 249.017 260.042 242.555 259.992C239.706 259.971 237.2 258.093 236.548 255.648C236.408 255.083 236.34 254.503 236.345 253.921C236.33 249.164 236.33 244.408 236.345 239.65C236.34 237.714 237.061 235.847 238.367 234.418C239.672 232.988 241.467 232.101 243.395 231.931C244.576 231.826 245.77 231.826 246.957 231.83C250.629 231.844 254.32 231.772 257.992 231.944C259.639 232.057 261.206 232.697 262.463 233.768C263.719 234.84 264.598 236.287 264.97 237.895C265.061 238.4 265.102 238.913 265.091 239.425C265.102 242.163 265.073 244.9 265.112 247.637C265.123 248.345 264.871 248.498 264.219 248.494C260.548 248.48 256.895 248.494 253.233 248.494ZM250.68 244.066C253.575 244.066 256.468 244.052 259.361 244.078C259.938 244.078 260.167 243.939 260.138 243.33C260.092 242.391 260.138 241.447 260.125 240.504C260.151 239.434 259.755 238.396 259.022 237.616C258.289 236.835 257.278 236.375 256.208 236.335C252.554 236.253 248.898 236.253 245.241 236.335C244.171 236.373 243.158 236.825 242.416 237.596C241.674 238.367 241.26 239.396 241.262 240.466C241.238 241.43 241.284 242.397 241.249 243.359C241.227 243.931 241.455 244.077 241.997 244.072C244.893 244.055 247.786 244.066 250.68 244.066ZM296.036 248.938C296.036 252.371 296.023 255.804 296.048 259.238C296.048 259.842 295.895 260.064 295.265 260.036C294.123 259.987 292.97 259.99 291.833 260.036C291.231 260.061 291.077 259.862 291.078 259.271C291.098 253.151 291.091 247.019 291.091 240.893C291.091 238.181 289.663 236.41 286.97 236.303C283.252 236.15 279.521 236.168 275.801 236.321C273.287 236.425 271.845 238.178 271.837 240.703C271.822 245.865 271.837 251.026 271.837 256.187C271.837 257.241 271.822 258.297 271.837 259.351C271.846 259.819 271.727 260.044 271.197 260.032C269.941 260 268.685 260.006 267.429 260.032C266.97 260.041 266.863 259.866 266.863 259.441C266.875 252.686 266.843 245.931 266.886 239.178C266.909 235.632 269.837 232.494 273.499 231.953C274.008 231.871 274.522 231.825 275.038 231.817C279.346 231.806 283.655 231.789 287.963 231.817C289.34 231.795 290.699 232.12 291.917 232.761C293.135 233.403 294.171 234.341 294.931 235.489C295.63 236.463 296.008 237.631 296.014 238.83C296.034 242.196 296.014 245.562 296.014 248.928L296.036 248.938ZM202.942 240.709C202.942 244.228 202.971 247.747 202.934 251.266C202.921 253.198 202.249 255.067 201.027 256.563C199.806 258.06 198.11 259.093 196.22 259.493C195.635 259.619 195.038 259.681 194.439 259.678C194.023 259.678 193.607 259.678 193.191 259.687C187.969 259.833 182.747 259.71 177.525 259.749C176.013 259.759 174.502 259.736 172.991 259.767C171.953 259.822 170.912 259.714 169.907 259.447C168.457 259.068 167.135 258.31 166.076 257.25C165.017 256.189 164.26 254.866 163.883 253.416C163.689 252.719 163.592 251.998 163.596 251.274C163.596 250.437 163.586 249.599 163.586 248.76C163.579 243.21 163.572 237.656 163.563 232.098C163.563 231.192 163.544 230.285 163.608 229.384C163.709 227.812 164.258 226.302 165.191 225.032C165.84 224.116 166.667 223.34 167.623 222.751C168.579 222.162 169.644 221.773 170.755 221.605C171.594 221.52 172.437 221.484 173.281 221.495C176.119 221.342 178.959 221.457 181.798 221.435C184.638 221.414 187.488 221.435 190.334 221.435C191.754 221.435 193.174 221.4 194.592 221.435C196.669 221.471 198.659 222.278 200.174 223.7C201.556 224.932 202.477 226.598 202.784 228.425C202.882 228.984 202.933 229.55 202.937 230.118C202.951 233.65 202.945 237.179 202.945 240.711L202.942 240.709ZM183.44 255.136H192.345C192.955 255.139 193.566 255.101 194.172 255.022C194.769 254.954 195.346 254.765 195.867 254.467C196.389 254.168 196.845 253.767 197.207 253.287C197.718 252.663 198.022 251.895 198.079 251.09C198.101 250.659 198.079 250.224 198.079 249.791C198.068 248.763 198.056 247.735 198.042 246.708C198.033 245.957 198.018 245.204 198.007 244.452C197.993 243.572 197.983 242.69 197.969 241.811C197.958 241.027 197.945 240.245 197.934 239.462C197.92 238.619 197.909 237.779 197.896 236.931C197.885 236.13 197.87 235.33 197.86 234.528C197.845 233.402 197.842 232.277 197.816 231.151C197.812 230.694 197.774 230.237 197.704 229.785C197.558 228.815 197.092 227.922 196.379 227.248C195.528 226.467 194.421 226.024 193.266 226.004C193.1 226.004 192.932 226.065 192.765 226.07C192.484 226.07 192.204 226.055 191.922 226.053C190.79 226.046 189.658 226.041 188.526 226.039H173.968C173.449 226.041 172.93 226.076 172.416 226.145C171.341 226.26 170.344 226.76 169.609 227.552C168.871 228.294 168.447 229.291 168.426 230.337C168.426 231.224 168.446 232.11 168.46 232.998C168.47 233.816 168.484 234.636 168.495 235.457C168.508 236.33 168.519 237.205 168.533 238.079C168.544 238.887 168.557 239.693 168.568 240.501C168.582 241.35 168.593 242.201 168.606 243.05C168.617 243.84 168.631 244.629 168.642 245.417C168.655 246.274 168.669 247.129 168.678 247.986C168.678 248.69 168.666 249.394 168.701 250.096C168.715 250.65 168.781 251.202 168.899 251.744C169.474 254.081 171.347 255.126 173.426 255.2C173.501 255.2 173.579 255.12 173.657 255.12C174.127 255.12 174.598 255.136 175.069 255.137L183.44 255.136Z" fill="white"/>
<path d="M184.748 79.139V75.3144H190.105V44.8237H184.748V40.9991H200.046V44.8237H194.689V75.3144H200.046V79.139H184.748ZM208.411 40.9991H224.094C230.378 40.9991 234.256 44.8767 234.256 50.8344C234.256 56.5183 230.594 58.541 228.082 58.9208V59.2476C230.815 59.411 235.567 61.7605 235.567 68.098C235.567 74.3825 231.358 79.1345 225.732 79.1345H208.411V40.9991ZM213 57.5031H223.546C227.154 57.5031 229.336 55.5908 229.336 52.2035V50.3442C229.336 46.9568 227.15 45.0445 223.546 45.0445H213V57.5031ZM213 75.098H224.31C228.245 75.098 230.647 73.0223 230.647 69.1977V67.3384C230.647 63.5138 228.245 61.4381 224.31 61.4381H213V75.098ZM273.76 47.0098H273.486L270.262 53.4047L261.138 70.0147L252.067 53.4047L248.843 47.0672H248.569V79.1434H244.086V40.9991H250.097L261.028 61.5441H261.244L272.228 40.9991H278.238V79.139H273.756V47.0098H273.76ZM296.765 60.3429C296.765 47.447 303.376 40.3455 313.649 40.3455C320.644 40.3455 325.123 43.1852 327.909 49.3063L320.75 53.0205C319.766 49.8496 317.743 47.7209 313.644 47.7209C308.782 47.7209 305.558 50.9978 305.558 57.0085V63.1296C305.558 69.1403 308.782 72.4172 313.644 72.4172C317.743 72.4172 320.092 69.8513 321.241 66.7334L328.015 70.6684C325.176 76.4582 320.64 79.7926 313.644 79.7926C303.376 79.797 296.765 73.2387 296.765 60.3429ZM341.406 79.139C335.885 79.139 333.372 76.3522 333.372 71.269V38.707H341.459V72.8589H345.067V79.1434H341.406V79.139ZM348.128 64.7681C348.128 55.5334 353.153 49.7966 361.571 49.7966C369.984 49.7966 375.014 55.5334 375.014 64.7681C375.014 74.0027 369.989 79.797 361.571 79.797C353.158 79.797 348.128 74.0027 348.128 64.7681ZM366.597 67.7226V61.8753C366.597 58.2672 364.737 56.1915 361.571 56.1915C358.4 56.1915 356.545 58.2672 356.545 61.8753V67.7226C356.545 71.3308 358.404 73.4065 361.571 73.4065C364.742 73.4021 366.597 71.3264 366.597 67.7226ZM397.688 74.3339H397.414C396.429 77.2311 394.08 79.797 389.381 79.797C383.534 79.797 380.42 75.6986 380.42 68.4867V50.4546H388.506V67.7756C388.506 71.2734 389.655 73.2387 392.605 73.2387C395.118 73.2387 397.688 71.8166 397.688 69.0873V50.4546H405.774V79.1434H397.688V74.3339ZM430.912 74.3339H430.639C429.817 77.4475 426.651 79.797 422.932 79.797C415.663 79.797 411.896 74.4973 411.896 64.7681C411.896 55.0432 415.667 49.7966 422.932 49.7966C426.646 49.7966 429.817 52.0931 430.639 55.2596H430.912V38.707H438.999V79.1434H430.912V74.3339ZM430.912 69.0299V60.5593C430.912 57.9359 428.673 56.3505 425.613 56.3505C422.552 56.3505 420.313 58.7 420.313 62.3081V67.281C420.313 70.8892 422.552 73.2387 425.613 73.2387C428.673 73.2387 430.912 71.6532 430.912 69.0299Z" fill="white"/>
<mask id="mask0" mask-type="alpha" maskUnits="userSpaceOnUse" x="49" y="0" width="121" height="101">
<path d="M169.35 0H49.3301V100.172H169.35V0Z" fill="black"/>
<path d="M73.5137 41.0497C73.1868 41.0497 72.86 40.9613 72.5774 40.7979L63.7181 35.6838C62.8967 35.2333 62.508 34.2661 62.7951 33.374C63.144 32.398 64.2216 31.8901 65.1976 32.239C65.3036 32.2743 65.4052 32.3229 65.5023 32.3803L74.3616 37.4945C75.267 37.9935 75.6247 39.1109 75.1786 40.0427C74.8518 40.6654 74.2114 41.0497 73.5137 41.0497Z" fill="white"/>
<path d="M88.8276 25.74C88.1563 25.74 87.538 25.3822 87.2024 24.7993L82.0838 15.94C81.598 15.1407 81.7437 14.1072 82.4415 13.4757C83.2321 12.8044 84.4156 12.906 85.0869 13.6965C85.1576 13.7804 85.2238 13.8731 85.2813 13.9703L90.3954 22.8251C90.9165 23.6819 90.7046 24.7993 89.9008 25.3999C89.5828 25.6251 89.2074 25.74 88.8276 25.74Z" fill="white"/>
<path d="M107.864 18.1371V8.04126C107.842 7.00783 108.623 6.13339 109.657 6.04506C110.69 5.99648 111.569 6.80026 111.618 7.83369C111.618 7.86019 111.618 7.89111 111.618 7.9176V18.2563C111.618 19.2942 110.779 20.1333 109.741 20.1333C109.714 20.1333 109.683 20.1333 109.657 20.1333C108.623 20.045 107.842 19.1705 107.864 18.1371Z" fill="white"/>
<path d="M130.653 25.7397C130.268 25.7397 129.897 25.6204 129.584 25.404C128.78 24.799 128.564 23.6816 129.089 22.8248L134.199 13.9744C134.72 13.0779 135.868 12.7688 136.765 13.2855C136.862 13.3429 136.955 13.4047 137.039 13.4798C137.736 14.1069 137.887 15.1403 137.396 15.9441L132.282 24.8034C131.942 25.3819 131.324 25.7397 130.653 25.7397Z" fill="white"/>
<path d="M145.97 41.0493C145.272 41.0493 144.632 40.6651 144.305 40.0468C143.854 39.115 144.216 37.9932 145.122 37.4986L153.906 32.4286C154.697 31.9472 155.721 32.0929 156.344 32.7819C157.02 33.568 156.931 34.7516 156.145 35.4273C156.057 35.5024 155.964 35.573 155.862 35.6304L146.906 40.7976C146.619 40.961 146.297 41.0493 145.97 41.0493Z" fill="white"/>
<path d="M85.9341 83.8991C72.7865 70.7471 72.7909 49.4248 85.9429 36.2773C99.0905 23.1341 120.404 23.1341 133.551 36.2773C134.501 37.2268 135.398 38.2337 136.228 39.2937C136.806 40.0268 137.358 40.7908 137.866 41.5593L134.735 43.6261C134.285 42.9416 133.794 42.2659 133.282 41.6123C132.54 40.6716 131.745 39.775 130.897 38.9271C119.211 27.2502 100.27 27.2502 88.5839 38.9359C76.9026 50.6217 76.9026 69.5635 88.5839 81.2448L85.9341 83.8991Z" fill="url(#paint0_linear)"/>
<path d="M133.747 93.7609C133.681 93.7609 133.614 93.7609 133.553 93.7609H81.9252C69.9127 93.677 60.2452 83.8771 60.3247 71.8645C60.3247 71.8601 60.3247 71.8557 60.3247 71.8513L64.0786 71.8778C64.0035 81.819 72.0016 89.9363 81.9385 90.007H133.566C133.619 90.007 133.676 90.007 133.734 90.007C145.87 90.0114 155.71 80.1805 155.714 68.0443C155.714 62.6343 153.722 57.4141 150.118 53.3864L152.914 50.8867C162.387 61.4772 161.482 77.7383 150.891 87.2114C146.179 91.4291 140.076 93.7609 133.747 93.7609Z" fill="white"/>
<path d="M64.0781 71.8759L60.3242 71.8494C60.3905 61.2943 68.0352 52.3158 78.449 50.5625L79.0762 54.2634C70.4598 55.712 64.1311 63.1448 64.0781 71.8759Z" fill="url(#paint1_linear)"/>
<path d="M111.769 67.8708L108.02 67.8443C108.126 53.6368 119.727 42.2072 133.935 42.3132C141.187 42.3662 148.08 45.4798 152.912 50.8854L150.116 53.3851C142.026 44.3403 128.136 43.5675 119.091 51.6583C114.476 55.792 111.818 61.679 111.769 67.8708Z" fill="url(#paint2_linear)"/>
</mask>
<g mask="url(#mask0)">
<path d="M73.5516 40.9926C73.2248 40.9926 72.898 40.9043 72.6153 40.7409L63.7561 35.6267C62.9346 35.1763 62.546 34.2091 62.833 33.317C63.1819 32.3409 64.2595 31.8331 65.2355 32.182C65.3415 32.2173 65.4431 32.2659 65.5403 32.3233L74.3995 37.4419C75.3049 37.9409 75.6626 39.0583 75.2166 39.9901C74.8897 40.604 74.2494 40.9926 73.5516 40.9926ZM88.8632 25.681C88.1919 25.681 87.5736 25.3233 87.2379 24.7404L82.1238 15.8811C81.638 15.0817 81.7837 14.0483 82.4815 13.4212C83.272 12.7499 84.4556 12.8515 85.1269 13.642C85.1976 13.7259 85.2638 13.8187 85.3212 13.9158L90.431 22.7707C90.9521 23.6274 90.7401 24.7448 89.9363 25.3454C89.6228 25.5618 89.2474 25.681 88.8632 25.681ZM107.902 18.0805V7.98462C107.88 6.95119 108.662 6.07675 109.695 5.98842C110.729 5.93984 111.607 6.74362 111.656 7.77705C111.656 7.80355 111.66 7.83446 111.66 7.86096V18.1997C111.66 19.2376 110.821 20.0767 109.784 20.0767C109.757 20.0767 109.726 20.0767 109.7 20.0767C108.662 19.9883 107.876 19.1139 107.902 18.0805ZM130.691 25.681C130.306 25.681 129.935 25.5618 129.622 25.3454C128.818 24.7404 128.602 23.623 129.127 22.7662L134.237 13.9158C134.754 13.0193 135.902 12.7101 136.803 13.2269C136.9 13.2843 136.993 13.3461 137.077 13.4212C137.77 14.0483 137.92 15.0817 137.434 15.8811L132.32 24.7404C131.98 25.3233 131.362 25.681 130.691 25.681ZM146.002 40.9926C145.304 40.9926 144.664 40.6084 144.337 39.9901C143.891 39.0583 144.249 37.9365 145.154 37.4419L153.938 32.3719C154.733 31.8905 155.754 32.0362 156.376 32.7252C157.052 33.5113 156.964 34.6949 156.178 35.3706C156.089 35.4457 155.996 35.5163 155.895 35.5737L146.939 40.7453C146.656 40.9043 146.333 40.9926 146.002 40.9926ZM85.966 83.8403C72.8185 70.6883 72.8229 49.3661 85.9748 36.2185C99.1224 23.0754 120.436 23.0754 133.583 36.2185C134.537 37.168 135.429 38.175 136.264 39.2349C136.843 39.968 137.395 40.7321 137.898 41.5005L134.767 43.5674C134.317 42.8828 133.826 42.2071 133.314 41.5535C132.572 40.6128 131.777 39.7163 130.929 38.8683C119.243 27.187 100.297 27.187 88.6158 38.8728C76.9345 50.5585 76.9345 69.5003 88.6158 81.1817L85.966 83.8403ZM133.782 93.7021C133.716 93.7021 133.654 93.7021 133.588 93.7021H81.9604C69.9478 93.6182 60.2804 83.8182 60.3599 71.8057C60.3599 71.8013 60.3599 71.7969 60.3599 71.7924L64.1094 71.8189C64.0343 81.7602 72.0323 89.8775 81.9692 89.9482H133.597C133.65 89.9482 133.707 89.9482 133.764 89.9482C145.901 89.9526 155.74 80.1217 155.745 67.9855C155.749 62.5755 153.757 57.3597 150.149 53.3276L152.945 50.8279C162.418 61.4184 161.508 77.6795 150.922 87.1526C146.21 91.3702 140.106 93.7021 133.782 93.7021ZM64.1094 71.8189L60.3599 71.7924C60.4261 61.2373 68.0709 52.2588 78.4847 50.5055L79.1118 54.2064C70.491 55.655 64.1668 63.0833 64.1094 71.8189ZM111.806 67.8133L108.052 67.7868C108.158 53.5793 119.76 42.1497 133.968 42.2557C141.219 42.3087 148.113 45.4223 152.949 50.8279L150.154 53.3276C142.063 44.2828 128.173 43.51 119.129 51.6008C114.509 55.7345 111.85 61.6215 111.806 67.8133Z" fill="white"/>
</g>
<path d="M0 137H484" stroke="white" stroke-opacity="0.2"/>
<defs>
<linearGradient id="paint0_linear" x1="113.096" y1="64.8778" x2="90.4297" y2="32.5072" gradientUnits="userSpaceOnUse">
<stop offset="0.1949" stop-color="white" stop-opacity="0"/>
<stop offset="0.2866" stop-color="white" stop-opacity="0.03"/>
<stop offset="0.5006" stop-color="white" stop-opacity="0.2"/>
<stop offset="0.7931" stop-color="white" stop-opacity="0.74"/>
<stop offset="1" stop-color="white"/>
</linearGradient>
<linearGradient id="paint1_linear" x1="58.1126" y1="68.0195" x2="80.9225" y2="54.8502" gradientUnits="userSpaceOnUse">
<stop offset="0.08" stop-color="white"/>
<stop offset="0.7528" stop-color="white" stop-opacity="0.07"/>
<stop offset="0.8746" stop-color="white" stop-opacity="0"/>
</linearGradient>
<linearGradient id="paint2_linear" x1="110.249" y1="70.505" x2="144.945" y2="41.3916" gradientUnits="userSpaceOnUse">
<stop offset="0.1381" stop-color="white" stop-opacity="0"/>
<stop offset="0.3197" stop-color="white" stop-opacity="0.07"/>
<stop offset="0.8473" stop-color="white" stop-opacity="0.7638"/>
<stop offset="0.9469" stop-color="white"/>
</linearGradient>
</defs>
</svg>
