<?xml version="1.0" encoding="UTF-8"?>
<svg width="87px" height="89px" viewBox="0 0 87 89" version="1.1" xmlns="http://www.w3.org/2000/svg" xmlns:xlink="http://www.w3.org/1999/xlink">
    <!-- Generator: Sketch 52.5 (67469) - http://www.bohemiancoding.com/sketch -->
    <title>Artboard</title>
    <desc>Created with Sketch.</desc>
    <g id="Artboard" stroke="none" stroke-width="1" fill="none" fill-rule="evenodd">
        <g id="Group" transform="translate(18.000000, 9.000000)">
            <circle id="Oval" stroke="#4422EE" cx="34.8" cy="27.9" r="6.5"></circle>
            <path d="M33.1,68.1 L42.4,62.7 L37.2,53.7 C36.6,52.7 36.7,51.4 37.3,50.6 L44.4,40.6 C49,34.2 51.5,26.3 51.5,18.3 L51.5,3.8 C51.5,1.5 49.1,0.1 47.1,1.3 C42.1,4.2 34.5,8.6 34.5,8.6 C27.6,12.5 22.1,18.6 18.8,25.9 L13.8,37.1 C13.3,38.2 12.3,38.8 11.2,38.8 L0.8,38.8 L0.8,49.5" id="Path" stroke="#0A025D"></path>
            <path d="M15,70.7 C17.4,69.5 20.5,67.8 21.4,66.1 L21.5,65.9 C23.3,62.8 22.2,58.8 19.1,57" id="Path" stroke="#4422EE"></path>
            <path d="M8.3,67.1 C8.2,64.5 8.1,60.9 9.1,59.1 L9.2,58.9 C11,55.8 15,54.7 18.1,56.5" id="Path" stroke="#4422EE"></path>
        </g>
    </g>
</svg>