<svg width="652" height="652" viewBox="0 0 652 652" fill="none" xmlns="http://www.w3.org/2000/svg">
<path d="M410.6 383.4C409.7 383.4 409.1 382.8 409.1 381.9V324.1C409.1 313.5 412.4 305.3 418.8 299.5C425.2 293.7 434.5 290.8 446 290.8C452.1 290.5 458.2 291.5 463.9 293.8C468.1 295.6 470.2 298.4 470.2 302.3C470.2 304.1 469.6 306 468.7 307.5C468 308.7 466.8 309.4 465.4 309.4C465 309.4 464.5 309.3 464.1 309.1C462.8 308.7 461.4 308.2 459.9 307.8C456.5 306.9 452.9 306.5 449.3 306.5C434.5 306.5 427.1 314.4 427.1 329.9V381.8C427.1 382.7 426.5 383.3 425.6 383.3H410.6V383.4ZM278 382.5C280.8 381.9 283.5 381.2 286.2 380.1C288.3 379.4 290.4 378.3 292.3 377.1C293.9 376.1 294.5 373.8 293.5 372.2L290.2 366.7C289.6 365.7 288.6 364.9 287.4 364.8H287C286.6 364.8 286 364.9 285.5 365.1C284.6 365.4 283.7 365.8 282.7 366.1C279.4 367.3 276 367.7 272.6 367.7C270.4 367.7 268.3 367.4 266.2 367C264.1 366.6 262.2 365.7 260.5 364.3C258.9 363 257.5 361.2 256.6 359.1C255.6 356.6 255.1 353.7 255.3 351V312.8C255.3 311.2 256.6 309.8 258.3 309.8H275.5C280.1 309.8 283.7 306.1 283.7 301.4C283.7 299.9 283.3 298.4 282.5 297.2C281.2 294.8 278.8 293.5 275.9 293.5H258.4C256.8 293.5 255.4 292.2 255.4 290.5V274.4C255.4 270.2 252.1 266.9 247.9 266.9H244.9C240.7 266.9 237.4 270.2 237.4 274.4V355C237.4 363.5 239.9 370.4 245.2 375.6C250.5 380.8 258 383.4 268.2 383.4C271.4 383.4 274.7 383.1 278 382.5ZM565.8 337.2C565.8 362.7 545.1 383.5 519.5 383.5C494 383.5 473.2 362.8 473.2 337.2C473.2 311.6 493.9 290.9 519.5 290.9C545 290.9 565.8 311.6 565.8 337.2ZM548.6 337.2C548.6 321.1 535.6 308.1 519.5 308.1C503.4 308.1 490.4 321.1 490.4 337.2C490.4 353.3 503.4 366.3 519.5 366.3C535.6 366.3 548.6 353.3 548.6 337.2ZM392.6 337.2C392.6 362.7 371.9 383.5 346.3 383.5C320.8 383.5 300 362.8 300 337.2C300 311.6 320.7 290.9 346.3 290.9C371.9 290.9 392.6 311.6 392.6 337.2ZM375.5 337.2C375.5 321.1 362.5 308.1 346.4 308.1C330.3 308.1 317.3 321.1 317.3 337.2C317.3 353.3 330.3 366.3 346.4 366.3C362.5 366.3 375.5 353.3 375.5 337.2ZM113.5 337.2C113.5 362.7 92.8 383.5 67.2 383.5C41.6 383.5 21 362.7 21 337.2C21 311.7 41.7 290.9 67.3 290.9C92.9 290.9 113.5 311.6 113.5 337.2ZM96.4 337.2C96.4 321.1 83.4 308.1 67.3 308.1C51.2 308.1 38.2 321.1 38.2 337.2C38.2 353.3 51.2 366.3 67.3 366.3C83.4 366.3 96.4 353.3 96.4 337.2ZM220.7 341.9C218 367.3 195.3 385.8 170 383.1C161.3 382.2 153.3 378.9 146.4 373.7V405.8C146.4 406.7 145.8 407.3 144.9 407.3H130C129.1 407.3 128.5 406.7 128.5 405.8V334.9C128.4 318.5 137.8 303.3 152.5 296.1C188.8 278.8 224.3 307 220.7 341.9ZM203.8 337.2C203.8 321.1 190.8 308.1 174.7 308.1C158.6 308.1 145.6 321.1 145.6 337.2C145.6 353.3 158.6 366.3 174.7 366.3C190.8 366.3 203.8 353.3 203.8 337.2Z" fill="white"/>
<path d="M527 236.6C527 236.2 527.4 235.7 527.9 235.7H621V328.8C621 329.2 620.6 329.7 620.1 329.7C619.7 329.7 619.2 329.4 619.2 328.8C615.2 280.1 576.5 241.5 527.9 237.5C527.3 237.5 527 237.2 527 236.6Z" fill="white"/>
</svg>
