<svg width="484" height="272" viewBox="0 0 484 272" fill="none" xmlns="http://www.w3.org/2000/svg">
<path d="M112.419 267.051C115.509 266.309 118.246 264.516 120.165 261.978L120.286 261.826C119.566 262.328 118.873 262.777 118.191 263.182C114.207 265.551 109.978 266.262 105.623 265.299C102.948 264.707 100.207 263.618 97.0169 261.878C99.0395 263.992 101.534 265.595 104.295 266.553C106.893 267.526 109.722 267.7 112.419 267.051ZM87.8566 201.081C88.2257 201.735 88.1714 201.978 87.67 202.457C85.0222 204.947 83.0925 208.105 82.084 211.601C81.2993 214.306 81.4274 217.052 81.6712 219.808C81.8896 222.278 82.0946 224.75 82.2862 227.222C82.4106 228.834 82.4305 230.457 82.6176 232.061C82.9696 235.077 83.1768 238.103 83.3837 241.13C83.5276 243.235 83.6575 245.342 84.1864 247.397C84.8938 250.146 85.9958 252.753 87.0556 255.375C87.4508 256.352 87.8704 257.323 88.3068 258.345L88.4185 258.208C88.592 257.942 88.6893 257.633 88.6997 257.315C88.7158 257.199 88.7323 257.084 88.753 256.97C89.35 253.89 90.5717 250.965 92.3425 248.377C93.836 246.147 95.5833 244.098 97.5493 242.273C99.1255 240.75 100.947 239.506 102.936 238.591C104.844 237.745 106.94 237.417 109.014 237.64C111.517 237.925 113.925 238.765 116.064 240.099C118.959 241.818 121.531 244.031 123.664 246.638C125.496 248.804 126.983 251.241 128.073 253.862C128.085 253.893 128.096 253.925 128.106 253.959L128.138 253.96C129.328 251.086 130.372 248.162 130.922 245.089C131.456 242.104 131.906 239.104 132.395 236.111C132.877 233.164 133.374 230.219 133.787 227.261C134.243 223.997 134.665 220.728 135.055 217.455C135.332 215.136 135.444 212.825 134.999 210.509C134.304 206.887 132.726 203.796 129.763 201.504C129.154 201.032 129.106 200.722 129.512 200.038C131.544 196.558 133.36 192.955 134.948 189.25C137.473 183.458 139.695 177.561 140.48 171.232C140.876 168.497 140.832 165.715 140.348 162.994C139.364 157.996 135.544 154.086 130.674 153.21C127.845 152.701 125.332 153.388 123.296 155.505C121.761 157.134 120.561 159.049 119.761 161.141C117.317 167.278 116.217 173.712 115.608 180.249C115.379 182.711 115.184 185.177 114.977 187.641L114.996 187.634L115.123 187.722L115.142 187.714C115.192 187.693 115.241 187.674 115.291 187.659C115.76 187.51 116.247 187.425 116.738 187.406L117.363 187.388L117.161 187.981C117.064 188.253 116.937 188.514 116.782 188.758C116.494 189.239 116.288 189.766 116.172 190.315C116.028 190.905 116.04 191.523 116.207 192.107C116.219 192.148 116.235 192.188 116.256 192.225C116.267 192.219 116.314 192.212 116.397 192.183C116.532 192.131 116.656 192.053 116.762 191.954C117.173 191.584 117.469 191.103 117.614 190.569C117.901 189.428 118.022 188.251 117.973 187.075L117.993 184.231L118.82 186.737C118.89 186.949 118.978 187.168 119.067 187.393C119.077 187.416 119.086 187.44 119.095 187.463C119.075 186.526 118.997 185.59 118.956 184.653C118.915 183.714 118.969 182.778 119.005 181.839C119.179 177.3 119.651 172.799 120.883 168.414C121.682 165.574 122.743 162.829 124.576 160.473C125.574 159.191 126.804 158.14 128.447 157.8C130.588 157.356 132.531 157.966 134.247 159.232C135.857 160.418 136.646 162.159 137.107 164.053C137.528 165.994 137.57 167.998 137.229 169.955C136.575 174.443 135.356 178.83 133.599 183.01C131.662 187.745 129.142 192.218 126.097 196.326C125.255 197.466 124.291 198.51 123.221 199.439C122.465 200.084 122.023 200.031 121.534 199.17C120.845 197.905 120.331 196.551 120.007 195.147L119.933 195.116C119.905 195.174 119.877 195.244 119.844 195.328C119.789 195.482 119.718 195.629 119.632 195.769C119.592 195.82 119.571 195.884 119.572 195.95C119.574 196.015 119.598 196.078 119.641 196.127C120.511 197.598 120.503 199.162 120.381 200.497C120.25 201.617 120.006 202.721 119.652 203.792L120.501 206.083L118.884 204.143C118.84 204.091 118.808 204.029 118.788 203.963C118.769 203.897 118.764 203.828 118.772 203.76C118.707 202.867 118.537 201.985 118.265 201.132C118.132 200.724 117.93 200.341 117.67 199.999C117.691 201.33 117.502 202.655 117.11 203.927C116.77 205.056 116.369 206.167 115.907 207.252L115.706 207.752L115.331 207.62C115.279 207.731 115.227 207.842 115.174 207.953C115.189 207.83 115.208 207.706 115.226 207.583L114.888 207.464C115.247 206.283 115.13 204.977 114.521 203.352C113.881 201.726 112.889 200.263 111.618 199.067C111.712 199.898 111.705 200.738 111.597 201.567C111.303 203.474 110.517 205.296 109.125 207.302C109.029 207.47 108.881 207.602 108.703 207.676L107.997 207.955L108.116 207.204C108.175 206.908 108.198 206.607 108.185 206.306C107.968 204.418 107.45 202.576 106.65 200.853C106.643 200.836 106.634 200.819 106.625 200.803C106.596 200.813 106.568 200.826 106.541 200.842C106.249 201.017 106.009 201.268 105.848 201.57C105.53 202.135 105.307 202.749 105.188 203.386C104.951 204.56 104.795 205.749 104.72 206.944C104.653 207.852 104.654 208.732 104.663 209.474L104.668 209.872L104.577 209.882L104.578 209.885L104.323 209.91C104.321 210.178 104.318 210.445 104.316 210.712C104.218 210.455 104.133 210.196 104.044 209.938L103.592 209.983L103.483 209.648C102.713 207.294 102.308 204.837 102.28 202.36C101.919 203.378 101.763 204.458 101.824 205.536L101.862 206.283L102.021 207.964L101.939 207.763L101.951 207.988L100.789 205.257C100.639 204.908 100.488 204.559 100.347 204.206C99.8016 202.863 99.4248 201.457 99.2254 200.021C99.1231 199.413 99.1457 198.791 99.2919 198.192C99.3021 198.162 99.3077 198.13 99.3084 198.098C99.3059 198.098 99.2902 198.081 99.2517 198.056C98.7251 197.707 98.3018 197.222 98.0257 196.653C97.5831 195.787 97.2306 194.878 96.9738 193.94C96.6592 195.779 96.0474 197.554 95.1625 199.195C94.6792 200.057 94.2429 200.089 93.4796 199.425C91.4717 197.679 89.947 195.542 88.5245 193.32C85.5477 188.735 83.1831 183.779 81.4912 178.578C80.5709 175.777 79.902 172.9 79.4925 169.98C79.3266 168.917 79.2444 167.843 79.2464 166.767C79.2658 164.82 79.7747 162.91 80.726 161.212C81.8273 159.289 83.5747 158.238 85.6972 157.795C88.6541 157.177 90.7615 158.574 92.4076 160.825C94.1456 163.201 95.145 165.937 95.9285 168.751C96.5504 171.094 96.9899 173.483 97.2429 175.895C97.4889 177.987 97.643 180.083 97.7237 182.19C97.7599 183.135 97.7468 184.076 97.7279 185.018C97.8476 184.694 97.9693 184.371 98.093 184.049L99.3342 180.792L99.1284 183.718C99.0741 184.767 99.1013 185.818 99.2097 186.863C99.27 187.622 99.3848 188.377 99.5532 189.12C99.9102 187.662 100.378 186.233 100.952 184.847L101.308 182.994L101.414 183.382C101.181 180.201 100.906 177.025 100.367 173.877C99.7596 170.326 99.1168 166.783 97.9638 163.358C97.133 160.708 95.825 158.233 94.1046 156.056C91.8645 153.323 88.6031 152.361 85.2334 153.422C82.3941 154.315 79.9767 155.806 78.3405 158.373C76.5296 161.214 75.9696 164.398 76.0013 167.69C76.0295 170.625 76.5651 173.506 77.2556 176.355C78.3977 181.069 80.1741 185.552 82.1579 189.961C83.8696 193.765 85.8066 197.452 87.8566 201.081ZM111.719 222.689C112.474 219.69 114.071 216.97 116.322 214.852C117.595 213.625 119.265 212.894 121.03 212.793C122.032 212.734 123.03 212.976 123.894 213.489C126.79 215.19 128.781 217.61 129.643 220.89C129.929 221.88 129.944 222.929 129.686 223.927C129.428 224.924 128.908 225.834 128.179 226.561C125.751 229.191 122.506 230.919 118.974 231.467C118.139 231.565 117.3 231.619 116.459 231.626C115.859 231.672 115.255 231.664 114.656 231.602C114.154 231.513 113.684 231.299 113.287 230.978C112.891 230.658 112.583 230.242 112.391 229.769C111.299 227.574 111.059 225.051 111.719 222.689ZM91.5393 214.024C92.5718 213.265 93.7948 212.81 95.0712 212.708C95.9184 212.67 96.7602 212.86 97.5086 213.26C101.017 215.053 103.243 217.898 104.332 221.663C104.75 222.951 104.972 224.294 104.99 225.649C104.993 227.021 104.678 228.375 104.072 229.604C103.803 230.258 103.338 230.81 102.74 231.185C102.143 231.559 101.443 231.737 100.74 231.693C96.2264 231.65 92.1447 230.419 88.8177 227.207C87.7663 226.192 86.899 225.049 86.5805 223.572C86.3783 222.651 86.4208 221.693 86.7036 220.794C87.49 218.047 89.198 215.656 91.5393 214.024Z" fill="white"/>
<path d="M127.963 254.387C128.608 256.679 128.727 258.963 127.829 261.222C126.982 263.352 125.548 265.053 123.824 266.506C120.907 268.963 117.273 270.406 113.468 270.618C111.799 270.755 110.124 270.794 108.45 270.733C104.555 270.547 100.656 270.325 96.9031 269.109C94.8146 268.432 92.904 267.45 91.3846 265.809C89.8808 264.184 89.1507 262.234 88.9165 260.061C88.8599 259.536 88.9348 258.996 88.7539 258.484C88.7121 258.63 88.6703 258.776 88.5978 259.029C88.4997 258.797 88.4034 258.571 88.307 258.346L88.2637 258.399L88.3454 258.63C88.4289 258.923 88.466 259.227 88.4555 259.532C88.4602 259.724 88.4648 259.917 88.4856 260.108C88.749 262.551 89.593 264.512 91.0667 266.104C92.4824 267.634 94.2945 268.72 96.7698 269.522C100.419 270.705 104.055 270.959 108.43 271.167C108.917 271.19 109.404 271.2 109.882 271.2C111.211 271.2 112.474 271.125 113.499 271.051C117.394 270.828 121.113 269.35 124.103 266.838C126.085 265.169 127.436 263.384 128.231 261.383C129.079 259.253 129.128 256.925 128.381 254.269L128.296 253.97L128.138 253.961C128.08 254.103 128.022 254.245 127.963 254.387L127.963 254.387Z" fill="white"/>
<path d="M104.149 266.97C106.828 267.965 109.74 268.142 112.519 267.48C115.699 266.707 118.518 264.863 120.502 262.255C121.03 261.673 121.462 261.01 121.781 260.291C121.65 260.299 121.526 260.358 121.437 260.455C120.325 261.306 119.167 262.094 117.968 262.815C114.148 265.085 110.082 265.847 105.715 264.88C102.61 264.193 99.7543 262.9 96.9884 261.375C96.4445 261.075 95.9038 260.769 95.3354 260.451C95.3334 260.514 95.3456 260.577 95.3712 260.634C95.3969 260.692 95.4352 260.743 95.4833 260.784C97.7177 263.639 100.727 265.787 104.149 266.97ZM105.621 265.305C109.976 266.268 114.205 265.557 118.189 263.189C118.871 262.783 119.564 262.335 120.284 261.832L120.163 261.984C118.244 264.522 115.506 266.315 112.417 267.058C109.72 267.706 106.891 267.533 104.293 266.56C101.532 265.601 99.0374 263.999 97.0148 261.885C100.205 263.624 102.946 264.713 105.621 265.305ZM128.071 253.869C126.981 251.247 125.494 248.811 123.662 246.645C121.529 244.037 118.957 241.824 116.062 240.106C113.923 238.772 111.515 237.932 109.012 237.646C106.938 237.423 104.842 237.751 102.934 238.597C100.945 239.512 99.1234 240.757 97.5472 242.279C95.5812 244.104 93.8339 246.153 92.3404 248.383C90.5696 250.971 89.3479 253.896 88.7509 256.977C88.7302 257.09 88.7137 257.205 88.6976 257.321C88.6872 257.639 88.5899 257.948 88.4164 258.215L88.3047 258.351C88.4011 258.577 88.4974 258.803 88.5955 259.034C88.668 258.782 88.7098 258.636 88.7517 258.49C89.0911 256.982 89.3456 255.454 89.8701 253.99C90.845 251.294 92.2588 248.779 94.0541 246.546C95.9756 244.132 98.0732 241.891 100.667 240.177C102.389 238.98 104.374 238.218 106.452 237.957C107.873 237.812 109.307 237.907 110.696 238.238C113.814 238.966 116.503 240.536 118.982 242.492C122.532 245.293 125.392 248.874 127.343 252.959C127.57 253.427 127.756 253.914 127.961 254.392C128.02 254.251 128.077 254.109 128.136 253.967L128.104 253.965C128.094 253.931 128.083 253.899 128.071 253.869Z" fill="white"/>
<path d="M91.3826 265.808C92.9019 267.45 94.8126 268.432 96.9011 269.109C100.654 270.325 104.553 270.547 108.448 270.732C110.122 270.794 111.797 270.755 113.466 270.617C117.271 270.406 120.905 268.963 123.822 266.506C125.546 265.053 126.98 263.352 127.827 261.222C128.725 258.963 128.606 256.679 127.961 254.387V254.386C127.733 254.374 127.725 254.165 127.669 254.025C126.595 251.445 125.13 249.047 123.327 246.914C121.228 244.344 118.694 242.164 115.841 240.474C113.755 239.175 111.409 238.355 108.969 238.073C106.97 237.855 104.949 238.171 103.111 238.989C101.166 239.884 99.3849 241.102 97.8436 242.591C95.9009 244.392 94.1753 246.415 92.7021 248.618C90.9678 251.159 89.7686 254.028 89.1778 257.05C89.0874 257.537 89.0935 258.067 88.752 258.484C88.9328 258.996 88.8579 259.535 88.9145 260.061C89.1487 262.234 89.8788 264.184 91.3826 265.808ZM89.5571 257.435C89.5711 257.332 89.5855 257.23 89.6041 257.129C90.1801 254.164 91.3574 251.349 93.0631 248.859C94.5194 246.685 96.2229 244.688 98.1395 242.908C99.6455 241.452 101.386 240.262 103.287 239.386C105.057 238.601 107.002 238.297 108.926 238.505C111.303 238.779 113.589 239.579 115.619 240.848C118.427 242.514 120.923 244.66 122.992 247.19C124.767 249.287 126.209 251.647 127.266 254.186C127.273 254.203 127.278 254.221 127.283 254.24C127.329 254.432 127.442 254.601 127.602 254.718C128.234 257.094 128.175 259.171 127.424 261.061C126.682 262.926 125.413 264.598 123.543 266.173C120.692 268.565 117.147 269.972 113.435 270.184C111.783 270.319 110.125 270.358 108.469 270.298C104.16 270.093 100.582 269.845 97.0346 268.695C94.7063 267.941 93.0115 266.929 91.7008 265.513C90.3588 264.063 89.5884 262.265 89.3458 260.014C89.328 259.848 89.3246 259.68 89.3208 259.512C89.325 259.193 89.2936 258.875 89.2272 258.562C89.4148 258.214 89.5272 257.83 89.5571 257.435Z" fill="white"/>
<path d="M104.009 267.372C105.686 267.977 107.454 268.291 109.237 268.3C110.378 268.3 111.515 268.164 112.624 267.894C115.896 267.094 118.797 265.197 120.845 262.517L120.994 262.33C121.493 261.768 121.897 261.129 122.191 260.437L122.407 259.857L121.79 259.849H121.779C121.555 259.855 121.341 259.944 121.179 260.101C120.08 260.942 118.936 261.72 117.75 262.433C113.961 264.685 109.944 265.363 105.811 264.448C103.154 263.86 100.417 262.76 97.2011 260.986C96.8412 260.788 96.4825 260.586 96.1166 260.381L94.9388 259.723L94.9054 260.423C94.8994 260.538 94.9179 260.653 94.9595 260.76C95.0011 260.867 95.0649 260.965 95.1468 261.046C97.4349 263.962 100.511 266.158 104.009 267.372ZM96.9917 261.367C99.7576 262.892 102.613 264.186 105.718 264.873C110.085 265.839 114.152 265.077 117.971 262.807C119.17 262.086 120.329 261.298 121.44 260.448C121.53 260.35 121.653 260.291 121.785 260.284C121.465 261.002 121.033 261.665 120.506 262.247C118.521 264.855 115.703 266.7 112.522 267.472C109.743 268.134 106.831 267.957 104.153 266.962C100.73 265.779 97.7211 263.631 95.4866 260.776C95.4385 260.735 95.4002 260.684 95.3746 260.627C95.349 260.569 95.3367 260.506 95.3387 260.443C95.9071 260.761 96.4478 261.067 96.9917 261.367Z" fill="white"/>
<path d="M112.349 260.348C112.541 260.438 112.75 260.485 112.961 260.485C113.179 260.483 113.393 260.437 113.593 260.35C115.455 259.594 117.24 258.661 118.925 257.563C119.633 257.096 120.312 256.586 120.959 256.035C121.978 255.196 122.693 254.043 122.993 252.756L123.01 252.681C123.158 252.03 123.325 251.291 123.031 250.546C122.461 249.1 120.347 247.664 118.764 247.647C118.748 247.647 118.731 247.646 118.715 247.646C116.554 247.646 115.024 249.178 114.902 251.471C114.817 253.065 114.342 254.614 113.521 255.983L113.47 256.072C113.449 256.108 113.429 256.144 113.406 256.18C113.094 256.684 112.752 257.186 112.422 257.672C112.223 257.965 112.024 258.258 111.829 258.554C111.72 258.698 111.645 258.864 111.608 259.041C111.572 259.219 111.576 259.402 111.619 259.577C111.676 259.752 111.771 259.912 111.897 260.046C112.024 260.179 112.178 260.282 112.349 260.348ZM112.191 258.793C112.716 257.997 113.271 257.22 113.774 256.41C113.817 256.342 113.854 256.273 113.894 256.204C114.753 254.777 115.248 253.159 115.335 251.494C115.446 249.411 116.823 248.061 118.76 248.082C120.147 248.097 122.118 249.415 122.628 250.706C122.882 251.351 122.716 252.016 122.57 252.66C122.29 253.856 121.625 254.926 120.677 255.705C120.043 256.244 119.378 256.743 118.685 257.201C117.022 258.281 115.261 259.202 113.425 259.95C113.285 260.015 113.132 260.049 112.978 260.05C112.824 260.05 112.671 260.017 112.53 259.953C111.997 259.706 111.866 259.286 112.191 258.793V258.793ZM97.801 256.523C98.1034 256.766 98.4341 257.011 98.8415 257.292C100.49 258.37 102.219 259.319 104.014 260.13C104.328 260.272 104.659 260.374 104.998 260.433C105.088 260.451 105.179 260.46 105.27 260.46C105.489 260.456 105.704 260.404 105.899 260.305C106.094 260.207 106.265 260.066 106.398 259.892C106.721 259.496 106.679 259.031 106.274 258.509C106.156 258.345 106.052 258.17 105.965 257.987C105.85 257.744 105.708 257.515 105.542 257.304C105.161 256.851 104.824 256.363 104.535 255.846C103.773 254.46 103.345 252.913 103.287 251.331C103.169 249.198 101.587 247.649 99.5267 247.646H99.5229C98.3887 247.649 97.2995 248.091 96.4831 248.88C95.7145 249.551 95.2193 250.482 95.092 251.496C94.9648 252.51 95.2144 253.535 95.7933 254.376C96.3456 255.193 97.0232 255.917 97.801 256.523ZM96.7763 249.2C97.5141 248.485 98.4996 248.084 99.5261 248.081C100.399 248.079 101.237 248.422 101.86 249.034C102.483 249.647 102.84 250.481 102.854 251.356C102.918 253.004 103.365 254.614 104.158 256.059C104.46 256.6 104.813 257.11 105.211 257.584C105.496 257.923 105.641 258.402 105.932 258.776C106.117 259.014 106.308 259.316 106.062 259.617C105.952 259.768 105.801 259.885 105.628 259.954C105.454 260.023 105.265 260.041 105.081 260.007C104.778 259.954 104.483 259.864 104.202 259.738C102.427 258.938 100.717 258.001 99.0877 256.934C98.7426 256.696 98.402 256.449 98.0724 256.184C97.3303 255.607 96.6836 254.916 96.1559 254.137C95.6314 253.383 95.4045 252.461 95.5191 251.549C95.6337 250.637 96.0817 249.8 96.7763 249.2Z" fill="white"/>
<path d="M92.7021 248.612C94.1753 246.409 95.9009 244.386 97.8436 242.585C99.3849 241.096 101.166 239.878 103.111 238.983C104.949 238.165 106.97 237.849 108.969 238.067C111.409 238.349 113.755 239.169 115.841 240.468C118.694 242.158 121.228 244.338 123.327 246.908C125.13 249.041 126.595 251.439 127.669 254.019C127.725 254.16 127.733 254.368 127.961 254.381C127.756 253.903 127.57 253.415 127.343 252.947C125.393 248.863 122.532 245.282 118.983 242.48C116.503 240.525 113.814 238.955 110.696 238.226C109.307 237.895 107.873 237.8 106.453 237.945C104.374 238.206 102.389 238.968 100.668 240.165C98.0735 241.879 95.9759 244.12 94.0544 246.535C92.2591 248.767 90.8453 251.283 89.8704 253.979C89.3459 255.442 89.0914 256.97 88.752 258.479C89.0935 258.061 89.0874 257.531 89.1778 257.044C89.7686 254.023 90.9678 251.154 92.7021 248.612ZM119.096 188.241C119.151 188.268 119.199 188.308 119.237 188.356C119.274 188.405 119.3 188.462 119.313 188.522C119.781 190.049 120.225 191.584 120.157 193.204C120.138 193.678 120.191 194.191 119.84 194.599C120.087 194.701 120.079 194.954 120.134 195.159C120.136 195.169 120.139 195.179 120.142 195.189L120.261 194.702C120.707 192.87 120.356 191.109 119.955 189.627C119.861 189.283 119.758 188.941 119.656 188.6L119.404 187.792L119.25 187.795C119.236 187.947 119.195 188.096 119.127 188.233C119.117 188.233 119.106 188.234 119.096 188.233L119.096 188.241L119.096 188.241ZM97.2862 185.814C96.7421 187.691 96.5106 189.645 96.601 191.597C96.62 191.899 96.6522 192.2 96.6852 192.5L96.7572 193.203L96.7984 193.213C96.7782 193.122 96.7526 193.034 96.734 192.943L96.7263 192.89L96.6751 192.297L96.9504 192.358C96.929 192.206 96.9276 192.05 96.92 191.899C96.799 190.076 96.9716 188.245 97.431 186.477C97.4861 186.276 97.5055 186.055 97.7 185.922C97.4965 185.708 97.5671 185.447 97.5942 185.202L97.4814 185.089L97.2862 185.814ZM110.882 185.696L110.882 185.696C111.105 185.694 111.319 185.779 111.481 185.933C111.405 185.808 111.335 185.681 111.254 185.559L110.289 184.106L110.412 185.344C110.428 185.35 110.445 185.355 110.461 185.361C110.634 185.422 110.783 185.54 110.882 185.696ZM113.468 189.141C113.887 188.709 114.385 188.361 114.935 188.117H114.935C114.949 187.956 114.962 187.796 114.975 187.636L114.78 187.711C114.238 187.942 113.744 188.273 113.325 188.687C113.339 188.74 113.355 188.791 113.368 188.844C113.391 188.946 113.376 189.063 113.468 189.141ZM101.472 184.709L101.472 184.709L101.472 184.709C101.595 185.754 101.658 186.806 101.661 187.858C101.867 188.699 102.19 189.506 102.621 190.256C103.158 188.821 103.598 187.442 103.2 185.882C103.713 186.206 103.957 186.686 104.337 187.031C104.428 186.915 104.524 186.808 104.62 186.701C104.496 186.58 104.379 186.451 104.271 186.314C104.037 186.003 103.753 185.733 103.431 185.515L102.51 184.932L102.78 185.99C103.014 187.044 102.934 188.143 102.551 189.152C102.357 188.699 102.2 188.23 102.082 187.752L102.063 187.677L102.02 187.614C101.853 187.306 101.769 186.959 101.778 186.609C101.767 186.453 101.754 186.298 101.733 186.146C101.673 185.84 101.687 185.525 101.774 185.226C101.826 185.088 101.834 184.937 101.797 184.794L101.412 183.377C101.428 183.591 101.443 183.804 101.459 184.018C101.475 184.247 101.468 184.479 101.472 184.709Z" fill="white"/>
<path d="M119.093 188.249L119.094 188.242L119.09 188.242L119.093 188.249L119.093 188.249ZM114.85 203.355C114.087 201.446 112.887 199.743 111.347 198.384C111.328 198.367 111.292 198.371 111.21 198.353C111.878 201.921 110.528 204.873 108.5 207.642C108.452 207.613 108.415 207.569 108.396 207.516C108.377 207.463 108.378 207.405 108.397 207.353C108.668 205.419 108.008 203.657 107.396 201.888C107.265 201.51 107.078 201.152 106.953 200.773C106.822 200.38 106.625 200.403 106.331 200.595C105.863 200.927 105.509 201.396 105.318 201.938C104.89 203.106 104.623 204.326 104.525 205.567C104.396 206.736 104.331 207.912 104.329 209.088C104.358 209.183 104.383 209.279 104.413 209.375L104.573 209.884L104.664 209.875L104.659 209.477C104.649 208.735 104.649 207.855 104.715 206.947C104.791 205.752 104.947 204.563 105.183 203.389C105.303 202.751 105.526 202.138 105.844 201.572C106.005 201.271 106.244 201.02 106.537 200.844C106.563 200.829 106.591 200.816 106.62 200.805C106.63 200.822 106.638 200.839 106.646 200.856C107.446 202.579 107.964 204.421 108.18 206.309C108.194 206.61 108.171 206.911 108.111 207.206L107.992 207.958L108.698 207.679C108.876 207.605 109.025 207.473 109.12 207.305C110.513 205.299 111.298 203.477 111.593 201.57C111.701 200.741 111.708 199.901 111.614 199.07C112.885 200.266 113.876 201.729 114.517 203.355C115.126 204.98 115.242 206.286 114.884 207.467L115.222 207.586C115.326 207.049 115.38 206.505 115.384 205.958C115.35 205.067 115.17 204.187 114.85 203.355ZM119.837 194.608C119.658 194.98 119.487 195.354 119.299 195.721C119.256 195.791 119.234 195.873 119.238 195.956C119.242 196.039 119.27 196.119 119.32 196.185C120.149 197.532 120.218 199.006 120.063 200.532C119.926 201.671 119.668 202.792 119.293 203.875H119.293C119.285 203.96 119.278 204.079 119.18 204.074C119.059 204.068 119.127 203.944 119.113 203.871C118.897 202.479 118.813 201.05 117.936 199.853C117.811 199.628 117.603 199.461 117.356 199.389C117.54 202.368 116.547 205.026 115.327 207.623L115.701 207.755L115.903 207.255C116.365 206.17 116.766 205.059 117.106 203.929C117.498 202.658 117.687 201.333 117.666 200.002C117.926 200.344 118.127 200.727 118.261 201.135C118.532 201.988 118.703 202.87 118.768 203.763C118.759 203.831 118.765 203.9 118.784 203.966C118.803 204.032 118.836 204.094 118.88 204.146L120.497 206.086L119.648 203.795C120.002 202.724 120.246 201.62 120.376 200.5C120.499 199.164 120.507 197.601 119.637 196.13C119.594 196.081 119.57 196.018 119.568 195.952C119.567 195.887 119.588 195.823 119.628 195.772C119.714 195.632 119.785 195.484 119.84 195.33C119.872 195.247 119.9 195.177 119.929 195.119L120.002 195.15C119.982 195.07 119.961 194.991 119.941 194.91C119.916 194.807 119.872 194.709 119.837 194.608ZM100.948 184.849C100.373 186.236 99.9058 187.665 99.5488 189.123C99.3804 188.38 99.2657 187.625 99.2054 186.865C99.0969 185.821 99.0697 184.769 99.1241 183.721L99.3299 180.795L98.0886 184.052C97.9649 184.374 97.8432 184.697 97.7235 185.021C97.7175 185.322 97.7114 185.623 97.7051 185.924C98.0362 185.055 98.3673 184.185 98.6984 183.316C98.7717 185.652 98.8449 187.964 99.5794 190.209C99.9831 188.357 100.556 186.546 101.29 184.799L101.29 184.799C101.35 184.772 101.409 184.745 101.469 184.718L101.469 184.718C101.466 184.487 101.473 184.256 101.456 184.026C101.441 183.812 101.425 183.599 101.409 183.385L101.304 182.997L100.948 184.849Z" fill="white"/>
<path d="M114.93 188.127C115.454 187.911 116.003 187.766 116.565 187.693C116.678 187.673 116.84 187.622 116.905 187.736C116.962 187.836 116.883 187.971 116.816 188.077C116.352 188.767 116.022 189.538 115.844 190.351C115.722 190.971 115.74 191.61 115.894 192.223C115.977 192.541 116.152 192.643 116.475 192.494C117.268 192.128 117.632 191.442 117.902 190.666C118.205 189.796 118.193 188.886 118.258 187.988C118.295 187.487 118.265 186.981 118.346 186.455C118.593 187.052 118.84 187.648 119.088 188.244L119.091 188.244C119.097 187.985 119.093 187.727 119.088 187.468C119.079 187.445 119.069 187.421 119.06 187.398C118.97 187.173 118.882 186.954 118.812 186.742L117.986 184.236L117.966 187.08C118.015 188.256 117.894 189.433 117.606 190.574C117.462 191.108 117.166 191.589 116.755 191.959C116.649 192.058 116.525 192.136 116.39 192.189C116.307 192.217 116.26 192.224 116.249 192.231C116.228 192.193 116.211 192.153 116.2 192.112C116.033 191.528 116.021 190.91 116.164 190.32C116.281 189.771 116.487 189.244 116.775 188.763C116.93 188.519 117.057 188.258 117.154 187.986L117.356 187.393L116.731 187.411C116.239 187.43 115.753 187.515 115.284 187.664C115.234 187.679 115.184 187.698 115.134 187.719L115.115 187.727L114.989 187.639L114.97 187.646C114.956 187.806 114.943 187.967 114.93 188.127H114.93Z" fill="white"/>
<path d="M101.369 185.079C101.39 185.026 101.395 184.967 101.382 184.911C101.378 184.928 101.375 184.946 101.372 184.964C100.707 186.537 100.196 188.172 99.8465 189.845C99.8157 190.012 99.7853 190.238 99.6015 190.248C99.384 190.26 99.3412 190.016 99.2936 189.847C99.0286 188.882 98.8563 187.893 98.7791 186.895C98.6684 185.828 98.641 184.755 98.6972 183.684C98.4419 184.354 98.1991 184.968 97.9788 185.59C97.9293 185.73 97.8984 185.896 97.7126 185.935L97.7076 185.929C97.176 187.76 96.9494 189.667 97.0368 191.572C97.054 191.847 97.0827 192.121 97.1124 192.395L97.2561 192.426C97.3814 192.452 97.4963 192.515 97.5866 192.605C97.5797 192.599 97.5761 192.59 97.5687 192.583L97.55 192.408C97.5191 192.121 97.4878 191.833 97.4696 191.545C97.3862 189.756 97.5901 187.966 98.0735 186.242C98.1575 186.179 98.2271 186.099 98.2776 186.007C98.2975 186.32 98.3216 186.629 98.3471 186.931C98.4256 187.957 98.6029 188.973 98.8764 189.965L98.8883 190.009C98.9349 190.183 99.0852 190.719 99.626 190.682C100.141 190.653 100.237 190.124 100.273 189.924C100.446 189.022 100.683 188.134 100.981 187.266C101.025 187.539 101.12 187.8 101.261 188.036C101.476 188.892 101.808 189.712 102.249 190.476L102.708 191.272L103.03 190.411C103.484 189.359 103.741 188.233 103.79 187.089C103.84 187.146 103.892 187.202 103.947 187.257C103.995 187.388 104.067 187.507 104.159 187.611C104.177 187.633 104.195 187.655 104.212 187.678C104.752 188.408 105.215 189.192 105.594 190.018C105.692 190.248 105.787 190.478 105.897 190.745L106.6 192.445L106.888 191.07C107.118 189.932 107.457 188.818 107.9 187.744C108.128 188.989 108.525 190.196 109.079 191.333C109.118 191.45 109.189 191.553 109.284 191.632C109.378 191.711 109.492 191.762 109.614 191.779C109.731 191.78 109.846 191.747 109.946 191.685C110.045 191.624 110.126 191.536 110.179 191.431C110.927 190.359 111.386 189.112 111.512 187.81C111.88 188.601 112.188 189.412 112.477 190.2L112.775 191.015L113.805 189.426C114.139 189.09 114.523 188.808 114.943 188.588C115.124 188.62 115.309 188.594 115.475 188.514C115.496 188.504 115.518 188.496 115.54 188.488C115.706 188.439 115.859 188.398 116.005 188.367C115.685 188.914 115.455 189.51 115.324 190.131C115.152 190.866 115.171 191.634 115.38 192.359C115.411 192.493 115.469 192.619 115.551 192.729C115.633 192.839 115.738 192.931 115.857 192.998C115.987 193.056 116.127 193.086 116.27 193.087C116.412 193.087 116.552 193.058 116.682 193.001C116.922 192.913 117.143 192.78 117.332 192.608C117.867 192.132 118.253 191.51 118.444 190.819C118.641 190.145 118.76 189.45 118.797 188.748L118.829 188.852C118.929 189.186 119.029 189.52 119.121 189.857C119.48 191.181 119.797 192.739 119.462 194.318C119.266 194.509 119.12 194.746 119.037 195.007C119.004 195.105 118.96 195.199 118.909 195.288C118.779 195.476 118.709 195.698 118.707 195.926C118.705 196.154 118.771 196.377 118.897 196.567C119.64 197.824 119.628 199.217 119.518 200.414C119.477 200.838 119.411 201.26 119.321 201.676C119.254 201.404 119.178 201.133 119.092 200.864C118.93 200.363 118.684 199.893 118.365 199.473L118.335 199.433C118.181 199.223 117.819 198.731 117.249 198.939C116.736 199.128 116.779 199.667 116.797 199.897L116.804 199.992C116.825 201.244 116.647 202.491 116.277 203.686C116.155 204.118 116.015 204.543 115.866 204.962C115.751 204.307 115.574 203.664 115.335 203.043C114.644 201.284 113.57 199.701 112.192 198.409C112.158 198.374 112.125 198.337 112.095 198.298C111.95 198.124 111.565 197.662 111.034 197.938C110.565 198.184 110.676 198.712 110.723 198.938C110.735 198.989 110.745 199.04 110.751 199.092C110.842 199.869 110.839 200.654 110.741 201.431C110.473 203.018 109.886 204.534 109.014 205.885C108.76 204.023 108.231 202.21 107.446 200.503C107.401 200.379 107.33 200.267 107.238 200.174C107.145 200.081 107.034 200.009 106.911 199.962C106.779 199.924 106.64 199.914 106.503 199.934C106.367 199.954 106.237 200.003 106.121 200.078C105.692 200.328 105.34 200.69 105.102 201.126C104.738 201.772 104.481 202.474 104.34 203.202C104.096 204.415 103.934 205.643 103.856 206.877C103.849 206.972 103.843 207.067 103.837 207.161C103.95 207.685 104.083 208.207 104.231 208.727C104.233 208.122 104.244 207.516 104.288 206.909C104.365 205.694 104.524 204.486 104.765 203.293C104.895 202.61 105.135 201.952 105.476 201.346C105.675 200.978 105.971 200.671 106.331 200.458C106.661 200.275 106.9 200.333 107.049 200.677C107.866 202.443 108.395 204.328 108.618 206.262C108.636 206.599 108.611 206.937 108.545 207.268C108.642 207.223 108.722 207.146 108.77 207.05C109.942 205.361 110.852 203.554 111.17 201.497C111.273 200.686 111.277 199.865 111.183 199.053C111.16 198.802 110.997 198.448 111.235 198.324C111.52 198.175 111.702 198.537 111.889 198.72C113.22 199.969 114.258 201.497 114.929 203.196C115.47 204.642 115.746 206.13 115.305 207.587C115.835 206.352 116.298 205.089 116.694 203.805C117.076 202.565 117.26 201.273 117.237 199.976C117.229 199.754 117.155 199.437 117.399 199.348C117.682 199.244 117.861 199.523 118.017 199.733C118.307 200.114 118.53 200.541 118.679 200.996C118.966 201.891 119.143 202.817 119.207 203.755C119.212 203.789 119.19 203.828 119.218 203.861C119.208 203.819 119.208 203.775 119.217 203.733C119.573 202.668 119.819 201.569 119.95 200.453C120.081 199.024 120.026 197.625 119.27 196.346C119.185 196.226 119.14 196.083 119.141 195.936C119.141 195.789 119.187 195.646 119.271 195.527C119.469 195.224 119.49 194.817 119.817 194.59C119.826 194.594 119.834 194.597 119.842 194.601C120.245 192.95 119.972 191.341 119.539 189.743C119.403 189.24 119.246 188.742 119.099 188.243L119.096 188.235C118.916 188.239 118.872 188.081 118.824 187.954C118.683 187.581 118.523 187.214 118.409 186.87C118.4 188.131 118.414 189.43 118.029 190.692C117.861 191.305 117.52 191.856 117.047 192.279C116.9 192.415 116.727 192.52 116.54 192.591C116.14 192.73 115.919 192.638 115.794 192.231C115.606 191.576 115.591 190.884 115.748 190.221C115.873 189.632 116.093 189.067 116.401 188.549C116.544 188.326 116.662 188.087 116.752 187.837C116.298 187.855 115.849 187.934 115.416 188.072C115.262 188.118 115.11 188.239 114.938 188.118H114.938C114.388 188.363 113.89 188.711 113.471 189.143C113.29 189.423 113.109 189.702 112.883 190.05C112.391 188.56 111.724 187.134 110.897 185.802C111.008 186.409 111.072 187.023 111.089 187.64C110.989 188.918 110.549 190.145 109.815 191.194C109.627 191.484 109.548 191.3 109.457 191.119C108.844 189.844 108.428 188.484 108.221 187.085C108.182 186.851 108.143 186.617 108.093 186.31C107.334 187.783 106.786 189.356 106.464 190.981C106.275 190.527 106.138 190.186 105.993 189.847C105.603 188.993 105.125 188.182 104.566 187.427C104.479 187.304 104.354 187.199 104.34 187.033V187.033C103.96 186.688 103.716 186.208 103.203 185.884C103.601 187.444 103.161 188.823 102.624 190.258C102.193 189.508 101.87 188.701 101.664 187.86C101.324 187.359 101.385 186.764 101.307 186.208C101.235 185.832 101.257 185.445 101.369 185.079ZM104.247 210.458C104.244 210.277 104.241 210.096 104.238 209.915L104.135 209.926C104.198 210.097 104.236 210.276 104.247 210.458Z" fill="white"/>
<path d="M97.7111 185.94C97.8968 185.901 97.9278 185.735 97.9773 185.595C98.1976 184.973 98.4404 184.359 98.6957 183.689C98.6395 184.76 98.6669 185.833 98.7776 186.9C98.8548 187.898 99.027 188.887 99.292 189.852C99.3397 190.021 99.3824 190.265 99.5999 190.253C99.7837 190.243 99.8141 190.017 99.8449 189.85C100.194 188.177 100.705 186.542 101.37 184.969C101.373 184.951 101.377 184.933 101.38 184.916C101.367 184.867 101.336 184.825 101.294 184.798L101.294 184.798L101.294 184.798C100.56 186.545 99.9871 188.356 99.5834 190.208C98.8489 187.963 98.7757 185.65 98.7024 183.314C98.3713 184.184 98.0402 185.054 97.7091 185.923L97.7061 185.934L97.7111 185.94ZM96.9497 193.253L96.7998 193.22C96.8333 193.37 96.8689 193.519 96.9065 193.667C96.9265 193.572 96.9499 193.478 96.9729 193.384C96.9716 193.378 96.9696 193.372 96.9683 193.366C96.9607 193.33 96.9552 193.293 96.9497 193.253ZM99.8226 202.236C99.502 201.003 99.1382 199.607 99.4199 198.124C99.4266 198.088 99.4343 198.048 99.2767 197.931C98.6941 197.479 98.2373 196.885 97.9504 196.205C97.5574 195.38 97.25 194.518 97.0329 193.63C97.0143 193.735 96.9932 193.838 96.9735 193.941C97.2303 194.88 97.5827 195.789 98.0253 196.655C98.3014 197.224 98.7248 197.708 99.2513 198.057C99.2899 198.082 99.3055 198.099 99.3081 198.1C99.3073 198.132 99.3018 198.164 99.2915 198.194C99.1454 198.793 99.1227 199.415 99.2251 200.023C99.4244 201.459 99.8013 202.865 100.347 204.207C100.487 204.561 100.638 204.91 100.789 205.259L101.951 207.989L101.939 207.765L102.02 207.965L100.792 204.95C100.408 204.068 100.084 203.162 99.8226 202.236ZM104.323 209.912L104.578 209.887L104.577 209.883L104.323 209.909V209.912ZM103.696 209.974L103.589 209.635C102.76 207.02 102.373 204.285 102.443 201.542C101.967 202.645 101.729 203.837 101.744 205.038L102.021 207.965L101.862 206.285L101.824 205.538C101.763 204.459 101.918 203.379 102.28 202.362C102.307 204.838 102.713 207.296 103.483 209.649L103.592 209.984L104.044 209.94L104.044 209.938L103.696 209.974ZM103.835 207.176L103.836 207.167C103.776 206.888 103.72 206.609 103.67 206.329C103.72 206.612 103.774 206.894 103.835 207.176ZM103.354 198.579L102.552 199.88C102.547 199.883 102.542 199.887 102.537 199.889C102.619 199.85 102.709 199.829 102.8 199.827C102.878 199.827 102.956 199.844 103.027 199.877C103.137 199.932 103.226 200.022 103.281 200.132C103.269 200.105 103.255 200.079 103.239 200.054L103.354 198.579Z" fill="white"/>
<path d="M97.1522 192.858C97.0387 192.718 96.9687 192.548 96.9511 192.369L96.6758 192.309L96.727 192.901L96.7346 192.954C96.7533 193.045 96.7789 193.133 96.7991 193.224L96.9489 193.258C96.9544 193.297 96.9599 193.335 96.9676 193.37C96.9689 193.376 96.9708 193.382 96.9722 193.389C97.0144 193.207 97.0675 193.029 97.1311 192.854C97.1386 192.855 97.1452 192.857 97.1522 192.858ZM102.104 202.477C102.195 202.159 102.308 201.848 102.442 201.547C102.372 204.289 102.759 207.024 103.588 209.639L103.695 209.978L104.043 209.942C103.994 209.801 103.94 209.66 103.894 209.519C102.92 206.563 102.542 203.442 102.782 200.337C101.783 201.891 101.296 203.719 101.39 205.564C101.175 205.06 100.952 204.559 100.749 204.051C100.216 202.741 99.8479 201.37 99.654 199.97C99.5587 199.421 99.577 198.859 99.7079 198.318C99.7557 198.205 99.7594 198.079 99.7183 197.964C99.6772 197.849 99.5943 197.753 99.4861 197.697C99.0241 197.388 98.6527 196.961 98.4103 196.46C97.8306 195.326 97.4097 194.116 97.1594 192.867L97.1593 192.867C97.1203 193.124 97.0779 193.38 97.0321 193.635C97.2493 194.522 97.5567 195.385 97.9496 196.209C98.2366 196.889 98.6933 197.484 99.276 197.936C99.4335 198.053 99.4259 198.093 99.4191 198.128C99.1375 199.611 99.5013 201.007 99.8219 202.24C100.083 203.166 100.407 204.073 100.791 204.955L102.02 207.97L101.744 205.042C101.708 204.172 101.83 203.303 102.104 202.477ZM104.332 209.091C104.331 209.219 104.328 209.347 104.327 209.476C104.325 209.622 104.324 209.768 104.322 209.914L104.576 209.887L104.416 209.378C104.386 209.282 104.361 209.186 104.332 209.091Z" fill="white"/>
<path d="M103.835 207.173C103.774 206.891 103.72 206.609 103.669 206.326C103.655 206.248 103.644 206.17 103.631 206.092C103.591 205.853 103.554 205.615 103.521 205.376C103.508 205.278 103.495 205.18 103.483 205.081C103.45 204.82 103.422 204.559 103.398 204.297C103.394 204.244 103.387 204.191 103.383 204.138C103.357 203.829 103.338 203.519 103.325 203.208C103.321 203.12 103.319 203.032 103.316 202.944C103.309 202.708 103.305 202.473 103.304 202.237C103.304 202.144 103.304 202.051 103.304 201.958C103.308 201.644 103.315 201.331 103.331 201.017C103.333 200.961 103.34 200.906 103.346 200.85C103.368 200.7 103.373 200.549 103.361 200.398C103.354 200.326 103.338 200.256 103.312 200.189C103.303 200.168 103.292 200.148 103.28 200.129C103.226 200.019 103.136 199.929 103.026 199.874C102.955 199.841 102.878 199.824 102.799 199.824C102.708 199.826 102.618 199.847 102.536 199.886C102.489 199.907 102.444 199.932 102.402 199.961C102.223 200.098 102.081 200.277 101.99 200.483C101.69 201.039 101.448 201.625 101.27 202.231C101.184 202.532 101.099 202.852 101.029 203.183C100.891 202.8 100.765 202.411 100.661 202.013C100.364 200.87 100.026 199.574 100.271 198.284C100.307 198.08 100.28 197.871 100.195 197.683C100.11 197.495 99.9697 197.337 99.7933 197.23C99.3279 196.864 98.9642 196.383 98.7367 195.836C98.3285 194.99 98.0197 194.1 97.8165 193.183C97.8122 193.163 97.8097 193.142 97.8071 193.121C97.8042 193.099 97.7995 193.068 97.7933 193.034C97.7916 193.025 97.7898 193.017 97.7878 193.007C97.7801 192.97 97.7703 192.933 97.7586 192.898C97.7563 192.89 97.7549 192.884 97.7522 192.876C97.7357 192.83 97.7149 192.785 97.6901 192.743C97.684 192.732 97.6765 192.722 97.6697 192.712C97.645 192.674 97.6164 192.639 97.5845 192.607C97.4942 192.517 97.3793 192.454 97.254 192.428L97.1104 192.396C97.1268 192.548 97.1437 192.7 97.1588 192.852C97.3826 192.902 97.3593 193.117 97.3919 193.273C97.6031 194.222 97.9222 195.143 98.343 196.019C98.6012 196.632 99.0113 197.169 99.5345 197.579C99.6439 197.638 99.7323 197.73 99.7879 197.841C99.8435 197.953 99.8636 198.079 99.8454 198.202C99.5894 199.548 99.9066 200.836 100.242 202.123C100.533 203.13 100.89 204.116 101.312 205.076C101.27 204.152 101.397 203.228 101.687 202.35C101.857 201.773 102.088 201.215 102.373 200.686C102.433 200.543 102.528 200.417 102.647 200.32C102.804 200.211 102.91 200.245 102.93 200.442C102.933 200.627 102.922 200.812 102.897 200.995C102.754 203.874 103.128 206.755 104.002 209.501C104.077 209.493 104.153 209.486 104.229 209.478C104.226 209.228 104.229 208.979 104.229 208.729C104.081 208.209 103.948 207.687 103.835 207.163L103.835 207.173ZM104.133 209.928L104.236 209.917V209.915L104.132 209.926L104.133 209.928Z" fill="white"/>
<path d="M103.998 209.506C104.037 209.631 104.072 209.757 104.113 209.883C104.119 209.899 104.122 209.915 104.128 209.931L104.232 209.921C104.229 209.775 104.226 209.629 104.224 209.484C104.149 209.491 104.073 209.498 103.998 209.506ZM102.893 201C102.918 200.817 102.929 200.632 102.925 200.447C102.905 200.25 102.8 200.216 102.643 200.325C102.523 200.423 102.429 200.548 102.369 200.691C102.083 201.221 101.853 201.778 101.682 202.356C101.392 203.234 101.265 204.157 101.308 205.081C100.886 204.122 100.528 203.135 100.237 202.128C99.9021 200.842 99.585 199.554 99.8409 198.207C99.8591 198.084 99.839 197.958 99.7834 197.847C99.7278 197.735 99.6394 197.644 99.5301 197.585C99.0069 197.175 98.5967 196.637 98.3385 196.024C97.9177 195.148 97.5986 194.227 97.3874 193.279C97.3548 193.123 97.3781 192.908 97.1543 192.857L97.1551 192.865L97.155 192.865L97.1551 192.865C97.4054 194.115 97.8264 195.324 98.406 196.458C98.6484 196.959 99.0198 197.386 99.4818 197.695C99.59 197.751 99.6729 197.847 99.714 197.962C99.7551 198.077 99.7514 198.203 99.7036 198.316C99.5727 198.857 99.5544 199.419 99.6497 199.968C99.8436 201.369 100.211 202.739 100.744 204.049C100.948 204.557 101.171 205.058 101.385 205.562C101.292 203.717 101.779 201.889 102.778 200.336C102.538 203.44 102.916 206.561 103.89 209.517C103.926 209.513 103.962 209.51 103.998 209.506C103.124 206.76 102.75 203.879 102.893 201ZM115.169 207.957C115.222 207.846 115.274 207.735 115.326 207.624L115.221 207.587C115.202 207.71 115.184 207.834 115.169 207.957Z" fill="white"/>
<path d="M117.358 199.388C117.605 199.46 117.814 199.626 117.938 199.852C118.815 201.049 118.9 202.478 119.115 203.87L119.296 203.874V203.874H119.296C119.671 202.79 119.929 201.67 120.065 200.531C120.22 199.004 120.152 197.531 119.322 196.184C119.273 196.117 119.244 196.038 119.241 195.955C119.237 195.872 119.258 195.79 119.302 195.719C119.489 195.353 119.661 194.978 119.839 194.607L119.839 194.606C119.831 194.603 119.823 194.599 119.814 194.596C119.487 194.823 119.466 195.229 119.268 195.532C119.184 195.652 119.138 195.795 119.138 195.941C119.137 196.088 119.182 196.231 119.267 196.351C120.023 197.63 120.078 199.03 119.947 200.459C119.816 201.574 119.57 202.673 119.214 203.738C119.205 203.781 119.205 203.824 119.215 203.867C119.187 203.833 119.209 203.794 119.204 203.76C119.14 202.822 118.963 201.896 118.676 201.001C118.528 200.546 118.304 200.119 118.014 199.739C117.858 199.529 117.679 199.249 117.396 199.353C117.152 199.442 117.226 199.759 117.234 199.981C117.257 201.278 117.073 202.571 116.691 203.81C116.295 205.095 115.832 206.357 115.302 207.592C115.743 206.135 115.467 204.648 114.926 203.201C114.255 201.502 113.217 199.974 111.886 198.725C111.699 198.542 111.517 198.18 111.232 198.329C110.994 198.453 111.157 198.807 111.18 199.058C111.274 199.871 111.27 200.691 111.167 201.503C110.849 203.559 109.939 205.367 108.767 207.056C108.719 207.152 108.639 207.228 108.542 207.274C108.608 206.943 108.633 206.605 108.615 206.268C108.392 204.334 107.863 202.448 107.046 200.682C106.897 200.339 106.658 200.28 106.328 200.463C105.968 200.676 105.672 200.983 105.473 201.351C105.132 201.957 104.892 202.615 104.762 203.298C104.521 204.491 104.362 205.699 104.285 206.914C104.241 207.521 104.23 208.127 104.229 208.732C104.262 208.85 104.296 208.969 104.332 209.087C104.334 207.91 104.399 206.735 104.527 205.565C104.626 204.325 104.893 203.104 105.32 201.937C105.512 201.395 105.866 200.926 106.334 200.594C106.628 200.402 106.825 200.378 106.955 200.772C107.081 201.151 107.268 201.509 107.399 201.887C108.01 203.656 108.67 205.418 108.4 207.352C108.38 207.404 108.38 207.462 108.399 207.515C108.418 207.568 108.454 207.612 108.502 207.641C110.531 204.872 111.88 201.919 111.212 198.352C111.294 198.369 111.331 198.366 111.349 198.383C112.89 199.742 114.09 201.444 114.852 203.354C115.172 204.186 115.353 205.066 115.387 205.957C115.383 206.503 115.328 207.048 115.224 207.585L115.33 207.622C116.549 205.025 117.543 202.366 117.358 199.388Z" fill="white"/>
<path d="M104.324 209.476C104.325 209.348 104.328 209.219 104.33 209.091C104.294 208.973 104.26 208.855 104.226 208.736C104.226 208.986 104.223 209.236 104.226 209.486C104.259 209.482 104.291 209.479 104.324 209.476ZM104.242 210.468C104.231 210.286 104.193 210.106 104.13 209.935L104.041 209.944C104.129 210.202 104.214 210.461 104.312 210.718C104.315 210.451 104.317 210.184 104.32 209.916L104.233 209.925C104.236 210.106 104.239 210.287 104.242 210.468ZM104.129 209.933L104.04 209.943L104.041 209.944L104.13 209.935L104.129 209.933Z" fill="white"/>
<path d="M104.235 209.918V209.92L104.322 209.912V209.909L104.235 209.918ZM104 209.502C103.964 209.506 103.927 209.509 103.892 209.513C103.938 209.655 103.992 209.796 104.041 209.938L104.13 209.929C104.125 209.913 104.121 209.896 104.116 209.88C104.074 209.754 104.039 209.628 104 209.502Z" fill="white"/>
<path d="M104.236 209.923L104.322 209.914C104.324 209.768 104.325 209.622 104.327 209.476C104.294 209.479 104.261 209.483 104.229 209.486C104.23 209.631 104.233 209.777 104.236 209.923ZM115.414 188.082C115.846 187.943 116.296 187.864 116.749 187.847C116.659 188.097 116.542 188.336 116.398 188.559C116.091 189.077 115.87 189.641 115.746 190.231C115.588 190.893 115.604 191.586 115.792 192.241C115.917 192.648 116.138 192.739 116.538 192.6C116.725 192.53 116.897 192.424 117.045 192.289C117.518 191.866 117.859 191.315 118.027 190.702C118.411 189.439 118.398 188.14 118.407 186.88C118.52 187.224 118.681 187.591 118.822 187.964C118.87 188.09 118.913 188.249 119.094 188.245C118.847 187.649 118.599 187.053 118.352 186.457C118.271 186.982 118.301 187.488 118.265 187.989C118.199 188.887 118.211 189.797 117.908 190.667C117.638 191.444 117.275 192.129 116.481 192.495C116.158 192.644 115.983 192.542 115.9 192.224C115.746 191.612 115.728 190.972 115.85 190.352C116.028 189.539 116.358 188.768 116.822 188.079C116.889 187.972 116.968 187.837 116.911 187.737C116.846 187.623 116.684 187.674 116.571 187.694C116.009 187.767 115.46 187.913 114.936 188.128C115.108 188.249 115.26 188.127 115.414 188.082ZM104.755 186.835L104.769 187.005L104.77 187.005C104.792 187.025 104.812 187.048 104.83 187.072C104.86 187.11 104.891 187.148 104.918 187.187C105.474 187.941 105.954 188.748 106.35 189.597C106.676 188.392 107.13 187.226 107.706 186.119L108.298 184.981L108.044 184.981V184.98C106.721 185.085 105.491 185.707 104.621 186.713C104.624 186.715 104.626 186.718 104.629 186.721L104.755 186.835ZM108.31 184.981L108.646 187.023C108.829 188.254 109.176 189.454 109.678 190.592C110.244 189.7 110.578 188.681 110.653 187.627C110.659 187.251 110.626 186.875 110.553 186.506C110.519 186.29 110.484 186.074 110.463 185.855L110.413 185.355C109.915 185.155 109.391 185.029 108.856 184.981V184.981C108.674 184.981 108.492 184.981 108.31 184.981Z" fill="white"/>
<path d="M104.333 187.042C104.439 187.105 104.531 187.189 104.605 187.288C105.375 188.313 105.988 189.449 106.422 190.656C106.706 189.279 107.154 187.941 107.756 186.671C107.76 186.663 107.763 186.656 107.765 186.648C107.767 186.645 107.77 186.64 107.777 186.629C107.854 186.501 107.9 186.298 108.07 186.312C108.254 186.328 108.246 186.542 108.269 186.683C108.405 187.582 108.605 188.47 108.867 189.34C109.027 189.871 109.231 190.387 109.479 190.883C109.609 191.133 109.73 191.122 109.865 190.896C110.693 189.511 111.195 188.056 110.858 186.409C110.818 186.214 110.665 186.005 110.847 185.801C110.862 185.801 110.875 185.803 110.889 185.805L110.878 185.707H110.879L110.878 185.707C110.779 185.551 110.631 185.434 110.457 185.372C110.441 185.366 110.425 185.361 110.409 185.355L110.458 185.855C110.48 186.073 110.514 186.29 110.548 186.506C110.621 186.875 110.655 187.25 110.648 187.626C110.574 188.68 110.239 189.699 109.674 190.591C109.172 189.454 108.825 188.253 108.642 187.023L108.305 184.98H108.294L107.701 186.119C107.126 187.226 106.671 188.392 106.346 189.597C105.949 188.748 105.469 187.94 104.914 187.186C104.886 187.147 104.856 187.11 104.825 187.072C104.808 187.047 104.788 187.025 104.765 187.004L104.765 187.005L104.75 186.835L104.624 186.72C104.622 186.718 104.619 186.715 104.617 186.712C104.52 186.819 104.424 186.926 104.333 187.042L104.333 187.042Z" fill="white"/>
<path d="M105.986 189.85C106.131 190.189 106.268 190.531 106.457 190.985C106.779 189.359 107.327 187.786 108.086 186.314C108.136 186.62 108.175 186.854 108.214 187.088C108.421 188.488 108.838 189.847 109.45 191.122C109.541 191.303 109.62 191.487 109.808 191.197C110.542 190.148 110.982 188.921 111.082 187.643C111.065 187.027 111.001 186.412 110.89 185.805L110.889 185.799C110.875 185.797 110.862 185.795 110.847 185.794C110.665 185.999 110.818 186.207 110.858 186.403C111.195 188.049 110.693 189.505 109.865 190.89C109.73 191.116 109.609 191.127 109.479 190.877C109.231 190.381 109.027 189.865 108.867 189.334C108.605 188.464 108.405 187.576 108.269 186.677C108.246 186.536 108.254 186.322 108.07 186.306C107.9 186.292 107.854 186.495 107.777 186.623C107.77 186.634 107.767 186.639 107.765 186.642C107.763 186.649 107.76 186.657 107.756 186.665C107.154 187.935 106.706 189.273 106.422 190.65C105.988 189.443 105.375 188.307 104.605 187.282C104.531 187.183 104.439 187.099 104.333 187.036C104.347 187.202 104.472 187.307 104.559 187.43C105.118 188.185 105.596 188.996 105.986 189.85ZM108.838 179.213L108.839 179.213C109.038 179.137 109.238 179.064 109.435 178.984C109.825 178.82 110.163 178.555 110.415 178.216C110.667 177.877 110.823 177.476 110.868 177.055C110.913 176.635 110.844 176.21 110.669 175.825C110.494 175.44 110.219 175.109 109.873 174.867C109.527 174.625 109.123 174.48 108.702 174.448C108.281 174.416 107.86 174.498 107.481 174.685C107.103 174.872 106.781 175.157 106.55 175.511C106.319 175.865 106.187 176.274 106.168 176.697C106.135 177.905 106.716 178.666 108.045 179.156C108.31 179.116 108.581 179.135 108.838 179.213Z" fill="white"/>
<path d="M108.851 184.979L108.838 179.217L108.837 179.217C108.713 179.283 108.573 179.313 108.433 179.303C108.292 179.293 108.157 179.244 108.044 179.16L108.039 184.978C108.16 184.899 108.301 184.858 108.445 184.858C108.589 184.858 108.73 184.9 108.851 184.979Z" fill="white"/>
<path d="M108.293 184.974L108.302 184.957L108.304 184.974C108.486 184.974 108.669 184.974 108.851 184.975V184.975C108.73 184.896 108.589 184.854 108.445 184.854C108.301 184.853 108.16 184.895 108.039 184.974V184.974L108.293 184.974Z" fill="white"/>
<path d="M108.3 184.974H108.312L108.309 184.957L108.3 184.974ZM108.845 179.212C108.588 179.134 108.317 179.115 108.052 179.155C108.165 179.239 108.3 179.289 108.44 179.299C108.581 179.309 108.721 179.279 108.845 179.212ZM113.178 188.826C113.227 188.78 113.278 188.736 113.328 188.691C113.068 187.717 112.521 186.844 111.76 186.185C111.669 186.104 111.58 186.016 111.484 185.937C112.082 186.94 112.585 187.997 112.988 189.093L113.178 188.826Z" fill="white"/>
<path d="M110.906 185.771C110.905 185.782 110.9 185.793 110.894 185.803C111.184 185.847 111.245 186.124 111.35 186.33C111.959 187.424 112.466 188.572 112.865 189.759C113.132 189.566 113.196 189.249 113.463 189.149C113.37 189.07 113.386 188.954 113.362 188.852C113.35 188.798 113.333 188.747 113.319 188.695C113.269 188.74 113.219 188.783 113.169 188.829L112.98 189.096C112.577 188 112.073 186.943 111.476 185.94C111.314 185.787 111.1 185.702 110.877 185.703C110.887 185.711 110.896 185.721 110.901 185.733C110.906 185.745 110.908 185.758 110.906 185.771Z" fill="white"/>
<path d="M112.88 190.054C113.076 189.752 113.272 189.449 113.468 189.147C113.201 189.247 113.137 189.565 112.871 189.757C112.471 188.57 111.964 187.422 111.355 186.329C111.25 186.122 111.189 185.846 110.899 185.801C110.897 185.803 110.896 185.806 110.894 185.806C111.721 187.138 112.388 188.564 112.88 190.054Z" fill="white"/>
<path d="M110.906 185.772C110.908 185.759 110.906 185.746 110.901 185.733C110.896 185.721 110.888 185.711 110.877 185.703H110.877L110.888 185.804L110.894 185.805C110.901 185.795 110.905 185.784 110.906 185.772Z" fill="white"/>
<path d="M110.901 185.802L110.895 185.802L110.896 185.808C110.898 185.808 110.899 185.804 110.901 185.802ZM101.424 185.216C101.405 186.105 101.485 186.994 101.663 187.865C101.66 186.813 101.597 185.762 101.474 184.717L101.474 184.717C101.437 184.754 101.41 184.8 101.396 184.851C101.503 184.945 101.426 185.103 101.424 185.216Z" fill="white"/>
<path d="M101.475 184.717C101.415 184.744 101.355 184.771 101.296 184.799C101.333 184.808 101.368 184.826 101.398 184.851C101.411 184.8 101.438 184.754 101.475 184.717ZM101.398 184.851C101.391 184.872 101.386 184.894 101.382 184.916C101.395 184.972 101.391 185.031 101.369 185.085C101.257 185.45 101.235 185.838 101.307 186.213C101.385 186.769 101.324 187.364 101.665 187.865C101.487 186.994 101.406 186.105 101.426 185.216C101.427 185.103 101.504 184.945 101.398 184.851Z" fill="white"/>
<path d="M101.374 184.916C101.378 184.894 101.384 184.872 101.39 184.851C101.36 184.826 101.325 184.808 101.288 184.799L101.288 184.799C101.33 184.826 101.361 184.868 101.374 184.916ZM96.7379 194.457C96.4111 196.092 95.8412 197.669 95.0471 199.134C94.6233 199.869 94.262 199.911 93.6118 199.371C92.599 198.517 91.6868 197.55 90.8928 196.489C88.0824 192.738 85.7111 188.676 83.8254 184.383C82.215 180.778 80.9864 177.013 80.1597 173.152C79.7323 171.289 79.4655 169.393 79.3623 167.484C79.3107 165.862 79.5782 164.246 80.1497 162.728C81.1602 159.935 83.1577 158.354 86.0262 157.875C86.7767 157.728 87.5501 157.744 88.2941 157.922C89.038 158.099 89.7353 158.435 90.3387 158.906C91.7273 160.015 92.8455 161.426 93.6083 163.032C94.9748 165.782 95.9416 168.714 96.4793 171.738C96.9809 174.465 97.3194 177.22 97.4931 179.987C97.5442 180.788 97.5073 181.589 97.5896 182.386C97.688 183.321 97.6885 184.263 97.5913 185.198L97.5898 185.21L97.6337 185.254C97.6615 185.177 97.6933 185.097 97.7217 185.02C97.7406 184.078 97.7537 183.137 97.7175 182.192C97.6368 180.086 97.4828 177.99 97.2368 175.897C96.9837 173.485 96.5443 171.096 95.9224 168.753C95.1389 165.94 94.1394 163.203 92.4015 160.827C90.7553 158.577 88.6479 157.179 85.691 157.797C83.5685 158.241 81.8211 159.291 80.7198 161.214C79.7685 162.912 79.2596 164.822 79.2403 166.769C79.2382 167.845 79.3205 168.919 79.4863 169.982C79.8958 172.902 80.5647 175.779 81.485 178.58C83.177 183.781 85.5415 188.737 88.5184 193.322C89.9408 195.544 91.4655 197.681 93.4734 199.427C94.2367 200.091 94.673 200.059 95.1563 199.197C96.0412 197.556 96.653 195.781 96.9676 193.942C96.9427 193.852 96.9239 193.759 96.9007 193.668C96.8453 193.931 96.7978 194.195 96.7379 194.457Z" fill="white"/>
<path d="M97.5983 185.213C97.5712 185.458 97.5006 185.72 97.704 185.933C97.7068 185.931 97.7088 185.929 97.7117 185.927C97.7175 185.626 97.7237 185.325 97.7302 185.023C97.7017 185.1 97.67 185.18 97.6422 185.257L97.5983 185.213ZM96.9755 193.389C96.9525 193.483 96.9291 193.577 96.9092 193.671C96.9324 193.762 96.9512 193.855 96.9761 193.946C96.9958 193.842 97.017 193.739 97.0355 193.635C97.0162 193.553 96.9927 193.47 96.9755 193.389Z" fill="white"/>
<path d="M97.1296 192.846C97.0661 193.021 97.013 193.2 96.9707 193.381C96.9879 193.463 97.0114 193.545 97.0307 193.627C97.0762 193.372 97.1186 193.116 97.1579 192.859L97.1508 192.85C97.1438 192.849 97.1372 192.847 97.1296 192.846ZM97.4303 186.48C96.9708 188.249 96.7983 190.08 96.9193 191.903C96.9269 192.053 96.9283 192.209 96.9497 192.361L97.1087 192.396C97.079 192.122 97.0503 191.848 97.0331 191.574C96.9457 189.669 97.1723 187.762 97.7039 185.931L97.6992 185.926C97.5048 186.059 97.4854 186.28 97.4303 186.48Z" fill="white"/>
<path d="M97.1484 192.853L97.1547 192.854C97.1397 192.702 97.1228 192.551 97.1063 192.399L96.9473 192.364C96.9649 192.543 97.0348 192.713 97.1484 192.853ZM97.1547 192.854L97.1484 192.853L97.1555 192.862L97.1555 192.862L97.1547 192.854ZM97.7015 185.933L97.7045 185.922C97.7016 185.924 97.6996 185.926 97.6968 185.928L97.7015 185.933ZM119.247 187.801C119.261 187.538 119.247 187.275 119.206 187.015C119.095 186.003 119.113 184.985 119.064 183.971C119 182.681 119.159 181.389 119.215 180.098C119.301 178.156 119.525 176.23 119.789 174.307C120.192 171.028 121.034 167.818 122.294 164.765C123.123 162.828 124.068 160.962 125.649 159.509C126.56 158.673 127.579 157.994 128.832 157.845C131.418 157.539 134.614 158.702 136.113 161.704C137.193 163.939 137.583 166.446 137.233 168.904C136.727 173.135 135.695 177.285 134.161 181.259C132.369 185.992 130.012 190.491 127.143 194.658C126.004 196.307 124.802 197.905 123.262 199.218C122.393 199.959 122.058 199.907 121.512 198.884C120.914 197.711 120.454 196.474 120.139 195.195L120.136 195.205L120.002 195.148C120.327 196.552 120.84 197.906 121.529 199.171C122.018 200.032 122.46 200.085 123.216 199.44C124.286 198.511 125.25 197.467 126.092 196.327C129.137 192.219 131.657 187.745 133.594 183.01C135.351 178.83 136.57 174.444 137.224 169.956C137.565 167.999 137.524 165.995 137.102 164.054C136.641 162.16 135.852 160.419 134.242 159.232C132.526 157.967 130.583 157.356 128.442 157.8C126.799 158.141 125.569 159.192 124.571 160.474C122.738 162.829 121.677 165.575 120.878 168.415C119.646 172.8 119.174 177.301 119 181.84C118.964 182.778 118.91 183.715 118.951 184.654C118.992 185.591 119.07 186.526 119.09 187.464C119.135 187.576 119.179 187.688 119.223 187.802L119.247 187.801Z" fill="white"/>
<path d="M119.121 188.239C119.188 188.102 119.23 187.954 119.243 187.802L119.219 187.803C119.176 187.689 119.131 187.577 119.087 187.465C119.092 187.723 119.096 187.981 119.09 188.24C119.1 188.24 119.111 188.24 119.121 188.239ZM120.136 195.196C120.133 195.186 120.13 195.176 120.127 195.166C120.072 194.961 120.081 194.708 119.834 194.606L119.833 194.607C119.868 194.707 119.913 194.806 119.938 194.909C119.957 194.989 119.978 195.069 119.999 195.149L120.133 195.206L120.136 195.196ZM119.306 188.529C119.294 188.469 119.268 188.412 119.23 188.363C119.193 188.314 119.145 188.275 119.09 188.248C119.237 188.747 119.393 189.245 119.53 189.748C119.963 191.345 120.235 192.955 119.833 194.606L119.834 194.606C120.184 194.198 120.131 193.685 120.151 193.211C120.219 191.591 119.775 190.056 119.306 188.529Z" fill="white"/>
<path d="M119.84 194.601L119.84 194.6L119.84 194.6L119.84 194.601ZM119.116 203.863C119.13 203.936 119.062 204.06 119.183 204.066C119.281 204.071 119.288 203.953 119.296 203.868C119.285 203.881 119.271 203.891 119.255 203.898C119.239 203.905 119.222 203.908 119.205 203.908C119.188 203.907 119.171 203.903 119.155 203.895C119.14 203.888 119.126 203.877 119.116 203.863Z" fill="white"/>
<path d="M119.115 203.867C119.125 203.881 119.139 203.892 119.154 203.899C119.17 203.907 119.187 203.911 119.204 203.912C119.221 203.912 119.238 203.909 119.254 203.902C119.27 203.895 119.284 203.885 119.295 203.872V203.872L119.115 203.867ZM112.709 259.557C112.794 259.596 112.888 259.615 112.982 259.614C113.076 259.612 113.169 259.589 113.253 259.547C115.065 258.812 116.802 257.905 118.441 256.838C119.121 256.39 119.772 255.901 120.391 255.373C121.268 254.655 121.884 253.667 122.144 252.562L122.161 252.487C122.293 251.907 122.417 251.359 122.221 250.864C121.785 249.757 119.969 248.528 118.752 248.515C118.739 248.515 118.725 248.514 118.712 248.514C117.017 248.514 115.862 249.688 115.765 251.516C115.672 253.25 115.157 254.936 114.264 256.425L114.221 256.5C114.194 256.546 114.168 256.593 114.139 256.639C113.817 257.157 113.471 257.667 113.136 258.16C112.939 258.45 112.742 258.739 112.549 259.032C112.478 259.117 112.442 259.227 112.45 259.338C112.505 259.441 112.598 259.52 112.709 259.557Z" fill="white"/>
<path d="M112.528 259.954C112.668 260.018 112.821 260.051 112.975 260.05C113.13 260.05 113.282 260.015 113.422 259.95C115.258 259.202 117.019 258.282 118.682 257.202C119.376 256.744 120.041 256.244 120.674 255.706C121.622 254.927 122.288 253.857 122.568 252.661C122.713 252.016 122.88 251.352 122.625 250.706C122.116 249.415 120.144 248.097 118.757 248.082C116.82 248.061 115.443 249.412 115.333 251.495C115.246 253.16 114.751 254.777 113.892 256.205C113.851 256.273 113.814 256.343 113.772 256.411C113.269 257.221 112.713 257.998 112.188 258.794C111.863 259.286 111.994 259.707 112.528 259.954ZM112.55 259.034C112.742 258.741 112.939 258.452 113.136 258.162C113.471 257.669 113.818 257.159 114.139 256.642C114.168 256.595 114.195 256.549 114.222 256.502L114.264 256.427C115.157 254.938 115.673 253.252 115.766 251.518C115.863 249.69 117.018 248.516 118.713 248.516C118.726 248.516 118.739 248.517 118.753 248.517C119.97 248.53 121.786 249.76 122.222 250.866C122.417 251.362 122.293 251.909 122.162 252.489L122.145 252.565C121.884 253.669 121.268 254.657 120.392 255.375C119.772 255.903 119.121 256.392 118.442 256.84C116.803 257.907 115.066 258.814 113.254 259.55C113.17 259.592 113.077 259.614 112.983 259.616C112.889 259.617 112.795 259.598 112.709 259.559C112.598 259.522 112.506 259.444 112.451 259.34C112.443 259.229 112.478 259.119 112.55 259.034L112.55 259.034ZM98.3413 255.846C98.6272 256.075 98.9414 256.307 99.331 256.577C100.943 257.629 102.633 258.555 104.387 259.347C104.635 259.456 104.895 259.535 105.162 259.581C105.269 259.599 105.379 259.587 105.478 259.544C105.578 259.502 105.663 259.432 105.724 259.342C105.743 259.304 105.741 259.242 105.587 259.044C105.435 258.838 105.303 258.618 105.192 258.388C105.106 258.203 105 258.027 104.877 257.865C104.462 257.37 104.093 256.837 103.777 256.274C102.949 254.771 102.483 253.095 102.419 251.38C102.409 250.617 102.099 249.889 101.557 249.353C101.015 248.817 100.285 248.516 99.5233 248.516H99.5203C98.6037 248.522 97.7246 248.882 97.0666 249.521C96.4467 250.05 96.0466 250.793 95.9446 251.603C95.8427 252.412 96.0464 253.231 96.5157 253.898C97.0183 254.639 97.6344 255.297 98.3413 255.846Z" fill="white"/>
<path d="M98.0682 256.184C98.3978 256.45 98.7384 256.696 99.0836 256.934C100.713 258.001 102.423 258.939 104.198 259.738C104.478 259.864 104.774 259.955 105.077 260.007C105.261 260.041 105.45 260.023 105.624 259.954C105.797 259.885 105.948 259.768 106.058 259.618C106.304 259.317 106.113 259.015 105.927 258.776C105.637 258.403 105.492 257.923 105.207 257.584C104.808 257.11 104.456 256.6 104.153 256.06C103.36 254.615 102.914 253.004 102.85 251.356C102.836 250.481 102.479 249.647 101.856 249.035C101.233 248.422 100.395 248.079 99.5219 248.081C98.4954 248.084 97.5099 248.485 96.7721 249.201C96.0775 249.801 95.6295 250.637 95.5149 251.549C95.4003 252.461 95.6272 253.383 96.1517 254.137C96.6794 254.916 97.3261 255.607 98.0682 256.184ZM97.0651 249.521C97.723 248.881 98.6022 248.521 99.5187 248.516H99.5217C100.283 248.516 101.014 248.817 101.556 249.353C102.098 249.889 102.407 250.617 102.417 251.38C102.482 253.095 102.947 254.771 103.776 256.273C104.092 256.837 104.46 257.37 104.875 257.865C104.999 258.027 105.104 258.203 105.19 258.388C105.301 258.618 105.434 258.837 105.585 259.043C105.739 259.242 105.742 259.304 105.723 259.342C105.662 259.432 105.576 259.502 105.477 259.544C105.377 259.586 105.267 259.599 105.161 259.58C104.894 259.535 104.633 259.456 104.385 259.346C102.632 258.555 100.941 257.629 99.3294 256.576C98.9398 256.307 98.6256 256.075 98.3397 255.845C97.6328 255.296 97.0167 254.639 96.5141 253.898C96.0448 253.231 95.8411 252.412 95.943 251.602C96.045 250.793 96.4451 250.05 97.065 249.521H97.0651ZM95.6734 230.666C96.5818 231.11 97.5485 231.08 98.5517 231.158C99.3472 231.186 100.138 231.023 100.858 230.682C101.578 230.342 102.206 229.834 102.691 229.201C103.124 228.697 103.441 228.104 103.621 227.464C103.801 226.823 103.838 226.152 103.731 225.495C103.595 224.565 102.889 224.277 102.114 224.777C101.959 224.877 101.811 224.988 101.65 225.076C100.756 225.569 99.9578 225.382 99.3031 224.533C98.7454 223.81 98.8152 223.009 99.5001 222.289C99.5849 222.2 99.6706 222.11 99.7624 222.029C99.9473 221.9 100.087 221.716 100.16 221.503C100.234 221.29 100.238 221.059 100.172 220.843C100.105 220.612 99.9728 220.405 99.7917 220.247C99.6106 220.089 99.3879 219.986 99.1503 219.952C98.3908 219.834 97.6154 219.872 96.8708 220.063C96.1263 220.254 95.428 220.594 94.8182 221.062C94.2084 221.531 93.6996 222.119 93.3227 222.79C92.9457 223.462 92.7083 224.202 92.6248 224.968C92.5053 226.115 92.732 227.271 93.2756 228.286C93.8191 229.302 94.6545 230.131 95.6734 230.666ZM113.952 229.595C115.047 230.78 116.475 231.099 117.92 231.127C118.24 231.127 118.47 231.13 118.701 231.126C121.328 231.079 123.801 228.533 123.773 225.905C123.761 224.79 123.003 224.317 122.004 224.81C121.673 225.003 121.322 225.16 120.959 225.28C120.589 225.367 120.202 225.331 119.856 225.176C119.509 225.021 119.223 224.756 119.042 224.423C118.827 224.136 118.72 223.783 118.739 223.425C118.758 223.067 118.902 222.727 119.146 222.465C119.314 222.265 119.509 222.087 119.673 221.884C119.822 221.73 119.924 221.537 119.968 221.327C120.011 221.117 119.994 220.899 119.918 220.699C119.842 220.498 119.711 220.324 119.54 220.195C119.368 220.067 119.164 219.99 118.951 219.974C118.068 219.819 117.162 219.879 116.307 220.148C115.452 220.417 114.674 220.888 114.039 221.52C112.621 222.832 112.376 224.557 112.6 226.37C112.695 227.562 113.169 228.692 113.952 229.595Z" fill="white"/>
<path d="M369.331 215.398C370.913 215.717 372.356 216.519 373.462 217.693C374.382 218.666 374.896 219.953 374.899 221.291C374.927 223.984 374.927 226.677 374.899 229.368C374.864 232.702 372.834 235.01 369.27 235.724C368.281 235.917 367.275 236.013 366.267 236.01C356.755 236.032 347.242 236.01 337.73 236.036C337.091 236.036 336.896 235.876 336.898 235.218C336.916 222.992 336.916 210.765 336.898 198.539C336.898 197.893 337.071 197.709 337.723 197.711C346.92 197.731 356.118 197.711 365.315 197.731C366.957 197.683 368.59 197.982 370.109 198.607C372.437 199.631 373.825 201.374 373.934 203.917C374.048 206.38 374.02 208.848 373.848 211.308C373.661 213.721 372.697 214.787 369.826 215.286C369.657 215.317 369.495 215.364 369.331 215.398ZM354.228 231.4C357.748 231.4 361.267 231.431 364.786 231.38C365.744 231.364 366.696 231.215 367.615 230.94C368.155 230.799 368.632 230.481 368.971 230.038C369.31 229.594 369.491 229.05 369.486 228.492C369.546 226.252 369.582 224.007 369.518 221.767C369.467 220.035 368.634 219.139 366.917 218.739C366.374 218.605 365.818 218.532 365.258 218.521C357.761 218.505 350.276 218.521 342.785 218.499C342.209 218.499 342.069 218.706 342.072 219.241C342.089 223.033 342.097 226.823 342.072 230.612C342.072 231.29 342.307 231.423 342.928 231.419C346.692 231.387 350.46 231.4 354.228 231.4ZM353.875 213.938V213.879C357.547 213.879 361.228 213.92 364.905 213.865C367.278 213.83 368.634 212.534 368.657 210.444C368.672 208.941 368.68 207.437 368.657 205.936C368.698 205.199 368.478 204.471 368.036 203.88C367.593 203.289 366.957 202.873 366.238 202.705C365.531 202.49 364.798 202.377 364.06 202.367C356.998 202.342 349.934 202.367 342.87 202.339C342.236 202.339 342.072 202.546 342.077 203.15C342.102 206.446 342.088 209.743 342.089 213.039C342.089 213.932 342.089 213.937 342.98 213.938H353.875ZM303.407 218.62V226.504C303.421 229.469 305.283 231.336 308.253 231.339C316.714 231.348 325.174 231.348 333.634 231.339C334.973 231.339 334.809 231.194 334.82 232.525C334.828 233.443 334.783 234.361 334.834 235.279C334.868 235.891 334.635 236.029 334.061 236.023C331.278 235.997 328.495 236.01 325.713 236.01C319.518 236.01 313.32 235.906 307.131 236.045C302.694 236.146 298.779 232.764 298.306 228.613C298.262 228.212 298.24 227.809 298.242 227.405V206.4C298.218 205.252 298.426 204.112 298.854 203.047C299.282 201.982 299.921 201.014 300.733 200.203C301.545 199.391 302.512 198.752 303.577 198.325C304.643 197.897 305.783 197.689 306.931 197.714C315.958 197.714 324.98 197.709 333.995 197.699C334.627 197.699 334.869 197.842 334.837 198.513C334.783 199.633 334.811 200.757 334.828 201.879C334.828 202.278 334.698 202.466 334.288 202.439C334.087 202.426 333.884 202.439 333.676 202.439H308.16C305.702 202.454 304.019 203.77 303.498 206.077C303.426 206.474 303.397 206.877 303.412 207.28C303.412 209.209 303.435 211.14 303.394 213.069C303.378 213.73 303.594 213.889 304.23 213.888C312.376 213.868 320.523 213.864 328.669 213.874C329.548 213.874 329.548 213.874 329.548 214.746C329.548 215.779 329.513 216.812 329.561 217.843C329.591 218.455 329.408 218.637 328.777 218.634C321.101 218.614 313.426 218.61 305.751 218.62L303.407 218.62ZM377.56 231.379H403.963C406.843 231.379 408.706 229.648 408.85 226.775C408.91 225.43 408.896 224.083 408.806 222.74C408.738 221.618 408.241 220.565 407.418 219.799C406.595 219.033 405.508 218.613 404.384 218.626C397.943 218.614 391.503 218.626 385.061 218.626C383.596 218.666 382.145 218.326 380.849 217.639C378.283 216.213 376.548 214.12 376.336 211.129C376.138 208.939 376.169 206.734 376.431 204.55C376.98 200.693 380.562 197.763 384.564 197.741C393.272 197.694 401.98 197.729 410.688 197.715C411.188 197.715 411.359 197.881 411.347 198.376C411.321 199.447 411.311 200.532 411.347 201.608C411.37 202.2 411.174 202.365 410.582 202.364C402.435 202.345 394.289 202.343 386.142 202.356C385.341 202.322 384.545 202.497 383.832 202.863C383.119 203.23 382.514 203.775 382.075 204.446C381.015 206.01 381.042 210.217 382.148 211.749C382.594 212.387 383.193 212.903 383.891 213.249C384.589 213.594 385.362 213.758 386.14 213.726C392.491 213.716 398.839 213.726 405.193 213.718C406.725 213.666 408.242 214.036 409.577 214.789C412.398 216.472 413.925 218.929 413.982 222.239C414.013 224.01 413.996 225.784 413.982 227.557C413.978 229.782 413.098 231.917 411.533 233.498C409.968 235.08 407.842 235.982 405.617 236.009C396.483 236.047 387.349 236.018 378.215 236.029C377.74 236.029 377.528 235.934 377.543 235.401C377.584 234.104 377.56 232.806 377.56 231.379ZM210.788 246.909C209.202 246.909 207.706 246.916 206.211 246.892C206.086 246.892 205.905 246.685 205.855 246.537C205.815 246.339 205.807 246.137 205.832 245.937V208.785C205.832 207.804 205.832 207.803 206.816 207.803H226.198C227.367 207.774 228.53 207.984 229.615 208.421C230.699 208.857 231.684 209.511 232.506 210.343C233.175 210.995 233.704 211.777 234.06 212.64C234.416 213.503 234.593 214.43 234.579 215.364C234.601 219.716 234.601 224.067 234.579 228.42C234.528 230.427 233.701 232.336 232.273 233.746C230.844 235.157 228.924 235.959 226.917 235.984C222.904 236.079 218.886 236.013 214.871 236.018C213.75 236.018 212.628 236.041 211.505 236.009C210.944 235.993 210.771 236.198 210.775 236.752C210.795 239.848 210.784 242.943 210.784 246.038L210.788 246.909ZM210.788 221.841V230.856C210.788 231.315 210.829 231.621 211.421 231.621C216.175 231.621 220.93 231.657 225.684 231.621C226.707 231.591 227.679 231.171 228.402 230.447C229.125 229.723 229.544 228.75 229.573 227.727C229.613 223.851 229.609 219.971 229.562 216.086C229.532 215.486 229.355 214.902 229.048 214.385C228.13 212.774 226.588 212.243 224.836 212.228C220.417 212.208 216 212.228 211.582 212.209C210.97 212.209 210.775 212.413 210.781 213.026C210.803 215.964 210.788 218.902 210.788 221.841V221.841ZM253.233 224.494C249.532 224.494 245.83 224.508 242.127 224.482C241.461 224.482 241.209 224.664 241.244 225.355C241.296 226.633 241.258 227.912 241.259 229.191C241.259 230.825 242.177 231.764 243.841 231.774C246.712 231.789 249.584 231.774 252.456 231.774C255.576 231.774 258.694 231.787 261.812 231.761C262.377 231.761 262.556 231.93 262.534 232.485C262.496 233.472 262.508 234.46 262.534 235.447C262.544 235.888 262.372 236.026 261.941 236.024C255.479 236.012 249.017 236.042 242.555 235.992C239.706 235.971 237.2 234.093 236.548 231.648C236.408 231.083 236.34 230.503 236.345 229.921C236.33 225.164 236.33 220.408 236.345 215.65C236.34 213.714 237.061 211.847 238.367 210.418C239.672 208.988 241.467 208.101 243.395 207.931C244.576 207.826 245.77 207.826 246.957 207.83C250.629 207.844 254.32 207.772 257.992 207.944C259.639 208.057 261.206 208.697 262.463 209.768C263.719 210.84 264.598 212.287 264.97 213.895C265.061 214.4 265.102 214.913 265.091 215.425C265.102 218.163 265.073 220.9 265.112 223.637C265.123 224.345 264.871 224.498 264.219 224.494C260.548 224.48 256.895 224.494 253.233 224.494ZM250.68 220.066C253.575 220.066 256.468 220.052 259.361 220.078C259.938 220.078 260.167 219.939 260.138 219.33C260.092 218.391 260.138 217.447 260.125 216.504C260.151 215.434 259.755 214.396 259.022 213.616C258.289 212.835 257.278 212.375 256.208 212.335C252.554 212.253 248.898 212.253 245.241 212.335C244.171 212.373 243.158 212.825 242.416 213.596C241.674 214.367 241.26 215.396 241.262 216.466C241.238 217.43 241.284 218.397 241.249 219.359C241.227 219.931 241.455 220.077 241.997 220.072C244.893 220.055 247.786 220.066 250.68 220.066ZM296.036 224.938C296.036 228.371 296.023 231.804 296.048 235.238C296.048 235.842 295.895 236.064 295.265 236.036C294.123 235.987 292.97 235.99 291.833 236.036C291.231 236.061 291.077 235.862 291.078 235.271C291.098 229.151 291.091 223.019 291.091 216.893C291.091 214.181 289.663 212.41 286.97 212.303C283.252 212.15 279.521 212.168 275.801 212.321C273.287 212.425 271.845 214.178 271.837 216.703C271.822 221.865 271.837 227.026 271.837 232.187C271.837 233.241 271.822 234.297 271.837 235.351C271.846 235.819 271.727 236.044 271.197 236.032C269.941 236 268.685 236.006 267.429 236.032C266.97 236.041 266.863 235.866 266.863 235.441C266.875 228.686 266.843 221.931 266.886 215.178C266.909 211.632 269.837 208.494 273.499 207.953C274.008 207.871 274.522 207.825 275.038 207.817C279.346 207.806 283.655 207.789 287.963 207.817C289.34 207.795 290.699 208.12 291.917 208.761C293.135 209.403 294.171 210.341 294.931 211.489C295.63 212.463 296.008 213.631 296.014 214.83C296.034 218.196 296.014 221.562 296.014 224.928L296.036 224.938ZM202.942 216.709C202.942 220.228 202.971 223.747 202.934 227.266C202.921 229.198 202.249 231.067 201.027 232.563C199.806 234.06 198.11 235.093 196.22 235.493C195.635 235.619 195.038 235.681 194.439 235.678C194.023 235.678 193.607 235.678 193.191 235.687C187.969 235.833 182.747 235.71 177.525 235.749C176.013 235.759 174.502 235.736 172.991 235.767C171.953 235.822 170.912 235.714 169.907 235.447C168.457 235.068 167.135 234.31 166.076 233.25C165.017 232.189 164.26 230.866 163.883 229.416C163.689 228.719 163.592 227.998 163.596 227.274C163.596 226.437 163.586 225.599 163.586 224.76C163.579 219.21 163.572 213.656 163.563 208.098C163.563 207.192 163.544 206.285 163.608 205.384C163.709 203.812 164.258 202.302 165.191 201.032C165.84 200.116 166.667 199.34 167.623 198.751C168.579 198.162 169.644 197.773 170.755 197.605C171.594 197.52 172.437 197.484 173.281 197.495C176.119 197.342 178.959 197.457 181.798 197.435C184.638 197.414 187.488 197.435 190.334 197.435C191.754 197.435 193.174 197.4 194.592 197.435C196.669 197.471 198.659 198.278 200.174 199.7C201.556 200.932 202.477 202.598 202.784 204.425C202.882 204.984 202.933 205.55 202.937 206.118C202.951 209.65 202.945 213.179 202.945 216.711L202.942 216.709ZM183.44 231.136H192.345C192.955 231.139 193.566 231.101 194.172 231.022C194.769 230.954 195.346 230.765 195.867 230.467C196.389 230.168 196.845 229.767 197.207 229.287C197.718 228.663 198.022 227.895 198.079 227.09C198.101 226.659 198.079 226.224 198.079 225.791C198.068 224.763 198.056 223.735 198.042 222.708C198.033 221.957 198.018 221.204 198.007 220.452C197.993 219.572 197.983 218.69 197.969 217.811C197.958 217.027 197.945 216.245 197.934 215.462C197.92 214.619 197.909 213.779 197.896 212.931C197.885 212.13 197.87 211.33 197.86 210.528C197.845 209.402 197.842 208.277 197.816 207.151C197.812 206.694 197.774 206.237 197.704 205.785C197.558 204.815 197.092 203.922 196.379 203.248C195.528 202.467 194.421 202.024 193.266 202.004C193.1 202.004 192.932 202.065 192.765 202.07C192.484 202.07 192.204 202.055 191.922 202.053C190.79 202.046 189.658 202.041 188.526 202.039H173.968C173.449 202.041 172.93 202.076 172.416 202.145C171.341 202.26 170.344 202.76 169.609 203.552C168.871 204.294 168.447 205.291 168.426 206.337C168.426 207.224 168.446 208.11 168.46 208.998C168.47 209.816 168.484 210.636 168.495 211.457C168.508 212.33 168.519 213.205 168.533 214.079C168.544 214.887 168.557 215.693 168.568 216.501C168.582 217.35 168.593 218.201 168.606 219.05C168.617 219.84 168.631 220.629 168.642 221.417C168.655 222.274 168.669 223.129 168.678 223.986C168.678 224.69 168.666 225.394 168.701 226.096C168.715 226.65 168.781 227.202 168.899 227.744C169.474 230.081 171.347 231.126 173.426 231.2C173.501 231.2 173.579 231.12 173.657 231.12C174.127 231.12 174.598 231.136 175.069 231.137L183.44 231.136Z" fill="white"/>
<path fill-rule="evenodd" clip-rule="evenodd" d="M289.652 2.07842H354.888L367.248 21.7206H331.215V50.9135L344.365 71.9184H324.639L312.274 52.8214V21.7206H302.017L289.652 2.07842ZM208.111 2.07842V51.7289L220.738 71.9184H240.992L227.049 49.8232V2.07842H208.111Z" fill="white"/>
<path fill-rule="evenodd" clip-rule="evenodd" d="M153.398 71.9184V21.7206H159.447V39.7251L184.699 71.9184H216.264L203.639 52.274H192.856L184.175 40.8154L193.381 28.539C196.537 24.1736 198.116 14.7613 196.274 10.941C194.827 7.94065 190.486 2.07617 181.808 2.07617H143.666C136.301 2.07617 134.462 7.53183 134.462 11.6247V52.274H127.36L99.2128 5.6239C94.741 -1.74191 85.2697 0.71337 82.114 4.80623L45.5511 53.3665C39.5004 61.2774 44.7627 71.9207 55.5481 71.9207H101.055C105.526 71.9207 105.526 65.1 103.685 62.3744L89.218 37.815L77.9071 52.2763H70.5424L89.7458 26.6311L116.839 71.9184H153.398ZM441.164 71.9184L401.183 5.6239C396.711 -1.74191 387.24 0.71337 384.084 4.80623L347.519 53.3665C341.468 61.2774 346.733 71.9207 357.516 71.9207H403.025C407.492 71.9207 407.492 65.1 405.655 62.3744L391.186 37.8172L379.877 52.2785H372.51L391.711 26.6333L418.805 71.9207H441.164V71.9184ZM431.71 39.6693H437.845V40.6076H435.286V47.502H434.269V40.6076H431.71V39.6693ZM445.009 47.502V42.8774C445.009 42.6451 445.031 41.6554 445.031 40.9226H445.009L442.885 47.502H441.875L439.747 40.936H439.73C439.73 41.6554 439.747 42.6473 439.747 42.8774V47.502H438.758V39.6693H440.223L442.381 46.2889H442.398L444.548 39.6693H446V47.502H445.009ZM284.92 2.0784H254.931C245.462 2.0784 240.202 6.44381 237.835 10.8092C235.467 15.1747 235.205 23.3581 239.676 30.4514L249.146 46.0007L259.929 52.2763H233.1L245.725 71.9207H282.025C292.548 71.9207 298.071 65.3703 299.914 61.5522C301.754 57.7342 302.544 50.3683 299.649 45.4556L288.076 27.1762L279.132 21.7206H297.282L284.92 2.0784Z" fill="white"/>
<path d="M0 113H484" stroke="white" stroke-opacity="0.2"/>
</svg>
