<svg width="380" height="60" viewBox="0 0 380 60" fill="none" xmlns="http://www.w3.org/2000/svg">
<path d="M133.265 35.4604C145.873 35.4604 152.176 26.653 152.176 17.845C152.176 9.03773 145.872 0.581163 132.564 0.581163C122.758 0.228363 86.686 0.228363 86.686 0.228363V59.7717H97.8914V9.74162C106.647 9.74162 128.711 9.74162 133.264 9.74162C139.567 9.74162 142.719 11.8546 142.719 17.845C142.719 22.7771 139.568 25.5957 133.614 25.5957H104.197L139.219 59.4179H152.878L127.661 34.7555C130.113 35.4604 132.915 35.4604 133.265 35.4604Z" fill="#16325B"/>
<path d="M174.59 0.229401H163.734V59.7717H174.59V0.229401Z" fill="#16325B"/>
<path d="M312.226 9.38986V0.229401H289.111H278.254H258.992L252.688 9.38986H278.254V59.7717H289.111V9.38986H312.226Z" fill="#16325B"/>
<path d="M231.325 24.8915C225.722 24.8915 211.714 24.8915 203.657 24.8915C198.055 24.8915 194.902 22.4256 194.902 17.4926C194.902 11.856 198.755 9.38986 203.657 9.38986C211.363 9.38986 241.48 9.38986 241.48 9.38986L246.383 0.229401C246.383 0.229401 209.611 0.229401 203.307 0.229401C193.5 0.229401 185.446 7.62723 185.446 17.8461C185.446 27.0055 193.151 34.404 203.657 34.404C209.612 34.404 227.472 34.404 231.325 34.404C237.629 34.404 241.131 37.2237 241.131 42.5081C241.131 47.0877 237.278 50.2595 231.325 50.2595H193.152L187.549 59.7717C187.549 59.7717 221.169 59.7717 232.726 59.7717C244.283 59.7717 250.586 51.3175 250.586 41.8046C250.587 32.9942 243.232 24.8915 231.325 24.8915Z" fill="#16325B"/>
<path d="M35.5547 4.1047C33.1036 7.97898 0.533005 59.7717 0.533005 59.7717H12.0898L22.9472 42.1553H46.0614L52.0153 32.6424H28.9004L41.5079 12.2074L70.9267 59.4178H82.4838C82.4838 59.4178 50.2632 8.33178 47.4608 3.7519C44.3093 -0.827304 38.7068 -0.475533 35.5547 4.1047Z" fill="#16325B"/>
<path d="M367.909 59.7717H379.467C379.467 59.7717 347.247 8.68493 344.444 4.1047C341.293 -1.18044 335.689 -0.827297 332.537 3.75225C330.085 7.62687 297.515 59.4182 297.515 59.4182H309.072L319.928 41.8029H343.393L349.346 32.29H326.233L338.841 11.8546L367.909 59.7717Z" fill="#16325B"/>
</svg>
