<svg width="328" height="168" viewBox="0 0 328 168" fill="none" xmlns="http://www.w3.org/2000/svg">
<g clip-path="url(#clip0)">
<path fill-rule="evenodd" clip-rule="evenodd" d="M196.941 10.4364C199.432 15.444 197.965 22.0216 195.372 26.5237L175.242 71.6884L175.071 71.8906L167.794 26.082C167.212 21.6863 171.929 19.8078 174.698 17.6951C174.559 17.0459 173.839 17.0831 173.396 16.7744L166.593 16.7053L166.391 16.503C166.423 10.8089 169.501 5.56176 174.698 2.79983C180.129 -0.334615 187.785 0.516847 192.496 4.54C194.412 6.24293 196.018 8.21726 196.941 10.4364Z" fill="white"/>
<path fill-rule="evenodd" clip-rule="evenodd" d="M159.862 8.86635C161.5 11.8997 162.461 15.3428 161.879 19.1584L153.679 71.6191C153.711 71.6883 153.641 71.7575 153.577 71.7894L151.454 67.564L130.881 21.75C128.971 15.8537 130.747 9.68588 135.053 5.45518C139.391 1.05951 146.535 -0.132536 152.206 2.25688C155.215 3.55004 158.086 5.93413 159.862 8.86635Z" fill="white"/>
<path fill-rule="evenodd" clip-rule="evenodd" d="M226.698 30.956C229.467 35.6603 228.853 42.786 225.775 47.1497C223.865 50.215 220.717 51.7476 218.055 53.7592L175.441 82.9378H175.34L175.815 81.5382L198.405 30.6846C201.787 24.6818 208.243 21.6538 215.083 22.5691C219.762 23.4259 224.441 26.4592 226.698 30.956Z" fill="white"/>
<path fill-rule="evenodd" clip-rule="evenodd" d="M129.892 30.6823L153.405 82.9355H153.026L105.627 50.3457C100.809 46.296 98.83 40.224 100.468 34.0881C101.7 29.4902 105.526 25.1957 110.072 23.4928C117.52 20.7628 125.928 23.6577 129.892 30.6823Z" fill="white"/>
<path fill-rule="evenodd" clip-rule="evenodd" d="M239.069 67.8354C241.427 72.8111 240.504 79.6282 237.121 83.8535C233.771 87.9139 229.294 90.1277 224.028 89.9894L173.492 90.0266L215.828 60.6406C219.968 57.9851 226.253 57.5061 230.762 59.6561C234.251 61.0184 237.532 64.4242 239.069 67.8354Z" fill="white"/>
<path fill-rule="evenodd" clip-rule="evenodd" d="M89.4254 67.8354C87.0672 72.8111 87.9902 79.6282 91.3728 83.8535C94.7234 87.9139 99.1997 90.1277 104.46 89.9894L155.007 90.0266L112.666 60.6406C108.531 57.9851 102.241 57.5061 97.7272 59.6561C94.2432 61.0184 90.962 64.4242 89.4254 67.8354Z" fill="white"/>
<path fill-rule="evenodd" clip-rule="evenodd" d="M73.927 158.652C63.191 158.652 54.4565 149.937 54.4565 139.235C54.4565 128.536 63.191 119.824 73.927 119.824C84.6629 119.824 93.3974 128.536 93.3974 139.235C93.3974 149.937 84.6629 158.652 73.927 158.652ZM73.927 115.059C60.564 115.059 49.6914 125.903 49.6914 139.235C49.6914 152.564 60.564 163.417 73.927 163.417C87.2899 163.417 98.1625 152.564 98.1625 139.235C98.1625 125.903 87.2899 115.059 73.927 115.059Z" fill="white"/>
<path fill-rule="evenodd" clip-rule="evenodd" d="M282.907 139.541C281.604 138.859 273.699 134.797 272.56 134.206C268.411 132.098 266.938 130.223 266.938 127.054C266.938 122.659 270.561 119.815 276.177 119.815C279.475 119.815 282.664 121.262 284.529 122.311C284.872 122.498 285.27 122.598 285.689 122.598C287.001 122.598 288.07 121.535 288.07 120.223C288.07 119.345 287.59 118.576 286.876 118.167C284.523 116.858 280.508 115.059 276.177 115.059C267.928 115.059 262.167 119.993 262.167 127.054C262.167 133.401 266.346 136.394 270.44 138.478C271.582 139.059 279.581 143.173 280.784 143.803C283.943 145.454 285.689 147.929 285.689 150.776C285.689 154.596 282.448 158.652 276.444 158.652C270.61 158.652 266.076 154.748 264.821 153.548L264.451 153.191L260.922 156.396L261.338 156.805C262.902 158.359 268.627 163.414 276.444 163.414C285.212 163.414 290.454 156.986 290.454 150.776C290.454 146.139 287.705 142.04 282.907 139.541Z" fill="white"/>
<path fill-rule="evenodd" clip-rule="evenodd" d="M24.2325 119.821C29.435 119.821 34.3276 121.838 37.9994 125.5C38.871 126.367 40.511 126.367 41.3705 125.5C41.8261 125.058 42.069 124.461 42.069 123.822C42.069 123.189 41.8261 122.586 41.3705 122.144L41.082 121.844C36.5416 117.467 30.5526 115.059 24.2325 115.059C10.8696 115.059 0 125.9 0 139.232C0 152.564 10.8696 163.414 24.2325 163.414C31.2876 163.414 37.641 160.394 42.069 155.581L38.6979 152.212C35.1294 156.162 29.9695 158.649 24.2325 158.649C13.4996 158.649 4.76511 149.937 4.76511 139.232C4.76511 128.533 13.4996 119.821 24.2325 119.821Z" fill="white"/>
<path fill-rule="evenodd" clip-rule="evenodd" d="M188.529 119.821C193.728 119.821 198.624 121.838 202.292 125.5C203.167 126.367 204.807 126.367 205.667 125.5C206.122 125.058 206.371 124.461 206.371 123.822C206.371 123.189 206.122 122.586 205.667 122.144L205.378 121.844C200.832 117.467 194.852 115.059 188.529 115.059C175.166 115.059 164.293 125.9 164.293 139.232C164.293 152.564 175.166 163.414 188.529 163.414C195.577 163.414 201.934 160.394 206.365 155.581L202.991 152.212C199.425 156.162 194.265 158.649 188.529 158.649C177.793 158.649 169.058 149.937 169.058 139.232C169.058 128.533 177.793 119.821 188.529 119.821Z" fill="white"/>
<path fill-rule="evenodd" clip-rule="evenodd" d="M147.483 115.059C146.587 115.059 145.882 115.634 145.497 116.379C145.105 117.122 131.235 151.343 131.235 151.343C131.235 151.343 117.365 117.122 116.973 116.379C116.584 115.634 115.882 115.059 114.984 115.059C113.939 115.059 113.152 115.822 112.876 116.791C112.599 117.764 104.773 160.836 104.773 160.836C104.746 160.976 104.73 161.121 104.73 161.27C104.73 162.454 105.699 163.414 106.884 163.414C107.928 163.414 108.806 162.666 108.994 161.679L115.77 124.831C115.77 124.831 128.848 157.053 129.23 157.822C129.616 158.586 130.324 159.179 131.235 159.179C132.143 159.179 132.853 158.586 133.236 157.822C133.622 157.053 146.696 124.831 146.696 124.831L153.742 163.145H158.112C158.112 163.145 149.87 117.764 149.594 116.791C149.314 115.822 148.528 115.059 147.483 115.059Z" fill="white"/>
<path fill-rule="evenodd" clip-rule="evenodd" d="M226.446 140.571L233.649 122.892L240.865 140.571H226.446ZM233.649 115.059C232.744 115.059 232.046 115.646 231.648 116.416C231.259 117.182 213.699 160.434 213.699 160.434C213.593 160.691 213.535 160.976 213.535 161.27C213.535 162.457 214.498 163.417 215.685 163.417C216.59 163.417 217.368 162.851 217.684 162.054L224.502 145.33H242.806L250.077 163.148H254.72C254.72 163.148 236.037 117.182 235.651 116.416C235.265 115.646 234.561 115.059 233.649 115.059Z" fill="white"/>
<path fill-rule="evenodd" clip-rule="evenodd" d="M328.001 117.696C328.001 116.382 326.926 115.318 325.614 115.318H298.627C297.312 115.318 296.246 116.382 296.246 117.696C296.246 119.008 297.312 120.071 298.627 120.071H309.94V163.147H314.307V120.071H325.614C326.926 120.071 328.001 119.008 328.001 117.696Z" fill="white"/>
</g>
<defs>
<clipPath id="clip0">
<rect width="328" height="168" fill="white"/>
</clipPath>
</defs>
</svg>
