<svg width="107" height="75" viewBox="0 0 107 75" fill="none" xmlns="http://www.w3.org/2000/svg">
<path d="M48.832 45.3145C48.832 54.722 46.6673 61.8672 42.3379 66.75C38.041 71.6003 32.2142 74.0254 24.8574 74.0254C17.4355 74.0254 11.5599 71.6003 7.23047 66.75C2.90104 61.8672 0.736328 54.722 0.736328 45.3145V29.6406C0.736328 20.2656 2.88477 13.1367 7.18164 8.25391C11.5111 3.33854 17.3704 0.880859 24.7598 0.880859C32.1165 0.880859 37.9596 3.33854 42.2891 8.25391C46.651 13.1367 48.832 20.2656 48.832 29.6406V45.3145ZM34.623 28.1758C34.623 22.5443 33.7767 18.4264 32.084 15.8223C30.3913 13.1855 27.9499 11.8672 24.7598 11.8672C21.5371 11.8672 19.0957 13.1693 17.4355 15.7734C15.7754 18.3776 14.9453 22.5117 14.9453 28.1758V46.6816C14.9453 52.4108 15.7754 56.5775 17.4355 59.1816C19.1283 61.7858 21.6022 63.0879 24.8574 63.0879C28.0475 63.0879 30.4727 61.7858 32.1328 59.1816C33.793 56.5775 34.623 52.4108 34.623 46.6816V28.1758ZM98.7832 46.5352H106.84V56.0078H98.7832V62.9902L106.352 64.4551V73H76.957V64.4551L84.5742 62.9902V56.0078H55.5703L54.8867 49.0254L84.4277 1.90625H98.7832V46.5352ZM68.2168 46.5352H84.5742V20.9004L84.2812 20.8027L83.1094 22.8535L68.2168 46.5352Z" fill="white" fill-opacity="0.2"/>
</svg>
