<svg width="16" height="16" viewBox="0 0 16 16" fill="none" xmlns="http://www.w3.org/2000/svg">
<g opacity="0.4">
<path d="M8 1C4.14026 1 1 4.14026 1 8C1 11.8597 4.14026 15 8 15C11.8597 15 15 11.8597 15 8C15 4.14026 11.8597 1 8 1ZM8 14.125C4.62263 14.125 1.87501 11.3774 1.87501 8.00003C1.87501 4.62266 4.62263 1.87501 8 1.87501C11.3774 1.87501 14.125 4.62263 14.125 8C14.125 11.3774 11.3774 14.125 8 14.125Z" fill="white"/>
<path d="M8.43751 4.5H7.5625V8.18116L9.87818 10.4968L10.4968 9.87819L8.43751 7.81887V4.5Z" fill="white"/>
</g>
</svg>
