<svg xmlns="http://www.w3.org/2000/svg" xmlns:xlink="http://www.w3.org/1999/xlink" version="1.1" x="0px" y="0px" viewBox="0 0 100 125" style="enable-background:new 0 0 100 100;" xml:space="preserve"><path fill="#2c0735" d="M54,36.2c1.6-2,3.6-3.5,6-4.5c-2.7-1.8-4.4-4.9-4.4-8.3c0-5.6,4.5-10.1,10.1-10.1c5.6,0,10.1,4.5,10.1,10.1  c0,3.5-1.7,6.5-4.4,8.3c2.4,1,4.4,2.5,6,4.5c-5.3,1.3-9.7,5.1-11.7,10.2C63.7,41.4,59.3,37.5,54,36.2z M34.3,46.4  c0.8-2.1,2.1-4,3.8-5.7c2.2-2.2,5-3.7,7.9-4.4c-1.6-2-3.6-3.5-6-4.5c2.7-1.8,4.4-4.9,4.4-8.3c0-5.6-4.5-10.1-10.1-10.1  c-5.6,0-10.1,4.5-10.1,10.1c0,3.5,1.7,6.5,4.4,8.3c-2.4,1-4.4,2.5-6,4.5C27.9,37.5,32.3,41.4,34.3,46.4z M88.1,62.4  c3.3-2.3,5.4-6.1,5.2-10.4c-0.3-6-5.3-11-11.4-11.2c-0.2,0-0.3,0-0.5,0c-6.6,0-11.9,5.3-11.9,11.9c0,4.1,2,7.7,5.2,9.8  c-3.9,1.6-7.1,4.6-9,8.4c-1.9-3.8-5-6.8-9-8.4c3.3-2.3,5.4-6.1,5.2-10.4c-0.3-6-5.3-11-11.4-11.2c-0.2,0-0.3,0-0.5,0  c-6.6,0-11.9,5.3-11.9,11.9c0,4.1,2,7.7,5.2,9.8c-3.9,1.6-7.1,4.6-9,8.4c-1.9-3.8-5-6.8-9-8.4c3.3-2.3,5.4-6.1,5.2-10.4  c-0.3-6-5.3-11-11.4-11.2c-0.2,0-0.3,0-0.5,0c-6.6,0-11.9,5.3-11.9,11.9c0,4.1,2,7.7,5.2,9.8C5.6,65,1.2,71.2,1.2,78.4v5.9  c0,1.3,1.1,2.4,2.4,2.4h28.9h3.5h27.9h3.5h28.9c1.3,0,2.4-1.1,2.4-2.4v-5.9C98.8,71.2,94.4,65,88.1,62.4z"/></svg>
