<svg width="1190" height="858" viewBox="0 0 1190 858" fill="none" xmlns="http://www.w3.org/2000/svg">
<rect y="792" width="1190" height="66" fill="#C4C4C4"/>
<path d="M531.469 816.064L524.441 836H522.033L516.657 820.6L511.253 836H508.845L501.845 816.064H504.785L510.133 831.912L515.649 816.064L517.777 816.092L523.209 831.996L528.641 816.064H531.469ZM538.822 836.196C537.44 836.196 536.227 835.897 535.182 835.3C534.136 834.703 533.324 833.853 532.746 832.752C532.186 831.651 531.906 830.363 531.906 828.888C531.906 827.413 532.186 826.125 532.746 825.024C533.324 823.904 534.136 823.045 535.182 822.448C536.227 821.851 537.44 821.552 538.822 821.552C540.184 821.552 541.388 821.851 542.434 822.448C543.479 823.045 544.282 823.904 544.842 825.024C545.42 826.125 545.71 827.413 545.71 828.888C545.71 830.363 545.42 831.651 544.842 832.752C544.282 833.853 543.479 834.703 542.434 835.3C541.388 835.897 540.184 836.196 538.822 836.196ZM538.794 833.956C540.1 833.956 541.099 833.527 541.79 832.668C542.48 831.809 542.826 830.549 542.826 828.888C542.826 827.264 542.471 826.013 541.762 825.136C541.071 824.259 540.091 823.82 538.822 823.82C537.534 823.82 536.535 824.259 535.826 825.136C535.116 826.013 534.762 827.264 534.762 828.888C534.762 830.549 535.107 831.809 535.798 832.668C536.507 833.527 537.506 833.956 538.794 833.956ZM556.043 821.552C556.473 821.552 556.921 821.617 557.387 821.748L557.331 824.324C556.827 824.137 556.277 824.044 555.679 824.044C554.391 824.044 553.421 824.436 552.767 825.22C552.133 825.985 551.815 826.956 551.815 828.132V836H549.015V825.864C549.015 824.389 548.941 823.064 548.791 821.888H551.423L551.675 824.436C552.049 823.503 552.627 822.793 553.411 822.308C554.195 821.804 555.073 821.552 556.043 821.552ZM569.091 836L562.343 829.336V836H559.543V815.392H562.343V828.272L568.615 821.916H572.115L565.367 828.692L572.703 836H569.091ZM586.239 829H576.159C576.252 832.304 577.755 833.956 580.667 833.956C582.291 833.956 583.775 833.424 585.119 832.36L585.987 834.376C585.352 834.936 584.54 835.384 583.551 835.72C582.58 836.037 581.6 836.196 580.611 836.196C578.352 836.196 576.579 835.552 575.291 834.264C574.003 832.957 573.359 831.175 573.359 828.916C573.359 827.479 573.639 826.2 574.199 825.08C574.778 823.96 575.58 823.092 576.607 822.476C577.634 821.86 578.8 821.552 580.107 821.552C582.011 821.552 583.504 822.168 584.587 823.4C585.688 824.632 586.239 826.34 586.239 828.524V829ZM580.163 823.652C579.099 823.652 578.231 823.969 577.559 824.604C576.887 825.239 576.458 826.144 576.271 827.32H583.747C583.635 826.125 583.271 825.22 582.655 824.604C582.039 823.969 581.208 823.652 580.163 823.652ZM596.512 821.552C596.941 821.552 597.389 821.617 597.856 821.748L597.8 824.324C597.296 824.137 596.745 824.044 596.148 824.044C594.86 824.044 593.889 824.436 593.236 825.22C592.601 825.985 592.284 826.956 592.284 828.132V836H589.484V825.864C589.484 824.389 589.409 823.064 589.26 821.888H591.892L592.144 824.436C592.517 823.503 593.096 822.793 593.88 822.308C594.664 821.804 595.541 821.552 596.512 821.552ZM624.08 816.064V836H621.868L610.444 820.936V836H607.728V816.064H609.912L621.364 831.156V816.064H624.08ZM634.552 836.196C633.171 836.196 631.958 835.897 630.912 835.3C629.867 834.703 629.055 833.853 628.476 832.752C627.916 831.651 627.636 830.363 627.636 828.888C627.636 827.413 627.916 826.125 628.476 825.024C629.055 823.904 629.867 823.045 630.912 822.448C631.958 821.851 633.171 821.552 634.552 821.552C635.915 821.552 637.119 821.851 638.164 822.448C639.21 823.045 640.012 823.904 640.572 825.024C641.151 826.125 641.44 827.413 641.44 828.888C641.44 830.363 641.151 831.651 640.572 832.752C640.012 833.853 639.21 834.703 638.164 835.3C637.119 835.897 635.915 836.196 634.552 836.196ZM634.524 833.956C635.831 833.956 636.83 833.527 637.52 832.668C638.211 831.809 638.556 830.549 638.556 828.888C638.556 827.264 638.202 826.013 637.492 825.136C636.802 824.259 635.822 823.82 634.552 823.82C633.264 823.82 632.266 824.259 631.556 825.136C630.847 826.013 630.492 827.264 630.492 828.888C630.492 830.549 630.838 831.809 631.528 832.668C632.238 833.527 633.236 833.956 634.524 833.956ZM657.654 815.392V836H654.854V833.592C654.443 834.432 653.827 835.076 653.006 835.524C652.203 835.972 651.26 836.196 650.178 836.196C648.964 836.196 647.882 835.888 646.93 835.272C645.978 834.656 645.231 833.797 644.69 832.696C644.167 831.576 643.906 830.288 643.906 828.832C643.906 827.376 644.167 826.097 644.69 824.996C645.212 823.895 645.94 823.045 646.874 822.448C647.826 821.851 648.927 821.552 650.178 821.552C651.242 821.552 652.175 821.776 652.978 822.224C653.799 822.672 654.415 823.307 654.826 824.128V815.392H657.654ZM650.822 833.956C652.11 833.956 653.099 833.517 653.79 832.64C654.499 831.744 654.854 830.493 654.854 828.888C654.854 827.283 654.499 826.041 653.79 825.164C653.099 824.268 652.119 823.82 650.85 823.82C649.562 823.82 648.554 824.259 647.826 825.136C647.116 826.013 646.762 827.245 646.762 828.832C646.762 830.437 647.116 831.697 647.826 832.612C648.554 833.508 649.552 833.956 650.822 833.956ZM673.848 829H663.768C663.862 832.304 665.364 833.956 668.276 833.956C669.9 833.956 671.384 833.424 672.728 832.36L673.596 834.376C672.962 834.936 672.15 835.384 671.16 835.72C670.19 836.037 669.21 836.196 668.22 836.196C665.962 836.196 664.188 835.552 662.9 834.264C661.612 832.957 660.968 831.175 660.968 828.916C660.968 827.479 661.248 826.2 661.808 825.08C662.387 823.96 663.19 823.092 664.216 822.476C665.243 821.86 666.41 821.552 667.716 821.552C669.62 821.552 671.114 822.168 672.196 823.4C673.298 824.632 673.848 826.34 673.848 828.524V829ZM667.772 823.652C666.708 823.652 665.84 823.969 665.168 824.604C664.496 825.239 664.067 826.144 663.88 827.32H671.356C671.244 826.125 670.88 825.22 670.264 824.604C669.648 823.969 668.818 823.652 667.772 823.652ZM682.021 836.196C679.557 836.196 677.616 835.599 676.197 834.404L677.037 832.36C678.512 833.48 680.201 834.04 682.105 834.04C683.076 834.04 683.813 833.881 684.317 833.564C684.821 833.228 685.073 832.761 685.073 832.164C685.073 831.66 684.896 831.268 684.541 830.988C684.205 830.689 683.627 830.437 682.805 830.232L680.453 829.672C679.221 829.411 678.279 828.953 677.625 828.3C676.991 827.628 676.673 826.797 676.673 825.808C676.673 824.539 677.177 823.512 678.185 822.728C679.212 821.944 680.565 821.552 682.245 821.552C683.253 821.552 684.205 821.711 685.101 822.028C686.016 822.345 686.791 822.793 687.425 823.372L686.557 825.36C685.195 824.277 683.757 823.736 682.245 823.736C681.331 823.736 680.621 823.913 680.117 824.268C679.613 824.604 679.361 825.08 679.361 825.696C679.361 826.181 679.52 826.573 679.837 826.872C680.155 827.171 680.659 827.404 681.349 827.572L683.757 828.16C685.101 828.459 686.091 828.935 686.725 829.588C687.379 830.223 687.705 831.053 687.705 832.08C687.705 833.349 687.192 834.357 686.165 835.104C685.157 835.832 683.776 836.196 682.021 836.196Z" fill="black"/>
<rect y="693" width="1190" height="74" fill="#C4C4C4"/>
<path d="M535.88 737L526.052 727.592V737H523.168V717.064H526.052V726.136L535.46 717.064H539.016L528.964 726.696L539.52 737H535.88ZM553.063 722.888V737H550.319V734.648C549.871 735.469 549.255 736.104 548.471 736.552C547.687 736.981 546.8 737.196 545.811 737.196C542.413 737.196 540.715 735.311 540.715 731.54V722.888H543.515V731.512C543.515 732.669 543.748 733.528 544.215 734.088C544.7 734.629 545.428 734.9 546.399 734.9C547.556 734.9 548.48 734.527 549.171 733.78C549.88 733.033 550.235 732.044 550.235 730.812V722.888H553.063ZM564.681 722.552C565.913 722.552 567.005 722.851 567.957 723.448C568.909 724.045 569.646 724.895 570.169 725.996C570.691 727.097 570.953 728.376 570.953 729.832C570.953 731.288 570.682 732.576 570.141 733.696C569.618 734.797 568.881 735.656 567.929 736.272C566.977 736.888 565.894 737.196 564.681 737.196C563.598 737.196 562.646 736.972 561.825 736.524C561.022 736.057 560.415 735.395 560.005 734.536V737H557.205V716.392H560.005V725.212C560.415 724.372 561.022 723.719 561.825 723.252C562.646 722.785 563.598 722.552 564.681 722.552ZM564.037 734.956C565.306 734.956 566.295 734.508 567.005 733.612C567.714 732.697 568.069 731.437 568.069 729.832C568.069 728.245 567.714 727.013 567.005 726.136C566.295 725.259 565.306 724.82 564.037 724.82C562.749 724.82 561.75 725.259 561.041 726.136C560.35 727.013 560.005 728.264 560.005 729.888C560.005 731.512 560.35 732.763 561.041 733.64C561.75 734.517 562.749 734.956 564.037 734.956ZM586.307 730H576.227C576.321 733.304 577.823 734.956 580.735 734.956C582.359 734.956 583.843 734.424 585.187 733.36L586.055 735.376C585.421 735.936 584.609 736.384 583.619 736.72C582.649 737.037 581.669 737.196 580.679 737.196C578.421 737.196 576.647 736.552 575.359 735.264C574.071 733.957 573.427 732.175 573.427 729.916C573.427 728.479 573.707 727.2 574.267 726.08C574.846 724.96 575.649 724.092 576.675 723.476C577.702 722.86 578.869 722.552 580.175 722.552C582.079 722.552 583.573 723.168 584.655 724.4C585.757 725.632 586.307 727.34 586.307 729.524V730ZM580.231 724.652C579.167 724.652 578.299 724.969 577.627 725.604C576.955 726.239 576.526 727.144 576.339 728.32H583.815C583.703 727.125 583.339 726.22 582.723 725.604C582.107 724.969 581.277 724.652 580.231 724.652ZM596.58 722.552C597.01 722.552 597.458 722.617 597.924 722.748L597.868 725.324C597.364 725.137 596.814 725.044 596.216 725.044C594.928 725.044 593.958 725.436 593.304 726.22C592.67 726.985 592.352 727.956 592.352 729.132V737H589.552V726.864C589.552 725.389 589.478 724.064 589.328 722.888H591.96L592.212 725.436C592.586 724.503 593.164 723.793 593.948 723.308C594.732 722.804 595.61 722.552 596.58 722.552ZM607.584 722.552C610.962 722.552 612.652 724.437 612.652 728.208V737H609.824V728.376C609.824 727.144 609.581 726.248 609.096 725.688C608.629 725.128 607.873 724.848 606.828 724.848C605.633 724.848 604.672 725.221 603.944 725.968C603.234 726.715 602.88 727.713 602.88 728.964V737H600.08V726.864C600.08 725.389 600.005 724.064 599.856 722.888H602.488L602.74 725.324C603.188 724.428 603.832 723.747 604.672 723.28C605.53 722.795 606.501 722.552 607.584 722.552ZM628.717 730H618.637C618.731 733.304 620.233 734.956 623.145 734.956C624.769 734.956 626.253 734.424 627.597 733.36L628.465 735.376C627.831 735.936 627.019 736.384 626.029 736.72C625.059 737.037 624.079 737.196 623.089 737.196C620.831 737.196 619.057 736.552 617.769 735.264C616.481 733.957 615.837 732.175 615.837 729.916C615.837 728.479 616.117 727.2 616.677 726.08C617.256 724.96 618.059 724.092 619.085 723.476C620.112 722.86 621.279 722.552 622.585 722.552C624.489 722.552 625.983 723.168 627.065 724.4C628.167 725.632 628.717 727.34 628.717 729.524V730ZM622.641 724.652C621.577 724.652 620.709 724.969 620.037 725.604C619.365 726.239 618.936 727.144 618.749 728.32H626.225C626.113 727.125 625.749 726.22 625.133 725.604C624.517 724.969 623.687 724.652 622.641 724.652ZM635.494 725.072V732.156C635.494 733.127 635.699 733.817 636.11 734.228C636.539 734.62 637.127 734.816 637.874 734.816C638.359 734.816 638.854 734.741 639.358 734.592V736.888C638.742 737.093 638.042 737.196 637.258 737.196C635.802 737.196 634.673 736.785 633.87 735.964C633.067 735.143 632.666 733.948 632.666 732.38V725.072H629.922V722.888H632.666V719.36L635.494 718.38V722.888H639.386V725.072H635.494ZM654.038 730H643.958C644.051 733.304 645.554 734.956 648.466 734.956C650.09 734.956 651.574 734.424 652.918 733.36L653.786 735.376C653.151 735.936 652.339 736.384 651.35 736.72C650.379 737.037 649.399 737.196 648.41 737.196C646.151 737.196 644.378 736.552 643.09 735.264C641.802 733.957 641.158 732.175 641.158 729.916C641.158 728.479 641.438 727.2 641.998 726.08C642.576 724.96 643.379 724.092 644.406 723.476C645.432 722.86 646.599 722.552 647.906 722.552C649.81 722.552 651.303 723.168 652.386 724.4C653.487 725.632 654.038 727.34 654.038 729.524V730ZM647.962 724.652C646.898 724.652 646.03 724.969 645.358 725.604C644.686 726.239 644.256 727.144 644.07 728.32H651.546C651.434 727.125 651.07 726.22 650.454 725.604C649.838 724.969 649.007 724.652 647.962 724.652ZM662.211 737.196C659.747 737.196 657.806 736.599 656.387 735.404L657.227 733.36C658.702 734.48 660.391 735.04 662.295 735.04C663.266 735.04 664.003 734.881 664.507 734.564C665.011 734.228 665.263 733.761 665.263 733.164C665.263 732.66 665.086 732.268 664.731 731.988C664.395 731.689 663.816 731.437 662.995 731.232L660.643 730.672C659.411 730.411 658.468 729.953 657.815 729.3C657.18 728.628 656.863 727.797 656.863 726.808C656.863 725.539 657.367 724.512 658.375 723.728C659.402 722.944 660.755 722.552 662.435 722.552C663.443 722.552 664.395 722.711 665.291 723.028C666.206 723.345 666.98 723.793 667.615 724.372L666.747 726.36C665.384 725.277 663.947 724.736 662.435 724.736C661.52 724.736 660.811 724.913 660.307 725.268C659.803 725.604 659.551 726.08 659.551 726.696C659.551 727.181 659.71 727.573 660.027 727.872C660.344 728.171 660.848 728.404 661.539 728.572L663.947 729.16C665.291 729.459 666.28 729.935 666.915 730.588C667.568 731.223 667.895 732.053 667.895 733.08C667.895 734.349 667.382 735.357 666.355 736.104C665.347 736.832 663.966 737.196 662.211 737.196Z" fill="black"/>
<rect y="567" width="1190" height="104" fill="#8500AC"/>
<path d="M524.857 619.176C529.209 625.619 534.137 632.168 539.641 638.824L539.513 639.976C536.143 640.787 532.729 641.363 529.273 641.704L528.057 641.064C522.809 633.384 518.436 626.579 514.937 620.648L514.809 627.752L515.193 641H504.825L505.337 628.776L504.825 599.72H515.321L515.001 618.152L525.049 603.88L527.353 599.72H538.425L524.857 619.176ZM570.676 634.536L569.78 639.848C567.988 641 566.153 641.576 564.276 641.576C561.801 641.064 560.094 639.379 559.156 636.52H558.516C556.041 638.995 553.545 640.616 551.028 641.384C547.828 641.384 545.374 640.659 543.668 639.208C541.961 637.715 541.108 635.603 541.108 632.872L541.3 625.704L540.98 611.688L550.708 610.92L550.58 629.16C550.537 631.933 551.646 633.32 553.908 633.32C554.676 633.32 555.401 633.171 556.084 632.872C556.766 632.573 557.513 632.083 558.324 631.4V611.688L567.924 610.92L567.348 632.552C567.348 633.149 567.433 633.576 567.604 633.832C567.817 634.088 568.137 634.216 568.564 634.216C568.948 634.216 569.417 634.131 569.972 633.96L570.676 634.536ZM592.136 610.664C595.891 610.664 598.792 611.944 600.84 614.504C602.888 617.064 603.912 620.627 603.912 625.192C603.912 630.483 602.568 634.557 599.88 637.416C597.235 640.275 593.566 641.704 588.872 641.704C586.526 641.704 583.944 641.192 581.128 640.168L576.264 641.768L575.24 640.808L575.752 628.776L575.304 596.776L585.416 596.072L585.096 615.336H585.416C586.526 614.227 587.614 613.309 588.68 612.584C589.747 611.816 590.899 611.176 592.136 610.664ZM588.552 635.24C592.478 635.24 594.44 632.403 594.44 626.728C594.355 621.395 592.627 618.728 589.256 618.728C587.806 618.728 586.398 619.325 585.032 620.52L584.904 627.496L584.968 634.472C586.334 634.984 587.528 635.24 588.552 635.24ZM632.989 627.688L616.221 627.816C616.519 630.035 617.287 631.677 618.525 632.744C619.762 633.811 621.511 634.344 623.773 634.344C626.034 634.344 629.021 633.683 632.733 632.36L633.501 632.872L631.965 640.104C628.551 641.171 625.458 641.704 622.685 641.704C617.778 641.704 613.917 640.317 611.101 637.544C608.327 634.771 606.941 630.952 606.941 626.088C606.941 621.224 608.285 617.405 610.973 614.632C613.661 611.816 617.309 610.408 621.917 610.408C625.885 610.408 628.957 611.475 631.133 613.608C633.351 615.741 634.461 618.707 634.461 622.504C634.461 623.741 634.333 625.043 634.077 626.408L632.989 627.688ZM625.693 621.416C625.693 618.472 624.413 617 621.853 617C620.402 617 619.207 617.491 618.269 618.472C617.33 619.411 616.69 620.776 616.349 622.568L625.565 622.312L625.693 621.416ZM657.217 610.984C657.473 610.984 657.985 611.027 658.753 611.112V620.392L657.729 620.712C657.131 620.413 656.342 620.264 655.361 620.264C653.057 620.264 650.945 621.501 649.025 623.976V627.752L649.473 641H639.361L639.873 628.776L639.425 611.688L649.089 610.92V616.68H649.537C651.542 612.883 654.102 610.984 657.217 610.984ZM674.344 610.408C677.885 610.408 680.637 611.176 682.6 612.712C684.562 614.205 685.544 616.36 685.544 619.176C685.544 620.157 685.501 621.288 685.416 622.568C685.33 623.848 685.266 625.064 685.224 626.216C685.01 629.288 684.904 631.4 684.904 632.552C684.904 633.149 684.989 633.576 685.16 633.832C685.373 634.088 685.714 634.216 686.184 634.216C686.568 634.216 687.037 634.131 687.592 633.96L688.296 634.536L687.4 639.848C685.992 640.829 684.264 641.405 682.216 641.576C680.936 641.448 679.848 641 678.952 640.232C678.056 639.464 677.416 638.376 677.032 636.968H676.584C674.45 639.229 672.274 640.787 670.056 641.64C666.898 641.597 664.402 640.744 662.568 639.08C660.776 637.416 659.88 635.155 659.88 632.296C659.88 627.901 662.184 625.32 666.792 624.552L676.264 622.952V621.096C676.264 619.773 675.965 618.835 675.368 618.28C674.813 617.683 673.896 617.384 672.616 617.384C671.336 617.384 669.949 617.661 668.456 618.216C667.005 618.771 665.32 619.645 663.4 620.84L662.76 620.392L661.608 613.8C663.528 612.733 665.597 611.901 667.816 611.304C670.034 610.707 672.21 610.408 674.344 610.408ZM670.76 628.776C670.12 628.904 669.629 629.16 669.288 629.544C668.989 629.928 668.84 630.504 668.84 631.272C668.84 632.296 669.096 633.085 669.608 633.64C670.162 634.195 670.909 634.472 671.848 634.472C673.213 634.472 674.664 633.747 676.2 632.296L676.264 627.688L670.76 628.776Z" fill="white"/>
<rect y="488" width="1190" height="48" fill="#8500AC"/>
<path d="M568.442 521.196C567.024 521.196 565.782 520.897 564.718 520.3C563.673 519.703 562.87 518.863 562.31 517.78C561.75 516.679 561.47 515.4 561.47 513.944C561.47 512.488 561.76 511.2 562.338 510.08C562.936 508.96 563.766 508.092 564.83 507.476C565.894 506.86 567.136 506.552 568.554 506.552C569.544 506.552 570.496 506.72 571.41 507.056C572.325 507.373 573.062 507.812 573.622 508.372L572.754 510.416C571.429 509.371 570.094 508.848 568.75 508.848C567.388 508.848 566.324 509.296 565.558 510.192C564.793 511.069 564.41 512.311 564.41 513.916C564.41 515.521 564.793 516.763 565.558 517.64C566.324 518.499 567.388 518.928 568.75 518.928C570.132 518.928 571.466 518.405 572.754 517.36L573.622 519.404C573.025 519.964 572.26 520.403 571.326 520.72C570.412 521.037 569.45 521.196 568.442 521.196ZM583.059 521.224C581.51 521.224 580.091 521.019 578.803 520.608C577.534 520.197 576.432 519.581 575.499 518.76L576.535 516.632C577.506 517.416 578.514 517.985 579.559 518.34C580.604 518.695 581.78 518.872 583.087 518.872C584.58 518.872 585.738 518.592 586.559 518.032C587.38 517.472 587.791 516.679 587.791 515.652C587.791 514.793 587.408 514.149 586.643 513.72C585.878 513.272 584.664 512.861 583.003 512.488C581.416 512.152 580.119 511.769 579.111 511.34C578.103 510.892 577.31 510.304 576.731 509.576C576.152 508.829 575.863 507.877 575.863 506.72C575.863 505.563 576.171 504.545 576.787 503.668C577.403 502.772 578.271 502.081 579.391 501.596C580.53 501.092 581.836 500.84 583.311 500.84C584.711 500.84 586.018 501.055 587.231 501.484C588.463 501.913 589.49 502.52 590.311 503.304L589.275 505.432C588.36 504.667 587.418 504.107 586.447 503.752C585.476 503.379 584.44 503.192 583.339 503.192C581.902 503.192 580.772 503.5 579.951 504.116C579.13 504.713 578.719 505.535 578.719 506.58C578.719 507.476 579.074 508.157 579.783 508.624C580.511 509.091 581.668 509.511 583.255 509.884C584.916 510.257 586.26 510.649 587.287 511.06C588.314 511.471 589.135 512.031 589.751 512.74C590.367 513.449 590.675 514.364 590.675 515.484C590.675 516.641 590.367 517.649 589.751 518.508C589.135 519.367 588.248 520.039 587.091 520.524C585.952 520.991 584.608 521.224 583.059 521.224ZM597.533 509.072V516.156C597.533 517.127 597.738 517.817 598.149 518.228C598.578 518.62 599.166 518.816 599.913 518.816C600.398 518.816 600.893 518.741 601.397 518.592V520.888C600.781 521.093 600.081 521.196 599.297 521.196C597.841 521.196 596.712 520.785 595.909 519.964C595.106 519.143 594.705 517.948 594.705 516.38V509.072H591.961V506.888H594.705V503.36L597.533 502.38V506.888H601.425V509.072H597.533ZM610.113 521.196C608.732 521.196 607.518 520.897 606.473 520.3C605.428 519.703 604.616 518.853 604.037 517.752C603.477 516.651 603.197 515.363 603.197 513.888C603.197 512.413 603.477 511.125 604.037 510.024C604.616 508.904 605.428 508.045 606.473 507.448C607.518 506.851 608.732 506.552 610.113 506.552C611.476 506.552 612.68 506.851 613.725 507.448C614.77 508.045 615.573 508.904 616.133 510.024C616.712 511.125 617.001 512.413 617.001 513.888C617.001 515.363 616.712 516.651 616.133 517.752C615.573 518.853 614.77 519.703 613.725 520.3C612.68 520.897 611.476 521.196 610.113 521.196ZM610.085 518.956C611.392 518.956 612.39 518.527 613.081 517.668C613.772 516.809 614.117 515.549 614.117 513.888C614.117 512.264 613.762 511.013 613.053 510.136C612.362 509.259 611.382 508.82 610.113 508.82C608.825 508.82 607.826 509.259 607.117 510.136C606.408 511.013 606.053 512.264 606.053 513.888C606.053 515.549 606.398 516.809 607.089 517.668C607.798 518.527 608.797 518.956 610.085 518.956ZM627.334 506.552C627.764 506.552 628.212 506.617 628.678 506.748L628.622 509.324C628.118 509.137 627.568 509.044 626.97 509.044C625.682 509.044 624.712 509.436 624.058 510.22C623.424 510.985 623.106 511.956 623.106 513.132V521H620.306V510.864C620.306 509.389 620.232 508.064 620.082 506.888H622.714L622.966 509.436C623.34 508.503 623.918 507.793 624.702 507.308C625.486 506.804 626.364 506.552 627.334 506.552Z" fill="white"/>
<rect x="1.5" y="1.5" width="582" height="213" rx="6.5" fill="#A4A8FF" stroke="#2C0735" stroke-width="3"/>
<path d="M120.201 256.224C118.279 256.224 116.599 255.813 115.161 254.992C113.743 254.152 112.651 252.967 111.885 251.436C111.12 249.905 110.737 248.095 110.737 246.004C110.737 243.932 111.12 242.131 111.885 240.6C112.651 239.069 113.743 237.893 115.161 237.072C116.599 236.251 118.279 235.84 120.201 235.84C121.564 235.84 122.824 236.055 123.981 236.484C125.157 236.895 126.147 237.501 126.949 238.304L125.941 240.432C125.008 239.667 124.084 239.116 123.169 238.78C122.273 238.425 121.293 238.248 120.229 238.248C118.157 238.248 116.552 238.92 115.413 240.264C114.293 241.608 113.733 243.521 113.733 246.004C113.733 248.505 114.293 250.437 115.413 251.8C116.552 253.144 118.157 253.816 120.229 253.816C121.293 253.816 122.273 253.648 123.169 253.312C124.084 252.957 125.008 252.397 125.941 251.632L126.949 253.76C126.147 254.563 125.157 255.179 123.981 255.608C122.824 256.019 121.564 256.224 120.201 256.224ZM136.128 256.196C134.747 256.196 133.534 255.897 132.488 255.3C131.443 254.703 130.631 253.853 130.052 252.752C129.492 251.651 129.212 250.363 129.212 248.888C129.212 247.413 129.492 246.125 130.052 245.024C130.631 243.904 131.443 243.045 132.488 242.448C133.534 241.851 134.747 241.552 136.128 241.552C137.491 241.552 138.695 241.851 139.74 242.448C140.786 243.045 141.588 243.904 142.148 245.024C142.727 246.125 143.016 247.413 143.016 248.888C143.016 250.363 142.727 251.651 142.148 252.752C141.588 253.853 140.786 254.703 139.74 255.3C138.695 255.897 137.491 256.196 136.128 256.196ZM136.1 253.956C137.407 253.956 138.406 253.527 139.096 252.668C139.787 251.809 140.132 250.549 140.132 248.888C140.132 247.264 139.778 246.013 139.068 245.136C138.378 244.259 137.398 243.82 136.128 243.82C134.84 243.82 133.842 244.259 133.132 245.136C132.423 246.013 132.068 247.264 132.068 248.888C132.068 250.549 132.414 251.809 133.104 252.668C133.814 253.527 134.812 253.956 136.1 253.956ZM153.826 241.552C157.205 241.552 158.894 243.437 158.894 247.208V256H156.066V247.376C156.066 246.144 155.823 245.248 155.338 244.688C154.871 244.128 154.115 243.848 153.07 243.848C151.875 243.848 150.914 244.221 150.186 244.968C149.477 245.715 149.122 246.713 149.122 247.964V256H146.322V245.864C146.322 244.389 146.247 243.064 146.098 241.888H148.73L148.982 244.324C149.43 243.428 150.074 242.747 150.914 242.28C151.773 241.795 152.743 241.552 153.826 241.552ZM166.588 244.072V251.156C166.588 252.127 166.793 252.817 167.204 253.228C167.633 253.62 168.221 253.816 168.968 253.816C169.453 253.816 169.948 253.741 170.452 253.592V255.888C169.836 256.093 169.136 256.196 168.352 256.196C166.896 256.196 165.766 255.785 164.964 254.964C164.161 254.143 163.76 252.948 163.76 251.38V244.072H161.016V241.888H163.76V238.36L166.588 237.38V241.888H170.48V244.072H166.588ZM186 241.888V256H183.2V253.592C182.789 254.432 182.173 255.076 181.352 255.524C180.549 255.972 179.606 256.196 178.524 256.196C177.273 256.196 176.172 255.897 175.22 255.3C174.286 254.703 173.558 253.863 173.036 252.78C172.513 251.679 172.252 250.4 172.252 248.944C172.252 247.488 172.513 246.2 173.036 245.08C173.577 243.96 174.324 243.092 175.276 242.476C176.228 241.86 177.31 241.552 178.524 241.552C179.606 241.552 180.549 241.785 181.352 242.252C182.154 242.7 182.77 243.344 183.2 244.184V241.888H186ZM179.196 253.956C180.465 253.956 181.445 253.517 182.136 252.64C182.845 251.744 183.2 250.493 183.2 248.888C183.2 247.264 182.845 246.013 182.136 245.136C181.445 244.259 180.456 243.82 179.168 243.82C177.898 243.82 176.9 244.277 176.172 245.192C175.462 246.088 175.108 247.339 175.108 248.944C175.108 250.531 175.462 251.763 176.172 252.64C176.9 253.517 177.908 253.956 179.196 253.956ZM190.154 241.888H192.954V256H190.154V241.888ZM193.178 235.728V238.696H189.902V235.728H193.178ZM204.603 241.552C207.982 241.552 209.671 243.437 209.671 247.208V256H206.843V247.376C206.843 246.144 206.601 245.248 206.115 244.688C205.649 244.128 204.893 243.848 203.847 243.848C202.653 243.848 201.691 244.221 200.963 244.968C200.254 245.715 199.899 246.713 199.899 247.964V256H197.099V245.864C197.099 244.389 197.025 243.064 196.875 241.888H199.507L199.759 244.324C200.207 243.428 200.851 242.747 201.691 242.28C202.55 241.795 203.521 241.552 204.603 241.552ZM225.737 249H215.657C215.75 252.304 217.253 253.956 220.165 253.956C221.789 253.956 223.273 253.424 224.617 252.36L225.485 254.376C224.85 254.936 224.038 255.384 223.049 255.72C222.078 256.037 221.098 256.196 220.109 256.196C217.85 256.196 216.077 255.552 214.789 254.264C213.501 252.957 212.857 251.175 212.857 248.916C212.857 247.479 213.137 246.2 213.697 245.08C214.276 243.96 215.078 243.092 216.105 242.476C217.132 241.86 218.298 241.552 219.605 241.552C221.509 241.552 223.002 242.168 224.085 243.4C225.186 244.632 225.737 246.34 225.737 248.524V249ZM219.661 243.652C218.597 243.652 217.729 243.969 217.057 244.604C216.385 245.239 215.956 246.144 215.769 247.32H223.245C223.133 246.125 222.769 245.22 222.153 244.604C221.537 243.969 220.706 243.652 219.661 243.652ZM236.01 241.552C236.439 241.552 236.887 241.617 237.354 241.748L237.298 244.324C236.794 244.137 236.243 244.044 235.646 244.044C234.358 244.044 233.387 244.436 232.734 245.22C232.099 245.985 231.782 246.956 231.782 248.132V256H228.982V245.864C228.982 244.389 228.907 243.064 228.758 241.888H231.39L231.642 244.436C232.015 243.503 232.594 242.793 233.378 242.308C234.162 241.804 235.039 241.552 236.01 241.552ZM260.33 251.072H250.25L248.122 256H245.182L254.058 236.064H256.494L265.398 256H262.458L260.33 251.072ZM259.35 248.776L255.29 239.284L251.23 248.776H259.35ZM271.068 244.072V251.156C271.068 252.127 271.273 252.817 271.684 253.228C272.113 253.62 272.701 253.816 273.448 253.816C273.933 253.816 274.428 253.741 274.932 253.592V255.888C274.316 256.093 273.616 256.196 272.832 256.196C271.376 256.196 270.247 255.785 269.444 254.964C268.641 254.143 268.24 252.948 268.24 251.38V244.072H265.496V241.888H268.24V238.36L271.068 237.38V241.888H274.96V244.072H271.068ZM281.213 244.072V251.156C281.213 252.127 281.418 252.817 281.829 253.228C282.258 253.62 282.846 253.816 283.593 253.816C284.078 253.816 284.573 253.741 285.077 253.592V255.888C284.461 256.093 283.761 256.196 282.977 256.196C281.521 256.196 280.391 255.785 279.589 254.964C278.786 254.143 278.385 252.948 278.385 251.38V244.072H275.641V241.888H278.385V238.36L281.213 237.38V241.888H285.105V244.072H281.213ZM300.625 241.888V256H297.825V253.592C297.414 254.432 296.798 255.076 295.977 255.524C295.174 255.972 294.231 256.196 293.149 256.196C291.898 256.196 290.797 255.897 289.845 255.3C288.911 254.703 288.183 253.863 287.661 252.78C287.138 251.679 286.877 250.4 286.877 248.944C286.877 247.488 287.138 246.2 287.661 245.08C288.202 243.96 288.949 243.092 289.901 242.476C290.853 241.86 291.935 241.552 293.149 241.552C294.231 241.552 295.174 241.785 295.977 242.252C296.779 242.7 297.395 243.344 297.825 244.184V241.888H300.625ZM293.821 253.956C295.09 253.956 296.07 253.517 296.761 252.64C297.47 251.744 297.825 250.493 297.825 248.888C297.825 247.264 297.47 246.013 296.761 245.136C296.07 244.259 295.081 243.82 293.793 243.82C292.523 243.82 291.525 244.277 290.797 245.192C290.087 246.088 289.733 247.339 289.733 248.944C289.733 250.531 290.087 251.763 290.797 252.64C291.525 253.517 292.533 253.956 293.821 253.956ZM310.911 256.196C309.492 256.196 308.251 255.897 307.187 255.3C306.142 254.703 305.339 253.863 304.779 252.78C304.219 251.679 303.939 250.4 303.939 248.944C303.939 247.488 304.228 246.2 304.807 245.08C305.404 243.96 306.235 243.092 307.299 242.476C308.363 241.86 309.604 241.552 311.023 241.552C312.012 241.552 312.964 241.72 313.879 242.056C314.794 242.373 315.531 242.812 316.091 243.372L315.223 245.416C313.898 244.371 312.563 243.848 311.219 243.848C309.856 243.848 308.792 244.296 308.027 245.192C307.262 246.069 306.879 247.311 306.879 248.916C306.879 250.521 307.262 251.763 308.027 252.64C308.792 253.499 309.856 253.928 311.219 253.928C312.6 253.928 313.935 253.405 315.223 252.36L316.091 254.404C315.494 254.964 314.728 255.403 313.795 255.72C312.88 256.037 311.919 256.196 310.911 256.196ZM326.256 241.552C329.634 241.552 331.324 243.437 331.324 247.208V256H328.496V247.376C328.496 246.144 328.253 245.248 327.768 244.688C327.301 244.128 326.545 243.848 325.5 243.848C324.305 243.848 323.344 244.221 322.616 244.968C321.906 245.715 321.552 246.713 321.552 247.964V256H318.752V235.392H321.552V244.072C322.018 243.251 322.662 242.625 323.484 242.196C324.305 241.767 325.229 241.552 326.256 241.552ZM347.389 249H337.309C337.403 252.304 338.905 253.956 341.817 253.956C343.441 253.956 344.925 253.424 346.269 252.36L347.137 254.376C346.503 254.936 345.691 255.384 344.701 255.72C343.731 256.037 342.751 256.196 341.761 256.196C339.503 256.196 337.729 255.552 336.441 254.264C335.153 252.957 334.509 251.175 334.509 248.916C334.509 247.479 334.789 246.2 335.349 245.08C335.928 243.96 336.731 243.092 337.757 242.476C338.784 241.86 339.951 241.552 341.257 241.552C343.161 241.552 344.655 242.168 345.737 243.4C346.839 244.632 347.389 246.34 347.389 248.524V249ZM341.313 243.652C340.249 243.652 339.381 243.969 338.709 244.604C338.037 245.239 337.608 246.144 337.421 247.32H344.897C344.785 246.125 344.421 245.22 343.805 244.604C343.189 243.969 342.359 243.652 341.313 243.652ZM363.543 235.392V256H360.743V253.592C360.332 254.432 359.716 255.076 358.895 255.524C358.092 255.972 357.149 256.196 356.067 256.196C354.853 256.196 353.771 255.888 352.819 255.272C351.867 254.656 351.12 253.797 350.579 252.696C350.056 251.576 349.795 250.288 349.795 248.832C349.795 247.376 350.056 246.097 350.579 244.996C351.101 243.895 351.829 243.045 352.763 242.448C353.715 241.851 354.816 241.552 356.067 241.552C357.131 241.552 358.064 241.776 358.867 242.224C359.688 242.672 360.304 243.307 360.715 244.128V235.392H363.543ZM356.711 253.956C357.999 253.956 358.988 253.517 359.679 252.64C360.388 251.744 360.743 250.493 360.743 248.888C360.743 247.283 360.388 246.041 359.679 245.164C358.988 244.268 358.008 243.82 356.739 243.82C355.451 243.82 354.443 244.259 353.715 245.136C353.005 246.013 352.651 247.245 352.651 248.832C352.651 250.437 353.005 251.697 353.715 252.612C354.443 253.508 355.441 253.956 356.711 253.956ZM381.938 256.224C380.389 256.224 378.97 256.019 377.682 255.608C376.413 255.197 375.311 254.581 374.378 253.76L375.414 251.632C376.385 252.416 377.393 252.985 378.438 253.34C379.483 253.695 380.659 253.872 381.966 253.872C383.459 253.872 384.617 253.592 385.438 253.032C386.259 252.472 386.67 251.679 386.67 250.652C386.67 249.793 386.287 249.149 385.522 248.72C384.757 248.272 383.543 247.861 381.882 247.488C380.295 247.152 378.998 246.769 377.99 246.34C376.982 245.892 376.189 245.304 375.61 244.576C375.031 243.829 374.742 242.877 374.742 241.72C374.742 240.563 375.05 239.545 375.666 238.668C376.282 237.772 377.15 237.081 378.27 236.596C379.409 236.092 380.715 235.84 382.19 235.84C383.59 235.84 384.897 236.055 386.11 236.484C387.342 236.913 388.369 237.52 389.19 238.304L388.154 240.432C387.239 239.667 386.297 239.107 385.326 238.752C384.355 238.379 383.319 238.192 382.218 238.192C380.781 238.192 379.651 238.5 378.83 239.116C378.009 239.713 377.598 240.535 377.598 241.58C377.598 242.476 377.953 243.157 378.662 243.624C379.39 244.091 380.547 244.511 382.134 244.884C383.795 245.257 385.139 245.649 386.166 246.06C387.193 246.471 388.014 247.031 388.63 247.74C389.246 248.449 389.554 249.364 389.554 250.484C389.554 251.641 389.246 252.649 388.63 253.508C388.014 254.367 387.127 255.039 385.97 255.524C384.831 255.991 383.487 256.224 381.938 256.224ZM396.412 244.072V251.156C396.412 252.127 396.617 252.817 397.028 253.228C397.457 253.62 398.045 253.816 398.792 253.816C399.277 253.816 399.772 253.741 400.276 253.592V255.888C399.66 256.093 398.96 256.196 398.176 256.196C396.72 256.196 395.591 255.785 394.788 254.964C393.985 254.143 393.584 252.948 393.584 251.38V244.072H390.84V241.888H393.584V238.36L396.412 237.38V241.888H400.304V244.072H396.412ZM408.992 256.196C407.61 256.196 406.397 255.897 405.352 255.3C404.306 254.703 403.494 253.853 402.916 252.752C402.356 251.651 402.076 250.363 402.076 248.888C402.076 247.413 402.356 246.125 402.916 245.024C403.494 243.904 404.306 243.045 405.352 242.448C406.397 241.851 407.61 241.552 408.992 241.552C410.354 241.552 411.558 241.851 412.604 242.448C413.649 243.045 414.452 243.904 415.012 245.024C415.59 246.125 415.88 247.413 415.88 248.888C415.88 250.363 415.59 251.651 415.012 252.752C414.452 253.853 413.649 254.703 412.604 255.3C411.558 255.897 410.354 256.196 408.992 256.196ZM408.964 253.956C410.27 253.956 411.269 253.527 411.96 252.668C412.65 251.809 412.996 250.549 412.996 248.888C412.996 247.264 412.641 246.013 411.932 245.136C411.241 244.259 410.261 243.82 408.992 243.82C407.704 243.82 406.705 244.259 405.996 245.136C405.286 246.013 404.932 247.264 404.932 248.888C404.932 250.549 405.277 251.809 405.968 252.668C406.677 253.527 407.676 253.956 408.964 253.956ZM426.213 241.552C426.643 241.552 427.091 241.617 427.557 241.748L427.501 244.324C426.997 244.137 426.447 244.044 425.849 244.044C424.561 244.044 423.591 244.436 422.937 245.22C422.303 245.985 421.985 246.956 421.985 248.132V256H419.185V245.864C419.185 244.389 419.111 243.064 418.961 241.888H421.593L421.845 244.436C422.219 243.503 422.797 242.793 423.581 242.308C424.365 241.804 425.243 241.552 426.213 241.552ZM442.347 241.888V256H439.547V253.592C439.137 254.432 438.521 255.076 437.699 255.524C436.897 255.972 435.954 256.196 434.871 256.196C433.621 256.196 432.519 255.897 431.567 255.3C430.634 254.703 429.906 253.863 429.383 252.78C428.861 251.679 428.599 250.4 428.599 248.944C428.599 247.488 428.861 246.2 429.383 245.08C429.925 243.96 430.671 243.092 431.623 242.476C432.575 241.86 433.658 241.552 434.871 241.552C435.954 241.552 436.897 241.785 437.699 242.252C438.502 242.7 439.118 243.344 439.547 244.184V241.888H442.347ZM435.543 253.956C436.813 253.956 437.793 253.517 438.483 252.64C439.193 251.744 439.547 250.493 439.547 248.888C439.547 247.264 439.193 246.013 438.483 245.136C437.793 244.259 436.803 243.82 435.515 243.82C434.246 243.82 433.247 244.277 432.519 245.192C431.81 246.088 431.455 247.339 431.455 248.944C431.455 250.531 431.81 251.763 432.519 252.64C433.247 253.517 434.255 253.956 435.543 253.956ZM459.522 241.888V255.748C459.522 257.895 458.952 259.509 457.814 260.592C456.694 261.693 455.023 262.244 452.802 262.244C450.655 262.244 448.779 261.777 447.174 260.844L447.65 258.632C448.527 259.099 449.367 259.444 450.17 259.668C450.991 259.892 451.859 260.004 452.774 260.004C455.406 260.004 456.722 258.66 456.722 255.972V252.92C456.292 253.741 455.667 254.395 454.846 254.88C454.024 255.347 453.072 255.58 451.99 255.58C450.758 255.58 449.656 255.291 448.686 254.712C447.734 254.133 446.987 253.312 446.446 252.248C445.923 251.184 445.662 249.961 445.662 248.58C445.662 247.199 445.923 245.976 446.446 244.912C446.987 243.848 447.734 243.027 448.686 242.448C449.656 241.851 450.758 241.552 451.99 241.552C453.072 241.552 454.024 241.785 454.846 242.252C455.667 242.7 456.292 243.344 456.722 244.184V241.888H459.522ZM452.634 253.312C453.903 253.312 454.902 252.892 455.63 252.052C456.358 251.212 456.722 250.055 456.722 248.58C456.722 247.105 456.358 245.948 455.63 245.108C454.92 244.249 453.922 243.82 452.634 243.82C451.364 243.82 450.356 244.249 449.61 245.108C448.882 245.948 448.518 247.105 448.518 248.58C448.518 250.036 448.882 251.193 449.61 252.052C450.356 252.892 451.364 253.312 452.634 253.312ZM475.714 249H465.634C465.727 252.304 467.23 253.956 470.142 253.956C471.766 253.956 473.25 253.424 474.594 252.36L475.462 254.376C474.827 254.936 474.015 255.384 473.026 255.72C472.055 256.037 471.075 256.196 470.086 256.196C467.827 256.196 466.054 255.552 464.766 254.264C463.478 252.957 462.834 251.175 462.834 248.916C462.834 247.479 463.114 246.2 463.674 245.08C464.252 243.96 465.055 243.092 466.082 242.476C467.108 241.86 468.275 241.552 469.582 241.552C471.486 241.552 472.979 242.168 474.062 243.4C475.163 244.632 475.714 246.34 475.714 248.524V249ZM469.638 243.652C468.574 243.652 467.706 243.969 467.034 244.604C466.362 245.239 465.932 246.144 465.746 247.32H473.222C473.11 246.125 472.746 245.22 472.13 244.604C471.514 243.969 470.683 243.652 469.638 243.652Z" fill="black"/>
<rect x="27" y="33" width="250" height="48" fill="#C4C4C4"/>
<path d="M135.197 49.064H143.485C145.576 49.064 147.2 49.5773 148.357 50.604C149.533 51.612 150.121 52.9933 150.121 54.748C150.121 56.5027 149.524 57.8933 148.329 58.92C147.153 59.928 145.538 60.432 143.485 60.432H138.081V69H135.197V49.064ZM143.149 58.136C144.53 58.136 145.566 57.8467 146.257 57.268C146.966 56.6893 147.321 55.8493 147.321 54.748C147.321 53.6653 146.966 52.8347 146.257 52.256C145.566 51.6773 144.53 51.388 143.149 51.388H138.081V58.136H143.149ZM171.239 49.064L162.447 69H160.011L151.219 49.064H154.243L161.243 65.36L168.271 49.064H171.239Z" fill="black"/>
<rect x="309" y="33" width="250" height="48" fill="#C4C4C4"/>
<path d="M417.197 49.064H425.485C427.576 49.064 429.2 49.5773 430.357 50.604C431.533 51.612 432.121 52.9933 432.121 54.748C432.121 56.5027 431.524 57.8933 430.329 58.92C429.153 59.928 427.538 60.432 425.485 60.432H420.081V69H417.197V49.064ZM425.149 58.136C426.53 58.136 427.566 57.8467 428.257 57.268C428.966 56.6893 429.321 55.8493 429.321 54.748C429.321 53.6653 428.966 52.8347 428.257 52.256C427.566 51.6773 426.53 51.388 425.149 51.388H420.081V58.136H425.149ZM453.239 49.064L444.447 69H442.011L433.219 49.064H436.243L443.243 65.36L450.271 49.064H453.239Z" fill="black"/>
<rect x="309" y="135" width="250" height="48" fill="#C4C4C4"/>
<path d="M417.197 151.064H425.485C427.576 151.064 429.2 151.577 430.357 152.604C431.533 153.612 432.121 154.993 432.121 156.748C432.121 158.503 431.524 159.893 430.329 160.92C429.153 161.928 427.538 162.432 425.485 162.432H420.081V171H417.197V151.064ZM425.149 160.136C426.53 160.136 427.566 159.847 428.257 159.268C428.966 158.689 429.321 157.849 429.321 156.748C429.321 155.665 428.966 154.835 428.257 154.256C427.566 153.677 426.53 153.388 425.149 153.388H420.081V160.136H425.149ZM453.239 151.064L444.447 171H442.011L433.219 151.064H436.243L443.243 167.36L450.271 151.064H453.239Z" fill="black"/>
<rect x="27" y="135" width="250" height="48" fill="#C4C4C4"/>
<path d="M135.197 151.064H143.485C145.576 151.064 147.2 151.577 148.357 152.604C149.533 153.612 150.121 154.993 150.121 156.748C150.121 158.503 149.524 159.893 148.329 160.92C147.153 161.928 145.538 162.432 143.485 162.432H138.081V171H135.197V151.064ZM143.149 160.136C144.53 160.136 145.566 159.847 146.257 159.268C146.966 158.689 147.321 157.849 147.321 156.748C147.321 155.665 146.966 154.835 146.257 154.256C145.566 153.677 144.53 153.388 143.149 153.388H138.081V160.136H143.149ZM171.239 151.064L162.447 171H160.011L151.219 151.064H154.243L161.243 167.36L168.271 151.064H171.239Z" fill="black"/>
<rect x="606.5" y="1.5" width="582" height="213" rx="6.5" fill="#A4A8FF" stroke="#2C0735" stroke-width="3"/>
<path d="M725.201 256.224C723.279 256.224 721.599 255.813 720.161 254.992C718.743 254.152 717.651 252.967 716.885 251.436C716.12 249.905 715.737 248.095 715.737 246.004C715.737 243.932 716.12 242.131 716.885 240.6C717.651 239.069 718.743 237.893 720.161 237.072C721.599 236.251 723.279 235.84 725.201 235.84C726.564 235.84 727.824 236.055 728.981 236.484C730.157 236.895 731.147 237.501 731.949 238.304L730.941 240.432C730.008 239.667 729.084 239.116 728.169 238.78C727.273 238.425 726.293 238.248 725.229 238.248C723.157 238.248 721.552 238.92 720.413 240.264C719.293 241.608 718.733 243.521 718.733 246.004C718.733 248.505 719.293 250.437 720.413 251.8C721.552 253.144 723.157 253.816 725.229 253.816C726.293 253.816 727.273 253.648 728.169 253.312C729.084 252.957 730.008 252.397 730.941 251.632L731.949 253.76C731.147 254.563 730.157 255.179 728.981 255.608C727.824 256.019 726.564 256.224 725.201 256.224ZM741.128 256.196C739.747 256.196 738.534 255.897 737.488 255.3C736.443 254.703 735.631 253.853 735.052 252.752C734.492 251.651 734.212 250.363 734.212 248.888C734.212 247.413 734.492 246.125 735.052 245.024C735.631 243.904 736.443 243.045 737.488 242.448C738.534 241.851 739.747 241.552 741.128 241.552C742.491 241.552 743.695 241.851 744.74 242.448C745.786 243.045 746.588 243.904 747.148 245.024C747.727 246.125 748.016 247.413 748.016 248.888C748.016 250.363 747.727 251.651 747.148 252.752C746.588 253.853 745.786 254.703 744.74 255.3C743.695 255.897 742.491 256.196 741.128 256.196ZM741.1 253.956C742.407 253.956 743.406 253.527 744.096 252.668C744.787 251.809 745.132 250.549 745.132 248.888C745.132 247.264 744.778 246.013 744.068 245.136C743.378 244.259 742.398 243.82 741.128 243.82C739.84 243.82 738.842 244.259 738.132 245.136C737.423 246.013 737.068 247.264 737.068 248.888C737.068 250.549 737.414 251.809 738.104 252.668C738.814 253.527 739.812 253.956 741.1 253.956ZM758.826 241.552C762.205 241.552 763.894 243.437 763.894 247.208V256H761.066V247.376C761.066 246.144 760.823 245.248 760.338 244.688C759.871 244.128 759.115 243.848 758.07 243.848C756.875 243.848 755.914 244.221 755.186 244.968C754.477 245.715 754.122 246.713 754.122 247.964V256H751.322V245.864C751.322 244.389 751.247 243.064 751.098 241.888H753.73L753.982 244.324C754.43 243.428 755.074 242.747 755.914 242.28C756.773 241.795 757.743 241.552 758.826 241.552ZM771.588 244.072V251.156C771.588 252.127 771.793 252.817 772.204 253.228C772.633 253.62 773.221 253.816 773.968 253.816C774.453 253.816 774.948 253.741 775.452 253.592V255.888C774.836 256.093 774.136 256.196 773.352 256.196C771.896 256.196 770.766 255.785 769.964 254.964C769.161 254.143 768.76 252.948 768.76 251.38V244.072H766.016V241.888H768.76V238.36L771.588 237.38V241.888H775.48V244.072H771.588ZM791 241.888V256H788.2V253.592C787.789 254.432 787.173 255.076 786.352 255.524C785.549 255.972 784.606 256.196 783.524 256.196C782.273 256.196 781.172 255.897 780.22 255.3C779.286 254.703 778.558 253.863 778.036 252.78C777.513 251.679 777.252 250.4 777.252 248.944C777.252 247.488 777.513 246.2 778.036 245.08C778.577 243.96 779.324 243.092 780.276 242.476C781.228 241.86 782.31 241.552 783.524 241.552C784.606 241.552 785.549 241.785 786.352 242.252C787.154 242.7 787.77 243.344 788.2 244.184V241.888H791ZM784.196 253.956C785.465 253.956 786.445 253.517 787.136 252.64C787.845 251.744 788.2 250.493 788.2 248.888C788.2 247.264 787.845 246.013 787.136 245.136C786.445 244.259 785.456 243.82 784.168 243.82C782.898 243.82 781.9 244.277 781.172 245.192C780.462 246.088 780.108 247.339 780.108 248.944C780.108 250.531 780.462 251.763 781.172 252.64C781.9 253.517 782.908 253.956 784.196 253.956ZM795.154 241.888H797.954V256H795.154V241.888ZM798.178 235.728V238.696H794.902V235.728H798.178ZM809.603 241.552C812.982 241.552 814.671 243.437 814.671 247.208V256H811.843V247.376C811.843 246.144 811.601 245.248 811.115 244.688C810.649 244.128 809.893 243.848 808.847 243.848C807.653 243.848 806.691 244.221 805.963 244.968C805.254 245.715 804.899 246.713 804.899 247.964V256H802.099V245.864C802.099 244.389 802.025 243.064 801.875 241.888H804.507L804.759 244.324C805.207 243.428 805.851 242.747 806.691 242.28C807.55 241.795 808.521 241.552 809.603 241.552ZM830.737 249H820.657C820.75 252.304 822.253 253.956 825.165 253.956C826.789 253.956 828.273 253.424 829.617 252.36L830.485 254.376C829.85 254.936 829.038 255.384 828.049 255.72C827.078 256.037 826.098 256.196 825.109 256.196C822.85 256.196 821.077 255.552 819.789 254.264C818.501 252.957 817.857 251.175 817.857 248.916C817.857 247.479 818.137 246.2 818.697 245.08C819.276 243.96 820.078 243.092 821.105 242.476C822.132 241.86 823.298 241.552 824.605 241.552C826.509 241.552 828.002 242.168 829.085 243.4C830.186 244.632 830.737 246.34 830.737 248.524V249ZM824.661 243.652C823.597 243.652 822.729 243.969 822.057 244.604C821.385 245.239 820.956 246.144 820.769 247.32H828.245C828.133 246.125 827.769 245.22 827.153 244.604C826.537 243.969 825.706 243.652 824.661 243.652ZM841.01 241.552C841.439 241.552 841.887 241.617 842.354 241.748L842.298 244.324C841.794 244.137 841.243 244.044 840.646 244.044C839.358 244.044 838.387 244.436 837.734 245.22C837.099 245.985 836.782 246.956 836.782 248.132V256H833.982V245.864C833.982 244.389 833.907 243.064 833.758 241.888H836.39L836.642 244.436C837.015 243.503 837.594 242.793 838.378 242.308C839.162 241.804 840.039 241.552 841.01 241.552ZM865.33 251.072H855.25L853.122 256H850.182L859.058 236.064H861.494L870.398 256H867.458L865.33 251.072ZM864.35 248.776L860.29 239.284L856.23 248.776H864.35ZM876.068 244.072V251.156C876.068 252.127 876.273 252.817 876.684 253.228C877.113 253.62 877.701 253.816 878.448 253.816C878.933 253.816 879.428 253.741 879.932 253.592V255.888C879.316 256.093 878.616 256.196 877.832 256.196C876.376 256.196 875.247 255.785 874.444 254.964C873.641 254.143 873.24 252.948 873.24 251.38V244.072H870.496V241.888H873.24V238.36L876.068 237.38V241.888H879.96V244.072H876.068ZM886.213 244.072V251.156C886.213 252.127 886.418 252.817 886.829 253.228C887.258 253.62 887.846 253.816 888.593 253.816C889.078 253.816 889.573 253.741 890.077 253.592V255.888C889.461 256.093 888.761 256.196 887.977 256.196C886.521 256.196 885.391 255.785 884.589 254.964C883.786 254.143 883.385 252.948 883.385 251.38V244.072H880.641V241.888H883.385V238.36L886.213 237.38V241.888H890.105V244.072H886.213ZM905.625 241.888V256H902.825V253.592C902.414 254.432 901.798 255.076 900.977 255.524C900.174 255.972 899.231 256.196 898.149 256.196C896.898 256.196 895.797 255.897 894.845 255.3C893.911 254.703 893.183 253.863 892.661 252.78C892.138 251.679 891.877 250.4 891.877 248.944C891.877 247.488 892.138 246.2 892.661 245.08C893.202 243.96 893.949 243.092 894.901 242.476C895.853 241.86 896.935 241.552 898.149 241.552C899.231 241.552 900.174 241.785 900.977 242.252C901.779 242.7 902.395 243.344 902.825 244.184V241.888H905.625ZM898.821 253.956C900.09 253.956 901.07 253.517 901.761 252.64C902.47 251.744 902.825 250.493 902.825 248.888C902.825 247.264 902.47 246.013 901.761 245.136C901.07 244.259 900.081 243.82 898.793 243.82C897.523 243.82 896.525 244.277 895.797 245.192C895.087 246.088 894.733 247.339 894.733 248.944C894.733 250.531 895.087 251.763 895.797 252.64C896.525 253.517 897.533 253.956 898.821 253.956ZM915.911 256.196C914.492 256.196 913.251 255.897 912.187 255.3C911.142 254.703 910.339 253.863 909.779 252.78C909.219 251.679 908.939 250.4 908.939 248.944C908.939 247.488 909.228 246.2 909.807 245.08C910.404 243.96 911.235 243.092 912.299 242.476C913.363 241.86 914.604 241.552 916.023 241.552C917.012 241.552 917.964 241.72 918.879 242.056C919.794 242.373 920.531 242.812 921.091 243.372L920.223 245.416C918.898 244.371 917.563 243.848 916.219 243.848C914.856 243.848 913.792 244.296 913.027 245.192C912.262 246.069 911.879 247.311 911.879 248.916C911.879 250.521 912.262 251.763 913.027 252.64C913.792 253.499 914.856 253.928 916.219 253.928C917.6 253.928 918.935 253.405 920.223 252.36L921.091 254.404C920.494 254.964 919.728 255.403 918.795 255.72C917.88 256.037 916.919 256.196 915.911 256.196ZM931.256 241.552C934.634 241.552 936.324 243.437 936.324 247.208V256H933.496V247.376C933.496 246.144 933.253 245.248 932.768 244.688C932.301 244.128 931.545 243.848 930.5 243.848C929.305 243.848 928.344 244.221 927.616 244.968C926.906 245.715 926.552 246.713 926.552 247.964V256H923.752V235.392H926.552V244.072C927.018 243.251 927.662 242.625 928.484 242.196C929.305 241.767 930.229 241.552 931.256 241.552ZM952.389 249H942.309C942.403 252.304 943.905 253.956 946.817 253.956C948.441 253.956 949.925 253.424 951.269 252.36L952.137 254.376C951.503 254.936 950.691 255.384 949.701 255.72C948.731 256.037 947.751 256.196 946.761 256.196C944.503 256.196 942.729 255.552 941.441 254.264C940.153 252.957 939.509 251.175 939.509 248.916C939.509 247.479 939.789 246.2 940.349 245.08C940.928 243.96 941.731 243.092 942.757 242.476C943.784 241.86 944.951 241.552 946.257 241.552C948.161 241.552 949.655 242.168 950.737 243.4C951.839 244.632 952.389 246.34 952.389 248.524V249ZM946.313 243.652C945.249 243.652 944.381 243.969 943.709 244.604C943.037 245.239 942.608 246.144 942.421 247.32H949.897C949.785 246.125 949.421 245.22 948.805 244.604C948.189 243.969 947.359 243.652 946.313 243.652ZM968.543 235.392V256H965.743V253.592C965.332 254.432 964.716 255.076 963.895 255.524C963.092 255.972 962.149 256.196 961.067 256.196C959.853 256.196 958.771 255.888 957.819 255.272C956.867 254.656 956.12 253.797 955.579 252.696C955.056 251.576 954.795 250.288 954.795 248.832C954.795 247.376 955.056 246.097 955.579 244.996C956.101 243.895 956.829 243.045 957.763 242.448C958.715 241.851 959.816 241.552 961.067 241.552C962.131 241.552 963.064 241.776 963.867 242.224C964.688 242.672 965.304 243.307 965.715 244.128V235.392H968.543ZM961.711 253.956C962.999 253.956 963.988 253.517 964.679 252.64C965.388 251.744 965.743 250.493 965.743 248.888C965.743 247.283 965.388 246.041 964.679 245.164C963.988 244.268 963.008 243.82 961.739 243.82C960.451 243.82 959.443 244.259 958.715 245.136C958.005 246.013 957.651 247.245 957.651 248.832C957.651 250.437 958.005 251.697 958.715 252.612C959.443 253.508 960.441 253.956 961.711 253.956ZM986.938 256.224C985.389 256.224 983.97 256.019 982.682 255.608C981.413 255.197 980.311 254.581 979.378 253.76L980.414 251.632C981.385 252.416 982.393 252.985 983.438 253.34C984.483 253.695 985.659 253.872 986.966 253.872C988.459 253.872 989.617 253.592 990.438 253.032C991.259 252.472 991.67 251.679 991.67 250.652C991.67 249.793 991.287 249.149 990.522 248.72C989.757 248.272 988.543 247.861 986.882 247.488C985.295 247.152 983.998 246.769 982.99 246.34C981.982 245.892 981.189 245.304 980.61 244.576C980.031 243.829 979.742 242.877 979.742 241.72C979.742 240.563 980.05 239.545 980.666 238.668C981.282 237.772 982.15 237.081 983.27 236.596C984.409 236.092 985.715 235.84 987.19 235.84C988.59 235.84 989.897 236.055 991.11 236.484C992.342 236.913 993.369 237.52 994.19 238.304L993.154 240.432C992.239 239.667 991.297 239.107 990.326 238.752C989.355 238.379 988.319 238.192 987.218 238.192C985.781 238.192 984.651 238.5 983.83 239.116C983.009 239.713 982.598 240.535 982.598 241.58C982.598 242.476 982.953 243.157 983.662 243.624C984.39 244.091 985.547 244.511 987.134 244.884C988.795 245.257 990.139 245.649 991.166 246.06C992.193 246.471 993.014 247.031 993.63 247.74C994.246 248.449 994.554 249.364 994.554 250.484C994.554 251.641 994.246 252.649 993.63 253.508C993.014 254.367 992.127 255.039 990.97 255.524C989.831 255.991 988.487 256.224 986.938 256.224ZM1001.41 244.072V251.156C1001.41 252.127 1001.62 252.817 1002.03 253.228C1002.46 253.62 1003.05 253.816 1003.79 253.816C1004.28 253.816 1004.77 253.741 1005.28 253.592V255.888C1004.66 256.093 1003.96 256.196 1003.18 256.196C1001.72 256.196 1000.59 255.785 999.788 254.964C998.985 254.143 998.584 252.948 998.584 251.38V244.072H995.84V241.888H998.584V238.36L1001.41 237.38V241.888H1005.3V244.072H1001.41ZM1013.99 256.196C1012.61 256.196 1011.4 255.897 1010.35 255.3C1009.31 254.703 1008.49 253.853 1007.92 252.752C1007.36 251.651 1007.08 250.363 1007.08 248.888C1007.08 247.413 1007.36 246.125 1007.92 245.024C1008.49 243.904 1009.31 243.045 1010.35 242.448C1011.4 241.851 1012.61 241.552 1013.99 241.552C1015.35 241.552 1016.56 241.851 1017.6 242.448C1018.65 243.045 1019.45 243.904 1020.01 245.024C1020.59 246.125 1020.88 247.413 1020.88 248.888C1020.88 250.363 1020.59 251.651 1020.01 252.752C1019.45 253.853 1018.65 254.703 1017.6 255.3C1016.56 255.897 1015.35 256.196 1013.99 256.196ZM1013.96 253.956C1015.27 253.956 1016.27 253.527 1016.96 252.668C1017.65 251.809 1018 250.549 1018 248.888C1018 247.264 1017.64 246.013 1016.93 245.136C1016.24 244.259 1015.26 243.82 1013.99 243.82C1012.7 243.82 1011.71 244.259 1011 245.136C1010.29 246.013 1009.93 247.264 1009.93 248.888C1009.93 250.549 1010.28 251.809 1010.97 252.668C1011.68 253.527 1012.68 253.956 1013.96 253.956ZM1031.21 241.552C1031.64 241.552 1032.09 241.617 1032.56 241.748L1032.5 244.324C1032 244.137 1031.45 244.044 1030.85 244.044C1029.56 244.044 1028.59 244.436 1027.94 245.22C1027.3 245.985 1026.99 246.956 1026.99 248.132V256H1024.19V245.864C1024.19 244.389 1024.11 243.064 1023.96 241.888H1026.59L1026.85 244.436C1027.22 243.503 1027.8 242.793 1028.58 242.308C1029.37 241.804 1030.24 241.552 1031.21 241.552ZM1047.35 241.888V256H1044.55V253.592C1044.14 254.432 1043.52 255.076 1042.7 255.524C1041.9 255.972 1040.95 256.196 1039.87 256.196C1038.62 256.196 1037.52 255.897 1036.57 255.3C1035.63 254.703 1034.91 253.863 1034.38 252.78C1033.86 251.679 1033.6 250.4 1033.6 248.944C1033.6 247.488 1033.86 246.2 1034.38 245.08C1034.92 243.96 1035.67 243.092 1036.62 242.476C1037.58 241.86 1038.66 241.552 1039.87 241.552C1040.95 241.552 1041.9 241.785 1042.7 242.252C1043.5 242.7 1044.12 243.344 1044.55 244.184V241.888H1047.35ZM1040.54 253.956C1041.81 253.956 1042.79 253.517 1043.48 252.64C1044.19 251.744 1044.55 250.493 1044.55 248.888C1044.55 247.264 1044.19 246.013 1043.48 245.136C1042.79 244.259 1041.8 243.82 1040.52 243.82C1039.25 243.82 1038.25 244.277 1037.52 245.192C1036.81 246.088 1036.46 247.339 1036.46 248.944C1036.46 250.531 1036.81 251.763 1037.52 252.64C1038.25 253.517 1039.26 253.956 1040.54 253.956ZM1064.52 241.888V255.748C1064.52 257.895 1063.95 259.509 1062.81 260.592C1061.69 261.693 1060.02 262.244 1057.8 262.244C1055.66 262.244 1053.78 261.777 1052.17 260.844L1052.65 258.632C1053.53 259.099 1054.37 259.444 1055.17 259.668C1055.99 259.892 1056.86 260.004 1057.77 260.004C1060.41 260.004 1061.72 258.66 1061.72 255.972V252.92C1061.29 253.741 1060.67 254.395 1059.85 254.88C1059.02 255.347 1058.07 255.58 1056.99 255.58C1055.76 255.58 1054.66 255.291 1053.69 254.712C1052.73 254.133 1051.99 253.312 1051.45 252.248C1050.92 251.184 1050.66 249.961 1050.66 248.58C1050.66 247.199 1050.92 245.976 1051.45 244.912C1051.99 243.848 1052.73 243.027 1053.69 242.448C1054.66 241.851 1055.76 241.552 1056.99 241.552C1058.07 241.552 1059.02 241.785 1059.85 242.252C1060.67 242.7 1061.29 243.344 1061.72 244.184V241.888H1064.52ZM1057.63 253.312C1058.9 253.312 1059.9 252.892 1060.63 252.052C1061.36 251.212 1061.72 250.055 1061.72 248.58C1061.72 247.105 1061.36 245.948 1060.63 245.108C1059.92 244.249 1058.92 243.82 1057.63 243.82C1056.36 243.82 1055.36 244.249 1054.61 245.108C1053.88 245.948 1053.52 247.105 1053.52 248.58C1053.52 250.036 1053.88 251.193 1054.61 252.052C1055.36 252.892 1056.36 253.312 1057.63 253.312ZM1080.71 249H1070.63C1070.73 252.304 1072.23 253.956 1075.14 253.956C1076.77 253.956 1078.25 253.424 1079.59 252.36L1080.46 254.376C1079.83 254.936 1079.01 255.384 1078.03 255.72C1077.05 256.037 1076.07 256.196 1075.09 256.196C1072.83 256.196 1071.05 255.552 1069.77 254.264C1068.48 252.957 1067.83 251.175 1067.83 248.916C1067.83 247.479 1068.11 246.2 1068.67 245.08C1069.25 243.96 1070.05 243.092 1071.08 242.476C1072.11 241.86 1073.27 241.552 1074.58 241.552C1076.49 241.552 1077.98 242.168 1079.06 243.4C1080.16 244.632 1080.71 246.34 1080.71 248.524V249ZM1074.64 243.652C1073.57 243.652 1072.71 243.969 1072.03 244.604C1071.36 245.239 1070.93 246.144 1070.75 247.32H1078.22C1078.11 246.125 1077.75 245.22 1077.13 244.604C1076.51 243.969 1075.68 243.652 1074.64 243.652Z" fill="black"/>
<rect x="632" y="33" width="250" height="48" fill="#C4C4C4"/>
<path d="M740.197 49.064H748.485C750.576 49.064 752.2 49.5773 753.357 50.604C754.533 51.612 755.121 52.9933 755.121 54.748C755.121 56.5027 754.524 57.8933 753.329 58.92C752.153 59.928 750.538 60.432 748.485 60.432H743.081V69H740.197V49.064ZM748.149 58.136C749.53 58.136 750.566 57.8467 751.257 57.268C751.966 56.6893 752.321 55.8493 752.321 54.748C752.321 53.6653 751.966 52.8347 751.257 52.256C750.566 51.6773 749.53 51.388 748.149 51.388H743.081V58.136H748.149ZM776.239 49.064L767.447 69H765.011L756.219 49.064H759.243L766.243 65.36L773.271 49.064H776.239Z" fill="black"/>
<rect x="914" y="33" width="250" height="48" fill="#C4C4C4"/>
<path d="M1022.2 49.064H1030.48C1032.58 49.064 1034.2 49.5773 1035.36 50.604C1036.53 51.612 1037.12 52.9933 1037.12 54.748C1037.12 56.5027 1036.52 57.8933 1035.33 58.92C1034.15 59.928 1032.54 60.432 1030.48 60.432H1025.08V69H1022.2V49.064ZM1030.15 58.136C1031.53 58.136 1032.57 57.8467 1033.26 57.268C1033.97 56.6893 1034.32 55.8493 1034.32 54.748C1034.32 53.6653 1033.97 52.8347 1033.26 52.256C1032.57 51.6773 1031.53 51.388 1030.15 51.388H1025.08V58.136H1030.15ZM1058.24 49.064L1049.45 69H1047.01L1038.22 49.064H1041.24L1048.24 65.36L1055.27 49.064H1058.24Z" fill="black"/>
<rect x="914" y="135" width="250" height="48" fill="#C4C4C4"/>
<path d="M1022.2 151.064H1030.48C1032.58 151.064 1034.2 151.577 1035.36 152.604C1036.53 153.612 1037.12 154.993 1037.12 156.748C1037.12 158.503 1036.52 159.893 1035.33 160.92C1034.15 161.928 1032.54 162.432 1030.48 162.432H1025.08V171H1022.2V151.064ZM1030.15 160.136C1031.53 160.136 1032.57 159.847 1033.26 159.268C1033.97 158.689 1034.32 157.849 1034.32 156.748C1034.32 155.665 1033.97 154.835 1033.26 154.256C1032.57 153.677 1031.53 153.388 1030.15 153.388H1025.08V160.136H1030.15ZM1058.24 151.064L1049.45 171H1047.01L1038.22 151.064H1041.24L1048.24 167.36L1055.27 151.064H1058.24Z" fill="black"/>
<rect x="632" y="135" width="250" height="48" fill="#C4C4C4"/>
<path d="M740.197 151.064H748.485C750.576 151.064 752.2 151.577 753.357 152.604C754.533 153.612 755.121 154.993 755.121 156.748C755.121 158.503 754.524 159.893 753.329 160.92C752.153 161.928 750.538 162.432 748.485 162.432H743.081V171H740.197V151.064ZM748.149 160.136C749.53 160.136 750.566 159.847 751.257 159.268C751.966 158.689 752.321 157.849 752.321 156.748C752.321 155.665 751.966 154.835 751.257 154.256C750.566 153.677 749.53 153.388 748.149 153.388H743.081V160.136H748.149ZM776.239 151.064L767.447 171H765.011L756.219 151.064H759.243L766.243 167.36L773.271 151.064H776.239Z" fill="black"/>
<rect x="94.2754" y="343" width="398.069" height="48" fill="#8500AC"/>
<path d="M147.347 376.196C145.928 376.196 144.687 375.897 143.623 375.3C142.577 374.703 141.775 373.863 141.215 372.78C140.655 371.679 140.375 370.4 140.375 368.944C140.375 367.488 140.664 366.2 141.243 365.08C141.84 363.96 142.671 363.092 143.735 362.476C144.799 361.86 146.04 361.552 147.459 361.552C148.448 361.552 149.4 361.72 150.315 362.056C151.229 362.373 151.967 362.812 152.527 363.372L151.659 365.416C150.333 364.371 148.999 363.848 147.655 363.848C146.292 363.848 145.228 364.296 144.463 365.192C143.697 366.069 143.315 367.311 143.315 368.916C143.315 370.521 143.697 371.763 144.463 372.64C145.228 373.499 146.292 373.928 147.655 373.928C149.036 373.928 150.371 373.405 151.659 372.36L152.527 374.404C151.929 374.964 151.164 375.403 150.231 375.72C149.316 376.037 148.355 376.196 147.347 376.196ZM161.963 376.224C160.414 376.224 158.995 376.019 157.707 375.608C156.438 375.197 155.337 374.581 154.403 373.76L155.439 371.632C156.41 372.416 157.418 372.985 158.463 373.34C159.509 373.695 160.685 373.872 161.991 373.872C163.485 373.872 164.642 373.592 165.463 373.032C166.285 372.472 166.695 371.679 166.695 370.652C166.695 369.793 166.313 369.149 165.547 368.72C164.782 368.272 163.569 367.861 161.907 367.488C160.321 367.152 159.023 366.769 158.015 366.34C157.007 365.892 156.214 365.304 155.635 364.576C155.057 363.829 154.767 362.877 154.767 361.72C154.767 360.563 155.075 359.545 155.691 358.668C156.307 357.772 157.175 357.081 158.295 356.596C159.434 356.092 160.741 355.84 162.215 355.84C163.615 355.84 164.922 356.055 166.135 356.484C167.367 356.913 168.394 357.52 169.215 358.304L168.179 360.432C167.265 359.667 166.322 359.107 165.351 358.752C164.381 358.379 163.345 358.192 162.243 358.192C160.806 358.192 159.677 358.5 158.855 359.116C158.034 359.713 157.623 360.535 157.623 361.58C157.623 362.476 157.978 363.157 158.687 363.624C159.415 364.091 160.573 364.511 162.159 364.884C163.821 365.257 165.165 365.649 166.191 366.06C167.218 366.471 168.039 367.031 168.655 367.74C169.271 368.449 169.579 369.364 169.579 370.484C169.579 371.641 169.271 372.649 168.655 373.508C168.039 374.367 167.153 375.039 165.995 375.524C164.857 375.991 163.513 376.224 161.963 376.224ZM176.437 364.072V371.156C176.437 372.127 176.643 372.817 177.053 373.228C177.483 373.62 178.071 373.816 178.817 373.816C179.303 373.816 179.797 373.741 180.301 373.592V375.888C179.685 376.093 178.985 376.196 178.201 376.196C176.745 376.196 175.616 375.785 174.813 374.964C174.011 374.143 173.609 372.948 173.609 371.38V364.072H170.865V361.888H173.609V358.36L176.437 357.38V361.888H180.329V364.072H176.437ZM189.017 376.196C187.636 376.196 186.422 375.897 185.377 375.3C184.332 374.703 183.52 373.853 182.941 372.752C182.381 371.651 182.101 370.363 182.101 368.888C182.101 367.413 182.381 366.125 182.941 365.024C183.52 363.904 184.332 363.045 185.377 362.448C186.422 361.851 187.636 361.552 189.017 361.552C190.38 361.552 191.584 361.851 192.629 362.448C193.674 363.045 194.477 363.904 195.037 365.024C195.616 366.125 195.905 367.413 195.905 368.888C195.905 370.363 195.616 371.651 195.037 372.752C194.477 373.853 193.674 374.703 192.629 375.3C191.584 375.897 190.38 376.196 189.017 376.196ZM188.989 373.956C190.296 373.956 191.294 373.527 191.985 372.668C192.676 371.809 193.021 370.549 193.021 368.888C193.021 367.264 192.666 366.013 191.957 365.136C191.266 364.259 190.286 363.82 189.017 363.82C187.729 363.82 186.73 364.259 186.021 365.136C185.312 366.013 184.957 367.264 184.957 368.888C184.957 370.549 185.302 371.809 185.993 372.668C186.702 373.527 187.701 373.956 188.989 373.956ZM206.239 361.552C206.668 361.552 207.116 361.617 207.583 361.748L207.527 364.324C207.023 364.137 206.472 364.044 205.875 364.044C204.587 364.044 203.616 364.436 202.963 365.22C202.328 365.985 202.011 366.956 202.011 368.132V376H199.211V365.864C199.211 364.389 199.136 363.064 198.987 361.888H201.619L201.871 364.436C202.244 363.503 202.823 362.793 203.607 362.308C204.391 361.804 205.268 361.552 206.239 361.552ZM222.131 376.196C219.667 376.196 217.726 375.599 216.307 374.404L217.147 372.36C218.622 373.48 220.311 374.04 222.215 374.04C223.186 374.04 223.923 373.881 224.427 373.564C224.931 373.228 225.183 372.761 225.183 372.164C225.183 371.66 225.006 371.268 224.651 370.988C224.315 370.689 223.736 370.437 222.915 370.232L220.563 369.672C219.331 369.411 218.388 368.953 217.735 368.3C217.1 367.628 216.783 366.797 216.783 365.808C216.783 364.539 217.287 363.512 218.295 362.728C219.322 361.944 220.675 361.552 222.355 361.552C223.363 361.552 224.315 361.711 225.211 362.028C226.126 362.345 226.9 362.793 227.535 363.372L226.667 365.36C225.304 364.277 223.867 363.736 222.355 363.736C221.44 363.736 220.731 363.913 220.227 364.268C219.723 364.604 219.471 365.08 219.471 365.696C219.471 366.181 219.63 366.573 219.947 366.872C220.264 367.171 220.768 367.404 221.459 367.572L223.867 368.16C225.211 368.459 226.2 368.935 226.835 369.588C227.488 370.223 227.815 371.053 227.815 372.08C227.815 373.349 227.302 374.357 226.275 375.104C225.267 375.832 223.886 376.196 222.131 376.196ZM234.679 364.072V371.156C234.679 372.127 234.885 372.817 235.295 373.228C235.725 373.62 236.313 373.816 237.059 373.816C237.545 373.816 238.039 373.741 238.543 373.592V375.888C237.927 376.093 237.227 376.196 236.443 376.196C234.987 376.196 233.858 375.785 233.055 374.964C232.253 374.143 231.851 372.948 231.851 371.38V364.072H229.107V361.888H231.851V358.36L234.679 357.38V361.888H238.571V364.072H234.679ZM247.259 376.196C245.878 376.196 244.665 375.897 243.619 375.3C242.574 374.703 241.762 373.853 241.183 372.752C240.623 371.651 240.343 370.363 240.343 368.888C240.343 367.413 240.623 366.125 241.183 365.024C241.762 363.904 242.574 363.045 243.619 362.448C244.665 361.851 245.878 361.552 247.259 361.552C248.622 361.552 249.826 361.851 250.871 362.448C251.917 363.045 252.719 363.904 253.279 365.024C253.858 366.125 254.147 367.413 254.147 368.888C254.147 370.363 253.858 371.651 253.279 372.752C252.719 373.853 251.917 374.703 250.871 375.3C249.826 375.897 248.622 376.196 247.259 376.196ZM247.231 373.956C248.538 373.956 249.537 373.527 250.227 372.668C250.918 371.809 251.263 370.549 251.263 368.888C251.263 367.264 250.909 366.013 250.199 365.136C249.509 364.259 248.529 363.82 247.259 363.82C245.971 363.82 244.973 364.259 244.263 365.136C243.554 366.013 243.199 367.264 243.199 368.888C243.199 370.549 243.545 371.809 244.235 372.668C244.945 373.527 245.943 373.956 247.231 373.956ZM264.481 361.552C264.91 361.552 265.358 361.617 265.825 361.748L265.769 364.324C265.265 364.137 264.714 364.044 264.117 364.044C262.829 364.044 261.858 364.436 261.205 365.22C260.57 365.985 260.253 366.956 260.253 368.132V376H257.453V365.864C257.453 364.389 257.378 363.064 257.229 361.888H259.861L260.113 364.436C260.486 363.503 261.065 362.793 261.849 362.308C262.633 361.804 263.51 361.552 264.481 361.552ZM280.615 361.888V376H277.815V373.592C277.404 374.432 276.788 375.076 275.967 375.524C275.164 375.972 274.221 376.196 273.139 376.196C271.888 376.196 270.787 375.897 269.835 375.3C268.901 374.703 268.173 373.863 267.651 372.78C267.128 371.679 266.867 370.4 266.867 368.944C266.867 367.488 267.128 366.2 267.651 365.08C268.192 363.96 268.939 363.092 269.891 362.476C270.843 361.86 271.925 361.552 273.139 361.552C274.221 361.552 275.164 361.785 275.967 362.252C276.769 362.7 277.385 363.344 277.815 364.184V361.888H280.615ZM273.811 373.956C275.08 373.956 276.06 373.517 276.751 372.64C277.46 371.744 277.815 370.493 277.815 368.888C277.815 367.264 277.46 366.013 276.751 365.136C276.06 364.259 275.071 363.82 273.783 363.82C272.513 363.82 271.515 364.277 270.787 365.192C270.077 366.088 269.723 367.339 269.723 368.944C269.723 370.531 270.077 371.763 270.787 372.64C271.515 373.517 272.523 373.956 273.811 373.956ZM297.789 361.888V375.748C297.789 377.895 297.22 379.509 296.081 380.592C294.961 381.693 293.291 382.244 291.069 382.244C288.923 382.244 287.047 381.777 285.441 380.844L285.917 378.632C286.795 379.099 287.635 379.444 288.437 379.668C289.259 379.892 290.127 380.004 291.041 380.004C293.673 380.004 294.989 378.66 294.989 375.972V372.92C294.56 373.741 293.935 374.395 293.113 374.88C292.292 375.347 291.34 375.58 290.257 375.58C289.025 375.58 287.924 375.291 286.953 374.712C286.001 374.133 285.255 373.312 284.713 372.248C284.191 371.184 283.929 369.961 283.929 368.58C283.929 367.199 284.191 365.976 284.713 364.912C285.255 363.848 286.001 363.027 286.953 362.448C287.924 361.851 289.025 361.552 290.257 361.552C291.34 361.552 292.292 361.785 293.113 362.252C293.935 362.7 294.56 363.344 294.989 364.184V361.888H297.789ZM290.901 373.312C292.171 373.312 293.169 372.892 293.897 372.052C294.625 371.212 294.989 370.055 294.989 368.58C294.989 367.105 294.625 365.948 293.897 365.108C293.188 364.249 292.189 363.82 290.901 363.82C289.632 363.82 288.624 364.249 287.877 365.108C287.149 365.948 286.785 367.105 286.785 368.58C286.785 370.036 287.149 371.193 287.877 372.052C288.624 372.892 289.632 373.312 290.901 373.312ZM313.981 369H303.901C303.994 372.304 305.497 373.956 308.409 373.956C310.033 373.956 311.517 373.424 312.861 372.36L313.729 374.376C313.094 374.936 312.282 375.384 311.293 375.72C310.322 376.037 309.342 376.196 308.353 376.196C306.094 376.196 304.321 375.552 303.033 374.264C301.745 372.957 301.101 371.175 301.101 368.916C301.101 367.479 301.381 366.2 301.941 365.08C302.52 363.96 303.322 363.092 304.349 362.476C305.376 361.86 306.542 361.552 307.849 361.552C309.753 361.552 311.246 362.168 312.329 363.4C313.43 364.632 313.981 366.34 313.981 368.524V369ZM307.905 363.652C306.841 363.652 305.973 363.969 305.301 364.604C304.629 365.239 304.2 366.144 304.013 367.32H311.489C311.377 366.125 311.013 365.22 310.397 364.604C309.781 363.969 308.95 363.652 307.905 363.652ZM330.823 376.196C329.404 376.196 328.163 375.897 327.099 375.3C326.054 374.703 325.251 373.863 324.691 372.78C324.131 371.679 323.851 370.4 323.851 368.944C323.851 367.488 324.14 366.2 324.719 365.08C325.316 363.96 326.147 363.092 327.211 362.476C328.275 361.86 329.516 361.552 330.935 361.552C331.924 361.552 332.876 361.72 333.791 362.056C334.706 362.373 335.443 362.812 336.003 363.372L335.135 365.416C333.81 364.371 332.475 363.848 331.131 363.848C329.768 363.848 328.704 364.296 327.939 365.192C327.174 366.069 326.791 367.311 326.791 368.916C326.791 370.521 327.174 371.763 327.939 372.64C328.704 373.499 329.768 373.928 331.131 373.928C332.512 373.928 333.847 373.405 335.135 372.36L336.003 374.404C335.406 374.964 334.64 375.403 333.707 375.72C332.792 376.037 331.831 376.196 330.823 376.196ZM344.74 376.196C343.358 376.196 342.145 375.897 341.1 375.3C340.054 374.703 339.242 373.853 338.664 372.752C338.104 371.651 337.824 370.363 337.824 368.888C337.824 367.413 338.104 366.125 338.664 365.024C339.242 363.904 340.054 363.045 341.1 362.448C342.145 361.851 343.358 361.552 344.74 361.552C346.102 361.552 347.306 361.851 348.352 362.448C349.397 363.045 350.2 363.904 350.76 365.024C351.338 366.125 351.628 367.413 351.628 368.888C351.628 370.363 351.338 371.651 350.76 372.752C350.2 373.853 349.397 374.703 348.352 375.3C347.306 375.897 346.102 376.196 344.74 376.196ZM344.712 373.956C346.018 373.956 347.017 373.527 347.708 372.668C348.398 371.809 348.744 370.549 348.744 368.888C348.744 367.264 348.389 366.013 347.68 365.136C346.989 364.259 346.009 363.82 344.74 363.82C343.452 363.82 342.453 364.259 341.744 365.136C341.034 366.013 340.68 367.264 340.68 368.888C340.68 370.549 341.025 371.809 341.716 372.668C342.425 373.527 343.424 373.956 344.712 373.956ZM362.437 361.552C365.816 361.552 367.505 363.437 367.505 367.208V376H364.677V367.376C364.677 366.144 364.435 365.248 363.949 364.688C363.483 364.128 362.727 363.848 361.681 363.848C360.487 363.848 359.525 364.221 358.797 364.968C358.088 365.715 357.733 366.713 357.733 367.964V376H354.933V365.864C354.933 364.389 354.859 363.064 354.709 361.888H357.341L357.593 364.324C358.041 363.428 358.685 362.747 359.525 362.28C360.384 361.795 361.355 361.552 362.437 361.552ZM375.199 364.072V371.156C375.199 372.127 375.404 372.817 375.815 373.228C376.244 373.62 376.832 373.816 377.579 373.816C378.064 373.816 378.559 373.741 379.063 373.592V375.888C378.447 376.093 377.747 376.196 376.963 376.196C375.507 376.196 374.378 375.785 373.575 374.964C372.772 374.143 372.371 372.948 372.371 371.38V364.072H369.627V361.888H372.371V358.36L375.199 357.38V361.888H379.091V364.072H375.199ZM388.731 361.552C389.16 361.552 389.608 361.617 390.075 361.748L390.019 364.324C389.515 364.137 388.964 364.044 388.367 364.044C387.079 364.044 386.108 364.436 385.455 365.22C384.82 365.985 384.503 366.956 384.503 368.132V376H381.703V365.864C381.703 364.389 381.628 363.064 381.479 361.888H384.111L384.363 364.436C384.736 363.503 385.315 362.793 386.099 362.308C386.883 361.804 387.76 361.552 388.731 361.552ZM398.033 376.196C396.651 376.196 395.438 375.897 394.393 375.3C393.347 374.703 392.535 373.853 391.957 372.752C391.397 371.651 391.117 370.363 391.117 368.888C391.117 367.413 391.397 366.125 391.957 365.024C392.535 363.904 393.347 363.045 394.393 362.448C395.438 361.851 396.651 361.552 398.033 361.552C399.395 361.552 400.599 361.851 401.645 362.448C402.69 363.045 403.493 363.904 404.053 365.024C404.631 366.125 404.921 367.413 404.921 368.888C404.921 370.363 404.631 371.651 404.053 372.752C403.493 373.853 402.69 374.703 401.645 375.3C400.599 375.897 399.395 376.196 398.033 376.196ZM398.005 373.956C399.311 373.956 400.31 373.527 401.001 372.668C401.691 371.809 402.037 370.549 402.037 368.888C402.037 367.264 401.682 366.013 400.973 365.136C400.282 364.259 399.302 363.82 398.033 363.82C396.745 363.82 395.746 364.259 395.037 365.136C394.327 366.013 393.973 367.264 393.973 368.888C393.973 370.549 394.318 371.809 395.009 372.668C395.718 373.527 396.717 373.956 398.005 373.956ZM408.226 355.392H411.026V376H408.226V355.392ZM415.172 355.392H417.972V376H415.172V355.392ZM434.157 369H424.077C424.17 372.304 425.673 373.956 428.585 373.956C430.209 373.956 431.693 373.424 433.037 372.36L433.905 374.376C433.27 374.936 432.458 375.384 431.469 375.72C430.498 376.037 429.518 376.196 428.529 376.196C426.27 376.196 424.497 375.552 423.209 374.264C421.921 372.957 421.277 371.175 421.277 368.916C421.277 367.479 421.557 366.2 422.117 365.08C422.696 363.96 423.498 363.092 424.525 362.476C425.552 361.86 426.718 361.552 428.025 361.552C429.929 361.552 431.422 362.168 432.505 363.4C433.606 364.632 434.157 366.34 434.157 368.524V369ZM428.081 363.652C427.017 363.652 426.149 363.969 425.477 364.604C424.805 365.239 424.376 366.144 424.189 367.32H431.665C431.553 366.125 431.189 365.22 430.573 364.604C429.957 363.969 429.126 363.652 428.081 363.652ZM444.43 361.552C444.859 361.552 445.307 361.617 445.774 361.748L445.718 364.324C445.214 364.137 444.663 364.044 444.066 364.044C442.778 364.044 441.807 364.436 441.154 365.22C440.519 365.985 440.202 366.956 440.202 368.132V376H437.402V365.864C437.402 364.389 437.327 363.064 437.178 361.888H439.81L440.062 364.436C440.435 363.503 441.014 362.793 441.798 362.308C442.582 361.804 443.459 361.552 444.43 361.552Z" fill="white"/>
<rect x="699.275" y="343" width="398.069" height="48" fill="#8500AC"/>
<path d="M752.347 376.196C750.928 376.196 749.687 375.897 748.623 375.3C747.577 374.703 746.775 373.863 746.215 372.78C745.655 371.679 745.375 370.4 745.375 368.944C745.375 367.488 745.664 366.2 746.243 365.08C746.84 363.96 747.671 363.092 748.735 362.476C749.799 361.86 751.04 361.552 752.459 361.552C753.448 361.552 754.4 361.72 755.315 362.056C756.229 362.373 756.967 362.812 757.527 363.372L756.659 365.416C755.333 364.371 753.999 363.848 752.655 363.848C751.292 363.848 750.228 364.296 749.463 365.192C748.697 366.069 748.315 367.311 748.315 368.916C748.315 370.521 748.697 371.763 749.463 372.64C750.228 373.499 751.292 373.928 752.655 373.928C754.036 373.928 755.371 373.405 756.659 372.36L757.527 374.404C756.929 374.964 756.164 375.403 755.231 375.72C754.316 376.037 753.355 376.196 752.347 376.196ZM766.963 376.224C765.414 376.224 763.995 376.019 762.707 375.608C761.438 375.197 760.337 374.581 759.403 373.76L760.439 371.632C761.41 372.416 762.418 372.985 763.463 373.34C764.509 373.695 765.685 373.872 766.991 373.872C768.485 373.872 769.642 373.592 770.463 373.032C771.285 372.472 771.695 371.679 771.695 370.652C771.695 369.793 771.313 369.149 770.547 368.72C769.782 368.272 768.569 367.861 766.907 367.488C765.321 367.152 764.023 366.769 763.015 366.34C762.007 365.892 761.214 365.304 760.635 364.576C760.057 363.829 759.767 362.877 759.767 361.72C759.767 360.563 760.075 359.545 760.691 358.668C761.307 357.772 762.175 357.081 763.295 356.596C764.434 356.092 765.741 355.84 767.215 355.84C768.615 355.84 769.922 356.055 771.135 356.484C772.367 356.913 773.394 357.52 774.215 358.304L773.179 360.432C772.265 359.667 771.322 359.107 770.351 358.752C769.381 358.379 768.345 358.192 767.243 358.192C765.806 358.192 764.677 358.5 763.855 359.116C763.034 359.713 762.623 360.535 762.623 361.58C762.623 362.476 762.978 363.157 763.687 363.624C764.415 364.091 765.573 364.511 767.159 364.884C768.821 365.257 770.165 365.649 771.191 366.06C772.218 366.471 773.039 367.031 773.655 367.74C774.271 368.449 774.579 369.364 774.579 370.484C774.579 371.641 774.271 372.649 773.655 373.508C773.039 374.367 772.153 375.039 770.995 375.524C769.857 375.991 768.513 376.224 766.963 376.224ZM781.437 364.072V371.156C781.437 372.127 781.643 372.817 782.053 373.228C782.483 373.62 783.071 373.816 783.817 373.816C784.303 373.816 784.797 373.741 785.301 373.592V375.888C784.685 376.093 783.985 376.196 783.201 376.196C781.745 376.196 780.616 375.785 779.813 374.964C779.011 374.143 778.609 372.948 778.609 371.38V364.072H775.865V361.888H778.609V358.36L781.437 357.38V361.888H785.329V364.072H781.437ZM794.017 376.196C792.636 376.196 791.422 375.897 790.377 375.3C789.332 374.703 788.52 373.853 787.941 372.752C787.381 371.651 787.101 370.363 787.101 368.888C787.101 367.413 787.381 366.125 787.941 365.024C788.52 363.904 789.332 363.045 790.377 362.448C791.422 361.851 792.636 361.552 794.017 361.552C795.38 361.552 796.584 361.851 797.629 362.448C798.674 363.045 799.477 363.904 800.037 365.024C800.616 366.125 800.905 367.413 800.905 368.888C800.905 370.363 800.616 371.651 800.037 372.752C799.477 373.853 798.674 374.703 797.629 375.3C796.584 375.897 795.38 376.196 794.017 376.196ZM793.989 373.956C795.296 373.956 796.294 373.527 796.985 372.668C797.676 371.809 798.021 370.549 798.021 368.888C798.021 367.264 797.666 366.013 796.957 365.136C796.266 364.259 795.286 363.82 794.017 363.82C792.729 363.82 791.73 364.259 791.021 365.136C790.312 366.013 789.957 367.264 789.957 368.888C789.957 370.549 790.302 371.809 790.993 372.668C791.702 373.527 792.701 373.956 793.989 373.956ZM811.239 361.552C811.668 361.552 812.116 361.617 812.583 361.748L812.527 364.324C812.023 364.137 811.472 364.044 810.875 364.044C809.587 364.044 808.616 364.436 807.963 365.22C807.328 365.985 807.011 366.956 807.011 368.132V376H804.211V365.864C804.211 364.389 804.136 363.064 803.987 361.888H806.619L806.871 364.436C807.244 363.503 807.823 362.793 808.607 362.308C809.391 361.804 810.268 361.552 811.239 361.552ZM827.131 376.196C824.667 376.196 822.726 375.599 821.307 374.404L822.147 372.36C823.622 373.48 825.311 374.04 827.215 374.04C828.186 374.04 828.923 373.881 829.427 373.564C829.931 373.228 830.183 372.761 830.183 372.164C830.183 371.66 830.006 371.268 829.651 370.988C829.315 370.689 828.736 370.437 827.915 370.232L825.563 369.672C824.331 369.411 823.388 368.953 822.735 368.3C822.1 367.628 821.783 366.797 821.783 365.808C821.783 364.539 822.287 363.512 823.295 362.728C824.322 361.944 825.675 361.552 827.355 361.552C828.363 361.552 829.315 361.711 830.211 362.028C831.126 362.345 831.9 362.793 832.535 363.372L831.667 365.36C830.304 364.277 828.867 363.736 827.355 363.736C826.44 363.736 825.731 363.913 825.227 364.268C824.723 364.604 824.471 365.08 824.471 365.696C824.471 366.181 824.63 366.573 824.947 366.872C825.264 367.171 825.768 367.404 826.459 367.572L828.867 368.16C830.211 368.459 831.2 368.935 831.835 369.588C832.488 370.223 832.815 371.053 832.815 372.08C832.815 373.349 832.302 374.357 831.275 375.104C830.267 375.832 828.886 376.196 827.131 376.196ZM839.679 364.072V371.156C839.679 372.127 839.885 372.817 840.295 373.228C840.725 373.62 841.313 373.816 842.059 373.816C842.545 373.816 843.039 373.741 843.543 373.592V375.888C842.927 376.093 842.227 376.196 841.443 376.196C839.987 376.196 838.858 375.785 838.055 374.964C837.253 374.143 836.851 372.948 836.851 371.38V364.072H834.107V361.888H836.851V358.36L839.679 357.38V361.888H843.571V364.072H839.679ZM852.259 376.196C850.878 376.196 849.665 375.897 848.619 375.3C847.574 374.703 846.762 373.853 846.183 372.752C845.623 371.651 845.343 370.363 845.343 368.888C845.343 367.413 845.623 366.125 846.183 365.024C846.762 363.904 847.574 363.045 848.619 362.448C849.665 361.851 850.878 361.552 852.259 361.552C853.622 361.552 854.826 361.851 855.871 362.448C856.917 363.045 857.719 363.904 858.279 365.024C858.858 366.125 859.147 367.413 859.147 368.888C859.147 370.363 858.858 371.651 858.279 372.752C857.719 373.853 856.917 374.703 855.871 375.3C854.826 375.897 853.622 376.196 852.259 376.196ZM852.231 373.956C853.538 373.956 854.537 373.527 855.227 372.668C855.918 371.809 856.263 370.549 856.263 368.888C856.263 367.264 855.909 366.013 855.199 365.136C854.509 364.259 853.529 363.82 852.259 363.82C850.971 363.82 849.973 364.259 849.263 365.136C848.554 366.013 848.199 367.264 848.199 368.888C848.199 370.549 848.545 371.809 849.235 372.668C849.945 373.527 850.943 373.956 852.231 373.956ZM869.481 361.552C869.91 361.552 870.358 361.617 870.825 361.748L870.769 364.324C870.265 364.137 869.714 364.044 869.117 364.044C867.829 364.044 866.858 364.436 866.205 365.22C865.57 365.985 865.253 366.956 865.253 368.132V376H862.453V365.864C862.453 364.389 862.378 363.064 862.229 361.888H864.861L865.113 364.436C865.486 363.503 866.065 362.793 866.849 362.308C867.633 361.804 868.51 361.552 869.481 361.552ZM885.615 361.888V376H882.815V373.592C882.404 374.432 881.788 375.076 880.967 375.524C880.164 375.972 879.221 376.196 878.139 376.196C876.888 376.196 875.787 375.897 874.835 375.3C873.901 374.703 873.173 373.863 872.651 372.78C872.128 371.679 871.867 370.4 871.867 368.944C871.867 367.488 872.128 366.2 872.651 365.08C873.192 363.96 873.939 363.092 874.891 362.476C875.843 361.86 876.925 361.552 878.139 361.552C879.221 361.552 880.164 361.785 880.967 362.252C881.769 362.7 882.385 363.344 882.815 364.184V361.888H885.615ZM878.811 373.956C880.08 373.956 881.06 373.517 881.751 372.64C882.46 371.744 882.815 370.493 882.815 368.888C882.815 367.264 882.46 366.013 881.751 365.136C881.06 364.259 880.071 363.82 878.783 363.82C877.513 363.82 876.515 364.277 875.787 365.192C875.077 366.088 874.723 367.339 874.723 368.944C874.723 370.531 875.077 371.763 875.787 372.64C876.515 373.517 877.523 373.956 878.811 373.956ZM902.789 361.888V375.748C902.789 377.895 902.22 379.509 901.081 380.592C899.961 381.693 898.291 382.244 896.069 382.244C893.923 382.244 892.047 381.777 890.441 380.844L890.917 378.632C891.795 379.099 892.635 379.444 893.437 379.668C894.259 379.892 895.127 380.004 896.041 380.004C898.673 380.004 899.989 378.66 899.989 375.972V372.92C899.56 373.741 898.935 374.395 898.113 374.88C897.292 375.347 896.34 375.58 895.257 375.58C894.025 375.58 892.924 375.291 891.953 374.712C891.001 374.133 890.255 373.312 889.713 372.248C889.191 371.184 888.929 369.961 888.929 368.58C888.929 367.199 889.191 365.976 889.713 364.912C890.255 363.848 891.001 363.027 891.953 362.448C892.924 361.851 894.025 361.552 895.257 361.552C896.34 361.552 897.292 361.785 898.113 362.252C898.935 362.7 899.56 363.344 899.989 364.184V361.888H902.789ZM895.901 373.312C897.171 373.312 898.169 372.892 898.897 372.052C899.625 371.212 899.989 370.055 899.989 368.58C899.989 367.105 899.625 365.948 898.897 365.108C898.188 364.249 897.189 363.82 895.901 363.82C894.632 363.82 893.624 364.249 892.877 365.108C892.149 365.948 891.785 367.105 891.785 368.58C891.785 370.036 892.149 371.193 892.877 372.052C893.624 372.892 894.632 373.312 895.901 373.312ZM918.981 369H908.901C908.994 372.304 910.497 373.956 913.409 373.956C915.033 373.956 916.517 373.424 917.861 372.36L918.729 374.376C918.094 374.936 917.282 375.384 916.293 375.72C915.322 376.037 914.342 376.196 913.353 376.196C911.094 376.196 909.321 375.552 908.033 374.264C906.745 372.957 906.101 371.175 906.101 368.916C906.101 367.479 906.381 366.2 906.941 365.08C907.52 363.96 908.322 363.092 909.349 362.476C910.376 361.86 911.542 361.552 912.849 361.552C914.753 361.552 916.246 362.168 917.329 363.4C918.43 364.632 918.981 366.34 918.981 368.524V369ZM912.905 363.652C911.841 363.652 910.973 363.969 910.301 364.604C909.629 365.239 909.2 366.144 909.013 367.32H916.489C916.377 366.125 916.013 365.22 915.397 364.604C914.781 363.969 913.95 363.652 912.905 363.652ZM935.823 376.196C934.404 376.196 933.163 375.897 932.099 375.3C931.054 374.703 930.251 373.863 929.691 372.78C929.131 371.679 928.851 370.4 928.851 368.944C928.851 367.488 929.14 366.2 929.719 365.08C930.316 363.96 931.147 363.092 932.211 362.476C933.275 361.86 934.516 361.552 935.935 361.552C936.924 361.552 937.876 361.72 938.791 362.056C939.706 362.373 940.443 362.812 941.003 363.372L940.135 365.416C938.81 364.371 937.475 363.848 936.131 363.848C934.768 363.848 933.704 364.296 932.939 365.192C932.174 366.069 931.791 367.311 931.791 368.916C931.791 370.521 932.174 371.763 932.939 372.64C933.704 373.499 934.768 373.928 936.131 373.928C937.512 373.928 938.847 373.405 940.135 372.36L941.003 374.404C940.406 374.964 939.64 375.403 938.707 375.72C937.792 376.037 936.831 376.196 935.823 376.196ZM949.74 376.196C948.358 376.196 947.145 375.897 946.1 375.3C945.054 374.703 944.242 373.853 943.664 372.752C943.104 371.651 942.824 370.363 942.824 368.888C942.824 367.413 943.104 366.125 943.664 365.024C944.242 363.904 945.054 363.045 946.1 362.448C947.145 361.851 948.358 361.552 949.74 361.552C951.102 361.552 952.306 361.851 953.352 362.448C954.397 363.045 955.2 363.904 955.76 365.024C956.338 366.125 956.628 367.413 956.628 368.888C956.628 370.363 956.338 371.651 955.76 372.752C955.2 373.853 954.397 374.703 953.352 375.3C952.306 375.897 951.102 376.196 949.74 376.196ZM949.712 373.956C951.018 373.956 952.017 373.527 952.708 372.668C953.398 371.809 953.744 370.549 953.744 368.888C953.744 367.264 953.389 366.013 952.68 365.136C951.989 364.259 951.009 363.82 949.74 363.82C948.452 363.82 947.453 364.259 946.744 365.136C946.034 366.013 945.68 367.264 945.68 368.888C945.68 370.549 946.025 371.809 946.716 372.668C947.425 373.527 948.424 373.956 949.712 373.956ZM967.437 361.552C970.816 361.552 972.505 363.437 972.505 367.208V376H969.677V367.376C969.677 366.144 969.435 365.248 968.949 364.688C968.483 364.128 967.727 363.848 966.681 363.848C965.487 363.848 964.525 364.221 963.797 364.968C963.088 365.715 962.733 366.713 962.733 367.964V376H959.933V365.864C959.933 364.389 959.859 363.064 959.709 361.888H962.341L962.593 364.324C963.041 363.428 963.685 362.747 964.525 362.28C965.384 361.795 966.355 361.552 967.437 361.552ZM980.199 364.072V371.156C980.199 372.127 980.404 372.817 980.815 373.228C981.244 373.62 981.832 373.816 982.579 373.816C983.064 373.816 983.559 373.741 984.063 373.592V375.888C983.447 376.093 982.747 376.196 981.963 376.196C980.507 376.196 979.378 375.785 978.575 374.964C977.772 374.143 977.371 372.948 977.371 371.38V364.072H974.627V361.888H977.371V358.36L980.199 357.38V361.888H984.091V364.072H980.199ZM993.731 361.552C994.16 361.552 994.608 361.617 995.075 361.748L995.019 364.324C994.515 364.137 993.964 364.044 993.367 364.044C992.079 364.044 991.108 364.436 990.455 365.22C989.82 365.985 989.503 366.956 989.503 368.132V376H986.703V365.864C986.703 364.389 986.628 363.064 986.479 361.888H989.111L989.363 364.436C989.736 363.503 990.315 362.793 991.099 362.308C991.883 361.804 992.76 361.552 993.731 361.552ZM1003.03 376.196C1001.65 376.196 1000.44 375.897 999.393 375.3C998.347 374.703 997.535 373.853 996.957 372.752C996.397 371.651 996.117 370.363 996.117 368.888C996.117 367.413 996.397 366.125 996.957 365.024C997.535 363.904 998.347 363.045 999.393 362.448C1000.44 361.851 1001.65 361.552 1003.03 361.552C1004.4 361.552 1005.6 361.851 1006.64 362.448C1007.69 363.045 1008.49 363.904 1009.05 365.024C1009.63 366.125 1009.92 367.413 1009.92 368.888C1009.92 370.363 1009.63 371.651 1009.05 372.752C1008.49 373.853 1007.69 374.703 1006.64 375.3C1005.6 375.897 1004.4 376.196 1003.03 376.196ZM1003 373.956C1004.31 373.956 1005.31 373.527 1006 372.668C1006.69 371.809 1007.04 370.549 1007.04 368.888C1007.04 367.264 1006.68 366.013 1005.97 365.136C1005.28 364.259 1004.3 363.82 1003.03 363.82C1001.74 363.82 1000.75 364.259 1000.04 365.136C999.327 366.013 998.973 367.264 998.973 368.888C998.973 370.549 999.318 371.809 1000.01 372.668C1000.72 373.527 1001.72 373.956 1003 373.956ZM1013.23 355.392H1016.03V376H1013.23V355.392ZM1020.17 355.392H1022.97V376H1020.17V355.392ZM1039.16 369H1029.08C1029.17 372.304 1030.67 373.956 1033.58 373.956C1035.21 373.956 1036.69 373.424 1038.04 372.36L1038.9 374.376C1038.27 374.936 1037.46 375.384 1036.47 375.72C1035.5 376.037 1034.52 376.196 1033.53 376.196C1031.27 376.196 1029.5 375.552 1028.21 374.264C1026.92 372.957 1026.28 371.175 1026.28 368.916C1026.28 367.479 1026.56 366.2 1027.12 365.08C1027.7 363.96 1028.5 363.092 1029.52 362.476C1030.55 361.86 1031.72 361.552 1033.02 361.552C1034.93 361.552 1036.42 362.168 1037.5 363.4C1038.61 364.632 1039.16 366.34 1039.16 368.524V369ZM1033.08 363.652C1032.02 363.652 1031.15 363.969 1030.48 364.604C1029.8 365.239 1029.38 366.144 1029.19 367.32H1036.66C1036.55 366.125 1036.19 365.22 1035.57 364.604C1034.96 363.969 1034.13 363.652 1033.08 363.652ZM1049.43 361.552C1049.86 361.552 1050.31 361.617 1050.77 361.748L1050.72 364.324C1050.21 364.137 1049.66 364.044 1049.07 364.044C1047.78 364.044 1046.81 364.436 1046.15 365.22C1045.52 365.985 1045.2 366.956 1045.2 368.132V376H1042.4V365.864C1042.4 364.389 1042.33 363.064 1042.18 361.888H1044.81L1045.06 364.436C1045.44 363.503 1046.01 362.793 1046.8 362.308C1047.58 361.804 1048.46 361.552 1049.43 361.552Z" fill="white"/>
<path d="M279.707 412.293C279.317 411.902 278.683 411.902 278.293 412.293L271.929 418.657C271.538 419.047 271.538 419.681 271.929 420.071C272.319 420.462 272.953 420.462 273.343 420.071L279 414.414L284.657 420.071C285.047 420.462 285.681 420.462 286.071 420.071C286.462 419.681 286.462 419.047 286.071 418.657L279.707 412.293ZM280 463L280 413L278 413L278 463L280 463Z" fill="black"/>
<path d="M916.707 418.293C916.317 417.902 915.683 417.902 915.293 418.293L908.929 424.657C908.538 425.047 908.538 425.681 908.929 426.071C909.319 426.462 909.953 426.462 910.343 426.071L916 420.414L921.657 426.071C922.047 426.462 922.681 426.462 923.071 426.071C923.462 425.681 923.462 425.047 923.071 424.657L916.707 418.293ZM917 469L917 419L915 419L915 469L917 469Z" fill="black"/>
<path d="M916.707 280.293C916.317 279.902 915.683 279.902 915.293 280.293L908.929 286.657C908.538 287.047 908.538 287.681 908.929 288.071C909.319 288.462 909.953 288.462 910.343 288.071L916 282.414L921.657 288.071C922.047 288.462 922.681 288.462 923.071 288.071C923.462 287.681 923.462 287.047 923.071 286.657L916.707 280.293ZM917 331L917 281L915 281L915 331L917 331Z" fill="black"/>
<path d="M279.707 280.293C279.317 279.902 278.683 279.902 278.293 280.293L271.929 286.657C271.538 287.047 271.538 287.681 271.929 288.071C272.319 288.462 272.953 288.462 273.343 288.071L279 282.414L284.657 288.071C285.047 288.462 285.681 288.462 286.071 288.071C286.462 287.681 286.462 287.047 286.071 286.657L279.707 280.293ZM280 331L280 281L278 281L278 331L280 331Z" fill="black"/>
</svg>
