<svg width="1190" height="858" viewBox="0 0 1190 858" fill="none" xmlns="http://www.w3.org/2000/svg">
<rect y="792" width="1190" height="66" fill="#C4C4C4"/>
<path d="M531.469 816.064L524.441 836H522.033L516.657 820.6L511.253 836H508.845L501.845 816.064H504.785L510.133 831.912L515.649 816.064L517.777 816.092L523.209 831.996L528.641 816.064H531.469ZM538.822 836.196C537.44 836.196 536.227 835.897 535.182 835.3C534.136 834.703 533.324 833.853 532.746 832.752C532.186 831.651 531.906 830.363 531.906 828.888C531.906 827.413 532.186 826.125 532.746 825.024C533.324 823.904 534.136 823.045 535.182 822.448C536.227 821.851 537.44 821.552 538.822 821.552C540.184 821.552 541.388 821.851 542.434 822.448C543.479 823.045 544.282 823.904 544.842 825.024C545.42 826.125 545.71 827.413 545.71 828.888C545.71 830.363 545.42 831.651 544.842 832.752C544.282 833.853 543.479 834.703 542.434 835.3C541.388 835.897 540.184 836.196 538.822 836.196ZM538.794 833.956C540.1 833.956 541.099 833.527 541.79 832.668C542.48 831.809 542.826 830.549 542.826 828.888C542.826 827.264 542.471 826.013 541.762 825.136C541.071 824.259 540.091 823.82 538.822 823.82C537.534 823.82 536.535 824.259 535.826 825.136C535.116 826.013 534.762 827.264 534.762 828.888C534.762 830.549 535.107 831.809 535.798 832.668C536.507 833.527 537.506 833.956 538.794 833.956ZM556.043 821.552C556.473 821.552 556.921 821.617 557.387 821.748L557.331 824.324C556.827 824.137 556.277 824.044 555.679 824.044C554.391 824.044 553.421 824.436 552.767 825.22C552.133 825.985 551.815 826.956 551.815 828.132V836H549.015V825.864C549.015 824.389 548.941 823.064 548.791 821.888H551.423L551.675 824.436C552.049 823.503 552.627 822.793 553.411 822.308C554.195 821.804 555.073 821.552 556.043 821.552ZM569.091 836L562.343 829.336V836H559.543V815.392H562.343V828.272L568.615 821.916H572.115L565.367 828.692L572.703 836H569.091ZM586.239 829H576.159C576.252 832.304 577.755 833.956 580.667 833.956C582.291 833.956 583.775 833.424 585.119 832.36L585.987 834.376C585.352 834.936 584.54 835.384 583.551 835.72C582.58 836.037 581.6 836.196 580.611 836.196C578.352 836.196 576.579 835.552 575.291 834.264C574.003 832.957 573.359 831.175 573.359 828.916C573.359 827.479 573.639 826.2 574.199 825.08C574.778 823.96 575.58 823.092 576.607 822.476C577.634 821.86 578.8 821.552 580.107 821.552C582.011 821.552 583.504 822.168 584.587 823.4C585.688 824.632 586.239 826.34 586.239 828.524V829ZM580.163 823.652C579.099 823.652 578.231 823.969 577.559 824.604C576.887 825.239 576.458 826.144 576.271 827.32H583.747C583.635 826.125 583.271 825.22 582.655 824.604C582.039 823.969 581.208 823.652 580.163 823.652ZM596.512 821.552C596.941 821.552 597.389 821.617 597.856 821.748L597.8 824.324C597.296 824.137 596.745 824.044 596.148 824.044C594.86 824.044 593.889 824.436 593.236 825.22C592.601 825.985 592.284 826.956 592.284 828.132V836H589.484V825.864C589.484 824.389 589.409 823.064 589.26 821.888H591.892L592.144 824.436C592.517 823.503 593.096 822.793 593.88 822.308C594.664 821.804 595.541 821.552 596.512 821.552ZM624.08 816.064V836H621.868L610.444 820.936V836H607.728V816.064H609.912L621.364 831.156V816.064H624.08ZM634.552 836.196C633.171 836.196 631.958 835.897 630.912 835.3C629.867 834.703 629.055 833.853 628.476 832.752C627.916 831.651 627.636 830.363 627.636 828.888C627.636 827.413 627.916 826.125 628.476 825.024C629.055 823.904 629.867 823.045 630.912 822.448C631.958 821.851 633.171 821.552 634.552 821.552C635.915 821.552 637.119 821.851 638.164 822.448C639.21 823.045 640.012 823.904 640.572 825.024C641.151 826.125 641.44 827.413 641.44 828.888C641.44 830.363 641.151 831.651 640.572 832.752C640.012 833.853 639.21 834.703 638.164 835.3C637.119 835.897 635.915 836.196 634.552 836.196ZM634.524 833.956C635.831 833.956 636.83 833.527 637.52 832.668C638.211 831.809 638.556 830.549 638.556 828.888C638.556 827.264 638.202 826.013 637.492 825.136C636.802 824.259 635.822 823.82 634.552 823.82C633.264 823.82 632.266 824.259 631.556 825.136C630.847 826.013 630.492 827.264 630.492 828.888C630.492 830.549 630.838 831.809 631.528 832.668C632.238 833.527 633.236 833.956 634.524 833.956ZM657.654 815.392V836H654.854V833.592C654.443 834.432 653.827 835.076 653.006 835.524C652.203 835.972 651.26 836.196 650.178 836.196C648.964 836.196 647.882 835.888 646.93 835.272C645.978 834.656 645.231 833.797 644.69 832.696C644.167 831.576 643.906 830.288 643.906 828.832C643.906 827.376 644.167 826.097 644.69 824.996C645.212 823.895 645.94 823.045 646.874 822.448C647.826 821.851 648.927 821.552 650.178 821.552C651.242 821.552 652.175 821.776 652.978 822.224C653.799 822.672 654.415 823.307 654.826 824.128V815.392H657.654ZM650.822 833.956C652.11 833.956 653.099 833.517 653.79 832.64C654.499 831.744 654.854 830.493 654.854 828.888C654.854 827.283 654.499 826.041 653.79 825.164C653.099 824.268 652.119 823.82 650.85 823.82C649.562 823.82 648.554 824.259 647.826 825.136C647.116 826.013 646.762 827.245 646.762 828.832C646.762 830.437 647.116 831.697 647.826 832.612C648.554 833.508 649.552 833.956 650.822 833.956ZM673.848 829H663.768C663.862 832.304 665.364 833.956 668.276 833.956C669.9 833.956 671.384 833.424 672.728 832.36L673.596 834.376C672.962 834.936 672.15 835.384 671.16 835.72C670.19 836.037 669.21 836.196 668.22 836.196C665.962 836.196 664.188 835.552 662.9 834.264C661.612 832.957 660.968 831.175 660.968 828.916C660.968 827.479 661.248 826.2 661.808 825.08C662.387 823.96 663.19 823.092 664.216 822.476C665.243 821.86 666.41 821.552 667.716 821.552C669.62 821.552 671.114 822.168 672.196 823.4C673.298 824.632 673.848 826.34 673.848 828.524V829ZM667.772 823.652C666.708 823.652 665.84 823.969 665.168 824.604C664.496 825.239 664.067 826.144 663.88 827.32H671.356C671.244 826.125 670.88 825.22 670.264 824.604C669.648 823.969 668.818 823.652 667.772 823.652ZM682.021 836.196C679.557 836.196 677.616 835.599 676.197 834.404L677.037 832.36C678.512 833.48 680.201 834.04 682.105 834.04C683.076 834.04 683.813 833.881 684.317 833.564C684.821 833.228 685.073 832.761 685.073 832.164C685.073 831.66 684.896 831.268 684.541 830.988C684.205 830.689 683.627 830.437 682.805 830.232L680.453 829.672C679.221 829.411 678.279 828.953 677.625 828.3C676.991 827.628 676.673 826.797 676.673 825.808C676.673 824.539 677.177 823.512 678.185 822.728C679.212 821.944 680.565 821.552 682.245 821.552C683.253 821.552 684.205 821.711 685.101 822.028C686.016 822.345 686.791 822.793 687.425 823.372L686.557 825.36C685.195 824.277 683.757 823.736 682.245 823.736C681.331 823.736 680.621 823.913 680.117 824.268C679.613 824.604 679.361 825.08 679.361 825.696C679.361 826.181 679.52 826.573 679.837 826.872C680.155 827.171 680.659 827.404 681.349 827.572L683.757 828.16C685.101 828.459 686.091 828.935 686.725 829.588C687.379 830.223 687.705 831.053 687.705 832.08C687.705 833.349 687.192 834.357 686.165 835.104C685.157 835.832 683.776 836.196 682.021 836.196Z" fill="black"/>
<rect y="693" width="1190" height="74" fill="#C4C4C4"/>
<path d="M535.88 737L526.052 727.592V737H523.168V717.064H526.052V726.136L535.46 717.064H539.016L528.964 726.696L539.52 737H535.88ZM553.063 722.888V737H550.319V734.648C549.871 735.469 549.255 736.104 548.471 736.552C547.687 736.981 546.8 737.196 545.811 737.196C542.413 737.196 540.715 735.311 540.715 731.54V722.888H543.515V731.512C543.515 732.669 543.748 733.528 544.215 734.088C544.7 734.629 545.428 734.9 546.399 734.9C547.556 734.9 548.48 734.527 549.171 733.78C549.88 733.033 550.235 732.044 550.235 730.812V722.888H553.063ZM564.681 722.552C565.913 722.552 567.005 722.851 567.957 723.448C568.909 724.045 569.646 724.895 570.169 725.996C570.691 727.097 570.953 728.376 570.953 729.832C570.953 731.288 570.682 732.576 570.141 733.696C569.618 734.797 568.881 735.656 567.929 736.272C566.977 736.888 565.894 737.196 564.681 737.196C563.598 737.196 562.646 736.972 561.825 736.524C561.022 736.057 560.415 735.395 560.005 734.536V737H557.205V716.392H560.005V725.212C560.415 724.372 561.022 723.719 561.825 723.252C562.646 722.785 563.598 722.552 564.681 722.552ZM564.037 734.956C565.306 734.956 566.295 734.508 567.005 733.612C567.714 732.697 568.069 731.437 568.069 729.832C568.069 728.245 567.714 727.013 567.005 726.136C566.295 725.259 565.306 724.82 564.037 724.82C562.749 724.82 561.75 725.259 561.041 726.136C560.35 727.013 560.005 728.264 560.005 729.888C560.005 731.512 560.35 732.763 561.041 733.64C561.75 734.517 562.749 734.956 564.037 734.956ZM586.307 730H576.227C576.321 733.304 577.823 734.956 580.735 734.956C582.359 734.956 583.843 734.424 585.187 733.36L586.055 735.376C585.421 735.936 584.609 736.384 583.619 736.72C582.649 737.037 581.669 737.196 580.679 737.196C578.421 737.196 576.647 736.552 575.359 735.264C574.071 733.957 573.427 732.175 573.427 729.916C573.427 728.479 573.707 727.2 574.267 726.08C574.846 724.96 575.649 724.092 576.675 723.476C577.702 722.86 578.869 722.552 580.175 722.552C582.079 722.552 583.573 723.168 584.655 724.4C585.757 725.632 586.307 727.34 586.307 729.524V730ZM580.231 724.652C579.167 724.652 578.299 724.969 577.627 725.604C576.955 726.239 576.526 727.144 576.339 728.32H583.815C583.703 727.125 583.339 726.22 582.723 725.604C582.107 724.969 581.277 724.652 580.231 724.652ZM596.58 722.552C597.01 722.552 597.458 722.617 597.924 722.748L597.868 725.324C597.364 725.137 596.814 725.044 596.216 725.044C594.928 725.044 593.958 725.436 593.304 726.22C592.67 726.985 592.352 727.956 592.352 729.132V737H589.552V726.864C589.552 725.389 589.478 724.064 589.328 722.888H591.96L592.212 725.436C592.586 724.503 593.164 723.793 593.948 723.308C594.732 722.804 595.61 722.552 596.58 722.552ZM607.584 722.552C610.962 722.552 612.652 724.437 612.652 728.208V737H609.824V728.376C609.824 727.144 609.581 726.248 609.096 725.688C608.629 725.128 607.873 724.848 606.828 724.848C605.633 724.848 604.672 725.221 603.944 725.968C603.234 726.715 602.88 727.713 602.88 728.964V737H600.08V726.864C600.08 725.389 600.005 724.064 599.856 722.888H602.488L602.74 725.324C603.188 724.428 603.832 723.747 604.672 723.28C605.53 722.795 606.501 722.552 607.584 722.552ZM628.717 730H618.637C618.731 733.304 620.233 734.956 623.145 734.956C624.769 734.956 626.253 734.424 627.597 733.36L628.465 735.376C627.831 735.936 627.019 736.384 626.029 736.72C625.059 737.037 624.079 737.196 623.089 737.196C620.831 737.196 619.057 736.552 617.769 735.264C616.481 733.957 615.837 732.175 615.837 729.916C615.837 728.479 616.117 727.2 616.677 726.08C617.256 724.96 618.059 724.092 619.085 723.476C620.112 722.86 621.279 722.552 622.585 722.552C624.489 722.552 625.983 723.168 627.065 724.4C628.167 725.632 628.717 727.34 628.717 729.524V730ZM622.641 724.652C621.577 724.652 620.709 724.969 620.037 725.604C619.365 726.239 618.936 727.144 618.749 728.32H626.225C626.113 727.125 625.749 726.22 625.133 725.604C624.517 724.969 623.687 724.652 622.641 724.652ZM635.494 725.072V732.156C635.494 733.127 635.699 733.817 636.11 734.228C636.539 734.62 637.127 734.816 637.874 734.816C638.359 734.816 638.854 734.741 639.358 734.592V736.888C638.742 737.093 638.042 737.196 637.258 737.196C635.802 737.196 634.673 736.785 633.87 735.964C633.067 735.143 632.666 733.948 632.666 732.38V725.072H629.922V722.888H632.666V719.36L635.494 718.38V722.888H639.386V725.072H635.494ZM654.038 730H643.958C644.051 733.304 645.554 734.956 648.466 734.956C650.09 734.956 651.574 734.424 652.918 733.36L653.786 735.376C653.151 735.936 652.339 736.384 651.35 736.72C650.379 737.037 649.399 737.196 648.41 737.196C646.151 737.196 644.378 736.552 643.09 735.264C641.802 733.957 641.158 732.175 641.158 729.916C641.158 728.479 641.438 727.2 641.998 726.08C642.576 724.96 643.379 724.092 644.406 723.476C645.432 722.86 646.599 722.552 647.906 722.552C649.81 722.552 651.303 723.168 652.386 724.4C653.487 725.632 654.038 727.34 654.038 729.524V730ZM647.962 724.652C646.898 724.652 646.03 724.969 645.358 725.604C644.686 726.239 644.256 727.144 644.07 728.32H651.546C651.434 727.125 651.07 726.22 650.454 725.604C649.838 724.969 649.007 724.652 647.962 724.652ZM662.211 737.196C659.747 737.196 657.806 736.599 656.387 735.404L657.227 733.36C658.702 734.48 660.391 735.04 662.295 735.04C663.266 735.04 664.003 734.881 664.507 734.564C665.011 734.228 665.263 733.761 665.263 733.164C665.263 732.66 665.086 732.268 664.731 731.988C664.395 731.689 663.816 731.437 662.995 731.232L660.643 730.672C659.411 730.411 658.468 729.953 657.815 729.3C657.18 728.628 656.863 727.797 656.863 726.808C656.863 725.539 657.367 724.512 658.375 723.728C659.402 722.944 660.755 722.552 662.435 722.552C663.443 722.552 664.395 722.711 665.291 723.028C666.206 723.345 666.98 723.793 667.615 724.372L666.747 726.36C665.384 725.277 663.947 724.736 662.435 724.736C661.52 724.736 660.811 724.913 660.307 725.268C659.803 725.604 659.551 726.08 659.551 726.696C659.551 727.181 659.71 727.573 660.027 727.872C660.344 728.171 660.848 728.404 661.539 728.572L663.947 729.16C665.291 729.459 666.28 729.935 666.915 730.588C667.568 731.223 667.895 732.053 667.895 733.08C667.895 734.349 667.382 735.357 666.355 736.104C665.347 736.832 663.966 737.196 662.211 737.196Z" fill="black"/>
<rect y="567" width="1190" height="104" fill="#8500AC"/>
<path d="M524.857 619.176C529.209 625.619 534.137 632.168 539.641 638.824L539.513 639.976C536.143 640.787 532.729 641.363 529.273 641.704L528.057 641.064C522.809 633.384 518.436 626.579 514.937 620.648L514.809 627.752L515.193 641H504.825L505.337 628.776L504.825 599.72H515.321L515.001 618.152L525.049 603.88L527.353 599.72H538.425L524.857 619.176ZM570.676 634.536L569.78 639.848C567.988 641 566.153 641.576 564.276 641.576C561.801 641.064 560.094 639.379 559.156 636.52H558.516C556.041 638.995 553.545 640.616 551.028 641.384C547.828 641.384 545.374 640.659 543.668 639.208C541.961 637.715 541.108 635.603 541.108 632.872L541.3 625.704L540.98 611.688L550.708 610.92L550.58 629.16C550.537 631.933 551.646 633.32 553.908 633.32C554.676 633.32 555.401 633.171 556.084 632.872C556.766 632.573 557.513 632.083 558.324 631.4V611.688L567.924 610.92L567.348 632.552C567.348 633.149 567.433 633.576 567.604 633.832C567.817 634.088 568.137 634.216 568.564 634.216C568.948 634.216 569.417 634.131 569.972 633.96L570.676 634.536ZM592.136 610.664C595.891 610.664 598.792 611.944 600.84 614.504C602.888 617.064 603.912 620.627 603.912 625.192C603.912 630.483 602.568 634.557 599.88 637.416C597.235 640.275 593.566 641.704 588.872 641.704C586.526 641.704 583.944 641.192 581.128 640.168L576.264 641.768L575.24 640.808L575.752 628.776L575.304 596.776L585.416 596.072L585.096 615.336H585.416C586.526 614.227 587.614 613.309 588.68 612.584C589.747 611.816 590.899 611.176 592.136 610.664ZM588.552 635.24C592.478 635.24 594.44 632.403 594.44 626.728C594.355 621.395 592.627 618.728 589.256 618.728C587.806 618.728 586.398 619.325 585.032 620.52L584.904 627.496L584.968 634.472C586.334 634.984 587.528 635.24 588.552 635.24ZM632.989 627.688L616.221 627.816C616.519 630.035 617.287 631.677 618.525 632.744C619.762 633.811 621.511 634.344 623.773 634.344C626.034 634.344 629.021 633.683 632.733 632.36L633.501 632.872L631.965 640.104C628.551 641.171 625.458 641.704 622.685 641.704C617.778 641.704 613.917 640.317 611.101 637.544C608.327 634.771 606.941 630.952 606.941 626.088C606.941 621.224 608.285 617.405 610.973 614.632C613.661 611.816 617.309 610.408 621.917 610.408C625.885 610.408 628.957 611.475 631.133 613.608C633.351 615.741 634.461 618.707 634.461 622.504C634.461 623.741 634.333 625.043 634.077 626.408L632.989 627.688ZM625.693 621.416C625.693 618.472 624.413 617 621.853 617C620.402 617 619.207 617.491 618.269 618.472C617.33 619.411 616.69 620.776 616.349 622.568L625.565 622.312L625.693 621.416ZM657.217 610.984C657.473 610.984 657.985 611.027 658.753 611.112V620.392L657.729 620.712C657.131 620.413 656.342 620.264 655.361 620.264C653.057 620.264 650.945 621.501 649.025 623.976V627.752L649.473 641H639.361L639.873 628.776L639.425 611.688L649.089 610.92V616.68H649.537C651.542 612.883 654.102 610.984 657.217 610.984ZM674.344 610.408C677.885 610.408 680.637 611.176 682.6 612.712C684.562 614.205 685.544 616.36 685.544 619.176C685.544 620.157 685.501 621.288 685.416 622.568C685.33 623.848 685.266 625.064 685.224 626.216C685.01 629.288 684.904 631.4 684.904 632.552C684.904 633.149 684.989 633.576 685.16 633.832C685.373 634.088 685.714 634.216 686.184 634.216C686.568 634.216 687.037 634.131 687.592 633.96L688.296 634.536L687.4 639.848C685.992 640.829 684.264 641.405 682.216 641.576C680.936 641.448 679.848 641 678.952 640.232C678.056 639.464 677.416 638.376 677.032 636.968H676.584C674.45 639.229 672.274 640.787 670.056 641.64C666.898 641.597 664.402 640.744 662.568 639.08C660.776 637.416 659.88 635.155 659.88 632.296C659.88 627.901 662.184 625.32 666.792 624.552L676.264 622.952V621.096C676.264 619.773 675.965 618.835 675.368 618.28C674.813 617.683 673.896 617.384 672.616 617.384C671.336 617.384 669.949 617.661 668.456 618.216C667.005 618.771 665.32 619.645 663.4 620.84L662.76 620.392L661.608 613.8C663.528 612.733 665.597 611.901 667.816 611.304C670.034 610.707 672.21 610.408 674.344 610.408ZM670.76 628.776C670.12 628.904 669.629 629.16 669.288 629.544C668.989 629.928 668.84 630.504 668.84 631.272C668.84 632.296 669.096 633.085 669.608 633.64C670.162 634.195 670.909 634.472 671.848 634.472C673.213 634.472 674.664 633.747 676.2 632.296L676.264 627.688L670.76 628.776Z" fill="white"/>
<rect y="488" width="1190" height="48" fill="#8500AC"/>
<path d="M554.178 501.064V521H551.574V507.308L545.666 521H543.678L537.686 507.392L537.714 521H535.11V501.064H537.434L544.686 517.528L551.854 501.064H554.178ZM571.5 506.888V521H568.7V518.592C568.289 519.432 567.673 520.076 566.852 520.524C566.049 520.972 565.106 521.196 564.024 521.196C562.773 521.196 561.672 520.897 560.72 520.3C559.786 519.703 559.058 518.863 558.536 517.78C558.013 516.679 557.752 515.4 557.752 513.944C557.752 512.488 558.013 511.2 558.536 510.08C559.077 508.96 559.824 508.092 560.776 507.476C561.728 506.86 562.81 506.552 564.024 506.552C565.106 506.552 566.049 506.785 566.852 507.252C567.654 507.7 568.27 508.344 568.7 509.184V506.888H571.5ZM564.696 518.956C565.965 518.956 566.945 518.517 567.636 517.64C568.345 516.744 568.7 515.493 568.7 513.888C568.7 512.264 568.345 511.013 567.636 510.136C566.945 509.259 565.956 508.82 564.668 508.82C563.398 508.82 562.4 509.277 561.672 510.192C560.962 511.088 560.608 512.339 560.608 513.944C560.608 515.531 560.962 516.763 561.672 517.64C562.4 518.517 563.408 518.956 564.696 518.956ZM588.478 506.888L581.898 522.148C581.17 523.809 580.255 525.023 579.154 525.788C578.071 526.572 576.727 527.095 575.122 527.356L574.506 525.172C575.831 524.873 576.83 524.481 577.502 523.996C578.193 523.529 578.743 522.82 579.154 521.868L579.658 520.692L573.722 506.888H576.718L581.142 517.808L585.65 506.888H588.478ZM603.382 506.888V521H600.582V518.592C600.172 519.432 599.556 520.076 598.734 520.524C597.932 520.972 596.989 521.196 595.906 521.196C594.656 521.196 593.554 520.897 592.602 520.3C591.669 519.703 590.941 518.863 590.418 517.78C589.896 516.679 589.634 515.4 589.634 513.944C589.634 512.488 589.896 511.2 590.418 510.08C590.96 508.96 591.706 508.092 592.658 507.476C593.61 506.86 594.693 506.552 595.906 506.552C596.989 506.552 597.932 506.785 598.734 507.252C599.537 507.7 600.153 508.344 600.582 509.184V506.888H603.382ZM596.578 518.956C597.848 518.956 598.828 518.517 599.518 517.64C600.228 516.744 600.582 515.493 600.582 513.888C600.582 512.264 600.228 511.013 599.518 510.136C598.828 509.259 597.838 508.82 596.55 508.82C595.281 508.82 594.282 509.277 593.554 510.192C592.845 511.088 592.49 512.339 592.49 513.944C592.49 515.531 592.845 516.763 593.554 517.64C594.282 518.517 595.29 518.956 596.578 518.956ZM612.465 521.196C610.001 521.196 608.06 520.599 606.641 519.404L607.481 517.36C608.956 518.48 610.645 519.04 612.549 519.04C613.52 519.04 614.257 518.881 614.761 518.564C615.265 518.228 615.517 517.761 615.517 517.164C615.517 516.66 615.34 516.268 614.985 515.988C614.649 515.689 614.07 515.437 613.249 515.232L610.897 514.672C609.665 514.411 608.722 513.953 608.069 513.3C607.434 512.628 607.117 511.797 607.117 510.808C607.117 509.539 607.621 508.512 608.629 507.728C609.656 506.944 611.009 506.552 612.689 506.552C613.697 506.552 614.649 506.711 615.545 507.028C616.46 507.345 617.234 507.793 617.869 508.372L617.001 510.36C615.638 509.277 614.201 508.736 612.689 508.736C611.774 508.736 611.065 508.913 610.561 509.268C610.057 509.604 609.805 510.08 609.805 510.696C609.805 511.181 609.964 511.573 610.281 511.872C610.598 512.171 611.102 512.404 611.793 512.572L614.201 513.16C615.545 513.459 616.534 513.935 617.169 514.588C617.822 515.223 618.149 516.053 618.149 517.08C618.149 518.349 617.636 519.357 616.609 520.104C615.601 520.832 614.22 521.196 612.465 521.196ZM625.013 509.072V516.156C625.013 517.127 625.219 517.817 625.629 518.228C626.059 518.62 626.647 518.816 627.393 518.816C627.879 518.816 628.373 518.741 628.877 518.592V520.888C628.261 521.093 627.561 521.196 626.777 521.196C625.321 521.196 624.192 520.785 623.389 519.964C622.587 519.143 622.185 517.948 622.185 516.38V509.072H619.441V506.888H622.185V503.36L625.013 502.38V506.888H628.905V509.072H625.013ZM637.593 521.196C636.212 521.196 634.999 520.897 633.953 520.3C632.908 519.703 632.096 518.853 631.517 517.752C630.957 516.651 630.677 515.363 630.677 513.888C630.677 512.413 630.957 511.125 631.517 510.024C632.096 508.904 632.908 508.045 633.953 507.448C634.999 506.851 636.212 506.552 637.593 506.552C638.956 506.552 640.16 506.851 641.205 507.448C642.251 508.045 643.053 508.904 643.613 510.024C644.192 511.125 644.481 512.413 644.481 513.888C644.481 515.363 644.192 516.651 643.613 517.752C643.053 518.853 642.251 519.703 641.205 520.3C640.16 520.897 638.956 521.196 637.593 521.196ZM637.565 518.956C638.872 518.956 639.871 518.527 640.561 517.668C641.252 516.809 641.597 515.549 641.597 513.888C641.597 512.264 641.243 511.013 640.533 510.136C639.843 509.259 638.863 508.82 637.593 508.82C636.305 508.82 635.307 509.259 634.597 510.136C633.888 511.013 633.533 512.264 633.533 513.888C633.533 515.549 633.879 516.809 634.569 517.668C635.279 518.527 636.277 518.956 637.565 518.956ZM654.815 506.552C655.244 506.552 655.692 506.617 656.159 506.748L656.103 509.324C655.599 509.137 655.048 509.044 654.451 509.044C653.163 509.044 652.192 509.436 651.539 510.22C650.904 510.985 650.587 511.956 650.587 513.132V521H647.787V510.864C647.787 509.389 647.712 508.064 647.563 506.888H650.195L650.447 509.436C650.82 508.503 651.399 507.793 652.183 507.308C652.967 506.804 653.844 506.552 654.815 506.552Z" fill="white"/>
<rect x="1.5" y="1.5" width="582" height="213" rx="6.5" fill="#A4A8FF" stroke="#2C0735" stroke-width="3"/>
<path d="M120.201 256.224C118.279 256.224 116.599 255.813 115.161 254.992C113.743 254.152 112.651 252.967 111.885 251.436C111.12 249.905 110.737 248.095 110.737 246.004C110.737 243.932 111.12 242.131 111.885 240.6C112.651 239.069 113.743 237.893 115.161 237.072C116.599 236.251 118.279 235.84 120.201 235.84C121.564 235.84 122.824 236.055 123.981 236.484C125.157 236.895 126.147 237.501 126.949 238.304L125.941 240.432C125.008 239.667 124.084 239.116 123.169 238.78C122.273 238.425 121.293 238.248 120.229 238.248C118.157 238.248 116.552 238.92 115.413 240.264C114.293 241.608 113.733 243.521 113.733 246.004C113.733 248.505 114.293 250.437 115.413 251.8C116.552 253.144 118.157 253.816 120.229 253.816C121.293 253.816 122.273 253.648 123.169 253.312C124.084 252.957 125.008 252.397 125.941 251.632L126.949 253.76C126.147 254.563 125.157 255.179 123.981 255.608C122.824 256.019 121.564 256.224 120.201 256.224ZM136.128 256.196C134.747 256.196 133.534 255.897 132.488 255.3C131.443 254.703 130.631 253.853 130.052 252.752C129.492 251.651 129.212 250.363 129.212 248.888C129.212 247.413 129.492 246.125 130.052 245.024C130.631 243.904 131.443 243.045 132.488 242.448C133.534 241.851 134.747 241.552 136.128 241.552C137.491 241.552 138.695 241.851 139.74 242.448C140.786 243.045 141.588 243.904 142.148 245.024C142.727 246.125 143.016 247.413 143.016 248.888C143.016 250.363 142.727 251.651 142.148 252.752C141.588 253.853 140.786 254.703 139.74 255.3C138.695 255.897 137.491 256.196 136.128 256.196ZM136.1 253.956C137.407 253.956 138.406 253.527 139.096 252.668C139.787 251.809 140.132 250.549 140.132 248.888C140.132 247.264 139.778 246.013 139.068 245.136C138.378 244.259 137.398 243.82 136.128 243.82C134.84 243.82 133.842 244.259 133.132 245.136C132.423 246.013 132.068 247.264 132.068 248.888C132.068 250.549 132.414 251.809 133.104 252.668C133.814 253.527 134.812 253.956 136.1 253.956ZM153.826 241.552C157.205 241.552 158.894 243.437 158.894 247.208V256H156.066V247.376C156.066 246.144 155.823 245.248 155.338 244.688C154.871 244.128 154.115 243.848 153.07 243.848C151.875 243.848 150.914 244.221 150.186 244.968C149.477 245.715 149.122 246.713 149.122 247.964V256H146.322V245.864C146.322 244.389 146.247 243.064 146.098 241.888H148.73L148.982 244.324C149.43 243.428 150.074 242.747 150.914 242.28C151.773 241.795 152.743 241.552 153.826 241.552ZM166.588 244.072V251.156C166.588 252.127 166.793 252.817 167.204 253.228C167.633 253.62 168.221 253.816 168.968 253.816C169.453 253.816 169.948 253.741 170.452 253.592V255.888C169.836 256.093 169.136 256.196 168.352 256.196C166.896 256.196 165.766 255.785 164.964 254.964C164.161 254.143 163.76 252.948 163.76 251.38V244.072H161.016V241.888H163.76V238.36L166.588 237.38V241.888H170.48V244.072H166.588ZM186 241.888V256H183.2V253.592C182.789 254.432 182.173 255.076 181.352 255.524C180.549 255.972 179.606 256.196 178.524 256.196C177.273 256.196 176.172 255.897 175.22 255.3C174.286 254.703 173.558 253.863 173.036 252.78C172.513 251.679 172.252 250.4 172.252 248.944C172.252 247.488 172.513 246.2 173.036 245.08C173.577 243.96 174.324 243.092 175.276 242.476C176.228 241.86 177.31 241.552 178.524 241.552C179.606 241.552 180.549 241.785 181.352 242.252C182.154 242.7 182.77 243.344 183.2 244.184V241.888H186ZM179.196 253.956C180.465 253.956 181.445 253.517 182.136 252.64C182.845 251.744 183.2 250.493 183.2 248.888C183.2 247.264 182.845 246.013 182.136 245.136C181.445 244.259 180.456 243.82 179.168 243.82C177.898 243.82 176.9 244.277 176.172 245.192C175.462 246.088 175.108 247.339 175.108 248.944C175.108 250.531 175.462 251.763 176.172 252.64C176.9 253.517 177.908 253.956 179.196 253.956ZM190.154 241.888H192.954V256H190.154V241.888ZM193.178 235.728V238.696H189.902V235.728H193.178ZM204.603 241.552C207.982 241.552 209.671 243.437 209.671 247.208V256H206.843V247.376C206.843 246.144 206.601 245.248 206.115 244.688C205.649 244.128 204.893 243.848 203.847 243.848C202.653 243.848 201.691 244.221 200.963 244.968C200.254 245.715 199.899 246.713 199.899 247.964V256H197.099V245.864C197.099 244.389 197.025 243.064 196.875 241.888H199.507L199.759 244.324C200.207 243.428 200.851 242.747 201.691 242.28C202.55 241.795 203.521 241.552 204.603 241.552ZM225.737 249H215.657C215.75 252.304 217.253 253.956 220.165 253.956C221.789 253.956 223.273 253.424 224.617 252.36L225.485 254.376C224.85 254.936 224.038 255.384 223.049 255.72C222.078 256.037 221.098 256.196 220.109 256.196C217.85 256.196 216.077 255.552 214.789 254.264C213.501 252.957 212.857 251.175 212.857 248.916C212.857 247.479 213.137 246.2 213.697 245.08C214.276 243.96 215.078 243.092 216.105 242.476C217.132 241.86 218.298 241.552 219.605 241.552C221.509 241.552 223.002 242.168 224.085 243.4C225.186 244.632 225.737 246.34 225.737 248.524V249ZM219.661 243.652C218.597 243.652 217.729 243.969 217.057 244.604C216.385 245.239 215.956 246.144 215.769 247.32H223.245C223.133 246.125 222.769 245.22 222.153 244.604C221.537 243.969 220.706 243.652 219.661 243.652ZM236.01 241.552C236.439 241.552 236.887 241.617 237.354 241.748L237.298 244.324C236.794 244.137 236.243 244.044 235.646 244.044C234.358 244.044 233.387 244.436 232.734 245.22C232.099 245.985 231.782 246.956 231.782 248.132V256H228.982V245.864C228.982 244.389 228.907 243.064 228.758 241.888H231.39L231.642 244.436C232.015 243.503 232.594 242.793 233.378 242.308C234.162 241.804 235.039 241.552 236.01 241.552ZM260.33 251.072H250.25L248.122 256H245.182L254.058 236.064H256.494L265.398 256H262.458L260.33 251.072ZM259.35 248.776L255.29 239.284L251.23 248.776H259.35ZM271.068 244.072V251.156C271.068 252.127 271.273 252.817 271.684 253.228C272.113 253.62 272.701 253.816 273.448 253.816C273.933 253.816 274.428 253.741 274.932 253.592V255.888C274.316 256.093 273.616 256.196 272.832 256.196C271.376 256.196 270.247 255.785 269.444 254.964C268.641 254.143 268.24 252.948 268.24 251.38V244.072H265.496V241.888H268.24V238.36L271.068 237.38V241.888H274.96V244.072H271.068ZM281.213 244.072V251.156C281.213 252.127 281.418 252.817 281.829 253.228C282.258 253.62 282.846 253.816 283.593 253.816C284.078 253.816 284.573 253.741 285.077 253.592V255.888C284.461 256.093 283.761 256.196 282.977 256.196C281.521 256.196 280.391 255.785 279.589 254.964C278.786 254.143 278.385 252.948 278.385 251.38V244.072H275.641V241.888H278.385V238.36L281.213 237.38V241.888H285.105V244.072H281.213ZM300.625 241.888V256H297.825V253.592C297.414 254.432 296.798 255.076 295.977 255.524C295.174 255.972 294.231 256.196 293.149 256.196C291.898 256.196 290.797 255.897 289.845 255.3C288.911 254.703 288.183 253.863 287.661 252.78C287.138 251.679 286.877 250.4 286.877 248.944C286.877 247.488 287.138 246.2 287.661 245.08C288.202 243.96 288.949 243.092 289.901 242.476C290.853 241.86 291.935 241.552 293.149 241.552C294.231 241.552 295.174 241.785 295.977 242.252C296.779 242.7 297.395 243.344 297.825 244.184V241.888H300.625ZM293.821 253.956C295.09 253.956 296.07 253.517 296.761 252.64C297.47 251.744 297.825 250.493 297.825 248.888C297.825 247.264 297.47 246.013 296.761 245.136C296.07 244.259 295.081 243.82 293.793 243.82C292.523 243.82 291.525 244.277 290.797 245.192C290.087 246.088 289.733 247.339 289.733 248.944C289.733 250.531 290.087 251.763 290.797 252.64C291.525 253.517 292.533 253.956 293.821 253.956ZM310.911 256.196C309.492 256.196 308.251 255.897 307.187 255.3C306.142 254.703 305.339 253.863 304.779 252.78C304.219 251.679 303.939 250.4 303.939 248.944C303.939 247.488 304.228 246.2 304.807 245.08C305.404 243.96 306.235 243.092 307.299 242.476C308.363 241.86 309.604 241.552 311.023 241.552C312.012 241.552 312.964 241.72 313.879 242.056C314.794 242.373 315.531 242.812 316.091 243.372L315.223 245.416C313.898 244.371 312.563 243.848 311.219 243.848C309.856 243.848 308.792 244.296 308.027 245.192C307.262 246.069 306.879 247.311 306.879 248.916C306.879 250.521 307.262 251.763 308.027 252.64C308.792 253.499 309.856 253.928 311.219 253.928C312.6 253.928 313.935 253.405 315.223 252.36L316.091 254.404C315.494 254.964 314.728 255.403 313.795 255.72C312.88 256.037 311.919 256.196 310.911 256.196ZM326.256 241.552C329.634 241.552 331.324 243.437 331.324 247.208V256H328.496V247.376C328.496 246.144 328.253 245.248 327.768 244.688C327.301 244.128 326.545 243.848 325.5 243.848C324.305 243.848 323.344 244.221 322.616 244.968C321.906 245.715 321.552 246.713 321.552 247.964V256H318.752V235.392H321.552V244.072C322.018 243.251 322.662 242.625 323.484 242.196C324.305 241.767 325.229 241.552 326.256 241.552ZM347.389 249H337.309C337.403 252.304 338.905 253.956 341.817 253.956C343.441 253.956 344.925 253.424 346.269 252.36L347.137 254.376C346.503 254.936 345.691 255.384 344.701 255.72C343.731 256.037 342.751 256.196 341.761 256.196C339.503 256.196 337.729 255.552 336.441 254.264C335.153 252.957 334.509 251.175 334.509 248.916C334.509 247.479 334.789 246.2 335.349 245.08C335.928 243.96 336.731 243.092 337.757 242.476C338.784 241.86 339.951 241.552 341.257 241.552C343.161 241.552 344.655 242.168 345.737 243.4C346.839 244.632 347.389 246.34 347.389 248.524V249ZM341.313 243.652C340.249 243.652 339.381 243.969 338.709 244.604C338.037 245.239 337.608 246.144 337.421 247.32H344.897C344.785 246.125 344.421 245.22 343.805 244.604C343.189 243.969 342.359 243.652 341.313 243.652ZM363.543 235.392V256H360.743V253.592C360.332 254.432 359.716 255.076 358.895 255.524C358.092 255.972 357.149 256.196 356.067 256.196C354.853 256.196 353.771 255.888 352.819 255.272C351.867 254.656 351.12 253.797 350.579 252.696C350.056 251.576 349.795 250.288 349.795 248.832C349.795 247.376 350.056 246.097 350.579 244.996C351.101 243.895 351.829 243.045 352.763 242.448C353.715 241.851 354.816 241.552 356.067 241.552C357.131 241.552 358.064 241.776 358.867 242.224C359.688 242.672 360.304 243.307 360.715 244.128V235.392H363.543ZM356.711 253.956C357.999 253.956 358.988 253.517 359.679 252.64C360.388 251.744 360.743 250.493 360.743 248.888C360.743 247.283 360.388 246.041 359.679 245.164C358.988 244.268 358.008 243.82 356.739 243.82C355.451 243.82 354.443 244.259 353.715 245.136C353.005 246.013 352.651 247.245 352.651 248.832C352.651 250.437 353.005 251.697 353.715 252.612C354.443 253.508 355.441 253.956 356.711 253.956ZM381.938 256.224C380.389 256.224 378.97 256.019 377.682 255.608C376.413 255.197 375.311 254.581 374.378 253.76L375.414 251.632C376.385 252.416 377.393 252.985 378.438 253.34C379.483 253.695 380.659 253.872 381.966 253.872C383.459 253.872 384.617 253.592 385.438 253.032C386.259 252.472 386.67 251.679 386.67 250.652C386.67 249.793 386.287 249.149 385.522 248.72C384.757 248.272 383.543 247.861 381.882 247.488C380.295 247.152 378.998 246.769 377.99 246.34C376.982 245.892 376.189 245.304 375.61 244.576C375.031 243.829 374.742 242.877 374.742 241.72C374.742 240.563 375.05 239.545 375.666 238.668C376.282 237.772 377.15 237.081 378.27 236.596C379.409 236.092 380.715 235.84 382.19 235.84C383.59 235.84 384.897 236.055 386.11 236.484C387.342 236.913 388.369 237.52 389.19 238.304L388.154 240.432C387.239 239.667 386.297 239.107 385.326 238.752C384.355 238.379 383.319 238.192 382.218 238.192C380.781 238.192 379.651 238.5 378.83 239.116C378.009 239.713 377.598 240.535 377.598 241.58C377.598 242.476 377.953 243.157 378.662 243.624C379.39 244.091 380.547 244.511 382.134 244.884C383.795 245.257 385.139 245.649 386.166 246.06C387.193 246.471 388.014 247.031 388.63 247.74C389.246 248.449 389.554 249.364 389.554 250.484C389.554 251.641 389.246 252.649 388.63 253.508C388.014 254.367 387.127 255.039 385.97 255.524C384.831 255.991 383.487 256.224 381.938 256.224ZM396.412 244.072V251.156C396.412 252.127 396.617 252.817 397.028 253.228C397.457 253.62 398.045 253.816 398.792 253.816C399.277 253.816 399.772 253.741 400.276 253.592V255.888C399.66 256.093 398.96 256.196 398.176 256.196C396.72 256.196 395.591 255.785 394.788 254.964C393.985 254.143 393.584 252.948 393.584 251.38V244.072H390.84V241.888H393.584V238.36L396.412 237.38V241.888H400.304V244.072H396.412ZM408.992 256.196C407.61 256.196 406.397 255.897 405.352 255.3C404.306 254.703 403.494 253.853 402.916 252.752C402.356 251.651 402.076 250.363 402.076 248.888C402.076 247.413 402.356 246.125 402.916 245.024C403.494 243.904 404.306 243.045 405.352 242.448C406.397 241.851 407.61 241.552 408.992 241.552C410.354 241.552 411.558 241.851 412.604 242.448C413.649 243.045 414.452 243.904 415.012 245.024C415.59 246.125 415.88 247.413 415.88 248.888C415.88 250.363 415.59 251.651 415.012 252.752C414.452 253.853 413.649 254.703 412.604 255.3C411.558 255.897 410.354 256.196 408.992 256.196ZM408.964 253.956C410.27 253.956 411.269 253.527 411.96 252.668C412.65 251.809 412.996 250.549 412.996 248.888C412.996 247.264 412.641 246.013 411.932 245.136C411.241 244.259 410.261 243.82 408.992 243.82C407.704 243.82 406.705 244.259 405.996 245.136C405.286 246.013 404.932 247.264 404.932 248.888C404.932 250.549 405.277 251.809 405.968 252.668C406.677 253.527 407.676 253.956 408.964 253.956ZM426.213 241.552C426.643 241.552 427.091 241.617 427.557 241.748L427.501 244.324C426.997 244.137 426.447 244.044 425.849 244.044C424.561 244.044 423.591 244.436 422.937 245.22C422.303 245.985 421.985 246.956 421.985 248.132V256H419.185V245.864C419.185 244.389 419.111 243.064 418.961 241.888H421.593L421.845 244.436C422.219 243.503 422.797 242.793 423.581 242.308C424.365 241.804 425.243 241.552 426.213 241.552ZM442.347 241.888V256H439.547V253.592C439.137 254.432 438.521 255.076 437.699 255.524C436.897 255.972 435.954 256.196 434.871 256.196C433.621 256.196 432.519 255.897 431.567 255.3C430.634 254.703 429.906 253.863 429.383 252.78C428.861 251.679 428.599 250.4 428.599 248.944C428.599 247.488 428.861 246.2 429.383 245.08C429.925 243.96 430.671 243.092 431.623 242.476C432.575 241.86 433.658 241.552 434.871 241.552C435.954 241.552 436.897 241.785 437.699 242.252C438.502 242.7 439.118 243.344 439.547 244.184V241.888H442.347ZM435.543 253.956C436.813 253.956 437.793 253.517 438.483 252.64C439.193 251.744 439.547 250.493 439.547 248.888C439.547 247.264 439.193 246.013 438.483 245.136C437.793 244.259 436.803 243.82 435.515 243.82C434.246 243.82 433.247 244.277 432.519 245.192C431.81 246.088 431.455 247.339 431.455 248.944C431.455 250.531 431.81 251.763 432.519 252.64C433.247 253.517 434.255 253.956 435.543 253.956ZM459.522 241.888V255.748C459.522 257.895 458.952 259.509 457.814 260.592C456.694 261.693 455.023 262.244 452.802 262.244C450.655 262.244 448.779 261.777 447.174 260.844L447.65 258.632C448.527 259.099 449.367 259.444 450.17 259.668C450.991 259.892 451.859 260.004 452.774 260.004C455.406 260.004 456.722 258.66 456.722 255.972V252.92C456.292 253.741 455.667 254.395 454.846 254.88C454.024 255.347 453.072 255.58 451.99 255.58C450.758 255.58 449.656 255.291 448.686 254.712C447.734 254.133 446.987 253.312 446.446 252.248C445.923 251.184 445.662 249.961 445.662 248.58C445.662 247.199 445.923 245.976 446.446 244.912C446.987 243.848 447.734 243.027 448.686 242.448C449.656 241.851 450.758 241.552 451.99 241.552C453.072 241.552 454.024 241.785 454.846 242.252C455.667 242.7 456.292 243.344 456.722 244.184V241.888H459.522ZM452.634 253.312C453.903 253.312 454.902 252.892 455.63 252.052C456.358 251.212 456.722 250.055 456.722 248.58C456.722 247.105 456.358 245.948 455.63 245.108C454.92 244.249 453.922 243.82 452.634 243.82C451.364 243.82 450.356 244.249 449.61 245.108C448.882 245.948 448.518 247.105 448.518 248.58C448.518 250.036 448.882 251.193 449.61 252.052C450.356 252.892 451.364 253.312 452.634 253.312ZM475.714 249H465.634C465.727 252.304 467.23 253.956 470.142 253.956C471.766 253.956 473.25 253.424 474.594 252.36L475.462 254.376C474.827 254.936 474.015 255.384 473.026 255.72C472.055 256.037 471.075 256.196 470.086 256.196C467.827 256.196 466.054 255.552 464.766 254.264C463.478 252.957 462.834 251.175 462.834 248.916C462.834 247.479 463.114 246.2 463.674 245.08C464.252 243.96 465.055 243.092 466.082 242.476C467.108 241.86 468.275 241.552 469.582 241.552C471.486 241.552 472.979 242.168 474.062 243.4C475.163 244.632 475.714 246.34 475.714 248.524V249ZM469.638 243.652C468.574 243.652 467.706 243.969 467.034 244.604C466.362 245.239 465.932 246.144 465.746 247.32H473.222C473.11 246.125 472.746 245.22 472.13 244.604C471.514 243.969 470.683 243.652 469.638 243.652Z" fill="black"/>
<rect x="27" y="33" width="250" height="48" fill="#C4C4C4"/>
<path d="M135.197 49.064H143.485C145.576 49.064 147.2 49.5773 148.357 50.604C149.533 51.612 150.121 52.9933 150.121 54.748C150.121 56.5027 149.524 57.8933 148.329 58.92C147.153 59.928 145.538 60.432 143.485 60.432H138.081V69H135.197V49.064ZM143.149 58.136C144.53 58.136 145.566 57.8467 146.257 57.268C146.966 56.6893 147.321 55.8493 147.321 54.748C147.321 53.6653 146.966 52.8347 146.257 52.256C145.566 51.6773 144.53 51.388 143.149 51.388H138.081V58.136H143.149ZM171.239 49.064L162.447 69H160.011L151.219 49.064H154.243L161.243 65.36L168.271 49.064H171.239Z" fill="black"/>
<rect x="309" y="33" width="250" height="48" fill="#C4C4C4"/>
<path d="M417.197 49.064H425.485C427.576 49.064 429.2 49.5773 430.357 50.604C431.533 51.612 432.121 52.9933 432.121 54.748C432.121 56.5027 431.524 57.8933 430.329 58.92C429.153 59.928 427.538 60.432 425.485 60.432H420.081V69H417.197V49.064ZM425.149 58.136C426.53 58.136 427.566 57.8467 428.257 57.268C428.966 56.6893 429.321 55.8493 429.321 54.748C429.321 53.6653 428.966 52.8347 428.257 52.256C427.566 51.6773 426.53 51.388 425.149 51.388H420.081V58.136H425.149ZM453.239 49.064L444.447 69H442.011L433.219 49.064H436.243L443.243 65.36L450.271 49.064H453.239Z" fill="black"/>
<rect x="309" y="135" width="250" height="48" fill="#C4C4C4"/>
<path d="M417.197 151.064H425.485C427.576 151.064 429.2 151.577 430.357 152.604C431.533 153.612 432.121 154.993 432.121 156.748C432.121 158.503 431.524 159.893 430.329 160.92C429.153 161.928 427.538 162.432 425.485 162.432H420.081V171H417.197V151.064ZM425.149 160.136C426.53 160.136 427.566 159.847 428.257 159.268C428.966 158.689 429.321 157.849 429.321 156.748C429.321 155.665 428.966 154.835 428.257 154.256C427.566 153.677 426.53 153.388 425.149 153.388H420.081V160.136H425.149ZM453.239 151.064L444.447 171H442.011L433.219 151.064H436.243L443.243 167.36L450.271 151.064H453.239Z" fill="black"/>
<rect x="27" y="135" width="250" height="48" fill="#C4C4C4"/>
<path d="M135.197 151.064H143.485C145.576 151.064 147.2 151.577 148.357 152.604C149.533 153.612 150.121 154.993 150.121 156.748C150.121 158.503 149.524 159.893 148.329 160.92C147.153 161.928 145.538 162.432 143.485 162.432H138.081V171H135.197V151.064ZM143.149 160.136C144.53 160.136 145.566 159.847 146.257 159.268C146.966 158.689 147.321 157.849 147.321 156.748C147.321 155.665 146.966 154.835 146.257 154.256C145.566 153.677 144.53 153.388 143.149 153.388H138.081V160.136H143.149ZM171.239 151.064L162.447 171H160.011L151.219 151.064H154.243L161.243 167.36L168.271 151.064H171.239Z" fill="black"/>
<rect x="606.5" y="1.5" width="582" height="213" rx="6.5" fill="#A4A8FF" stroke="#2C0735" stroke-width="3"/>
<path d="M725.201 256.224C723.279 256.224 721.599 255.813 720.161 254.992C718.743 254.152 717.651 252.967 716.885 251.436C716.12 249.905 715.737 248.095 715.737 246.004C715.737 243.932 716.12 242.131 716.885 240.6C717.651 239.069 718.743 237.893 720.161 237.072C721.599 236.251 723.279 235.84 725.201 235.84C726.564 235.84 727.824 236.055 728.981 236.484C730.157 236.895 731.147 237.501 731.949 238.304L730.941 240.432C730.008 239.667 729.084 239.116 728.169 238.78C727.273 238.425 726.293 238.248 725.229 238.248C723.157 238.248 721.552 238.92 720.413 240.264C719.293 241.608 718.733 243.521 718.733 246.004C718.733 248.505 719.293 250.437 720.413 251.8C721.552 253.144 723.157 253.816 725.229 253.816C726.293 253.816 727.273 253.648 728.169 253.312C729.084 252.957 730.008 252.397 730.941 251.632L731.949 253.76C731.147 254.563 730.157 255.179 728.981 255.608C727.824 256.019 726.564 256.224 725.201 256.224ZM741.128 256.196C739.747 256.196 738.534 255.897 737.488 255.3C736.443 254.703 735.631 253.853 735.052 252.752C734.492 251.651 734.212 250.363 734.212 248.888C734.212 247.413 734.492 246.125 735.052 245.024C735.631 243.904 736.443 243.045 737.488 242.448C738.534 241.851 739.747 241.552 741.128 241.552C742.491 241.552 743.695 241.851 744.74 242.448C745.786 243.045 746.588 243.904 747.148 245.024C747.727 246.125 748.016 247.413 748.016 248.888C748.016 250.363 747.727 251.651 747.148 252.752C746.588 253.853 745.786 254.703 744.74 255.3C743.695 255.897 742.491 256.196 741.128 256.196ZM741.1 253.956C742.407 253.956 743.406 253.527 744.096 252.668C744.787 251.809 745.132 250.549 745.132 248.888C745.132 247.264 744.778 246.013 744.068 245.136C743.378 244.259 742.398 243.82 741.128 243.82C739.84 243.82 738.842 244.259 738.132 245.136C737.423 246.013 737.068 247.264 737.068 248.888C737.068 250.549 737.414 251.809 738.104 252.668C738.814 253.527 739.812 253.956 741.1 253.956ZM758.826 241.552C762.205 241.552 763.894 243.437 763.894 247.208V256H761.066V247.376C761.066 246.144 760.823 245.248 760.338 244.688C759.871 244.128 759.115 243.848 758.07 243.848C756.875 243.848 755.914 244.221 755.186 244.968C754.477 245.715 754.122 246.713 754.122 247.964V256H751.322V245.864C751.322 244.389 751.247 243.064 751.098 241.888H753.73L753.982 244.324C754.43 243.428 755.074 242.747 755.914 242.28C756.773 241.795 757.743 241.552 758.826 241.552ZM771.588 244.072V251.156C771.588 252.127 771.793 252.817 772.204 253.228C772.633 253.62 773.221 253.816 773.968 253.816C774.453 253.816 774.948 253.741 775.452 253.592V255.888C774.836 256.093 774.136 256.196 773.352 256.196C771.896 256.196 770.766 255.785 769.964 254.964C769.161 254.143 768.76 252.948 768.76 251.38V244.072H766.016V241.888H768.76V238.36L771.588 237.38V241.888H775.48V244.072H771.588ZM791 241.888V256H788.2V253.592C787.789 254.432 787.173 255.076 786.352 255.524C785.549 255.972 784.606 256.196 783.524 256.196C782.273 256.196 781.172 255.897 780.22 255.3C779.286 254.703 778.558 253.863 778.036 252.78C777.513 251.679 777.252 250.4 777.252 248.944C777.252 247.488 777.513 246.2 778.036 245.08C778.577 243.96 779.324 243.092 780.276 242.476C781.228 241.86 782.31 241.552 783.524 241.552C784.606 241.552 785.549 241.785 786.352 242.252C787.154 242.7 787.77 243.344 788.2 244.184V241.888H791ZM784.196 253.956C785.465 253.956 786.445 253.517 787.136 252.64C787.845 251.744 788.2 250.493 788.2 248.888C788.2 247.264 787.845 246.013 787.136 245.136C786.445 244.259 785.456 243.82 784.168 243.82C782.898 243.82 781.9 244.277 781.172 245.192C780.462 246.088 780.108 247.339 780.108 248.944C780.108 250.531 780.462 251.763 781.172 252.64C781.9 253.517 782.908 253.956 784.196 253.956ZM795.154 241.888H797.954V256H795.154V241.888ZM798.178 235.728V238.696H794.902V235.728H798.178ZM809.603 241.552C812.982 241.552 814.671 243.437 814.671 247.208V256H811.843V247.376C811.843 246.144 811.601 245.248 811.115 244.688C810.649 244.128 809.893 243.848 808.847 243.848C807.653 243.848 806.691 244.221 805.963 244.968C805.254 245.715 804.899 246.713 804.899 247.964V256H802.099V245.864C802.099 244.389 802.025 243.064 801.875 241.888H804.507L804.759 244.324C805.207 243.428 805.851 242.747 806.691 242.28C807.55 241.795 808.521 241.552 809.603 241.552ZM830.737 249H820.657C820.75 252.304 822.253 253.956 825.165 253.956C826.789 253.956 828.273 253.424 829.617 252.36L830.485 254.376C829.85 254.936 829.038 255.384 828.049 255.72C827.078 256.037 826.098 256.196 825.109 256.196C822.85 256.196 821.077 255.552 819.789 254.264C818.501 252.957 817.857 251.175 817.857 248.916C817.857 247.479 818.137 246.2 818.697 245.08C819.276 243.96 820.078 243.092 821.105 242.476C822.132 241.86 823.298 241.552 824.605 241.552C826.509 241.552 828.002 242.168 829.085 243.4C830.186 244.632 830.737 246.34 830.737 248.524V249ZM824.661 243.652C823.597 243.652 822.729 243.969 822.057 244.604C821.385 245.239 820.956 246.144 820.769 247.32H828.245C828.133 246.125 827.769 245.22 827.153 244.604C826.537 243.969 825.706 243.652 824.661 243.652ZM841.01 241.552C841.439 241.552 841.887 241.617 842.354 241.748L842.298 244.324C841.794 244.137 841.243 244.044 840.646 244.044C839.358 244.044 838.387 244.436 837.734 245.22C837.099 245.985 836.782 246.956 836.782 248.132V256H833.982V245.864C833.982 244.389 833.907 243.064 833.758 241.888H836.39L836.642 244.436C837.015 243.503 837.594 242.793 838.378 242.308C839.162 241.804 840.039 241.552 841.01 241.552ZM865.33 251.072H855.25L853.122 256H850.182L859.058 236.064H861.494L870.398 256H867.458L865.33 251.072ZM864.35 248.776L860.29 239.284L856.23 248.776H864.35ZM876.068 244.072V251.156C876.068 252.127 876.273 252.817 876.684 253.228C877.113 253.62 877.701 253.816 878.448 253.816C878.933 253.816 879.428 253.741 879.932 253.592V255.888C879.316 256.093 878.616 256.196 877.832 256.196C876.376 256.196 875.247 255.785 874.444 254.964C873.641 254.143 873.24 252.948 873.24 251.38V244.072H870.496V241.888H873.24V238.36L876.068 237.38V241.888H879.96V244.072H876.068ZM886.213 244.072V251.156C886.213 252.127 886.418 252.817 886.829 253.228C887.258 253.62 887.846 253.816 888.593 253.816C889.078 253.816 889.573 253.741 890.077 253.592V255.888C889.461 256.093 888.761 256.196 887.977 256.196C886.521 256.196 885.391 255.785 884.589 254.964C883.786 254.143 883.385 252.948 883.385 251.38V244.072H880.641V241.888H883.385V238.36L886.213 237.38V241.888H890.105V244.072H886.213ZM905.625 241.888V256H902.825V253.592C902.414 254.432 901.798 255.076 900.977 255.524C900.174 255.972 899.231 256.196 898.149 256.196C896.898 256.196 895.797 255.897 894.845 255.3C893.911 254.703 893.183 253.863 892.661 252.78C892.138 251.679 891.877 250.4 891.877 248.944C891.877 247.488 892.138 246.2 892.661 245.08C893.202 243.96 893.949 243.092 894.901 242.476C895.853 241.86 896.935 241.552 898.149 241.552C899.231 241.552 900.174 241.785 900.977 242.252C901.779 242.7 902.395 243.344 902.825 244.184V241.888H905.625ZM898.821 253.956C900.09 253.956 901.07 253.517 901.761 252.64C902.47 251.744 902.825 250.493 902.825 248.888C902.825 247.264 902.47 246.013 901.761 245.136C901.07 244.259 900.081 243.82 898.793 243.82C897.523 243.82 896.525 244.277 895.797 245.192C895.087 246.088 894.733 247.339 894.733 248.944C894.733 250.531 895.087 251.763 895.797 252.64C896.525 253.517 897.533 253.956 898.821 253.956ZM915.911 256.196C914.492 256.196 913.251 255.897 912.187 255.3C911.142 254.703 910.339 253.863 909.779 252.78C909.219 251.679 908.939 250.4 908.939 248.944C908.939 247.488 909.228 246.2 909.807 245.08C910.404 243.96 911.235 243.092 912.299 242.476C913.363 241.86 914.604 241.552 916.023 241.552C917.012 241.552 917.964 241.72 918.879 242.056C919.794 242.373 920.531 242.812 921.091 243.372L920.223 245.416C918.898 244.371 917.563 243.848 916.219 243.848C914.856 243.848 913.792 244.296 913.027 245.192C912.262 246.069 911.879 247.311 911.879 248.916C911.879 250.521 912.262 251.763 913.027 252.64C913.792 253.499 914.856 253.928 916.219 253.928C917.6 253.928 918.935 253.405 920.223 252.36L921.091 254.404C920.494 254.964 919.728 255.403 918.795 255.72C917.88 256.037 916.919 256.196 915.911 256.196ZM931.256 241.552C934.634 241.552 936.324 243.437 936.324 247.208V256H933.496V247.376C933.496 246.144 933.253 245.248 932.768 244.688C932.301 244.128 931.545 243.848 930.5 243.848C929.305 243.848 928.344 244.221 927.616 244.968C926.906 245.715 926.552 246.713 926.552 247.964V256H923.752V235.392H926.552V244.072C927.018 243.251 927.662 242.625 928.484 242.196C929.305 241.767 930.229 241.552 931.256 241.552ZM952.389 249H942.309C942.403 252.304 943.905 253.956 946.817 253.956C948.441 253.956 949.925 253.424 951.269 252.36L952.137 254.376C951.503 254.936 950.691 255.384 949.701 255.72C948.731 256.037 947.751 256.196 946.761 256.196C944.503 256.196 942.729 255.552 941.441 254.264C940.153 252.957 939.509 251.175 939.509 248.916C939.509 247.479 939.789 246.2 940.349 245.08C940.928 243.96 941.731 243.092 942.757 242.476C943.784 241.86 944.951 241.552 946.257 241.552C948.161 241.552 949.655 242.168 950.737 243.4C951.839 244.632 952.389 246.34 952.389 248.524V249ZM946.313 243.652C945.249 243.652 944.381 243.969 943.709 244.604C943.037 245.239 942.608 246.144 942.421 247.32H949.897C949.785 246.125 949.421 245.22 948.805 244.604C948.189 243.969 947.359 243.652 946.313 243.652ZM968.543 235.392V256H965.743V253.592C965.332 254.432 964.716 255.076 963.895 255.524C963.092 255.972 962.149 256.196 961.067 256.196C959.853 256.196 958.771 255.888 957.819 255.272C956.867 254.656 956.12 253.797 955.579 252.696C955.056 251.576 954.795 250.288 954.795 248.832C954.795 247.376 955.056 246.097 955.579 244.996C956.101 243.895 956.829 243.045 957.763 242.448C958.715 241.851 959.816 241.552 961.067 241.552C962.131 241.552 963.064 241.776 963.867 242.224C964.688 242.672 965.304 243.307 965.715 244.128V235.392H968.543ZM961.711 253.956C962.999 253.956 963.988 253.517 964.679 252.64C965.388 251.744 965.743 250.493 965.743 248.888C965.743 247.283 965.388 246.041 964.679 245.164C963.988 244.268 963.008 243.82 961.739 243.82C960.451 243.82 959.443 244.259 958.715 245.136C958.005 246.013 957.651 247.245 957.651 248.832C957.651 250.437 958.005 251.697 958.715 252.612C959.443 253.508 960.441 253.956 961.711 253.956ZM986.938 256.224C985.389 256.224 983.97 256.019 982.682 255.608C981.413 255.197 980.311 254.581 979.378 253.76L980.414 251.632C981.385 252.416 982.393 252.985 983.438 253.34C984.483 253.695 985.659 253.872 986.966 253.872C988.459 253.872 989.617 253.592 990.438 253.032C991.259 252.472 991.67 251.679 991.67 250.652C991.67 249.793 991.287 249.149 990.522 248.72C989.757 248.272 988.543 247.861 986.882 247.488C985.295 247.152 983.998 246.769 982.99 246.34C981.982 245.892 981.189 245.304 980.61 244.576C980.031 243.829 979.742 242.877 979.742 241.72C979.742 240.563 980.05 239.545 980.666 238.668C981.282 237.772 982.15 237.081 983.27 236.596C984.409 236.092 985.715 235.84 987.19 235.84C988.59 235.84 989.897 236.055 991.11 236.484C992.342 236.913 993.369 237.52 994.19 238.304L993.154 240.432C992.239 239.667 991.297 239.107 990.326 238.752C989.355 238.379 988.319 238.192 987.218 238.192C985.781 238.192 984.651 238.5 983.83 239.116C983.009 239.713 982.598 240.535 982.598 241.58C982.598 242.476 982.953 243.157 983.662 243.624C984.39 244.091 985.547 244.511 987.134 244.884C988.795 245.257 990.139 245.649 991.166 246.06C992.193 246.471 993.014 247.031 993.63 247.74C994.246 248.449 994.554 249.364 994.554 250.484C994.554 251.641 994.246 252.649 993.63 253.508C993.014 254.367 992.127 255.039 990.97 255.524C989.831 255.991 988.487 256.224 986.938 256.224ZM1001.41 244.072V251.156C1001.41 252.127 1001.62 252.817 1002.03 253.228C1002.46 253.62 1003.05 253.816 1003.79 253.816C1004.28 253.816 1004.77 253.741 1005.28 253.592V255.888C1004.66 256.093 1003.96 256.196 1003.18 256.196C1001.72 256.196 1000.59 255.785 999.788 254.964C998.985 254.143 998.584 252.948 998.584 251.38V244.072H995.84V241.888H998.584V238.36L1001.41 237.38V241.888H1005.3V244.072H1001.41ZM1013.99 256.196C1012.61 256.196 1011.4 255.897 1010.35 255.3C1009.31 254.703 1008.49 253.853 1007.92 252.752C1007.36 251.651 1007.08 250.363 1007.08 248.888C1007.08 247.413 1007.36 246.125 1007.92 245.024C1008.49 243.904 1009.31 243.045 1010.35 242.448C1011.4 241.851 1012.61 241.552 1013.99 241.552C1015.35 241.552 1016.56 241.851 1017.6 242.448C1018.65 243.045 1019.45 243.904 1020.01 245.024C1020.59 246.125 1020.88 247.413 1020.88 248.888C1020.88 250.363 1020.59 251.651 1020.01 252.752C1019.45 253.853 1018.65 254.703 1017.6 255.3C1016.56 255.897 1015.35 256.196 1013.99 256.196ZM1013.96 253.956C1015.27 253.956 1016.27 253.527 1016.96 252.668C1017.65 251.809 1018 250.549 1018 248.888C1018 247.264 1017.64 246.013 1016.93 245.136C1016.24 244.259 1015.26 243.82 1013.99 243.82C1012.7 243.82 1011.71 244.259 1011 245.136C1010.29 246.013 1009.93 247.264 1009.93 248.888C1009.93 250.549 1010.28 251.809 1010.97 252.668C1011.68 253.527 1012.68 253.956 1013.96 253.956ZM1031.21 241.552C1031.64 241.552 1032.09 241.617 1032.56 241.748L1032.5 244.324C1032 244.137 1031.45 244.044 1030.85 244.044C1029.56 244.044 1028.59 244.436 1027.94 245.22C1027.3 245.985 1026.99 246.956 1026.99 248.132V256H1024.19V245.864C1024.19 244.389 1024.11 243.064 1023.96 241.888H1026.59L1026.85 244.436C1027.22 243.503 1027.8 242.793 1028.58 242.308C1029.37 241.804 1030.24 241.552 1031.21 241.552ZM1047.35 241.888V256H1044.55V253.592C1044.14 254.432 1043.52 255.076 1042.7 255.524C1041.9 255.972 1040.95 256.196 1039.87 256.196C1038.62 256.196 1037.52 255.897 1036.57 255.3C1035.63 254.703 1034.91 253.863 1034.38 252.78C1033.86 251.679 1033.6 250.4 1033.6 248.944C1033.6 247.488 1033.86 246.2 1034.38 245.08C1034.92 243.96 1035.67 243.092 1036.62 242.476C1037.58 241.86 1038.66 241.552 1039.87 241.552C1040.95 241.552 1041.9 241.785 1042.7 242.252C1043.5 242.7 1044.12 243.344 1044.55 244.184V241.888H1047.35ZM1040.54 253.956C1041.81 253.956 1042.79 253.517 1043.48 252.64C1044.19 251.744 1044.55 250.493 1044.55 248.888C1044.55 247.264 1044.19 246.013 1043.48 245.136C1042.79 244.259 1041.8 243.82 1040.52 243.82C1039.25 243.82 1038.25 244.277 1037.52 245.192C1036.81 246.088 1036.46 247.339 1036.46 248.944C1036.46 250.531 1036.81 251.763 1037.52 252.64C1038.25 253.517 1039.26 253.956 1040.54 253.956ZM1064.52 241.888V255.748C1064.52 257.895 1063.95 259.509 1062.81 260.592C1061.69 261.693 1060.02 262.244 1057.8 262.244C1055.66 262.244 1053.78 261.777 1052.17 260.844L1052.65 258.632C1053.53 259.099 1054.37 259.444 1055.17 259.668C1055.99 259.892 1056.86 260.004 1057.77 260.004C1060.41 260.004 1061.72 258.66 1061.72 255.972V252.92C1061.29 253.741 1060.67 254.395 1059.85 254.88C1059.02 255.347 1058.07 255.58 1056.99 255.58C1055.76 255.58 1054.66 255.291 1053.69 254.712C1052.73 254.133 1051.99 253.312 1051.45 252.248C1050.92 251.184 1050.66 249.961 1050.66 248.58C1050.66 247.199 1050.92 245.976 1051.45 244.912C1051.99 243.848 1052.73 243.027 1053.69 242.448C1054.66 241.851 1055.76 241.552 1056.99 241.552C1058.07 241.552 1059.02 241.785 1059.85 242.252C1060.67 242.7 1061.29 243.344 1061.72 244.184V241.888H1064.52ZM1057.63 253.312C1058.9 253.312 1059.9 252.892 1060.63 252.052C1061.36 251.212 1061.72 250.055 1061.72 248.58C1061.72 247.105 1061.36 245.948 1060.63 245.108C1059.92 244.249 1058.92 243.82 1057.63 243.82C1056.36 243.82 1055.36 244.249 1054.61 245.108C1053.88 245.948 1053.52 247.105 1053.52 248.58C1053.52 250.036 1053.88 251.193 1054.61 252.052C1055.36 252.892 1056.36 253.312 1057.63 253.312ZM1080.71 249H1070.63C1070.73 252.304 1072.23 253.956 1075.14 253.956C1076.77 253.956 1078.25 253.424 1079.59 252.36L1080.46 254.376C1079.83 254.936 1079.01 255.384 1078.03 255.72C1077.05 256.037 1076.07 256.196 1075.09 256.196C1072.83 256.196 1071.05 255.552 1069.77 254.264C1068.48 252.957 1067.83 251.175 1067.83 248.916C1067.83 247.479 1068.11 246.2 1068.67 245.08C1069.25 243.96 1070.05 243.092 1071.08 242.476C1072.11 241.86 1073.27 241.552 1074.58 241.552C1076.49 241.552 1077.98 242.168 1079.06 243.4C1080.16 244.632 1080.71 246.34 1080.71 248.524V249ZM1074.64 243.652C1073.57 243.652 1072.71 243.969 1072.03 244.604C1071.36 245.239 1070.93 246.144 1070.75 247.32H1078.22C1078.11 246.125 1077.75 245.22 1077.13 244.604C1076.51 243.969 1075.68 243.652 1074.64 243.652Z" fill="black"/>
<rect x="632" y="33" width="250" height="48" fill="#C4C4C4"/>
<path d="M740.197 49.064H748.485C750.576 49.064 752.2 49.5773 753.357 50.604C754.533 51.612 755.121 52.9933 755.121 54.748C755.121 56.5027 754.524 57.8933 753.329 58.92C752.153 59.928 750.538 60.432 748.485 60.432H743.081V69H740.197V49.064ZM748.149 58.136C749.53 58.136 750.566 57.8467 751.257 57.268C751.966 56.6893 752.321 55.8493 752.321 54.748C752.321 53.6653 751.966 52.8347 751.257 52.256C750.566 51.6773 749.53 51.388 748.149 51.388H743.081V58.136H748.149ZM776.239 49.064L767.447 69H765.011L756.219 49.064H759.243L766.243 65.36L773.271 49.064H776.239Z" fill="black"/>
<rect x="914" y="33" width="250" height="48" fill="#C4C4C4"/>
<path d="M1022.2 49.064H1030.48C1032.58 49.064 1034.2 49.5773 1035.36 50.604C1036.53 51.612 1037.12 52.9933 1037.12 54.748C1037.12 56.5027 1036.52 57.8933 1035.33 58.92C1034.15 59.928 1032.54 60.432 1030.48 60.432H1025.08V69H1022.2V49.064ZM1030.15 58.136C1031.53 58.136 1032.57 57.8467 1033.26 57.268C1033.97 56.6893 1034.32 55.8493 1034.32 54.748C1034.32 53.6653 1033.97 52.8347 1033.26 52.256C1032.57 51.6773 1031.53 51.388 1030.15 51.388H1025.08V58.136H1030.15ZM1058.24 49.064L1049.45 69H1047.01L1038.22 49.064H1041.24L1048.24 65.36L1055.27 49.064H1058.24Z" fill="black"/>
<rect x="914" y="135" width="250" height="48" fill="#C4C4C4"/>
<path d="M1022.2 151.064H1030.48C1032.58 151.064 1034.2 151.577 1035.36 152.604C1036.53 153.612 1037.12 154.993 1037.12 156.748C1037.12 158.503 1036.52 159.893 1035.33 160.92C1034.15 161.928 1032.54 162.432 1030.48 162.432H1025.08V171H1022.2V151.064ZM1030.15 160.136C1031.53 160.136 1032.57 159.847 1033.26 159.268C1033.97 158.689 1034.32 157.849 1034.32 156.748C1034.32 155.665 1033.97 154.835 1033.26 154.256C1032.57 153.677 1031.53 153.388 1030.15 153.388H1025.08V160.136H1030.15ZM1058.24 151.064L1049.45 171H1047.01L1038.22 151.064H1041.24L1048.24 167.36L1055.27 151.064H1058.24Z" fill="black"/>
<rect x="632" y="135" width="250" height="48" fill="#C4C4C4"/>
<path d="M740.197 151.064H748.485C750.576 151.064 752.2 151.577 753.357 152.604C754.533 153.612 755.121 154.993 755.121 156.748C755.121 158.503 754.524 159.893 753.329 160.92C752.153 161.928 750.538 162.432 748.485 162.432H743.081V171H740.197V151.064ZM748.149 160.136C749.53 160.136 750.566 159.847 751.257 159.268C751.966 158.689 752.321 157.849 752.321 156.748C752.321 155.665 751.966 154.835 751.257 154.256C750.566 153.677 749.53 153.388 748.149 153.388H743.081V160.136H748.149ZM776.239 151.064L767.447 171H765.011L756.219 151.064H759.243L766.243 167.36L773.271 151.064H776.239Z" fill="black"/>
<rect x="94.2754" y="343" width="398.069" height="48" fill="#8500AC"/>
<path d="M133.082 356.064V376H130.478V362.308L124.57 376H122.582L116.59 362.392L116.618 376H114.014V356.064H116.338L123.59 372.528L130.758 356.064H133.082ZM150.404 361.888V376H147.604V373.592C147.193 374.432 146.577 375.076 145.756 375.524C144.953 375.972 144.01 376.196 142.928 376.196C141.677 376.196 140.576 375.897 139.624 375.3C138.69 374.703 137.962 373.863 137.44 372.78C136.917 371.679 136.656 370.4 136.656 368.944C136.656 367.488 136.917 366.2 137.44 365.08C137.981 363.96 138.728 363.092 139.68 362.476C140.632 361.86 141.714 361.552 142.928 361.552C144.01 361.552 144.953 361.785 145.756 362.252C146.558 362.7 147.174 363.344 147.604 364.184V361.888H150.404ZM143.6 373.956C144.869 373.956 145.849 373.517 146.54 372.64C147.249 371.744 147.604 370.493 147.604 368.888C147.604 367.264 147.249 366.013 146.54 365.136C145.849 364.259 144.86 363.82 143.572 363.82C142.302 363.82 141.304 364.277 140.576 365.192C139.866 366.088 139.512 367.339 139.512 368.944C139.512 370.531 139.866 371.763 140.576 372.64C141.304 373.517 142.312 373.956 143.6 373.956ZM167.382 361.888L160.802 377.148C160.074 378.809 159.16 380.023 158.058 380.788C156.976 381.572 155.632 382.095 154.026 382.356L153.41 380.172C154.736 379.873 155.734 379.481 156.406 378.996C157.097 378.529 157.648 377.82 158.058 376.868L158.562 375.692L152.626 361.888H155.622L160.046 372.808L164.554 361.888H167.382ZM182.287 361.888V376H179.487V373.592C179.076 374.432 178.46 375.076 177.639 375.524C176.836 375.972 175.893 376.196 174.811 376.196C173.56 376.196 172.459 375.897 171.507 375.3C170.573 374.703 169.845 373.863 169.323 372.78C168.8 371.679 168.539 370.4 168.539 368.944C168.539 367.488 168.8 366.2 169.323 365.08C169.864 363.96 170.611 363.092 171.563 362.476C172.515 361.86 173.597 361.552 174.811 361.552C175.893 361.552 176.836 361.785 177.639 362.252C178.441 362.7 179.057 363.344 179.487 364.184V361.888H182.287ZM175.483 373.956C176.752 373.956 177.732 373.517 178.423 372.64C179.132 371.744 179.487 370.493 179.487 368.888C179.487 367.264 179.132 366.013 178.423 365.136C177.732 364.259 176.743 363.82 175.455 363.82C174.185 363.82 173.187 364.277 172.459 365.192C171.749 366.088 171.395 367.339 171.395 368.944C171.395 370.531 171.749 371.763 172.459 372.64C173.187 373.517 174.195 373.956 175.483 373.956ZM191.369 376.196C188.905 376.196 186.964 375.599 185.545 374.404L186.385 372.36C187.86 373.48 189.549 374.04 191.453 374.04C192.424 374.04 193.161 373.881 193.665 373.564C194.169 373.228 194.421 372.761 194.421 372.164C194.421 371.66 194.244 371.268 193.889 370.988C193.553 370.689 192.974 370.437 192.153 370.232L189.801 369.672C188.569 369.411 187.626 368.953 186.973 368.3C186.338 367.628 186.021 366.797 186.021 365.808C186.021 364.539 186.525 363.512 187.533 362.728C188.56 361.944 189.913 361.552 191.593 361.552C192.601 361.552 193.553 361.711 194.449 362.028C195.364 362.345 196.138 362.793 196.773 363.372L195.905 365.36C194.542 364.277 193.105 363.736 191.593 363.736C190.678 363.736 189.969 363.913 189.465 364.268C188.961 364.604 188.709 365.08 188.709 365.696C188.709 366.181 188.868 366.573 189.185 366.872C189.502 367.171 190.006 367.404 190.697 367.572L193.105 368.16C194.449 368.459 195.438 368.935 196.073 369.588C196.726 370.223 197.053 371.053 197.053 372.08C197.053 373.349 196.54 374.357 195.513 375.104C194.505 375.832 193.124 376.196 191.369 376.196ZM203.918 364.072V371.156C203.918 372.127 204.123 372.817 204.534 373.228C204.963 373.62 205.551 373.816 206.298 373.816C206.783 373.816 207.278 373.741 207.782 373.592V375.888C207.166 376.093 206.466 376.196 205.682 376.196C204.226 376.196 203.096 375.785 202.294 374.964C201.491 374.143 201.09 372.948 201.09 371.38V364.072H198.346V361.888H201.09V358.36L203.918 357.38V361.888H207.81V364.072H203.918ZM216.498 376.196C215.116 376.196 213.903 375.897 212.858 375.3C211.812 374.703 211 373.853 210.422 372.752C209.862 371.651 209.582 370.363 209.582 368.888C209.582 367.413 209.862 366.125 210.422 365.024C211 363.904 211.812 363.045 212.858 362.448C213.903 361.851 215.116 361.552 216.498 361.552C217.86 361.552 219.064 361.851 220.11 362.448C221.155 363.045 221.958 363.904 222.518 365.024C223.096 366.125 223.386 367.413 223.386 368.888C223.386 370.363 223.096 371.651 222.518 372.752C221.958 373.853 221.155 374.703 220.11 375.3C219.064 375.897 217.86 376.196 216.498 376.196ZM216.47 373.956C217.776 373.956 218.775 373.527 219.466 372.668C220.156 371.809 220.502 370.549 220.502 368.888C220.502 367.264 220.147 366.013 219.438 365.136C218.747 364.259 217.767 363.82 216.498 363.82C215.21 363.82 214.211 364.259 213.502 365.136C212.792 366.013 212.438 367.264 212.438 368.888C212.438 370.549 212.783 371.809 213.474 372.668C214.183 373.527 215.182 373.956 216.47 373.956ZM233.719 361.552C234.148 361.552 234.596 361.617 235.063 361.748L235.007 364.324C234.503 364.137 233.952 364.044 233.355 364.044C232.067 364.044 231.096 364.436 230.443 365.22C229.808 365.985 229.491 366.956 229.491 368.132V376H226.691V365.864C226.691 364.389 226.616 363.064 226.467 361.888H229.099L229.351 364.436C229.724 363.503 230.303 362.793 231.087 362.308C231.871 361.804 232.748 361.552 233.719 361.552ZM249.611 376.196C247.147 376.196 245.206 375.599 243.787 374.404L244.627 372.36C246.102 373.48 247.791 374.04 249.695 374.04C250.666 374.04 251.403 373.881 251.907 373.564C252.411 373.228 252.663 372.761 252.663 372.164C252.663 371.66 252.486 371.268 252.131 370.988C251.795 370.689 251.217 370.437 250.395 370.232L248.043 369.672C246.811 369.411 245.869 368.953 245.215 368.3C244.581 367.628 244.263 366.797 244.263 365.808C244.263 364.539 244.767 363.512 245.775 362.728C246.802 361.944 248.155 361.552 249.835 361.552C250.843 361.552 251.795 361.711 252.691 362.028C253.606 362.345 254.381 362.793 255.015 363.372L254.147 365.36C252.785 364.277 251.347 363.736 249.835 363.736C248.921 363.736 248.211 363.913 247.707 364.268C247.203 364.604 246.951 365.08 246.951 365.696C246.951 366.181 247.11 366.573 247.427 366.872C247.745 367.171 248.249 367.404 248.939 367.572L251.347 368.16C252.691 368.459 253.681 368.935 254.315 369.588C254.969 370.223 255.295 371.053 255.295 372.08C255.295 373.349 254.782 374.357 253.755 375.104C252.747 375.832 251.366 376.196 249.611 376.196ZM262.16 364.072V371.156C262.16 372.127 262.365 372.817 262.776 373.228C263.205 373.62 263.793 373.816 264.54 373.816C265.025 373.816 265.52 373.741 266.024 373.592V375.888C265.408 376.093 264.708 376.196 263.924 376.196C262.468 376.196 261.339 375.785 260.536 374.964C259.733 374.143 259.332 372.948 259.332 371.38V364.072H256.588V361.888H259.332V358.36L262.16 357.38V361.888H266.052V364.072H262.16ZM274.74 376.196C273.358 376.196 272.145 375.897 271.1 375.3C270.054 374.703 269.242 373.853 268.664 372.752C268.104 371.651 267.824 370.363 267.824 368.888C267.824 367.413 268.104 366.125 268.664 365.024C269.242 363.904 270.054 363.045 271.1 362.448C272.145 361.851 273.358 361.552 274.74 361.552C276.102 361.552 277.306 361.851 278.352 362.448C279.397 363.045 280.2 363.904 280.76 365.024C281.338 366.125 281.628 367.413 281.628 368.888C281.628 370.363 281.338 371.651 280.76 372.752C280.2 373.853 279.397 374.703 278.352 375.3C277.306 375.897 276.102 376.196 274.74 376.196ZM274.712 373.956C276.018 373.956 277.017 373.527 277.708 372.668C278.398 371.809 278.744 370.549 278.744 368.888C278.744 367.264 278.389 366.013 277.68 365.136C276.989 364.259 276.009 363.82 274.74 363.82C273.452 363.82 272.453 364.259 271.744 365.136C271.034 366.013 270.68 367.264 270.68 368.888C270.68 370.549 271.025 371.809 271.716 372.668C272.425 373.527 273.424 373.956 274.712 373.956ZM291.961 361.552C292.391 361.552 292.839 361.617 293.305 361.748L293.249 364.324C292.745 364.137 292.195 364.044 291.597 364.044C290.309 364.044 289.339 364.436 288.685 365.22C288.051 365.985 287.733 366.956 287.733 368.132V376H284.933V365.864C284.933 364.389 284.859 363.064 284.709 361.888H287.341L287.593 364.436C287.967 363.503 288.545 362.793 289.329 362.308C290.113 361.804 290.991 361.552 291.961 361.552ZM308.095 361.888V376H305.295V373.592C304.885 374.432 304.269 375.076 303.447 375.524C302.645 375.972 301.702 376.196 300.619 376.196C299.369 376.196 298.267 375.897 297.315 375.3C296.382 374.703 295.654 373.863 295.131 372.78C294.609 371.679 294.347 370.4 294.347 368.944C294.347 367.488 294.609 366.2 295.131 365.08C295.673 363.96 296.419 363.092 297.371 362.476C298.323 361.86 299.406 361.552 300.619 361.552C301.702 361.552 302.645 361.785 303.447 362.252C304.25 362.7 304.866 363.344 305.295 364.184V361.888H308.095ZM301.291 373.956C302.561 373.956 303.541 373.517 304.231 372.64C304.941 371.744 305.295 370.493 305.295 368.888C305.295 367.264 304.941 366.013 304.231 365.136C303.541 364.259 302.551 363.82 301.263 363.82C299.994 363.82 298.995 364.277 298.267 365.192C297.558 366.088 297.203 367.339 297.203 368.944C297.203 370.531 297.558 371.763 298.267 372.64C298.995 373.517 300.003 373.956 301.291 373.956ZM325.27 361.888V375.748C325.27 377.895 324.7 379.509 323.562 380.592C322.442 381.693 320.771 382.244 318.55 382.244C316.403 382.244 314.527 381.777 312.922 380.844L313.398 378.632C314.275 379.099 315.115 379.444 315.918 379.668C316.739 379.892 317.607 380.004 318.522 380.004C321.154 380.004 322.47 378.66 322.47 375.972V372.92C322.04 373.741 321.415 374.395 320.594 374.88C319.772 375.347 318.82 375.58 317.738 375.58C316.506 375.58 315.404 375.291 314.434 374.712C313.482 374.133 312.735 373.312 312.194 372.248C311.671 371.184 311.41 369.961 311.41 368.58C311.41 367.199 311.671 365.976 312.194 364.912C312.735 363.848 313.482 363.027 314.434 362.448C315.404 361.851 316.506 361.552 317.738 361.552C318.82 361.552 319.772 361.785 320.594 362.252C321.415 362.7 322.04 363.344 322.47 364.184V361.888H325.27ZM318.382 373.312C319.651 373.312 320.65 372.892 321.378 372.052C322.106 371.212 322.47 370.055 322.47 368.58C322.47 367.105 322.106 365.948 321.378 365.108C320.668 364.249 319.67 363.82 318.382 363.82C317.112 363.82 316.104 364.249 315.358 365.108C314.63 365.948 314.266 367.105 314.266 368.58C314.266 370.036 314.63 371.193 315.358 372.052C316.104 372.892 317.112 373.312 318.382 373.312ZM341.462 369H331.382C331.475 372.304 332.978 373.956 335.89 373.956C337.514 373.956 338.998 373.424 340.342 372.36L341.21 374.376C340.575 374.936 339.763 375.384 338.774 375.72C337.803 376.037 336.823 376.196 335.834 376.196C333.575 376.196 331.802 375.552 330.514 374.264C329.226 372.957 328.582 371.175 328.582 368.916C328.582 367.479 328.862 366.2 329.422 365.08C330 363.96 330.803 363.092 331.83 362.476C332.856 361.86 334.023 361.552 335.33 361.552C337.234 361.552 338.727 362.168 339.81 363.4C340.911 364.632 341.462 366.34 341.462 368.524V369ZM335.386 363.652C334.322 363.652 333.454 363.969 332.782 364.604C332.11 365.239 331.68 366.144 331.494 367.32H338.97C338.858 366.125 338.494 365.22 337.878 364.604C337.262 363.969 336.431 363.652 335.386 363.652ZM358.304 376.196C356.885 376.196 355.644 375.897 354.58 375.3C353.534 374.703 352.732 373.863 352.172 372.78C351.612 371.679 351.332 370.4 351.332 368.944C351.332 367.488 351.621 366.2 352.2 365.08C352.797 363.96 353.628 363.092 354.692 362.476C355.756 361.86 356.997 361.552 358.416 361.552C359.405 361.552 360.357 361.72 361.272 362.056C362.186 362.373 362.924 362.812 363.484 363.372L362.616 365.416C361.29 364.371 359.956 363.848 358.612 363.848C357.249 363.848 356.185 364.296 355.42 365.192C354.654 366.069 354.272 367.311 354.272 368.916C354.272 370.521 354.654 371.763 355.42 372.64C356.185 373.499 357.249 373.928 358.612 373.928C359.993 373.928 361.328 373.405 362.616 372.36L363.484 374.404C362.886 374.964 362.121 375.403 361.188 375.72C360.273 376.037 359.312 376.196 358.304 376.196ZM372.22 376.196C370.839 376.196 369.626 375.897 368.58 375.3C367.535 374.703 366.723 373.853 366.144 372.752C365.584 371.651 365.304 370.363 365.304 368.888C365.304 367.413 365.584 366.125 366.144 365.024C366.723 363.904 367.535 363.045 368.58 362.448C369.626 361.851 370.839 361.552 372.22 361.552C373.583 361.552 374.787 361.851 375.832 362.448C376.878 363.045 377.68 363.904 378.24 365.024C378.819 366.125 379.108 367.413 379.108 368.888C379.108 370.363 378.819 371.651 378.24 372.752C377.68 373.853 376.878 374.703 375.832 375.3C374.787 375.897 373.583 376.196 372.22 376.196ZM372.192 373.956C373.499 373.956 374.498 373.527 375.188 372.668C375.879 371.809 376.224 370.549 376.224 368.888C376.224 367.264 375.87 366.013 375.16 365.136C374.47 364.259 373.49 363.82 372.22 363.82C370.932 363.82 369.934 364.259 369.224 365.136C368.515 366.013 368.16 367.264 368.16 368.888C368.16 370.549 368.506 371.809 369.196 372.668C369.906 373.527 370.904 373.956 372.192 373.956ZM389.918 361.552C393.296 361.552 394.986 363.437 394.986 367.208V376H392.158V367.376C392.158 366.144 391.915 365.248 391.43 364.688C390.963 364.128 390.207 363.848 389.162 363.848C387.967 363.848 387.006 364.221 386.278 364.968C385.568 365.715 385.214 366.713 385.214 367.964V376H382.414V365.864C382.414 364.389 382.339 363.064 382.19 361.888H384.822L385.074 364.324C385.522 363.428 386.166 362.747 387.006 362.28C387.864 361.795 388.835 361.552 389.918 361.552ZM402.679 364.072V371.156C402.679 372.127 402.885 372.817 403.295 373.228C403.725 373.62 404.313 373.816 405.059 373.816C405.545 373.816 406.039 373.741 406.543 373.592V375.888C405.927 376.093 405.227 376.196 404.443 376.196C402.987 376.196 401.858 375.785 401.055 374.964C400.253 374.143 399.851 372.948 399.851 371.38V364.072H397.107V361.888H399.851V358.36L402.679 357.38V361.888H406.571V364.072H402.679ZM416.211 361.552C416.641 361.552 417.089 361.617 417.555 361.748L417.499 364.324C416.995 364.137 416.445 364.044 415.847 364.044C414.559 364.044 413.589 364.436 412.935 365.22C412.301 365.985 411.983 366.956 411.983 368.132V376H409.183V365.864C409.183 364.389 409.109 363.064 408.959 361.888H411.591L411.843 364.436C412.217 363.503 412.795 362.793 413.579 362.308C414.363 361.804 415.241 361.552 416.211 361.552ZM425.513 376.196C424.132 376.196 422.919 375.897 421.873 375.3C420.828 374.703 420.016 373.853 419.437 372.752C418.877 371.651 418.597 370.363 418.597 368.888C418.597 367.413 418.877 366.125 419.437 365.024C420.016 363.904 420.828 363.045 421.873 362.448C422.919 361.851 424.132 361.552 425.513 361.552C426.876 361.552 428.08 361.851 429.125 362.448C430.171 363.045 430.973 363.904 431.533 365.024C432.112 366.125 432.401 367.413 432.401 368.888C432.401 370.363 432.112 371.651 431.533 372.752C430.973 373.853 430.171 374.703 429.125 375.3C428.08 375.897 426.876 376.196 425.513 376.196ZM425.485 373.956C426.792 373.956 427.791 373.527 428.481 372.668C429.172 371.809 429.517 370.549 429.517 368.888C429.517 367.264 429.163 366.013 428.453 365.136C427.763 364.259 426.783 363.82 425.513 363.82C424.225 363.82 423.227 364.259 422.517 365.136C421.808 366.013 421.453 367.264 421.453 368.888C421.453 370.549 421.799 371.809 422.489 372.668C423.199 373.527 424.197 373.956 425.485 373.956ZM435.707 355.392H438.507V376H435.707V355.392ZM442.652 355.392H445.452V376H442.652V355.392ZM461.637 369H451.557C451.651 372.304 453.153 373.956 456.065 373.956C457.689 373.956 459.173 373.424 460.517 372.36L461.385 374.376C460.751 374.936 459.939 375.384 458.949 375.72C457.979 376.037 456.999 376.196 456.009 376.196C453.751 376.196 451.977 375.552 450.689 374.264C449.401 372.957 448.757 371.175 448.757 368.916C448.757 367.479 449.037 366.2 449.597 365.08C450.176 363.96 450.979 363.092 452.005 362.476C453.032 361.86 454.199 361.552 455.505 361.552C457.409 361.552 458.903 362.168 459.985 363.4C461.087 364.632 461.637 366.34 461.637 368.524V369ZM455.561 363.652C454.497 363.652 453.629 363.969 452.957 364.604C452.285 365.239 451.856 366.144 451.669 367.32H459.145C459.033 366.125 458.669 365.22 458.053 364.604C457.437 363.969 456.607 363.652 455.561 363.652ZM471.911 361.552C472.34 361.552 472.788 361.617 473.255 361.748L473.199 364.324C472.695 364.137 472.144 364.044 471.547 364.044C470.259 364.044 469.288 364.436 468.635 365.22C468 365.985 467.683 366.956 467.683 368.132V376H464.883V365.864C464.883 364.389 464.808 363.064 464.659 361.888H467.291L467.543 364.436C467.916 363.503 468.495 362.793 469.279 362.308C470.063 361.804 470.94 361.552 471.911 361.552Z" fill="white"/>
<rect x="699.275" y="343" width="398.069" height="48" fill="#8500AC"/>
<path d="M738.082 356.064V376H735.478V362.308L729.57 376H727.582L721.59 362.392L721.618 376H719.014V356.064H721.338L728.59 372.528L735.758 356.064H738.082ZM755.404 361.888V376H752.604V373.592C752.193 374.432 751.577 375.076 750.756 375.524C749.953 375.972 749.01 376.196 747.928 376.196C746.677 376.196 745.576 375.897 744.624 375.3C743.69 374.703 742.962 373.863 742.44 372.78C741.917 371.679 741.656 370.4 741.656 368.944C741.656 367.488 741.917 366.2 742.44 365.08C742.981 363.96 743.728 363.092 744.68 362.476C745.632 361.86 746.714 361.552 747.928 361.552C749.01 361.552 749.953 361.785 750.756 362.252C751.558 362.7 752.174 363.344 752.604 364.184V361.888H755.404ZM748.6 373.956C749.869 373.956 750.849 373.517 751.54 372.64C752.249 371.744 752.604 370.493 752.604 368.888C752.604 367.264 752.249 366.013 751.54 365.136C750.849 364.259 749.86 363.82 748.572 363.82C747.302 363.82 746.304 364.277 745.576 365.192C744.866 366.088 744.512 367.339 744.512 368.944C744.512 370.531 744.866 371.763 745.576 372.64C746.304 373.517 747.312 373.956 748.6 373.956ZM772.382 361.888L765.802 377.148C765.074 378.809 764.16 380.023 763.058 380.788C761.976 381.572 760.632 382.095 759.026 382.356L758.41 380.172C759.736 379.873 760.734 379.481 761.406 378.996C762.097 378.529 762.648 377.82 763.058 376.868L763.562 375.692L757.626 361.888H760.622L765.046 372.808L769.554 361.888H772.382ZM787.287 361.888V376H784.487V373.592C784.076 374.432 783.46 375.076 782.639 375.524C781.836 375.972 780.893 376.196 779.811 376.196C778.56 376.196 777.459 375.897 776.507 375.3C775.573 374.703 774.845 373.863 774.323 372.78C773.8 371.679 773.539 370.4 773.539 368.944C773.539 367.488 773.8 366.2 774.323 365.08C774.864 363.96 775.611 363.092 776.563 362.476C777.515 361.86 778.597 361.552 779.811 361.552C780.893 361.552 781.836 361.785 782.639 362.252C783.441 362.7 784.057 363.344 784.487 364.184V361.888H787.287ZM780.483 373.956C781.752 373.956 782.732 373.517 783.423 372.64C784.132 371.744 784.487 370.493 784.487 368.888C784.487 367.264 784.132 366.013 783.423 365.136C782.732 364.259 781.743 363.82 780.455 363.82C779.185 363.82 778.187 364.277 777.459 365.192C776.749 366.088 776.395 367.339 776.395 368.944C776.395 370.531 776.749 371.763 777.459 372.64C778.187 373.517 779.195 373.956 780.483 373.956ZM796.369 376.196C793.905 376.196 791.964 375.599 790.545 374.404L791.385 372.36C792.86 373.48 794.549 374.04 796.453 374.04C797.424 374.04 798.161 373.881 798.665 373.564C799.169 373.228 799.421 372.761 799.421 372.164C799.421 371.66 799.244 371.268 798.889 370.988C798.553 370.689 797.974 370.437 797.153 370.232L794.801 369.672C793.569 369.411 792.626 368.953 791.973 368.3C791.338 367.628 791.021 366.797 791.021 365.808C791.021 364.539 791.525 363.512 792.533 362.728C793.56 361.944 794.913 361.552 796.593 361.552C797.601 361.552 798.553 361.711 799.449 362.028C800.364 362.345 801.138 362.793 801.773 363.372L800.905 365.36C799.542 364.277 798.105 363.736 796.593 363.736C795.678 363.736 794.969 363.913 794.465 364.268C793.961 364.604 793.709 365.08 793.709 365.696C793.709 366.181 793.868 366.573 794.185 366.872C794.502 367.171 795.006 367.404 795.697 367.572L798.105 368.16C799.449 368.459 800.438 368.935 801.073 369.588C801.726 370.223 802.053 371.053 802.053 372.08C802.053 373.349 801.54 374.357 800.513 375.104C799.505 375.832 798.124 376.196 796.369 376.196ZM808.918 364.072V371.156C808.918 372.127 809.123 372.817 809.534 373.228C809.963 373.62 810.551 373.816 811.298 373.816C811.783 373.816 812.278 373.741 812.782 373.592V375.888C812.166 376.093 811.466 376.196 810.682 376.196C809.226 376.196 808.096 375.785 807.294 374.964C806.491 374.143 806.09 372.948 806.09 371.38V364.072H803.346V361.888H806.09V358.36L808.918 357.38V361.888H812.81V364.072H808.918ZM821.498 376.196C820.116 376.196 818.903 375.897 817.858 375.3C816.812 374.703 816 373.853 815.422 372.752C814.862 371.651 814.582 370.363 814.582 368.888C814.582 367.413 814.862 366.125 815.422 365.024C816 363.904 816.812 363.045 817.858 362.448C818.903 361.851 820.116 361.552 821.498 361.552C822.86 361.552 824.064 361.851 825.11 362.448C826.155 363.045 826.958 363.904 827.518 365.024C828.096 366.125 828.386 367.413 828.386 368.888C828.386 370.363 828.096 371.651 827.518 372.752C826.958 373.853 826.155 374.703 825.11 375.3C824.064 375.897 822.86 376.196 821.498 376.196ZM821.47 373.956C822.776 373.956 823.775 373.527 824.466 372.668C825.156 371.809 825.502 370.549 825.502 368.888C825.502 367.264 825.147 366.013 824.438 365.136C823.747 364.259 822.767 363.82 821.498 363.82C820.21 363.82 819.211 364.259 818.502 365.136C817.792 366.013 817.438 367.264 817.438 368.888C817.438 370.549 817.783 371.809 818.474 372.668C819.183 373.527 820.182 373.956 821.47 373.956ZM838.719 361.552C839.148 361.552 839.596 361.617 840.063 361.748L840.007 364.324C839.503 364.137 838.952 364.044 838.355 364.044C837.067 364.044 836.096 364.436 835.443 365.22C834.808 365.985 834.491 366.956 834.491 368.132V376H831.691V365.864C831.691 364.389 831.616 363.064 831.467 361.888H834.099L834.351 364.436C834.724 363.503 835.303 362.793 836.087 362.308C836.871 361.804 837.748 361.552 838.719 361.552ZM854.611 376.196C852.147 376.196 850.206 375.599 848.787 374.404L849.627 372.36C851.102 373.48 852.791 374.04 854.695 374.04C855.666 374.04 856.403 373.881 856.907 373.564C857.411 373.228 857.663 372.761 857.663 372.164C857.663 371.66 857.486 371.268 857.131 370.988C856.795 370.689 856.217 370.437 855.395 370.232L853.043 369.672C851.811 369.411 850.869 368.953 850.215 368.3C849.581 367.628 849.263 366.797 849.263 365.808C849.263 364.539 849.767 363.512 850.775 362.728C851.802 361.944 853.155 361.552 854.835 361.552C855.843 361.552 856.795 361.711 857.691 362.028C858.606 362.345 859.381 362.793 860.015 363.372L859.147 365.36C857.785 364.277 856.347 363.736 854.835 363.736C853.921 363.736 853.211 363.913 852.707 364.268C852.203 364.604 851.951 365.08 851.951 365.696C851.951 366.181 852.11 366.573 852.427 366.872C852.745 367.171 853.249 367.404 853.939 367.572L856.347 368.16C857.691 368.459 858.681 368.935 859.315 369.588C859.969 370.223 860.295 371.053 860.295 372.08C860.295 373.349 859.782 374.357 858.755 375.104C857.747 375.832 856.366 376.196 854.611 376.196ZM867.16 364.072V371.156C867.16 372.127 867.365 372.817 867.776 373.228C868.205 373.62 868.793 373.816 869.54 373.816C870.025 373.816 870.52 373.741 871.024 373.592V375.888C870.408 376.093 869.708 376.196 868.924 376.196C867.468 376.196 866.339 375.785 865.536 374.964C864.733 374.143 864.332 372.948 864.332 371.38V364.072H861.588V361.888H864.332V358.36L867.16 357.38V361.888H871.052V364.072H867.16ZM879.74 376.196C878.358 376.196 877.145 375.897 876.1 375.3C875.054 374.703 874.242 373.853 873.664 372.752C873.104 371.651 872.824 370.363 872.824 368.888C872.824 367.413 873.104 366.125 873.664 365.024C874.242 363.904 875.054 363.045 876.1 362.448C877.145 361.851 878.358 361.552 879.74 361.552C881.102 361.552 882.306 361.851 883.352 362.448C884.397 363.045 885.2 363.904 885.76 365.024C886.338 366.125 886.628 367.413 886.628 368.888C886.628 370.363 886.338 371.651 885.76 372.752C885.2 373.853 884.397 374.703 883.352 375.3C882.306 375.897 881.102 376.196 879.74 376.196ZM879.712 373.956C881.018 373.956 882.017 373.527 882.708 372.668C883.398 371.809 883.744 370.549 883.744 368.888C883.744 367.264 883.389 366.013 882.68 365.136C881.989 364.259 881.009 363.82 879.74 363.82C878.452 363.82 877.453 364.259 876.744 365.136C876.034 366.013 875.68 367.264 875.68 368.888C875.68 370.549 876.025 371.809 876.716 372.668C877.425 373.527 878.424 373.956 879.712 373.956ZM896.961 361.552C897.391 361.552 897.839 361.617 898.305 361.748L898.249 364.324C897.745 364.137 897.195 364.044 896.597 364.044C895.309 364.044 894.339 364.436 893.685 365.22C893.051 365.985 892.733 366.956 892.733 368.132V376H889.933V365.864C889.933 364.389 889.859 363.064 889.709 361.888H892.341L892.593 364.436C892.967 363.503 893.545 362.793 894.329 362.308C895.113 361.804 895.991 361.552 896.961 361.552ZM913.095 361.888V376H910.295V373.592C909.885 374.432 909.269 375.076 908.447 375.524C907.645 375.972 906.702 376.196 905.619 376.196C904.369 376.196 903.267 375.897 902.315 375.3C901.382 374.703 900.654 373.863 900.131 372.78C899.609 371.679 899.347 370.4 899.347 368.944C899.347 367.488 899.609 366.2 900.131 365.08C900.673 363.96 901.419 363.092 902.371 362.476C903.323 361.86 904.406 361.552 905.619 361.552C906.702 361.552 907.645 361.785 908.447 362.252C909.25 362.7 909.866 363.344 910.295 364.184V361.888H913.095ZM906.291 373.956C907.561 373.956 908.541 373.517 909.231 372.64C909.941 371.744 910.295 370.493 910.295 368.888C910.295 367.264 909.941 366.013 909.231 365.136C908.541 364.259 907.551 363.82 906.263 363.82C904.994 363.82 903.995 364.277 903.267 365.192C902.558 366.088 902.203 367.339 902.203 368.944C902.203 370.531 902.558 371.763 903.267 372.64C903.995 373.517 905.003 373.956 906.291 373.956ZM930.27 361.888V375.748C930.27 377.895 929.7 379.509 928.562 380.592C927.442 381.693 925.771 382.244 923.55 382.244C921.403 382.244 919.527 381.777 917.922 380.844L918.398 378.632C919.275 379.099 920.115 379.444 920.918 379.668C921.739 379.892 922.607 380.004 923.522 380.004C926.154 380.004 927.47 378.66 927.47 375.972V372.92C927.04 373.741 926.415 374.395 925.594 374.88C924.772 375.347 923.82 375.58 922.738 375.58C921.506 375.58 920.404 375.291 919.434 374.712C918.482 374.133 917.735 373.312 917.194 372.248C916.671 371.184 916.41 369.961 916.41 368.58C916.41 367.199 916.671 365.976 917.194 364.912C917.735 363.848 918.482 363.027 919.434 362.448C920.404 361.851 921.506 361.552 922.738 361.552C923.82 361.552 924.772 361.785 925.594 362.252C926.415 362.7 927.04 363.344 927.47 364.184V361.888H930.27ZM923.382 373.312C924.651 373.312 925.65 372.892 926.378 372.052C927.106 371.212 927.47 370.055 927.47 368.58C927.47 367.105 927.106 365.948 926.378 365.108C925.668 364.249 924.67 363.82 923.382 363.82C922.112 363.82 921.104 364.249 920.358 365.108C919.63 365.948 919.266 367.105 919.266 368.58C919.266 370.036 919.63 371.193 920.358 372.052C921.104 372.892 922.112 373.312 923.382 373.312ZM946.462 369H936.382C936.475 372.304 937.978 373.956 940.89 373.956C942.514 373.956 943.998 373.424 945.342 372.36L946.21 374.376C945.575 374.936 944.763 375.384 943.774 375.72C942.803 376.037 941.823 376.196 940.834 376.196C938.575 376.196 936.802 375.552 935.514 374.264C934.226 372.957 933.582 371.175 933.582 368.916C933.582 367.479 933.862 366.2 934.422 365.08C935 363.96 935.803 363.092 936.83 362.476C937.856 361.86 939.023 361.552 940.33 361.552C942.234 361.552 943.727 362.168 944.81 363.4C945.911 364.632 946.462 366.34 946.462 368.524V369ZM940.386 363.652C939.322 363.652 938.454 363.969 937.782 364.604C937.11 365.239 936.68 366.144 936.494 367.32H943.97C943.858 366.125 943.494 365.22 942.878 364.604C942.262 363.969 941.431 363.652 940.386 363.652ZM963.304 376.196C961.885 376.196 960.644 375.897 959.58 375.3C958.534 374.703 957.732 373.863 957.172 372.78C956.612 371.679 956.332 370.4 956.332 368.944C956.332 367.488 956.621 366.2 957.2 365.08C957.797 363.96 958.628 363.092 959.692 362.476C960.756 361.86 961.997 361.552 963.416 361.552C964.405 361.552 965.357 361.72 966.272 362.056C967.186 362.373 967.924 362.812 968.484 363.372L967.616 365.416C966.29 364.371 964.956 363.848 963.612 363.848C962.249 363.848 961.185 364.296 960.42 365.192C959.654 366.069 959.272 367.311 959.272 368.916C959.272 370.521 959.654 371.763 960.42 372.64C961.185 373.499 962.249 373.928 963.612 373.928C964.993 373.928 966.328 373.405 967.616 372.36L968.484 374.404C967.886 374.964 967.121 375.403 966.188 375.72C965.273 376.037 964.312 376.196 963.304 376.196ZM977.22 376.196C975.839 376.196 974.626 375.897 973.58 375.3C972.535 374.703 971.723 373.853 971.144 372.752C970.584 371.651 970.304 370.363 970.304 368.888C970.304 367.413 970.584 366.125 971.144 365.024C971.723 363.904 972.535 363.045 973.58 362.448C974.626 361.851 975.839 361.552 977.22 361.552C978.583 361.552 979.787 361.851 980.832 362.448C981.878 363.045 982.68 363.904 983.24 365.024C983.819 366.125 984.108 367.413 984.108 368.888C984.108 370.363 983.819 371.651 983.24 372.752C982.68 373.853 981.878 374.703 980.832 375.3C979.787 375.897 978.583 376.196 977.22 376.196ZM977.192 373.956C978.499 373.956 979.498 373.527 980.188 372.668C980.879 371.809 981.224 370.549 981.224 368.888C981.224 367.264 980.87 366.013 980.16 365.136C979.47 364.259 978.49 363.82 977.22 363.82C975.932 363.82 974.934 364.259 974.224 365.136C973.515 366.013 973.16 367.264 973.16 368.888C973.16 370.549 973.506 371.809 974.196 372.668C974.906 373.527 975.904 373.956 977.192 373.956ZM994.918 361.552C998.296 361.552 999.986 363.437 999.986 367.208V376H997.158V367.376C997.158 366.144 996.915 365.248 996.43 364.688C995.963 364.128 995.207 363.848 994.162 363.848C992.967 363.848 992.006 364.221 991.278 364.968C990.568 365.715 990.214 366.713 990.214 367.964V376H987.414V365.864C987.414 364.389 987.339 363.064 987.19 361.888H989.822L990.074 364.324C990.522 363.428 991.166 362.747 992.006 362.28C992.864 361.795 993.835 361.552 994.918 361.552ZM1007.68 364.072V371.156C1007.68 372.127 1007.88 372.817 1008.3 373.228C1008.72 373.62 1009.31 373.816 1010.06 373.816C1010.54 373.816 1011.04 373.741 1011.54 373.592V375.888C1010.93 376.093 1010.23 376.196 1009.44 376.196C1007.99 376.196 1006.86 375.785 1006.06 374.964C1005.25 374.143 1004.85 372.948 1004.85 371.38V364.072H1002.11V361.888H1004.85V358.36L1007.68 357.38V361.888H1011.57V364.072H1007.68ZM1021.21 361.552C1021.64 361.552 1022.09 361.617 1022.56 361.748L1022.5 364.324C1022 364.137 1021.44 364.044 1020.85 364.044C1019.56 364.044 1018.59 364.436 1017.94 365.22C1017.3 365.985 1016.98 366.956 1016.98 368.132V376H1014.18V365.864C1014.18 364.389 1014.11 363.064 1013.96 361.888H1016.59L1016.84 364.436C1017.22 363.503 1017.8 362.793 1018.58 362.308C1019.36 361.804 1020.24 361.552 1021.21 361.552ZM1030.51 376.196C1029.13 376.196 1027.92 375.897 1026.87 375.3C1025.83 374.703 1025.02 373.853 1024.44 372.752C1023.88 371.651 1023.6 370.363 1023.6 368.888C1023.6 367.413 1023.88 366.125 1024.44 365.024C1025.02 363.904 1025.83 363.045 1026.87 362.448C1027.92 361.851 1029.13 361.552 1030.51 361.552C1031.88 361.552 1033.08 361.851 1034.13 362.448C1035.17 363.045 1035.97 363.904 1036.53 365.024C1037.11 366.125 1037.4 367.413 1037.4 368.888C1037.4 370.363 1037.11 371.651 1036.53 372.752C1035.97 373.853 1035.17 374.703 1034.13 375.3C1033.08 375.897 1031.88 376.196 1030.51 376.196ZM1030.49 373.956C1031.79 373.956 1032.79 373.527 1033.48 372.668C1034.17 371.809 1034.52 370.549 1034.52 368.888C1034.52 367.264 1034.16 366.013 1033.45 365.136C1032.76 364.259 1031.78 363.82 1030.51 363.82C1029.23 363.82 1028.23 364.259 1027.52 365.136C1026.81 366.013 1026.45 367.264 1026.45 368.888C1026.45 370.549 1026.8 371.809 1027.49 372.668C1028.2 373.527 1029.2 373.956 1030.49 373.956ZM1040.71 355.392H1043.51V376H1040.71V355.392ZM1047.65 355.392H1050.45V376H1047.65V355.392ZM1066.64 369H1056.56C1056.65 372.304 1058.15 373.956 1061.07 373.956C1062.69 373.956 1064.17 373.424 1065.52 372.36L1066.39 374.376C1065.75 374.936 1064.94 375.384 1063.95 375.72C1062.98 376.037 1062 376.196 1061.01 376.196C1058.75 376.196 1056.98 375.552 1055.69 374.264C1054.4 372.957 1053.76 371.175 1053.76 368.916C1053.76 367.479 1054.04 366.2 1054.6 365.08C1055.18 363.96 1055.98 363.092 1057.01 362.476C1058.03 361.86 1059.2 361.552 1060.51 361.552C1062.41 361.552 1063.9 362.168 1064.99 363.4C1066.09 364.632 1066.64 366.34 1066.64 368.524V369ZM1060.56 363.652C1059.5 363.652 1058.63 363.969 1057.96 364.604C1057.29 365.239 1056.86 366.144 1056.67 367.32H1064.15C1064.03 366.125 1063.67 365.22 1063.05 364.604C1062.44 363.969 1061.61 363.652 1060.56 363.652ZM1076.91 361.552C1077.34 361.552 1077.79 361.617 1078.25 361.748L1078.2 364.324C1077.69 364.137 1077.14 364.044 1076.55 364.044C1075.26 364.044 1074.29 364.436 1073.63 365.22C1073 365.985 1072.68 366.956 1072.68 368.132V376H1069.88V365.864C1069.88 364.389 1069.81 363.064 1069.66 361.888H1072.29L1072.54 364.436C1072.92 363.503 1073.49 362.793 1074.28 362.308C1075.06 361.804 1075.94 361.552 1076.91 361.552Z" fill="white"/>
<path d="M279.707 412.293C279.317 411.902 278.683 411.902 278.293 412.293L271.929 418.657C271.538 419.047 271.538 419.681 271.929 420.071C272.319 420.462 272.953 420.462 273.343 420.071L279 414.414L284.657 420.071C285.047 420.462 285.681 420.462 286.071 420.071C286.462 419.681 286.462 419.047 286.071 418.657L279.707 412.293ZM280 463L280 413L278 413L278 463L280 463Z" fill="black"/>
<path d="M916.707 418.293C916.317 417.902 915.683 417.902 915.293 418.293L908.929 424.657C908.538 425.047 908.538 425.681 908.929 426.071C909.319 426.462 909.953 426.462 910.343 426.071L916 420.414L921.657 426.071C922.047 426.462 922.681 426.462 923.071 426.071C923.462 425.681 923.462 425.047 923.071 424.657L916.707 418.293ZM917 469L917 419L915 419L915 469L917 469Z" fill="black"/>
<path d="M916.707 280.293C916.317 279.902 915.683 279.902 915.293 280.293L908.929 286.657C908.538 287.047 908.538 287.681 908.929 288.071C909.319 288.462 909.953 288.462 910.343 288.071L916 282.414L921.657 288.071C922.047 288.462 922.681 288.462 923.071 288.071C923.462 287.681 923.462 287.047 923.071 286.657L916.707 280.293ZM917 331L917 281L915 281L915 331L917 331Z" fill="black"/>
<path d="M279.707 280.293C279.317 279.902 278.683 279.902 278.293 280.293L271.929 286.657C271.538 287.047 271.538 287.681 271.929 288.071C272.319 288.462 272.953 288.462 273.343 288.071L279 282.414L284.657 288.071C285.047 288.462 285.681 288.462 286.071 288.071C286.462 287.681 286.462 287.047 286.071 286.657L279.707 280.293ZM280 331L280 281L278 281L278 331L280 331Z" fill="black"/>
</svg>
