<svg width="1193" height="748" viewBox="0 0 1193 748" fill="none" xmlns="http://www.w3.org/2000/svg">
<rect x="3" y="682" width="1190" height="66" fill="#C4C4C4"/>
<path d="M535.895 721.072H525.815L523.687 726H520.747L529.623 706.064H532.059L540.963 726H538.023L535.895 721.072ZM534.915 718.776L530.855 709.284L526.795 718.776H534.915ZM559.533 726H556.481L553.989 719.364C553.727 718.655 553.345 718.169 552.841 717.908C552.337 717.628 551.646 717.488 550.769 717.488H546.401V726H543.545V706.064H551.749C553.933 706.064 555.603 706.549 556.761 707.52C557.937 708.491 558.525 709.881 558.525 711.692C558.525 712.999 558.179 714.109 557.489 715.024C556.798 715.939 555.818 716.583 554.549 716.956C555.706 717.161 556.546 717.983 557.069 719.42L559.533 726ZM551.413 715.164C552.869 715.164 553.951 714.884 554.661 714.324C555.37 713.745 555.725 712.887 555.725 711.748C555.725 710.609 555.37 709.769 554.661 709.228C553.97 708.668 552.887 708.388 551.413 708.388H546.401V715.164H551.413ZM582.164 706.064V726H579.56V712.308L573.652 726H571.664L565.672 712.392L565.7 726H563.096V706.064H565.42L572.672 722.528L579.84 706.064H582.164ZM610.647 706.064V726H608.435L597.011 710.936V726H594.295V706.064H596.479L607.931 721.156V706.064H610.647ZM621.119 726.196C619.737 726.196 618.524 725.897 617.479 725.3C616.433 724.703 615.621 723.853 615.043 722.752C614.483 721.651 614.203 720.363 614.203 718.888C614.203 717.413 614.483 716.125 615.043 715.024C615.621 713.904 616.433 713.045 617.479 712.448C618.524 711.851 619.737 711.552 621.119 711.552C622.481 711.552 623.685 711.851 624.731 712.448C625.776 713.045 626.579 713.904 627.139 715.024C627.717 716.125 628.007 717.413 628.007 718.888C628.007 720.363 627.717 721.651 627.139 722.752C626.579 723.853 625.776 724.703 624.731 725.3C623.685 725.897 622.481 726.196 621.119 726.196ZM621.091 723.956C622.397 723.956 623.396 723.527 624.087 722.668C624.777 721.809 625.123 720.549 625.123 718.888C625.123 717.264 624.768 716.013 624.059 715.136C623.368 714.259 622.388 713.82 621.119 713.82C619.831 713.82 618.832 714.259 618.123 715.136C617.413 716.013 617.059 717.264 617.059 718.888C617.059 720.549 617.404 721.809 618.095 722.668C618.804 723.527 619.803 723.956 621.091 723.956ZM644.22 705.392V726H641.42V723.592C641.01 724.432 640.394 725.076 639.572 725.524C638.77 725.972 637.827 726.196 636.744 726.196C635.531 726.196 634.448 725.888 633.496 725.272C632.544 724.656 631.798 723.797 631.256 722.696C630.734 721.576 630.472 720.288 630.472 718.832C630.472 717.376 630.734 716.097 631.256 714.996C631.779 713.895 632.507 713.045 633.44 712.448C634.392 711.851 635.494 711.552 636.744 711.552C637.808 711.552 638.742 711.776 639.544 712.224C640.366 712.672 640.982 713.307 641.392 714.128V705.392H644.22ZM637.388 723.956C638.676 723.956 639.666 723.517 640.356 722.64C641.066 721.744 641.42 720.493 641.42 718.888C641.42 717.283 641.066 716.041 640.356 715.164C639.666 714.268 638.686 713.82 637.416 713.82C636.128 713.82 635.12 714.259 634.392 715.136C633.683 716.013 633.328 717.245 633.328 718.832C633.328 720.437 633.683 721.697 634.392 722.612C635.12 723.508 636.119 723.956 637.388 723.956ZM660.415 719H650.335C650.428 722.304 651.931 723.956 654.843 723.956C656.467 723.956 657.951 723.424 659.295 722.36L660.163 724.376C659.528 724.936 658.716 725.384 657.727 725.72C656.756 726.037 655.776 726.196 654.787 726.196C652.528 726.196 650.755 725.552 649.467 724.264C648.179 722.957 647.535 721.175 647.535 718.916C647.535 717.479 647.815 716.2 648.375 715.08C648.953 713.96 649.756 713.092 650.783 712.476C651.809 711.86 652.976 711.552 654.283 711.552C656.187 711.552 657.68 712.168 658.763 713.4C659.864 714.632 660.415 716.34 660.415 718.524V719ZM654.339 713.652C653.275 713.652 652.407 713.969 651.735 714.604C651.063 715.239 650.633 716.144 650.447 717.32H657.923C657.811 716.125 657.447 715.22 656.831 714.604C656.215 713.969 655.384 713.652 654.339 713.652ZM668.588 726.196C666.124 726.196 664.183 725.599 662.764 724.404L663.604 722.36C665.079 723.48 666.768 724.04 668.672 724.04C669.643 724.04 670.38 723.881 670.884 723.564C671.388 723.228 671.64 722.761 671.64 722.164C671.64 721.66 671.463 721.268 671.108 720.988C670.772 720.689 670.193 720.437 669.372 720.232L667.02 719.672C665.788 719.411 664.845 718.953 664.192 718.3C663.557 717.628 663.24 716.797 663.24 715.808C663.24 714.539 663.744 713.512 664.752 712.728C665.779 711.944 667.132 711.552 668.812 711.552C669.82 711.552 670.772 711.711 671.668 712.028C672.583 712.345 673.357 712.793 673.992 713.372L673.124 715.36C671.761 714.277 670.324 713.736 668.812 713.736C667.897 713.736 667.188 713.913 666.684 714.268C666.18 714.604 665.928 715.08 665.928 715.696C665.928 716.181 666.087 716.573 666.404 716.872C666.721 717.171 667.225 717.404 667.916 717.572L670.324 718.16C671.668 718.459 672.657 718.935 673.292 719.588C673.945 720.223 674.272 721.053 674.272 722.08C674.272 723.349 673.759 724.357 672.732 725.104C671.724 725.832 670.343 726.196 668.588 726.196Z" fill="black"/>
<rect x="439" y="311" width="312" height="48" fill="#8500AC"/>
<path d="M566.443 346.548C567.171 346.679 567.843 346.744 568.459 346.744C569.411 346.744 570.064 346.501 570.419 346.016C570.773 345.531 570.951 344.672 570.951 343.44V324.064H573.863V343.468C573.863 345.465 573.489 346.921 572.743 347.836C571.996 348.751 570.745 349.208 568.991 349.208C568.132 349.208 567.283 349.133 566.443 348.984V346.548ZM578.504 324.064H581.388V344H578.504V324.064ZM603.635 324.064L594.843 344H592.407L583.615 324.064H586.639L593.639 340.36L600.667 324.064H603.635ZM617.119 339.072H607.039L604.911 344H601.971L610.847 324.064H613.283L622.187 344H619.247L617.119 339.072ZM616.139 336.776L612.079 327.284L608.019 336.776H616.139Z" fill="white"/>
<rect x="439" width="312" height="48" fill="#C4C4C4"/>
<path d="M578.197 16.064H586.485C588.576 16.064 590.2 16.5773 591.357 17.604C592.533 18.612 593.121 19.9933 593.121 21.748C593.121 23.5027 592.524 24.8933 591.329 25.92C590.153 26.928 588.538 27.432 586.485 27.432H581.081V36H578.197V16.064ZM586.149 25.136C587.53 25.136 588.566 24.8467 589.257 24.268C589.966 23.6893 590.321 22.8493 590.321 21.748C590.321 20.6653 589.966 19.8347 589.257 19.256C588.566 18.6773 587.53 18.388 586.149 18.388H581.081V25.136H586.149ZM614.239 16.064L605.447 36H603.011L594.219 16.064H597.243L604.243 32.36L611.271 16.064H614.239Z" fill="black"/>
<rect y="583" width="1190" height="74" fill="#C4C4C4"/>
<path d="M535.88 627L526.052 617.592V627H523.168V607.064H526.052V616.136L535.46 607.064H539.016L528.964 616.696L539.52 627H535.88ZM553.063 612.888V627H550.319V624.648C549.871 625.469 549.255 626.104 548.471 626.552C547.687 626.981 546.8 627.196 545.811 627.196C542.413 627.196 540.715 625.311 540.715 621.54V612.888H543.515V621.512C543.515 622.669 543.748 623.528 544.215 624.088C544.7 624.629 545.428 624.9 546.399 624.9C547.556 624.9 548.48 624.527 549.171 623.78C549.88 623.033 550.235 622.044 550.235 620.812V612.888H553.063ZM564.681 612.552C565.913 612.552 567.005 612.851 567.957 613.448C568.909 614.045 569.646 614.895 570.169 615.996C570.691 617.097 570.953 618.376 570.953 619.832C570.953 621.288 570.682 622.576 570.141 623.696C569.618 624.797 568.881 625.656 567.929 626.272C566.977 626.888 565.894 627.196 564.681 627.196C563.598 627.196 562.646 626.972 561.825 626.524C561.022 626.057 560.415 625.395 560.005 624.536V627H557.205V606.392H560.005V615.212C560.415 614.372 561.022 613.719 561.825 613.252C562.646 612.785 563.598 612.552 564.681 612.552ZM564.037 624.956C565.306 624.956 566.295 624.508 567.005 623.612C567.714 622.697 568.069 621.437 568.069 619.832C568.069 618.245 567.714 617.013 567.005 616.136C566.295 615.259 565.306 614.82 564.037 614.82C562.749 614.82 561.75 615.259 561.041 616.136C560.35 617.013 560.005 618.264 560.005 619.888C560.005 621.512 560.35 622.763 561.041 623.64C561.75 624.517 562.749 624.956 564.037 624.956ZM586.307 620H576.227C576.321 623.304 577.823 624.956 580.735 624.956C582.359 624.956 583.843 624.424 585.187 623.36L586.055 625.376C585.421 625.936 584.609 626.384 583.619 626.72C582.649 627.037 581.669 627.196 580.679 627.196C578.421 627.196 576.647 626.552 575.359 625.264C574.071 623.957 573.427 622.175 573.427 619.916C573.427 618.479 573.707 617.2 574.267 616.08C574.846 614.96 575.649 614.092 576.675 613.476C577.702 612.86 578.869 612.552 580.175 612.552C582.079 612.552 583.573 613.168 584.655 614.4C585.757 615.632 586.307 617.34 586.307 619.524V620ZM580.231 614.652C579.167 614.652 578.299 614.969 577.627 615.604C576.955 616.239 576.526 617.144 576.339 618.32H583.815C583.703 617.125 583.339 616.22 582.723 615.604C582.107 614.969 581.277 614.652 580.231 614.652ZM596.58 612.552C597.01 612.552 597.458 612.617 597.924 612.748L597.868 615.324C597.364 615.137 596.814 615.044 596.216 615.044C594.928 615.044 593.958 615.436 593.304 616.22C592.67 616.985 592.352 617.956 592.352 619.132V627H589.552V616.864C589.552 615.389 589.478 614.064 589.328 612.888H591.96L592.212 615.436C592.586 614.503 593.164 613.793 593.948 613.308C594.732 612.804 595.61 612.552 596.58 612.552ZM607.584 612.552C610.962 612.552 612.652 614.437 612.652 618.208V627H609.824V618.376C609.824 617.144 609.581 616.248 609.096 615.688C608.629 615.128 607.873 614.848 606.828 614.848C605.633 614.848 604.672 615.221 603.944 615.968C603.234 616.715 602.88 617.713 602.88 618.964V627H600.08V616.864C600.08 615.389 600.005 614.064 599.856 612.888H602.488L602.74 615.324C603.188 614.428 603.832 613.747 604.672 613.28C605.53 612.795 606.501 612.552 607.584 612.552ZM628.717 620H618.637C618.731 623.304 620.233 624.956 623.145 624.956C624.769 624.956 626.253 624.424 627.597 623.36L628.465 625.376C627.831 625.936 627.019 626.384 626.029 626.72C625.059 627.037 624.079 627.196 623.089 627.196C620.831 627.196 619.057 626.552 617.769 625.264C616.481 623.957 615.837 622.175 615.837 619.916C615.837 618.479 616.117 617.2 616.677 616.08C617.256 614.96 618.059 614.092 619.085 613.476C620.112 612.86 621.279 612.552 622.585 612.552C624.489 612.552 625.983 613.168 627.065 614.4C628.167 615.632 628.717 617.34 628.717 619.524V620ZM622.641 614.652C621.577 614.652 620.709 614.969 620.037 615.604C619.365 616.239 618.936 617.144 618.749 618.32H626.225C626.113 617.125 625.749 616.22 625.133 615.604C624.517 614.969 623.687 614.652 622.641 614.652ZM635.494 615.072V622.156C635.494 623.127 635.699 623.817 636.11 624.228C636.539 624.62 637.127 624.816 637.874 624.816C638.359 624.816 638.854 624.741 639.358 624.592V626.888C638.742 627.093 638.042 627.196 637.258 627.196C635.802 627.196 634.673 626.785 633.87 625.964C633.067 625.143 632.666 623.948 632.666 622.38V615.072H629.922V612.888H632.666V609.36L635.494 608.38V612.888H639.386V615.072H635.494ZM654.038 620H643.958C644.051 623.304 645.554 624.956 648.466 624.956C650.09 624.956 651.574 624.424 652.918 623.36L653.786 625.376C653.151 625.936 652.339 626.384 651.35 626.72C650.379 627.037 649.399 627.196 648.41 627.196C646.151 627.196 644.378 626.552 643.09 625.264C641.802 623.957 641.158 622.175 641.158 619.916C641.158 618.479 641.438 617.2 641.998 616.08C642.576 614.96 643.379 614.092 644.406 613.476C645.432 612.86 646.599 612.552 647.906 612.552C649.81 612.552 651.303 613.168 652.386 614.4C653.487 615.632 654.038 617.34 654.038 619.524V620ZM647.962 614.652C646.898 614.652 646.03 614.969 645.358 615.604C644.686 616.239 644.256 617.144 644.07 618.32H651.546C651.434 617.125 651.07 616.22 650.454 615.604C649.838 614.969 649.007 614.652 647.962 614.652ZM662.211 627.196C659.747 627.196 657.806 626.599 656.387 625.404L657.227 623.36C658.702 624.48 660.391 625.04 662.295 625.04C663.266 625.04 664.003 624.881 664.507 624.564C665.011 624.228 665.263 623.761 665.263 623.164C665.263 622.66 665.086 622.268 664.731 621.988C664.395 621.689 663.816 621.437 662.995 621.232L660.643 620.672C659.411 620.411 658.468 619.953 657.815 619.3C657.18 618.628 656.863 617.797 656.863 616.808C656.863 615.539 657.367 614.512 658.375 613.728C659.402 612.944 660.755 612.552 662.435 612.552C663.443 612.552 664.395 612.711 665.291 613.028C666.206 613.345 666.98 613.793 667.615 614.372L666.747 616.36C665.384 615.277 663.947 614.736 662.435 614.736C661.52 614.736 660.811 614.913 660.307 615.268C659.803 615.604 659.551 616.08 659.551 616.696C659.551 617.181 659.71 617.573 660.027 617.872C660.344 618.171 660.848 618.404 661.539 618.572L663.947 619.16C665.291 619.459 666.28 619.935 666.915 620.588C667.568 621.223 667.895 622.053 667.895 623.08C667.895 624.349 667.382 625.357 666.355 626.104C665.347 626.832 663.966 627.196 662.211 627.196Z" fill="black"/>
<rect y="454" width="1190" height="104" fill="#8500AC"/>
<path d="M524.857 506.176C529.209 512.619 534.137 519.168 539.641 525.824L539.513 526.976C536.143 527.787 532.729 528.363 529.273 528.704L528.057 528.064C522.809 520.384 518.436 513.579 514.937 507.648L514.809 514.752L515.193 528H504.825L505.337 515.776L504.825 486.72H515.321L515.001 505.152L525.049 490.88L527.353 486.72H538.425L524.857 506.176ZM570.676 521.536L569.78 526.848C567.988 528 566.153 528.576 564.276 528.576C561.801 528.064 560.094 526.379 559.156 523.52H558.516C556.041 525.995 553.545 527.616 551.028 528.384C547.828 528.384 545.374 527.659 543.668 526.208C541.961 524.715 541.108 522.603 541.108 519.872L541.3 512.704L540.98 498.688L550.708 497.92L550.58 516.16C550.537 518.933 551.646 520.32 553.908 520.32C554.676 520.32 555.401 520.171 556.084 519.872C556.766 519.573 557.513 519.083 558.324 518.4V498.688L567.924 497.92L567.348 519.552C567.348 520.149 567.433 520.576 567.604 520.832C567.817 521.088 568.137 521.216 568.564 521.216C568.948 521.216 569.417 521.131 569.972 520.96L570.676 521.536ZM592.136 497.664C595.891 497.664 598.792 498.944 600.84 501.504C602.888 504.064 603.912 507.627 603.912 512.192C603.912 517.483 602.568 521.557 599.88 524.416C597.235 527.275 593.566 528.704 588.872 528.704C586.526 528.704 583.944 528.192 581.128 527.168L576.264 528.768L575.24 527.808L575.752 515.776L575.304 483.776L585.416 483.072L585.096 502.336H585.416C586.526 501.227 587.614 500.309 588.68 499.584C589.747 498.816 590.899 498.176 592.136 497.664ZM588.552 522.24C592.478 522.24 594.44 519.403 594.44 513.728C594.355 508.395 592.627 505.728 589.256 505.728C587.806 505.728 586.398 506.325 585.032 507.52L584.904 514.496L584.968 521.472C586.334 521.984 587.528 522.24 588.552 522.24ZM632.989 514.688L616.221 514.816C616.519 517.035 617.287 518.677 618.525 519.744C619.762 520.811 621.511 521.344 623.773 521.344C626.034 521.344 629.021 520.683 632.733 519.36L633.501 519.872L631.965 527.104C628.551 528.171 625.458 528.704 622.685 528.704C617.778 528.704 613.917 527.317 611.101 524.544C608.327 521.771 606.941 517.952 606.941 513.088C606.941 508.224 608.285 504.405 610.973 501.632C613.661 498.816 617.309 497.408 621.917 497.408C625.885 497.408 628.957 498.475 631.133 500.608C633.351 502.741 634.461 505.707 634.461 509.504C634.461 510.741 634.333 512.043 634.077 513.408L632.989 514.688ZM625.693 508.416C625.693 505.472 624.413 504 621.853 504C620.402 504 619.207 504.491 618.269 505.472C617.33 506.411 616.69 507.776 616.349 509.568L625.565 509.312L625.693 508.416ZM657.217 497.984C657.473 497.984 657.985 498.027 658.753 498.112V507.392L657.729 507.712C657.131 507.413 656.342 507.264 655.361 507.264C653.057 507.264 650.945 508.501 649.025 510.976V514.752L649.473 528H639.361L639.873 515.776L639.425 498.688L649.089 497.92V503.68H649.537C651.542 499.883 654.102 497.984 657.217 497.984ZM674.344 497.408C677.885 497.408 680.637 498.176 682.6 499.712C684.562 501.205 685.544 503.36 685.544 506.176C685.544 507.157 685.501 508.288 685.416 509.568C685.33 510.848 685.266 512.064 685.224 513.216C685.01 516.288 684.904 518.4 684.904 519.552C684.904 520.149 684.989 520.576 685.16 520.832C685.373 521.088 685.714 521.216 686.184 521.216C686.568 521.216 687.037 521.131 687.592 520.96L688.296 521.536L687.4 526.848C685.992 527.829 684.264 528.405 682.216 528.576C680.936 528.448 679.848 528 678.952 527.232C678.056 526.464 677.416 525.376 677.032 523.968H676.584C674.45 526.229 672.274 527.787 670.056 528.64C666.898 528.597 664.402 527.744 662.568 526.08C660.776 524.416 659.88 522.155 659.88 519.296C659.88 514.901 662.184 512.32 666.792 511.552L676.264 509.952V508.096C676.264 506.773 675.965 505.835 675.368 505.28C674.813 504.683 673.896 504.384 672.616 504.384C671.336 504.384 669.949 504.661 668.456 505.216C667.005 505.771 665.32 506.645 663.4 507.84L662.76 507.392L661.608 500.8C663.528 499.733 665.597 498.901 667.816 498.304C670.034 497.707 672.21 497.408 674.344 497.408ZM670.76 515.776C670.12 515.904 669.629 516.16 669.288 516.544C668.989 516.928 668.84 517.504 668.84 518.272C668.84 519.296 669.096 520.085 669.608 520.64C670.162 521.195 670.909 521.472 671.848 521.472C673.213 521.472 674.664 520.747 676.2 519.296L676.264 514.688L670.76 515.776Z" fill="white"/>
<path d="M595.707 377.293C595.317 376.902 594.683 376.902 594.293 377.293L587.929 383.657C587.538 384.047 587.538 384.681 587.929 385.071C588.319 385.462 588.953 385.462 589.343 385.071L595 379.414L600.657 385.071C601.047 385.462 601.681 385.462 602.071 385.071C602.462 384.681 602.462 384.047 602.071 383.657L595.707 377.293ZM596 428L596 378L594 378L594 428L596 428Z" fill="black"/>
<rect x="439" y="156" width="312" height="48" fill="#8500AC"/>
<path d="M450.347 191.548C451.075 191.679 451.747 191.744 452.363 191.744C453.315 191.744 453.968 191.501 454.323 191.016C454.678 190.531 454.855 189.672 454.855 188.44V169.064H457.767V188.468C457.767 190.465 457.394 191.921 456.647 192.836C455.9 193.751 454.65 194.208 452.895 194.208C452.036 194.208 451.187 194.133 450.347 193.984V191.548ZM462.408 169.064H465.292V189H462.408V169.064ZM487.54 169.064L478.748 189H476.312L467.52 169.064H470.544L477.544 185.36L484.572 169.064H487.54ZM501.024 184.072H490.944L488.816 189H485.876L494.752 169.064H497.188L506.092 189H503.152L501.024 184.072ZM500.044 181.776L495.984 172.284L491.924 181.776H500.044ZM520.814 189.196C518.35 189.196 516.409 188.599 514.99 187.404L515.83 185.36C517.305 186.48 518.994 187.04 520.898 187.04C521.869 187.04 522.606 186.881 523.11 186.564C523.614 186.228 523.866 185.761 523.866 185.164C523.866 184.66 523.689 184.268 523.334 183.988C522.998 183.689 522.42 183.437 521.598 183.232L519.246 182.672C518.014 182.411 517.072 181.953 516.418 181.3C515.784 180.628 515.466 179.797 515.466 178.808C515.466 177.539 515.97 176.512 516.978 175.728C518.005 174.944 519.358 174.552 521.038 174.552C522.046 174.552 522.998 174.711 523.894 175.028C524.809 175.345 525.584 175.793 526.218 176.372L525.35 178.36C523.988 177.277 522.55 176.736 521.038 176.736C520.124 176.736 519.414 176.913 518.91 177.268C518.406 177.604 518.154 178.08 518.154 178.696C518.154 179.181 518.313 179.573 518.63 179.872C518.948 180.171 519.452 180.404 520.142 180.572L522.55 181.16C523.894 181.459 524.884 181.935 525.518 182.588C526.172 183.223 526.498 184.053 526.498 185.08C526.498 186.349 525.985 187.357 524.958 188.104C523.95 188.832 522.569 189.196 520.814 189.196ZM533.363 177.072V184.156C533.363 185.127 533.568 185.817 533.979 186.228C534.408 186.62 534.996 186.816 535.743 186.816C536.228 186.816 536.723 186.741 537.227 186.592V188.888C536.611 189.093 535.911 189.196 535.127 189.196C533.671 189.196 532.542 188.785 531.739 187.964C530.936 187.143 530.535 185.948 530.535 184.38V177.072H527.791V174.888H530.535V171.36L533.363 170.38V174.888H537.255V177.072H533.363ZM545.943 189.196C544.562 189.196 543.348 188.897 542.303 188.3C541.258 187.703 540.446 186.853 539.867 185.752C539.307 184.651 539.027 183.363 539.027 181.888C539.027 180.413 539.307 179.125 539.867 178.024C540.446 176.904 541.258 176.045 542.303 175.448C543.348 174.851 544.562 174.552 545.943 174.552C547.306 174.552 548.51 174.851 549.555 175.448C550.6 176.045 551.403 176.904 551.963 178.024C552.542 179.125 552.831 180.413 552.831 181.888C552.831 183.363 552.542 184.651 551.963 185.752C551.403 186.853 550.6 187.703 549.555 188.3C548.51 188.897 547.306 189.196 545.943 189.196ZM545.915 186.956C547.222 186.956 548.22 186.527 548.911 185.668C549.602 184.809 549.947 183.549 549.947 181.888C549.947 180.264 549.592 179.013 548.883 178.136C548.192 177.259 547.212 176.82 545.943 176.82C544.655 176.82 543.656 177.259 542.947 178.136C542.238 179.013 541.883 180.264 541.883 181.888C541.883 183.549 542.228 184.809 542.919 185.668C543.628 186.527 544.627 186.956 545.915 186.956ZM563.164 174.552C563.594 174.552 564.042 174.617 564.508 174.748L564.452 177.324C563.948 177.137 563.398 177.044 562.8 177.044C561.512 177.044 560.542 177.436 559.888 178.22C559.254 178.985 558.936 179.956 558.936 181.132V189H556.136V178.864C556.136 177.389 556.062 176.064 555.912 174.888H558.544L558.796 177.436C559.17 176.503 559.748 175.793 560.532 175.308C561.316 174.804 562.194 174.552 563.164 174.552ZM579.298 174.888V189H576.498V186.592C576.088 187.432 575.472 188.076 574.65 188.524C573.848 188.972 572.905 189.196 571.822 189.196C570.572 189.196 569.47 188.897 568.518 188.3C567.585 187.703 566.857 186.863 566.334 185.78C565.812 184.679 565.55 183.4 565.55 181.944C565.55 180.488 565.812 179.2 566.334 178.08C566.876 176.96 567.622 176.092 568.574 175.476C569.526 174.86 570.609 174.552 571.822 174.552C572.905 174.552 573.848 174.785 574.65 175.252C575.453 175.7 576.069 176.344 576.498 177.184V174.888H579.298ZM572.494 186.956C573.764 186.956 574.744 186.517 575.434 185.64C576.144 184.744 576.498 183.493 576.498 181.888C576.498 180.264 576.144 179.013 575.434 178.136C574.744 177.259 573.754 176.82 572.466 176.82C571.197 176.82 570.198 177.277 569.47 178.192C568.761 179.088 568.406 180.339 568.406 181.944C568.406 183.531 568.761 184.763 569.47 185.64C570.198 186.517 571.206 186.956 572.494 186.956ZM596.473 174.888V188.748C596.473 190.895 595.904 192.509 594.765 193.592C593.645 194.693 591.974 195.244 589.753 195.244C587.606 195.244 585.73 194.777 584.125 193.844L584.601 191.632C585.478 192.099 586.318 192.444 587.121 192.668C587.942 192.892 588.81 193.004 589.725 193.004C592.357 193.004 593.673 191.66 593.673 188.972V185.92C593.244 186.741 592.618 187.395 591.797 187.88C590.976 188.347 590.024 188.58 588.941 188.58C587.709 188.58 586.608 188.291 585.637 187.712C584.685 187.133 583.938 186.312 583.397 185.248C582.874 184.184 582.613 182.961 582.613 181.58C582.613 180.199 582.874 178.976 583.397 177.912C583.938 176.848 584.685 176.027 585.637 175.448C586.608 174.851 587.709 174.552 588.941 174.552C590.024 174.552 590.976 174.785 591.797 175.252C592.618 175.7 593.244 176.344 593.673 177.184V174.888H596.473ZM589.585 186.312C590.854 186.312 591.853 185.892 592.581 185.052C593.309 184.212 593.673 183.055 593.673 181.58C593.673 180.105 593.309 178.948 592.581 178.108C591.872 177.249 590.873 176.82 589.585 176.82C588.316 176.82 587.308 177.249 586.561 178.108C585.833 178.948 585.469 180.105 585.469 181.58C585.469 183.036 585.833 184.193 586.561 185.052C587.308 185.892 588.316 186.312 589.585 186.312ZM612.665 182H602.585C602.678 185.304 604.181 186.956 607.093 186.956C608.717 186.956 610.201 186.424 611.545 185.36L612.413 187.376C611.778 187.936 610.966 188.384 609.977 188.72C609.006 189.037 608.026 189.196 607.037 189.196C604.778 189.196 603.005 188.552 601.717 187.264C600.429 185.957 599.785 184.175 599.785 181.916C599.785 180.479 600.065 179.2 600.625 178.08C601.203 176.96 602.006 176.092 603.033 175.476C604.059 174.86 605.226 174.552 606.533 174.552C608.437 174.552 609.93 175.168 611.013 176.4C612.114 177.632 612.665 179.34 612.665 181.524V182ZM606.589 176.652C605.525 176.652 604.657 176.969 603.985 177.604C603.313 178.239 602.883 179.144 602.697 180.32H610.173C610.061 179.125 609.697 178.22 609.081 177.604C608.465 176.969 607.634 176.652 606.589 176.652ZM629.507 189.196C628.088 189.196 626.847 188.897 625.783 188.3C624.737 187.703 623.935 186.863 623.375 185.78C622.815 184.679 622.535 183.4 622.535 181.944C622.535 180.488 622.824 179.2 623.403 178.08C624 176.96 624.831 176.092 625.895 175.476C626.959 174.86 628.2 174.552 629.619 174.552C630.608 174.552 631.56 174.72 632.475 175.056C633.389 175.373 634.127 175.812 634.687 176.372L633.819 178.416C632.493 177.371 631.159 176.848 629.815 176.848C628.452 176.848 627.388 177.296 626.623 178.192C625.857 179.069 625.475 180.311 625.475 181.916C625.475 183.521 625.857 184.763 626.623 185.64C627.388 186.499 628.452 186.928 629.815 186.928C631.196 186.928 632.531 186.405 633.819 185.36L634.687 187.404C634.089 187.964 633.324 188.403 632.391 188.72C631.476 189.037 630.515 189.196 629.507 189.196ZM643.423 189.196C642.042 189.196 640.829 188.897 639.783 188.3C638.738 187.703 637.926 186.853 637.347 185.752C636.787 184.651 636.507 183.363 636.507 181.888C636.507 180.413 636.787 179.125 637.347 178.024C637.926 176.904 638.738 176.045 639.783 175.448C640.829 174.851 642.042 174.552 643.423 174.552C644.786 174.552 645.99 174.851 647.035 175.448C648.081 176.045 648.883 176.904 649.443 178.024C650.022 179.125 650.311 180.413 650.311 181.888C650.311 183.363 650.022 184.651 649.443 185.752C648.883 186.853 648.081 187.703 647.035 188.3C645.99 188.897 644.786 189.196 643.423 189.196ZM643.395 186.956C644.702 186.956 645.701 186.527 646.391 185.668C647.082 184.809 647.427 183.549 647.427 181.888C647.427 180.264 647.073 179.013 646.363 178.136C645.673 177.259 644.693 176.82 643.423 176.82C642.135 176.82 641.137 177.259 640.427 178.136C639.718 179.013 639.363 180.264 639.363 181.888C639.363 183.549 639.709 184.809 640.399 185.668C641.109 186.527 642.107 186.956 643.395 186.956ZM661.121 174.552C664.5 174.552 666.189 176.437 666.189 180.208V189H663.361V180.376C663.361 179.144 663.118 178.248 662.633 177.688C662.166 177.128 661.41 176.848 660.365 176.848C659.17 176.848 658.209 177.221 657.481 177.968C656.772 178.715 656.417 179.713 656.417 180.964V189H653.617V178.864C653.617 177.389 653.542 176.064 653.393 174.888H656.025L656.277 177.324C656.725 176.428 657.369 175.747 658.209 175.28C659.068 174.795 660.038 174.552 661.121 174.552ZM673.883 177.072V184.156C673.883 185.127 674.088 185.817 674.499 186.228C674.928 186.62 675.516 186.816 676.263 186.816C676.748 186.816 677.243 186.741 677.747 186.592V188.888C677.131 189.093 676.431 189.196 675.647 189.196C674.191 189.196 673.061 188.785 672.259 187.964C671.456 187.143 671.055 185.948 671.055 184.38V177.072H668.311V174.888H671.055V171.36L673.883 170.38V174.888H677.775V177.072H673.883ZM687.414 174.552C687.844 174.552 688.292 174.617 688.758 174.748L688.702 177.324C688.198 177.137 687.648 177.044 687.05 177.044C685.762 177.044 684.792 177.436 684.138 178.22C683.504 178.985 683.186 179.956 683.186 181.132V189H680.386V178.864C680.386 177.389 680.312 176.064 680.162 174.888H682.794L683.046 177.436C683.42 176.503 683.998 175.793 684.782 175.308C685.566 174.804 686.444 174.552 687.414 174.552ZM696.716 189.196C695.335 189.196 694.122 188.897 693.076 188.3C692.031 187.703 691.219 186.853 690.64 185.752C690.08 184.651 689.8 183.363 689.8 181.888C689.8 180.413 690.08 179.125 690.64 178.024C691.219 176.904 692.031 176.045 693.076 175.448C694.122 174.851 695.335 174.552 696.716 174.552C698.079 174.552 699.283 174.851 700.328 175.448C701.374 176.045 702.176 176.904 702.736 178.024C703.315 179.125 703.604 180.413 703.604 181.888C703.604 183.363 703.315 184.651 702.736 185.752C702.176 186.853 701.374 187.703 700.328 188.3C699.283 188.897 698.079 189.196 696.716 189.196ZM696.688 186.956C697.995 186.956 698.994 186.527 699.684 185.668C700.375 184.809 700.72 183.549 700.72 181.888C700.72 180.264 700.366 179.013 699.656 178.136C698.966 177.259 697.986 176.82 696.716 176.82C695.428 176.82 694.43 177.259 693.72 178.136C693.011 179.013 692.656 180.264 692.656 181.888C692.656 183.549 693.002 184.809 693.692 185.668C694.402 186.527 695.4 186.956 696.688 186.956ZM706.91 168.392H709.71V189H706.91V168.392ZM713.855 168.392H716.655V189H713.855V168.392ZM732.841 182H722.761C722.854 185.304 724.357 186.956 727.269 186.956C728.893 186.956 730.377 186.424 731.721 185.36L732.589 187.376C731.954 187.936 731.142 188.384 730.153 188.72C729.182 189.037 728.202 189.196 727.213 189.196C724.954 189.196 723.181 188.552 721.893 187.264C720.605 185.957 719.961 184.175 719.961 181.916C719.961 180.479 720.241 179.2 720.801 178.08C721.379 176.96 722.182 176.092 723.209 175.476C724.235 174.86 725.402 174.552 726.709 174.552C728.613 174.552 730.106 175.168 731.189 176.4C732.29 177.632 732.841 179.34 732.841 181.524V182ZM726.765 176.652C725.701 176.652 724.833 176.969 724.161 177.604C723.489 178.239 723.059 179.144 722.873 180.32H730.349C730.237 179.125 729.873 178.22 729.257 177.604C728.641 176.969 727.81 176.652 726.765 176.652ZM743.114 174.552C743.543 174.552 743.991 174.617 744.458 174.748L744.402 177.324C743.898 177.137 743.347 177.044 742.75 177.044C741.462 177.044 740.491 177.436 739.838 178.22C739.203 178.985 738.886 179.956 738.886 181.132V189H736.086V178.864C736.086 177.389 736.011 176.064 735.862 174.888H738.494L738.746 177.436C739.119 176.503 739.698 175.793 740.482 175.308C741.266 174.804 742.143 174.552 743.114 174.552Z" fill="white"/>
<path d="M595.707 222.293C595.317 221.902 594.683 221.902 594.293 222.293L587.929 228.657C587.538 229.047 587.538 229.681 587.929 230.071C588.319 230.462 588.953 230.462 589.343 230.071L595 224.414L600.657 230.071C601.047 230.462 601.681 230.462 602.071 230.071C602.462 229.681 602.462 229.047 602.071 228.657L595.707 222.293ZM596 273L596 223L594 223L594 273L596 273Z" fill="black"/>
<path d="M595.707 67.2929C595.317 66.9024 594.683 66.9024 594.293 67.2929L587.929 73.6569C587.538 74.0474 587.538 74.6805 587.929 75.0711C588.319 75.4616 588.953 75.4616 589.343 75.0711L595 69.4142L600.657 75.0711C601.047 75.4616 601.681 75.4616 602.071 75.0711C602.462 74.6805 602.462 74.0474 602.071 73.6569L595.707 67.2929ZM596 118L596 68L594 68L594 118L596 118Z" fill="black"/>
</svg>
