<svg width="1190" height="641" viewBox="0 0 1190 641" fill="none" xmlns="http://www.w3.org/2000/svg">
<rect y="575" width="1190" height="66" fill="#C4C4C4"/>
<path d="M506.436 619.224C504.887 619.224 503.468 619.019 502.18 618.608C500.911 618.197 499.809 617.581 498.876 616.76L499.912 614.632C500.883 615.416 501.891 615.985 502.936 616.34C503.981 616.695 505.157 616.872 506.464 616.872C507.957 616.872 509.115 616.592 509.936 616.032C510.757 615.472 511.168 614.679 511.168 613.652C511.168 612.793 510.785 612.149 510.02 611.72C509.255 611.272 508.041 610.861 506.38 610.488C504.793 610.152 503.496 609.769 502.488 609.34C501.48 608.892 500.687 608.304 500.108 607.576C499.529 606.829 499.24 605.877 499.24 604.72C499.24 603.563 499.548 602.545 500.164 601.668C500.78 600.772 501.648 600.081 502.768 599.596C503.907 599.092 505.213 598.84 506.688 598.84C508.088 598.84 509.395 599.055 510.608 599.484C511.84 599.913 512.867 600.52 513.688 601.304L512.652 603.432C511.737 602.667 510.795 602.107 509.824 601.752C508.853 601.379 507.817 601.192 506.716 601.192C505.279 601.192 504.149 601.5 503.328 602.116C502.507 602.713 502.096 603.535 502.096 604.58C502.096 605.476 502.451 606.157 503.16 606.624C503.888 607.091 505.045 607.511 506.632 607.884C508.293 608.257 509.637 608.649 510.664 609.06C511.691 609.471 512.512 610.031 513.128 610.74C513.744 611.449 514.052 612.364 514.052 613.484C514.052 614.641 513.744 615.649 513.128 616.508C512.512 617.367 511.625 618.039 510.468 618.524C509.329 618.991 507.985 619.224 506.436 619.224ZM520.91 607.072V614.156C520.91 615.127 521.115 615.817 521.526 616.228C521.955 616.62 522.543 616.816 523.29 616.816C523.775 616.816 524.27 616.741 524.774 616.592V618.888C524.158 619.093 523.458 619.196 522.674 619.196C521.218 619.196 520.089 618.785 519.286 617.964C518.483 617.143 518.082 615.948 518.082 614.38V607.072H515.338V604.888H518.082V601.36L520.91 600.38V604.888H524.802V607.072H520.91ZM533.49 619.196C532.108 619.196 530.895 618.897 529.85 618.3C528.804 617.703 527.992 616.853 527.414 615.752C526.854 614.651 526.574 613.363 526.574 611.888C526.574 610.413 526.854 609.125 527.414 608.024C527.992 606.904 528.804 606.045 529.85 605.448C530.895 604.851 532.108 604.552 533.49 604.552C534.852 604.552 536.056 604.851 537.102 605.448C538.147 606.045 538.95 606.904 539.51 608.024C540.088 609.125 540.378 610.413 540.378 611.888C540.378 613.363 540.088 614.651 539.51 615.752C538.95 616.853 538.147 617.703 537.102 618.3C536.056 618.897 534.852 619.196 533.49 619.196ZM533.462 616.956C534.768 616.956 535.767 616.527 536.458 615.668C537.148 614.809 537.494 613.549 537.494 611.888C537.494 610.264 537.139 609.013 536.43 608.136C535.739 607.259 534.759 606.82 533.49 606.82C532.202 606.82 531.203 607.259 530.494 608.136C529.784 609.013 529.43 610.264 529.43 611.888C529.43 613.549 529.775 614.809 530.466 615.668C531.175 616.527 532.174 616.956 533.462 616.956ZM550.711 604.552C551.141 604.552 551.589 604.617 552.055 604.748L551.999 607.324C551.495 607.137 550.945 607.044 550.347 607.044C549.059 607.044 548.089 607.436 547.435 608.22C546.801 608.985 546.483 609.956 546.483 611.132V619H543.683V608.864C543.683 607.389 543.609 606.064 543.459 604.888H546.091L546.343 607.436C546.717 606.503 547.295 605.793 548.079 605.308C548.863 604.804 549.741 604.552 550.711 604.552ZM566.845 604.888V619H564.045V616.592C563.635 617.432 563.019 618.076 562.197 618.524C561.395 618.972 560.452 619.196 559.369 619.196C558.119 619.196 557.017 618.897 556.065 618.3C555.132 617.703 554.404 616.863 553.881 615.78C553.359 614.679 553.097 613.4 553.097 611.944C553.097 610.488 553.359 609.2 553.881 608.08C554.423 606.96 555.169 606.092 556.121 605.476C557.073 604.86 558.156 604.552 559.369 604.552C560.452 604.552 561.395 604.785 562.197 605.252C563 605.7 563.616 606.344 564.045 607.184V604.888H566.845ZM560.041 616.956C561.311 616.956 562.291 616.517 562.981 615.64C563.691 614.744 564.045 613.493 564.045 611.888C564.045 610.264 563.691 609.013 562.981 608.136C562.291 607.259 561.301 606.82 560.013 606.82C558.744 606.82 557.745 607.277 557.017 608.192C556.308 609.088 555.953 610.339 555.953 611.944C555.953 613.531 556.308 614.763 557.017 615.64C557.745 616.517 558.753 616.956 560.041 616.956ZM584.02 604.888V618.748C584.02 620.895 583.45 622.509 582.312 623.592C581.192 624.693 579.521 625.244 577.3 625.244C575.153 625.244 573.277 624.777 571.672 623.844L572.148 621.632C573.025 622.099 573.865 622.444 574.668 622.668C575.489 622.892 576.357 623.004 577.272 623.004C579.904 623.004 581.22 621.66 581.22 618.972V615.92C580.79 616.741 580.165 617.395 579.344 617.88C578.522 618.347 577.57 618.58 576.488 618.58C575.256 618.58 574.154 618.291 573.184 617.712C572.232 617.133 571.485 616.312 570.944 615.248C570.421 614.184 570.16 612.961 570.16 611.58C570.16 610.199 570.421 608.976 570.944 607.912C571.485 606.848 572.232 606.027 573.184 605.448C574.154 604.851 575.256 604.552 576.488 604.552C577.57 604.552 578.522 604.785 579.344 605.252C580.165 605.7 580.79 606.344 581.22 607.184V604.888H584.02ZM577.132 616.312C578.401 616.312 579.4 615.892 580.128 615.052C580.856 614.212 581.22 613.055 581.22 611.58C581.22 610.105 580.856 608.948 580.128 608.108C579.418 607.249 578.42 606.82 577.132 606.82C575.862 606.82 574.854 607.249 574.108 608.108C573.38 608.948 573.016 610.105 573.016 611.58C573.016 613.036 573.38 614.193 574.108 615.052C574.854 615.892 575.862 616.312 577.132 616.312ZM600.212 612H590.132C590.225 615.304 591.728 616.956 594.64 616.956C596.264 616.956 597.748 616.424 599.092 615.36L599.96 617.376C599.325 617.936 598.513 618.384 597.524 618.72C596.553 619.037 595.573 619.196 594.584 619.196C592.325 619.196 590.552 618.552 589.264 617.264C587.976 615.957 587.332 614.175 587.332 611.916C587.332 610.479 587.612 609.2 588.172 608.08C588.75 606.96 589.553 606.092 590.58 605.476C591.606 604.86 592.773 604.552 594.08 604.552C595.984 604.552 597.477 605.168 598.56 606.4C599.661 607.632 600.212 609.34 600.212 611.524V612ZM594.136 606.652C593.072 606.652 592.204 606.969 591.532 607.604C590.86 608.239 590.43 609.144 590.244 610.32H597.72C597.608 609.125 597.244 608.22 596.628 607.604C596.012 606.969 595.181 606.652 594.136 606.652ZM627.526 599.064V619H625.314L613.89 603.936V619H611.174V599.064H613.358L624.81 614.156V599.064H627.526ZM637.998 619.196C636.616 619.196 635.403 618.897 634.358 618.3C633.312 617.703 632.5 616.853 631.922 615.752C631.362 614.651 631.082 613.363 631.082 611.888C631.082 610.413 631.362 609.125 631.922 608.024C632.5 606.904 633.312 606.045 634.358 605.448C635.403 604.851 636.616 604.552 637.998 604.552C639.36 604.552 640.564 604.851 641.61 605.448C642.655 606.045 643.458 606.904 644.018 608.024C644.596 609.125 644.886 610.413 644.886 611.888C644.886 613.363 644.596 614.651 644.018 615.752C643.458 616.853 642.655 617.703 641.61 618.3C640.564 618.897 639.36 619.196 637.998 619.196ZM637.97 616.956C639.276 616.956 640.275 616.527 640.966 615.668C641.656 614.809 642.002 613.549 642.002 611.888C642.002 610.264 641.647 609.013 640.938 608.136C640.247 607.259 639.267 606.82 637.998 606.82C636.71 606.82 635.711 607.259 635.002 608.136C634.292 609.013 633.938 610.264 633.938 611.888C633.938 613.549 634.283 614.809 634.974 615.668C635.683 616.527 636.682 616.956 637.97 616.956ZM661.099 598.392V619H658.299V616.592C657.888 617.432 657.272 618.076 656.451 618.524C655.648 618.972 654.706 619.196 653.623 619.196C652.41 619.196 651.327 618.888 650.375 618.272C649.423 617.656 648.676 616.797 648.135 615.696C647.612 614.576 647.351 613.288 647.351 611.832C647.351 610.376 647.612 609.097 648.135 607.996C648.658 606.895 649.386 606.045 650.319 605.448C651.271 604.851 652.372 604.552 653.623 604.552C654.687 604.552 655.62 604.776 656.423 605.224C657.244 605.672 657.86 606.307 658.271 607.128V598.392H661.099ZM654.267 616.956C655.555 616.956 656.544 616.517 657.235 615.64C657.944 614.744 658.299 613.493 658.299 611.888C658.299 610.283 657.944 609.041 657.235 608.164C656.544 607.268 655.564 606.82 654.295 606.82C653.007 606.82 651.999 607.259 651.271 608.136C650.562 609.013 650.207 610.245 650.207 611.832C650.207 613.437 650.562 614.697 651.271 615.612C651.999 616.508 652.998 616.956 654.267 616.956ZM677.294 612H667.214C667.307 615.304 668.81 616.956 671.722 616.956C673.346 616.956 674.83 616.424 676.174 615.36L677.042 617.376C676.407 617.936 675.595 618.384 674.606 618.72C673.635 619.037 672.655 619.196 671.666 619.196C669.407 619.196 667.634 618.552 666.346 617.264C665.058 615.957 664.414 614.175 664.414 611.916C664.414 610.479 664.694 609.2 665.254 608.08C665.832 606.96 666.635 606.092 667.662 605.476C668.688 604.86 669.855 604.552 671.162 604.552C673.066 604.552 674.559 605.168 675.642 606.4C676.743 607.632 677.294 609.34 677.294 611.524V612ZM671.218 606.652C670.154 606.652 669.286 606.969 668.614 607.604C667.942 608.239 667.512 609.144 667.326 610.32H674.802C674.69 609.125 674.326 608.22 673.71 607.604C673.094 606.969 672.263 606.652 671.218 606.652ZM685.467 619.196C683.003 619.196 681.061 618.599 679.643 617.404L680.483 615.36C681.957 616.48 683.647 617.04 685.551 617.04C686.521 617.04 687.259 616.881 687.763 616.564C688.267 616.228 688.519 615.761 688.519 615.164C688.519 614.66 688.341 614.268 687.987 613.988C687.651 613.689 687.072 613.437 686.251 613.232L683.899 612.672C682.667 612.411 681.724 611.953 681.071 611.3C680.436 610.628 680.119 609.797 680.119 608.808C680.119 607.539 680.623 606.512 681.631 605.728C682.657 604.944 684.011 604.552 685.691 604.552C686.699 604.552 687.651 604.711 688.547 605.028C689.461 605.345 690.236 605.793 690.871 606.372L690.003 608.36C688.64 607.277 687.203 606.736 685.691 606.736C684.776 606.736 684.067 606.913 683.563 607.268C683.059 607.604 682.807 608.08 682.807 608.696C682.807 609.181 682.965 609.573 683.283 609.872C683.6 610.171 684.104 610.404 684.795 610.572L687.203 611.16C688.547 611.459 689.536 611.935 690.171 612.588C690.824 613.223 691.151 614.053 691.151 615.08C691.151 616.349 690.637 617.357 689.611 618.104C688.603 618.832 687.221 619.196 685.467 619.196Z" fill="black"/>
<rect x="82" y="503" width="312" height="48" fill="#C4C4C4"/>
<rect x="439" y="503" width="312" height="48" fill="#C4C4C4"/>
<rect x="796" y="503" width="312" height="48" fill="#C4C4C4"/>
<path d="M211.9 519.064H218.872C222.102 519.064 224.603 519.932 226.376 521.668C228.15 523.404 229.036 525.849 229.036 529.004C229.036 532.177 228.15 534.641 226.376 536.396C224.603 538.132 222.102 539 218.872 539H211.9V519.064ZM218.704 536.592C223.614 536.592 226.068 534.063 226.068 529.004C226.068 523.983 223.614 521.472 218.704 521.472H214.784V536.592H218.704ZM232.73 524.888H235.53V539H232.73V524.888ZM235.754 518.728V521.696H232.478V518.728H235.754ZM244.604 539.196C242.14 539.196 240.198 538.599 238.78 537.404L239.62 535.36C241.094 536.48 242.784 537.04 244.688 537.04C245.658 537.04 246.396 536.881 246.9 536.564C247.404 536.228 247.656 535.761 247.656 535.164C247.656 534.66 247.478 534.268 247.124 533.988C246.788 533.689 246.209 533.437 245.388 533.232L243.036 532.672C241.804 532.411 240.861 531.953 240.208 531.3C239.573 530.628 239.256 529.797 239.256 528.808C239.256 527.539 239.76 526.512 240.768 525.728C241.794 524.944 243.148 524.552 244.828 524.552C245.836 524.552 246.788 524.711 247.684 525.028C248.598 525.345 249.373 525.793 250.008 526.372L249.14 528.36C247.777 527.277 246.34 526.736 244.828 526.736C243.913 526.736 243.204 526.913 242.7 527.268C242.196 527.604 241.944 528.08 241.944 528.696C241.944 529.181 242.102 529.573 242.42 529.872C242.737 530.171 243.241 530.404 243.932 530.572L246.34 531.16C247.684 531.459 248.673 531.935 249.308 532.588C249.961 533.223 250.288 534.053 250.288 535.08C250.288 536.349 249.774 537.357 248.748 538.104C247.74 538.832 246.358 539.196 244.604 539.196ZM263.169 539L256.421 532.336V539H253.621V518.392H256.421V531.272L262.693 524.916H266.193L259.445 531.692L266.781 539H263.169Z" fill="black"/>
<path d="M568.9 519.064H575.872C579.102 519.064 581.603 519.932 583.376 521.668C585.15 523.404 586.036 525.849 586.036 529.004C586.036 532.177 585.15 534.641 583.376 536.396C581.603 538.132 579.102 539 575.872 539H568.9V519.064ZM575.704 536.592C580.614 536.592 583.068 534.063 583.068 529.004C583.068 523.983 580.614 521.472 575.704 521.472H571.784V536.592H575.704ZM589.73 524.888H592.53V539H589.73V524.888ZM592.754 518.728V521.696H589.478V518.728H592.754ZM601.604 539.196C599.14 539.196 597.198 538.599 595.78 537.404L596.62 535.36C598.094 536.48 599.784 537.04 601.688 537.04C602.658 537.04 603.396 536.881 603.9 536.564C604.404 536.228 604.656 535.761 604.656 535.164C604.656 534.66 604.478 534.268 604.124 533.988C603.788 533.689 603.209 533.437 602.388 533.232L600.036 532.672C598.804 532.411 597.861 531.953 597.208 531.3C596.573 530.628 596.256 529.797 596.256 528.808C596.256 527.539 596.76 526.512 597.768 525.728C598.794 524.944 600.148 524.552 601.828 524.552C602.836 524.552 603.788 524.711 604.684 525.028C605.598 525.345 606.373 525.793 607.008 526.372L606.14 528.36C604.777 527.277 603.34 526.736 601.828 526.736C600.913 526.736 600.204 526.913 599.7 527.268C599.196 527.604 598.944 528.08 598.944 528.696C598.944 529.181 599.102 529.573 599.42 529.872C599.737 530.171 600.241 530.404 600.932 530.572L603.34 531.16C604.684 531.459 605.673 531.935 606.308 532.588C606.961 533.223 607.288 534.053 607.288 535.08C607.288 536.349 606.774 537.357 605.748 538.104C604.74 538.832 603.358 539.196 601.604 539.196ZM620.169 539L613.421 532.336V539H610.621V518.392H613.421V531.272L619.693 524.916H623.193L616.445 531.692L623.781 539H620.169Z" fill="black"/>
<path d="M925.9 519.064H932.872C936.102 519.064 938.603 519.932 940.376 521.668C942.15 523.404 943.036 525.849 943.036 529.004C943.036 532.177 942.15 534.641 940.376 536.396C938.603 538.132 936.102 539 932.872 539H925.9V519.064ZM932.704 536.592C937.614 536.592 940.068 534.063 940.068 529.004C940.068 523.983 937.614 521.472 932.704 521.472H928.784V536.592H932.704ZM946.73 524.888H949.53V539H946.73V524.888ZM949.754 518.728V521.696H946.478V518.728H949.754ZM958.604 539.196C956.14 539.196 954.198 538.599 952.78 537.404L953.62 535.36C955.094 536.48 956.784 537.04 958.688 537.04C959.658 537.04 960.396 536.881 960.9 536.564C961.404 536.228 961.656 535.761 961.656 535.164C961.656 534.66 961.478 534.268 961.124 533.988C960.788 533.689 960.209 533.437 959.388 533.232L957.036 532.672C955.804 532.411 954.861 531.953 954.208 531.3C953.573 530.628 953.256 529.797 953.256 528.808C953.256 527.539 953.76 526.512 954.768 525.728C955.794 524.944 957.148 524.552 958.828 524.552C959.836 524.552 960.788 524.711 961.684 525.028C962.598 525.345 963.373 525.793 964.008 526.372L963.14 528.36C961.777 527.277 960.34 526.736 958.828 526.736C957.913 526.736 957.204 526.913 956.7 527.268C956.196 527.604 955.944 528.08 955.944 528.696C955.944 529.181 956.102 529.573 956.42 529.872C956.737 530.171 957.241 530.404 957.932 530.572L960.34 531.16C961.684 531.459 962.673 531.935 963.308 532.588C963.961 533.223 964.288 534.053 964.288 535.08C964.288 536.349 963.774 537.357 962.748 538.104C961.74 538.832 960.358 539.196 958.604 539.196ZM977.169 539L970.421 532.336V539H967.621V518.392H970.421V531.272L976.693 524.916H980.193L973.445 531.692L980.781 539H977.169Z" fill="black"/>
<rect x="82" y="140" width="312" height="48" fill="#8500AC"/>
<rect x="439" y="140" width="312" height="48" fill="#8500AC"/>
<rect x="796" y="140" width="312" height="48" fill="#8500AC"/>
<path d="M116.379 153.064H123.351C126.58 153.064 129.081 153.932 130.855 155.668C132.628 157.404 133.515 159.849 133.515 163.004C133.515 166.177 132.628 168.641 130.855 170.396C129.081 172.132 126.58 173 123.351 173H116.379V153.064ZM123.183 170.592C128.092 170.592 130.547 168.063 130.547 163.004C130.547 157.983 128.092 155.472 123.183 155.472H119.263V170.592H123.183ZM150.033 158.888L143.453 174.148C142.725 175.809 141.81 177.023 140.709 177.788C139.626 178.572 138.282 179.095 136.677 179.356L136.061 177.172C137.386 176.873 138.385 176.481 139.057 175.996C139.747 175.529 140.298 174.82 140.709 173.868L141.213 172.692L135.277 158.888H138.273L142.697 169.808L147.205 158.888H150.033ZM159.724 158.552C163.103 158.552 164.792 160.437 164.792 164.208V173H161.964V164.376C161.964 163.144 161.722 162.248 161.236 161.688C160.77 161.128 160.014 160.848 158.968 160.848C157.774 160.848 156.812 161.221 156.084 161.968C155.375 162.715 155.02 163.713 155.02 164.964V173H152.22V162.864C152.22 161.389 152.146 160.064 151.996 158.888H154.628L154.88 161.324C155.328 160.428 155.972 159.747 156.812 159.28C157.671 158.795 158.642 158.552 159.724 158.552ZM181.726 158.888V173H178.926V170.592C178.515 171.432 177.899 172.076 177.078 172.524C176.275 172.972 175.333 173.196 174.25 173.196C172.999 173.196 171.898 172.897 170.946 172.3C170.013 171.703 169.285 170.863 168.762 169.78C168.239 168.679 167.978 167.4 167.978 165.944C167.978 164.488 168.239 163.2 168.762 162.08C169.303 160.96 170.05 160.092 171.002 159.476C171.954 158.86 173.037 158.552 174.25 158.552C175.333 158.552 176.275 158.785 177.078 159.252C177.881 159.7 178.497 160.344 178.926 161.184V158.888H181.726ZM174.922 170.956C176.191 170.956 177.171 170.517 177.862 169.64C178.571 168.744 178.926 167.493 178.926 165.888C178.926 164.264 178.571 163.013 177.862 162.136C177.171 161.259 176.182 160.82 174.894 160.82C173.625 160.82 172.626 161.277 171.898 162.192C171.189 163.088 170.834 164.339 170.834 165.944C170.834 167.531 171.189 168.763 171.898 169.64C172.626 170.517 173.634 170.956 174.922 170.956ZM201.981 158.552C205.117 158.552 206.685 160.437 206.685 164.208V173H203.857V164.348C203.857 163.135 203.642 162.248 203.213 161.688C202.802 161.128 202.13 160.848 201.197 160.848C200.114 160.848 199.255 161.221 198.621 161.968C198.005 162.715 197.697 163.732 197.697 165.02V173H194.869V164.348C194.869 163.135 194.654 162.248 194.225 161.688C193.814 161.128 193.142 160.848 192.209 160.848C191.126 160.848 190.267 161.221 189.633 161.968C188.998 162.715 188.681 163.732 188.681 165.02V173H185.881V162.864C185.881 161.389 185.806 160.064 185.657 158.888H188.289L188.541 161.24C188.951 160.381 189.539 159.719 190.305 159.252C191.07 158.785 191.966 158.552 192.993 158.552C195.177 158.552 196.605 159.457 197.277 161.268C197.706 160.428 198.331 159.765 199.153 159.28C199.993 158.795 200.935 158.552 201.981 158.552ZM210.736 158.888H213.536V173H210.736V158.888ZM213.76 152.728V155.696H210.484V152.728H213.76ZM223.813 173.196C222.395 173.196 221.153 172.897 220.089 172.3C219.044 171.703 218.241 170.863 217.681 169.78C217.121 168.679 216.841 167.4 216.841 165.944C216.841 164.488 217.131 163.2 217.709 162.08C218.307 160.96 219.137 160.092 220.201 159.476C221.265 158.86 222.507 158.552 223.925 158.552C224.915 158.552 225.867 158.72 226.781 159.056C227.696 159.373 228.433 159.812 228.993 160.372L228.125 162.416C226.8 161.371 225.465 160.848 224.121 160.848C222.759 160.848 221.695 161.296 220.929 162.192C220.164 163.069 219.781 164.311 219.781 165.916C219.781 167.521 220.164 168.763 220.929 169.64C221.695 170.499 222.759 170.928 224.121 170.928C225.503 170.928 226.837 170.405 228.125 169.36L228.993 171.404C228.396 171.964 227.631 172.403 226.697 172.72C225.783 173.037 224.821 173.196 223.813 173.196ZM239.371 153.064H242.255V170.592H251.943V173H239.371V153.064ZM260.589 173.196C259.208 173.196 257.995 172.897 256.949 172.3C255.904 171.703 255.092 170.853 254.513 169.752C253.953 168.651 253.673 167.363 253.673 165.888C253.673 164.413 253.953 163.125 254.513 162.024C255.092 160.904 255.904 160.045 256.949 159.448C257.995 158.851 259.208 158.552 260.589 158.552C261.952 158.552 263.156 158.851 264.201 159.448C265.247 160.045 266.049 160.904 266.609 162.024C267.188 163.125 267.477 164.413 267.477 165.888C267.477 167.363 267.188 168.651 266.609 169.752C266.049 170.853 265.247 171.703 264.201 172.3C263.156 172.897 261.952 173.196 260.589 173.196ZM260.561 170.956C261.868 170.956 262.867 170.527 263.557 169.668C264.248 168.809 264.593 167.549 264.593 165.888C264.593 164.264 264.239 163.013 263.529 162.136C262.839 161.259 261.859 160.82 260.589 160.82C259.301 160.82 258.303 161.259 257.593 162.136C256.884 163.013 256.529 164.264 256.529 165.888C256.529 167.549 256.875 168.809 257.565 169.668C258.275 170.527 259.273 170.956 260.561 170.956ZM276.915 173.196C275.496 173.196 274.255 172.897 273.191 172.3C272.146 171.703 271.343 170.863 270.783 169.78C270.223 168.679 269.943 167.4 269.943 165.944C269.943 164.488 270.232 163.2 270.811 162.08C271.408 160.96 272.239 160.092 273.303 159.476C274.367 158.86 275.608 158.552 277.027 158.552C278.016 158.552 278.968 158.72 279.883 159.056C280.798 159.373 281.535 159.812 282.095 160.372L281.227 162.416C279.902 161.371 278.567 160.848 277.223 160.848C275.86 160.848 274.796 161.296 274.031 162.192C273.266 163.069 272.883 164.311 272.883 165.916C272.883 167.521 273.266 168.763 274.031 169.64C274.796 170.499 275.86 170.928 277.223 170.928C278.604 170.928 279.939 170.405 281.227 169.36L282.095 171.404C281.498 171.964 280.732 172.403 279.799 172.72C278.884 173.037 277.923 173.196 276.915 173.196ZM297.664 158.888V173H294.864V170.592C294.453 171.432 293.837 172.076 293.016 172.524C292.213 172.972 291.27 173.196 290.188 173.196C288.937 173.196 287.836 172.897 286.884 172.3C285.95 171.703 285.222 170.863 284.7 169.78C284.177 168.679 283.916 167.4 283.916 165.944C283.916 164.488 284.177 163.2 284.7 162.08C285.241 160.96 285.988 160.092 286.94 159.476C287.892 158.86 288.974 158.552 290.188 158.552C291.27 158.552 292.213 158.785 293.016 159.252C293.818 159.7 294.434 160.344 294.864 161.184V158.888H297.664ZM290.86 170.956C292.129 170.956 293.109 170.517 293.8 169.64C294.509 168.744 294.864 167.493 294.864 165.888C294.864 164.264 294.509 163.013 293.8 162.136C293.109 161.259 292.12 160.82 290.832 160.82C289.562 160.82 288.564 161.277 287.836 162.192C287.126 163.088 286.772 164.339 286.772 165.944C286.772 167.531 287.126 168.763 287.836 169.64C288.564 170.517 289.572 170.956 290.86 170.956ZM301.818 152.392H304.618V173H301.818V152.392ZM309.015 153.064H317.303C319.394 153.064 321.018 153.577 322.175 154.604C323.351 155.612 323.939 156.993 323.939 158.748C323.939 160.503 323.342 161.893 322.147 162.92C320.971 163.928 319.357 164.432 317.303 164.432H311.899V173H309.015V153.064ZM316.967 162.136C318.349 162.136 319.385 161.847 320.075 161.268C320.785 160.689 321.139 159.849 321.139 158.748C321.139 157.665 320.785 156.835 320.075 156.256C319.385 155.677 318.349 155.388 316.967 155.388H311.899V162.136H316.967ZM345.057 153.064L336.265 173H333.829L325.037 153.064H328.061L335.061 169.36L342.089 153.064H345.057Z" fill="white"/>
<path d="M481.379 153.064H488.351C491.58 153.064 494.081 153.932 495.855 155.668C497.628 157.404 498.515 159.849 498.515 163.004C498.515 166.177 497.628 168.641 495.855 170.396C494.081 172.132 491.58 173 488.351 173H481.379V153.064ZM488.183 170.592C493.092 170.592 495.547 168.063 495.547 163.004C495.547 157.983 493.092 155.472 488.183 155.472H484.263V170.592H488.183ZM515.033 158.888L508.453 174.148C507.725 175.809 506.81 177.023 505.709 177.788C504.626 178.572 503.282 179.095 501.677 179.356L501.061 177.172C502.386 176.873 503.385 176.481 504.057 175.996C504.747 175.529 505.298 174.82 505.709 173.868L506.213 172.692L500.277 158.888H503.273L507.697 169.808L512.205 158.888H515.033ZM524.724 158.552C528.103 158.552 529.792 160.437 529.792 164.208V173H526.964V164.376C526.964 163.144 526.722 162.248 526.236 161.688C525.77 161.128 525.014 160.848 523.968 160.848C522.774 160.848 521.812 161.221 521.084 161.968C520.375 162.715 520.02 163.713 520.02 164.964V173H517.22V162.864C517.22 161.389 517.146 160.064 516.996 158.888H519.628L519.88 161.324C520.328 160.428 520.972 159.747 521.812 159.28C522.671 158.795 523.642 158.552 524.724 158.552ZM546.726 158.888V173H543.926V170.592C543.515 171.432 542.899 172.076 542.078 172.524C541.275 172.972 540.333 173.196 539.25 173.196C537.999 173.196 536.898 172.897 535.946 172.3C535.013 171.703 534.285 170.863 533.762 169.78C533.239 168.679 532.978 167.4 532.978 165.944C532.978 164.488 533.239 163.2 533.762 162.08C534.303 160.96 535.05 160.092 536.002 159.476C536.954 158.86 538.037 158.552 539.25 158.552C540.333 158.552 541.275 158.785 542.078 159.252C542.881 159.7 543.497 160.344 543.926 161.184V158.888H546.726ZM539.922 170.956C541.191 170.956 542.171 170.517 542.862 169.64C543.571 168.744 543.926 167.493 543.926 165.888C543.926 164.264 543.571 163.013 542.862 162.136C542.171 161.259 541.182 160.82 539.894 160.82C538.625 160.82 537.626 161.277 536.898 162.192C536.189 163.088 535.834 164.339 535.834 165.944C535.834 167.531 536.189 168.763 536.898 169.64C537.626 170.517 538.634 170.956 539.922 170.956ZM566.981 158.552C570.117 158.552 571.685 160.437 571.685 164.208V173H568.857V164.348C568.857 163.135 568.642 162.248 568.213 161.688C567.802 161.128 567.13 160.848 566.197 160.848C565.114 160.848 564.255 161.221 563.621 161.968C563.005 162.715 562.697 163.732 562.697 165.02V173H559.869V164.348C559.869 163.135 559.654 162.248 559.225 161.688C558.814 161.128 558.142 160.848 557.209 160.848C556.126 160.848 555.267 161.221 554.633 161.968C553.998 162.715 553.681 163.732 553.681 165.02V173H550.881V162.864C550.881 161.389 550.806 160.064 550.657 158.888H553.289L553.541 161.24C553.951 160.381 554.539 159.719 555.305 159.252C556.07 158.785 556.966 158.552 557.993 158.552C560.177 158.552 561.605 159.457 562.277 161.268C562.706 160.428 563.331 159.765 564.153 159.28C564.993 158.795 565.935 158.552 566.981 158.552ZM575.736 158.888H578.536V173H575.736V158.888ZM578.76 152.728V155.696H575.484V152.728H578.76ZM588.813 173.196C587.395 173.196 586.153 172.897 585.089 172.3C584.044 171.703 583.241 170.863 582.681 169.78C582.121 168.679 581.841 167.4 581.841 165.944C581.841 164.488 582.131 163.2 582.709 162.08C583.307 160.96 584.137 160.092 585.201 159.476C586.265 158.86 587.507 158.552 588.925 158.552C589.915 158.552 590.867 158.72 591.781 159.056C592.696 159.373 593.433 159.812 593.993 160.372L593.125 162.416C591.8 161.371 590.465 160.848 589.121 160.848C587.759 160.848 586.695 161.296 585.929 162.192C585.164 163.069 584.781 164.311 584.781 165.916C584.781 167.521 585.164 168.763 585.929 169.64C586.695 170.499 587.759 170.928 589.121 170.928C590.503 170.928 591.837 170.405 593.125 169.36L593.993 171.404C593.396 171.964 592.631 172.403 591.697 172.72C590.783 173.037 589.821 173.196 588.813 173.196ZM604.371 153.064H607.255V170.592H616.943V173H604.371V153.064ZM625.589 173.196C624.208 173.196 622.995 172.897 621.949 172.3C620.904 171.703 620.092 170.853 619.513 169.752C618.953 168.651 618.673 167.363 618.673 165.888C618.673 164.413 618.953 163.125 619.513 162.024C620.092 160.904 620.904 160.045 621.949 159.448C622.995 158.851 624.208 158.552 625.589 158.552C626.952 158.552 628.156 158.851 629.201 159.448C630.247 160.045 631.049 160.904 631.609 162.024C632.188 163.125 632.477 164.413 632.477 165.888C632.477 167.363 632.188 168.651 631.609 169.752C631.049 170.853 630.247 171.703 629.201 172.3C628.156 172.897 626.952 173.196 625.589 173.196ZM625.561 170.956C626.868 170.956 627.867 170.527 628.557 169.668C629.248 168.809 629.593 167.549 629.593 165.888C629.593 164.264 629.239 163.013 628.529 162.136C627.839 161.259 626.859 160.82 625.589 160.82C624.301 160.82 623.303 161.259 622.593 162.136C621.884 163.013 621.529 164.264 621.529 165.888C621.529 167.549 621.875 168.809 622.565 169.668C623.275 170.527 624.273 170.956 625.561 170.956ZM641.915 173.196C640.496 173.196 639.255 172.897 638.191 172.3C637.146 171.703 636.343 170.863 635.783 169.78C635.223 168.679 634.943 167.4 634.943 165.944C634.943 164.488 635.232 163.2 635.811 162.08C636.408 160.96 637.239 160.092 638.303 159.476C639.367 158.86 640.608 158.552 642.027 158.552C643.016 158.552 643.968 158.72 644.883 159.056C645.798 159.373 646.535 159.812 647.095 160.372L646.227 162.416C644.902 161.371 643.567 160.848 642.223 160.848C640.86 160.848 639.796 161.296 639.031 162.192C638.266 163.069 637.883 164.311 637.883 165.916C637.883 167.521 638.266 168.763 639.031 169.64C639.796 170.499 640.86 170.928 642.223 170.928C643.604 170.928 644.939 170.405 646.227 169.36L647.095 171.404C646.498 171.964 645.732 172.403 644.799 172.72C643.884 173.037 642.923 173.196 641.915 173.196ZM662.664 158.888V173H659.864V170.592C659.453 171.432 658.837 172.076 658.016 172.524C657.213 172.972 656.27 173.196 655.188 173.196C653.937 173.196 652.836 172.897 651.884 172.3C650.95 171.703 650.222 170.863 649.7 169.78C649.177 168.679 648.916 167.4 648.916 165.944C648.916 164.488 649.177 163.2 649.7 162.08C650.241 160.96 650.988 160.092 651.94 159.476C652.892 158.86 653.974 158.552 655.188 158.552C656.27 158.552 657.213 158.785 658.016 159.252C658.818 159.7 659.434 160.344 659.864 161.184V158.888H662.664ZM655.86 170.956C657.129 170.956 658.109 170.517 658.8 169.64C659.509 168.744 659.864 167.493 659.864 165.888C659.864 164.264 659.509 163.013 658.8 162.136C658.109 161.259 657.12 160.82 655.832 160.82C654.562 160.82 653.564 161.277 652.836 162.192C652.126 163.088 651.772 164.339 651.772 165.944C651.772 167.531 652.126 168.763 652.836 169.64C653.564 170.517 654.572 170.956 655.86 170.956ZM666.818 152.392H669.618V173H666.818V152.392ZM674.015 153.064H682.303C684.394 153.064 686.018 153.577 687.175 154.604C688.351 155.612 688.939 156.993 688.939 158.748C688.939 160.503 688.342 161.893 687.147 162.92C685.971 163.928 684.357 164.432 682.303 164.432H676.899V173H674.015V153.064ZM681.967 162.136C683.349 162.136 684.385 161.847 685.075 161.268C685.785 160.689 686.139 159.849 686.139 158.748C686.139 157.665 685.785 156.835 685.075 156.256C684.385 155.677 683.349 155.388 681.967 155.388H676.899V162.136H681.967ZM710.057 153.064L701.265 173H698.829L690.037 153.064H693.061L700.061 169.36L707.089 153.064H710.057Z" fill="white"/>
<path d="M838.379 153.064H845.351C848.58 153.064 851.081 153.932 852.855 155.668C854.628 157.404 855.515 159.849 855.515 163.004C855.515 166.177 854.628 168.641 852.855 170.396C851.081 172.132 848.58 173 845.351 173H838.379V153.064ZM845.183 170.592C850.092 170.592 852.547 168.063 852.547 163.004C852.547 157.983 850.092 155.472 845.183 155.472H841.263V170.592H845.183ZM872.033 158.888L865.453 174.148C864.725 175.809 863.81 177.023 862.709 177.788C861.626 178.572 860.282 179.095 858.677 179.356L858.061 177.172C859.386 176.873 860.385 176.481 861.057 175.996C861.747 175.529 862.298 174.82 862.709 173.868L863.213 172.692L857.277 158.888H860.273L864.697 169.808L869.205 158.888H872.033ZM881.724 158.552C885.103 158.552 886.792 160.437 886.792 164.208V173H883.964V164.376C883.964 163.144 883.722 162.248 883.236 161.688C882.77 161.128 882.014 160.848 880.968 160.848C879.774 160.848 878.812 161.221 878.084 161.968C877.375 162.715 877.02 163.713 877.02 164.964V173H874.22V162.864C874.22 161.389 874.146 160.064 873.996 158.888H876.628L876.88 161.324C877.328 160.428 877.972 159.747 878.812 159.28C879.671 158.795 880.642 158.552 881.724 158.552ZM903.726 158.888V173H900.926V170.592C900.515 171.432 899.899 172.076 899.078 172.524C898.275 172.972 897.333 173.196 896.25 173.196C894.999 173.196 893.898 172.897 892.946 172.3C892.013 171.703 891.285 170.863 890.762 169.78C890.239 168.679 889.978 167.4 889.978 165.944C889.978 164.488 890.239 163.2 890.762 162.08C891.303 160.96 892.05 160.092 893.002 159.476C893.954 158.86 895.037 158.552 896.25 158.552C897.333 158.552 898.275 158.785 899.078 159.252C899.881 159.7 900.497 160.344 900.926 161.184V158.888H903.726ZM896.922 170.956C898.191 170.956 899.171 170.517 899.862 169.64C900.571 168.744 900.926 167.493 900.926 165.888C900.926 164.264 900.571 163.013 899.862 162.136C899.171 161.259 898.182 160.82 896.894 160.82C895.625 160.82 894.626 161.277 893.898 162.192C893.189 163.088 892.834 164.339 892.834 165.944C892.834 167.531 893.189 168.763 893.898 169.64C894.626 170.517 895.634 170.956 896.922 170.956ZM923.981 158.552C927.117 158.552 928.685 160.437 928.685 164.208V173H925.857V164.348C925.857 163.135 925.642 162.248 925.213 161.688C924.802 161.128 924.13 160.848 923.197 160.848C922.114 160.848 921.255 161.221 920.621 161.968C920.005 162.715 919.697 163.732 919.697 165.02V173H916.869V164.348C916.869 163.135 916.654 162.248 916.225 161.688C915.814 161.128 915.142 160.848 914.209 160.848C913.126 160.848 912.267 161.221 911.633 161.968C910.998 162.715 910.681 163.732 910.681 165.02V173H907.881V162.864C907.881 161.389 907.806 160.064 907.657 158.888H910.289L910.541 161.24C910.951 160.381 911.539 159.719 912.305 159.252C913.07 158.785 913.966 158.552 914.993 158.552C917.177 158.552 918.605 159.457 919.277 161.268C919.706 160.428 920.331 159.765 921.153 159.28C921.993 158.795 922.935 158.552 923.981 158.552ZM932.736 158.888H935.536V173H932.736V158.888ZM935.76 152.728V155.696H932.484V152.728H935.76ZM945.813 173.196C944.395 173.196 943.153 172.897 942.089 172.3C941.044 171.703 940.241 170.863 939.681 169.78C939.121 168.679 938.841 167.4 938.841 165.944C938.841 164.488 939.131 163.2 939.709 162.08C940.307 160.96 941.137 160.092 942.201 159.476C943.265 158.86 944.507 158.552 945.925 158.552C946.915 158.552 947.867 158.72 948.781 159.056C949.696 159.373 950.433 159.812 950.993 160.372L950.125 162.416C948.8 161.371 947.465 160.848 946.121 160.848C944.759 160.848 943.695 161.296 942.929 162.192C942.164 163.069 941.781 164.311 941.781 165.916C941.781 167.521 942.164 168.763 942.929 169.64C943.695 170.499 944.759 170.928 946.121 170.928C947.503 170.928 948.837 170.405 950.125 169.36L950.993 171.404C950.396 171.964 949.631 172.403 948.697 172.72C947.783 173.037 946.821 173.196 945.813 173.196ZM961.371 153.064H964.255V170.592H973.943V173H961.371V153.064ZM982.589 173.196C981.208 173.196 979.995 172.897 978.949 172.3C977.904 171.703 977.092 170.853 976.513 169.752C975.953 168.651 975.673 167.363 975.673 165.888C975.673 164.413 975.953 163.125 976.513 162.024C977.092 160.904 977.904 160.045 978.949 159.448C979.995 158.851 981.208 158.552 982.589 158.552C983.952 158.552 985.156 158.851 986.201 159.448C987.247 160.045 988.049 160.904 988.609 162.024C989.188 163.125 989.477 164.413 989.477 165.888C989.477 167.363 989.188 168.651 988.609 169.752C988.049 170.853 987.247 171.703 986.201 172.3C985.156 172.897 983.952 173.196 982.589 173.196ZM982.561 170.956C983.868 170.956 984.867 170.527 985.557 169.668C986.248 168.809 986.593 167.549 986.593 165.888C986.593 164.264 986.239 163.013 985.529 162.136C984.839 161.259 983.859 160.82 982.589 160.82C981.301 160.82 980.303 161.259 979.593 162.136C978.884 163.013 978.529 164.264 978.529 165.888C978.529 167.549 978.875 168.809 979.565 169.668C980.275 170.527 981.273 170.956 982.561 170.956ZM998.915 173.196C997.496 173.196 996.255 172.897 995.191 172.3C994.146 171.703 993.343 170.863 992.783 169.78C992.223 168.679 991.943 167.4 991.943 165.944C991.943 164.488 992.232 163.2 992.811 162.08C993.408 160.96 994.239 160.092 995.303 159.476C996.367 158.86 997.608 158.552 999.027 158.552C1000.02 158.552 1000.97 158.72 1001.88 159.056C1002.8 159.373 1003.53 159.812 1004.09 160.372L1003.23 162.416C1001.9 161.371 1000.57 160.848 999.223 160.848C997.86 160.848 996.796 161.296 996.031 162.192C995.266 163.069 994.883 164.311 994.883 165.916C994.883 167.521 995.266 168.763 996.031 169.64C996.796 170.499 997.86 170.928 999.223 170.928C1000.6 170.928 1001.94 170.405 1003.23 169.36L1004.09 171.404C1003.5 171.964 1002.73 172.403 1001.8 172.72C1000.88 173.037 999.923 173.196 998.915 173.196ZM1019.66 158.888V173H1016.86V170.592C1016.45 171.432 1015.84 172.076 1015.02 172.524C1014.21 172.972 1013.27 173.196 1012.19 173.196C1010.94 173.196 1009.84 172.897 1008.88 172.3C1007.95 171.703 1007.22 170.863 1006.7 169.78C1006.18 168.679 1005.92 167.4 1005.92 165.944C1005.92 164.488 1006.18 163.2 1006.7 162.08C1007.24 160.96 1007.99 160.092 1008.94 159.476C1009.89 158.86 1010.97 158.552 1012.19 158.552C1013.27 158.552 1014.21 158.785 1015.02 159.252C1015.82 159.7 1016.43 160.344 1016.86 161.184V158.888H1019.66ZM1012.86 170.956C1014.13 170.956 1015.11 170.517 1015.8 169.64C1016.51 168.744 1016.86 167.493 1016.86 165.888C1016.86 164.264 1016.51 163.013 1015.8 162.136C1015.11 161.259 1014.12 160.82 1012.83 160.82C1011.56 160.82 1010.56 161.277 1009.84 162.192C1009.13 163.088 1008.77 164.339 1008.77 165.944C1008.77 167.531 1009.13 168.763 1009.84 169.64C1010.56 170.517 1011.57 170.956 1012.86 170.956ZM1023.82 152.392H1026.62V173H1023.82V152.392ZM1031.02 153.064H1039.3C1041.39 153.064 1043.02 153.577 1044.18 154.604C1045.35 155.612 1045.94 156.993 1045.94 158.748C1045.94 160.503 1045.34 161.893 1044.15 162.92C1042.97 163.928 1041.36 164.432 1039.3 164.432H1033.9V173H1031.02V153.064ZM1038.97 162.136C1040.35 162.136 1041.38 161.847 1042.08 161.268C1042.78 160.689 1043.14 159.849 1043.14 158.748C1043.14 157.665 1042.78 156.835 1042.08 156.256C1041.38 155.677 1040.35 155.388 1038.97 155.388H1033.9V162.136H1038.97ZM1067.06 153.064L1058.27 173H1055.83L1047.04 153.064H1050.06L1057.06 169.36L1064.09 153.064H1067.06Z" fill="white"/>
<rect x="82" width="312" height="48" fill="#C4C4C4"/>
<rect x="439" width="312" height="48" fill="#C4C4C4"/>
<rect x="796" width="312" height="48" fill="#C4C4C4"/>
<path d="M221.197 16.064H229.485C231.576 16.064 233.2 16.5773 234.357 17.604C235.533 18.612 236.121 19.9933 236.121 21.748C236.121 23.5027 235.524 24.8933 234.329 25.92C233.153 26.928 231.538 27.432 229.485 27.432H224.081V36H221.197V16.064ZM229.149 25.136C230.53 25.136 231.566 24.8467 232.257 24.268C232.966 23.6893 233.321 22.8493 233.321 21.748C233.321 20.6653 232.966 19.8347 232.257 19.256C231.566 18.6773 230.53 18.388 229.149 18.388H224.081V25.136H229.149ZM257.239 16.064L248.447 36H246.011L237.219 16.064H240.243L247.243 32.36L254.271 16.064H257.239Z" fill="black"/>
<path d="M578.197 16.064H586.485C588.576 16.064 590.2 16.5773 591.357 17.604C592.533 18.612 593.121 19.9933 593.121 21.748C593.121 23.5027 592.524 24.8933 591.329 25.92C590.153 26.928 588.538 27.432 586.485 27.432H581.081V36H578.197V16.064ZM586.149 25.136C587.53 25.136 588.566 24.8467 589.257 24.268C589.966 23.6893 590.321 22.8493 590.321 21.748C590.321 20.6653 589.966 19.8347 589.257 19.256C588.566 18.6773 587.53 18.388 586.149 18.388H581.081V25.136H586.149ZM614.239 16.064L605.447 36H603.011L594.219 16.064H597.243L604.243 32.36L611.271 16.064H614.239Z" fill="black"/>
<path d="M935.197 16.064H943.485C945.576 16.064 947.2 16.5773 948.357 17.604C949.533 18.612 950.121 19.9933 950.121 21.748C950.121 23.5027 949.524 24.8933 948.329 25.92C947.153 26.928 945.538 27.432 943.485 27.432H938.081V36H935.197V16.064ZM943.149 25.136C944.53 25.136 945.566 24.8467 946.257 24.268C946.966 23.6893 947.321 22.8493 947.321 21.748C947.321 20.6653 946.966 19.8347 946.257 19.256C945.566 18.6773 944.53 18.388 943.149 18.388H938.081V25.136H943.149ZM971.239 16.064L962.447 36H960.011L951.219 16.064H954.243L961.243 32.36L968.271 16.064H971.239Z" fill="black"/>
<rect y="407" width="1190" height="74" fill="#C4C4C4"/>
<path d="M535.88 451L526.052 441.592V451H523.168V431.064H526.052V440.136L535.46 431.064H539.016L528.964 440.696L539.52 451H535.88ZM553.063 436.888V451H550.319V448.648C549.871 449.469 549.255 450.104 548.471 450.552C547.687 450.981 546.8 451.196 545.811 451.196C542.413 451.196 540.715 449.311 540.715 445.54V436.888H543.515V445.512C543.515 446.669 543.748 447.528 544.215 448.088C544.7 448.629 545.428 448.9 546.399 448.9C547.556 448.9 548.48 448.527 549.171 447.78C549.88 447.033 550.235 446.044 550.235 444.812V436.888H553.063ZM564.681 436.552C565.913 436.552 567.005 436.851 567.957 437.448C568.909 438.045 569.646 438.895 570.169 439.996C570.691 441.097 570.953 442.376 570.953 443.832C570.953 445.288 570.682 446.576 570.141 447.696C569.618 448.797 568.881 449.656 567.929 450.272C566.977 450.888 565.894 451.196 564.681 451.196C563.598 451.196 562.646 450.972 561.825 450.524C561.022 450.057 560.415 449.395 560.005 448.536V451H557.205V430.392H560.005V439.212C560.415 438.372 561.022 437.719 561.825 437.252C562.646 436.785 563.598 436.552 564.681 436.552ZM564.037 448.956C565.306 448.956 566.295 448.508 567.005 447.612C567.714 446.697 568.069 445.437 568.069 443.832C568.069 442.245 567.714 441.013 567.005 440.136C566.295 439.259 565.306 438.82 564.037 438.82C562.749 438.82 561.75 439.259 561.041 440.136C560.35 441.013 560.005 442.264 560.005 443.888C560.005 445.512 560.35 446.763 561.041 447.64C561.75 448.517 562.749 448.956 564.037 448.956ZM586.307 444H576.227C576.321 447.304 577.823 448.956 580.735 448.956C582.359 448.956 583.843 448.424 585.187 447.36L586.055 449.376C585.421 449.936 584.609 450.384 583.619 450.72C582.649 451.037 581.669 451.196 580.679 451.196C578.421 451.196 576.647 450.552 575.359 449.264C574.071 447.957 573.427 446.175 573.427 443.916C573.427 442.479 573.707 441.2 574.267 440.08C574.846 438.96 575.649 438.092 576.675 437.476C577.702 436.86 578.869 436.552 580.175 436.552C582.079 436.552 583.573 437.168 584.655 438.4C585.757 439.632 586.307 441.34 586.307 443.524V444ZM580.231 438.652C579.167 438.652 578.299 438.969 577.627 439.604C576.955 440.239 576.526 441.144 576.339 442.32H583.815C583.703 441.125 583.339 440.22 582.723 439.604C582.107 438.969 581.277 438.652 580.231 438.652ZM596.58 436.552C597.01 436.552 597.458 436.617 597.924 436.748L597.868 439.324C597.364 439.137 596.814 439.044 596.216 439.044C594.928 439.044 593.958 439.436 593.304 440.22C592.67 440.985 592.352 441.956 592.352 443.132V451H589.552V440.864C589.552 439.389 589.478 438.064 589.328 436.888H591.96L592.212 439.436C592.586 438.503 593.164 437.793 593.948 437.308C594.732 436.804 595.61 436.552 596.58 436.552ZM607.584 436.552C610.962 436.552 612.652 438.437 612.652 442.208V451H609.824V442.376C609.824 441.144 609.581 440.248 609.096 439.688C608.629 439.128 607.873 438.848 606.828 438.848C605.633 438.848 604.672 439.221 603.944 439.968C603.234 440.715 602.88 441.713 602.88 442.964V451H600.08V440.864C600.08 439.389 600.005 438.064 599.856 436.888H602.488L602.74 439.324C603.188 438.428 603.832 437.747 604.672 437.28C605.53 436.795 606.501 436.552 607.584 436.552ZM628.717 444H618.637C618.731 447.304 620.233 448.956 623.145 448.956C624.769 448.956 626.253 448.424 627.597 447.36L628.465 449.376C627.831 449.936 627.019 450.384 626.029 450.72C625.059 451.037 624.079 451.196 623.089 451.196C620.831 451.196 619.057 450.552 617.769 449.264C616.481 447.957 615.837 446.175 615.837 443.916C615.837 442.479 616.117 441.2 616.677 440.08C617.256 438.96 618.059 438.092 619.085 437.476C620.112 436.86 621.279 436.552 622.585 436.552C624.489 436.552 625.983 437.168 627.065 438.4C628.167 439.632 628.717 441.34 628.717 443.524V444ZM622.641 438.652C621.577 438.652 620.709 438.969 620.037 439.604C619.365 440.239 618.936 441.144 618.749 442.32H626.225C626.113 441.125 625.749 440.22 625.133 439.604C624.517 438.969 623.687 438.652 622.641 438.652ZM635.494 439.072V446.156C635.494 447.127 635.699 447.817 636.11 448.228C636.539 448.62 637.127 448.816 637.874 448.816C638.359 448.816 638.854 448.741 639.358 448.592V450.888C638.742 451.093 638.042 451.196 637.258 451.196C635.802 451.196 634.673 450.785 633.87 449.964C633.067 449.143 632.666 447.948 632.666 446.38V439.072H629.922V436.888H632.666V433.36L635.494 432.38V436.888H639.386V439.072H635.494ZM654.038 444H643.958C644.051 447.304 645.554 448.956 648.466 448.956C650.09 448.956 651.574 448.424 652.918 447.36L653.786 449.376C653.151 449.936 652.339 450.384 651.35 450.72C650.379 451.037 649.399 451.196 648.41 451.196C646.151 451.196 644.378 450.552 643.09 449.264C641.802 447.957 641.158 446.175 641.158 443.916C641.158 442.479 641.438 441.2 641.998 440.08C642.576 438.96 643.379 438.092 644.406 437.476C645.432 436.86 646.599 436.552 647.906 436.552C649.81 436.552 651.303 437.168 652.386 438.4C653.487 439.632 654.038 441.34 654.038 443.524V444ZM647.962 438.652C646.898 438.652 646.03 438.969 645.358 439.604C644.686 440.239 644.256 441.144 644.07 442.32H651.546C651.434 441.125 651.07 440.22 650.454 439.604C649.838 438.969 649.007 438.652 647.962 438.652ZM662.211 451.196C659.747 451.196 657.806 450.599 656.387 449.404L657.227 447.36C658.702 448.48 660.391 449.04 662.295 449.04C663.266 449.04 664.003 448.881 664.507 448.564C665.011 448.228 665.263 447.761 665.263 447.164C665.263 446.66 665.086 446.268 664.731 445.988C664.395 445.689 663.816 445.437 662.995 445.232L660.643 444.672C659.411 444.411 658.468 443.953 657.815 443.3C657.18 442.628 656.863 441.797 656.863 440.808C656.863 439.539 657.367 438.512 658.375 437.728C659.402 436.944 660.755 436.552 662.435 436.552C663.443 436.552 664.395 436.711 665.291 437.028C666.206 437.345 666.98 437.793 667.615 438.372L666.747 440.36C665.384 439.277 663.947 438.736 662.435 438.736C661.52 438.736 660.811 438.913 660.307 439.268C659.803 439.604 659.551 440.08 659.551 440.696C659.551 441.181 659.71 441.573 660.027 441.872C660.344 442.171 660.848 442.404 661.539 442.572L663.947 443.16C665.291 443.459 666.28 443.935 666.915 444.588C667.568 445.223 667.895 446.053 667.895 447.08C667.895 448.349 667.382 449.357 666.355 450.104C665.347 450.832 663.966 451.196 662.211 451.196Z" fill="black"/>
<rect y="281" width="1190" height="104" fill="#8500AC"/>
<path d="M524.857 333.176C529.209 339.619 534.137 346.168 539.641 352.824L539.513 353.976C536.143 354.787 532.729 355.363 529.273 355.704L528.057 355.064C522.809 347.384 518.436 340.579 514.937 334.648L514.809 341.752L515.193 355H504.825L505.337 342.776L504.825 313.72H515.321L515.001 332.152L525.049 317.88L527.353 313.72H538.425L524.857 333.176ZM570.676 348.536L569.78 353.848C567.988 355 566.153 355.576 564.276 355.576C561.801 355.064 560.094 353.379 559.156 350.52H558.516C556.041 352.995 553.545 354.616 551.028 355.384C547.828 355.384 545.374 354.659 543.668 353.208C541.961 351.715 541.108 349.603 541.108 346.872L541.3 339.704L540.98 325.688L550.708 324.92L550.58 343.16C550.537 345.933 551.646 347.32 553.908 347.32C554.676 347.32 555.401 347.171 556.084 346.872C556.766 346.573 557.513 346.083 558.324 345.4V325.688L567.924 324.92L567.348 346.552C567.348 347.149 567.433 347.576 567.604 347.832C567.817 348.088 568.137 348.216 568.564 348.216C568.948 348.216 569.417 348.131 569.972 347.96L570.676 348.536ZM592.136 324.664C595.891 324.664 598.792 325.944 600.84 328.504C602.888 331.064 603.912 334.627 603.912 339.192C603.912 344.483 602.568 348.557 599.88 351.416C597.235 354.275 593.566 355.704 588.872 355.704C586.526 355.704 583.944 355.192 581.128 354.168L576.264 355.768L575.24 354.808L575.752 342.776L575.304 310.776L585.416 310.072L585.096 329.336H585.416C586.526 328.227 587.614 327.309 588.68 326.584C589.747 325.816 590.899 325.176 592.136 324.664ZM588.552 349.24C592.478 349.24 594.44 346.403 594.44 340.728C594.355 335.395 592.627 332.728 589.256 332.728C587.806 332.728 586.398 333.325 585.032 334.52L584.904 341.496L584.968 348.472C586.334 348.984 587.528 349.24 588.552 349.24ZM632.989 341.688L616.221 341.816C616.519 344.035 617.287 345.677 618.525 346.744C619.762 347.811 621.511 348.344 623.773 348.344C626.034 348.344 629.021 347.683 632.733 346.36L633.501 346.872L631.965 354.104C628.551 355.171 625.458 355.704 622.685 355.704C617.778 355.704 613.917 354.317 611.101 351.544C608.327 348.771 606.941 344.952 606.941 340.088C606.941 335.224 608.285 331.405 610.973 328.632C613.661 325.816 617.309 324.408 621.917 324.408C625.885 324.408 628.957 325.475 631.133 327.608C633.351 329.741 634.461 332.707 634.461 336.504C634.461 337.741 634.333 339.043 634.077 340.408L632.989 341.688ZM625.693 335.416C625.693 332.472 624.413 331 621.853 331C620.402 331 619.207 331.491 618.269 332.472C617.33 333.411 616.69 334.776 616.349 336.568L625.565 336.312L625.693 335.416ZM657.217 324.984C657.473 324.984 657.985 325.027 658.753 325.112V334.392L657.729 334.712C657.131 334.413 656.342 334.264 655.361 334.264C653.057 334.264 650.945 335.501 649.025 337.976V341.752L649.473 355H639.361L639.873 342.776L639.425 325.688L649.089 324.92V330.68H649.537C651.542 326.883 654.102 324.984 657.217 324.984ZM674.344 324.408C677.885 324.408 680.637 325.176 682.6 326.712C684.562 328.205 685.544 330.36 685.544 333.176C685.544 334.157 685.501 335.288 685.416 336.568C685.33 337.848 685.266 339.064 685.224 340.216C685.01 343.288 684.904 345.4 684.904 346.552C684.904 347.149 684.989 347.576 685.16 347.832C685.373 348.088 685.714 348.216 686.184 348.216C686.568 348.216 687.037 348.131 687.592 347.96L688.296 348.536L687.4 353.848C685.992 354.829 684.264 355.405 682.216 355.576C680.936 355.448 679.848 355 678.952 354.232C678.056 353.464 677.416 352.376 677.032 350.968H676.584C674.45 353.229 672.274 354.787 670.056 355.64C666.898 355.597 664.402 354.744 662.568 353.08C660.776 351.416 659.88 349.155 659.88 346.296C659.88 341.901 662.184 339.32 666.792 338.552L676.264 336.952V335.096C676.264 333.773 675.965 332.835 675.368 332.28C674.813 331.683 673.896 331.384 672.616 331.384C671.336 331.384 669.949 331.661 668.456 332.216C667.005 332.771 665.32 333.645 663.4 334.84L662.76 334.392L661.608 327.8C663.528 326.733 665.597 325.901 667.816 325.304C670.034 324.707 672.21 324.408 674.344 324.408ZM670.76 342.776C670.12 342.904 669.629 343.16 669.288 343.544C668.989 343.928 668.84 344.504 668.84 345.272C668.84 346.296 669.096 347.085 669.608 347.64C670.162 348.195 670.909 348.472 671.848 348.472C673.213 348.472 674.664 347.747 676.2 346.296L676.264 341.688L670.76 342.776Z" fill="white"/>
<path d="M236.707 206.293C236.317 205.902 235.683 205.902 235.293 206.293L228.929 212.657C228.538 213.047 228.538 213.681 228.929 214.071C229.319 214.462 229.953 214.462 230.343 214.071L236 208.414L241.657 214.071C242.047 214.462 242.681 214.462 243.071 214.071C243.462 213.681 243.462 213.047 243.071 212.657L236.707 206.293ZM237 257L237 207L235 207L235 257L237 257Z" fill="black"/>
<path d="M595.707 206.293C595.317 205.902 594.683 205.902 594.293 206.293L587.929 212.657C587.538 213.047 587.538 213.681 587.929 214.071C588.319 214.462 588.953 214.462 589.343 214.071L595 208.414L600.657 214.071C601.047 214.462 601.681 214.462 602.071 214.071C602.462 213.681 602.462 213.047 602.071 212.657L595.707 206.293ZM596 257L596 207L594 207L594 257L596 257Z" fill="black"/>
<path d="M952.707 206.293C952.317 205.902 951.683 205.902 951.293 206.293L944.929 212.657C944.538 213.047 944.538 213.681 944.929 214.071C945.319 214.462 945.953 214.462 946.343 214.071L952 208.414L957.657 214.071C958.047 214.462 958.681 214.462 959.071 214.071C959.462 213.681 959.462 213.047 959.071 212.657L952.707 206.293ZM953 257L953 207L951 207L951 257L953 257Z" fill="black"/>
<path d="M236.707 67.2929C236.317 66.9024 235.683 66.9024 235.293 67.2929L228.929 73.6569C228.538 74.0474 228.538 74.6805 228.929 75.0711C229.319 75.4616 229.953 75.4616 230.343 75.0711L236 69.4142L241.657 75.0711C242.047 75.4616 242.681 75.4616 243.071 75.0711C243.462 74.6805 243.462 74.0474 243.071 73.6569L236.707 67.2929ZM237 118L237 68L235 68L235 118L237 118Z" fill="black"/>
<path d="M595.707 67.2929C595.317 66.9024 594.683 66.9024 594.293 67.2929L587.929 73.6569C587.538 74.0474 587.538 74.6805 587.929 75.0711C588.319 75.4616 588.953 75.4616 589.343 75.0711L595 69.4142L600.657 75.0711C601.047 75.4616 601.681 75.4616 602.071 75.0711C602.462 74.6805 602.462 74.0474 602.071 73.6569L595.707 67.2929ZM596 118L596 68L594 68L594 118L596 118Z" fill="black"/>
<path d="M952.707 67.2929C952.317 66.9024 951.683 66.9024 951.293 67.2929L944.929 73.6569C944.538 74.0474 944.538 74.6805 944.929 75.0711C945.319 75.4616 945.953 75.4616 946.343 75.0711L952 69.4142L957.657 75.0711C958.047 75.4616 958.681 75.4616 959.071 75.0711C959.462 74.6805 959.462 74.0474 959.071 73.6569L952.707 67.2929ZM953 118L953 68L951 68L951 118L953 118Z" fill="black"/>
</svg>
