<svg width="198" height="56" viewBox="0 0 198 56" fill="none" xmlns="http://www.w3.org/2000/svg">
<path d="M195.629 24.311C195.629 26.4311 193.933 28.2686 191.813 28.2686C189.693 28.2686 187.855 26.5724 187.855 24.4523C187.855 22.3322 189.551 20.4947 191.671 20.4947C193.792 20.4947 195.629 22.1908 195.629 24.311ZM175.558 1.83746C173.438 1.83746 171.601 3.67491 171.742 5.79505C171.742 7.91519 173.58 9.61131 175.7 9.61131C177.82 9.61131 179.516 7.77385 179.516 5.65371C179.516 3.53357 177.82 1.83746 175.558 1.83746ZM165.24 0C163.544 0 162.272 1.41343 162.272 3.10954C162.272 4.80565 163.686 6.07774 165.382 6.07774C167.078 6.07774 168.35 4.66431 168.35 2.9682C168.35 1.27208 166.936 0 165.24 0ZM190.399 13.7102C190.399 11.0247 188.138 8.90459 185.452 8.90459C182.767 8.90459 180.647 11.1661 180.647 13.8516C180.647 16.5371 182.908 18.6572 185.594 18.6572C188.279 18.5159 190.541 16.3958 190.399 13.7102ZM190.399 31.6608C188.845 31.6608 187.714 32.9329 187.714 34.4876C187.714 36.0424 188.986 37.1731 190.541 37.1731C192.095 37.1731 193.368 35.9011 193.226 34.3463C193.226 32.7915 191.954 31.6608 190.399 31.6608ZM183.191 36.7491C182.343 36.7491 181.636 37.4558 181.636 38.4452C181.636 39.2933 182.343 40 183.332 40C184.18 40 184.887 39.2933 184.887 38.3039C184.887 37.3145 184.039 36.6078 183.191 36.7491ZM158.739 5.79505C157.749 5.79505 156.901 6.64311 157.042 7.63251C157.184 8.62191 157.891 9.32862 158.88 9.32862C159.869 9.32862 160.717 8.48057 160.576 7.49117C160.435 6.50177 159.728 5.79505 158.739 5.79505ZM158.173 13.2862C157.325 13.2862 156.76 13.9929 156.76 14.6996C156.76 15.4064 157.466 16.1131 158.173 16.1131C158.88 16.1131 159.587 15.4064 159.587 14.6996C159.587 13.8516 159.021 13.2862 158.173 13.2862Z" fill="#055992"/>
<path d="M172.601 28.4098L178.254 22.7561C178.678 22.3321 178.678 21.7667 178.537 21.2013C178.254 20.6359 177.83 20.3533 177.124 20.3533C176.7 20.3533 176.417 20.4946 176.134 20.7773L170.48 26.431L164.685 20.6359C164.403 20.3533 163.979 20.2119 163.696 20.2119C163.131 20.2119 162.565 20.6359 162.283 21.06C162 21.6253 162.141 22.1907 162.565 22.6147L168.36 28.4098L162.707 34.0635C162.283 34.4875 162.141 35.0529 162.424 35.6183C162.707 36.1836 163.131 36.4663 163.837 36.4663C164.261 36.4663 164.544 36.325 164.827 36.0423L170.48 30.3886L176.134 35.6183C176.417 35.901 176.841 36.0423 177.124 36.0423C177.689 36.0423 178.254 35.7596 178.537 35.1942C178.82 34.6289 178.678 34.0635 178.254 33.6395L172.601 28.4098Z" fill="#1F2438"/>
<path d="M14.2968 20.2119H3.69611C2.70671 20.2119 2 21.06 2 22.0494V34.9116C2 35.7596 2.70671 36.6077 3.69611 36.6077H14.2968C16.417 36.6077 18.3958 34.6289 18.3958 32.6501V24.3109C18.3958 22.1907 16.417 20.2119 14.2968 20.2119ZM15.4276 32.5087C15.4276 33.0741 14.8622 33.6395 14.2968 33.6395C12.4594 33.6395 10.7633 33.6395 8.9258 33.6395H8.64311C7.37103 33.6395 6.24028 33.6395 4.9682 33.6395V23.1801H14.4382C15.0035 23.1801 15.5689 23.7455 15.5689 24.3109V32.5087H15.4276Z" fill="#1F2438"/>
<path d="M38.3248 20.2119H30.4096C28.0068 20.2119 26.1693 22.0494 26.1693 24.3109V35.1942C26.1693 36.0423 26.876 36.6077 27.5827 36.6077C28.4308 36.6077 28.9962 35.901 28.9962 35.1942V30.2472H39.5969V35.1942C39.5969 36.0423 40.3036 36.6077 41.0103 36.6077C41.8584 36.6077 42.4237 35.901 42.4237 35.1942V24.3109C42.7064 21.7667 40.4449 20.2119 38.3248 20.2119ZM39.7382 27.4204H29.1375V24.3109C29.1375 23.6041 29.8442 23.1801 30.5509 23.1801H38.4661C39.1728 23.1801 39.8796 23.6041 39.8796 24.3109V27.4204H39.7382Z" fill="#1F2438"/>
<path d="M61.7883 20.2119H50.3396C49.4915 20.2119 48.9261 20.9186 48.9261 21.6253C48.9261 22.4734 49.6329 23.0388 50.3396 23.0388H54.5799V35.1942C54.5799 36.0423 55.2866 36.6077 55.9933 36.6077C56.8413 36.6077 57.4067 35.901 57.4067 35.1942V23.1801H61.647C62.4951 23.1801 63.0604 22.4734 63.0604 21.7667C63.3431 20.9186 62.6364 20.2119 61.7883 20.2119Z" fill="#1F2438"/>
<path d="M82.2825 20.2119H74.3673C71.9645 20.2119 70.127 22.0494 70.127 24.3109V35.1942C70.127 36.0423 70.6924 36.6077 71.5405 36.6077C72.3885 36.6077 72.9539 35.901 72.9539 35.1942V30.2472H83.5546V35.1942C83.5546 36.0423 84.2613 36.6077 84.968 36.6077C85.8161 36.6077 86.3815 35.901 86.3815 35.1942V24.3109C86.5228 21.7667 84.4027 20.2119 82.2825 20.2119ZM83.6959 27.4204H73.0952V24.3109C73.0952 23.6041 73.802 23.1801 74.5087 23.1801H82.4239C83.1306 23.1801 83.8373 23.6041 83.8373 24.3109V27.4204H83.6959Z" fill="#1F2438"/>
<path d="M107.017 26.9964H98.2539C97.4059 26.9964 97.1232 25.8656 97.1232 25.0176C97.1232 24.3109 97.4059 23.1801 98.2539 23.1801H107.865C108.713 23.1801 109.279 22.4734 109.279 21.7667C109.279 20.9186 108.572 20.3533 107.865 20.3533H98.2539C95.5684 20.3533 94.2964 22.7561 94.2964 25.1589C94.2964 27.5618 95.5684 29.9646 98.3953 29.9646H107.017C107.865 29.9646 108.148 31.0953 108.148 31.9434C108.148 32.6501 107.865 33.7808 107.017 33.7808H95.9925C95.1444 33.7808 94.579 34.3462 94.579 35.1943C94.579 36.0423 95.2858 36.6077 95.9925 36.6077H107.017C109.844 36.6077 110.975 34.0635 110.975 31.802C110.975 29.3992 109.561 26.9964 107.017 26.9964Z" fill="#1F2438"/>
<path d="M130.057 20.2119H117.618C116.77 20.2119 116.205 20.9186 116.205 21.6253C116.205 22.4734 116.912 23.0388 117.618 23.0388H122.848V28.4098C122.848 30.954 122.848 33.4981 122.848 35.0529C122.848 35.901 123.555 36.4663 124.262 36.4663C125.11 36.4663 125.675 35.7596 125.675 35.0529V23.0388H129.915C130.763 23.0388 131.329 22.3321 131.329 21.6253C131.611 20.9186 130.905 20.2119 130.057 20.2119Z" fill="#1F2438"/>
<path d="M150.551 20.2119H142.636C140.233 20.2119 138.395 22.0494 138.395 24.3109V35.1942C138.395 36.0423 139.102 36.6077 139.809 36.6077C140.657 36.6077 141.222 35.901 141.222 35.1942V30.2472H151.823V35.1942C151.823 36.0423 152.53 36.6077 153.236 36.6077C154.085 36.6077 154.65 35.901 154.65 35.1942V24.3109C154.791 21.7667 152.53 20.2119 150.551 20.2119ZM151.823 27.4204H141.222V24.3109C141.222 23.6041 141.929 23.1801 142.636 23.1801H150.551C151.258 23.1801 151.964 23.6041 151.964 24.3109V27.4204H151.823Z" fill="#1F2438"/>
</svg>
