<svg xmlns="http://www.w3.org/2000/svg" class="svg" style="font-size:48px" id="Logo" preserveAspectRatio="xMidYMid meet" viewBox="0 0 581.1 42.52">
  <defs><style>.cls-1{fill:#262f3a;}</style></defs><title>Insight Partners</title>
  <g fill-rul="none-zero">
    <path class="cls-1" d="M570.81,3V8.54h-1.34V3h-1.9V1.73h5.14V3Z"></path>
    <path class="cls-1" d="M576.78,6.71,575.6,4.26V8.54h-1.3V1.73h1.31l1.68,3.5L579,1.73h1.3V8.54H579V4.26l-1.18,2.45Z"></path>
    <path class="cls-1" d="M527.76,35.14l4.15-4.93c3.75,3.25,7.56,5.1,12.37,5.1,4.26,0,7-2,7-4.93v-.11c0-2.8-1.57-4.31-8.85-6-8.34-2-13-4.48-13-11.71v-.11c0-6.72,5.6-11.37,13.39-11.37A21.74,21.74,0,0,1,556.94,6l-3.7,5.21c-3.52-2.63-7-4-10.64-4-4,0-6.38,2.07-6.38,4.64V12c0,3,1.79,4.36,9.35,6.16,8.29,2,12.55,5,12.55,11.48v.11c0,7.33-5.77,11.7-14,11.7A24.16,24.16,0,0,1,527.76,35.14Z"></path>
    <path class="cls-1" d="M480.2,1.58h14.62c12.32,0,20.83,8.46,20.83,19.49v.11c0,11-8.51,19.6-20.83,19.6H480.2Zm6.89,6.28V34.51h7.73c8.23,0,13.61-5.54,13.61-13.21v-.12c0-7.67-5.38-13.32-13.61-13.32Z"></path>
    <path class="cls-1" d="M442,1.59h6.34l17.12,39.19H458.2l-3.95-9.39h-18.4l-4,9.39h-7Zm9.78,23.74L445,9.77l-6.67,15.56Z"></path>
    <path class="cls-1" d="M374.92,21.36v-.11A20.08,20.08,0,0,1,395.47,1c12,0,20.44,9.13,20.44,20.16v.11a20.08,20.08,0,0,1-20.55,20.27C383.32,41.52,374.92,32.4,374.92,21.36Zm33.77,0v-.11c0-7.61-5.54-13.89-13.33-13.89s-13.21,6.16-13.21,13.78v.11c0,7.62,5.54,13.89,13.32,13.89S408.69,29,408.69,21.36Z"></path>
    <path class="cls-1" d="M328.37,1.64h17.47c4.93,0,8.79,1.46,11.31,3.92A11.87,11.87,0,0,1,360.4,14v.11c0,6.44-3.87,10.3-9.3,11.87l10.59,14.84h-8.18l-9.63-13.66h-8.63V40.84h-6.88Zm17,19.43c4.93,0,8.07-2.57,8.07-6.55v-.11c0-4.2-3-6.5-8.12-6.5h-10V21.07Z"></path>
    <path class="cls-1" d="M274.06,8H261.57V1.64h31.86V8H280.94V40.84h-6.88Z"></path>
    <path class="cls-1" d="M211.7,1.65h6.89V18H237.3V1.65h6.88v39.2H237.3V24.33H218.59V40.85H211.7Z"></path>
    <path class="cls-1" d="M157.53,21.06V21A20,20,0,0,1,177.75.67c6.83,0,11,1.91,15.06,5.32l-4.37,5.21a15.55,15.55,0,0,0-11-4.14c-7.23,0-12.71,6.27-12.71,13.77V21c0,8.06,5.32,14,13.32,14a16,16,0,0,0,9.47-3V24.7h-10V18.65h16.69V35.11a25,25,0,0,1-16.35,6.11C165.6,41.22,157.53,32.48,157.53,21.06Z"></path>
    <path class="cls-1" d="M134.56,1.65h6.89v39.2h-6.89Z"></path>
    <path class="cls-1" d="M88.07,1.65h29.41V7.81H95V18h19.65v6.22H95V34.69h22.45v6.16H88.07Z"></path>
    <path class="cls-1" d="M21.26,20.36c4.48-2,6.58-5.3,6.58-9.14,0-5.83-4.6-10.14-12.11-10.14-8,0-13.16,4.55-13.16,11.13,0,4.13,2,7,5.94,8.91-5.13,1.52-7.69,5-7.69,9.43,0,6.35,5.3,11.3,14.09,11.3,9.15,0,14.45-4.72,14.45-11.59C29.36,25.66,27,22.46,21.26,20.36Zm-6-15.43c3.56,0,6.06,2.68,6.06,6.69,0,1-.12,3.81-4,6.94-5.35-2.24-7.72-4.28-7.72-7.93A5.5,5.5,0,0,1,15.26,4.93Zm.06,33C10.6,38,7.64,34.51,7.64,30a8.32,8.32,0,0,1,3.42-6.34,9.94,9.94,0,0,1,1.1-.69c6.75,2.75,10.15,4.91,10.15,9C22.31,35.67,19.4,38,15.32,38Z"></path>
    <path class="cls-1" d="M52.25,1.09A7.48,7.48,0,0,0,45.86,4h0a7,7,0,0,0-5.19-2.89c-4.28-.07-7,2.51-7.14,6.5s2.66,6.65,6.84,6.71a7.44,7.44,0,0,0,6.38-2.87h0a7,7,0,0,0,5.13,2.85c4.28.11,7.11-2.47,7.2-6.46S56.43,1.16,52.25,1.09ZM39.91,10.85a3,3,0,0,1-3.22-3.29c0-2.1,1.28-3.24,3.53-3.2S44,6.79,44.07,7.14C44,7.54,42.68,10.9,39.91,10.85ZM52.45,11c-2.38,0-3.73-2.44-3.85-2.78.11-.4,1.39-3.76,4.17-3.72A3.05,3.05,0,0,1,56,7.82C55.94,9.92,54.7,11.06,52.45,11Z"></path>
  </g>
</svg>
