<svg xmlns="http://www.w3.org/2000/svg" viewBox="0 0 842.43 363.56"><defs><style>.cls-1{fill:#7d7e81;}.cls-1,.cls-2{fill-rule:evenodd;}.cls-2{fill:#f77800;}.cls-3{fill:none;stroke:#7d7e81;stroke-miterlimit:10;stroke-width:2px;}</style></defs><title>Insight Partners</title><path class="cls-1" d="M581.38,260.61a10.31,10.31,0,0,1,4.47,3.37,8.24,8.24,0,0,1,1.51,5,8.94,8.94,0,0,1-2.67,6.76,10.9,10.9,0,0,1-13.09.73,9.06,9.06,0,0,1-3.28-5.22l3.28-1.62a8.13,8.13,0,0,0,2.19,4.18,5.39,5.39,0,0,0,3.83,1.42,6.21,6.21,0,0,0,4.4-1.56,5.34,5.34,0,0,0,1.68-4.08,5.63,5.63,0,0,0-1.17-3.55,8.89,8.89,0,0,0-3.54-2.54l-3.7-1.58a10.45,10.45,0,0,1-4.51-3.26,7.78,7.78,0,0,1-1.49-4.78,6.83,6.83,0,0,1,2.41-5.35,9,9,0,0,1,6.15-2.12,9.3,9.3,0,0,1,4.74,1.16,7.92,7.92,0,0,1,3.13,3.43l-3,1.91a7.82,7.82,0,0,0-2.29-2.63,5,5,0,0,0-2.86-.86,4.56,4.56,0,0,0-3.33,1.25,4.19,4.19,0,0,0-1.3,3.17,4.25,4.25,0,0,0,1,2.81,8.38,8.38,0,0,0,3.1,2.09Zm-55-10.46v10.17h2.76q4.23,0,5.67-1.09c.95-.72,1.43-2,1.43-3.81s-.49-3.32-1.47-4.1-2.86-1.17-5.63-1.17Zm-3.53,27.35V247.1H530a21,21,0,0,1,4.48.34,6.7,6.7,0,0,1,2.5,1.17,7,7,0,0,1,2.1,2.84,10.15,10.15,0,0,1,.74,3.93,7.38,7.38,0,0,1-2.08,5.68q-2.09,1.94-6.12,1.94H531l11.61,14.5H538L526.91,263h-.52v14.5Zm-46.85,0V247.1h16v3.3H479.62v8.72H492v3.36H479.62v11.65H492v3.37Zm-57.65,0V245.89l22.24,24.3V247.1h3.45v31.58l-22.24-24V277.5Zm-40.93,0v-27h-8.6V247.1h20.81v3.44h-8.56v27Zm-49.24-27.35v10.17H331q4.23,0,5.67-1.09c.95-.72,1.43-2,1.43-3.81s-.49-3.32-1.47-4.1-2.86-1.17-5.63-1.17Zm-3.53,27.35V247.1h7.14a21,21,0,0,1,4.48.34,6.7,6.7,0,0,1,2.5,1.17,7,7,0,0,1,2.1,2.84,10.15,10.15,0,0,1,.74,3.93,7.38,7.38,0,0,1-2.08,5.68q-2.09,1.94-6.12,1.94h-.64l11.61,14.5H339.8L328.71,263h-.52v14.5ZM283,245.89l13.83,31.61H292.9L289,268.17H277.08l-3.95,9.33h-3.92Zm0,8-4.84,11.19h9.68ZM233,260.57h1.83q4.65,0,6.26-1.09c1.07-.72,1.61-2,1.61-3.81s-.55-3.3-1.65-4.09-3.18-1.18-6.22-1.18H233Zm0,3.29V277.5h-3.53V247.1h6.38a24.51,24.51,0,0,1,4.92.35,7.62,7.62,0,0,1,2.74,1.16,6.82,6.82,0,0,1,2.27,2.85,10.19,10.19,0,0,1,0,8,6.88,6.88,0,0,1-2.27,2.85,7.5,7.5,0,0,1-2.73,1.18,24.26,24.26,0,0,1-4.93.36Z"/><polyline  class="cls-2" points="137.76 88.91 137.76 91.35 121.6 91.35 121.6 210.52 137.76 210.52 137.76 212.96 79.95 212.96 79.95 210.52 96.11 210.52 96.11 91.35 79.95 91.35 79.95 88.91 137.76 88.91"/><polyline  class="cls-2" points="166.78 88.89 224.53 171.88 224.88 171.88 224.88 91.33 208.92 91.33 208.92 88.89 243.6 88.89 243.6 91.33 227.65 91.33 227.65 213.03 222.97 213.03 144.93 101.27 144.58 101.27 144.58 210.59 160.53 210.59 160.53 213.03 125.85 213.03 125.85 210.59 141.81 210.59 141.81 91.33 125.85 91.33 125.85 88.89 166.78 88.89"/><path class="cls-2" d="M248.25,175q.36,2.15,1.24,5.62a52.91,52.91,0,0,0,2.57,7.48,60.51,60.51,0,0,0,4.24,8.19,39.24,39.24,0,0,0,6.28,7.75,36.67,36.67,0,0,0,7.87,6.23,33.5,33.5,0,0,0,7.26,3.12,27,27,0,0,0,6.54,1.07c2.06.06,4,.09,5.75.09q9.38,0,15.39-2.94a27.31,27.31,0,0,0,9.46-7.22,26.43,26.43,0,0,0,4.87-9,29.5,29.5,0,0,0,1.41-8.28A18.08,18.08,0,0,0,318,176.25a24.93,24.93,0,0,0-8.23-7.12,58.85,58.85,0,0,0-11.67-4.81l-13.45-4a127.58,127.58,0,0,1-13.44-4.81,44.49,44.49,0,0,1-11.67-7.12,32.28,32.28,0,0,1-8.23-10.78q-3.1-6.4-3.1-16a31.17,31.17,0,0,1,3.19-13.71,37.58,37.58,0,0,1,8.84-11.67A44.88,44.88,0,0,1,273.82,88a45.85,45.85,0,0,1,17.07-3.12A44.11,44.11,0,0,1,301.15,86c2.94.71,5.54,1.45,7.78,2.23s4.21,1.51,5.92,2.22a12.2,12.2,0,0,0,4.69,1.07c1.65,0,2.74-.27,3.27-.8a9.44,9.44,0,0,0,1.69-2.94h2.83v33.84H325q-2.13-6.22-4.52-12.29a45.85,45.85,0,0,0-6.1-11A28.33,28.33,0,0,0,305,90.4q-5.67-3-14.33-3a36.56,36.56,0,0,0-12.47,2,28.77,28.77,0,0,0-9.11,5.17,22.85,22.85,0,0,0-5.66,7.12,17.85,17.85,0,0,0-2,8A16,16,0,0,0,264.79,120a28.23,28.23,0,0,0,8.58,7,65.14,65.14,0,0,0,12.12,5.08q6.81,2.14,14,4.45t14,5.08a47.82,47.82,0,0,1,12.12,7A33.93,33.93,0,0,1,334.14,159q3.27,6,3.27,15a39.74,39.74,0,0,1-3.54,16.56,41.48,41.48,0,0,1-10,13.72,49.29,49.29,0,0,1-15.39,9.35,54.65,54.65,0,0,1-19.9,3.47A56,56,0,0,1,277.71,216q-5.4-1.07-10.09-2.23t-8.31-2.22a21.06,21.06,0,0,0-5.4-1.07,6,6,0,0,0-3.53.8,7.13,7.13,0,0,0-1.95,3.3H245.6V175h2.65"/><polyline class="cls-2" points="397.28 88.89 397.28 91.33 381.1 91.33 381.1 210.59 397.28 210.59 397.28 213.03 339.4 213.03 339.4 210.59 355.59 210.59 355.59 91.33 339.4 91.33 339.4 88.89 397.28 88.89"/><path class="cls-2" d="M501.31,124.07q-4.49-17.46-13.45-27.16t-23.95-9.53q-11.9,0-19.13,4.72a31.71,31.71,0,0,0-11.12,12.28,51.62,51.62,0,0,0-5.08,17.28,158.4,158.4,0,0,0-1.21,19.68v15.5a151.16,151.16,0,0,0,2.07,27.25q2.07,11,6.46,17.81a24.92,24.92,0,0,0,11.38,9.71,42.66,42.66,0,0,0,16.63,2.94q7.92,0,12.58-2.94a19.37,19.37,0,0,0,7.15-8,34.77,34.77,0,0,0,3.19-12q.69-6.94.69-15.14v-6.77H469.77v-2.49H523v2.49h-11.2v40.79h-3.1a4.21,4.21,0,0,0-2-3.12,7.14,7.14,0,0,0-3.71-1,18.76,18.76,0,0,0-7.84,1.69l-8,3.66a79,79,0,0,1-9.91,3.65A47.44,47.44,0,0,1,463.74,217a60.42,60.42,0,0,1-24.3-5.08,66.22,66.22,0,0,1-20.6-13.89,68.13,68.13,0,0,1-14.22-20.75,65.66,65.66,0,0,1,.61-53.25,70.42,70.42,0,0,1,15.25-21A67.94,67.94,0,0,1,441.25,89.6a58.85,58.85,0,0,1,22.49-4.72,46.26,46.26,0,0,1,10,1.07q4.83,1.06,9,2.23t7.42,2.22a18.1,18.1,0,0,0,5.51,1.07,5.76,5.76,0,0,0,3.45-.8A6.89,6.89,0,0,0,501,87.73h2.93v36.34h-2.58"/><polygon class="cls-2" points="577.55 91.33 561.19 91.33 561.19 148.52 612.59 148.52 612.59 91.33 596.23 91.33 596.23 88.89 654.75 88.89 654.75 91.33 638.38 91.33 638.38 210.59 654.75 210.59 654.75 213.03 596.23 213.03 596.23 210.59 612.59 210.59 612.59 150.96 561.19 150.96 561.19 210.59 577.55 210.59 577.55 213.03 519.03 213.03 519.03 210.59 535.39 210.59 535.39 91.33 519.03 91.33 519.03 88.89 577.55 88.89 577.55 91.33"/><path class="cls-2" d="M688.73,91.37a45.86,45.86,0,0,0-11.53,1.32,23.8,23.8,0,0,0-9.09,4.57,29.49,29.49,0,0,0-7.16,9,76.4,76.4,0,0,0-5.77,14.76h-2.27V88.91H762.48v32.15h-2.27a77.09,77.09,0,0,0-5.76-14.76,29.66,29.66,0,0,0-7.17-9,23.8,23.8,0,0,0-9.09-4.57,45.86,45.86,0,0,0-11.53-1.32h-6.29V211.53h16.07V214H679v-2.46H695V91.37h-6.3"/><polyline class="cls-2" points="137.76 88.91 137.76 91.35 121.6 91.35 121.6 210.52 137.76 210.52 137.76 212.96 79.95 212.96 79.95 210.52 96.11 210.52 96.11 91.35 79.95 91.35 79.95 88.91 137.76 88.91"/><polyline class="cls-2" points="166.78 88.89 224.53 171.88 224.88 171.88 224.88 91.33 208.92 91.33 208.92 88.89 243.6 88.89 243.6 91.33 227.65 91.33 227.65 213.03 222.97 213.03 144.93 101.27 144.58 101.27 144.58 210.59 160.53 210.59 160.53 213.03 125.85 213.03 125.85 210.59 141.81 210.59 141.81 91.33 125.85 91.33 125.85 88.89 166.78 88.89"/><path class="cls-2" d="M248.25,175q.36,2.15,1.24,5.62a52.91,52.91,0,0,0,2.57,7.48,60.51,60.51,0,0,0,4.24,8.19,39.24,39.24,0,0,0,6.28,7.75,36.67,36.67,0,0,0,7.87,6.23,33.5,33.5,0,0,0,7.26,3.12,27,27,0,0,0,6.54,1.07c2.06.06,4,.09,5.75.09q9.38,0,15.39-2.94a27.31,27.31,0,0,0,9.46-7.22,26.43,26.43,0,0,0,4.87-9,29.5,29.5,0,0,0,1.41-8.28A18.08,18.08,0,0,0,318,176.25a24.93,24.93,0,0,0-8.23-7.12,58.85,58.85,0,0,0-11.67-4.81l-13.45-4a127.58,127.58,0,0,1-13.44-4.81,44.49,44.49,0,0,1-11.67-7.12,32.28,32.28,0,0,1-8.23-10.78q-3.1-6.4-3.1-16a31.17,31.17,0,0,1,3.19-13.71,37.58,37.58,0,0,1,8.84-11.67A44.88,44.88,0,0,1,273.82,88a45.85,45.85,0,0,1,17.07-3.12A44.11,44.11,0,0,1,301.15,86c2.94.71,5.54,1.45,7.78,2.23s4.21,1.51,5.92,2.22a12.2,12.2,0,0,0,4.69,1.07c1.65,0,2.74-.27,3.27-.8a9.44,9.44,0,0,0,1.69-2.94h2.83v33.84H325q-2.13-6.22-4.52-12.29a45.85,45.85,0,0,0-6.1-11A28.33,28.33,0,0,0,305,90.4q-5.67-3-14.33-3a36.56,36.56,0,0,0-12.47,2,28.77,28.77,0,0,0-9.11,5.17,22.85,22.85,0,0,0-5.66,7.12,17.85,17.85,0,0,0-2,8A16,16,0,0,0,264.79,120a28.23,28.23,0,0,0,8.58,7,65.14,65.14,0,0,0,12.12,5.08q6.81,2.14,14,4.45t14,5.08a47.82,47.82,0,0,1,12.12,7A33.93,33.93,0,0,1,334.14,159q3.27,6,3.27,15a39.74,39.74,0,0,1-3.54,16.56,41.48,41.48,0,0,1-10,13.72,49.29,49.29,0,0,1-15.39,9.35,54.65,54.65,0,0,1-19.9,3.47A56,56,0,0,1,277.71,216q-5.4-1.07-10.09-2.23t-8.31-2.22a21.06,21.06,0,0,0-5.4-1.07,6,6,0,0,0-3.53.8,7.13,7.13,0,0,0-1.95,3.3H245.6V175h2.65"/><polyline class="cls-2" points="397.28 88.89 397.28 91.33 381.1 91.33 381.1 210.59 397.28 210.59 397.28 213.03 339.4 213.03 339.4 210.59 355.59 210.59 355.59 91.33 339.4 91.33 339.4 88.89 397.28 88.89"/><path class="cls-2" d="M501.31,124.07q-4.49-17.46-13.45-27.16t-23.95-9.53q-11.9,0-19.13,4.72a31.71,31.71,0,0,0-11.12,12.28,51.62,51.62,0,0,0-5.08,17.28,158.4,158.4,0,0,0-1.21,19.68v15.5a151.16,151.16,0,0,0,2.07,27.25q2.07,11,6.46,17.81a24.92,24.92,0,0,0,11.38,9.71,42.66,42.66,0,0,0,16.63,2.94q7.92,0,12.58-2.94a19.37,19.37,0,0,0,7.15-8,34.77,34.77,0,0,0,3.19-12q.69-6.94.69-15.14v-6.77H469.77v-2.49H523v2.49h-11.2v40.79h-3.1a4.21,4.21,0,0,0-2-3.12,7.14,7.14,0,0,0-3.71-1,18.76,18.76,0,0,0-7.84,1.69l-8,3.66a79,79,0,0,1-9.91,3.65A47.44,47.44,0,0,1,463.74,217a60.42,60.42,0,0,1-24.3-5.08,66.22,66.22,0,0,1-20.6-13.89,68.13,68.13,0,0,1-14.22-20.75,65.66,65.66,0,0,1,.61-53.25,70.42,70.42,0,0,1,15.25-21A67.94,67.94,0,0,1,441.25,89.6a58.85,58.85,0,0,1,22.49-4.72,46.26,46.26,0,0,1,10,1.07q4.83,1.06,9,2.23t7.42,2.22a18.1,18.1,0,0,0,5.51,1.07,5.76,5.76,0,0,0,3.45-.8A6.89,6.89,0,0,0,501,87.73h2.93v36.34h-2.58"/><polygon class="cls-2" points="577.55 91.33 561.19 91.33 561.19 148.52 612.59 148.52 612.59 91.33 596.23 91.33 596.23 88.89 654.75 88.89 654.75 91.33 638.38 91.33 638.38 210.59 654.75 210.59 654.75 213.03 596.23 213.03 596.23 210.59 612.59 210.59 612.59 150.96 561.19 150.96 561.19 210.59 577.55 210.59 577.55 213.03 519.03 213.03 519.03 210.59 535.39 210.59 535.39 91.33 519.03 91.33 519.03 88.89 577.55 88.89 577.55 91.33"/><path class="cls-2" d="M688.73,91.37a45.86,45.86,0,0,0-11.53,1.32,23.8,23.8,0,0,0-9.09,4.57,29.49,29.49,0,0,0-7.16,9,76.4,76.4,0,0,0-5.77,14.76h-2.27V88.91H762.48v32.15h-2.27a77.09,77.09,0,0,0-5.76-14.76,29.66,29.66,0,0,0-7.17-9,23.8,23.8,0,0,0-9.09-4.57,45.86,45.86,0,0,0-11.53-1.32h-6.29V211.53h16.07V214H679v-2.46H695V91.37h-6.3"/><polyline class="cls-2" points="137.76 88.91 137.76 91.35 121.6 91.35 121.6 210.52 137.76 210.52 137.76 212.96 79.95 212.96 79.95 210.52 96.11 210.52 96.11 91.35 79.95 91.35 79.95 88.91 137.76 88.91"/><polyline class="cls-2" points="166.78 88.89 224.53 171.88 224.88 171.88 224.88 91.33 208.92 91.33 208.92 88.89 243.6 88.89 243.6 91.33 227.65 91.33 227.65 213.03 222.97 213.03 144.93 101.27 144.58 101.27 144.58 210.59 160.53 210.59 160.53 213.03 125.85 213.03 125.85 210.59 141.81 210.59 141.81 91.33 125.85 91.33 125.85 88.89 166.78 88.89"/><path class="cls-2" d="M248.25,175q.36,2.15,1.24,5.62a52.91,52.91,0,0,0,2.57,7.48,60.51,60.51,0,0,0,4.24,8.19,39.24,39.24,0,0,0,6.28,7.75,36.67,36.67,0,0,0,7.87,6.23,33.5,33.5,0,0,0,7.26,3.12,27,27,0,0,0,6.54,1.07c2.06.06,4,.09,5.75.09q9.38,0,15.39-2.94a27.31,27.31,0,0,0,9.46-7.22,26.43,26.43,0,0,0,4.87-9,29.5,29.5,0,0,0,1.41-8.28A18.08,18.08,0,0,0,318,176.25a24.93,24.93,0,0,0-8.23-7.12,58.85,58.85,0,0,0-11.67-4.81l-13.45-4a127.58,127.58,0,0,1-13.44-4.81,44.49,44.49,0,0,1-11.67-7.12,32.28,32.28,0,0,1-8.23-10.78q-3.1-6.4-3.1-16a31.17,31.17,0,0,1,3.19-13.71,37.58,37.58,0,0,1,8.84-11.67A44.88,44.88,0,0,1,273.82,88a45.85,45.85,0,0,1,17.07-3.12A44.11,44.11,0,0,1,301.15,86c2.94.71,5.54,1.45,7.78,2.23s4.21,1.51,5.92,2.22a12.2,12.2,0,0,0,4.69,1.07c1.65,0,2.74-.27,3.27-.8a9.44,9.44,0,0,0,1.69-2.94h2.83v33.84H325q-2.13-6.22-4.52-12.29a45.85,45.85,0,0,0-6.1-11A28.33,28.33,0,0,0,305,90.4q-5.67-3-14.33-3a36.56,36.56,0,0,0-12.47,2,28.77,28.77,0,0,0-9.11,5.17,22.85,22.85,0,0,0-5.66,7.12,17.85,17.85,0,0,0-2,8A16,16,0,0,0,264.79,120a28.23,28.23,0,0,0,8.58,7,65.14,65.14,0,0,0,12.12,5.08q6.81,2.14,14,4.45t14,5.08a47.82,47.82,0,0,1,12.12,7A33.93,33.93,0,0,1,334.14,159q3.27,6,3.27,15a39.74,39.74,0,0,1-3.54,16.56,41.48,41.48,0,0,1-10,13.72,49.29,49.29,0,0,1-15.39,9.35,54.65,54.65,0,0,1-19.9,3.47A56,56,0,0,1,277.71,216q-5.4-1.07-10.09-2.23t-8.31-2.22a21.06,21.06,0,0,0-5.4-1.07,6,6,0,0,0-3.53.8,7.13,7.13,0,0,0-1.95,3.3H245.6V175h2.65"/><polyline class="cls-2" points="397.28 88.89 397.28 91.33 381.1 91.33 381.1 210.59 397.28 210.59 397.28 213.03 339.4 213.03 339.4 210.59 355.59 210.59 355.59 91.33 339.4 91.33 339.4 88.89 397.28 88.89"/><path class="cls-2" d="M501.31,124.07q-4.49-17.46-13.45-27.16t-23.95-9.53q-11.9,0-19.13,4.72a31.71,31.71,0,0,0-11.12,12.28,51.62,51.62,0,0,0-5.08,17.28,158.4,158.4,0,0,0-1.21,19.68v15.5a151.16,151.16,0,0,0,2.07,27.25q2.07,11,6.46,17.81a24.92,24.92,0,0,0,11.38,9.71,42.66,42.66,0,0,0,16.63,2.94q7.92,0,12.58-2.94a19.37,19.37,0,0,0,7.15-8,34.77,34.77,0,0,0,3.19-12q.69-6.94.69-15.14v-6.77H469.77v-2.49H523v2.49h-11.2v40.79h-3.1a4.21,4.21,0,0,0-2-3.12,7.14,7.14,0,0,0-3.71-1,18.76,18.76,0,0,0-7.84,1.69l-8,3.66a79,79,0,0,1-9.91,3.65A47.44,47.44,0,0,1,463.74,217a60.42,60.42,0,0,1-24.3-5.08,66.22,66.22,0,0,1-20.6-13.89,68.13,68.13,0,0,1-14.22-20.75,65.66,65.66,0,0,1,.61-53.25,70.42,70.42,0,0,1,15.25-21A67.94,67.94,0,0,1,441.25,89.6a58.85,58.85,0,0,1,22.49-4.72,46.26,46.26,0,0,1,10,1.07q4.83,1.06,9,2.23t7.42,2.22a18.1,18.1,0,0,0,5.51,1.07,5.76,5.76,0,0,0,3.45-.8A6.89,6.89,0,0,0,501,87.73h2.93v36.34h-2.58"/><polygon class="cls-2" points="577.55 91.33 561.19 91.33 561.19 148.52 612.59 148.52 612.59 91.33 596.23 91.33 596.23 88.89 654.75 88.89 654.75 91.33 638.38 91.33 638.38 210.59 654.75 210.59 654.75 213.03 596.23 213.03 596.23 210.59 612.59 210.59 612.59 150.96 561.19 150.96 561.19 210.59 577.55 210.59 577.55 213.03 519.03 213.03 519.03 210.59 535.39 210.59 535.39 91.33 519.03 91.33 519.03 88.89 577.55 88.89 577.55 91.33"/><path class="cls-2" d="M688.73,91.37a45.86,45.86,0,0,0-11.53,1.32,23.8,23.8,0,0,0-9.09,4.57,29.49,29.49,0,0,0-7.16,9,76.4,76.4,0,0,0-5.77,14.76h-2.27V88.91H762.48v32.15h-2.27a77.09,77.09,0,0,0-5.76-14.76,29.66,29.66,0,0,0-7.17-9,23.8,23.8,0,0,0-9.09-4.57,45.86,45.86,0,0,0-11.53-1.32h-6.29V211.53h16.07V214H679v-2.46H695V91.37h-6.3"/><line class="cls-3" x1="623.78" y1="262.17" x2="737.78" y2="262.17"/><line class="cls-3" x1="80" y1="262.17" x2="193" y2="262.17"/></svg>