<svg width="289" height="225" viewBox="0 0 289 225" fill="none" xmlns="http://www.w3.org/2000/svg">
<path d="M167.897 220.312H100.965L103.234 190.71H165.628L167.897 220.312Z" fill="#E6E6E6"/>
<path d="M172.435 216.897H97.5625V223.729H172.435V216.897Z" fill="#E6E6E6"/>
<path d="M262.622 0H6.80662C5.00139 0 3.2701 0.719739 1.99361 2.00087C0.717127 3.28201 0 5.0196 0 6.8314V163.384H269.429V6.8314C269.429 5.0196 268.712 3.28201 267.435 2.00087C266.158 0.719739 264.427 0 262.622 0Z" fill="#3F3D56"/>
<path d="M0 163.384V189.002C0 189.899 0.176056 190.788 0.51812 191.616C0.860185 192.445 1.36156 193.198 1.99361 193.833C2.62566 194.467 3.37602 194.97 4.20184 195.313C5.02765 195.657 5.91276 195.833 6.80662 195.833H262.622C263.516 195.833 264.401 195.657 265.226 195.313C266.052 194.97 266.803 194.467 267.435 193.833C268.067 193.198 268.568 192.445 268.91 191.616C269.252 190.788 269.429 189.899 269.429 189.002V163.384H0Z" fill="#E6E6E6"/>
<path d="M256.382 14.2319H13.6133V150.86H256.382V14.2319Z" fill="#E6E6E6"/>
<path d="M134.998 186.155C138.757 186.155 141.805 183.096 141.805 179.324C141.805 175.551 138.757 172.492 134.998 172.492C131.239 172.492 128.191 175.551 128.191 179.324C128.191 183.096 131.239 186.155 134.998 186.155Z" fill="#3F3D56"/>
<path d="M21.1824 20.0029C21.8958 20.0029 22.4741 19.4225 22.4741 18.7066C22.4741 17.9906 21.8958 17.4102 21.1824 17.4102C20.4689 17.4102 19.8906 17.9906 19.8906 18.7066C19.8906 19.4225 20.4689 20.0029 21.1824 20.0029Z" fill="white"/>
<path d="M26.0846 20.0029C26.7981 20.0029 27.3764 19.4225 27.3764 18.7066C27.3764 17.9906 26.7981 17.4102 26.0846 17.4102C25.3713 17.4102 24.793 17.9906 24.793 18.7066C24.793 19.4225 25.3713 20.0029 26.0846 20.0029Z" fill="white"/>
<path d="M30.9871 20.0029C31.7004 20.0029 32.2788 19.4225 32.2788 18.7066C32.2788 17.9906 31.7004 17.4102 30.9871 17.4102C30.2736 17.4102 29.6953 17.9906 29.6953 18.7066C29.6953 19.4225 30.2736 20.0029 30.9871 20.0029Z" fill="white"/>
<path d="M278.703 92.3999C278.703 92.3999 280.783 119.545 277.871 120.38C274.958 121.216 264.555 127.48 247.911 125.81C247.911 125.81 231.683 134.579 234.179 126.227C236.676 117.875 247.911 119.963 247.911 119.963C247.911 119.963 267.884 115.787 268.716 112.863C269.548 109.94 266.219 97.8292 267.468 97.4111C268.716 96.9936 278.703 92.3999 278.703 92.3999Z" fill="#FFB8B8"/>
<path opacity="0.2" d="M277.302 92.751C277.302 92.751 279.383 119.896 276.47 120.731C273.558 121.567 263.155 127.831 246.51 126.161C246.51 126.161 230.282 134.93 232.779 126.578C235.275 118.226 246.51 120.314 246.51 120.314C246.51 120.314 266.484 116.138 267.316 113.214C268.148 110.291 264.819 98.1797 266.068 97.7622C267.316 97.3447 277.302 92.751 277.302 92.751Z" fill="#231F20"/>
<path d="M253.938 136.419C253.938 136.419 255.4 182.107 257.896 187.953C259.976 192.824 261.189 208.704 261.537 213.874C261.606 214.911 261.641 215.517 261.641 215.517C261.641 215.517 268.299 215.517 268.715 213.846C269.131 212.176 270.379 193.8 268.715 187.953C267.05 182.107 271.086 138.879 271.086 138.879L253.938 136.419Z" fill="#712800"/>
<path d="M263.307 213.427C263.307 213.427 259.146 214.681 258.313 216.351C257.481 218.022 243.749 220.945 247.91 223.033C252.072 225.121 264.555 221.362 264.555 221.362C264.555 221.362 271.213 220.945 270.797 218.439C270.38 215.934 268.865 212.846 268.865 212.846L263.307 213.427Z" fill="#4F1C01"/>
<path d="M274.959 214.762C274.959 214.762 270.797 216.015 269.965 217.685C269.133 219.356 255.402 222.28 259.563 224.368C263.724 226.456 276.207 222.697 276.207 222.697C276.207 222.697 282.865 222.28 282.449 219.773C282.033 217.268 280.517 214.18 280.517 214.18L274.959 214.762Z" fill="#4F1C01"/>
<path d="M257.48 138.756L263.306 148.779L273.028 183.627C273.028 183.627 272.044 215.598 273.292 215.598C274.541 215.598 281.199 217.687 281.615 215.598C281.966 213.835 286.627 196.938 284.304 185.692C282.792 178.584 281.821 171.371 281.396 164.116L280.366 144.602C280.366 144.602 284.528 137.086 279.95 135.832C275.373 134.58 257.48 138.756 257.48 138.756Z" fill="#712800"/>
<path d="M262.891 74.4426C268.406 74.4426 272.877 69.9548 272.877 64.4196C272.877 58.8839 268.406 54.3965 262.891 54.3965C257.375 54.3965 252.904 58.8839 252.904 64.4196C252.904 69.9548 257.375 74.4426 262.891 74.4426Z" fill="#FFB8B8"/>
<path d="M261.643 71.1005C261.643 71.1005 263.307 84.4648 262.891 85.2997C262.475 86.1347 272.877 76.1123 272.877 76.1123C272.877 76.1123 269.132 70.2655 269.964 67.3418L261.643 71.1005Z" fill="#FFB8B8"/>
<path d="M284.945 84.4649C284.945 84.4649 273.294 76.1125 272.878 74.4419L264.139 81.9593L262.654 80.1855C262.654 80.1855 255.817 86.9705 255.817 89.8942C255.817 92.8173 255.401 101.587 256.649 104.093C257.897 106.599 252.904 138.338 252.904 138.338C252.904 138.338 257.065 142.097 257.481 142.514C257.897 142.932 274.542 140.009 274.542 140.009C274.542 140.009 282.864 139.173 282.864 137.921C282.864 136.667 280.368 117.875 281.2 112.863C282.032 107.852 284.945 84.4649 284.945 84.4649Z" fill="#FC8340"/>
<path d="M258.627 59.4117C259.992 58.9241 261.498 58.6736 262.889 59.0779C264.859 59.65 266.224 61.3831 267.695 62.8166C269.166 64.2499 271.23 65.5203 273.168 64.8465C273.051 64.0033 273.272 63.1483 273.781 62.4679C274.034 62.2143 274.22 61.9021 274.325 61.5589C274.408 61.0221 273.958 60.559 273.823 60.0329C273.587 59.111 274.234 57.849 273.438 57.3323C273.228 57.1959 272.962 57.1648 272.756 57.0209C271.951 56.4559 272.845 55.0508 272.312 54.222C272.153 54.008 271.946 53.8344 271.708 53.7154C267.847 51.4542 263.125 51.448 258.655 51.5049C258.032 51.5129 257.166 51.8231 257.342 52.4223C256.497 51.8137 255.39 52.6683 254.71 53.4571L253.316 55.0716C252.661 55.7737 252.089 56.5496 251.612 57.3839C251.187 58.2011 251.093 59.4574 251.94 59.8136C251.31 59.5487 250.546 63.2937 253.45 62.6775C255.137 62.3195 256.791 60.0672 258.627 59.4117Z" fill="#2F2E41"/>
<path d="M249.385 23.1118H19.8906V137.857H249.385V23.1118Z" fill="white"/>
<path d="M83.9071 39.9751H33.748V83.9439H83.9071V39.9751Z" fill="#E6E6E6"/>
<path d="M159.795 40.1074H109.787V83.9437H159.795V40.1074Z" fill="#E6E6E6"/>
<path d="M235.53 39.6763H185.031V83.9426H235.53V39.6763Z" fill="#E6E6E6"/>
<path d="M82.807 103.135H33.748V107.683H82.807V103.135Z" fill="#E6E6E6"/>
<path d="M58.3278 111.143H33.748V115.692H58.3278V111.143Z" fill="#8500AC"/>
<path d="M159.664 103.135H110.605V107.683H159.664V103.135Z" fill="#E6E6E6"/>
<path d="M135.185 111.143H110.605V115.692H135.185V111.143Z" fill="#8500AC"/>
<path d="M234.6 103.135H185.541V107.683H234.6V103.135Z" fill="#E6E6E6"/>
<path d="M210.121 111.143H185.541V115.692H210.121V111.143Z" fill="#8500AC"/>
<path d="M125.848 95.8482C127.126 95.8482 128.164 94.808 128.164 93.5243C128.164 92.2406 127.126 91.1997 125.848 91.1997C124.568 91.1997 123.531 92.2406 123.531 93.5243C123.531 94.808 124.568 95.8482 125.848 95.8482Z" fill="#8500AC"/>
<path d="M134.638 95.8482C135.917 95.8482 136.955 94.808 136.955 93.5243C136.955 92.2406 135.917 91.1997 134.638 91.1997C133.359 91.1997 132.322 92.2406 132.322 93.5243C132.322 94.808 133.359 95.8482 134.638 95.8482Z" fill="#E6E6E6"/>
<path d="M143.429 95.8482C144.708 95.8482 145.745 94.808 145.745 93.5243C145.745 92.2406 144.708 91.1997 143.429 91.1997C142.15 91.1997 141.113 92.2406 141.113 93.5243C141.113 94.808 142.15 95.8482 143.429 95.8482Z" fill="#E6E6E6"/>
<path d="M50.0347 95.8482C51.3138 95.8482 52.3507 94.808 52.3507 93.5243C52.3507 92.2406 51.3138 91.1997 50.0347 91.1997C48.7557 91.1997 47.7188 92.2406 47.7188 93.5243C47.7188 94.808 48.7557 95.8482 50.0347 95.8482Z" fill="#8500AC"/>
<path d="M58.8257 95.8482C60.1048 95.8482 61.1416 94.808 61.1416 93.5243C61.1416 92.2406 60.1048 91.1997 58.8257 91.1997C57.5466 91.1997 56.5098 92.2406 56.5098 93.5243C56.5098 94.808 57.5466 95.8482 58.8257 95.8482Z" fill="#8500AC"/>
<path d="M67.6166 95.8482C68.8958 95.8482 69.9324 94.808 69.9324 93.5243C69.9324 92.2406 68.8958 91.1997 67.6166 91.1997C66.3374 91.1997 65.3008 92.2406 65.3008 93.5243C65.3008 94.808 66.3374 95.8482 67.6166 95.8482Z" fill="#E6E6E6"/>
<path d="M203.531 95.8482C204.81 95.8482 205.847 94.808 205.847 93.5243C205.847 92.2406 204.81 91.1997 203.531 91.1997C202.252 91.1997 201.215 92.2406 201.215 93.5243C201.215 94.808 202.252 95.8482 203.531 95.8482Z" fill="#8500AC"/>
<path d="M212.32 95.8482C213.599 95.8482 214.636 94.808 214.636 93.5243C214.636 92.2406 213.599 91.1997 212.32 91.1997C211.04 91.1997 210.004 92.2406 210.004 93.5243C210.004 94.808 211.04 95.8482 212.32 95.8482Z" fill="#8500AC"/>
<path d="M221.113 95.8482C222.392 95.8482 223.429 94.808 223.429 93.5243C223.429 92.2406 222.392 91.1997 221.113 91.1997C219.833 91.1997 218.797 92.2406 218.797 93.5243C218.797 94.808 219.833 95.8482 221.113 95.8482Z" fill="#8500AC"/>
<path d="M210.281 48.9238C207.742 48.9238 205.259 49.6796 203.147 51.0955C201.036 52.5115 199.39 54.524 198.419 56.8786C197.447 59.2332 197.193 61.8242 197.688 64.324C198.184 66.8238 199.406 69.1197 201.202 70.9216C202.998 72.7242 205.285 73.9512 207.776 74.4483C210.266 74.9455 212.848 74.6905 215.194 73.7153C217.54 72.7395 219.545 71.088 220.956 68.9693C222.367 66.85 223.12 64.3584 223.12 61.8099C223.11 58.3954 221.755 55.1236 219.349 52.7091C216.943 50.2947 213.683 48.9338 210.281 48.9238ZM210.281 52.7896C211.043 52.7896 211.788 53.0163 212.421 53.4412C213.054 53.8659 213.548 54.4697 213.839 55.1761C214.131 55.8824 214.208 56.6597 214.059 57.4096C213.91 58.1595 213.543 58.8484 213.005 59.389C212.466 59.9296 211.779 60.2979 211.032 60.447C210.285 60.5962 209.51 60.5196 208.807 60.227C208.103 59.9344 207.501 59.4389 207.078 58.8032C206.655 58.1674 206.429 57.42 206.429 56.6555C206.432 55.6313 206.84 54.6499 207.561 53.9257C208.283 53.2014 209.26 52.7931 210.281 52.7896ZM210.281 71.4003C208.759 71.3933 207.262 71.0134 205.92 70.2944C204.577 69.5754 203.43 68.539 202.577 67.2738C202.639 64.6968 207.713 63.2782 210.281 63.2782C212.849 63.2782 217.923 64.6968 217.984 67.2738C217.131 68.5378 215.983 69.5742 214.641 70.2931C213.299 71.0115 211.802 71.392 210.281 71.4003Z" fill="#8500AC"/>
<path d="M134.791 49.1392C132.251 49.1391 129.769 49.8949 127.658 51.3108C125.546 52.7267 123.901 54.7393 122.929 57.0939C121.957 59.4486 121.702 62.0395 122.198 64.5394C122.693 67.0386 123.917 69.3351 125.712 71.137C127.508 72.9389 129.795 74.1666 132.286 74.6637C134.777 75.1609 137.358 74.9059 139.704 73.9307C142.05 72.9549 144.055 71.3034 145.466 69.184C146.877 67.0653 147.63 64.5738 147.63 62.0252C147.62 58.6107 146.264 55.3389 143.858 52.9244C141.453 50.51 138.193 49.1491 134.791 49.1392ZM134.791 53.005C135.553 53.005 136.297 53.2317 136.93 53.6564C137.564 54.0813 138.058 54.685 138.349 55.3914C138.641 56.0978 138.717 56.8751 138.569 57.625C138.42 58.3749 138.053 59.0637 137.514 59.6043C136.976 60.145 136.29 60.5132 135.542 60.6623C134.795 60.8115 134.021 60.7349 133.317 60.4423C132.613 60.1498 132.011 59.6542 131.588 59.0185C131.165 58.3828 130.939 57.6354 130.939 56.8708C130.942 55.8466 131.349 54.8652 132.071 54.141C132.792 53.4168 133.77 53.0084 134.791 53.005ZM134.791 71.6157C133.269 71.6087 131.772 71.2288 130.43 70.5098C129.087 69.7908 127.94 68.7544 127.087 67.4892C127.149 64.9122 132.223 63.4935 134.791 63.4935C137.359 63.4935 142.433 64.9122 142.494 67.4892C141.641 68.7532 140.493 69.7896 139.151 70.5086C137.808 71.2269 136.312 71.6074 134.791 71.6157Z" fill="#8500AC"/>
<path d="M58.8257 49.0732C56.2863 49.0732 53.804 49.829 51.6925 51.245C49.5811 52.6609 47.9355 54.6734 46.9637 57.028C45.9919 59.3827 45.7376 61.9736 46.2331 64.4732C46.7285 66.973 47.9513 69.2689 49.7469 71.0715C51.5425 72.8734 53.8303 74.1004 56.3209 74.5976C58.8114 75.0954 61.393 74.8398 63.739 73.8646C66.0853 72.8893 68.0905 71.2379 69.5012 69.1185C70.9119 66.9992 71.6652 64.5082 71.6652 61.9594C71.655 58.5449 70.2989 55.273 67.8936 52.8585C65.4876 50.4441 62.2278 49.0832 58.8257 49.0732ZM58.8257 52.9391C59.5875 52.9391 60.3322 53.1658 60.9656 53.5906C61.5991 54.0154 62.0927 54.6191 62.3843 55.3255C62.6758 56.0319 62.7521 56.8092 62.6035 57.5591C62.4548 58.309 62.088 58.9978 61.5494 59.5385C61.0107 60.0791 60.3243 60.4473 59.5772 60.5965C58.83 60.7456 58.0555 60.6691 57.3517 60.3765C56.6479 60.0839 56.0463 59.5884 55.623 58.9527C55.1998 58.3169 54.9739 57.5695 54.9739 56.8049C54.9773 55.7807 55.3842 54.7994 56.1058 54.0751C56.8274 53.3509 57.8052 52.9425 58.8257 52.9391ZM58.8257 71.5495C57.3041 71.5425 55.8071 71.1633 54.4647 70.4443C53.1223 69.7253 51.9749 68.6883 51.1221 67.4237C51.1838 64.8461 56.2578 63.4276 58.8257 63.4276C61.3936 63.4276 66.4676 64.8461 66.5292 67.4237C65.6756 68.6876 64.5278 69.7234 63.1857 70.4424C61.8435 71.1614 60.3471 71.5412 58.8257 71.5495Z" fill="#8500AC"/>
<path d="M287.441 96.1592C287.441 96.1592 289.521 123.304 286.608 124.14C283.696 124.975 273.293 131.239 256.649 129.569C256.649 129.569 240.421 138.339 242.917 129.987C245.414 121.635 256.649 123.723 256.649 123.723C256.649 123.723 276.622 119.546 277.454 116.623C278.286 113.7 274.958 101.588 276.206 101.171C277.454 100.754 287.441 96.1592 287.441 96.1592Z" fill="#FFB8B8"/>
<path d="M278.286 85.2998L284.944 84.4648C284.944 84.4648 291.602 97.4109 287.857 99.499C284.112 101.587 274.541 103.258 274.541 102.422C274.541 101.587 278.286 85.2998 278.286 85.2998Z" fill="#FC8340"/>
</svg>
