<svg width="405" height="82" viewBox="0 0 405 82" fill="none" xmlns="http://www.w3.org/2000/svg">
<g clip-path="url(#clip0)">
<path d="M14.6099 40.1997C14.6099 42.0447 13.1781 43.4797 11.3372 43.4797H4.58718C2.74628 43.4797 1.31445 42.0447 1.31445 40.1997C1.31445 38.3547 2.74628 36.9197 4.58718 36.9197H11.1326C12.9735 36.7147 14.6099 38.3547 14.6099 40.1997Z" fill="#FF671D"/>
<path d="M41.957 40.1997C41.957 42.0447 40.5958 43.4797 38.8453 43.4797H22.7035C20.9533 43.4797 19.5918 42.0447 19.5918 40.1997C19.5918 38.3547 20.9533 36.9197 22.7035 36.9197H38.8453C40.4012 36.7147 41.957 38.3547 41.957 40.1997Z" fill="#FF671D"/>
<path d="M20.9546 21.7487C20.9546 23.5937 19.5932 25.0287 17.8429 25.0287H11.6195C9.86916 25.0287 8.50781 23.5937 8.50781 21.7487C8.50781 19.9035 9.86916 18.4685 11.6195 18.4685H17.8429C19.3987 18.2635 20.9546 19.9035 20.9546 21.7487Z" fill="#ABC8E7"/>
<path d="M48.9609 21.7487C48.9609 23.5937 47.5995 25.0287 45.8492 25.0287H29.7072C27.957 25.0287 26.5957 23.5937 26.5957 21.7487C26.5957 19.9035 27.957 18.4685 29.7072 18.4685H45.8492C47.4049 18.2635 48.9609 19.9035 48.9609 21.7487Z" fill="#ABC8E7"/>
<path d="M20.9546 58.6509C20.9546 60.4959 19.5932 61.9309 17.8429 61.9309H11.6195C9.86916 61.9309 8.50781 60.4959 8.50781 58.6509C8.50781 56.8059 9.86916 55.3709 11.6195 55.3709H17.8429C19.3987 55.1659 20.9546 56.8059 20.9546 58.6509Z" fill="#ABC8E7"/>
<path d="M48.9609 58.6509C48.9609 60.4959 47.5995 61.9309 45.8492 61.9309H29.7072C27.957 61.9309 26.5957 60.4959 26.5957 58.6509C26.5957 56.8059 27.957 55.3709 29.7072 55.3709H45.8492C47.4049 55.1659 48.9609 56.8059 48.9609 58.6509Z" fill="#ABC8E7"/>
<path d="M51.1014 2.88958C51.1014 4.52958 49.7402 5.75958 47.9899 5.75958H33.2092C31.4589 5.75958 30.0977 4.52958 30.0977 2.88958C30.0977 1.24958 31.4589 0.0195843 33.2092 0.0195843H47.9899C49.5456 -0.185416 51.1014 1.24958 51.1014 2.88958Z" fill="#4197CB"/>
<path d="M72.1061 2.88958C72.1061 4.52958 70.7446 5.75958 68.9943 5.75958H61.2151C59.4648 5.75958 58.1035 4.52958 58.1035 2.88958C58.1035 1.24958 59.4648 0.0195843 61.2151 0.0195843H68.9943C70.5501 -0.185416 72.1061 1.24958 72.1061 2.88958Z" fill="#4197CB"/>
<path d="M51.1014 77.3055C51.1014 78.9455 49.7402 80.1755 47.9899 80.1755H33.2092C31.4589 80.1755 30.0977 78.9455 30.0977 77.3055C30.0977 75.6655 31.4589 74.4355 33.2092 74.4355H47.9899C49.5456 74.4355 51.1014 75.6655 51.1014 77.3055Z" fill="#4197CB"/>
<path d="M72.1061 77.3055C72.1061 78.9455 70.7446 80.1755 68.9943 80.1755H61.2151C59.4648 80.1755 58.1035 78.9455 58.1035 77.3055C58.1035 75.6655 59.4648 74.4355 61.2151 74.4355H68.9943C70.5501 74.4355 72.1061 75.6655 72.1061 77.3055Z" fill="#4197CB"/>
<path d="M116.055 55.9842C125.293 55.9842 132.781 49.0087 132.781 40.4042C132.781 31.7996 125.293 24.8242 116.055 24.8242C106.818 24.8242 99.3301 31.7996 99.3301 40.4042C99.3301 49.0087 106.818 55.9842 116.055 55.9842Z" stroke="#FF671D" stroke-width="2.52" stroke-miterlimit="10"/>
<path d="M87.4699 50.6542C84.3584 53.9342 79.8854 55.9842 74.8288 55.9842C65.4937 55.9842 58.1035 49.0142 58.1035 40.4042C58.1035 31.7942 65.6883 24.8242 74.8288 24.8242C79.8854 24.8242 84.3584 26.8742 87.4699 30.1542" stroke="#FF671D" stroke-width="2.52" stroke-miterlimit="10" stroke-linecap="round"/>
<path d="M148.34 57.0079V26.2579C148.34 26.2579 163.898 22.1579 171.677 27.4879C176.54 30.7679 176.539 35.8929 176.345 56.3929" stroke="#FF671D" stroke-width="2.52" stroke-miterlimit="10" stroke-linecap="round"/>
<path d="M210.185 5.14453C210.185 5.14453 195.988 9.03951 195.988 19.0845C195.988 27.2846 195.988 57.0096 195.988 57.0096" stroke="#FF671D" stroke-width="2.52" stroke-miterlimit="10" stroke-linecap="round"/>
<path d="M204.74 25.4394C203.962 25.4394 195.988 24.2094 195.988 33.0244V57.0094" stroke="#FF671D" stroke-width="2.52" stroke-miterlimit="10" stroke-linecap="round"/>
<path d="M226.715 11.2949V57.01" stroke="#FF671D" stroke-width="2.52" stroke-miterlimit="10" stroke-linecap="round" stroke-linejoin="bevel"/>
<path d="M274.361 26.0545V54.5495C274.361 54.5495 258.22 58.6495 250.636 53.3195C245.773 50.0395 245.968 45.9395 246.162 25.6445" stroke="#FF671D" stroke-width="2.52" stroke-miterlimit="10" stroke-linecap="round"/>
<path d="M340.875 57.0079V26.2579C340.875 26.2579 356.435 22.1579 364.214 27.4879C369.076 30.7679 369.076 35.8929 368.881 56.3929" stroke="#FF671D" stroke-width="2.52" stroke-miterlimit="10" stroke-linecap="round"/>
<path d="M301.395 42.0444H322.594C322.594 42.0444 324.539 29.7444 313.453 26.2594C304.897 23.5944 290.311 25.6444 290.311 41.0194C290.311 58.0344 312.676 56.5994 323.177 54.7544" stroke="#FF671D" stroke-width="2.52" stroke-miterlimit="10" stroke-linecap="round"/>
<path d="M387.162 18.0586C387.162 18.0586 387.162 45.3237 387.162 47.1687C387.162 53.3187 391.441 56.5987 401.554 56.5987" stroke="#FF671D" stroke-width="2.52" stroke-miterlimit="10" stroke-linecap="round" stroke-linejoin="bevel"/>
<path d="M387.162 33.0256C387.162 24.2106 394.552 24.8256 395.137 24.8256" stroke="#FF671D" stroke-width="2.52" stroke-miterlimit="10" stroke-linecap="round" stroke-linejoin="bevel"/>
</g>
<defs>
<clipPath id="clip0">
<rect width="405" height="82" fill="white"/>
</clipPath>
</defs>
</svg>
