<svg fill="none" height="56" viewBox="0 0 198 56" width="198" xmlns="http://www.w3.org/2000/svg"><path d="m195.629 24.311c0 2.1201-1.696 3.9576-3.816 3.9576s-3.958-1.6962-3.958-3.8163 1.696-3.9576 3.816-3.9576c2.121 0 3.958 1.6961 3.958 3.8163zm-20.071-22.47354c-2.12 0-3.957 1.83745-3.816 3.95759 0 2.12014 1.838 3.81626 3.958 3.81626s3.816-1.83746 3.816-3.9576-1.696-3.81625-3.958-3.81625zm-10.318-1.83746c-1.696 0-2.968 1.41343-2.968 3.10954s1.414 2.9682 3.11 2.9682 2.968-1.41343 2.968-3.10954c0-1.69612-1.414-2.9682-3.11-2.9682zm25.159 13.7102c0-2.6855-2.261-4.80561-4.947-4.80561-2.685 0-4.805 2.26151-4.805 4.94701s2.261 4.8056 4.947 4.8056c2.685-.1413 4.947-2.2614 4.805-4.947zm0 17.9506c-1.554 0-2.685 1.2721-2.685 2.8268 0 1.5548 1.272 2.6855 2.827 2.6855 1.554 0 2.827-1.272 2.685-2.8268 0-1.5548-1.272-2.6855-2.827-2.6855zm-7.208 5.0883c-.848 0-1.555.7067-1.555 1.6961 0 .8481.707 1.5548 1.696 1.5548.848 0 1.555-.7067 1.555-1.6961s-.848-1.6961-1.696-1.5548zm-24.452-30.95405c-.99 0-1.838.84806-1.697 1.83746.142.9894.849 1.69611 1.838 1.69611s1.837-.84805 1.696-1.83745-.848-1.69612-1.837-1.69612zm-.566 7.49115c-.848 0-1.413.7067-1.413 1.4134 0 .7068.706 1.4135 1.413 1.4135s1.414-.7067 1.414-1.4135c0-.848-.566-1.4134-1.414-1.4134z" fill="#055992"/><g fill="#1f2438"><path d="m172.601 28.4098 5.653-5.6537c.424-.424.424-.9894.283-1.5548-.283-.5654-.707-.848-1.413-.848-.424 0-.707.1413-.99.424l-5.654 5.6537-5.795-5.7951c-.282-.2826-.706-.424-.989-.424-.565 0-1.131.424-1.413.8481-.283.5653-.142 1.1307.282 1.5547l5.795 5.7951-5.653 5.6537c-.424.424-.566.9894-.283 1.5548.283.5653.707.848 1.413.848.424 0 .707-.1413.99-.424l5.653-5.6537 5.654 5.2297c.283.2827.707.424.99.424.565 0 1.13-.2827 1.413-.8481.283-.5653.141-1.1307-.283-1.5547z"/><path d="m14.2968 20.2119h-10.60069c-.9894 0-1.69611.8481-1.69611 1.8375v12.8622c0 .848.70671 1.6961 1.69611 1.6961h10.60069c2.1202 0 4.099-1.9788 4.099-3.9576v-8.3392c0-2.1202-1.9788-4.099-4.099-4.099zm1.1308 12.2968c0 .5654-.5654 1.1308-1.1308 1.1308-1.8374 0-3.5335 0-5.371 0h-.28269c-1.27208 0-2.40283 0-3.67491 0v-10.4594h9.47c.5653 0 1.1307.5654 1.1307 1.1308v8.1978z"/><path d="m38.3248 20.2119h-7.9152c-2.4028 0-4.2403 1.8375-4.2403 4.099v10.8833c0 .8481.7067 1.4135 1.4134 1.4135.8481 0 1.4135-.7067 1.4135-1.4135v-4.947h10.6007v4.947c0 .8481.7067 1.4135 1.4134 1.4135.8481 0 1.4134-.7067 1.4134-1.4135v-10.8833c.2827-2.5442-1.9788-4.099-4.0989-4.099zm1.4134 7.2085h-10.6007v-3.1095c0-.7068.7067-1.1308 1.4134-1.1308h7.9152c.7067 0 1.4135.424 1.4135 1.1308v3.1095z"/><path d="m61.7883 20.2119h-11.4487c-.8481 0-1.4135.7067-1.4135 1.4134 0 .8481.7068 1.4135 1.4135 1.4135h4.2403v12.1554c0 .8481.7067 1.4135 1.4134 1.4135.848 0 1.4134-.7067 1.4134-1.4135v-12.0141h4.2403c.8481 0 1.4134-.7067 1.4134-1.4134.2827-.8481-.424-1.5548-1.2721-1.5548z"/><path d="m82.2825 20.2119h-7.9152c-2.4028 0-4.2403 1.8375-4.2403 4.099v10.8833c0 .8481.5654 1.4135 1.4135 1.4135.848 0 1.4134-.7067 1.4134-1.4135v-4.947h10.6007v4.947c0 .8481.7067 1.4135 1.4134 1.4135.8481 0 1.4135-.7067 1.4135-1.4135v-10.8833c.1413-2.5442-1.9788-4.099-4.099-4.099zm1.4134 7.2085h-10.6007v-3.1095c0-.7068.7068-1.1308 1.4135-1.1308h7.9152c.7067 0 1.4134.424 1.4134 1.1308v3.1095z"/><path d="m107.017 26.9964h-8.7631c-.848 0-1.1307-1.1308-1.1307-1.9788 0-.7067.2827-1.8375 1.1307-1.8375h9.6111c.848 0 1.414-.7067 1.414-1.4134 0-.8481-.707-1.4134-1.414-1.4134h-9.6111c-2.6855 0-3.9575 2.4028-3.9575 4.8056 0 2.4029 1.272 4.8057 4.0989 4.8057h8.6217c.848 0 1.131 1.1307 1.131 1.9788 0 .7067-.283 1.8374-1.131 1.8374h-11.0245c-.8481 0-1.4135.5654-1.4135 1.4135 0 .848.7068 1.4134 1.4135 1.4134h11.0245c2.827 0 3.958-2.5442 3.958-4.8057 0-2.4028-1.414-4.8056-3.958-4.8056z"/><path d="m130.057 20.2119h-12.439c-.848 0-1.413.7067-1.413 1.4134 0 .8481.707 1.4135 1.413 1.4135h5.23v5.371 6.6431c0 .8481.707 1.4134 1.414 1.4134.848 0 1.413-.7067 1.413-1.4134v-12.0141h4.24c.848 0 1.414-.7067 1.414-1.4135.282-.7067-.424-1.4134-1.272-1.4134z"/><path d="m150.551 20.2119h-7.915c-2.403 0-4.241 1.8375-4.241 4.099v10.8833c0 .8481.707 1.4135 1.414 1.4135.848 0 1.413-.7067 1.413-1.4135v-4.947h10.601v4.947c0 .8481.707 1.4135 1.413 1.4135.849 0 1.414-.7067 1.414-1.4135v-10.8833c.141-2.5442-2.12-4.099-4.099-4.099zm1.272 7.2085h-10.601v-3.1095c0-.7068.707-1.1308 1.414-1.1308h7.915c.707 0 1.413.424 1.413 1.1308v3.1095z"/></g></svg>