<svg width="293" height="257" viewBox="0 0 293 257" fill="none" xmlns="http://www.w3.org/2000/svg">
<path d="M237.513 243.216C258.205 243.216 274.979 240.342 274.979 236.796C274.979 233.251 258.205 230.377 237.513 230.377C216.821 230.377 200.047 233.251 200.047 236.796C200.047 240.342 216.821 243.216 237.513 243.216Z" fill="#301A47"/>
<path d="M124.072 234.426C154.706 234.426 179.541 232.676 179.541 230.518C179.541 228.359 154.706 226.609 124.072 226.609C93.4373 226.609 68.6035 228.359 68.6035 230.518C68.6035 232.676 93.4373 234.426 124.072 234.426Z" fill="#301A47"/>
<g opacity="0.3">
<path opacity="0.3" d="M90.6509 10.0482C100.585 1.23018 116.179 -0.56544 130.362 0.137741C174.938 2.33518 215.175 23.779 249.981 48.0231C262.588 56.8129 274.986 66.2589 283.165 78.3479C299.815 102.953 294.876 137.051 271.724 157.308C263.845 164.214 254.299 169.491 244.494 174.178C227.066 182.513 208.25 189.202 188.478 191.105C174.371 192.464 160.088 191.359 146.063 189.466C106.882 184.173 68.4226 172.467 36.1941 152.442C22.056 143.652 8.72776 132.741 2.90042 118.539C-2.92693 104.337 0.804587 86.3243 15.239 77.9144C21.2271 74.4364 28.3498 72.8667 35.34 71.3913C45.627 69.2191 56.0809 67.0783 65.3654 62.6643C74.9594 58.0999 86.3051 49.2819 84.4141 39.1926C82.3657 28.3592 80.7299 18.8537 90.6509 10.0482Z" fill="#A93DDB"/>
</g>
<g opacity="0.1">
<path opacity="0.1" d="M128.162 202.899C129.372 204.949 131.269 206.271 133.406 206.271C137.055 206.271 140.025 202.419 140.025 197.663C140.025 192.907 137.046 189.086 133.406 189.086C131.688 189.086 130.122 189.94 128.947 191.343C128.501 191.881 128.123 192.47 127.821 193.098L127.758 193.472C127.758 193.472 126.349 194.671 124.43 193.569V165.687H97.0991C96.8786 165.398 96.7324 165.06 96.675 164.702C96.6171 164.343 96.6492 163.977 96.7683 163.634C96.9725 162.997 97.4135 162.461 98.0008 162.137C100.059 160.931 101.389 159.041 101.389 156.913C101.389 153.278 97.5188 150.321 92.747 150.321C87.9758 150.321 84.105 153.268 84.105 156.913C84.105 158.624 84.9658 160.187 86.3747 161.358C86.9128 161.8 87.5032 162.175 88.1333 162.475L88.1711 162.538C88.5845 162.936 88.8586 163.457 88.9531 164.022C89.0476 164.587 88.9581 165.167 88.6973 165.677H76.3711V217.311C76.3711 220.558 77.666 223.672 79.9715 225.968C82.2765 228.264 85.4024 229.554 88.6626 229.554H124.439V202.155C124.731 201.879 125.094 201.689 125.487 201.606C125.881 201.523 126.289 201.55 126.668 201.684C127.303 201.884 127.838 202.319 128.162 202.899Z" fill="black"/>
<path opacity="0.1" d="M82.1633 164.601H86.443C85.4027 163.804 84.5577 162.783 83.9729 161.612C83.3882 160.442 83.0788 159.155 83.0681 157.848C83.0681 152.954 87.3541 148.989 92.6394 148.989C97.9248 148.989 102.214 152.954 102.214 157.848C102.203 159.155 101.894 160.442 101.308 161.612C100.724 162.783 99.8794 163.804 98.8384 164.601H124.493V137.092C124.786 136.819 125.149 136.631 125.541 136.548C125.934 136.465 126.342 136.49 126.721 136.621C127.363 136.823 127.902 137.262 128.227 137.848C129.435 139.898 131.332 141.22 133.472 141.22C137.121 141.22 140.09 137.368 140.09 132.615C140.09 127.863 137.134 124.008 133.472 124.008C131.751 124.008 130.184 124.865 129.009 126.265C128.564 126.803 128.187 127.392 127.884 128.02L127.824 128.057C127.402 128.497 126.842 128.78 126.236 128.86C125.631 128.941 125.016 128.813 124.493 128.5V100.624H98.18C97.9588 100.335 97.8133 99.9972 97.7553 99.6391C97.6973 99.2803 97.7295 98.9133 97.8492 98.5708C98.0514 97.9324 98.4931 97.3964 99.081 97.0734C101.14 95.8708 102.466 93.9781 102.466 91.8499C102.466 88.2148 98.599 85.2577 93.8278 85.2577C89.056 85.2577 85.1859 88.2054 85.1859 91.8499C85.1859 93.564 86.046 95.1236 87.4518 96.2949C87.9918 96.7373 88.5834 97.1137 89.2136 97.4153L89.2514 97.475C89.6647 97.8734 89.9388 98.3936 90.0333 98.9585C90.1285 99.5234 90.0384 100.104 89.7775 100.614H82.1633V99.2017H87.7857C86.7473 98.4068 85.9042 97.3864 85.3201 96.2189C84.7354 95.0514 84.426 93.7664 84.4134 92.4619C84.4134 87.5676 88.7 83.6001 93.9885 83.6001C99.2764 83.6001 103.56 87.5676 103.56 92.4619C103.547 93.7695 103.235 95.057 102.649 96.2264C102.061 97.3958 101.215 98.4169 100.172 99.2111H124.471V71.3665C124.763 71.0913 125.127 70.9015 125.52 70.8186C125.914 70.735 126.322 70.7621 126.702 70.8959C127.342 71.0982 127.88 71.5374 128.205 72.1231C129.413 74.1728 131.313 75.4942 133.45 75.4942C137.099 75.4942 140.068 71.643 140.068 66.8869C140.068 62.1309 137.112 58.2823 133.45 58.2823C131.729 58.2823 130.162 59.1362 128.987 60.5394C128.541 61.0762 128.164 61.6656 127.862 62.2942L127.802 62.6677C127.802 62.6677 126.393 63.867 124.471 62.7651V36.7944H88.7095C85.4493 36.7944 82.3233 38.0843 80.0178 40.3803C77.7128 42.6763 76.418 45.7903 76.418 49.0373V62.291H76.2321C76.0405 62.291 75.8572 62.3668 75.7217 62.5016C75.5862 62.6364 75.5106 62.8192 75.5106 63.0099V69.2885C75.5112 69.4789 75.5875 69.6612 75.7223 69.7956C75.8578 69.9301 76.0412 70.0061 76.2321 70.0074H76.418V76.4173H76.1754C75.9838 76.4173 75.7998 76.4933 75.6637 76.6278C75.5282 76.7623 75.4514 76.9451 75.4501 77.1362V89.1247C75.4514 89.3157 75.5282 89.4985 75.6637 89.6336C75.7998 89.7681 75.9838 89.8435 76.1754 89.8435H76.418V94.5525H76.2195C76.0279 94.5525 75.8446 94.6285 75.7091 94.763C75.5736 94.8981 75.498 95.0809 75.498 95.2713V99.1326H75.3398V107.269C75.3398 107.364 75.3581 107.458 75.394 107.545C75.4306 107.632 75.4835 107.712 75.5503 107.779C75.6177 107.845 75.6971 107.898 75.7853 107.935C75.8729 107.971 75.9668 107.989 76.0619 107.988H76.2762V164.601H82.1633Z" fill="black"/>
<path opacity="0.1" d="M175.681 81.2553C175.681 81.0642 175.605 80.8808 175.47 80.7457C175.335 80.6106 175.151 80.5339 174.959 80.5333H174.524V79.7453H174.288V48.4317C174.289 46.8856 173.983 45.3547 173.39 43.9262C172.795 42.4978 171.925 41.1999 170.828 40.1067C169.73 39.0134 168.427 38.1464 166.993 37.5549C165.559 36.9635 164.022 36.6592 162.47 36.6597H127.014V60.5176C127.823 59.447 128.871 58.5771 130.073 57.9754C131.276 57.3737 132.601 57.0566 133.947 57.0488C138.899 57.0488 142.914 61.3212 142.914 66.5887C142.914 71.8562 138.899 76.1291 133.947 76.1291C132.601 76.1215 131.276 75.8049 130.073 75.2029C128.87 74.6009 127.823 73.7306 127.014 72.6599V99.1328H155.694C154.655 98.3341 153.811 97.3112 153.227 96.1399C152.644 94.9693 152.335 93.6811 152.324 92.3741C152.324 87.4742 156.601 83.5029 161.88 83.5029C164.227 83.4897 166.501 84.306 168.3 85.8071C169.288 86.5926 170.085 87.5898 170.632 88.724C171.18 89.8588 171.465 91.1011 171.465 92.3603C171.465 93.6189 171.18 94.8618 170.632 95.996C170.085 97.1302 169.288 98.1274 168.3 98.9129V99.1234H174.524V99.1014H175.681V81.2553Z" fill="black"/>
<path opacity="0.1" d="M166.161 163.192V160.053C166.291 159.864 166.41 159.668 166.517 159.466C166.939 158.701 167.162 157.843 167.166 156.97C167.165 156.388 167.065 155.811 166.87 155.263C166.698 154.774 166.459 154.311 166.161 153.887C164.708 151.806 161.836 150.387 158.528 150.387C153.753 150.387 149.886 153.335 149.886 156.979C149.886 158.694 150.746 160.254 152.152 161.424C152.692 161.867 153.283 162.244 153.913 162.545L153.951 162.605C154.364 163.003 154.638 163.524 154.733 164.089C154.828 164.654 154.738 165.234 154.477 165.744H126.674V191.486C127.472 190.421 128.507 189.556 129.698 188.957C130.888 188.358 132.201 188.042 133.535 188.032C138.449 188.032 142.429 192.302 142.429 197.567C142.429 202.831 138.449 207.103 133.535 207.103C132.201 207.094 130.888 206.778 129.698 206.179C128.507 205.579 127.472 204.714 126.674 203.65V224.428H158.578C160.586 224.428 162.511 223.635 163.933 222.223C165.354 220.81 166.156 218.894 166.161 216.894V165.754V216.86C166.161 218.863 165.362 220.784 163.94 222.201C162.518 223.617 160.589 224.413 158.578 224.413H126.674V229.435H159.766C163.026 229.435 166.152 228.146 168.458 225.85C170.762 223.554 172.057 220.439 172.057 217.193V165.754V164.403H166.161V163.192Z" fill="black"/>
</g>
<path d="M90.1654 223.26C88.1541 223.26 86.2254 222.463 84.8032 221.047C83.3811 219.631 82.5821 217.71 82.5821 215.707V164.431H76.6855V216.055C76.6855 219.302 77.9804 222.416 80.286 224.712C82.5909 227.008 85.7169 228.298 88.9771 228.298H124.754V223.275L90.1654 223.26Z" fill="#3A3768"/>
<path d="M126.96 200.429C127.601 200.63 128.139 201.069 128.463 201.656C129.673 203.706 131.57 205.027 133.707 205.027C137.357 205.027 140.326 201.176 140.326 196.42C140.326 191.664 137.36 187.831 133.72 187.831C132.003 187.831 130.436 188.685 129.26 190.088C128.815 190.625 128.437 191.215 128.135 191.843L128.072 192.216C128.072 192.216 126.664 193.416 124.744 192.314V164.431H97.4135C97.1923 164.143 97.0461 163.805 96.9888 163.447C96.9308 163.088 96.963 162.721 97.0821 162.379C97.2862 161.741 97.7273 161.205 98.3146 160.881C100.372 159.675 101.703 157.786 101.703 155.658C101.703 152.022 97.8325 149.065 93.0607 149.065C88.2895 149.065 84.4194 152.013 84.4194 155.658C84.4194 157.369 85.2795 158.931 86.6884 160.103C87.2266 160.545 87.8176 160.92 88.4471 161.22L88.4849 161.283C88.8982 161.681 89.1723 162.201 89.2668 162.766C89.3614 163.331 89.2719 163.912 89.011 164.422H82.582V215.707C82.582 217.71 83.3804 219.632 84.8025 221.048C86.2247 222.464 88.1534 223.26 90.1647 223.26H124.754V200.9C125.043 200.628 125.402 200.44 125.79 200.357C126.18 200.274 126.584 200.299 126.96 200.429Z" fill="#ED5C0C"/>
<path d="M76.5802 97.8516H75.6445V99.3709H76.5802V97.8516Z" fill="#3A3768"/>
<path d="M82.4785 97.8516H77.3633V99.3709H82.4785V97.8516Z" fill="#3A3768"/>
<path d="M77.364 97.8516H76.582V99.3709H77.364V97.8516Z" fill="#3A3768"/>
<path d="M76.3663 106.708H76.5806V99.3687H75.6348V105.989C75.6342 106.085 75.6531 106.179 75.6896 106.267C75.7268 106.355 75.7803 106.435 75.8484 106.502C75.9171 106.568 75.9977 106.621 76.0866 106.657C76.1754 106.692 76.2706 106.71 76.3663 106.708Z" fill="#3A3768"/>
<path d="M82.4786 99.3687H77.364V105.989C77.364 106.084 77.3451 106.178 77.3085 106.265C77.272 106.352 77.2184 106.431 77.151 106.499C77.0836 106.565 77.0042 106.618 76.916 106.654C76.8278 106.69 76.7339 106.709 76.6387 106.708H76.582V163.345H82.4786V99.3687Z" fill="#3A3768"/>
<path d="M76.582 106.708H76.6387C76.7339 106.709 76.8278 106.69 76.916 106.654C77.0042 106.618 77.0836 106.565 77.151 106.499C77.2184 106.431 77.272 106.352 77.3085 106.265C77.3451 106.178 77.364 106.084 77.364 105.989V99.3687H76.582V106.708Z" fill="#3A3768"/>
<path d="M83.3834 156.58C83.3834 151.686 87.6693 147.721 92.9547 147.721C98.24 147.721 102.529 151.686 102.529 156.58C102.52 157.889 102.212 159.179 101.627 160.351C101.042 161.524 100.197 162.547 99.1543 163.345H124.809V135.836C125.102 135.563 125.464 135.375 125.856 135.292C126.25 135.209 126.657 135.234 127.037 135.365C127.678 135.567 128.217 136.006 128.543 136.593C129.75 138.642 131.647 139.964 133.787 139.964C137.437 139.964 140.406 136.113 140.406 131.36C140.406 126.607 137.449 122.752 133.787 122.752C132.067 122.752 130.5 123.609 129.324 125.009C128.88 125.547 128.502 126.136 128.199 126.764L128.139 126.802C127.717 127.241 127.157 127.524 126.552 127.605C125.946 127.685 125.332 127.558 124.809 127.244V99.3679H98.4952C98.2741 99.0795 98.1285 98.7414 98.0705 98.3833C98.0132 98.0245 98.0453 97.6581 98.1644 97.3151C98.3673 96.6766 98.8084 96.1406 99.3969 95.8177C101.455 94.6156 102.782 92.7224 102.782 90.5941C102.782 86.959 98.9142 84.002 94.1431 84.002C89.3713 84.002 85.5011 86.9496 85.5011 90.5941C85.5011 92.3083 86.3619 93.8685 87.767 95.0391C88.307 95.4815 88.8987 95.8579 89.5288 96.1601L89.5666 96.2192C89.98 96.6176 90.254 97.1379 90.3492 97.7028C90.4437 98.2677 90.3542 98.8483 90.0934 99.3585H82.4785V163.345H86.7588C85.7166 162.547 84.871 161.524 84.2857 160.351C83.7009 159.179 83.3922 157.889 83.3834 156.58Z" fill="#ED5C0C"/>
<path d="M77.5202 93.8874C77.5202 93.7926 77.5013 93.6989 77.4648 93.6116C77.4282 93.5236 77.3747 93.4444 77.3073 93.3778C77.2398 93.3112 77.1605 93.2578 77.0722 93.222C76.984 93.1862 76.8901 93.168 76.795 93.168H76.7383V97.8518H77.5202V93.8874Z" fill="#3A3768"/>
<path d="M76.711 61.0298H76.5535C76.459 61.0298 76.3651 61.0484 76.2775 61.0845C76.1899 61.1206 76.1105 61.1736 76.0431 61.2403C75.9763 61.3071 75.9228 61.3863 75.8868 61.4735C75.8503 61.5608 75.832 61.6542 75.832 61.7486V68.0272C75.8327 68.2176 75.9089 68.3998 76.0444 68.5343C76.1792 68.6694 76.3626 68.7448 76.5535 68.7461H76.7394V61.0329L76.711 61.0298Z" fill="#3A3768"/>
<path d="M76.4961 75.1494C76.3046 75.1494 76.1206 75.2248 75.9851 75.3593C75.849 75.4944 75.7721 75.6772 75.7715 75.8683V87.8568C75.7721 88.0478 75.849 88.2306 75.9851 88.3651C76.1206 88.5002 76.3046 88.5756 76.4961 88.5756H76.7387V75.1494H76.4961Z" fill="#3A3768"/>
<path d="M76.7394 93.2729H76.5346C76.3431 93.2729 76.1597 93.3483 76.0242 93.4834C75.8887 93.6179 75.8125 93.8008 75.8125 93.9918V97.9561H76.7583L76.7394 93.2729Z" fill="#3A3768"/>
<path d="M76.7368 47.7779V61.0315C76.9233 61.0381 77.0997 61.1163 77.2289 61.2498C77.3581 61.3834 77.4305 61.5618 77.4305 61.7473V68.0259C77.4299 68.2113 77.3574 68.3891 77.2283 68.5223C77.0991 68.6555 76.9227 68.7341 76.7368 68.7416V75.1515H76.847C76.9422 75.1515 77.0361 75.1704 77.1237 75.2062C77.2112 75.2426 77.2906 75.2954 77.3574 75.362C77.4248 75.4293 77.4778 75.5084 77.5143 75.5952C77.5502 75.6825 77.5691 75.7761 77.5691 75.8704V87.8589C77.5691 88.0499 77.4929 88.2328 77.3574 88.3672C77.2226 88.5023 77.0386 88.5777 76.847 88.5777H76.7305V93.2867H76.7872C76.9794 93.2867 77.1634 93.3627 77.2988 93.4972C77.4349 93.6317 77.5112 93.8145 77.5124 94.0055V97.9548H82.6276V48.1357C82.6276 46.1331 83.426 44.2125 84.8475 42.7961C86.2684 41.3798 88.1965 40.5836 90.2072 40.5828H100.484V41.895C100.484 43.5443 101.142 45.1261 102.313 46.2923C103.484 47.4586 105.072 48.1137 106.728 48.1137H124.809V44.0077H116.485C116.163 44.006 115.855 43.8784 115.627 43.6523C115.399 43.4262 115.269 43.1197 115.265 42.7991V42.5354C115.267 42.2134 115.395 41.9049 115.624 41.6772C115.853 41.4496 116.162 41.3213 116.485 41.3205H124.793V35.5381H89.022C85.7637 35.5398 82.6396 36.8299 80.3359 39.1251C78.0323 41.4202 76.738 44.5325 76.7368 47.7779Z" fill="#3A3768"/>
<path d="M77.432 68.0241V61.7456C77.432 61.56 77.3596 61.3816 77.2304 61.2481C77.1006 61.1145 76.9248 61.0363 76.7383 61.0298V68.7366C76.9235 68.7291 77.0993 68.6512 77.2285 68.5186C77.3577 68.386 77.4301 68.2088 77.432 68.0241Z" fill="#3A3768"/>
<path d="M77.577 87.8568V75.8683C77.577 75.774 77.558 75.6804 77.5215 75.593C77.4856 75.5057 77.432 75.4265 77.3652 75.3599C77.2984 75.2933 77.2184 75.2399 77.1315 75.2041C77.0439 75.1676 76.95 75.1494 76.8548 75.1494H76.7383V88.5756H76.8485C76.9437 88.5763 77.0382 88.5587 77.1271 88.5228C77.2153 88.487 77.2953 88.4342 77.3633 88.367C77.4308 88.3004 77.4843 88.2206 77.5209 88.1333C77.558 88.0459 77.577 87.9517 77.577 87.8568Z" fill="#3A3768"/>
<path d="M84.7274 91.2067C84.7274 86.313 89.0133 82.3449 94.3018 82.3449C99.5903 82.3449 103.873 86.313 103.873 91.2067C103.861 92.5143 103.549 93.8018 102.962 94.9712C102.375 96.1406 101.528 97.1616 100.485 97.9559H124.785V70.1113C125.077 69.8361 125.44 69.6463 125.834 69.5634C126.227 69.4804 126.636 69.5068 127.016 69.6407C127.656 69.8436 128.193 70.2822 128.519 70.8678C129.726 72.9176 131.626 74.2396 133.763 74.2396C137.413 74.2396 140.382 70.3878 140.382 65.6317C140.382 60.8759 137.425 57.0272 133.763 57.0272C132.043 57.0272 130.476 57.8811 129.301 59.2843C128.855 59.8211 128.477 60.4105 128.175 61.0391L128.115 61.4127C128.115 61.4127 126.707 62.6119 124.785 61.51V48.1056H106.713C105.06 48.1015 103.476 47.4445 102.309 46.2787C101.141 45.1129 100.485 43.5335 100.485 41.8868V40.5747H90.2143C89.2175 40.5751 88.2314 40.7711 87.3108 41.1514C86.3908 41.5318 85.5547 42.089 84.8509 42.7913C84.147 43.4936 83.5888 44.3272 83.2088 45.2445C82.8282 46.1617 82.6335 47.1446 82.6348 48.137V97.9559H88.0997C87.0594 97.1598 86.2157 96.1387 85.6316 94.9693C85.0468 93.7999 84.7381 92.513 84.7274 91.2067Z" fill="#ED5C0C"/>
<path d="M116.487 41.3125C116.164 41.3133 115.854 41.4416 115.625 41.6692C115.397 41.8969 115.268 42.2054 115.268 42.5274V42.8005C115.268 43.1227 115.397 43.4316 115.625 43.6597C115.854 43.8879 116.164 44.0168 116.487 44.0185H124.795V41.3219L116.487 41.3125Z" fill="#E6E8EC"/>
<path d="M172.713 79.24V97.8741H174.84V78.4897H173.69C173.151 78.4897 172.713 78.8259 172.713 79.24Z" fill="#3A3768"/>
<path d="M129.85 35.4043H127.328V41.0548H129.85V35.4043Z" fill="#3A3768"/>
<path d="M129.85 43.8799H127.328V47.9608H129.85V43.8799Z" fill="#3A3768"/>
<path d="M129.85 41.0547H127.328V43.88H129.85V41.0547Z" fill="#E6E8EC"/>
<path d="M175.274 79.2778H174.682V97.8522H175.995V79.9998C175.995 79.8088 175.92 79.6259 175.784 79.4902C175.649 79.3551 175.466 79.2785 175.274 79.2778Z" fill="#3A3768"/>
<path d="M129.847 41.0548C130.519 41.2055 131.108 42.4235 131.108 42.4235V42.6872C131.108 42.6872 130.516 43.9021 129.847 43.8801V47.961H144.089C145.745 47.9602 147.334 47.3043 148.505 46.1376C149.675 44.9709 150.333 43.3888 150.333 41.7392V40.427H161.048C163.056 40.4311 164.98 41.2284 166.398 42.6438C167.816 44.0592 168.613 45.9772 168.613 47.9767V84.5518C169.599 85.3372 170.396 86.3344 170.945 87.4686C171.492 88.6034 171.777 89.8457 171.777 91.1049C171.777 92.3635 171.492 93.6058 170.945 94.7406C170.396 95.8748 169.599 96.872 168.613 97.6575V97.868H173.025V79.4438C173.025 79.4319 173.027 79.4199 173.031 79.4086C173.036 79.3973 173.043 79.3872 173.052 79.3784C173.061 79.3703 173.072 79.3634 173.083 79.359C173.094 79.3546 173.107 79.3527 173.119 79.3533H174.6V47.1763C174.6 45.6303 174.295 44.0993 173.701 42.6708C173.108 41.2424 172.237 39.9445 171.14 38.8513C170.042 37.7581 168.739 36.8909 167.305 36.2995C165.871 35.708 164.334 35.4039 162.781 35.4043H129.535V41.0548H129.847ZM134.619 41.0266C134.923 41.0266 135.219 41.1162 135.471 41.2842C135.724 41.4522 135.921 41.691 136.037 41.9703C136.153 42.2497 136.183 42.5571 136.124 42.8536C136.065 43.1502 135.919 43.4226 135.704 43.6364C135.49 43.8502 135.216 43.9958 134.918 44.0548C134.621 44.1138 134.312 44.0835 134.032 43.9678C133.751 43.8521 133.511 43.6561 133.343 43.4047C133.174 43.1533 133.084 42.8577 133.084 42.5554C133.084 42.1499 133.246 41.7611 133.534 41.4743C133.821 41.1876 134.212 41.0266 134.619 41.0266Z" fill="#3A3768"/>
<path d="M134.246 55.7905C139.197 55.7905 143.213 60.0629 143.213 65.3305C143.213 70.5981 139.197 74.8703 134.246 74.8703C132.9 74.8634 131.574 74.5461 130.372 73.9448C129.169 73.3428 128.122 72.4725 127.312 71.4018V97.8747H155.992C154.953 97.076 154.11 96.0524 153.526 94.8818C152.942 93.7111 152.633 92.423 152.623 91.116C152.623 86.2154 156.9 82.2448 162.179 82.2448C164.531 82.2284 166.812 83.0466 168.614 84.5521V47.977C168.614 45.9774 167.818 44.0595 166.4 42.644C164.982 41.2287 163.058 40.4314 161.05 40.4272H150.335V41.7395C150.335 43.389 149.678 44.9711 148.507 46.1379C147.336 47.3046 145.748 47.9605 144.092 47.9613H127.328V59.2625C128.136 58.1934 129.18 57.3241 130.38 56.722C131.58 56.1198 132.903 55.8011 134.246 55.7905Z" fill="#ED5C0C"/>
<path d="M129.846 43.88C130.17 43.8804 130.481 43.7568 130.716 43.5347C130.951 43.3126 131.091 43.0091 131.107 42.6871V42.4234C131.071 42.0914 130.929 41.7796 130.702 41.5334C130.475 41.2872 130.176 41.1195 129.846 41.0547H129.531V43.88H129.846Z" fill="#E6E8EC"/>
<path d="M134.865 44.0571C135.701 43.9218 136.27 43.1365 136.134 42.3031C135.998 41.4697 135.21 40.9038 134.373 41.039C133.536 41.1743 132.968 41.9596 133.104 42.793C133.24 43.6265 134.028 44.1924 134.865 44.0571Z" fill="#E6E8EC"/>
<path d="M166.475 161.935V158.796C167.128 157.9 167.48 156.821 167.48 155.713C167.48 154.606 167.128 153.526 166.475 152.63V161.935Z" fill="#3A3768"/>
<path d="M172.371 163.147H166.475V164.497H172.371V163.147Z" fill="#3A3768"/>
<path d="M164.097 160.943C163.509 161.268 163.068 161.803 162.865 162.441C162.744 162.784 162.712 163.152 162.77 163.51C162.828 163.869 162.974 164.208 163.196 164.497H166.477V163.147H165.216C165.672 162.783 166.095 162.377 166.477 161.936V158.796C165.849 159.675 165.037 160.408 164.097 160.943Z" fill="#ED5C0C"/>
<path d="M165.209 163.147H166.47V161.936C166.088 162.377 165.666 162.783 165.209 163.147Z" fill="#ED5C0C"/>
<path d="M167.48 155.719C167.473 154.613 167.121 153.537 166.475 152.637V158.799C167.12 157.9 167.471 156.825 167.48 155.719Z" fill="#3A3768"/>
<path d="M172.372 164.497V215.952C172.372 219.199 171.077 222.313 168.772 224.609C166.466 226.905 163.34 228.195 160.08 228.195H126.988V223.172H158.893C160.903 223.172 162.832 222.376 164.254 220.96C165.676 219.543 166.475 217.622 166.475 215.619V164.497H172.372Z" fill="#3A3768"/>
<path d="M162.863 162.442C163.067 161.804 163.508 161.269 164.095 160.944C165.035 160.41 165.848 159.678 166.475 158.801V152.638C165.022 150.557 162.151 149.138 158.842 149.138C154.067 149.138 150.2 152.086 150.2 155.73C150.2 157.445 151.06 159.005 152.466 160.175C153.006 160.618 153.598 160.994 154.228 161.296L154.266 161.356C154.678 161.754 154.952 162.274 155.047 162.839C155.142 163.404 155.053 163.984 154.792 164.495H126.988V190.236C127.787 189.172 128.822 188.307 130.012 187.708C131.202 187.109 132.516 186.792 133.85 186.783C138.763 186.783 142.743 191.052 142.743 196.317C142.743 201.581 138.763 205.854 133.85 205.854C132.516 205.845 131.202 205.529 130.012 204.929C128.822 204.33 127.787 203.465 126.988 202.401V223.179H158.893C160.9 223.179 162.826 222.386 164.247 220.974C165.669 219.561 166.47 217.645 166.475 215.645V164.498H163.204C162.981 164.21 162.833 163.871 162.773 163.513C162.713 163.154 162.745 162.786 162.863 162.442Z" fill="#ED5C0C"/>
<path d="M222.826 84.4884C224.585 83.7004 225.886 82.3727 226.331 80.6711C226.384 80.4644 226.425 80.2551 226.451 80.0434C226.529 79.8473 226.596 79.6469 226.652 79.4433C227.096 77.736 226.608 75.9684 225.448 74.4585L223.144 83.248L222.826 84.4884Z" fill="url(#paint0_linear)"/>
<path d="M276.006 81.1889C275.647 79.0889 268.99 74.5402 268.99 74.5402C268.99 74.5402 266.05 72.9706 264.493 71.1559C263.497 70.0009 263.185 70.0135 263.091 70.17C263.026 70.1291 262.953 70.1046 262.876 70.0977C262.813 70.0537 262.754 70.0135 262.697 69.9664C262.706 69.8771 262.687 69.7879 262.642 69.7113C262.597 69.634 262.529 69.5724 262.448 69.5359C262.372 69.492 262.297 69.4354 262.221 69.382C261.717 68.5375 261.537 67.3417 261.477 66.2992C261.401 64.9841 259.902 65.314 259.387 65.4616C259.035 64.8019 258.691 64.1176 258.367 63.4333C258.51 63.2115 258.629 62.9746 258.723 62.7271C259.649 60.7212 259.447 58.4202 259.851 56.298C260.141 54.763 260.746 53.1588 260.626 51.6646C260.626 51.63 260.626 51.5924 260.626 51.5547C260.626 51.5547 260.626 51.5704 260.626 51.5767C260.594 51.2023 260.507 50.8345 260.371 50.4843C260.103 49.8124 259.636 49.2285 259.425 48.5348C259.088 47.5208 259.302 46.4033 259.022 45.3767C258.672 44.0771 257.569 43.0726 256.321 42.4981C255.073 41.9236 253.683 41.7258 252.315 41.5564C248.896 41.1294 245.262 40.8752 242.142 42.3066C241.856 42.4755 241.529 42.5634 241.196 42.5609C240.889 42.4762 240.597 42.3415 240.333 42.1622C239.494 41.7478 238.442 42.0116 237.692 42.564C236.942 43.1165 236.431 43.9139 235.936 44.6861C235.441 45.4584 234.9 46.2558 234.124 46.7611C233.213 47.367 232.009 47.571 231.288 48.3872C230.966 48.7742 230.763 49.2448 230.702 49.7434C230.702 49.7434 230.702 49.7277 230.702 49.7214C230.699 49.781 230.699 49.8408 230.702 49.9003C230.702 49.9474 230.702 49.9977 230.702 50.0447C230.702 50.0918 230.702 50.1232 230.702 50.1609C230.702 50.2959 230.702 50.4277 230.702 50.5596C230.803 51.3265 231.007 52.0762 231.31 52.7884C231.455 53.3199 231.74 53.8031 232.135 54.1885C233.232 55.0769 234.972 54.2387 236.296 54.7347C236.412 54.7755 236.523 54.8289 236.633 54.8791C236.633 54.9294 236.598 54.9796 236.583 55.0329C236.299 55.9922 236.156 56.987 236.157 57.9869C236.157 63.8826 241.07 68.66 247.131 68.66C247.358 68.66 247.582 68.66 247.805 68.6349C247.837 68.7511 247.872 68.8705 247.9 68.9836C248.237 70.2862 248.344 71.6372 248.215 72.9768L248.149 72.3925C248.002 72.3227 247.849 72.2649 247.692 72.2203C247.254 72.0745 246.793 72.0048 246.33 72.0129C244.84 71.9941 242.596 72.5904 240.201 75.4846C240.201 75.4846 237.143 77.1768 236.246 77.5853C236.172 77.6292 236.113 77.6952 236.078 77.7731C236.078 77.7731 231.99 83.9229 231.568 86.2617C231.146 88.6004 230.623 91.2842 230.623 91.2842C230.623 91.2842 229.602 94.3166 228.943 95.6607C228.284 97.0041 227.682 98.2847 227.626 98.8685C227.569 99.4529 227.865 100.733 226.604 101.55C225.344 102.366 225.028 104.582 225.028 104.582C225.028 104.582 224.398 105.172 223.507 105.919H223.475L226.768 93.3408L227.358 93.4878C227.499 93.523 227.647 93.5167 227.784 93.4696C227.922 93.4231 228.043 93.3376 228.133 93.2245C228.194 93.1473 228.238 93.0587 228.262 92.9638L228.927 90.4151L229.195 89.401L229.249 89.1936L229.636 87.7151L228.325 87.4015L226.79 87.0214L222.454 85.9318L222.832 84.4878L223.147 83.2638L225.129 75.6857L225.445 74.4648C224.184 72.8386 222.176 71.5172 219.709 70.9045C214.95 69.7276 210.342 71.6422 209.416 75.1805C209.361 75.3866 209.32 75.5965 209.293 75.8082C209.213 76.0024 209.146 76.2016 209.094 76.4046C208.934 77.0191 208.891 77.6581 208.968 78.2884C208.981 78.3908 208.997 78.4951 209.015 78.6019C209.204 79.5797 209.617 80.5002 210.222 81.2926C210.648 81.8581 211.143 82.3696 211.694 82.8151L211.716 82.8842C211.95 83.265 212.092 83.6948 212.129 84.1397C212.129 84.2025 212.129 84.2685 212.129 84.3345C212.023 84.5236 211.896 84.7002 211.751 84.8617L182.674 77.6632L182.359 78.8847L175.81 103.951C176.663 103.297 177.623 102.793 178.646 102.46C179.048 102.328 179.459 102.223 179.875 102.146L180.024 102.121C181.196 101.931 182.395 101.98 183.547 102.265C187.222 103.176 189.762 106.293 190.234 109.96C190.296 110.423 190.322 110.89 190.313 111.357C190.304 111.952 190.241 112.546 190.124 113.13C188.548 117.895 183.708 120.774 179.005 119.609C177.688 119.278 176.465 118.649 175.431 117.769C174.398 116.89 173.583 115.785 173.049 114.54L172.734 115.764L165.977 141.49L191.728 147.869L192.006 146.635H192.047C191.284 145.694 190.731 144.602 190.425 143.432C190.118 142.262 190.066 141.04 190.269 139.848C190.269 139.807 190.294 139.769 190.31 139.728C190.342 139.637 190.377 139.55 190.411 139.462C190.587 139.032 190.798 138.617 191.042 138.222C191.168 138.018 191.3 137.82 191.442 137.628C191.53 137.509 191.621 137.393 191.716 137.28C192.17 136.733 192.687 136.242 193.257 135.817L193.44 135.685C193.648 135.538 193.862 135.396 194.071 135.264C194.2 135.189 194.332 135.114 194.464 135.045C195.989 134.242 197.694 133.837 199.418 133.868C200.247 133.879 201.072 133.984 201.877 134.182C204.361 134.776 206.532 136.279 207.956 138.391C208.145 138.675 208.317 138.968 208.473 139.27C208.937 140.167 209.239 141.138 209.365 142.139C209.463 142.939 209.443 143.748 209.302 144.541C208.69 146.297 207.519 147.805 205.968 148.838L205.653 150.019H205.687L205.64 150.054L205.325 151.231L211.206 152.687L219.535 120.965C221.783 120.705 222.933 119.71 222.933 119.565C222.933 119.421 225.634 117.93 227.131 117.522C227.875 117.321 228.735 117.176 229.419 117.032C228.612 121.022 227.843 124.88 227.912 125.106C227.934 125.194 228.079 125.056 228.3 124.754C228.278 124.871 228.269 124.988 228.272 125.106C228.272 125.166 228.357 125.122 228.467 125L228.451 125.075C228.451 125.075 223.774 134.088 223.409 135.12C223.043 136.153 223.497 138.796 224.937 139.672C225.216 139.848 225.466 140.067 225.675 140.322L225.505 140.658C224.968 141.741 224.493 142.946 224.578 143.696C224.691 144.646 224.468 145.605 223.948 146.408C223.948 146.408 219.898 158.875 219.989 162.462C220.081 166.05 218.549 173.924 218.549 173.924C218.549 173.924 216.885 178.997 217.875 180.441C218.864 181.885 219.989 188.185 219.989 188.185C219.989 188.185 220.755 189.629 220.708 190.854C220.66 192.078 221.429 194.307 221.429 194.307L223.951 203.36C223.951 203.36 223.68 205.768 224.625 207.473C225.571 209.177 225.48 208.653 225.028 211.629C224.578 214.605 225.571 217.358 227.188 218.221C227.818 218.56 227.849 219.078 227.654 219.584C227.241 219.423 226.897 220.274 226.692 220.962L226.485 221.16L226.623 221.194C226.535 221.508 226.485 221.772 226.485 221.772C226.485 221.772 222.258 225.272 221.987 226.54C221.716 227.808 218.747 228.464 218.747 228.464C218.747 228.464 214.25 229.688 213.075 230.3C212.738 230.453 212.447 230.689 212.23 230.987C212.012 231.285 211.875 231.633 211.833 231.999C211.78 232.576 211.836 233.157 211.996 233.713C212.444 235.506 218.741 235.681 221.767 235.201C224.792 234.721 231.029 232.969 231.029 232.969C231.029 232.969 237.597 232.341 239.538 231.569C241.48 230.797 239.942 228.769 239.942 228.769C239.942 228.769 239.942 228.703 239.942 228.581C239.99 227.849 240.125 225.196 239.658 224.499C239.308 223.96 239.318 222.616 239.368 221.762C240.683 219.408 237.862 212.344 237.862 212.344C237.862 212.344 238.401 205.438 238.042 204.428C237.682 203.417 236.151 194.846 236.151 194.846C236.151 194.846 235.205 190.954 235.568 190.298C235.93 189.642 235.341 187.758 235.341 187.758C235.341 187.758 233.799 185.665 233.938 185.005C234.077 184.346 233.488 183.169 233.488 183.169C233.488 183.169 238.077 176.344 237.67 175.076C237.263 173.808 237.852 171.752 237.852 171.752C237.852 171.752 238.429 170.785 239.113 169.626C239.964 168.208 241.004 166.509 241.344 165.979C241.786 165.303 242.848 162.431 243.441 160.777C243.693 160.073 243.863 159.59 243.863 159.59C243.863 159.59 244.581 172.461 245.211 173.764C245.842 175.067 246.787 185.445 246.787 185.445C247.137 186.366 247.291 187.349 247.238 188.333C247.15 189.95 248.678 196.994 248.678 196.994C248.678 196.994 249.353 201.979 248.902 203.291C248.451 204.603 248.814 214.278 248.814 214.278C248.814 214.278 246.34 216.162 245.71 217.602C245.079 219.043 245.798 222.983 245.798 222.983L246.088 223.118C245.856 223.666 245.684 224.236 245.574 224.82C245.486 225.652 244.134 229.416 244.269 229.94C244.405 230.464 243.686 232.084 243.595 232.913C243.504 233.741 242.382 234.969 242.29 235.408C242.148 235.802 241.983 236.186 241.796 236.56C241.55 237.135 241.356 237.73 241.212 238.337C240.762 240.176 246.113 240.481 246.113 240.481C254.03 241.925 255.47 236.02 255.47 236.02C255.47 236.02 256.46 230.772 256.819 230.37C256.863 230.295 256.891 230.212 256.901 230.126C256.912 230.04 256.904 229.954 256.879 229.871C256.674 228.978 256.285 228.136 255.738 227.4C255.486 227.108 255.47 226.358 255.511 225.686C255.74 225.664 255.967 225.622 256.188 225.561C259.381 224.644 258.08 219.348 258.08 219.348C258.08 219.348 260.239 215.851 260.239 214.495C260.239 213.139 261.004 208.983 261.004 208.983C263.75 204.082 262.668 192.185 263.119 191.221C263.57 190.257 262.174 186.672 261.048 185.052C259.924 183.432 260.374 179.059 261.048 177.791C261.723 176.523 260.374 172.141 260.374 172.141C260.374 172.141 261.679 163.665 261.634 162.34C261.59 161.015 262.76 157.135 262.76 157.135C262.76 157.135 263.929 155.123 263.658 154.511C263.387 153.899 264.556 152.314 264.244 151.623C263.932 150.932 264.512 148.779 265.098 147.511C265.398 146.861 265.77 145.071 266.044 143.48C266.075 143.304 266.107 143.128 266.135 142.956C267.447 143.781 268.656 144.396 269.085 144.23C269.889 143.916 268.609 139.835 267.733 137.293C267.884 137.18 267.947 137.095 267.884 137.057C267.346 136.705 267.944 135.129 267.944 135.129C271.124 133.265 270.043 131.865 269.026 131.049C268.007 130.233 268.666 127.91 268.363 126.968C268.061 126.026 268.726 121.779 269.265 118.686C269.377 118.015 269.372 117.329 269.249 116.659C269.826 115.783 270.421 114.866 270.945 114.018C272.741 111.102 276.58 97.2209 276.58 97.2209L276.555 97.1487C276.93 96.411 277.21 95.8109 277.361 95.4125C278.524 92.3989 276.366 83.2952 276.006 81.1889ZM248.058 73.1961L248.139 73.1584C248.139 73.1804 248.139 73.2024 248.139 73.2244L248.058 73.1961ZM230.607 222.104C230.411 222.105 230.217 222.067 230.036 221.991L230.607 222.104Z" fill="url(#paint1_linear)"/>
<path d="M197.29 120.932C199.883 121.911 205.912 122.018 208.591 122.018C209.404 122.018 209.908 122.018 209.908 122.018L211.626 118.534L209.908 115.63C209.908 115.63 208.333 115.196 206.24 114.82C203.152 114.267 198.925 113.834 196.911 115.077C193.533 117.159 193.911 119.654 197.29 120.932Z" fill="#FEC2BE"/>
<path opacity="0.1" d="M208.586 122.018C209.399 122.018 209.904 122.018 209.904 122.018L211.621 118.533L209.907 115.629C209.907 115.629 208.331 115.196 206.238 114.82C207.937 116.063 212.021 118.768 208.586 122.018Z" fill="black"/>
<path d="M237.038 79.2522L236.281 78.3794C236.281 78.3794 232.376 84.5323 231.966 86.8554C231.557 89.1784 231.021 91.8471 231.021 91.8471C231.021 91.8471 230.031 94.867 229.389 96.201C228.745 97.535 228.166 98.8125 228.109 99.3937C228.052 99.9743 228.342 101.252 227.116 102.065C225.89 102.878 225.603 105.085 225.603 105.085C225.603 105.085 221.172 109.379 218.84 109.48C216.508 109.58 209.807 110.758 210.041 111.919C210.274 113.08 207.245 113.774 206.019 114.066C204.793 114.358 213.898 117.833 208.584 122.309C208.584 122.309 211.963 123.006 212.313 123.816C212.662 124.626 216.218 123.355 216.218 123.355C216.218 123.355 216.977 121.553 219.599 121.437C222.222 121.321 223.561 120.159 223.561 119.986C223.561 119.814 226.183 118.36 227.658 117.956C229.133 117.551 231.036 117.375 231.096 116.966C231.156 116.559 239.839 79.2365 239.839 79.2365L237.038 79.2522Z" fill="#FC8340"/>
<path opacity="0.05" d="M237.038 79.2522L236.281 78.3794C236.281 78.3794 232.376 84.5323 231.966 86.8554C231.557 89.1784 231.021 91.8471 231.021 91.8471C231.021 91.8471 230.031 94.867 229.389 96.201C228.745 97.535 228.166 98.8125 228.109 99.3937C228.052 99.9743 228.342 101.252 227.116 102.065C225.89 102.878 225.603 105.085 225.603 105.085C225.603 105.085 221.172 109.379 218.84 109.48C216.508 109.58 209.807 110.758 210.041 111.919C210.274 113.08 207.245 113.774 206.019 114.066C204.793 114.358 213.898 117.833 208.584 122.309C208.584 122.309 211.963 123.006 212.313 123.816C212.662 124.626 216.218 123.355 216.218 123.355C216.218 123.355 216.977 121.553 219.599 121.437C222.222 121.321 223.561 120.159 223.561 119.986C223.561 119.814 226.183 118.36 227.658 117.956C229.133 117.551 231.036 117.375 231.096 116.966C231.156 116.559 239.839 79.2365 239.839 79.2365L237.038 79.2522Z" fill="#FC8340"/>
<path d="M246.113 240.34C253.806 241.778 255.205 235.898 255.205 235.898C255.205 235.898 256.167 230.675 256.516 230.282C256.56 230.208 256.588 230.126 256.598 230.041C256.608 229.955 256.601 229.869 256.576 229.786C256.375 228.901 255.997 228.064 255.467 227.325C254.988 226.76 255.378 224.409 255.378 224.409L246.463 222.146C246.463 222.146 245.675 223.929 245.59 224.758C245.505 225.586 244.19 229.328 244.329 229.852C244.468 230.376 243.762 231.984 243.674 232.813C243.585 233.641 242.495 234.859 242.413 235.293C242.276 235.685 242.115 236.069 241.931 236.441C241.694 237.014 241.505 237.606 241.364 238.209C240.913 240.036 246.113 240.34 246.113 240.34Z" fill="#4F1C01"/>
<path opacity="0.1" d="M246.112 240.34C253.805 241.778 255.204 235.898 255.204 235.898C255.204 235.898 256.165 230.675 256.515 230.283C256.559 230.208 256.587 230.126 256.597 230.041C256.607 229.955 256.6 229.868 256.575 229.786L254.722 235.073C254.722 235.073 253.193 238.25 247.511 237.773C244.277 237.499 242.686 236.903 241.914 236.439C241.677 237.011 241.487 237.602 241.346 238.206C240.911 240.036 246.112 240.34 246.112 240.34Z" fill="black"/>
<path opacity="0.1" d="M252.102 232.068C252.102 232.068 250.179 232.112 250.047 230.546L252.102 232.068Z" fill="black"/>
<path d="M192.297 146.623L193.516 146.933L193.248 148.168L192.117 147.882L192.297 146.623Z" fill="#ED5C0C"/>
<path opacity="0.1" d="M192.297 146.623L193.516 146.933L193.248 148.168L192.117 147.882L192.297 146.623Z" fill="black"/>
<path d="M228.493 89.1812L228.117 90.654L229.391 90.9764L229.767 89.5041L228.493 89.1812Z" fill="#3A3768"/>
<path d="M222.777 87.7305L222.4 89.2027L226.625 90.2734L227.001 88.8012L222.777 87.7305Z" fill="#3A3768"/>
<path d="M226.997 88.8042L226.621 90.2765L228.115 90.6553L228.491 89.1825L226.997 88.8042Z" fill="#3A3768"/>
<path d="M222.841 87.5398C222.74 87.5869 222.642 87.6372 222.545 87.678L222.791 87.7408L222.412 89.2131L220.544 88.7387C220.402 88.405 220.345 88.0412 220.378 87.6805C220.412 87.3192 220.535 86.9723 220.736 86.6701C221.092 86.0983 221.656 85.6861 222.312 85.5215C222.712 85.4065 223.102 85.2619 223.48 85.0879L222.841 87.5398Z" fill="#ED5C0C"/>
<path d="M227.301 93.8975L227.872 94.0445C227.964 94.0684 228.059 94.0734 228.153 94.0602C228.248 94.0464 228.338 94.0143 228.42 93.966C228.502 93.9176 228.573 93.8535 228.63 93.7781C228.686 93.702 228.727 93.6153 228.751 93.5236L229.388 90.9869L228.127 90.6733L227.301 93.8975Z" fill="#3A3768"/>
<path d="M226.866 81.2888C226.431 82.9841 225.167 84.3055 223.459 85.0872L225.697 76.3291C226.831 77.8328 227.307 79.5934 226.866 81.2888Z" fill="#3A3768"/>
<path d="M226.507 93.6956C226.323 93.6479 226.164 93.5297 226.066 93.3664C225.969 93.2024 225.94 93.0069 225.988 92.8228L226.637 90.283L222.414 89.2129L209.533 139.609C210.469 141.425 210.707 143.52 210.202 145.498C209.696 147.476 208.482 149.203 206.788 150.352L206.488 151.526L212.202 152.985L227.301 93.9086L226.507 93.6956Z" fill="#3A3768"/>
<path d="M225.987 92.8234C225.94 93.0081 225.968 93.2035 226.066 93.3669C226.163 93.5303 226.322 93.649 226.507 93.6962L227.301 93.8973L228.127 90.6637L226.636 90.2842L225.987 92.8234Z" fill="#3A3768"/>
<path d="M220.734 86.6698C221.092 86.0998 221.656 85.6883 222.31 85.5211C222.709 85.4055 223.099 85.261 223.476 85.0876L225.717 76.3294C224.314 74.555 222.349 73.3064 220.141 72.7886C215.518 71.6142 211.036 73.52 210.139 77.042C209.713 78.7028 210.161 80.4264 211.235 81.908C211.647 82.4698 212.127 82.9788 212.663 83.4243L212.685 83.4934C212.989 83.9823 213.126 84.556 213.077 85.129C213.029 85.7027 212.796 86.245 212.414 86.6761L184.157 79.5096L177.781 104.46C178.815 103.625 180.028 103.04 181.326 102.75C182.625 102.459 183.973 102.471 185.266 102.783C190.028 103.992 192.829 109.109 191.525 114.21C190.22 119.311 185.316 122.473 180.554 121.28C179.264 120.941 178.069 120.309 177.065 119.434C176.06 118.559 175.273 117.464 174.764 116.235L168.219 141.838L193.249 148.183C192.437 147.156 191.871 145.959 191.593 144.681C191.316 143.404 191.334 142.081 191.648 140.812C192.861 136.072 197.995 133.278 203.12 134.577C204.488 134.911 205.768 135.532 206.874 136.401C207.98 137.269 208.887 138.363 209.533 139.609L222.414 89.2128L220.564 88.739C220.419 88.4066 220.359 88.044 220.389 87.6833C220.418 87.322 220.537 86.9739 220.734 86.6698Z" fill="#ED5C0C"/>
<path d="M222.788 87.7406L222.841 87.5396C222.743 87.5867 222.646 87.637 222.545 87.6809L222.788 87.7406Z" fill="#ED5C0C"/>
<g opacity="0.1">
<path opacity="0.1" d="M228.503 89.1908L227.012 88.8112L222.792 87.7405L222.846 87.5394L223.476 85.0876C223.098 85.2616 222.707 85.4061 222.307 85.5211C221.652 85.6864 221.087 86.098 220.731 86.6698C220.639 86.8281 220.561 86.994 220.498 87.1662C220.559 86.994 220.636 86.8281 220.727 86.6698C221.085 86.0998 221.65 85.6883 222.303 85.5211C222.702 85.4055 223.092 85.261 223.47 85.0876L225.71 76.3294C224.308 74.555 222.342 73.3064 220.135 72.7886C215.512 71.6142 211.03 73.52 210.132 77.042C209.706 78.7028 210.154 80.4264 211.229 81.908C211.641 82.4698 212.12 82.9788 212.656 83.4243L212.679 83.4934C212.982 83.9823 213.12 84.556 213.071 85.129C213.022 85.7027 212.789 86.245 212.408 86.6761L184.15 79.5096L177.774 104.46C178.809 103.625 180.024 103.039 181.323 102.748C182.622 102.457 183.972 102.469 185.266 102.783C190.028 103.992 192.829 109.109 191.525 114.21C190.22 119.311 185.316 122.473 180.554 121.28C179.264 120.941 178.069 120.309 177.065 119.434C176.06 118.559 175.273 117.464 174.764 116.235L168.219 141.838L193.249 148.183C192.437 147.156 191.871 145.959 191.593 144.681C191.316 143.404 191.334 142.081 191.648 140.812C192.861 136.072 197.995 133.278 203.12 134.577C204.488 134.911 205.768 135.532 206.874 136.401C207.98 137.269 208.887 138.363 209.533 139.609C210.47 141.425 210.708 143.52 210.202 145.498C209.697 147.477 208.483 149.203 206.788 150.352L206.489 151.526L212.203 152.986L227.302 93.9091L227.872 94.0568C227.965 94.08 228.061 94.0851 228.155 94.0719C228.248 94.058 228.339 94.0266 228.421 93.9782C228.502 93.9299 228.574 93.8658 228.631 93.7897C228.688 93.7137 228.729 93.627 228.752 93.5352L229.388 90.9866L229.763 89.5144L228.503 89.1908ZM222.692 87.6211C222.644 87.6431 222.596 87.6682 222.549 87.6871L222.692 87.6211ZM220.548 88.7484L222.417 89.2222L220.548 88.7484Z" fill="black"/>
<path opacity="0.1" d="M226.868 81.2897C227.3 79.5944 226.824 77.8369 225.698 76.3301L223.461 85.0882C225.179 84.3065 226.442 82.9819 226.868 81.2897Z" fill="black"/>
</g>
<path d="M228.805 87.9673L228.428 89.4395L229.702 89.7625L230.078 88.2896L228.805 87.9673Z" fill="#3A3768"/>
<path d="M223.085 86.5166L222.709 87.9889L226.933 89.0602L227.309 87.5873L223.085 86.5166Z" fill="#3A3768"/>
<path d="M227.308 87.5845L226.932 89.0574L228.426 89.4356L228.802 87.9634L227.308 87.5845Z" fill="#3A3768"/>
<path d="M223.153 86.3223L222.857 86.4637L223.099 86.5234L222.724 88.0051L220.856 87.5307C220.712 87.1976 220.654 86.8338 220.687 86.4725C220.719 86.1112 220.843 85.7643 221.045 85.4621C221.402 84.8915 221.966 84.48 222.62 84.3134C223.02 84.1985 223.409 84.0539 223.787 83.8799L223.153 86.3223Z" fill="#ED5C0C"/>
<path d="M227.611 92.6814L228.185 92.8259C228.277 92.851 228.374 92.8573 228.47 92.8441C228.565 92.8316 228.656 92.8001 228.739 92.7511C228.822 92.7027 228.894 92.638 228.952 92.5614C229.009 92.4847 229.051 92.3974 229.073 92.305L229.723 89.7683L228.462 89.4541L227.611 92.6814Z" fill="#3A3768"/>
<path d="M227.182 80.0748C226.75 81.7663 225.487 83.0884 223.775 83.8701L226.016 75.1113C227.145 76.615 227.62 78.3763 227.182 80.0748Z" fill="#3A3768"/>
<path d="M226.819 92.4804C226.727 92.4571 226.64 92.4156 226.565 92.3591C226.489 92.3019 226.425 92.2309 226.376 92.1498C226.328 92.0682 226.296 91.9783 226.283 91.8847C226.27 91.791 226.275 91.6962 226.299 91.6044L226.929 89.0677L222.725 88.0039L209.847 138.394C210.786 140.209 211.024 142.304 210.519 144.282C210.013 146.261 208.798 147.986 207.102 149.133L206.803 150.307L212.52 151.758L227.616 92.6814L226.819 92.4804Z" fill="#3A3768"/>
<path d="M226.3 91.6046C226.276 91.6957 226.271 91.7912 226.284 91.8848C226.298 91.9784 226.329 92.0683 226.378 92.15C226.426 92.231 226.49 92.3021 226.566 92.3586C226.642 92.4158 226.728 92.4566 226.82 92.4805L227.611 92.681L228.443 89.4449L226.949 89.0679L226.3 91.6046Z" fill="#3A3768"/>
<path d="M221.047 85.4516C221.404 84.8804 221.968 84.4695 222.622 84.3024C223.022 84.188 223.412 84.0435 223.789 83.8694L226.026 75.1113C224.625 73.3368 222.66 72.0883 220.454 71.5699C215.828 70.3992 211.349 72.3013 210.448 75.827C210.026 77.484 210.47 79.2076 211.547 80.6893C211.96 81.2523 212.439 81.7625 212.975 82.2087L212.997 82.2746C213.3 82.7641 213.437 83.3378 213.389 83.9109C213.339 84.484 213.108 85.0262 212.726 85.4579L184.466 78.294L178.081 103.241C179.116 102.405 180.333 101.819 181.634 101.528C182.935 101.238 184.286 101.252 185.581 101.568C190.341 102.774 193.145 107.89 191.841 112.995C190.536 118.099 185.629 121.254 180.854 120.049C179.565 119.707 178.373 119.075 177.37 118.199C176.368 117.323 175.582 116.229 175.074 115.001L168.531 140.604L193.558 146.952C192.747 145.925 192.181 144.728 191.904 143.45C191.628 142.173 191.647 140.849 191.961 139.581C193.17 134.838 198.308 132.047 203.432 133.347C204.803 133.68 206.085 134.304 207.192 135.175C208.299 136.045 209.205 137.143 209.849 138.394L222.726 88.0034L220.857 87.5296C220.714 87.1947 220.656 86.8296 220.688 86.4671C220.722 86.1039 220.845 85.7551 221.047 85.4516Z" fill="#ED5C0C"/>
<path d="M223.1 86.5255L223.15 86.3213C223.053 86.3684 222.955 86.4187 222.857 86.4627L223.1 86.5255Z" fill="#ED5C0C"/>
<path d="M218.671 180.611C219.617 182.046 220.726 188.318 220.726 188.318C220.726 188.318 221.47 189.752 221.426 190.974C221.382 192.195 222.126 194.427 222.126 194.427L224.575 203.439C224.575 203.439 224.31 205.834 225.23 207.52C226.15 209.206 226.059 208.694 225.624 211.654C225.189 214.615 226.147 217.359 227.72 218.247C229.293 219.136 227.02 221.163 227.02 221.163C227.02 221.163 237.074 223.863 239.173 222.209C241.272 220.554 238.079 212.368 238.079 212.368C238.079 212.368 238.606 205.489 238.256 204.488C237.906 203.486 236.418 194.954 236.418 194.954C236.418 194.954 235.502 191.077 235.851 190.424C236.201 189.771 235.634 187.913 235.634 187.913C235.634 187.913 234.146 185.822 234.279 185.169C234.411 184.516 233.841 183.342 233.841 183.342C233.841 183.342 238.29 176.53 237.897 175.253C237.503 173.975 238.07 171.944 238.07 171.944L239.312 169.828C240.14 168.415 241.143 166.723 241.48 166.196C241.909 165.524 242.943 162.667 243.519 161.019L243.929 159.839C243.929 159.839 244.628 172.641 245.24 173.946C245.851 175.253 246.769 185.562 246.769 185.562C247.108 186.48 247.258 187.457 247.207 188.434C247.118 190.044 248.606 197.054 248.606 197.054C248.606 197.054 249.261 202.017 248.823 203.332C248.385 204.648 248.735 214.263 248.735 214.263C248.735 214.263 246.33 216.147 245.719 217.572C245.108 218.997 245.807 222.909 245.807 222.909C245.807 222.909 252.801 226.393 255.893 225.48C258.984 224.566 257.727 219.295 257.727 219.295C257.727 219.295 259.826 215.814 259.826 214.464C259.826 213.115 260.588 208.993 260.588 208.993C263.255 204.117 262.205 192.276 262.643 191.319C263.081 190.362 261.723 186.789 260.632 185.178C259.542 183.568 259.977 179.214 260.632 177.958C261.288 176.703 259.958 172.336 259.958 172.336C259.958 172.336 261.219 163.889 261.181 162.582C261.143 161.277 262.274 157.403 262.274 157.403C262.274 157.403 263.409 155.4 263.148 154.788C262.885 154.176 264.02 152.613 263.715 151.916C263.409 151.218 263.979 149.09 264.546 147.835C264.837 147.188 265.199 145.405 265.492 143.826C265.76 142.322 265.958 141.001 265.958 141.001L258.744 135.209L240.736 130.5L233.964 128.325L227.361 138.684C226.894 139.439 226.466 140.218 226.078 141.016C225.558 142.093 225.095 143.292 225.177 144.039C225.286 144.983 225.071 145.935 224.565 146.739C224.565 146.739 220.629 159.145 220.717 162.717C220.805 166.29 219.318 174.122 219.318 174.122C219.318 174.122 217.701 179.17 218.671 180.611Z" fill="#712800"/>
<path d="M245.291 79.6852C245.568 79.5721 264.583 71.7496 261.963 70.1956C260.409 69.2726 258.496 65.361 257.186 62.3003C256.271 60.1625 255.651 58.4391 255.651 58.4391C255.651 58.4391 240.391 55.7394 245.853 65.0563C246.713 66.4858 247.362 68.0316 247.778 69.6458C249.335 75.9935 245.417 79.5689 245.291 79.6852Z" fill="#FEC2BE"/>
<path opacity="0.1" d="M245.853 65.0563C246.713 66.4858 247.362 68.0316 247.778 69.6458C249.714 69.512 251.576 68.8535 253.164 67.7419C254.752 66.6303 256.005 65.1084 256.789 63.3396C256.94 63.0003 257.072 62.6537 257.186 62.3003C256.271 60.1625 255.651 58.4391 255.651 58.4391C255.651 58.4391 240.391 55.7394 245.853 65.0563Z" fill="black"/>
<path d="M236.365 58.6995C236.366 61.3872 237.39 63.9746 239.231 65.9402C241.072 67.905 243.592 69.1021 246.284 69.29C248.976 69.4772 251.638 68.6409 253.736 66.9499C255.833 65.259 257.209 62.8386 257.585 60.1771C257.962 57.5156 257.311 54.8111 255.764 52.6086C254.217 50.4062 251.89 48.8698 249.251 48.3093C246.612 47.7487 243.858 48.2056 241.543 49.588C239.23 50.9703 237.528 53.1752 236.781 55.758C236.505 56.7142 236.365 57.7044 236.365 58.6995Z" fill="#FEC2BE"/>
<path opacity="0.1" d="M226.078 141.014C227.194 142.024 227.623 143.949 227.623 143.949C227.623 143.949 232.87 147.518 232.52 145.255C232.17 142.991 235.23 133.847 235.23 133.847L234.881 146.3C234.881 146.3 251.663 145.516 252.889 144.297C254.115 143.079 261.282 140.744 261.282 140.744C261.282 140.744 263.488 142.499 265.492 143.83C265.76 142.326 265.959 141.005 265.959 141.005L258.745 135.212L240.736 130.504L233.963 128.329L227.361 138.688C226.894 139.441 226.466 140.217 226.078 141.014Z" fill="black"/>
<path d="M225.526 140.03C226.926 140.9 227.449 143.251 227.449 143.251C227.449 143.251 232.693 146.82 232.343 144.557C231.994 142.294 235.054 133.149 235.054 133.149L234.704 145.603C234.704 145.603 251.49 144.824 252.709 143.6C253.929 142.375 261.102 140.03 261.102 140.03C261.102 140.03 267.31 144.993 268.445 144.557C269.579 144.121 266.435 135.676 266.435 135.676L263.204 86.2181C263.204 86.2181 264.077 71.5019 262.766 70.9772C262.564 70.8962 262.377 70.7799 262.214 70.6354C261.351 69.8631 261.093 68.2935 261.017 66.9752C260.932 65.4055 258.833 66.1903 258.833 66.1903L260.055 67.76L249.223 74.3207L249.129 74.3773C248.707 74.1561 248.272 73.96 247.828 73.7904C246.882 73.4228 245.593 73.0778 244.758 73.4197C244.291 73.6559 243.895 74.0116 243.61 74.4495C242.993 75.3739 242.497 76.3742 242.135 77.4255L238.211 84.0396C238.211 84.0396 236.201 92.8291 236.201 93.1841C236.201 93.5385 235.59 101.544 234.89 102.414C234.19 103.283 233.491 107.637 233.752 108.943C234.014 110.249 233.314 115.127 233.314 115.127C230.43 117.479 228.946 125.486 228.946 125.486C228.946 125.486 224.389 134.464 224.03 135.501C223.67 136.537 224.127 139.173 225.526 140.03Z" fill="white"/>
<path opacity="0.1" d="M249.225 74.6653C250.287 76.2349 253.357 78.4323 253.357 78.4323L262.216 70.9768C261.352 70.2045 261.094 68.6349 261.018 67.3134C260.933 65.7438 258.834 66.5318 258.834 66.5318L259.09 66.8459C259.211 67.0024 259.298 67.1827 259.345 67.375C259.392 67.5673 259.398 67.7671 259.362 67.9619C259.326 68.1567 259.249 68.3414 259.136 68.5048C259.023 68.6676 258.878 68.8052 258.708 68.9082L249.225 74.6653Z" fill="black"/>
<path d="M249.225 74.3175C250.287 75.8872 253.357 78.0845 253.357 78.0845L262.216 70.629C261.352 69.8568 261.094 68.2871 261.018 66.9688C260.933 65.3992 258.834 66.184 258.834 66.184L259.09 66.4976C259.211 66.654 259.298 66.8344 259.345 67.026C259.392 67.2183 259.398 67.4181 259.362 67.6123C259.326 67.8071 259.249 67.9918 259.136 68.1545C259.023 68.3173 258.878 68.4543 258.708 68.5573L249.225 74.3175Z" fill="white"/>
<path opacity="0.1" d="M245.127 75.4919C246.271 76.8542 247.894 78.4018 247.819 77.6264C247.743 76.851 248.786 75.14 249.451 74.374C248.412 74.046 247.293 74.0774 246.274 74.462C245.807 74.6976 245.411 75.0527 245.127 75.4919Z" fill="black"/>
<path d="M244.953 74.9674C246.097 76.3328 247.717 77.8774 247.641 77.1051C247.566 76.3328 248.502 75.0742 249.167 74.3083C248.221 73.9407 246.935 73.5957 246.097 73.9407C245.631 74.175 245.236 74.5294 244.953 74.9674Z" fill="white"/>
<path d="M247.819 82.213C248.205 82.213 248.518 81.9014 248.518 81.5162C248.518 81.1316 248.205 80.8193 247.819 80.8193C247.432 80.8193 247.119 81.1316 247.119 81.5162C247.119 81.9014 247.432 82.213 247.819 82.213Z" fill="#ED5C0C"/>
<path d="M242.514 101.02C242.9 101.02 243.213 100.707 243.213 100.323C243.213 99.9376 242.9 99.626 242.514 99.626C242.128 99.626 241.814 99.9376 241.814 100.323C241.814 100.707 242.128 101.02 242.514 101.02Z" fill="#ED5C0C"/>
<path d="M236.515 120.062C236.901 120.062 237.214 119.75 237.214 119.365C237.214 118.98 236.901 118.668 236.515 118.668C236.128 118.668 235.814 118.98 235.814 119.365C235.814 119.75 236.128 120.062 236.515 120.062Z" fill="#ED5C0C"/>
<path d="M236.336 140.784C236.723 140.784 237.036 140.473 237.036 140.087C237.036 139.703 236.723 139.391 236.336 139.391C235.95 139.391 235.637 139.703 235.637 140.087C235.637 140.473 235.95 140.784 236.336 140.784Z" fill="#ED5C0C"/>
<path d="M244.729 91.0934C245.116 91.0934 245.429 90.7817 245.429 90.3966C245.429 90.012 245.116 89.6997 244.729 89.6997C244.342 89.6997 244.029 90.012 244.029 90.3966C244.029 90.7817 244.342 91.0934 244.729 91.0934Z" fill="#ED5C0C"/>
<path d="M240.008 110.424C240.395 110.424 240.708 110.112 240.708 109.728C240.708 109.342 240.395 109.031 240.008 109.031C239.622 109.031 239.309 109.342 239.309 109.728C239.309 110.112 239.622 110.424 240.008 110.424Z" fill="#ED5C0C"/>
<path d="M235.403 129.408C235.789 129.408 236.103 129.096 236.103 128.711C236.103 128.326 235.789 128.014 235.403 128.014C235.017 128.014 234.703 128.326 234.703 128.711C234.703 129.096 235.017 129.408 235.403 129.408Z" fill="#ED5C0C"/>
<path d="M236.454 143.107C236.84 143.107 237.153 142.794 237.153 142.409C237.153 142.025 236.84 141.712 236.454 141.712C236.068 141.712 235.754 142.025 235.754 142.409C235.754 142.794 236.068 143.107 236.454 143.107Z" fill="#ED5C0C"/>
<path opacity="0.1" d="M262.215 71.0526C262.215 71.0526 262.098 70.007 263.611 71.8092C265.123 73.6107 267.982 75.1741 267.982 75.1741C267.982 75.1741 274.453 79.7039 274.803 81.7913C275.152 83.8794 277.248 92.9391 276.142 95.9559C275.036 98.9726 266.576 113.432 266.576 113.432C266.576 113.432 268.783 116.046 268.269 119.123C267.755 122.199 267.103 126.437 267.393 127.366C267.683 128.296 267.043 130.616 268.023 131.429C269.004 132.242 270.062 133.626 266.973 135.491C266.973 135.491 266.391 137.06 266.914 137.409C267.437 137.757 259.164 141.355 255.883 139.44C252.603 137.525 246.743 122.199 246.617 118.774C246.491 115.35 248.423 104.02 249.473 101.359C250.522 98.6962 253.671 88.2961 255.01 85.9762C256.35 83.6563 262.215 71.0526 262.215 71.0526Z" fill="black"/>
<path d="M262.562 71.0526C262.562 71.0526 262.446 70.007 263.962 71.8092C265.478 73.6107 268.333 75.1741 268.333 75.1741C268.333 75.1741 274.803 79.7039 275.153 81.7913C275.503 83.8794 277.598 92.9391 276.493 95.9559C275.386 98.9726 266.934 113.432 266.934 113.432C266.934 113.432 269.14 116.046 268.626 119.123C268.112 122.199 267.46 126.437 267.75 127.366C268.04 128.296 267.4 130.616 268.38 131.429C269.36 132.242 270.419 133.626 267.331 135.491C267.331 135.491 266.747 137.06 267.271 137.409C267.794 137.757 259.521 141.355 256.24 139.44C252.959 137.525 247.101 122.199 246.975 118.774C246.849 115.35 248.781 104.02 249.83 101.359C250.879 98.6962 254.028 88.2961 255.367 85.9762C256.707 83.6563 262.562 71.0526 262.562 71.0526Z" fill="#FC8340"/>
<path opacity="0.1" d="M264.893 80.9346C264.893 80.9346 259.882 86.4497 260.055 90.1074C260.055 90.1074 259.998 84.1832 264.893 80.9346Z" fill="black"/>
<path opacity="0.1" d="M257.961 89.9922C257.961 90.165 254.579 102.703 254.756 104.272C254.932 105.842 253.763 110.482 253.763 110.482L252.188 110.077C252.188 110.077 253.41 103.632 253.643 101.252C253.876 98.8728 257.961 89.9922 257.961 89.9922Z" fill="black"/>
<path opacity="0.1" d="M256.617 125.75C256.734 125.922 264.603 134.803 262.388 135.443C260.172 136.084 256.617 125.75 256.617 125.75Z" fill="black"/>
<path opacity="0.1" d="M263.088 123.478C263.261 123.594 266.24 129.863 266.583 128.187C266.927 126.51 264.021 132.773 263.555 128.13L263.088 123.478Z" fill="black"/>
<path opacity="0.1" d="M247.982 73.0395C247.982 73.0395 244.732 71.0645 240.651 76.1159C240.651 76.1159 237.679 77.7987 236.806 78.2065C235.933 78.6143 234.941 89.4102 234.941 89.4102C234.941 89.4102 233.018 94.0531 233.541 96.7249C234.064 99.3961 232.028 108.566 232.028 108.566C232.028 108.566 228.643 125.046 228.757 125.517C228.871 125.988 232.195 120.35 232.138 117.563C232.082 114.775 234.934 106.07 235.344 105.546C235.753 105.022 238.549 90.107 238.549 90.107C238.549 90.107 240.821 83.7788 242.278 81.6876C243.734 79.5971 245.543 75.6509 246.299 74.9541C246.843 74.4847 247.451 74.0939 248.105 73.7929L247.982 73.0395Z" fill="black"/>
<path d="M248.024 73.0395C248.024 73.0395 244.381 71.0645 240.302 76.1159C240.302 76.1159 237.327 77.7987 236.454 78.2065C235.581 78.6143 234.588 89.4102 234.588 89.4102C234.588 89.4102 232.666 94.0531 233.189 96.7243C233.712 99.3961 231.676 108.566 231.676 108.566C231.676 108.566 228.295 125.053 228.411 125.517C228.528 125.982 231.85 120.35 231.793 117.563C231.736 114.775 234.588 106.07 234.998 105.546C235.408 105.022 238.212 90.107 238.212 90.107C238.212 90.107 240.485 83.7788 241.941 81.6876C243.397 79.5971 245.206 75.6509 245.963 74.9541C246.719 74.2572 248.118 73.7929 248.118 73.7929L248.024 73.0395Z" fill="#FC8340"/>
<path d="M232.025 109.32C232.025 109.32 225.091 104.793 221.738 107.029C218.385 109.264 212.914 112.427 218.3 114.719C223.686 117.011 231.149 116.571 231.149 116.571L232.025 109.32Z" fill="#FEC2BE"/>
<path opacity="0.1" d="M236.848 153.004C237.882 155.202 238.739 166.308 239.313 169.827C240.141 168.415 241.144 166.723 241.481 166.196C241.909 165.523 242.943 162.667 243.52 161.018C242.861 159.424 241.043 154.854 241.043 153.171C241.043 151.124 237.721 148.556 237.721 148.556C237.721 148.556 235.625 150.393 236.848 153.004Z" fill="black"/>
<path opacity="0.1" d="M259.139 187.093C259.139 187.093 251.446 183.828 249.174 186.151C246.901 188.474 259.139 187.093 259.139 187.093Z" fill="black"/>
<path opacity="0.1" d="M254.812 188.399C254.812 188.399 262.594 192.753 259.927 193.481C257.261 194.209 254.812 188.399 254.812 188.399Z" fill="black"/>
<path opacity="0.1" d="M231.559 184.613C231.559 184.613 234.881 184.83 233.613 185.483C232.347 186.136 231.559 184.613 231.559 184.613Z" fill="black"/>
<path opacity="0.1" d="M227.404 185.615C227.448 185.831 237.064 188.923 235.186 190.323C233.308 191.723 227.404 185.615 227.404 185.615Z" fill="black"/>
<path opacity="0.1" d="M258.001 212.26C256.561 212.04 248.517 208.339 251.663 211.005C254.808 213.669 258.001 212.26 258.001 212.26Z" fill="black"/>
<path opacity="0.1" d="M254.025 215.177C254.025 215.177 253.325 217.877 250.659 217.528C247.993 217.18 254.025 215.177 254.025 215.177Z" fill="black"/>
<path opacity="0.1" d="M256.256 220.661C255.774 220.532 250.047 217.921 249.918 219.139C249.788 220.357 255.38 222.492 255.818 221.839C256.069 221.493 256.221 221.086 256.256 220.661Z" fill="black"/>
<path opacity="0.1" d="M237.72 217.528C237.021 217.484 230.472 215.394 229.154 217.265L237.72 217.528Z" fill="black"/>
<path opacity="0.1" d="M231.777 218.746C231.777 218.746 230.639 217.744 229.505 218.265C228.37 218.787 231.777 218.746 231.777 218.746Z" fill="black"/>
<path opacity="0.1" d="M246.29 229.545C246.217 229.914 246.037 230.256 245.773 230.526C245.509 230.796 245.172 230.984 244.803 231.067L246.29 229.545Z" fill="black"/>
<path d="M212.935 233.634C213.374 235.42 219.494 235.593 222.422 235.116C225.35 234.638 231.426 232.893 231.426 232.893C231.426 232.893 237.808 232.284 239.686 231.503C241.565 230.721 240.08 228.715 240.08 228.715C240.08 228.715 240.08 228.646 240.08 228.527C240.124 227.799 240.257 225.158 239.806 224.446C239.283 223.617 239.589 220.917 239.589 220.917C239.589 220.917 230.54 222.659 230.364 221.834C230.188 221.008 228.788 219.831 228.136 219.57C227.483 219.31 226.998 221.746 226.998 221.746C226.998 221.746 222.901 225.231 222.627 226.492C222.353 227.755 219.475 228.408 219.475 228.408C219.475 228.408 215.104 229.625 213.966 230.234C213.636 230.389 213.352 230.626 213.141 230.923C212.93 231.219 212.799 231.565 212.762 231.926C212.715 232.501 212.773 233.08 212.935 233.634Z" fill="#4F1C01"/>
<path opacity="0.1" d="M212.937 233.635C213.375 235.421 219.496 235.594 222.424 235.117C225.352 234.639 231.428 232.894 231.428 232.894C231.428 232.894 237.81 232.285 239.689 231.504C241.567 230.722 240.082 228.716 240.082 228.716C240.082 228.716 240.082 228.647 240.082 228.528L230.943 230.546C230.943 230.546 226.439 232.461 223.555 232.461C221.034 232.461 215.393 233.488 212.777 231.93C212.725 232.504 212.78 233.082 212.937 233.635Z" fill="black"/>
<path opacity="0.1" d="M225.307 226.757C225.307 226.757 225.745 229.63 227.494 230.587L225.307 226.757Z" fill="black"/>
<path opacity="0.1" d="M236.781 55.7583C236.948 55.8459 237.122 55.9184 237.302 55.9749C238.121 56.1946 238.921 55.6421 239.65 55.2026C240.377 54.7632 241.383 54.4367 242.013 55.008C242.836 55.752 242.24 57.3404 243.088 58.0593C243.624 58.5145 244.474 58.3575 245.07 58.7311C245.666 59.1046 245.845 59.924 245.997 60.6303C246.148 61.3366 246.451 62.1434 247.144 62.3506C247.837 62.5578 248.484 62.1026 249.167 62.1277C249.309 62.1277 249.482 62.1497 249.571 62.0492C249.633 61.9573 249.657 61.8445 249.637 61.7353C249.552 60.8916 249.627 60.0394 249.86 59.224C250.141 58.4203 250.806 57.6952 251.638 57.5665C252.864 57.3781 253.895 58.4486 254.616 59.45C255.375 60.5104 256.066 61.6176 256.684 62.765C256.723 62.8392 256.758 62.9159 256.788 62.9938C257.38 61.6619 257.691 60.2227 257.701 58.7658C257.71 57.309 257.419 55.8657 256.846 54.5256C256.272 53.1856 255.427 51.9774 254.364 50.9763C253.302 49.9752 252.044 49.2025 250.669 48.7062C249.293 48.2099 247.831 48.0007 246.371 48.0915C244.911 48.1823 243.486 48.5713 242.183 49.2341C240.881 49.897 239.729 50.8196 238.799 51.9447C237.871 53.0698 237.183 54.3732 236.781 55.7739V55.7583Z" fill="black"/>
<path d="M254.616 59.2745C253.895 58.2637 252.864 57.1963 251.635 57.391C250.794 57.5197 250.145 58.2448 249.861 59.0454C249.627 59.8608 249.552 60.7132 249.641 61.5567C249.658 61.6663 249.633 61.7785 249.571 61.8706C249.474 61.9742 249.309 61.9585 249.167 61.9522C248.484 61.9272 247.803 62.3698 247.144 62.1751C246.486 61.9805 246.148 61.1612 245.997 60.4548C245.846 59.7486 245.682 58.9417 245.07 58.5556C244.459 58.1695 243.624 58.339 243.088 57.8807C242.241 57.165 242.839 55.5734 242.013 54.8294C241.383 54.2612 240.378 54.5877 239.65 55.0272C238.922 55.4667 238.121 56.016 237.299 55.7963C237.021 55.721 236.772 55.564 236.501 55.4604C235.206 54.9675 233.526 55.8026 232.461 54.9173C232.074 54.5321 231.796 54.0525 231.654 53.5266C231.362 52.8155 231.163 52.0693 231.065 51.3072C230.97 50.5368 231.183 49.7603 231.657 49.1443C232.35 48.3313 233.523 48.1272 234.408 47.5276C235.162 47.0128 235.669 46.2311 236.167 45.4621C236.665 44.6929 237.147 43.8924 237.875 43.3494C238.604 42.8063 239.624 42.5363 240.438 42.9475C240.694 43.1257 240.978 43.2604 241.279 43.3462C241.607 43.3504 241.929 43.2622 242.209 43.0919C245.24 41.6699 248.77 41.921 252.095 42.3448C253.426 42.5144 254.774 42.7121 255.988 43.2865C257.201 43.8611 258.272 44.8562 258.613 46.1495C258.884 47.1729 258.676 48.2873 259.004 49.2887C259.224 49.9731 259.678 50.5444 259.949 51.2319C260.659 53.0683 259.81 55.0837 259.451 57.0174C259.061 59.1301 259.256 61.4123 258.354 63.415C258.178 63.8077 257.979 64.4951 257.535 64.2375C257.22 64.0459 256.886 62.9318 256.697 62.5832C256.075 61.4372 255.38 60.3321 254.616 59.2745Z" fill="#3F3D56"/>
<path opacity="0.1" d="M273.827 93.301L275.402 97.7712C275.402 97.7712 271.67 111.584 269.921 114.487C268.172 117.391 265.61 121.105 265.61 121.105C265.61 121.105 261.299 123.255 256.284 122.267C251.27 121.278 236.637 118.669 236.637 118.669C236.637 118.669 235.412 118.901 234.771 117.972C234.132 117.043 230.8 116.572 230.8 116.572C230.8 116.572 226.955 111 231.676 108.677C231.676 108.677 232.26 109.954 234.765 109.085C237.271 108.215 238.027 109.779 238.027 109.779C238.027 109.779 242.124 110.592 244.38 110.303C246.638 110.014 252.307 109.895 252.89 109.43C253.038 109.301 253.231 109.235 253.427 109.246C253.624 109.258 253.808 109.345 253.94 109.49C253.94 109.49 255.336 108.969 255.802 108.445C256.269 107.92 256.911 109.025 256.911 109.025C256.911 109.025 257.728 108.561 257.495 107.98C257.261 107.399 258.251 105.195 258.251 105.195C258.251 105.195 258.717 103.742 258.427 102.581C258.138 101.419 259.884 97.244 259.884 97.244C259.906 96.5396 259.828 95.8352 259.65 95.1534C259.357 94.111 261.856 92.0141 261.856 92.0141C261.856 92.0141 264.302 80.1695 269.49 84.0591C274.677 87.9486 273.827 93.301 273.827 93.301Z" fill="black"/>
<path d="M274.16 93.301L275.736 97.7712C275.736 97.7712 272.004 111.584 270.255 114.487C268.506 117.391 265.947 121.105 265.947 121.105C265.947 121.105 261.635 123.255 256.622 122.267C251.607 121.278 236.98 118.669 236.98 118.669C236.98 118.669 235.757 118.901 235.118 117.972C234.478 117.043 231.15 116.572 231.15 116.572C231.15 116.572 227.305 111 232.026 108.677C232.026 108.677 232.609 109.954 235.115 109.085C237.62 108.215 238.377 109.779 238.377 109.779C238.377 109.779 242.474 110.592 244.73 110.303C246.987 110.014 252.656 109.895 253.24 109.43C253.387 109.301 253.58 109.235 253.777 109.246C253.973 109.258 254.157 109.345 254.289 109.49C254.289 109.49 255.685 108.969 256.151 108.445C256.618 107.92 257.261 109.025 257.261 109.025C257.261 109.025 258.077 108.561 257.844 107.98C257.611 107.399 258.601 105.195 258.601 105.195C258.601 105.195 259.067 103.742 258.774 102.581C258.481 101.419 260.233 97.244 260.233 97.244C260.256 96.5396 260.177 95.8352 260 95.1534C259.707 94.111 262.206 92.0141 262.206 92.0141C262.206 92.0141 264.652 80.1695 269.839 84.0591C275.027 87.9486 274.16 93.301 274.16 93.301Z" fill="#FC8340"/>
<path opacity="0.1" d="M236.28 111.991C236.336 112.399 237.619 114.022 237.153 114.314C236.687 114.606 235.93 114.43 236.63 115.359C237.329 116.289 237.26 117.679 236.803 117.506C236.346 117.334 235.58 115.243 235.58 114.43C235.58 113.617 236.28 111.991 236.28 111.991Z" fill="black"/>
<path opacity="0.1" d="M253.588 111.062C253.588 111.062 253.938 115.127 256.806 116.288C259.673 117.45 253.588 111.062 253.588 111.062Z" fill="black"/>
<path opacity="0.1" d="M259.533 109.665C259.706 109.725 263.611 111.816 261.865 113.034C260.119 114.251 259.533 109.665 259.533 109.665Z" fill="black"/>
<path opacity="0.1" d="M259.766 106.768C259.766 106.768 265.476 107.929 263.548 108.915C261.619 109.901 259.766 106.768 259.766 106.768Z" fill="black"/>
<g opacity="0.1">
<path opacity="0.1" d="M249.871 58.0503C250.155 57.2497 250.817 56.5246 251.645 56.3959C252.875 56.2075 253.906 57.278 254.627 58.2794C255.386 59.3399 256.076 60.447 256.694 61.5944C256.883 61.9428 257.205 63.0539 257.533 63.2455C257.977 63.5063 258.163 62.8187 258.352 62.4263C259.253 60.4297 259.058 58.1413 259.449 56.0286C259.679 54.7949 260.105 53.5173 260.199 52.293C260.335 53.8123 259.736 55.4102 259.449 56.9547C259.058 59.0673 259.253 61.3495 258.352 63.3555C258.176 63.7482 257.977 64.4356 257.533 64.1748C257.217 63.9832 256.883 62.8723 256.694 62.5236C256.076 61.3762 255.386 60.2691 254.627 59.2086C253.906 58.201 252.875 57.1305 251.645 57.3251C250.804 57.4538 250.155 58.179 249.871 58.9794C249.73 59.4012 249.652 59.8412 249.638 60.2854C249.575 59.5324 249.655 58.7744 249.871 58.0503Z" fill="black"/>
<path opacity="0.1" d="M231.653 52.5316C231.795 53.0588 232.072 53.5395 232.46 53.9254C233.525 54.8106 235.205 53.9756 236.5 54.4685C236.771 54.569 237.02 54.7291 237.297 54.8044C238.12 55.021 238.924 54.4716 239.649 54.0322C240.373 53.5927 241.385 53.2693 242.012 53.8375C242.838 54.5815 242.239 56.17 243.087 56.8888C243.623 57.344 244.474 57.2028 245.07 57.5638C245.665 57.9247 245.845 58.7535 245.996 59.4473C246.147 60.141 246.446 60.9604 247.143 61.1675C247.84 61.3748 248.482 60.9227 249.167 60.9478C249.308 60.9478 249.482 60.9698 249.57 60.8662C249.591 60.8398 249.606 60.8101 249.617 60.7783C249.617 61.0138 249.617 61.246 249.639 61.4783C249.656 61.588 249.632 61.6999 249.57 61.7922C249.472 61.8927 249.308 61.877 249.167 61.8707C248.482 61.8487 247.802 62.2883 247.143 62.0936C246.484 61.899 246.147 61.0828 245.996 60.3733C245.845 59.6639 245.681 58.8603 245.07 58.4898C244.458 58.1194 243.623 58.2701 243.087 57.8149C242.239 57.096 242.838 55.5044 242.012 54.7636C241.382 54.1923 240.377 54.5187 239.649 54.9582C238.92 55.3977 238.12 55.947 237.297 55.7304C237.02 55.6551 236.771 55.495 236.5 55.3946C235.205 54.9017 233.525 55.7367 232.46 54.8515C232.073 54.4651 231.795 53.9845 231.653 53.4577C231.361 52.7475 231.163 52.0025 231.064 51.2414C231.042 50.982 231.048 50.721 231.083 50.4629C231.192 51.172 231.384 51.8661 231.653 52.5316Z" fill="black"/>
</g>
<path d="M31.4465 228.088C31.4465 228.088 18.1215 227.288 19.691 236.586C19.691 236.586 19.3759 238.231 20.876 238.978C20.876 238.978 20.8981 238.288 22.2438 238.52C22.7216 238.599 23.2071 238.624 23.6904 238.592C24.3436 238.547 24.9643 238.291 25.4585 237.864C25.4585 237.864 29.2058 236.323 30.6618 230.223C30.6618 230.223 31.7397 228.895 31.6956 228.553L29.4485 229.495C29.4485 229.495 30.2175 231.111 29.6123 232.455C29.6123 232.455 29.5398 229.555 29.1081 229.629C29.0198 229.629 27.9388 230.189 27.9388 230.189C27.9388 230.189 29.2625 233.014 28.254 235.051C28.254 235.051 28.6322 231.582 27.5165 230.392L25.9407 231.312C25.9407 231.312 27.485 234.219 26.4386 236.592C26.4386 236.592 26.7066 232.954 25.6066 231.538L24.1726 232.652C24.1726 232.652 25.6255 235.516 24.7399 237.484C24.7399 237.484 24.6233 233.249 23.8638 232.929C23.8638 232.929 22.6031 234.031 22.4172 234.499C22.4172 234.499 23.41 236.58 22.7922 237.679C22.7922 237.679 22.414 234.853 22.1051 234.853C22.1051 234.853 20.8445 236.721 20.7248 237.992C20.7248 237.992 20.7783 236.087 21.8026 234.662C21.0816 234.798 20.4165 235.142 19.8896 235.65C19.8896 235.65 20.0818 234.329 22.1115 234.213C22.1115 234.213 23.1452 232.794 23.4194 232.709C23.4194 232.709 21.4024 232.54 20.1795 233.08C20.1795 233.08 21.2574 231.824 23.7913 232.402L25.2063 231.249C25.2063 231.249 22.5496 230.889 21.4244 231.287C21.4244 231.287 22.7197 230.186 25.5877 230.989L27.1289 230.069C27.1289 230.069 24.866 229.582 23.5171 229.755C23.5171 229.755 24.9385 228.992 27.5827 229.821L28.6826 229.328C28.6826 229.328 27.0248 229.014 26.5395 228.951C26.0541 228.889 26.0258 228.767 26.0258 228.767C27.0768 228.592 28.1559 228.711 29.1427 229.112C29.1427 229.112 31.4844 228.233 31.4465 228.088Z" fill="#ED5C0C"/>
<path d="M22.2695 241.376C27.4773 241.376 31.6991 240.665 31.6991 239.788C31.6991 238.911 27.4773 238.199 22.2695 238.199C17.0616 238.199 12.8398 238.911 12.8398 239.788C12.8398 240.665 17.0616 241.376 22.2695 241.376Z" fill="#301A47"/>
<path d="M56.9932 203.581C56.9932 203.581 49.4798 203.129 50.3748 208.374C50.3297 208.64 50.3699 208.913 50.4899 209.155C50.6099 209.397 50.8034 209.595 51.043 209.721C51.043 209.721 51.043 209.332 51.8151 209.463C52.0849 209.507 52.3587 209.521 52.6314 209.504C52.999 209.477 53.348 209.333 53.6273 209.093C53.6273 209.093 55.7326 208.236 56.5646 204.783C56.5646 204.783 57.1729 204.033 57.1477 203.841L55.887 204.378C55.887 204.378 56.3188 205.292 55.9784 206.048C55.9784 206.048 55.9374 204.413 55.6948 204.45C55.6444 204.45 55.0361 204.764 55.0361 204.764C55.0361 204.764 55.7799 206.334 55.2189 207.505C55.2189 207.505 55.4301 205.549 54.8029 204.877L53.9046 205.411C53.9046 205.411 54.7745 207.05 54.1852 208.387C54.1852 208.387 54.3365 206.334 53.7155 205.537L52.9088 206.164C52.9088 206.164 53.725 207.781 53.2239 208.889C53.2239 208.889 53.1577 206.5 52.7291 206.321C52.423 206.58 52.149 206.874 51.9129 207.197C51.9129 207.197 52.4739 208.371 52.1272 208.989C52.1272 208.989 51.9128 207.398 51.7395 207.392C51.7395 207.392 51.0336 208.443 50.961 209.169C50.9937 208.499 51.2024 207.849 51.5662 207.285C51.1601 207.363 50.7857 207.557 50.4883 207.844C50.4883 207.844 50.5986 207.097 51.749 207.034C51.749 207.034 52.3289 206.233 52.4865 206.186C52.4865 206.186 51.3487 206.089 50.6585 206.394C50.6585 206.394 51.2668 205.69 52.6945 206.01L53.4918 205.361C53.4918 205.361 51.9948 205.156 51.3613 205.383C51.3613 205.383 52.0925 204.755 53.7092 205.213L54.576 204.698C53.908 204.551 53.2235 204.492 52.54 204.522C52.54 204.522 53.3437 204.09 54.8313 204.557L55.4616 204.281C55.4616 204.281 54.5161 204.096 54.2545 204.068C53.9929 204.039 53.9646 203.964 53.9646 203.964C54.5576 203.865 55.1662 203.933 55.7231 204.159C55.7231 204.159 57.0279 203.662 56.9932 203.581Z" fill="#ED5C0C"/>
<path d="M51.8324 211.071C54.7688 211.071 57.1492 210.67 57.1492 210.176C57.1492 209.682 54.7688 209.282 51.8324 209.282C48.896 209.282 46.5156 209.682 46.5156 210.176C46.5156 210.67 48.896 211.071 51.8324 211.071Z" fill="#301A47"/>
<path d="M12.6667 208.132C12.6667 208.132 3.59637 207.586 4.67737 213.918C4.62249 214.239 4.67097 214.569 4.81588 214.862C4.9608 215.153 5.19471 215.393 5.48419 215.544C5.48419 215.544 5.48419 215.073 6.41391 215.23C6.73968 215.285 7.07086 215.301 7.40034 215.277C7.84539 215.247 8.26838 215.073 8.60429 214.781C8.60429 214.781 11.154 213.732 12.1467 209.583C12.1467 209.583 12.8779 208.679 12.8495 208.446L11.2958 209.099C11.2958 209.099 11.8158 210.198 11.4061 211.112C11.4061 211.112 11.3557 209.14 11.0625 209.187C11.0027 209.187 10.2683 209.567 10.2683 209.567C10.2683 209.567 11.1666 211.482 10.4889 212.876C10.4889 212.876 10.7443 210.515 9.98473 209.705L8.91002 210.333C8.91002 210.333 9.95946 212.31 9.24725 213.924C9.24725 213.924 9.43005 211.447 8.68312 210.471L7.70607 211.231C7.70607 211.231 8.69257 213.18 8.09056 214.52C8.09056 214.52 8.0118 211.636 7.49492 211.419C7.49492 211.419 6.64081 212.169 6.50849 212.477C6.50849 212.477 7.18604 213.893 6.7669 214.64C6.7669 214.64 6.50849 212.719 6.29731 212.709C6.29731 212.709 5.44637 213.984 5.35182 214.857C5.39401 214.05 5.64716 213.269 6.08615 212.59C5.59448 212.682 5.14073 212.915 4.78138 213.262C4.78138 213.262 4.91375 212.361 6.29731 212.282C6.29731 212.282 7.0001 211.319 7.18605 211.259C7.18605 211.259 5.81511 211.143 4.97993 211.51C4.97993 211.51 5.71425 210.662 7.43821 211.049L8.40259 210.264C8.40259 210.264 6.59355 210.019 5.82772 210.292C5.82772 210.292 6.71019 209.539 8.66415 210.088L9.71366 209.46C9.71366 209.46 8.17254 209.127 7.25542 209.247C7.25542 209.247 8.22295 208.726 10.0225 209.291L10.7726 208.955C10.7726 208.955 9.64435 208.735 9.31341 208.7C8.98248 208.666 8.96358 208.575 8.96358 208.575C9.6785 208.454 10.4131 208.535 11.0846 208.807C11.0846 208.807 12.6951 208.236 12.6667 208.132Z" fill="#ED5C0C"/>
<path d="M6.41985 217.176C9.96547 217.176 12.8397 216.692 12.8397 216.096C12.8397 215.5 9.96547 215.017 6.41985 215.017C2.87427 215.017 0 215.5 0 216.096C0 216.692 2.87427 217.176 6.41985 217.176Z" fill="#301A47"/>
<path d="M191.531 256.999C196.739 256.999 200.961 256.288 200.961 255.411C200.961 254.534 196.739 253.822 191.531 253.822C186.323 253.822 182.102 254.534 182.102 255.411C182.102 256.288 186.323 256.999 191.531 256.999Z" fill="#301A47"/>
<path opacity="0.2" d="M202.993 254.618C196.92 254.668 188.883 253.676 187.266 252.696C186.034 251.946 185.542 249.265 185.375 248.029H185.195C185.195 248.029 185.536 252.348 187.152 253.331C188.769 254.313 196.809 255.302 202.882 255.255C204.635 255.255 205.24 254.627 205.208 253.685C204.969 254.26 204.298 254.608 202.993 254.618Z" fill="black"/>
<defs>
<linearGradient id="paint0_linear" x1="224.821" y1="84.4884" x2="224.821" y2="74.4648" gradientUnits="userSpaceOnUse">
<stop stop-color="#808080" stop-opacity="0.25"/>
<stop offset="0.54" stop-color="#808080" stop-opacity="0.12"/>
<stop offset="1" stop-color="#808080" stop-opacity="0.1"/>
</linearGradient>
<linearGradient id="paint1_linear" x1="93911.2" y1="161115" x2="93911.2" y2="34341" gradientUnits="userSpaceOnUse">
<stop stop-color="#808080" stop-opacity="0.25"/>
<stop offset="0.54" stop-color="#808080" stop-opacity="0.12"/>
<stop offset="1" stop-color="#808080" stop-opacity="0.1"/>
</linearGradient>
</defs>
</svg>
