<svg width="371" height="186" viewBox="0 0 371 186" fill="none" xmlns="http://www.w3.org/2000/svg">
<path opacity="0.3" d="M78.3873 0.000115545C68.3074 -0.0172682 58.3202 1.92705 48.9779 5.72545C48.6017 5.8802 48.2241 6.03569 47.8466 6.1947C33.6488 12.2085 21.535 22.2948 13.0236 35.1895C4.51222 48.0842 -0.018237 63.2137 5.5174e-05 78.682V164.538C0.0010732 165.444 0.360365 166.314 0.999106 166.955C1.63785 167.596 2.50388 167.957 3.4072 167.958L3.47485 167.964C69.1444 179.934 132.986 186 193.28 186C194.184 186 195.087 185.999 195.989 185.996C255.256 185.815 312.966 179.749 367.513 167.966L367.593 167.958C368.496 167.957 369.362 167.596 370.001 166.955C370.64 166.314 370.999 165.444 371 164.538V3.42009C370.999 2.51338 370.64 1.64409 370.001 1.00294C369.362 0.361797 368.496 0.00115958 367.593 0.000138738L78.3873 0.000115545Z" fill="#70009C"/>
<path d="M282.337 68.4722C281.747 68.4822 281.183 68.7244 280.769 69.1473C280.355 69.5701 280.123 70.1388 280.123 70.7316C280.123 71.3244 280.355 71.8938 280.769 72.3166C281.183 72.7395 281.747 72.9817 282.337 72.991H338.776C339.073 72.9964 339.367 72.9429 339.641 72.8345C339.917 72.7254 340.168 72.5628 340.381 72.3568C340.593 72.15 340.764 71.9038 340.881 71.6315C340.999 71.3592 341.062 71.0661 341.067 70.7691C341.072 70.472 341.018 70.1769 340.91 69.9006C340.801 69.625 340.639 69.3727 340.433 69.1593C340.227 68.9465 339.982 68.7759 339.71 68.6582C339.438 68.5397 339.146 68.4769 338.851 68.4722C338.826 68.4722 338.801 68.4722 338.776 68.4722H282.337Z" fill="#ED5C0C"/>
<path d="M351.576 67.8438C351.535 67.8847 351.503 67.9342 351.48 67.9877C351.458 68.0419 351.447 68.0994 351.447 68.1583C351.447 68.2165 351.458 68.2741 351.48 68.3282C351.503 68.3824 351.535 68.4313 351.576 68.4721L353.478 70.3809H348.789C348.671 70.3809 348.559 70.4278 348.475 70.5114C348.392 70.5944 348.346 70.7081 348.346 70.8259C348.346 70.9436 348.392 71.0567 348.475 71.1403C348.559 71.2233 348.671 71.2701 348.789 71.2701H353.478L351.576 73.179C351.535 73.2205 351.503 73.2693 351.48 73.3235C351.458 73.377 351.447 73.4352 351.447 73.4934C351.447 73.5516 351.458 73.6098 351.48 73.6634C351.503 73.7176 351.535 73.7664 351.576 73.8079C351.617 73.8494 351.666 73.8815 351.72 73.9042C351.774 73.9263 351.831 73.9377 351.889 73.9377C351.947 73.9377 352.006 73.9263 352.059 73.9042C352.113 73.8815 352.161 73.8494 352.203 73.8079L354.861 71.1403C354.943 71.0567 354.99 70.9436 354.99 70.8259C354.99 70.7081 354.943 70.5944 354.861 70.5114L352.203 67.8438C352.161 67.8024 352.113 67.7696 352.059 67.7475C352.006 67.7248 351.947 67.7134 351.889 67.7134C351.831 67.7134 351.774 67.7248 351.72 67.7475C351.666 67.7696 351.617 67.8024 351.576 67.8438Z" fill="#ED5C0C"/>
<path d="M269.515 67.8438C269.557 67.8847 269.589 67.9342 269.612 67.9877C269.634 68.0419 269.645 68.0994 269.645 68.1583C269.645 68.2165 269.634 68.2741 269.612 68.3282C269.589 68.3824 269.557 68.4313 269.515 68.4721L267.614 70.3809H272.303C272.361 70.3809 272.419 70.3923 272.473 70.4144C272.527 70.4371 272.576 70.4693 272.617 70.5107C272.658 70.5522 272.691 70.6011 272.713 70.6553C272.735 70.7094 272.747 70.767 272.747 70.8259C272.747 70.8841 272.735 70.9423 272.713 70.9965C272.691 71.05 272.658 71.0995 272.617 71.1403C272.576 71.1818 272.527 71.2146 272.473 71.2367C272.419 71.2594 272.361 71.2708 272.303 71.2701H267.614L269.515 73.179C269.598 73.2626 269.645 73.3757 269.645 73.4934C269.645 73.6112 269.598 73.7243 269.515 73.8079C269.433 73.8909 269.32 73.9377 269.203 73.9377C269.085 73.9377 268.972 73.8909 268.889 73.8079L266.231 71.1403C266.148 71.0567 266.102 70.9436 266.102 70.8259C266.102 70.7081 266.148 70.5944 266.231 70.5114L268.889 67.8438C268.931 67.8024 268.979 67.7696 269.033 67.7475C269.086 67.7248 269.144 67.7134 269.203 67.7134C269.261 67.7134 269.318 67.7248 269.372 67.7475C269.426 67.7696 269.475 67.8024 269.515 67.8438Z" fill="#ED5C0C"/>
<g opacity="0.4">
<path opacity="0.4" d="M284.616 21.5765C285.953 21.5765 287.036 20.4894 287.036 19.1484C287.036 17.8074 285.953 16.7202 284.616 16.7202C283.28 16.7202 282.197 17.8074 282.197 19.1484C282.197 20.4894 283.28 21.5765 284.616 21.5765Z" fill="white"/>
<path opacity="0.4" d="M294.697 21.5765C296.033 21.5765 297.116 20.4894 297.116 19.1484C297.116 17.8074 296.033 16.7202 294.697 16.7202C293.361 16.7202 292.277 17.8074 292.277 19.1484C292.277 20.4894 293.361 21.5765 294.697 21.5765Z" fill="white"/>
<path opacity="0.4" d="M304.775 21.5765C306.111 21.5765 307.194 20.4894 307.194 19.1484C307.194 17.8074 306.111 16.7202 304.775 16.7202C303.439 16.7202 302.355 17.8074 302.355 19.1484C302.355 20.4894 303.439 21.5765 304.775 21.5765Z" fill="white"/>
<path opacity="0.4" d="M314.854 21.5765C316.19 21.5765 317.273 20.4894 317.273 19.1484C317.273 17.8074 316.19 16.7202 314.854 16.7202C313.518 16.7202 312.436 17.8074 312.436 19.1484C312.436 20.4894 313.518 21.5765 314.854 21.5765Z" fill="white"/>
<path opacity="0.4" d="M324.934 21.5765C326.27 21.5765 327.353 20.4894 327.353 19.1484C327.353 17.8074 326.27 16.7202 324.934 16.7202C323.599 16.7202 322.516 17.8074 322.516 19.1484C322.516 20.4894 323.599 21.5765 324.934 21.5765Z" fill="white"/>
<path opacity="0.4" d="M335.013 21.5765C336.349 21.5765 337.431 20.4894 337.431 19.1484C337.431 17.8074 336.349 16.7202 335.013 16.7202C333.677 16.7202 332.594 17.8074 332.594 19.1484C332.594 20.4894 333.677 21.5765 335.013 21.5765Z" fill="white"/>
<path opacity="0.4" d="M345.093 21.5765C346.429 21.5765 347.512 20.4894 347.512 19.1484C347.512 17.8074 346.429 16.7202 345.093 16.7202C343.757 16.7202 342.674 17.8074 342.674 19.1484C342.674 20.4894 343.757 21.5765 345.093 21.5765Z" fill="white"/>
<path opacity="0.4" d="M284.616 29.2655C285.953 29.2655 287.036 28.1784 287.036 26.8373C287.036 25.4963 285.953 24.4092 284.616 24.4092C283.28 24.4092 282.197 25.4963 282.197 26.8373C282.197 28.1784 283.28 29.2655 284.616 29.2655Z" fill="white"/>
<path opacity="0.4" d="M294.697 29.2655C296.033 29.2655 297.116 28.1784 297.116 26.8373C297.116 25.4963 296.033 24.4092 294.697 24.4092C293.361 24.4092 292.277 25.4963 292.277 26.8373C292.277 28.1784 293.361 29.2655 294.697 29.2655Z" fill="white"/>
<path opacity="0.4" d="M304.775 29.2655C306.111 29.2655 307.194 28.1784 307.194 26.8373C307.194 25.4963 306.111 24.4092 304.775 24.4092C303.439 24.4092 302.355 25.4963 302.355 26.8373C302.355 28.1784 303.439 29.2655 304.775 29.2655Z" fill="white"/>
<path opacity="0.4" d="M314.854 29.2655C316.19 29.2655 317.273 28.1784 317.273 26.8373C317.273 25.4963 316.19 24.4092 314.854 24.4092C313.518 24.4092 312.436 25.4963 312.436 26.8373C312.436 28.1784 313.518 29.2655 314.854 29.2655Z" fill="white"/>
<path opacity="0.4" d="M324.934 29.2655C326.27 29.2655 327.353 28.1784 327.353 26.8373C327.353 25.4963 326.27 24.4092 324.934 24.4092C323.599 24.4092 322.516 25.4963 322.516 26.8373C322.516 28.1784 323.599 29.2655 324.934 29.2655Z" fill="white"/>
<path opacity="0.4" d="M335.013 29.2655C336.349 29.2655 337.431 28.1784 337.431 26.8373C337.431 25.4963 336.349 24.4092 335.013 24.4092C333.677 24.4092 332.594 25.4963 332.594 26.8373C332.594 28.1784 333.677 29.2655 335.013 29.2655Z" fill="white"/>
<path opacity="0.4" d="M345.093 29.2655C346.429 29.2655 347.512 28.1784 347.512 26.8373C347.512 25.4963 346.429 24.4092 345.093 24.4092C343.757 24.4092 342.674 25.4963 342.674 26.8373C342.674 28.1784 343.757 29.2655 345.093 29.2655Z" fill="white"/>
<path opacity="0.4" d="M284.616 36.9544C285.953 36.9544 287.036 35.8673 287.036 34.5263C287.036 33.1852 285.953 32.0981 284.616 32.0981C283.28 32.0981 282.197 33.1852 282.197 34.5263C282.197 35.8673 283.28 36.9544 284.616 36.9544Z" fill="white"/>
<path opacity="0.4" d="M294.697 36.9544C296.033 36.9544 297.116 35.8673 297.116 34.5263C297.116 33.1852 296.033 32.0981 294.697 32.0981C293.361 32.0981 292.277 33.1852 292.277 34.5263C292.277 35.8673 293.361 36.9544 294.697 36.9544Z" fill="white"/>
<path opacity="0.4" d="M304.775 36.9544C306.111 36.9544 307.194 35.8673 307.194 34.5263C307.194 33.1852 306.111 32.0981 304.775 32.0981C303.439 32.0981 302.355 33.1852 302.355 34.5263C302.355 35.8673 303.439 36.9544 304.775 36.9544Z" fill="white"/>
<path opacity="0.4" d="M314.854 36.9544C316.19 36.9544 317.273 35.8673 317.273 34.5263C317.273 33.1852 316.19 32.0981 314.854 32.0981C313.518 32.0981 312.436 33.1852 312.436 34.5263C312.436 35.8673 313.518 36.9544 314.854 36.9544Z" fill="white"/>
<path opacity="0.4" d="M324.934 36.9544C326.27 36.9544 327.353 35.8673 327.353 34.5263C327.353 33.1852 326.27 32.0981 324.934 32.0981C323.599 32.0981 322.516 33.1852 322.516 34.5263C322.516 35.8673 323.599 36.9544 324.934 36.9544Z" fill="white"/>
<path opacity="0.4" d="M335.013 36.9544C336.349 36.9544 337.431 35.8673 337.431 34.5263C337.431 33.1852 336.349 32.0981 335.013 32.0981C333.677 32.0981 332.594 33.1852 332.594 34.5263C332.594 35.8673 333.677 36.9544 335.013 36.9544Z" fill="white"/>
<path opacity="0.4" d="M345.093 36.9544C346.429 36.9544 347.512 35.8673 347.512 34.5263C347.512 33.1852 346.429 32.0981 345.093 32.0981C343.757 32.0981 342.674 33.1852 342.674 34.5263C342.674 35.8673 343.757 36.9544 345.093 36.9544Z" fill="white"/>
<path opacity="0.4" d="M284.616 44.6443C285.953 44.6443 287.036 43.5572 287.036 42.2162C287.036 40.8752 285.953 39.7881 284.616 39.7881C283.28 39.7881 282.197 40.8752 282.197 42.2162C282.197 43.5572 283.28 44.6443 284.616 44.6443Z" fill="white"/>
<path opacity="0.4" d="M294.697 44.6443C296.033 44.6443 297.116 43.5572 297.116 42.2162C297.116 40.8752 296.033 39.7881 294.697 39.7881C293.361 39.7881 292.277 40.8752 292.277 42.2162C292.277 43.5572 293.361 44.6443 294.697 44.6443Z" fill="white"/>
<path opacity="0.4" d="M284.616 52.3328C285.953 52.3328 287.036 51.2457 287.036 49.9047C287.036 48.5637 285.953 47.4766 284.616 47.4766C283.28 47.4766 282.197 48.5637 282.197 49.9047C282.197 51.2457 283.28 52.3328 284.616 52.3328Z" fill="white"/>
<path opacity="0.4" d="M294.697 52.3328C296.033 52.3328 297.116 51.2457 297.116 49.9047C297.116 48.5637 296.033 47.4766 294.697 47.4766C293.361 47.4766 292.277 48.5637 292.277 49.9047C292.277 51.2457 293.361 52.3328 294.697 52.3328Z" fill="white"/>
<path opacity="0.4" d="M304.775 52.3328C306.111 52.3328 307.194 51.2457 307.194 49.9047C307.194 48.5637 306.111 47.4766 304.775 47.4766C303.439 47.4766 302.355 48.5637 302.355 49.9047C302.355 51.2457 303.439 52.3328 304.775 52.3328Z" fill="white"/>
<path opacity="0.4" d="M304.775 44.6443C306.111 44.6443 307.194 43.5572 307.194 42.2162C307.194 40.8752 306.111 39.7881 304.775 39.7881C303.439 39.7881 302.355 40.8752 302.355 42.2162C302.355 43.5572 303.439 44.6443 304.775 44.6443Z" fill="white"/>
<path opacity="0.4" d="M314.854 44.6443C316.19 44.6443 317.273 43.5572 317.273 42.2162C317.273 40.8752 316.19 39.7881 314.854 39.7881C313.518 39.7881 312.436 40.8752 312.436 42.2162C312.436 43.5572 313.518 44.6443 314.854 44.6443Z" fill="white"/>
<path opacity="0.4" d="M324.934 44.6443C326.27 44.6443 327.353 43.5572 327.353 42.2162C327.353 40.8752 326.27 39.7881 324.934 39.7881C323.599 39.7881 322.516 40.8752 322.516 42.2162C322.516 43.5572 323.599 44.6443 324.934 44.6443Z" fill="white"/>
<path opacity="0.4" d="M335.013 44.6443C336.349 44.6443 337.431 43.5572 337.431 42.2162C337.431 40.8752 336.349 39.7881 335.013 39.7881C333.677 39.7881 332.594 40.8752 332.594 42.2162C332.594 43.5572 333.677 44.6443 335.013 44.6443Z" fill="white"/>
<path opacity="0.4" d="M345.093 44.6443C346.429 44.6443 347.512 43.5572 347.512 42.2162C347.512 40.8752 346.429 39.7881 345.093 39.7881C343.757 39.7881 342.674 40.8752 342.674 42.2162C342.674 43.5572 343.757 44.6443 345.093 44.6443Z" fill="white"/>
</g>
<path d="M249.917 142.673C247.277 142.673 244.695 141.886 242.499 140.414C240.303 138.941 238.591 136.848 237.581 134.398C236.57 131.949 236.306 129.254 236.821 126.654C237.336 124.054 238.608 121.666 240.475 119.791C242.343 117.917 244.722 116.641 247.312 116.123C249.903 115.606 252.588 115.871 255.028 116.886C257.468 117.9 259.553 119.619 261.02 121.822C262.488 124.026 263.271 126.618 263.271 129.269C263.267 132.823 261.859 136.229 259.355 138.742C256.852 141.255 253.457 142.669 249.917 142.673ZM249.917 116.626C247.427 116.626 244.991 117.367 242.92 118.756C240.848 120.146 239.234 122.12 238.281 124.43C237.327 126.741 237.077 129.283 237.563 131.735C238.049 134.188 239.249 136.441 241.011 138.209C242.773 139.978 245.017 141.182 247.46 141.67C249.904 142.157 252.436 141.907 254.738 140.95C257.04 139.993 259.006 138.372 260.391 136.293C261.775 134.214 262.514 131.769 262.514 129.269C262.51 125.917 261.182 122.703 258.82 120.333C256.459 117.963 253.257 116.629 249.917 116.626Z" fill="#ED5C0C"/>
<path d="M255.037 127.984H251.197V124.13C251.197 123.789 251.062 123.463 250.822 123.222C250.582 122.981 250.256 122.845 249.917 122.845C249.577 122.845 249.252 122.981 249.012 123.222C248.772 123.463 248.637 123.789 248.637 124.13V127.984H244.798C244.458 127.984 244.133 128.119 243.893 128.36C243.653 128.601 243.518 128.928 243.518 129.269C243.518 129.609 243.653 129.937 243.893 130.177C244.133 130.418 244.458 130.554 244.798 130.554H248.637V134.407C248.637 134.749 248.772 135.075 249.012 135.316C249.252 135.557 249.577 135.693 249.917 135.693C250.256 135.693 250.582 135.557 250.822 135.316C251.062 135.075 251.197 134.749 251.197 134.407V130.554H255.037C255.376 130.554 255.701 130.418 255.941 130.177C256.182 129.937 256.316 129.609 256.316 129.269C256.316 128.928 256.182 128.601 255.941 128.36C255.701 128.119 255.376 127.984 255.037 127.984Z" fill="#ED5C0C"/>
<g opacity="0.4">
<path opacity="0.4" d="M20.4527 144.318C21.5031 144.318 22.3546 143.463 22.3546 142.408C22.3546 141.355 21.5031 140.5 20.4527 140.5C19.4023 140.5 18.5508 141.355 18.5508 142.408C18.5508 143.463 19.4023 144.318 20.4527 144.318Z" fill="white"/>
<path opacity="0.4" d="M20.4527 136.363C21.5031 136.363 22.3546 135.509 22.3546 134.454C22.3546 133.4 21.5031 132.545 20.4527 132.545C19.4023 132.545 18.5508 133.4 18.5508 134.454C18.5508 135.509 19.4023 136.363 20.4527 136.363Z" fill="white"/>
<path opacity="0.4" d="M20.4527 128.408C21.5031 128.408 22.3546 127.554 22.3546 126.499C22.3546 125.445 21.5031 124.59 20.4527 124.59C19.4023 124.59 18.5508 125.445 18.5508 126.499C18.5508 127.554 19.4023 128.408 20.4527 128.408Z" fill="white"/>
<path opacity="0.4" d="M20.4527 120.455C21.5031 120.455 22.3546 119.6 22.3546 118.546C22.3546 117.492 21.5031 116.637 20.4527 116.637C19.4023 116.637 18.5508 117.492 18.5508 118.546C18.5508 119.6 19.4023 120.455 20.4527 120.455Z" fill="white"/>
<path opacity="0.4" d="M20.4527 112.5C21.5031 112.5 22.3546 111.646 22.3546 110.592C22.3546 109.537 21.5031 108.682 20.4527 108.682C19.4023 108.682 18.5508 109.537 18.5508 110.592C18.5508 111.646 19.4023 112.5 20.4527 112.5Z" fill="white"/>
<path opacity="0.4" d="M20.4527 104.545C21.5031 104.545 22.3546 103.691 22.3546 102.636C22.3546 101.582 21.5031 100.728 20.4527 100.728C19.4023 100.728 18.5508 101.582 18.5508 102.636C18.5508 103.691 19.4023 104.545 20.4527 104.545Z" fill="white"/>
<path opacity="0.4" d="M20.4527 96.5913C21.5031 96.5913 22.3546 95.7362 22.3546 94.6818C22.3546 93.628 21.5031 92.7729 20.4527 92.7729C19.4023 92.7729 18.5508 93.628 18.5508 94.6818C18.5508 95.7362 19.4023 96.5913 20.4527 96.5913Z" fill="white"/>
<path opacity="0.4" d="M26.4761 144.318C27.5265 144.318 28.378 143.463 28.378 142.408C28.378 141.355 27.5265 140.5 26.4761 140.5C25.4257 140.5 24.5742 141.355 24.5742 142.408C24.5742 143.463 25.4257 144.318 26.4761 144.318Z" fill="white"/>
<path opacity="0.4" d="M26.4761 136.363C27.5265 136.363 28.378 135.509 28.378 134.454C28.378 133.4 27.5265 132.545 26.4761 132.545C25.4257 132.545 24.5742 133.4 24.5742 134.454C24.5742 135.509 25.4257 136.363 26.4761 136.363Z" fill="white"/>
<path opacity="0.4" d="M26.4761 128.408C27.5265 128.408 28.378 127.554 28.378 126.499C28.378 125.445 27.5265 124.59 26.4761 124.59C25.4257 124.59 24.5742 125.445 24.5742 126.499C24.5742 127.554 25.4257 128.408 26.4761 128.408Z" fill="white"/>
<path opacity="0.4" d="M26.4761 120.455C27.5265 120.455 28.378 119.6 28.378 118.546C28.378 117.492 27.5265 116.637 26.4761 116.637C25.4257 116.637 24.5742 117.492 24.5742 118.546C24.5742 119.6 25.4257 120.455 26.4761 120.455Z" fill="white"/>
<path opacity="0.4" d="M26.4761 112.5C27.5265 112.5 28.378 111.646 28.378 110.592C28.378 109.537 27.5265 108.682 26.4761 108.682C25.4257 108.682 24.5742 109.537 24.5742 110.592C24.5742 111.646 25.4257 112.5 26.4761 112.5Z" fill="white"/>
<path opacity="0.4" d="M26.4761 104.545C27.5265 104.545 28.378 103.691 28.378 102.636C28.378 101.582 27.5265 100.728 26.4761 100.728C25.4257 100.728 24.5742 101.582 24.5742 102.636C24.5742 103.691 25.4257 104.545 26.4761 104.545Z" fill="white"/>
<path opacity="0.4" d="M26.4761 96.5913C27.5265 96.5913 28.378 95.7362 28.378 94.6818C28.378 93.628 27.5265 92.7729 26.4761 92.7729C25.4257 92.7729 24.5742 93.628 24.5742 94.6818C24.5742 95.7362 25.4257 96.5913 26.4761 96.5913Z" fill="white"/>
<path opacity="0.4" d="M32.4976 144.318C33.5481 144.318 34.3996 143.463 34.3996 142.408C34.3996 141.355 33.5481 140.5 32.4976 140.5C31.4473 140.5 30.5957 141.355 30.5957 142.408C30.5957 143.463 31.4473 144.318 32.4976 144.318Z" fill="white"/>
<path opacity="0.4" d="M32.4976 136.363C33.5481 136.363 34.3996 135.509 34.3996 134.454C34.3996 133.4 33.5481 132.545 32.4976 132.545C31.4473 132.545 30.5957 133.4 30.5957 134.454C30.5957 135.509 31.4473 136.363 32.4976 136.363Z" fill="white"/>
<path opacity="0.4" d="M32.4976 128.408C33.5481 128.408 34.3996 127.554 34.3996 126.499C34.3996 125.445 33.5481 124.59 32.4976 124.59C31.4473 124.59 30.5957 125.445 30.5957 126.499C30.5957 127.554 31.4473 128.408 32.4976 128.408Z" fill="white"/>
<path opacity="0.4" d="M32.4976 120.455C33.5481 120.455 34.3996 119.6 34.3996 118.546C34.3996 117.492 33.5481 116.637 32.4976 116.637C31.4473 116.637 30.5957 117.492 30.5957 118.546C30.5957 119.6 31.4473 120.455 32.4976 120.455Z" fill="white"/>
<path opacity="0.4" d="M32.4976 112.5C33.5481 112.5 34.3996 111.646 34.3996 110.592C34.3996 109.537 33.5481 108.682 32.4976 108.682C31.4473 108.682 30.5957 109.537 30.5957 110.592C30.5957 111.646 31.4473 112.5 32.4976 112.5Z" fill="white"/>
<path opacity="0.4" d="M32.4976 104.545C33.5481 104.545 34.3996 103.691 34.3996 102.636C34.3996 101.582 33.5481 100.728 32.4976 100.728C31.4473 100.728 30.5957 101.582 30.5957 102.636C30.5957 103.691 31.4473 104.545 32.4976 104.545Z" fill="white"/>
<path opacity="0.4" d="M32.4976 96.5913C33.5481 96.5913 34.3996 95.7362 34.3996 94.6818C34.3996 93.628 33.5481 92.7729 32.4976 92.7729C31.4473 92.7729 30.5957 93.628 30.5957 94.6818C30.5957 95.7362 31.4473 96.5913 32.4976 96.5913Z" fill="white"/>
<path opacity="0.4" d="M38.5211 144.318C39.5714 144.318 40.4229 143.463 40.4229 142.408C40.4229 141.355 39.5714 140.5 38.5211 140.5C37.4706 140.5 36.6191 141.355 36.6191 142.408C36.6191 143.463 37.4706 144.318 38.5211 144.318Z" fill="white"/>
<path opacity="0.4" d="M38.5211 136.363C39.5714 136.363 40.4229 135.509 40.4229 134.454C40.4229 133.4 39.5714 132.545 38.5211 132.545C37.4706 132.545 36.6191 133.4 36.6191 134.454C36.6191 135.509 37.4706 136.363 38.5211 136.363Z" fill="white"/>
<path opacity="0.4" d="M44.5444 144.318C45.5949 144.318 46.4464 143.463 46.4464 142.408C46.4464 141.355 45.5949 140.5 44.5444 140.5C43.4941 140.5 42.6426 141.355 42.6426 142.408C42.6426 143.463 43.4941 144.318 44.5444 144.318Z" fill="white"/>
<path opacity="0.4" d="M44.5444 136.363C45.5949 136.363 46.4464 135.509 46.4464 134.454C46.4464 133.4 45.5949 132.545 44.5444 132.545C43.4941 132.545 42.6426 133.4 42.6426 134.454C42.6426 135.509 43.4941 136.363 44.5444 136.363Z" fill="white"/>
<path opacity="0.4" d="M44.5444 128.408C45.5949 128.408 46.4464 127.554 46.4464 126.499C46.4464 125.445 45.5949 124.59 44.5444 124.59C43.4941 124.59 42.6426 125.445 42.6426 126.499C42.6426 127.554 43.4941 128.408 44.5444 128.408Z" fill="white"/>
<path opacity="0.4" d="M38.5211 128.408C39.5714 128.408 40.4229 127.554 40.4229 126.499C40.4229 125.445 39.5714 124.59 38.5211 124.59C37.4706 124.59 36.6191 125.445 36.6191 126.499C36.6191 127.554 37.4706 128.408 38.5211 128.408Z" fill="white"/>
<path opacity="0.4" d="M38.5211 120.455C39.5714 120.455 40.4229 119.6 40.4229 118.546C40.4229 117.492 39.5714 116.637 38.5211 116.637C37.4706 116.637 36.6191 117.492 36.6191 118.546C36.6191 119.6 37.4706 120.455 38.5211 120.455Z" fill="white"/>
<path opacity="0.4" d="M38.5211 112.5C39.5714 112.5 40.4229 111.646 40.4229 110.592C40.4229 109.537 39.5714 108.682 38.5211 108.682C37.4706 108.682 36.6191 109.537 36.6191 110.592C36.6191 111.646 37.4706 112.5 38.5211 112.5Z" fill="white"/>
<path opacity="0.4" d="M38.5211 104.545C39.5714 104.545 40.4229 103.691 40.4229 102.636C40.4229 101.582 39.5714 100.728 38.5211 100.728C37.4706 100.728 36.6191 101.582 36.6191 102.636C36.6191 103.691 37.4706 104.545 38.5211 104.545Z" fill="white"/>
<path opacity="0.4" d="M38.5211 96.5913C39.5714 96.5913 40.4229 95.7362 40.4229 94.6818C40.4229 93.628 39.5714 92.7729 38.5211 92.7729C37.4706 92.7729 36.6191 93.628 36.6191 94.6818C36.6191 95.7362 37.4706 96.5913 38.5211 96.5913Z" fill="white"/>
</g>
<path d="M188.305 12.5405H61.9596C61.339 12.5411 60.7441 12.7889 60.3053 13.2293C59.8665 13.6697 59.6197 14.2669 59.6191 14.8897V123.334C59.6197 123.957 59.8665 124.554 60.3053 124.994C60.7441 125.435 61.339 125.683 61.9596 125.683H188.305C188.925 125.683 189.52 125.435 189.959 124.994C190.398 124.554 190.645 123.957 190.645 123.334V14.8897C190.645 14.2669 190.398 13.6697 189.959 13.2293C189.52 12.7888 188.925 12.5411 188.305 12.5405ZM189.707 123.334C189.707 123.708 189.56 124.066 189.296 124.33C189.034 124.595 188.677 124.745 188.305 124.746H61.9596C61.587 124.745 61.23 124.597 60.967 124.332C60.7039 124.067 60.5565 123.708 60.5571 123.334V14.8897C60.5565 14.5158 60.7039 14.157 60.967 13.8921C61.23 13.6273 61.587 13.4782 61.9596 13.4776H188.305C188.677 13.4789 189.034 13.6282 189.296 13.8929C189.56 14.1576 189.707 14.516 189.707 14.8897V123.334Z" fill="#ED5C0C"/>
<path d="M91.1232 106.401C91.1232 106.569 91.1192 106.736 91.1105 106.899C90.9828 109.346 89.9246 111.651 88.1539 113.338C86.3831 115.025 84.0341 115.966 81.5929 115.966C79.1516 115.966 76.8026 115.025 75.0318 113.338C73.2611 111.651 72.2029 109.346 72.0752 106.899C72.0665 106.736 72.0625 106.569 72.0625 106.401C72.0618 105.144 72.3072 103.9 72.7858 102.738C73.2644 101.577 73.9663 100.522 74.8513 99.6331C75.7364 98.744 76.7879 98.0388 77.9444 97.5577C79.1008 97.0766 80.3408 96.8291 81.5929 96.8291C82.8449 96.8291 84.0849 97.0766 85.2414 97.5577C86.3985 98.0388 87.4493 98.744 88.3344 99.6331C89.2194 100.522 89.9213 101.577 90.3999 102.738C90.8785 103.9 91.1245 105.144 91.1232 106.401Z" fill="#ED5C0C"/>
<path d="M178.486 100.022H103.6C103.179 100.023 102.776 100.191 102.478 100.49C102.181 100.789 102.014 101.194 102.014 101.617C102.014 102.039 102.181 102.445 102.478 102.744C102.776 103.043 103.179 103.211 103.6 103.211H178.486C178.907 103.211 179.311 103.043 179.608 102.744C179.906 102.445 180.073 102.039 180.073 101.617C180.073 101.194 179.906 100.789 179.608 100.49C179.311 100.191 178.907 100.023 178.486 100.022Z" fill="#ED5C0C"/>
<path d="M135.823 109.59H103.601C103.179 109.59 102.776 109.758 102.479 110.057C102.181 110.355 102.014 110.761 102.014 111.183C102.014 111.605 102.181 112.01 102.479 112.309C102.776 112.608 103.179 112.775 103.601 112.775H135.823C136.244 112.775 136.648 112.608 136.945 112.309C137.243 112.01 137.41 111.605 137.41 111.183C137.41 110.761 137.243 110.355 136.945 110.057C136.648 109.758 136.244 109.59 135.823 109.59Z" fill="#ED5C0C"/>
<path d="M218.321 88.7603H91.9763C91.1186 88.7589 90.2958 88.4164 89.6888 87.8075C89.0825 87.1987 88.7409 86.3724 88.7402 85.5113V29.8566C88.7409 28.9953 89.0825 28.1696 89.6895 27.5605C90.2958 26.9515 91.1186 26.6089 91.9763 26.6079H218.321C219.179 26.6089 220.002 26.9515 220.608 27.5605C221.215 28.1696 221.556 28.9953 221.558 29.8566V85.5113C221.556 86.3724 221.215 87.1987 220.608 87.8075C220.002 88.4164 219.179 88.7589 218.321 88.7603ZM91.9763 27.7479C91.4195 27.7485 90.8853 27.9709 90.4916 28.3662C90.0979 28.7616 89.8766 29.2975 89.876 29.8566V85.5113C89.8766 86.0706 90.0979 86.6066 90.4916 87.002C90.8853 87.3974 91.4195 87.6195 91.9763 87.6202H218.321C218.878 87.6195 219.412 87.3974 219.806 87.002C220.2 86.6066 220.421 86.0706 220.422 85.5113V29.8566C220.421 29.2975 220.199 28.7616 219.806 28.3662C219.412 27.9709 218.878 27.7485 218.321 27.7479H91.9763Z" fill="#ED5C0C"/>
<path d="M117.707 46.9062C117.286 46.9062 116.883 47.0743 116.584 47.3733C116.286 47.6723 116.119 48.0779 116.119 48.5007C116.119 48.9236 116.286 49.3291 116.584 49.6281C116.883 49.9271 117.286 50.0951 117.707 50.0951H192.592C193.013 50.0951 193.417 49.9271 193.715 49.6281C194.013 49.3291 194.18 48.9236 194.18 48.5007C194.18 48.0779 194.013 47.6723 193.715 47.3733C193.417 47.0743 193.013 46.9062 192.592 46.9062H117.707Z" fill="#ED5C0C"/>
<path d="M117.705 56.145C117.284 56.145 116.881 56.313 116.582 56.612C116.284 56.911 116.117 57.3166 116.117 57.7395C116.117 58.1623 116.284 58.5678 116.582 58.8669C116.881 59.1659 117.284 59.3338 117.705 59.3338H192.59C193.01 59.3332 193.414 59.165 193.712 58.866C194.009 58.5671 194.176 58.1619 194.176 57.7395C194.176 57.317 194.009 56.9118 193.712 56.6129C193.414 56.314 193.01 56.1457 192.59 56.145H117.705Z" fill="#ED5C0C"/>
<path d="M117.705 65.2715C117.284 65.2715 116.881 65.4395 116.582 65.7385C116.284 66.0375 116.117 66.4431 116.117 66.8659C116.117 67.289 116.284 67.6944 116.582 67.9935C116.881 68.2926 117.284 68.4605 117.705 68.4605H149.928C150.349 68.4598 150.753 68.2912 151.05 67.9922C151.347 67.6938 151.515 67.2883 151.515 66.8659C151.515 66.4435 151.347 66.0383 151.05 65.7394C150.753 65.4404 150.349 65.2722 149.928 65.2715H117.705Z" fill="#ED5C0C"/>
<path d="M239.153 112.339L226.463 94.3625L230.571 95.2216C230.644 95.237 230.719 95.2377 230.793 95.2236C230.866 95.2102 230.936 95.1815 230.998 95.1407C231.061 95.0998 231.114 95.0463 231.156 94.9848C231.199 94.9225 231.228 94.853 231.243 94.78C231.259 94.7064 231.259 94.6308 231.245 94.5572C231.231 94.4836 231.203 94.4134 231.162 94.3512C231.121 94.2883 231.068 94.2341 231.007 94.1919C230.945 94.1498 230.876 94.1203 230.803 94.1049L224.681 92.8257L223.855 99.0466C223.845 99.1209 223.849 99.1965 223.868 99.2694C223.888 99.3417 223.92 99.41 223.966 99.4695C224.011 99.529 224.068 99.5792 224.133 99.6167C224.197 99.6548 224.269 99.6789 224.343 99.6889C224.417 99.699 224.492 99.6943 224.565 99.6749C224.637 99.6555 224.704 99.622 224.764 99.5759C224.823 99.5304 224.873 99.4735 224.91 99.4086C224.948 99.3437 224.972 99.2714 224.981 99.1972L225.535 95.0196L238.226 112.998C238.27 113.06 238.324 113.111 238.387 113.151C238.45 113.191 238.52 113.218 238.594 113.231C238.667 113.243 238.743 113.241 238.816 113.224C238.888 113.208 238.957 113.177 239.018 113.134C239.078 113.09 239.131 113.035 239.17 112.973C239.209 112.909 239.237 112.838 239.249 112.764C239.262 112.691 239.26 112.615 239.243 112.542C239.226 112.469 239.196 112.401 239.153 112.339Z" fill="#ED5C0C"/>
<path d="M170.231 164.66H80.0331C79.5906 164.659 79.1661 164.483 78.8526 164.168C78.5398 163.854 78.3633 163.428 78.3633 162.983V140.525C78.3633 140.081 78.5398 139.654 78.8526 139.34C79.1661 139.025 79.5906 138.849 80.0331 138.848H170.231C170.673 138.849 171.098 139.025 171.411 139.34C171.724 139.654 171.9 140.081 171.901 140.525V162.983C171.9 163.428 171.724 163.854 171.411 164.168C171.098 164.483 170.673 164.659 170.231 164.66ZM80.0331 139.519C79.7677 139.519 79.513 139.626 79.3252 139.814C79.1374 140.002 79.0311 140.259 79.0311 140.525V162.983C79.0311 163.25 79.1374 163.506 79.3252 163.695C79.513 163.883 79.7677 163.989 80.0331 163.989H170.231C170.496 163.989 170.751 163.883 170.939 163.695C171.127 163.506 171.232 163.25 171.233 162.983V140.525C171.232 140.259 171.127 140.002 170.939 139.814C170.751 139.626 170.496 139.519 170.231 139.519H80.0331Z" fill="#ED5C0C"/>
<path d="M94.0478 157.722C97.8059 157.722 100.852 154.664 100.852 150.892C100.852 147.12 97.8059 144.062 94.0478 144.062C90.2903 144.062 87.2441 147.12 87.2441 150.892C87.2441 154.664 90.2903 157.722 94.0478 157.722Z" fill="#ED5C0C"/>
<path d="M109.763 146.34C109.614 146.339 109.467 146.369 109.328 146.425C109.19 146.483 109.065 146.567 108.96 146.672C108.854 146.778 108.771 146.904 108.713 147.042C108.656 147.18 108.627 147.328 108.627 147.478C108.627 147.628 108.656 147.776 108.713 147.914C108.771 148.052 108.854 148.178 108.96 148.283C109.065 148.389 109.19 148.473 109.328 148.53C109.467 148.587 109.614 148.617 109.763 148.616H163.223C163.524 148.616 163.812 148.496 164.025 148.283C164.238 148.069 164.357 147.78 164.357 147.478C164.357 147.176 164.238 146.886 164.025 146.673C163.812 146.46 163.524 146.34 163.223 146.34H109.763Z" fill="#ED5C0C"/>
<path d="M109.763 153.169C109.614 153.168 109.467 153.198 109.328 153.255C109.19 153.312 109.065 153.396 108.96 153.501C108.854 153.607 108.771 153.733 108.713 153.871C108.656 154.009 108.627 154.157 108.627 154.307C108.627 154.457 108.656 154.605 108.713 154.743C108.771 154.881 108.854 155.007 108.96 155.113C109.065 155.218 109.19 155.302 109.328 155.359C109.467 155.416 109.614 155.446 109.763 155.445H132.767C133.067 155.445 133.356 155.325 133.569 155.112C133.781 154.898 133.901 154.609 133.901 154.307C133.901 154.005 133.781 153.716 133.569 153.502C133.356 153.289 133.067 153.169 132.767 153.169H109.763Z" fill="#ED5C0C"/>
<path d="M289.236 84.646H329.324C329.767 84.646 330.191 84.8233 330.505 85.1371C330.818 85.4516 330.994 85.8777 330.994 86.3227V128.229C330.994 128.674 330.818 129.1 330.505 129.414C330.191 129.728 329.767 129.905 329.324 129.906H289.236C288.794 129.905 288.369 129.728 288.056 129.414C287.743 129.1 287.566 128.674 287.566 128.229V86.3227C287.566 85.8777 287.743 85.4516 288.056 85.1371C288.369 84.8233 288.794 84.646 289.236 84.646ZM329.324 129.235C329.59 129.234 329.844 129.129 330.032 128.94C330.22 128.751 330.326 128.496 330.326 128.229V86.3227C330.326 86.0557 330.22 85.8001 330.032 85.6115C329.844 85.4228 329.59 85.3164 329.324 85.3164H289.236C288.971 85.3164 288.716 85.4228 288.528 85.6115C288.341 85.8001 288.234 86.0557 288.234 86.3227V128.229C288.234 128.496 288.341 128.751 288.528 128.94C288.716 129.129 288.971 129.234 289.236 129.235H329.324Z" fill="#ED5C0C"/>
<path d="M320.784 121.264C321.085 121.264 321.373 121.144 321.586 120.931C321.799 120.717 321.918 120.428 321.918 120.126C321.918 119.824 321.799 119.534 321.586 119.321C321.373 119.108 321.085 118.988 320.784 118.988H297.78C297.479 118.988 297.191 119.108 296.978 119.321C296.765 119.534 296.646 119.824 296.646 120.126C296.646 120.428 296.765 120.717 296.978 120.931C297.191 121.144 297.479 121.264 297.78 121.264H320.784Z" fill="#ED5C0C"/>
<path d="M320.784 114.558C320.933 114.558 321.081 114.529 321.219 114.472C321.356 114.415 321.482 114.331 321.588 114.226C321.693 114.12 321.777 113.994 321.834 113.856C321.891 113.718 321.921 113.569 321.921 113.42C321.921 113.27 321.891 113.122 321.834 112.984C321.777 112.845 321.693 112.72 321.588 112.614C321.482 112.509 321.356 112.424 321.219 112.368C321.081 112.311 320.933 112.281 320.784 112.281H297.78C297.631 112.281 297.483 112.311 297.346 112.368C297.208 112.424 297.082 112.509 296.977 112.614C296.872 112.72 296.788 112.845 296.731 112.984C296.674 113.122 296.645 113.27 296.645 113.42C296.645 113.569 296.674 113.718 296.731 113.856C296.788 113.994 296.872 114.12 296.977 114.226C297.082 114.331 297.208 114.415 297.346 114.472C297.483 114.529 297.631 114.558 297.78 114.558H320.784Z" fill="#ED5C0C"/>
<path d="M309.282 93.2881C310.694 93.2881 312.075 93.7083 313.248 94.4951C314.422 95.2826 315.337 96.4019 315.878 97.7106C316.418 99.02 316.559 100.46 316.283 101.851C316.008 103.24 315.328 104.517 314.33 105.519C313.331 106.521 312.06 107.203 310.675 107.48C309.29 107.757 307.855 107.614 306.551 107.072C305.247 106.53 304.132 105.612 303.348 104.433C302.563 103.255 302.145 101.87 302.145 100.452C302.147 98.553 302.899 96.7318 304.238 95.3889C305.576 94.0455 307.39 93.2901 309.282 93.2881Z" fill="#ED5C0C"/>
</svg>
