<svg width="256" height="287" viewBox="0 0 256 287" fill="none" xmlns="http://www.w3.org/2000/svg">
<path opacity="0.3" fill-rule="evenodd" clip-rule="evenodd" d="M38.7735 224.41C55.5676 243.203 78.1549 256.71 103.73 262.123C103.729 262.069 103.729 262.015 103.729 261.96C103.729 248.27 114.827 237.172 128.517 237.172C142.208 237.172 153.306 248.27 153.306 261.96C153.306 262.063 153.305 262.166 153.304 262.269C179.004 256.989 201.725 243.545 218.639 224.767C218.383 224.631 218.129 224.49 217.876 224.344C207.022 218.078 202.7 204.843 207.298 193.554L49.8807 184.762L45.6226 187.104C46.4804 188.147 47.2642 189.274 47.9617 190.482C54.8068 202.339 50.7446 217.499 38.8885 224.344C38.8502 224.366 38.8119 224.388 38.7735 224.41ZM42.9411 188.579C43.8394 189.615 44.6526 190.751 45.3636 191.982C51.3803 202.404 47.8097 215.729 37.3885 221.746C37.1795 221.867 36.9693 221.983 36.7581 222.096C31.0477 215.372 26.0606 208.014 21.917 200.143L42.9411 188.579ZM210.492 193.733C205.799 203.852 209.53 216.061 219.376 221.746C219.806 221.994 220.241 222.226 220.68 222.442C227.679 214.262 233.604 205.136 238.236 195.282L210.492 193.733ZM150.288 262.849C150.3 262.554 150.306 262.258 150.306 261.96C150.306 249.927 140.551 240.172 128.517 240.172C116.484 240.172 106.729 249.927 106.729 261.96C106.729 262.215 106.734 262.468 106.742 262.721C113.915 264.049 121.31 264.743 128.867 264.743C136.177 264.743 143.336 264.093 150.288 262.849Z" fill="white"/>
<path opacity="0.4" fill-rule="evenodd" clip-rule="evenodd" d="M209.686 97.111C216.531 108.967 231.691 113.029 243.547 106.184C243.57 106.171 243.592 106.158 243.615 106.145C247.532 118.04 249.652 130.751 249.652 143.958C249.652 157.23 247.511 170.003 243.556 181.949C243.264 181.764 242.966 181.584 242.664 181.409C230.808 174.564 215.648 178.626 208.803 190.483C208.228 191.478 207.73 192.497 207.307 193.532L49.8809 184.762L209.412 96.6238C209.501 96.7868 209.592 96.9492 209.686 97.111ZM242.618 103.245C240.135 96.3075 237.035 89.6635 233.385 83.3789L212.038 95.173C212.118 95.3196 212.2 95.4655 212.284 95.611C218.301 106.032 231.626 109.603 242.047 103.586C242.24 103.475 242.43 103.361 242.618 103.245ZM242.545 184.874C241.271 188.414 239.836 191.877 238.249 195.255L210.502 193.71C210.774 193.126 211.073 192.55 211.401 191.983C217.417 181.561 230.743 177.991 241.164 184.007C241.639 184.282 242.099 184.571 242.545 184.874Z" fill="white"/>
<path opacity="0.6" fill-rule="evenodd" clip-rule="evenodd" d="M45.659 187.149C38.1042 177.92 24.7653 175.252 14.1002 181.409L15.6002 184.007L14.1002 181.409C14.0721 181.426 14.0441 181.442 14.0161 181.458C10.1642 169.653 8.08154 157.049 8.08154 143.958C8.08154 130.92 10.1472 118.365 13.9691 106.602C25.7069 112.855 40.3772 108.718 47.0784 97.1112C53.7969 85.4744 50.0079 70.6545 38.6552 63.638C55.4614 44.7755 78.0947 31.2182 103.73 25.7918C103.79 35.9306 109.938 44.6265 118.702 48.4097L49.8809 184.762L45.659 187.149ZM43.0024 188.65C36.3078 180.864 24.8179 178.686 15.6002 184.007C15.3994 184.123 15.2011 184.242 15.0054 184.363C16.9815 189.931 19.3545 195.312 22.0903 200.47L43.0024 188.65ZM106.734 25.1958C113.909 23.8671 121.307 23.1725 128.867 23.1725C129.114 23.1725 129.389 23.171 129.674 23.1695C130.275 23.1663 130.921 23.1628 131.44 23.1725L120.057 45.7253C112.226 42.4226 106.729 34.6734 106.729 25.6404C106.729 25.4919 106.731 25.3437 106.734 25.1958ZM36.6581 65.9368C46.9613 71.9951 50.4675 85.2411 44.4803 95.6112C38.5078 105.956 25.3334 109.55 14.9469 103.717C19.8733 89.7708 27.2882 76.9995 36.6581 65.9368Z" fill="white"/>
<path opacity="0.5" fill-rule="evenodd" clip-rule="evenodd" d="M118.702 48.4097L49.8809 184.763L69.2513 174.058L209.443 96.6801C202.943 84.8964 207.042 70.0279 218.74 63.2603C201.816 44.4242 179.056 30.9376 153.306 25.6463C153.303 39.3338 142.206 50.4287 128.517 50.4287C125.031 50.4287 121.712 49.7089 118.702 48.4097ZM220.76 65.5667C220.593 65.6578 220.425 65.7515 220.259 65.8475C209.964 71.7912 206.355 84.8675 212.069 95.2305L233.423 83.4444C229.741 77.0963 225.498 71.1144 220.76 65.5667ZM128.517 47.4287C140.551 47.4287 150.306 37.6738 150.306 25.6404C150.306 25.449 150.303 25.2583 150.298 25.0681C144.394 24.0108 138.341 23.3826 132.172 23.2169L131.44 23.1725L120.057 45.7253C122.659 46.8223 125.517 47.4287 128.517 47.4287Z" fill="white"/>
<path fill-rule="evenodd" clip-rule="evenodd" d="M116.361 50.4905C117.13 50.2393 117.957 50.659 118.208 51.4279L122.301 63.9585C122.552 64.7275 122.133 65.5545 121.364 65.8057C120.595 66.0568 119.768 65.6371 119.517 64.8682L116.521 55.6989L50.5461 185.693C50.18 186.414 49.2984 186.702 48.5771 186.336C47.8557 185.97 47.5677 185.088 47.9338 184.367L113.909 54.3731L104.74 57.3685C103.971 57.6197 103.144 57.2 102.893 56.431C102.641 55.6621 103.061 54.8351 103.83 54.5839L116.361 50.4905Z" fill="white"/>
<path fill-rule="evenodd" clip-rule="evenodd" d="M205.975 97.4064C206.752 97.631 207.2 98.4431 206.975 99.2202L203.315 111.884C203.09 112.661 202.278 113.109 201.501 112.884C200.724 112.66 200.276 111.848 200.5 111.071L203.179 101.804L49.9473 186.312C49.239 186.703 48.3481 186.445 47.9574 185.737C47.5668 185.029 47.8243 184.138 48.5326 183.747L201.764 99.2386L192.498 96.5599C191.721 96.3352 191.273 95.5232 191.497 94.746C191.722 93.9689 192.534 93.5211 193.311 93.7457L205.975 97.4064Z" fill="white"/>
<path fill-rule="evenodd" clip-rule="evenodd" d="M201.892 192.181C202.432 192.783 202.383 193.709 201.781 194.249L191.974 203.058C191.372 203.598 190.446 203.549 189.905 202.947C189.365 202.345 189.414 201.419 190.016 200.878L197.193 194.433L49.1616 186.492C48.3539 186.449 47.7341 185.759 47.7775 184.951C47.8208 184.144 48.5108 183.524 49.3185 183.567L197.35 191.507L190.904 184.331C190.363 183.729 190.413 182.803 191.015 182.263C191.617 181.722 192.543 181.772 193.083 182.374L201.892 192.181Z" fill="white"/>
<path d="M128.517 47.4287C140.551 47.4287 150.306 37.6738 150.306 25.6404C150.306 13.607 140.551 3.85205 128.517 3.85205C116.484 3.85205 106.729 13.607 106.729 25.6404C106.729 37.6738 116.484 47.4287 128.517 47.4287Z" fill="url(#paint0_linear)"/>
<path d="M128.517 283.748C140.551 283.748 150.306 273.993 150.306 261.96C150.306 249.927 140.551 240.172 128.517 240.172C116.484 240.172 106.729 249.927 106.729 261.96C106.729 273.993 116.484 283.748 128.517 283.748Z" fill="url(#paint1_linear)"/>
<path d="M242.047 103.586C231.626 109.603 218.301 106.032 212.284 95.611C206.267 85.1898 209.838 71.8642 220.259 65.8475C230.68 59.8309 244.006 63.4014 250.022 73.8226C256.039 84.2438 252.469 97.5694 242.047 103.586Z" fill="url(#paint2_linear)"/>
<path d="M7.62511 213.771C13.6418 224.192 26.9673 227.763 37.3885 221.746C47.8097 215.729 51.3803 202.404 45.3636 191.982C39.3469 181.561 26.0214 177.991 15.6002 184.007C5.17899 190.024 1.60842 203.35 7.62511 213.771Z" fill="url(#paint3_linear)"/>
<path d="M219.376 221.746C208.955 215.729 205.384 202.404 211.401 191.983C217.417 181.561 230.743 177.991 241.164 184.007C251.585 190.024 255.156 203.35 249.139 213.771C243.122 224.192 229.797 227.763 219.376 221.746Z" fill="url(#paint4_linear)"/>
<path d="M6.74181 73.8228C0.72513 84.244 4.2957 97.5696 14.7169 103.586C25.1381 109.603 38.4636 106.032 44.4803 95.6112C50.497 85.19 46.9264 71.8644 36.5052 65.8477C26.084 59.8311 12.7585 63.4016 6.74181 73.8228Z" fill="url(#paint5_linear)"/>
<defs>
<linearGradient id="paint0_linear" x1="3.81909" y1="172.245" x2="252.947" y2="172.104" gradientUnits="userSpaceOnUse">
<stop stop-color="#F39242"/>
<stop offset="1" stop-color="#E9700D"/>
</linearGradient>
<linearGradient id="paint1_linear" x1="3.81909" y1="172.245" x2="252.947" y2="172.104" gradientUnits="userSpaceOnUse">
<stop stop-color="#F39242"/>
<stop offset="1" stop-color="#E9700D"/>
</linearGradient>
<linearGradient id="paint2_linear" x1="3.81909" y1="172.245" x2="252.947" y2="172.104" gradientUnits="userSpaceOnUse">
<stop stop-color="#F39242"/>
<stop offset="1" stop-color="#E9700D"/>
</linearGradient>
<linearGradient id="paint3_linear" x1="3.81909" y1="172.245" x2="252.947" y2="172.104" gradientUnits="userSpaceOnUse">
<stop stop-color="#F39242"/>
<stop offset="1" stop-color="#E9700D"/>
</linearGradient>
<linearGradient id="paint4_linear" x1="3.81909" y1="172.245" x2="252.947" y2="172.104" gradientUnits="userSpaceOnUse">
<stop stop-color="#F39242"/>
<stop offset="1" stop-color="#E9700D"/>
</linearGradient>
<linearGradient id="paint5_linear" x1="3.81909" y1="172.245" x2="252.947" y2="172.104" gradientUnits="userSpaceOnUse">
<stop stop-color="#F39242"/>
<stop offset="1" stop-color="#E9700D"/>
</linearGradient>
</defs>
</svg>
