<svg width="287" height="275" viewBox="0 0 287 275" fill="none" xmlns="http://www.w3.org/2000/svg">
<path opacity="0.5" d="M0.567627 270.008C0.567627 272.459 2.55447 274.446 5.00537 274.446L129.651 274.446C132.102 274.446 134.089 272.459 134.089 270.008L134.089 152.031C134.089 149.58 132.102 147.593 129.651 147.593L5.00537 147.593C2.55448 147.593 0.567637 149.58 0.567637 152.031L0.567627 270.008Z" fill="white"/>
<path d="M26.7898 201.255V238.345C26.7898 238.414 26.787 238.483 26.7898 238.552C27.0855 244.98 41.1515 250.156 58.454 250.156C75.7566 250.156 89.8225 244.98 90.1183 238.552C90.1211 238.483 90.1183 238.414 90.1183 238.345V201.255C89.8225 207.683 75.7566 212.859 58.454 212.859C41.1515 212.859 27.0855 207.683 26.7898 201.255Z" fill="white"/>
<path fill-rule="evenodd" clip-rule="evenodd" d="M25.1256 201.255L28.4522 201.179C28.4971 202.155 29.0725 203.29 30.5081 204.513C31.9368 205.73 34.0668 206.896 36.8176 207.905C42.3081 209.92 49.9478 211.195 58.454 211.195C66.9603 211.195 74.5999 209.92 80.0905 207.905C82.8413 206.896 84.9712 205.73 86.4 204.513C87.8355 203.29 88.411 202.155 88.4559 201.179L91.7824 201.255V238.345C91.7824 238.358 91.7825 238.366 91.7827 238.379C91.7829 238.39 91.7831 238.405 91.7834 238.432C91.7838 238.475 91.7842 238.543 91.7811 238.619L91.7807 238.629C91.6777 240.867 90.384 242.788 88.5583 244.344C86.7258 245.905 84.2024 247.238 81.2369 248.327C75.295 250.507 67.2503 251.82 58.454 251.82C49.6577 251.82 41.6131 250.507 35.6711 248.327C32.7056 247.238 30.1823 245.905 28.3497 244.344C26.524 242.788 25.2304 240.867 25.1274 238.629L25.127 238.619C25.1239 238.543 25.1242 238.475 25.1247 238.432C25.1249 238.405 25.1252 238.39 25.1253 238.379C25.1255 238.366 25.1256 238.358 25.1256 238.345V201.255ZM28.4539 207.135V238.345C28.4539 238.373 28.4537 238.398 28.4534 238.418L28.4528 238.465C28.4527 238.477 28.4527 238.484 28.4527 238.487C28.5015 239.46 29.078 240.592 30.5081 241.81C31.9368 243.027 34.0668 244.193 36.8176 245.202C42.3081 247.217 49.9478 248.492 58.454 248.492C66.9603 248.492 74.5999 247.217 80.0905 245.202C82.8413 244.193 84.9712 243.027 86.4 241.81C87.83 240.592 88.4065 239.46 88.4553 238.487C88.4554 238.484 88.4554 238.477 88.4552 238.465L88.4546 238.418C88.4544 238.398 88.4541 238.373 88.4541 238.345V207.135C86.6307 208.658 84.1466 209.962 81.2369 211.03C75.295 213.21 67.2503 214.523 58.454 214.523C49.6577 214.523 41.6131 213.21 35.6711 211.03C32.7614 209.962 30.2774 208.658 28.4539 207.135Z" fill="white"/>
<path fill-rule="evenodd" clip-rule="evenodd" d="M30.3761 197.919C28.9778 199.149 28.4527 200.281 28.4527 201.256C28.4527 202.23 28.9778 203.362 30.3761 204.592C31.7716 205.819 33.8866 207.001 36.6434 208.026C42.1444 210.073 49.8553 211.373 58.454 211.373C67.0527 211.373 74.7636 210.073 80.2646 208.026C83.0214 207.001 85.1364 205.819 86.5319 204.592C87.9303 203.362 88.4553 202.23 88.4553 201.256C88.4553 200.281 87.9303 199.149 86.5319 197.919C85.1364 196.692 83.0214 195.51 80.2646 194.485C74.7636 192.438 67.0527 191.138 58.454 191.138C49.8553 191.138 42.1444 192.438 36.6434 194.485C33.8866 195.51 31.7716 196.692 30.3761 197.919ZM35.4829 191.365C41.4425 189.148 49.5644 187.81 58.454 187.81C67.3437 187.81 75.4655 189.148 81.4252 191.365C84.3987 192.472 86.921 193.829 88.7302 195.42C90.5366 197.009 91.7836 198.977 91.7836 201.256C91.7836 203.534 90.5366 205.502 88.7302 207.091C86.921 208.682 84.3987 210.04 81.4252 211.146C75.4655 213.363 67.3437 214.701 58.454 214.701C49.5644 214.701 41.4425 213.363 35.4829 211.146C32.5094 210.04 29.987 208.682 28.1778 207.091C26.3714 205.502 25.1244 203.534 25.1244 201.256C25.1244 198.977 26.3714 197.009 28.1778 195.42C29.987 193.829 32.5094 192.472 35.4829 191.365Z" fill="white"/>
<path opacity="0.7" d="M42.2998 228.643C42.2998 231.094 44.2866 233.081 46.7375 233.081L203.103 233.081C205.554 233.081 207.541 231.094 207.541 228.643L207.541 80.5301C207.541 78.0792 205.554 76.0924 203.103 76.0924L46.7376 76.0923C44.2867 76.0923 42.2998 78.0792 42.2998 80.5301L42.2998 228.643Z" fill="white"/>
<circle cx="124.92" cy="154.587" r="51.5997" fill="url(#paint0_linear)"/>
<path d="M109.451 163.661C109.451 166.112 111.437 168.099 113.888 168.099L281.75 168.099C284.201 168.099 286.188 166.112 286.188 163.661L286.188 4.62555C286.188 2.17466 284.201 0.18782 281.75 0.18782L113.888 0.187805C111.437 0.187805 109.451 2.17465 109.451 4.62554L109.451 163.661Z" fill="white"/>
<path d="M197.23 1.63027C195.726 1.70603 194.252 2.07888 192.895 2.72696L133.747 30.9838C132.216 31.7148 130.871 32.7784 129.812 34.0956C128.752 35.4129 128.006 36.9499 127.627 38.5926L113.035 102.065C112.698 103.527 112.66 105.042 112.924 106.519C113.188 107.996 113.748 109.405 114.571 110.664C114.77 110.972 114.985 111.27 115.214 111.557L156.154 162.451C157.213 163.768 158.559 164.831 160.09 165.562C161.62 166.292 163.298 166.671 164.997 166.671L230.65 166.656C232.349 166.657 234.025 166.279 235.556 165.55C237.087 164.82 238.433 163.759 239.493 162.443L280.418 111.541C281.478 110.224 282.225 108.686 282.604 107.043C282.982 105.4 282.983 103.693 282.604 102.049L267.989 38.5774C267.611 36.9348 266.864 35.3978 265.805 34.0805C264.746 32.7633 263.4 31.6997 261.87 30.9687L202.714 2.72696C201.007 1.91173 199.122 1.53463 197.23 1.63027V1.63027Z" fill="white"/>
<path d="M197.816 23.231C195.861 23.2312 194.276 24.992 194.276 27.164C194.276 27.1973 194.283 27.2292 194.283 27.2623C194.28 27.5574 194.266 27.913 194.276 28.1699C194.322 29.4227 194.596 30.3814 194.76 31.5356C195.058 34.0059 195.307 36.0537 195.153 37.9569C195.004 38.6747 194.475 39.331 194.004 39.7873L193.92 41.2848C191.796 41.4608 189.657 41.7831 187.521 42.2681C178.328 44.3549 170.414 49.0892 164.388 55.4813C163.997 55.2146 163.313 54.724 163.109 54.5737C162.477 54.6591 161.839 54.854 161.007 54.3695C159.422 53.3032 157.979 51.8314 156.233 50.0584C155.433 49.2103 154.854 48.4026 153.903 47.5851C153.687 47.3995 153.358 47.1484 153.117 46.9574C152.373 46.365 151.497 46.0561 150.651 46.0271C149.562 45.9898 148.515 46.4153 147.829 47.275C146.61 48.8035 147 51.1398 148.699 52.4938C148.716 52.5075 148.734 52.5182 148.752 52.5316C148.985 52.7208 149.271 52.9632 149.486 53.1215C150.494 53.8662 151.416 54.2473 152.421 54.8384C154.538 56.1458 156.293 57.2299 157.686 58.5369C158.229 59.1164 158.324 60.1374 158.397 60.579L159.531 61.5925C153.457 70.7324 150.646 82.022 152.307 93.5252L150.825 93.9563C150.434 94.4608 149.882 95.2547 149.304 95.4917C147.482 96.0653 145.432 96.276 142.957 96.5354C141.795 96.632 140.793 96.5744 139.561 96.8077C139.29 96.859 138.912 96.9574 138.615 97.027C138.605 97.0292 138.595 97.0322 138.585 97.0346C138.569 97.0383 138.547 97.0462 138.532 97.0497C136.445 97.5538 135.105 99.4714 135.536 101.361C135.968 103.251 138.006 104.4 140.105 103.948C140.121 103.944 140.143 103.943 140.158 103.94C140.182 103.935 140.203 103.923 140.226 103.917C140.519 103.853 140.886 103.782 141.142 103.713C142.353 103.389 143.23 102.912 144.319 102.495C146.661 101.655 148.602 100.954 150.492 100.68C151.281 100.618 152.113 101.167 152.527 101.399L154.07 101.134C157.621 112.142 165.063 121.04 174.487 126.623L173.844 128.166C174.075 128.765 174.331 129.575 174.158 130.167C173.471 131.949 172.294 133.829 170.954 135.926C170.305 136.894 169.641 137.646 169.055 138.754C168.915 139.019 168.737 139.427 168.601 139.707C167.692 141.654 168.359 143.896 170.107 144.737C171.866 145.583 174.049 144.691 174.994 142.74C174.995 142.737 175 142.735 175.001 142.733C175.002 142.73 175 142.727 175.001 142.725C175.136 142.449 175.326 142.085 175.44 141.825C175.941 140.676 176.108 139.692 176.461 138.58C177.398 136.228 177.912 133.759 179.202 132.221C179.555 131.8 180.131 131.638 180.728 131.478L181.529 130.026C189.745 133.179 198.941 134.025 208.127 131.94C210.222 131.464 212.245 130.848 214.201 130.109C214.426 130.509 214.845 131.277 214.958 131.471C215.564 131.668 216.226 131.77 216.765 132.567C217.73 134.215 218.39 136.165 219.194 138.52C219.547 139.631 219.721 140.616 220.223 141.765C220.337 142.026 220.527 142.395 220.661 142.672C221.604 144.629 223.794 145.525 225.556 144.676C227.303 143.835 227.971 141.593 227.061 139.647C226.926 139.366 226.74 138.959 226.6 138.694C226.014 137.585 225.35 136.841 224.701 135.873C223.36 133.776 222.249 132.035 221.561 130.253C221.274 129.334 221.61 128.763 221.834 128.166C221.7 128.012 221.413 127.144 221.244 126.736C231.037 120.954 238.261 111.725 241.653 101.066C242.111 101.138 242.907 101.279 243.166 101.331C243.699 100.98 244.188 100.521 245.148 100.597C247.038 100.87 248.978 101.572 251.321 102.412C252.41 102.829 253.287 103.313 254.498 103.637C254.754 103.706 255.121 103.77 255.413 103.834C255.437 103.84 255.458 103.851 255.481 103.857C255.497 103.86 255.519 103.861 255.534 103.864C257.634 104.316 259.672 103.168 260.103 101.278C260.534 99.3882 259.195 97.4701 257.108 96.9665C256.804 96.8975 256.374 96.7803 256.079 96.7245C254.847 96.4912 253.844 96.5488 252.682 96.4522C250.207 96.1929 248.157 95.982 246.336 95.4085C245.593 95.1204 245.065 94.2367 244.808 93.8731L243.378 93.4571C244.119 88.0951 243.919 82.5147 242.637 76.9311C241.342 71.2955 239.054 66.1413 236.002 61.6001C236.369 61.2668 237.062 60.6536 237.258 60.4732C237.316 59.838 237.266 59.1721 237.924 58.4689C239.316 57.1617 241.071 56.0779 243.189 54.7704C244.194 54.1792 245.123 53.7981 246.131 53.0535C246.36 52.8851 246.671 52.6184 246.911 52.4257C248.609 51.0712 249 48.7352 247.781 47.207C246.561 45.6788 244.199 45.5348 242.5 46.8893C242.259 47.0807 241.931 47.3304 241.714 47.5171C240.763 48.3346 240.176 49.1421 239.376 49.9903C237.63 51.7634 236.187 53.2426 234.603 54.309C233.916 54.7086 232.911 54.5703 232.455 54.5435L231.108 55.504C223.43 47.454 212.976 42.3073 201.719 41.3075C201.688 40.8359 201.647 39.9833 201.636 39.7268C201.175 39.2859 200.619 38.9095 200.479 37.9569C200.325 36.0537 200.582 34.0059 200.88 31.5356C201.044 30.3814 201.317 29.4227 201.364 28.1699C201.375 27.8851 201.357 27.4719 201.356 27.164C201.356 24.992 199.771 23.2308 197.816 23.231ZM193.383 50.6861L192.332 69.2542L192.256 69.2921C192.186 70.9532 190.818 72.2796 189.139 72.2796C188.452 72.2796 187.817 72.0588 187.301 71.6821L187.271 71.6972L172.043 60.9043C176.723 56.303 182.71 52.9027 189.608 51.3366C190.869 51.0505 192.128 50.8382 193.383 50.6861ZM202.257 50.6861C210.311 51.6766 217.76 55.3231 223.468 60.9118L208.339 71.6367L208.286 71.614C206.943 72.5947 205.051 72.3513 204.004 71.0392C203.575 70.5017 203.35 69.8696 203.323 69.2316L203.308 69.224L202.257 50.6861ZM166.521 67.8399L180.425 80.2741L180.41 80.3497C181.665 81.4406 181.85 83.3335 180.803 84.6458C180.374 85.1833 179.801 85.5439 179.184 85.7122L179.169 85.7727L161.347 90.9158C160.44 82.6227 162.395 74.5611 166.521 67.8399ZM229.013 67.8474C231.079 71.1953 232.643 74.9346 233.574 78.9883C234.494 82.9935 234.725 86.9915 234.346 90.8553L216.433 85.697L216.418 85.6214C214.813 85.1831 213.828 83.5517 214.201 81.9153C214.354 81.245 214.71 80.6779 215.192 80.259L215.185 80.2212L229.013 67.8474ZM194.964 81.2346H200.66L204.201 85.6592L202.93 91.1805L197.816 93.6386L192.687 91.1729L191.416 85.6517L194.964 81.2346ZM213.225 96.3766C213.467 96.3643 213.708 96.3861 213.944 96.4295L213.974 96.3917L232.409 99.5078C229.711 107.086 224.549 113.652 217.651 118.046L210.494 100.763L210.517 100.733C209.86 99.2059 210.518 97.415 212.03 96.6867C212.417 96.5002 212.822 96.3969 213.225 96.3766ZM182.263 96.4522C183.67 96.4719 184.932 97.4482 185.259 98.88C185.412 99.5504 185.337 100.215 185.085 100.801L185.138 100.869L178.057 117.978C171.437 113.73 166.165 107.371 163.344 99.5683L181.62 96.4673L181.65 96.5051C181.855 96.4675 182.062 96.4494 182.263 96.4522ZM197.703 103.948C198.193 103.93 198.69 104.03 199.163 104.258C199.782 104.556 200.261 105.026 200.562 105.589H200.63L209.64 121.865C208.47 122.257 207.268 122.592 206.039 122.871C199.148 124.435 192.28 123.961 186.061 121.843L195.047 105.596H195.063C195.602 104.588 196.624 103.987 197.703 103.948Z" fill="url(#paint1_linear)"/>
<defs>
<linearGradient id="paint0_linear" x1="73.3207" y1="165.074" x2="176.521" y2="165.009" gradientUnits="userSpaceOnUse">
<stop stop-color="#F39242"/>
<stop offset="1" stop-color="#E9700D"/>
</linearGradient>
<linearGradient id="paint1_linear" x1="135.456" y1="96.5244" x2="260.185" y2="96.4433" gradientUnits="userSpaceOnUse">
<stop stop-color="#F39242"/>
<stop offset="1" stop-color="#E9700D"/>
</linearGradient>
</defs>
</svg>
