<svg width="347" height="232" viewBox="0 0 347 232" fill="none" xmlns="http://www.w3.org/2000/svg">
<g clip-path="url(#clip0)">
<g opacity="0.3">
<path opacity="0.3" d="M205.627 37.2776C183.996 36.5247 163.394 29.5343 143.719 21.8847C124.043 14.2352 104.561 5.75909 83.4482 1.70676C69.8683 -0.899975 54.3406 -1.26807 43.3981 6.0201C32.8701 13.0472 29.4677 25.144 27.6362 36.3774C26.2626 44.8334 25.4504 53.7278 29.2238 61.6418C31.8407 67.1365 36.4898 71.754 39.705 77.0179C50.8881 95.3289 42.9837 117.909 30.8614 135.788C25.1797 144.174 18.5821 152.185 14.1938 161.106C9.8054 170.027 7.77667 180.263 11.6135 189.372C15.4204 198.407 24.4878 205.18 34.3073 209.948C54.257 219.633 77.7561 222.407 100.691 223.976C151.432 227.452 202.448 225.947 253.323 224.441C272.154 223.882 291.064 223.316 309.587 220.402C319.874 218.782 330.495 216.212 337.962 210.028C347.441 202.155 349.79 188.82 343.44 178.949C332.785 162.388 303.333 158.272 295.877 140.5C291.776 130.719 295.987 119.82 301.943 110.748C314.723 91.2827 336.144 74.21 337.273 51.961C338.049 36.682 327.751 21.3795 311.829 14.1482C295.138 6.56892 271.997 7.52256 259.69 20.0677C247.003 32.971 224.724 37.9401 205.627 37.2776Z" fill="#A93DDB"/>
</g>
<path d="M41.7847 217.353C41.0795 215.747 40.4111 213.9 41.1163 212.294C41.5767 211.348 42.3674 210.604 43.3389 210.202C44.3003 209.81 45.3135 209.559 46.3469 209.46C49.5904 209.033 52.8724 208.989 56.1263 209.326C56.3635 211.206 55.8622 213.113 55.4311 214.931C55.04 216.604 54.8161 216.852 53.0915 216.938C51.9752 216.998 42.0488 217.946 41.7847 217.353Z" fill="#FBBEBE"/>
<path d="M71.5479 206.518C97.9436 206.518 119.341 200.525 119.341 193.133C119.341 185.741 97.9436 179.748 71.5479 179.748C45.1519 179.748 23.7539 185.741 23.7539 193.133C23.7539 200.525 45.1519 206.518 71.5479 206.518Z" fill="#1A0F27"/>
<path opacity="0.1" d="M71.5479 206.518C97.9436 206.518 119.341 200.525 119.341 193.133C119.341 185.741 97.9436 179.748 71.5479 179.748C45.1519 179.748 23.7539 185.741 23.7539 193.133C23.7539 200.525 45.1519 206.518 71.5479 206.518Z" fill="#1A0F27"/>
<path d="M80.1159 122.473C78.4778 125.643 75.7568 128.118 72.4487 129.447C70.4962 130.159 68.4404 130.55 66.3628 130.604C64.0932 130.708 61.7772 130.561 59.6449 129.785C56.7839 128.747 54.4076 126.626 52.6262 124.153C50.8448 121.68 49.6182 118.856 48.552 116.008C47.9906 114.525 47.4558 112.946 47.7198 111.38C49.4411 110.988 51.3261 110.413 52.2151 108.884C52.9738 107.572 52.7632 105.999 52.3254 104.501C52.2018 104.075 52.058 103.653 51.9143 103.249C51.5801 102.278 50.427 100.434 51.2459 99.6047C51.7572 99.0793 53.8996 98.8115 54.6382 98.4704C56.9143 97.4195 59.0132 95.9002 61.5132 95.4017C63.6756 94.9703 65.9083 95.3748 68.0672 95.8231C68.3535 95.8651 68.6286 95.9642 68.8762 96.1147C69.1582 96.3523 69.367 96.6658 69.4777 97.0182C70.0929 98.5168 70.4536 100.173 70.9482 101.736C71.4628 103.373 72.1249 104.909 73.3647 106.069C74.3307 106.977 75.5605 107.545 76.764 108.097L79.7251 109.456C80.2516 109.653 80.7292 109.963 81.1256 110.363C81.5126 110.896 81.744 111.526 81.794 112.183C82.3242 115.704 81.7377 119.303 80.1159 122.473Z" fill="#FBBEBE"/>
<path opacity="0.1" d="M70.9365 101.736C68.5787 104.195 65.472 105.799 62.105 106.299C58.7377 106.8 55.2998 106.167 52.3305 104.501C52.2068 104.075 52.063 103.653 51.9194 103.249C51.5851 102.278 50.4321 100.434 51.2509 99.6047C51.7622 99.0793 53.9046 98.8115 54.6433 98.4704C56.9194 97.4195 59.0182 95.9002 61.5183 95.4017C63.6807 94.9703 65.9134 95.3748 68.0723 95.8231C68.3587 95.8651 68.6338 95.9642 68.8814 96.1147C69.1633 96.3523 69.3715 96.6658 69.4828 97.0182C70.0812 98.5168 70.4419 100.173 70.9365 101.736Z" fill="black"/>
<path d="M59.8508 105.796C68.3415 105.796 75.2253 98.9044 75.2253 90.4031C75.2253 81.9019 68.3415 75.0103 59.8508 75.0103C51.3599 75.0103 44.4766 81.9019 44.4766 90.4031C44.4766 98.9044 51.3599 105.796 59.8508 105.796Z" fill="#FBBEBE"/>
<path d="M106.692 140.359L105.428 132.696C104.79 128.851 104.132 124.933 102.347 121.47C101.174 119.201 99.3123 117.039 96.802 116.591C96.3074 116.547 95.8216 116.434 95.3584 116.256C94.6231 115.901 94.2217 115.105 93.6571 114.516C92.1997 113.004 89.827 112.98 87.875 112.211C86.1507 111.542 84.7402 110.253 83.169 109.269C81.5984 108.285 79.6433 107.596 77.9052 108.225C77.6245 111.22 77.3269 114.282 76.057 117.009C75.2305 118.784 74.0175 120.353 72.5082 121.598C70.9983 122.844 69.2296 123.737 67.3308 124.21C65.4326 124.683 63.4525 124.726 61.5352 124.335C59.6182 123.944 57.8127 123.128 56.2509 121.948C53.2729 119.703 51.3646 116.239 50.4755 112.616C50.2583 111.732 50.011 110.718 49.1988 110.313C48.3198 109.872 47.2636 110.407 46.525 111.056C45.1881 112.258 44.0952 113.978 42.3372 114.382C41.7021 114.529 41.0003 114.499 40.4722 114.884C40.1213 115.208 39.8275 115.59 39.6033 116.012C39.2186 116.556 38.7046 116.996 38.1076 117.291C37.5107 117.587 36.8496 117.729 36.1842 117.705C35.5725 117.675 34.8472 117.535 34.4295 117.979C34.1187 118.314 34.0953 118.836 33.761 119.147C33.3098 119.586 32.5779 119.372 31.9496 119.348C30.7597 119.298 29.6534 120.061 28.9716 121.022C28.2898 121.982 27.9689 123.17 27.6348 124.321C31.2878 132.465 34.63 140.621 38.2831 148.765C38.4542 149.072 38.5451 149.418 38.5471 149.769C38.4739 150.134 38.3184 150.477 38.0926 150.773C36.3011 153.654 36.358 157.278 36.5552 160.665C36.7524 164.051 36.9929 167.628 35.4823 170.663C35.0712 171.497 34.5364 172.259 34.1454 173.092C33.2297 174.98 32.8987 181.017 33.4335 183.045H108.995C107.554 179.079 108.102 171.122 108.403 166.912C108.614 163.967 108.069 161.026 107.835 158.081C107.323 152.068 107.685 146.362 106.692 140.359Z" fill="#FC8340"/>
<path d="M21.8458 149.127C21.7121 150.095 21.6986 151.076 21.8057 152.048L22.765 165.858C22.8552 167.159 22.9455 168.458 23.0658 169.756C23.2964 172.276 23.6407 174.776 24.0684 177.272C24.0781 177.626 24.2277 177.962 24.4846 178.206C24.7416 178.451 25.0847 178.582 25.4387 178.574C29.6666 179.47 34.035 179.433 38.3498 179.189C44.934 178.821 51.5081 177.981 58.1023 178.125C59.8002 178.162 61.7788 178.125 62.8081 176.787C63.8378 175.448 63.2395 173.283 61.8957 172.202C60.5522 171.121 58.7274 170.864 57.0027 170.864C54.72 170.84 52.4373 171.165 50.1612 171.031C48.0723 170.907 46.0302 170.402 44.0048 169.897L38.323 168.481C38.5403 166.758 39.1954 165.135 39.817 163.499C40.9333 160.597 41.9761 157.599 41.9961 154.491C42.0162 151.382 40.8464 148.113 38.303 146.333C36.2107 144.87 33.5169 144.599 30.9668 144.659C29.1119 144.713 25.9067 144.268 24.2122 144.994C22.8719 145.583 22.0965 147.811 21.8458 149.127Z" fill="#FBBEBE"/>
<path d="M110.559 180.703C111.672 180.277 112.899 180.431 114.092 180.592C117.932 181.118 121.829 181.656 125.389 183.192C127.06 183.908 128.651 184.865 129.78 186.274C130.783 187.542 131.368 189.095 131.923 190.624L133.206 194.144C133.694 195.483 134.189 196.848 134.326 198.271C134.727 202.483 131.849 206.455 128.23 208.644C124.61 210.832 120.349 211.612 116.197 212.428C112.046 213.245 107.879 214.148 103.745 215.106C101.816 215.607 99.8595 215.992 97.8857 216.26C93.4603 216.762 88.8349 216.022 84.6303 217.488C82.959 218.073 81.3178 218.944 79.5835 219.349C78.4312 219.591 77.2664 219.769 76.0941 219.88L68.1362 220.791C66.5181 221.007 64.8888 221.133 63.2569 221.165C59.7807 221.165 56.3617 220.343 52.9861 219.519C52.6271 219.456 52.2855 219.318 51.9834 219.114C51.4486 218.693 51.3316 217.946 51.2547 217.27C50.9139 214.279 50.6153 211.284 50.359 208.286C50.2788 207.312 50.2187 206.258 50.7501 205.438C51.4185 204.434 52.722 204.12 53.9118 203.926C58.9571 203.099 64.0685 202.744 69.1791 202.865C71.121 200.92 74.3228 200.91 76.8662 199.853C77.8022 199.423 78.7075 198.93 79.5766 198.377C84.1263 195.72 89.2107 194.112 94.4594 193.669C95.4879 193.638 96.5089 193.492 97.5043 193.234C99.4731 192.622 101.268 190.955 103.29 191.364C103.541 190.671 103.715 189.744 104.292 189.269C104.58 189.024 104.934 188.861 105.198 188.599C105.757 188.034 105.807 187.144 105.723 186.354C105.64 185.565 105.452 184.755 105.656 183.985C105.741 183.694 105.866 183.416 106.027 183.159C107.03 181.425 108.544 180.535 110.559 180.703Z" fill="#682500"/>
<path d="M44.8615 219.421C42.7926 221.821 40.9712 222.677 37.7326 222.6C35.7406 222.554 33.7508 222.45 31.7633 222.289C30.4049 222.142 29.0387 222.078 27.6724 222.099C23.5481 222.259 19.5675 224.149 15.4533 223.818C14.8449 223.77 14.2433 223.659 13.6584 223.484C12.7251 223.227 11.8816 222.714 11.222 222.004C10.4332 221.111 10.0555 219.926 9.83832 218.755C8.73874 212.752 11.7534 206.213 17.0308 203.159C17.7193 202.713 18.5021 202.435 19.3169 202.345C20.1158 202.342 20.9056 202.516 21.6297 202.854L21.6798 202.874C23.8239 203.757 25.7712 205.058 27.4084 206.702C27.6568 206.987 27.9532 207.226 28.284 207.409C28.6143 207.533 28.9638 207.599 29.3168 207.602L33.7085 207.88C34.4526 207.903 35.1921 208.004 35.9143 208.185C36.7106 208.463 37.4858 208.799 38.2339 209.189C40.5968 210.246 43.2171 210.527 45.7706 210.936C46.0167 210.949 46.2514 211.043 46.439 211.203C46.5409 211.33 46.6119 211.479 46.6463 211.638C47.0051 212.983 47.0301 214.395 46.719 215.752C46.4079 217.108 45.7703 218.368 44.8615 219.421Z" fill="#4F1C01"/>
<path opacity="0.1" d="M21.6798 202.878C19.9759 204.507 18.4978 206.357 17.2848 208.379C15.3383 211.716 14.1152 215.426 13.6952 219.268C13.536 220.669 13.5236 222.084 13.6584 223.488C12.7251 223.23 11.8816 222.718 11.222 222.008C10.4332 221.115 10.0555 219.93 9.83832 218.759C8.73874 212.756 11.7534 206.217 17.0308 203.162C17.7193 202.717 18.5021 202.439 19.3169 202.349C20.1158 202.346 20.9056 202.52 21.6297 202.858L21.6798 202.878Z" fill="black"/>
<path d="M106.735 211.204C109.192 211.136 111.949 211.013 113.754 212.669C115.475 214.235 115.702 216.819 115.816 219.144L115.946 221.844C115.987 222.667 116.02 223.518 115.689 224.281C115.101 225.619 113.486 226.265 112.013 226.188C110.538 226.111 109.185 225.465 107.838 224.883C104.181 223.306 100.374 222.105 96.4746 221.299C96.6015 219.432 96.8129 217.573 97.1092 215.724C97.3137 214.443 97.3468 212.298 98.2021 211.234C99.1081 210.109 100.288 210.718 101.518 210.926C103.244 211.189 104.991 211.283 106.735 211.204Z" fill="#FBBEBE"/>
<path d="M41.8152 184.068C41.8152 184.403 41.2905 184.068 41.2436 183.71C40.876 181.003 38.7303 178.771 36.2303 177.687C33.7303 176.602 30.8828 176.545 28.1756 176.803C24.0813 177.191 19.4857 178.761 17.9885 182.592C17.6342 183.489 17.4738 184.46 17.0392 185.319C16.558 186.263 15.7725 187.016 15.2512 187.933C14.3521 189.519 14.3153 191.464 14.6396 193.257C15.5119 198.042 18.7806 202.134 22.7411 204.968C26.7017 207.803 31.3306 209.496 35.9462 211.022C48.1509 215.052 60.6728 218.046 73.3792 219.973C75.4381 220.285 77.517 220.573 79.4889 221.235C81.2533 221.827 82.9045 222.714 84.6289 223.41C88.6397 225.023 92.9544 225.598 97.229 226.164C97.9581 226.258 98.7934 226.324 99.3317 225.83C100.027 225.184 99.7962 224.059 99.5987 223.132C98.8734 219.608 99.4824 215.94 101.307 212.839C102.022 211.634 102.951 210.4 102.817 209.005C102.657 207.378 101.039 206.227 99.4286 205.966C97.8174 205.705 96.1799 206.09 94.5625 206.301C94.0041 206.374 93.3958 206.421 92.9075 206.137C92.6674 205.974 92.4492 205.78 92.2591 205.561C91.145 204.485 89.7189 203.79 88.1852 203.575C86.6515 203.36 85.0897 203.637 83.7236 204.367C83.1252 204.701 82.2193 203.955 81.5978 203.674L74.569 200.488C66.4942 196.831 58.3792 193.157 49.8365 190.841C49.1549 190.707 48.5071 190.437 47.9315 190.048C47.507 189.713 47.2029 189.258 46.8118 188.886C45.9595 188.08 44.773 187.759 43.7504 187.187C42.7276 186.615 41.5812 185.216 41.8152 184.068Z" fill="#712800"/>
<path d="M150.174 227.801C149.051 229.885 146.872 231.184 144.532 231.719C143.945 231.851 143.349 231.937 142.748 231.973C139.79 232.157 136.869 231.337 134.018 230.528L130.148 229.437C129.482 229.227 128.8 229.075 128.109 228.982C127.168 228.919 126.222 228.951 125.288 229.079C120.714 229.505 116.103 229.298 111.585 228.463C111.207 228.422 110.844 228.293 110.526 228.085C110.246 227.811 109.999 227.507 109.787 227.178C108.734 225.91 107.601 225.17 108.847 223.498C109.566 222.527 110.899 222.042 111.458 220.927C112.016 219.813 111.658 218.231 111.328 217.079C110.876 215.49 109.392 214.804 108.861 213.345C108.463 212.244 109.131 210.966 110.138 210.366C111.144 209.768 112.387 209.72 113.547 209.875C114.706 210.028 115.843 210.356 117.009 210.447C120.439 210.721 123.944 208.951 127.237 209.948C127.962 210.169 128.647 210.521 129.382 210.714C130.815 211.035 132.313 210.906 133.67 210.343C134.152 210.163 134.623 209.945 135.091 209.731C135.993 209.26 136.954 208.913 137.949 208.697C141.16 208.145 144.138 210.37 146.561 212.542C147.393 213.232 148.129 214.032 148.751 214.917C149.419 215.961 149.773 217.176 150.087 218.374C150.973 221.47 151.705 224.956 150.174 227.801Z" fill="#4F1C01"/>
<path opacity="0.1" d="M150.173 227.8C149.05 229.885 146.871 231.184 144.532 231.719C145.442 229.948 145.852 227.963 145.719 225.977C145.518 222.795 144.121 219.796 142.339 217.153C141.243 215.526 139.997 214.005 138.616 212.612C137.553 211.541 136.246 210.691 135.104 209.711C136.006 209.24 136.967 208.892 137.961 208.677C141.173 208.125 144.151 210.349 146.574 212.521C147.406 213.212 148.142 214.011 148.763 214.897C149.432 215.941 149.786 217.156 150.1 218.354C150.972 221.469 151.704 224.956 150.173 227.8Z" fill="black"/>
<path d="M27.4436 124.569C27.118 124.91 26.8655 125.314 26.7016 125.757C23.9999 131.853 22.4042 138.381 21.9891 145.038C21.9963 145.362 21.9216 145.683 21.7718 145.971C21.6241 146.163 21.4597 146.341 21.2805 146.503C21.1178 146.696 20.9964 146.921 20.9238 147.163C20.8511 147.405 20.8289 147.659 20.8583 147.91C20.8878 148.161 20.9683 148.403 21.095 148.621C21.2216 148.84 21.3917 149.03 21.5947 149.181C22.1462 148.14 23.4663 147.802 24.6394 147.711C30.2578 147.266 35.7457 149.883 41.3806 149.685C40.9829 148.31 40.4114 146.989 40.0872 145.597C38.6534 139.416 42.2296 132.687 40.0371 126.734C39.5993 125.542 38.8673 124.371 37.7143 123.849C37.2368 123.656 36.7372 123.523 36.227 123.454C34.8031 123.197 31.9689 122.096 30.5919 122.538C30.0839 122.701 29.8834 123.18 29.4623 123.467C28.8239 123.879 27.975 124.03 27.4436 124.569Z" fill="#FC8340"/>
<path d="M111.163 136.749H41.9586C40.4875 136.749 39.2949 137.942 39.2949 139.415V181.599C39.2949 183.071 40.4875 184.265 41.9586 184.265H111.163C112.634 184.265 113.826 183.071 113.826 181.599V139.415C113.826 137.942 112.634 136.749 111.163 136.749Z" fill="#1A0F27"/>
<path d="M76.3938 162.515C77.501 162.515 78.3989 161.616 78.3989 160.507C78.3989 159.399 77.501 158.5 76.3938 158.5C75.2865 158.5 74.3887 159.399 74.3887 160.507C74.3887 161.616 75.2865 162.515 76.3938 162.515Z" fill="white"/>
<path d="M49.2274 65.4202C48.1044 66.2328 47.3357 67.401 46.5536 68.5221C45.1132 70.5932 43.4821 72.6611 41.1793 73.8154C40.307 74.2537 39.311 74.5854 38.7328 75.3485C38.3896 75.8639 38.1669 76.4508 38.0811 77.0647C37.64 79.2236 37.4094 81.42 37.3926 83.6234C37.3926 84.7213 37.4394 85.8525 37.924 86.8495C38.3819 87.7862 39.2074 88.5794 39.3779 89.6002C39.5082 90.3965 39.2141 91.1897 39.1105 91.9892C39.0069 92.7893 39.1874 93.7361 39.926 94.1173C40.324 94.2672 40.7397 94.365 41.1626 94.4089C43.3852 94.9036 44.1305 97.5139 44.4681 99.6722C45.2235 99.6289 45.5643 98.7623 45.7215 98.0563L48.0376 87.7461C48.2883 86.6287 48.706 85.3333 49.819 84.942C50.5643 84.6843 51.3798 84.9251 52.1586 84.9922C55.2167 85.243 57.8036 82.8772 60.7949 82.2251C61.7524 82.0314 62.7313 81.9662 63.7061 82.0308C66.0657 82.148 68.8098 83.118 69.3106 85.3233C69.3944 85.6813 69.4444 86.1096 69.7789 86.287C70.1128 86.4645 70.4641 86.314 70.8149 86.287C72.3123 86.1365 73.1945 87.8232 73.6259 89.2021L75.1965 94.2214C75.4303 94.9807 75.8248 95.8742 76.647 95.9714C77.406 96.0649 78.0506 95.3457 78.1644 94.6327C78.2782 93.9198 78.0306 93.1805 77.8668 92.4645C77.1284 89.1682 78.2582 85.7954 78.9466 82.4922C79.6349 79.1897 79.7587 75.3949 77.4491 72.8517C76.6101 71.9319 75.5072 71.2459 74.725 70.2753C73.9966 69.3654 73.5859 68.2475 72.83 67.3539C70.7411 64.8878 65.3835 62.9836 62.0984 62.6693C58.345 62.261 52.2622 63.2149 49.2274 65.4202Z" fill="#1A0F27"/>
<g opacity="0.1">
<path opacity="0.1" d="M76.6618 93.6288C75.8396 93.5285 75.4451 92.6249 75.2113 91.8787C74.6879 90.2033 74.164 88.5304 73.6407 86.8594C73.2093 85.4774 72.3271 83.7907 70.8297 83.9443C70.4789 83.9813 70.1013 84.1186 69.7937 83.9443C69.4861 83.7706 69.4092 83.3386 69.3254 82.9806C68.8246 80.7722 66.0805 79.8053 63.7209 79.6881C62.7461 79.6241 61.7675 79.6881 60.8096 79.8787C57.8184 80.5483 55.2315 82.8903 52.1733 82.6464C51.3846 82.5824 50.5691 82.3416 49.8338 82.5994C48.7075 82.9875 48.3031 84.2723 48.0524 85.4034L45.7362 95.7099C45.5791 96.4197 45.2382 97.2862 44.4829 97.3263C44.1487 95.1713 43.4 92.5616 41.1774 92.0662C40.755 92.0192 40.3398 91.9214 39.9408 91.7747C39.65 91.616 39.4224 91.3621 39.2958 91.0555C39.2356 91.3665 39.1654 91.6781 39.1253 91.9891C39.025 92.7854 39.2022 93.736 39.9408 94.1172C40.3388 94.2671 40.7544 94.3649 41.1774 94.4082C43.4 94.9035 44.1453 97.5138 44.4829 99.6721C45.2382 99.6288 45.5791 98.7616 45.7362 98.0556L48.0524 87.746C48.3031 86.628 48.7208 85.3332 49.8338 84.9419C50.5791 84.6842 51.3946 84.925 52.1733 84.9921C55.2315 85.2429 57.8184 82.8771 60.8096 82.2244C61.7672 82.0313 62.7461 81.9661 63.7209 82.0306C66.0805 82.1479 68.8246 83.1179 69.3254 85.3232C69.4092 85.6812 69.4592 86.1095 69.7937 86.2869C70.1276 86.4644 70.4789 86.3139 70.8297 86.2869C72.3271 86.1364 73.2093 87.8231 73.6407 89.2013C74.1621 90.8767 74.6854 92.5503 75.2113 94.2213C75.4451 94.9806 75.8396 95.8742 76.6618 95.9713C77.4208 96.0648 78.0654 95.3456 78.1792 94.6326C78.2305 94.0326 78.1623 93.4288 77.9785 92.8556C77.8597 93.1002 77.6709 93.3033 77.4364 93.4413C77.2026 93.5786 76.9331 93.6438 76.6618 93.6288Z" fill="black"/>
<path opacity="0.1" d="M39.3818 87.257C39.2113 86.2362 38.3791 85.4437 37.9279 84.5063C37.6378 83.8742 37.4699 83.1933 37.4332 82.4985C37.4332 82.8735 37.3998 83.2485 37.3965 83.6266C37.3965 84.7239 37.4433 85.855 37.9279 86.852C38.2989 87.6119 38.9105 88.281 39.218 89.0541C39.3801 88.4697 39.4356 87.8609 39.3818 87.257Z" fill="black"/>
<path opacity="0.1" d="M78.9614 80.1365C78.3531 83.054 77.4034 86.0255 77.6978 88.9506C77.8885 86.7917 78.5169 84.6203 78.9614 82.4784C79.3322 80.8525 79.4622 79.1802 79.349 77.5161C79.2765 78.3971 79.1465 79.2724 78.9614 80.1365Z" fill="black"/>
</g>
<g opacity="0.8">
<path opacity="0.8" d="M110.307 97.2056H319.216" stroke="#3F3D56" stroke-width="3" stroke-miterlimit="10"/>
<path opacity="0.8" d="M128.867 97.2023C128.867 97.2023 138.857 98.5912 133.683 87.8596C128.51 77.128 147.721 79.159 147.721 79.159" stroke="#3F3D56" stroke-width="3" stroke-miterlimit="10"/>
<path opacity="0.8" d="M195.4 97.2019C195.4 97.2019 205.39 95.8162 200.217 106.548C195.043 117.279 214.254 115.248 214.254 115.248" stroke="#3F3D56" stroke-width="3" stroke-miterlimit="10"/>
<path opacity="0.8" d="M291.199 97.2019C291.199 97.2019 281.206 95.8162 286.383 106.548C291.56 117.279 272.346 115.248 272.346 115.248" stroke="#3F3D56" stroke-width="3" stroke-miterlimit="10"/>
<path opacity="0.8" d="M272.346 115.245H217.223" stroke="#3F3D56" stroke-width="3" stroke-miterlimit="10"/>
<path opacity="0.8" d="M110.307 103.312C113.675 103.312 116.406 100.579 116.406 97.2059C116.406 93.8331 113.675 91.0986 110.307 91.0986C106.938 91.0986 104.207 93.8331 104.207 97.2059C104.207 100.579 106.938 103.312 110.307 103.312Z" fill="#6C63FF"/>
<path opacity="0.8" d="M147.824 85.1787C151.193 85.1787 153.923 82.4449 153.923 79.0721C153.923 75.6993 151.193 72.9648 147.824 72.9648C144.456 72.9648 141.725 75.6993 141.725 79.0721C141.725 82.4449 144.456 85.1787 147.824 85.1787Z" fill="#3ACC6C"/>
<path opacity="0.8" d="M147.824 103.312C151.193 103.312 153.923 100.579 153.923 97.2059C153.923 93.8331 151.193 91.0986 147.824 91.0986C144.456 91.0986 141.725 93.8331 141.725 97.2059C141.725 100.579 144.456 103.312 147.824 103.312Z" fill="#6C63FF"/>
<path opacity="0.8" d="M172.035 103.312C175.404 103.312 178.135 100.579 178.135 97.2059C178.135 93.8331 175.404 91.0986 172.035 91.0986C168.667 91.0986 165.936 93.8331 165.936 97.2059C165.936 100.579 168.667 103.312 172.035 103.312Z" fill="#6C63FF"/>
<path opacity="0.8" d="M214.356 121.262C217.724 121.262 220.455 118.528 220.455 115.155C220.455 111.782 217.724 109.048 214.356 109.048C210.987 109.048 208.256 111.782 208.256 115.155C208.256 118.528 210.987 121.262 214.356 121.262Z" fill="#FF6584"/>
<path opacity="0.8" d="M246.332 121.262C249.701 121.262 252.432 118.528 252.432 115.155C252.432 111.782 249.701 109.048 246.332 109.048C242.963 109.048 240.232 111.782 240.232 115.155C240.232 118.528 242.963 121.262 246.332 121.262Z" fill="#FF6584"/>
<path opacity="0.8" d="M244.666 103.312C248.035 103.312 250.766 100.579 250.766 97.2059C250.766 93.8331 248.035 91.0986 244.666 91.0986C241.297 91.0986 238.566 93.8331 238.566 97.2059C238.566 100.579 241.297 103.312 244.666 103.312Z" fill="#6C63FF"/>
<path opacity="0.8" d="M317.674 103.312C321.043 103.312 323.774 100.579 323.774 97.2059C323.774 93.8331 321.043 91.0986 317.674 91.0986C314.305 91.0986 311.574 93.8331 311.574 97.2059C311.574 100.579 314.305 103.312 317.674 103.312Z" fill="#6C63FF"/>
<path opacity="0.8" d="M287.807 103.312C291.175 103.312 293.906 100.579 293.906 97.2059C293.906 93.8331 291.175 91.0986 287.807 91.0986C284.438 91.0986 281.707 93.8331 281.707 97.2059C281.707 100.579 284.438 103.312 287.807 103.312Z" fill="#6C63FF"/>
<path opacity="0.8" d="M120.525 41.0454H100.061V55.1666H120.525V41.0454Z" fill="#6C63FF"/>
<path opacity="0.8" d="M158.132 41.0454H137.668V55.1666H158.132V41.0454Z" fill="#3ACC6C"/>
<path opacity="0.8" d="M224.501 41.0454H204.037V55.1666H224.501V41.0454Z" fill="#FF6584"/>
</g>
<g opacity="0.1">
<path opacity="0.1" d="M28.8611 100.174C28.8611 100.174 3.8713 89.6532 0.595918 108.636C0.595918 108.636 -1.11196 111.594 1.26436 114.037C1.26436 114.037 1.77573 112.725 4.18882 114.081C5.05069 114.558 5.96621 114.931 6.9161 115.191C8.19887 115.546 9.56186 115.473 10.7997 114.984C10.7997 114.984 19.0183 114.539 25.93 103.774C25.93 103.774 28.8946 101.94 29.0416 101.251L24.0884 101.586C24.0884 101.586 24.4694 105.217 22.4173 107.395C22.4173 107.395 24.2355 101.76 23.3631 101.602C23.186 101.569 20.7462 101.89 20.7462 101.89C20.7462 101.89 21.3779 108.204 18.0724 111.471C18.0724 111.471 21.1406 105.049 19.8071 102.004L16.1507 102.71C16.1507 102.71 17.1533 109.353 13.537 113.214C13.537 113.214 16.5116 106.387 15.3619 102.921L11.8626 104.099C11.8626 104.099 12.7048 110.594 9.68009 113.803C9.68009 113.803 12.3205 105.568 11.0772 104.434C11.0772 104.434 7.92877 105.711 7.25697 106.441C7.25697 106.441 7.75496 111.126 5.83319 112.816C5.83319 112.816 7.01301 107.127 6.42811 106.893C6.42811 106.893 2.7717 109.65 1.6554 112.029C1.6554 112.029 3.04577 108.396 5.97022 106.341C5.97022 106.341 3.51368 105.926 1.62532 106.953C1.62532 106.953 2.88869 104.541 6.85589 105.685C6.85589 105.685 9.7937 103.647 10.382 103.677C10.382 103.677 6.62862 102.004 3.91809 102.211C3.91809 102.211 6.82582 100.538 11.2977 103.332L14.7904 102.071C14.7904 102.071 9.94413 99.5847 7.51769 99.5948C7.51769 99.5948 10.7463 98.3432 15.6961 101.823L19.2723 101.094C19.2723 101.094 15.2616 98.6342 12.5578 98.0623C12.5578 98.0623 15.7997 97.5469 20.305 100.923L22.7482 100.719C22.7482 100.719 19.7903 98.9721 18.8946 98.5476C17.9989 98.1225 18.039 97.8479 18.039 97.8479C20.1646 98.2122 22.1476 99.1602 23.7676 100.585C23.7676 100.585 28.8411 100.485 28.8611 100.174Z" fill="#6C63FF"/>
</g>
<g opacity="0.1">
<path opacity="0.1" d="M27.9388 81.3141C27.9388 81.3141 19.0886 60.8115 6.33798 70.2145C6.33798 70.2145 3.64412 70.9976 3.66417 73.7948C3.66417 73.7948 4.71364 73.3063 5.37874 75.4915C5.62262 76.2665 5.95929 77.0096 6.38143 77.7037C6.93932 78.6467 7.79038 79.3816 8.80449 79.7948C8.80449 79.7948 13.9415 84.2185 24.1788 81.7656C24.1788 81.7656 26.9862 82.365 27.4642 82.0433L24.3358 79.4098C24.3358 79.4098 22.4943 81.7856 20.0277 81.8997C20.0277 81.8997 24.3158 79.591 23.888 78.9985C23.8011 78.8781 22.1667 77.6799 22.1667 77.6799C22.1667 77.6799 18.9515 81.7894 15.1481 81.8527C15.1481 81.8527 20.626 79.7848 21.5652 77.2184L18.9916 75.5448C18.9916 75.5448 15.7463 80.0657 11.4014 80.3002C11.4014 80.3002 17.0532 77.9413 18.3432 75.2238L15.5926 73.929C15.5926 73.929 12.3974 78.2793 8.78449 78.4429C8.78449 78.4429 15.0411 75.0564 14.9442 73.6744C14.9442 73.6744 12.3473 72.6373 11.5217 72.6975C11.5217 72.6975 9.15881 75.7593 7.04986 75.6721C7.04986 75.6721 10.9903 72.9652 10.7765 72.4931C10.7765 72.4931 7.03317 72.0448 5.01778 72.8279C5.01778 72.8279 7.91217 71.4629 10.8165 71.9112C10.8165 71.9112 9.59328 70.2615 7.8921 69.8031C7.8921 69.8031 10.0177 69.0902 11.7223 72.0285C11.7223 72.0285 14.6233 72.4968 14.9643 72.8448C14.9643 72.8448 13.6909 69.7028 11.9563 68.287C11.9563 68.287 14.63 68.956 15.6995 73.1627L18.4936 74.4043C18.4936 74.4043 17.0298 70.1612 15.5792 68.7855C15.5792 68.7855 18.2096 69.8834 19.1721 74.7755L21.7122 76.3781C21.7122 76.3781 20.7296 72.6304 19.4495 70.7468C19.4495 70.7468 21.6688 72.2924 22.4208 76.8666L23.9916 78.1382C23.9916 78.1382 23.2262 75.4144 22.9355 74.6519C22.6447 73.8888 22.8252 73.7484 22.8252 73.7484C23.8809 75.183 24.5163 76.8842 24.66 78.6605C24.66 78.6605 27.7483 81.4847 27.9388 81.3141Z" fill="#6C63FF"/>
</g>
</g>
<defs>
<clipPath id="clip0">
<rect width="347" height="232" fill="white"/>
</clipPath>
</defs>
</svg>
