<svg width="321" height="229" viewBox="0 0 321 229" fill="none" xmlns="http://www.w3.org/2000/svg">
<path opacity="0.2" fill-rule="evenodd" clip-rule="evenodd" d="M221.588 3.05334H21.6312V123.304H221.588V3.05334ZM121.476 105.106C142.983 105.106 160.418 87.6715 160.418 66.1647C160.418 44.6578 142.983 27.223 121.476 27.223C99.9691 27.223 82.5343 44.6578 82.5343 66.1647C82.5343 87.6715 99.9691 105.106 121.476 105.106Z" fill="white"/>
<path d="M3.99796 121.625C2.19836 121.625 0.739502 123.084 0.739502 124.884C0.739502 128.952 4.0374 132.25 8.10556 132.25H234.847C238.915 132.25 242.213 128.952 242.213 124.884C242.213 123.084 240.754 121.625 238.954 121.625H3.99796Z" fill="white"/>
<path fill-rule="evenodd" clip-rule="evenodd" d="M18.5325 8.92827C18.5325 4.44632 22.1658 0.812988 26.6478 0.812988H216.421C220.903 0.812988 224.536 4.44633 224.536 8.92827V124.415H18.5325V8.92827ZM26.6478 4.5585C24.2344 4.5585 22.278 6.51491 22.278 8.92827V120.67H220.79V8.92827C220.79 6.51492 218.834 4.5585 216.421 4.5585H26.6478Z" fill="white"/>
<path fill-rule="evenodd" clip-rule="evenodd" d="M91.3844 158.379C88.7299 158.379 86.578 160.615 86.578 163.373V223.854C86.578 226.612 88.7299 228.848 91.3844 228.848H315.382C318.036 228.848 320.188 226.612 320.188 223.854V163.373C320.188 160.615 318.036 158.379 315.382 158.379H91.3844ZM191.499 188.132C188.039 188.132 185.235 190.937 185.235 194.396C185.235 197.856 188.039 200.66 191.499 200.66H282.326C285.785 200.66 288.59 197.856 288.59 194.396C288.59 190.937 285.785 188.132 282.326 188.132H191.499Z" fill="url(#paint0_linear)"/>
<circle cx="148.291" cy="194.858" r="7.61828" fill="white"/>
<circle cx="125.078" cy="194.858" r="7.61828" fill="white"/>
<rect width="15.7331" height="4.84095" rx="2.42048" transform="matrix(1 0 0 -1 113.631 23.3398)" fill="white"/>
<path fill-rule="evenodd" clip-rule="evenodd" d="M121.476 102.984C141.811 102.984 158.295 86.4993 158.295 66.1647C158.295 45.8301 141.811 29.3457 121.476 29.3457C101.142 29.3457 84.6571 45.8301 84.6571 66.1647C84.6571 86.4993 101.142 102.984 121.476 102.984ZM121.476 106.729C143.879 106.729 162.041 88.5678 162.041 66.1647C162.041 43.7616 143.879 25.6002 121.476 25.6002C99.073 25.6002 80.9116 43.7616 80.9116 66.1647C80.9116 88.5678 99.073 106.729 121.476 106.729Z" fill="white"/>
<path d="M138.041 45.4629C139.199 44.3049 140.937 44.1652 141.922 45.1509C142.908 46.1366 142.768 47.8744 141.61 49.0324L122.278 68.365C121.12 69.5231 119.382 69.6628 118.396 68.6771C117.41 67.6914 117.55 65.9536 118.708 64.7955L138.041 45.4629Z" fill="url(#paint1_linear)"/>
<circle cx="120.926" cy="66.3817" r="6.37068" fill="white"/>
<path fill-rule="evenodd" clip-rule="evenodd" d="M78.995 200.325C78.995 199.398 78.2435 198.646 77.3164 198.646L51.9398 198.646L51.9398 147.525L59.7569 155.342C60.4124 155.998 61.4752 155.998 62.1308 155.342C62.7863 154.686 62.7863 153.624 62.1308 152.968L51.4481 142.285C50.7926 141.63 49.7298 141.63 49.0742 142.285L38.3916 152.968C37.7361 153.624 37.7361 154.686 38.3916 155.342C39.0471 155.998 40.11 155.998 40.7655 155.342L48.5826 147.525L48.5826 202.003L77.3164 202.003C78.2435 202.003 78.995 201.252 78.995 200.325Z" fill="white"/>
<path fill-rule="evenodd" clip-rule="evenodd" d="M231.942 90.9729C231.942 91.8999 232.693 92.6515 233.62 92.6515L270.397 92.6515L270.397 143.773L262.58 135.956C261.924 135.3 260.861 135.3 260.206 135.956C259.55 136.611 259.55 137.674 260.206 138.329L270.888 149.012C271.544 149.668 272.607 149.668 273.262 149.012L283.945 138.329C284.6 137.674 284.6 136.611 283.945 135.956C283.289 135.3 282.226 135.3 281.571 135.956L273.754 143.773L273.754 89.2943L233.62 89.2943C232.693 89.2943 231.942 90.0458 231.942 90.9729Z" fill="white"/>
<path opacity="0.4" d="M61.6837 3.05334V123.304H21.6312V3.05334H61.6837Z" fill="white"/>
<path opacity="0.2" d="M140.673 123.304V100.053C135.008 103.27 128.456 105.106 121.476 105.106C99.9691 105.106 82.5343 87.6715 82.5343 66.1647C82.5343 44.6578 99.9691 27.223 121.476 27.223C128.456 27.223 135.008 29.0596 140.673 32.2759V3.05334H61.6836V123.304H140.673Z" fill="white"/>
<defs>
<linearGradient id="paint0_linear" x1="86.578" y1="200.775" x2="320.188" y2="200.283" gradientUnits="userSpaceOnUse">
<stop stop-color="#F39242"/>
<stop offset="1" stop-color="#E9700D"/>
</linearGradient>
<linearGradient id="paint1_linear" x1="125.983" y1="57.5201" x2="129.553" y2="61.0893" gradientUnits="userSpaceOnUse">
<stop stop-color="#F39242"/>
<stop offset="1" stop-color="#E9700D"/>
</linearGradient>
</defs>
</svg>
