<svg width="322" height="231" viewBox="0 0 322 231" fill="none" xmlns="http://www.w3.org/2000/svg">
<path d="M152.424 228.477H0V229.14H152.424V228.477Z" fill="#301A47"/>
<path d="M38.7448 226.169H43.0784L45.1404 209.456H38.7441L38.7448 226.169Z" fill="#FFB8B8"/>
<path d="M51.4373 230.191L37.8166 230.192L37.8164 224.93H46.1745C47.5703 224.93 48.9088 225.484 49.8957 226.47C50.8827 227.457 51.4372 228.795 51.4373 230.191Z" fill="#4F1C01"/>
<path d="M15.6875 225.334L19.9836 225.907L24.2369 209.613L17.8969 208.768L15.6875 225.334Z" fill="#FFB8B8"/>
<path d="M27.7375 231L14.2363 229.2L14.9318 223.985L23.2166 225.089C24.6001 225.274 25.8537 226 26.7014 227.109C27.5493 228.217 27.922 229.617 27.7375 231Z" fill="#4F1C01"/>
<path d="M21.8435 157.145L46.2351 158.205L45.1746 220.054L38.8116 219.347L33.8626 177.29L22.197 222.174L15.834 221.113L21.8435 157.145Z" fill="#682500"/>
<path d="M38.1069 120.388L29.6228 118.656L24.3203 157.497C24.3203 157.497 39.8744 167.747 44.8234 157.144L38.1069 120.388Z" fill="#FC8340"/>
<path d="M34.405 115.827C39.2001 115.827 43.0873 111.941 43.0873 107.147C43.0873 102.353 39.2001 98.4663 34.405 98.4663C29.6099 98.4663 25.7227 102.353 25.7227 107.147C25.7227 111.941 29.6099 115.827 34.405 115.827Z" fill="#FFB8B8"/>
<path d="M29.6224 118.269L17.2498 122.156C17.2498 122.156 23.2593 152.197 13.3613 167.747C13.3613 167.747 25.7339 180.824 31.0364 151.49C31.0364 151.49 35.2784 127.811 29.6224 118.269Z" fill="#682500"/>
<path d="M38.1055 120.389L47.2965 126.044C47.2965 126.044 52.2455 167.394 47.2965 171.281C42.3475 175.169 38.1055 120.389 38.1055 120.389Z" fill="#682500"/>
<path d="M51.1191 177.278C50.7425 176.92 50.4488 176.484 50.259 176C50.0691 175.517 49.9876 174.997 50.0203 174.478C50.0529 173.96 50.1988 173.455 50.4478 172.999C50.6968 172.543 51.0428 172.147 51.4614 171.839L47.7246 159.775L54.0285 161.605L56.6105 172.782C57.0812 173.519 57.2651 174.403 57.1273 175.267C56.9894 176.13 56.5394 176.914 55.8625 177.468C55.1856 178.023 54.3289 178.309 53.4547 178.274C52.5804 178.239 51.7494 177.885 51.1191 177.278Z" fill="#FFB8B8"/>
<path d="M19.3655 173.789C18.9461 173.482 18.599 173.087 18.3488 172.632C18.0986 172.176 17.9512 171.671 17.9172 171.153C17.8832 170.635 17.9633 170.115 18.1518 169.631C18.3404 169.146 18.6328 168.71 19.0085 168.351L13.7578 156.864L20.2442 157.873L24.236 168.626C24.7972 169.297 25.0928 170.151 25.0667 171.025C25.0406 171.9 24.6945 172.734 24.0942 173.37C23.4939 174.007 22.6809 174.401 21.8094 174.478C20.9379 174.555 20.0682 174.31 19.3655 173.789Z" fill="#FFB8B8"/>
<path d="M20.4312 122.509L17.2497 122.156L9.11914 148.662L17.2497 167.04L23.6127 163.152L16.5427 147.955L22.1987 131.698L20.4312 122.509Z" fill="#682500"/>
<path d="M45.5292 125.69L47.2967 126.043L55.7808 167.393L50.1248 169.16L43.4082 144.774L45.5292 125.69Z" fill="#682500"/>
<path d="M28.4402 110.711C28.5573 109.858 28.8939 109.05 29.4171 108.366C29.9405 107.683 30.6324 107.147 31.4252 106.811C33.0965 106.126 34.9817 106.415 36.7832 106.546C38.5848 106.677 40.5904 106.563 41.8905 105.309C43.0781 104.164 43.3453 102.264 42.7717 100.717C42.1982 99.1696 40.8995 97.9691 39.4243 97.2299C37.9209 96.5404 36.31 96.1148 34.6624 95.9713C32.2547 95.6808 29.7823 95.6437 27.4356 96.2555C25.0889 96.868 25.694 98.1798 24.3188 100.177C22.9437 102.174 22.5317 104.895 23.5801 107.082C24.2817 108.545 25.5389 109.651 26.7631 110.717" fill="#3F3D56"/>
<path d="M222.648 206.505L222.647 205.843C223.965 205.842 225.303 205.815 226.623 205.762L226.65 206.424C225.32 206.478 223.974 206.505 222.648 206.505ZM218.647 206.429C217.322 206.377 215.978 206.298 214.651 206.193L214.704 205.533C216.021 205.637 217.357 205.715 218.673 205.766L218.647 206.429ZM230.645 206.184L230.592 205.524C231.907 205.419 233.238 205.285 234.548 205.127L234.628 205.785C233.309 205.944 231.969 206.078 230.645 206.184ZM210.669 205.798C209.347 205.64 208.014 205.453 206.705 205.243L206.81 204.589C208.11 204.798 209.435 204.983 210.747 205.14L210.669 205.798ZM238.59 205.225L238.485 204.572C239.784 204.362 241.1 204.121 242.396 203.858L242.527 204.506C241.223 204.772 239.899 205.014 238.59 205.225ZM202.766 204.529C201.462 204.265 200.148 203.971 198.86 203.656L199.018 203.012C200.298 203.326 201.602 203.617 202.898 203.879L202.766 204.529ZM246.433 203.629L246.274 202.986C247.557 202.67 248.85 202.324 250.114 201.958L250.299 202.594C249.025 202.963 247.725 203.312 246.433 203.629ZM194.993 202.625C193.715 202.256 192.429 201.857 191.17 201.438L191.38 200.81C192.63 201.226 193.907 201.622 195.176 201.989L194.993 202.625ZM254.12 201.403L253.91 200.775C255.161 200.357 256.421 199.907 257.655 199.438L257.89 200.058C256.648 200.53 255.38 200.982 254.12 201.403ZM187.389 200.094C186.146 199.623 184.893 199.119 183.666 198.596L183.926 197.987C185.145 198.506 186.389 199.007 187.623 199.473L187.389 200.094ZM261.592 198.566L261.332 197.956C262.544 197.439 263.76 196.89 264.947 196.326L265.232 196.924C264.037 197.492 262.812 198.045 261.592 198.566ZM180.009 196.951C178.805 196.379 177.598 195.776 176.422 195.158L176.73 194.572C177.898 195.185 179.097 195.784 180.293 196.352L180.009 196.951ZM268.804 195.137L268.495 194.551C269.663 193.936 270.832 193.291 271.97 192.633L272.302 193.206C271.156 193.869 269.979 194.519 268.804 195.137ZM172.911 193.222C171.756 192.555 170.603 191.857 169.483 191.148L169.838 190.588C170.95 191.293 172.096 191.986 173.243 192.649L172.911 193.222ZM275.72 191.136L275.366 190.576C276.477 189.872 277.591 189.135 278.677 188.384L279.054 188.929C277.96 189.685 276.839 190.427 275.72 191.136ZM166.142 188.937C165.046 188.18 163.953 187.391 162.893 186.594L163.291 186.065C164.344 186.857 165.43 187.64 166.518 188.392L166.142 188.937ZM282.298 186.59L281.899 186.061C282.949 185.27 284.001 184.446 285.026 183.609L285.445 184.122C284.414 184.965 283.355 185.795 282.298 186.59ZM159.741 184.123C158.712 183.282 157.686 182.41 156.692 181.529L157.131 181.033C158.119 181.908 159.138 182.776 160.16 183.61L159.741 184.123ZM288.492 181.53L288.052 181.035C289.039 180.16 290.023 179.253 290.974 178.34L291.433 178.818C290.476 179.737 289.486 180.65 288.492 181.53ZM153.749 178.815C152.793 177.897 151.841 176.945 150.918 175.986L151.396 175.527C152.313 176.48 153.259 177.426 154.208 178.337L153.749 178.815ZM294.264 175.989L293.786 175.529C294.7 174.579 295.607 173.597 296.485 172.609L296.98 173.048C296.097 174.043 295.184 175.032 294.264 175.989ZM148.204 173.048C147.32 172.052 146.447 171.027 145.609 170.002L146.122 169.583C146.955 170.601 147.821 171.619 148.699 172.607L148.204 173.048ZM299.577 170.001L299.064 169.582C299.901 168.559 300.728 167.506 301.52 166.454L302.05 166.852C301.252 167.912 300.42 168.971 299.577 170.001ZM143.139 166.857C142.34 165.797 141.552 164.706 140.798 163.616L141.342 163.239C142.093 164.322 142.875 165.405 143.668 166.459L143.139 166.857ZM304.395 163.605L303.85 163.228C304.602 162.14 305.342 161.024 306.048 159.911L306.608 160.266C305.897 161.386 305.153 162.51 304.395 163.605ZM138.588 160.285C137.879 159.165 137.181 158.016 136.516 156.868L137.089 156.536C137.75 157.676 138.443 158.817 139.148 159.93L138.588 160.285ZM308.686 156.839L308.112 156.507C308.776 155.361 309.423 154.188 310.037 153.022L310.623 153.331C310.006 154.505 309.353 155.686 308.686 156.839ZM134.583 153.371C133.966 152.199 133.364 150.998 132.793 149.801L133.392 149.516C133.958 150.705 134.556 151.898 135.17 153.062L134.583 153.371ZM312.418 149.746L311.819 149.461C312.387 148.268 312.938 147.047 313.457 145.83L314.066 146.09C313.544 147.315 312.989 148.545 312.418 149.746ZM131.149 146.163C130.628 144.943 130.125 143.698 129.655 142.463L130.274 142.227C130.741 143.454 131.24 144.691 131.759 145.902L131.149 146.163ZM315.566 142.369L314.946 142.134C315.416 140.895 315.867 139.632 316.285 138.38L316.913 138.589C316.493 139.85 316.039 141.121 315.566 142.369ZM128.307 138.694C127.885 137.435 127.484 136.149 127.114 134.875L127.75 134.69C128.118 135.957 128.517 137.233 128.936 138.484L128.307 138.694ZM318.103 134.768L317.466 134.584C317.831 133.32 318.177 132.028 318.492 130.744L319.135 130.902C318.818 132.194 318.47 133.496 318.103 134.768ZM126.077 131.01C125.758 129.719 125.462 128.407 125.197 127.106L125.846 126.974C126.109 128.265 126.403 129.57 126.72 130.851L126.077 131.01ZM320.011 126.997L319.361 126.866C319.623 125.575 319.862 124.26 320.073 122.956L320.728 123.061C320.516 124.374 320.275 125.698 320.011 126.997ZM124.475 123.17C124.263 121.862 124.074 120.529 123.914 119.208L124.572 119.129C124.73 120.441 124.918 121.764 125.129 123.063L124.475 123.17ZM321.285 119.097L320.626 119.019C320.784 117.707 320.917 116.376 321.021 115.064L321.682 115.116C321.577 116.438 321.443 117.777 321.285 119.097ZM123.512 115.227C123.405 113.904 123.323 112.56 123.27 111.233L123.932 111.206C123.985 112.524 124.066 113.859 124.173 115.174L123.512 115.227ZM321.92 111.122L321.258 111.096C321.31 109.776 321.337 108.439 321.337 107.122L321.336 106.903H321.999V107.12C321.999 108.448 321.972 109.793 321.92 111.122ZM123.848 107.232H123.186L123.186 107.12C123.186 105.828 123.211 104.519 123.26 103.232L123.923 103.257C123.874 104.537 123.848 105.837 123.848 107.122V107.232ZM321.248 102.929C321.194 101.613 321.112 100.278 321.003 98.9618L321.664 98.9079C321.773 100.234 321.856 101.577 321.911 102.901L321.248 102.929ZM124.155 99.2894L123.494 99.2376C123.599 97.9104 123.731 96.5713 123.888 95.2553L124.546 95.3337C124.39 96.6406 124.259 97.9713 124.155 99.2894ZM320.6 95.0075C320.441 93.7006 320.252 92.3769 320.038 91.0728L320.693 90.9657C320.907 92.2789 321.097 93.6117 321.258 94.927L320.6 95.0075ZM125.094 91.3969L124.44 91.2926C124.65 89.9801 124.89 88.6557 125.153 87.3544L125.802 87.4853C125.541 88.7782 125.303 90.0935 125.094 91.3969ZM319.317 87.164C319.051 85.869 318.756 84.5649 318.439 83.2874L319.082 83.1278C319.401 84.4137 319.699 85.7269 319.966 87.0303L319.317 87.164ZM126.667 83.6059L126.023 83.4491C126.338 82.1597 126.685 80.8584 127.052 79.5816L127.689 79.765C127.324 81.0327 126.98 82.3256 126.667 83.6059ZM317.405 79.4493C317.036 78.1837 316.635 76.9076 316.215 75.6567L316.843 75.446C317.267 76.7053 317.669 77.9898 318.04 79.2638L317.405 79.4493ZM128.866 75.9682L128.237 75.7589C128.657 74.4975 129.108 73.2256 129.58 71.9775L130.2 72.212C129.731 73.451 129.283 74.7152 128.866 75.9682ZM314.872 71.9152C314.401 70.6825 313.901 69.4468 313.383 68.2414L313.992 67.9804C314.513 69.1938 315.017 70.4382 315.492 71.6786L314.872 71.9152ZM131.685 68.5145L131.075 68.255C131.596 67.0309 132.149 65.8003 132.72 64.5977L133.319 64.8814C132.752 66.0761 132.202 67.2986 131.685 68.5145ZM311.747 64.6294C311.179 63.4418 310.58 62.2493 309.965 61.0851L310.551 60.7757C311.171 61.9478 311.774 63.1482 312.344 64.3441L311.747 64.6294ZM135.097 61.3184L134.511 61.0107C135.128 59.8336 135.779 58.6524 136.444 57.5L137.018 57.8312C136.357 58.976 135.711 60.1493 135.097 61.3184ZM308.041 57.6145C307.379 56.4739 306.685 55.3329 305.979 54.2227L306.538 53.8672C307.248 54.9848 307.947 56.1336 308.614 57.2816L308.041 57.6145ZM139.078 54.4254L138.518 54.0711C139.229 52.9474 139.972 51.8231 140.728 50.7294L141.273 51.1058C140.523 52.1922 139.785 53.309 139.078 54.4254ZM303.781 50.9156C303.029 49.8326 302.245 48.7502 301.451 47.6988L301.98 47.2996C302.779 48.3581 303.568 49.4476 304.325 50.5381L303.781 50.9156ZM143.599 47.8778L143.069 47.4799C143.868 46.4171 144.699 45.3566 145.539 44.3276L146.052 44.7465C145.217 45.7687 144.392 46.8222 143.599 47.8778ZM298.994 44.5768C298.158 43.5573 297.29 42.5406 296.414 41.5552L296.909 41.1149C297.791 42.107 298.665 43.1304 299.506 44.1569L298.994 44.5768ZM148.628 41.7165L148.132 41.2775C149.012 40.2837 149.925 39.2934 150.845 38.3342L151.323 38.7929C150.409 39.7456 149.503 40.7294 148.628 41.7165ZM293.713 38.6382C292.796 37.6869 291.849 36.7426 290.898 35.8313L291.356 35.3528C292.314 36.2703 293.267 37.221 294.191 38.1786L293.713 38.6382ZM154.133 35.9798L153.673 35.5022C154.629 34.5824 155.618 33.6687 156.611 32.7865L157.052 33.2818C156.065 34.1582 155.082 35.066 154.133 35.9798ZM287.973 33.1386C286.982 32.2633 285.962 31.3972 284.94 30.5647L285.359 30.0511C286.388 30.8893 287.415 31.761 288.411 32.6423L287.973 33.1386ZM160.076 30.7035L159.656 30.191C160.683 29.349 161.742 28.5178 162.8 27.72L163.199 28.2489C162.148 29.0414 161.096 29.8673 160.076 30.7035ZM281.806 28.1139C280.749 27.3206 279.662 26.5388 278.576 25.7902L278.953 25.2448C280.046 25.9984 281.14 26.7854 282.205 27.584L281.806 28.1139ZM166.418 25.9214L166.041 25.377C167.133 24.62 168.254 23.8765 169.372 23.1667L169.727 23.7261C168.617 24.431 167.503 25.1695 166.418 25.9214ZM275.255 23.5976C274.138 22.892 272.991 22.1999 271.847 21.5404L272.178 20.9665C273.33 21.6303 274.484 22.3272 275.609 23.0374L275.255 23.5976ZM173.121 21.666L172.788 21.0928C173.934 20.4284 175.11 19.7776 176.284 19.1585L176.593 19.7444C175.427 20.3594 174.259 21.0059 173.121 21.666ZM268.359 19.6216C267.188 19.0086 265.989 18.4109 264.793 17.8452L265.077 17.2464C266.28 17.8158 267.488 18.4175 268.666 19.0347L268.359 19.6216ZM180.139 17.9652L179.854 17.3671C181.049 16.7975 182.273 16.244 183.492 15.7218L183.753 16.3309C182.542 16.8494 181.326 17.3992 180.139 17.9652ZM261.159 16.2142C259.941 15.6971 258.696 15.1984 257.46 14.7315L257.694 14.1117C258.939 14.5816 260.192 15.0838 261.418 15.6044L261.159 16.2142ZM187.429 14.8443L187.192 14.2251C188.433 13.7524 189.7 13.2985 190.961 12.8759L191.171 13.5041C189.919 13.9238 188.66 14.3748 187.429 14.8443ZM253.702 13.4C252.45 12.9847 251.171 12.5896 249.904 12.2254L250.086 11.5888C251.363 11.9553 252.649 12.353 253.91 12.771L253.702 13.4ZM194.966 12.3165L194.781 11.6805C196.056 11.3098 197.355 10.96 198.646 10.6408L198.805 11.284C197.523 11.601 196.232 11.9485 194.966 12.3165ZM246.061 11.206C244.781 10.894 243.476 10.6037 242.18 10.3431L242.311 9.69345C243.615 9.95581 244.93 10.2483 246.218 10.5622L246.061 11.206ZM202.683 10.4084L202.55 9.75939C203.849 9.49346 205.174 9.25021 206.486 9.03622L206.593 9.69002C205.289 9.90275 203.973 10.1444 202.683 10.4084ZM238.267 9.6378C236.964 9.43011 235.639 9.24601 234.329 9.09103L234.407 8.43303C235.726 8.58913 237.059 8.77435 238.371 8.98365L238.267 9.6378ZM210.529 9.13002L210.449 8.4723C211.767 8.31186 213.107 8.17578 214.431 8.0684L214.484 8.72871C213.169 8.8356 211.838 8.97056 210.529 9.13002ZM230.372 8.70281C229.059 8.6004 227.724 8.52312 226.403 8.47314L226.429 7.81087C227.757 7.86134 229.102 7.93918 230.424 8.04222L230.372 8.70281ZM218.453 8.48588L218.426 7.82403C219.751 7.76936 221.097 7.74052 222.427 7.73828L222.428 8.40083C221.107 8.40307 219.769 8.4317 218.453 8.48588Z" fill="#CCCCCC"/>
<path d="M187.491 169.145C222.81 169.145 251.442 140.52 251.442 105.208C251.442 69.8969 222.81 41.2715 187.491 41.2715C152.171 41.2715 123.539 69.8969 123.539 105.208C123.539 140.52 152.171 169.145 187.491 169.145Z" fill="#3F3D56"/>
<path d="M164.794 151.918C183.552 151.918 198.758 131.006 198.758 105.208C198.758 79.411 183.552 58.498 164.794 58.498C146.036 58.498 130.83 79.411 130.83 105.208C130.83 131.006 146.036 151.918 164.794 151.918Z" fill="white"/>
<path d="M153.533 130.011C158.769 130.011 163.012 123.336 163.012 115.103C163.012 106.87 158.769 100.196 153.533 100.196C148.299 100.196 144.055 106.87 144.055 115.103C144.055 123.336 148.299 130.011 153.533 130.011Z" fill="#3F3D56"/>
<path d="M313.138 75.7954C316.614 75.7954 319.433 72.9772 319.433 69.5009C319.433 66.0246 316.614 63.2065 313.138 63.2065C309.66 63.2065 306.842 66.0246 306.842 69.5009C306.842 72.9772 309.66 75.7954 313.138 75.7954Z" fill="#F39242"/>
<path d="M240.413 18.5516C245.537 18.5516 249.691 14.3987 249.691 9.27577C249.691 4.15292 245.537 0 240.413 0C235.289 0 231.135 4.15292 231.135 9.27577C231.135 14.3987 235.289 18.5516 240.413 18.5516Z" fill="#F39242"/>
<path d="M234.268 211.755C237.745 211.755 240.564 208.937 240.564 205.46C240.564 201.984 237.745 199.166 234.268 199.166C230.792 199.166 227.973 201.984 227.973 205.46C227.973 208.937 230.792 211.755 234.268 211.755Z" fill="#F39242"/>
</svg>
