<svg width="285" height="285" viewBox="0 0 285 285" fill="none" xmlns="http://www.w3.org/2000/svg">
<path opacity="0.25" d="M0.811768 34.5809C0.811768 15.6213 16.1815 0.251587 35.1411 0.251587H250.587C269.547 0.251587 284.916 15.6213 284.916 34.5809V250.027C284.916 268.987 269.547 284.356 250.587 284.356H35.1411C16.1815 284.356 0.811768 268.987 0.811768 250.027V34.5809Z" fill="white"/>
<path d="M34.3586 173.601C34.3586 170.986 36.4786 168.866 39.0937 168.866H121.003C123.618 168.866 125.738 170.986 125.738 173.601V250.946C125.738 253.561 123.618 255.681 121.003 255.681H39.0937C36.4786 255.681 34.3586 253.561 34.3586 250.946V173.601Z" fill="url(#paint0_linear)"/>
<path fill-rule="evenodd" clip-rule="evenodd" d="M199.945 129.506L199.945 168.871L196.394 168.871L196.394 129.506C196.394 128.525 197.189 127.73 198.17 127.73C199.15 127.73 199.945 128.525 199.945 129.506Z" fill="white"/>
<path d="M196.914 213.529C197.608 214.222 198.732 214.222 199.425 213.529L210.726 202.228C211.419 201.535 211.419 200.411 210.726 199.717C210.032 199.024 208.908 199.024 208.214 199.717L199.945 207.986V168.866H244.859C247.474 168.866 249.594 170.986 249.594 173.601V250.946C249.594 253.561 247.474 255.681 244.859 255.681H162.95C160.335 255.681 158.215 253.561 158.215 250.946V173.601C158.215 170.986 160.335 168.866 162.95 168.866H196.394V207.986L188.125 199.717C187.432 199.024 186.307 199.024 185.614 199.717C184.921 200.411 184.921 201.535 185.614 202.228L196.914 213.529Z" fill="url(#paint1_linear)"/>
<path fill-rule="evenodd" clip-rule="evenodd" d="M144.973 50.0943L148.522 50.0126C148.611 51.9486 149.746 54.0118 152.186 56.0903C154.618 58.1626 158.187 60.1021 162.714 61.7632C171.756 65.081 184.275 67.1621 198.17 67.1621C212.064 67.1621 224.583 65.081 233.626 61.7632C238.153 60.1021 241.721 58.1626 244.154 56.0903C246.594 54.0118 247.728 51.9486 247.817 50.0126L251.367 50.0943V110.326C251.367 110.326 251.367 110.333 251.367 110.341C251.368 110.397 251.371 110.6 251.365 110.734L251.365 110.744C251.214 114.027 249.313 116.929 246.457 119.362C243.593 121.801 239.605 123.92 234.849 125.665C225.325 129.16 212.374 131.282 198.17 131.282C183.966 131.282 171.014 129.16 161.49 125.665C156.734 123.92 152.746 121.801 149.883 119.362C147.026 116.929 145.126 114.027 144.975 110.744L144.974 110.734C144.969 110.6 144.972 110.397 144.972 110.341C144.973 110.333 144.973 110.326 144.973 110.326V50.0943ZM148.524 57.5242V110.326C148.524 110.435 148.523 110.484 148.522 110.515C148.522 110.543 148.521 110.556 148.522 110.587C148.613 112.521 149.748 114.582 152.186 116.659C154.618 118.731 158.187 120.67 162.714 122.332C171.756 125.649 184.275 127.73 198.17 127.73C212.064 127.73 224.583 125.649 233.626 122.332C238.153 120.67 241.721 118.731 244.154 116.659C246.594 114.58 247.728 112.517 247.817 110.581C247.818 110.554 247.818 110.541 247.817 110.515C247.817 110.484 247.815 110.435 247.815 110.326V57.5241C247.392 57.9603 246.938 58.3837 246.457 58.7937C243.593 61.233 239.605 63.3521 234.849 65.0971C225.325 68.5917 212.374 70.7134 198.17 70.7134C183.966 70.7134 171.014 68.5917 161.49 65.0971C156.734 63.3521 152.746 61.233 149.883 58.7937C149.401 58.3837 148.947 57.9603 148.524 57.5242Z" fill="white"/>
<path fill-rule="evenodd" clip-rule="evenodd" d="M151.961 43.7209C149.576 45.8184 148.523 47.889 148.523 49.8348C148.523 51.7807 149.576 53.8513 151.961 55.9487C154.342 58.0435 157.89 60.011 162.428 61.6991C171.489 65.0704 184.125 67.1914 198.17 67.1914C212.215 67.1914 224.852 65.0704 233.913 61.6991C238.45 60.011 241.998 58.0435 244.38 55.9487C246.764 53.8513 247.818 51.7807 247.818 49.8348C247.818 47.889 246.764 45.8184 244.38 43.7209C241.998 41.6261 238.45 39.6586 233.913 37.9705C224.852 34.5993 212.215 32.4783 198.17 32.4783C184.125 32.4783 171.489 34.5993 162.428 37.9705C157.89 39.6586 154.342 41.6261 151.961 43.7209ZM161.189 34.6421C170.74 31.0888 183.815 28.9269 198.17 28.9269C212.526 28.9269 225.601 31.0888 235.151 34.6421C239.92 36.4162 243.902 38.5714 246.725 41.0544C249.545 43.5349 251.369 46.4974 251.369 49.8348C251.369 53.1722 249.545 56.1347 246.725 58.6152C243.902 61.0983 239.92 63.2534 235.151 65.0276C225.601 68.5808 212.526 70.7427 198.17 70.7427C183.815 70.7427 170.74 68.5808 161.189 65.0276C156.421 63.2534 152.438 61.0983 149.615 58.6152C146.795 56.1347 144.971 53.1722 144.971 49.8348C144.971 46.4974 146.795 43.5349 149.615 41.0544C152.438 38.5714 156.421 36.4162 161.189 34.6421Z" fill="white"/>
<path fill-rule="evenodd" clip-rule="evenodd" d="M94.1247 205.121L94.1247 141.863L97.676 141.863L97.676 205.121C97.676 206.101 96.881 206.896 95.9004 206.896C94.9197 206.896 94.1247 206.101 94.1247 205.121Z" fill="white"/>
<path d="M97.6758 141.888H131.402C149.737 141.888 164.597 126.947 164.597 108.517C164.597 90.0879 149.737 75.1466 131.402 75.1466C130.005 75.1466 128.623 75.2321 127.269 75.4013C120.06 67.5077 109.709 62.5613 98.2073 62.5613C82.6595 62.5613 69.2107 71.6028 62.7831 84.7357C47.0833 84.7357 34.3584 97.5303 34.3584 113.312C34.3584 129.094 47.0833 141.888 62.7831 141.888H94.1245L94.1245 111.153L85.8555 119.422C85.1621 120.115 84.0378 120.115 83.3443 119.422C82.6509 118.729 82.6509 117.604 83.3443 116.911L94.6445 105.611C95.338 104.917 96.4622 104.917 97.1557 105.611L108.456 116.911C109.149 117.604 109.149 118.729 108.456 119.422C107.762 120.115 106.638 120.115 105.945 119.422L97.6758 111.153L97.6758 141.888Z" fill="white"/>
<defs>
<linearGradient id="paint0_linear" x1="34.3586" y1="221.096" x2="125.738" y2="221.035" gradientUnits="userSpaceOnUse">
<stop stop-color="#F39242"/>
<stop offset="1" stop-color="#E9700D"/>
</linearGradient>
<linearGradient id="paint1_linear" x1="158.215" y1="221.096" x2="249.595" y2="221.035" gradientUnits="userSpaceOnUse">
<stop stop-color="#F39242"/>
<stop offset="1" stop-color="#E9700D"/>
</linearGradient>
</defs>
</svg>
