<svg width="1181" height="558" viewBox="0 0 1181 558" fill="none" xmlns="http://www.w3.org/2000/svg">
<path d="M619.461 307.129L619.097 415.009L636.734 397.361L676.015 436.574L705.654 466.18L707.507 468.031L708.442 468.963L709.609 470.081L714.294 474.547C717.372 477.562 720.639 480.397 723.941 483.199L728.885 487.397L734.013 491.388L739.161 495.352L744.485 499.083C772.916 518.963 805.357 533.139 839.197 540.547C873.041 547.996 908.264 548.756 942.386 542.788C918.936 529.367 899.091 513.045 883.403 494.745C901.19 478.686 915.046 460.166 924.627 441.065C903.729 444.72 882.066 444.252 861.36 439.69C840.643 435.147 820.927 426.523 803.58 414.4L800.311 412.142L797.179 409.696L794.027 407.271L791.006 404.674C788.978 402.96 786.953 401.241 785.064 399.347L782.158 396.594L781.426 395.911L780.504 394.992L778.651 393.139L749.015 363.533L709.731 324.32L727.368 306.673L619.461 307.129Z" fill="#8500AC"/>
<path d="M488.84 479.894L488.572 458.305L678.83 268.263L682.173 286.78L599.182 369.675L488.84 479.894ZM477.143 407.665L415.864 406.831L426.517 396.19L477.009 396.876L477.143 407.665ZM660.198 286.873L715.029 232.105L725.958 243.044L682.173 286.78L660.198 286.873ZM743.597 260.691L732.663 249.746L732.348 152.752L743.247 152.801L743.597 260.691Z" fill="#121F2E"/>
<path d="M779.763 189.304L779.536 171.288C779.504 170.12 779.501 168.918 779.493 167.718L779.944 167.269L781.715 165.517L783.172 164.148C786.991 160.406 791.001 156.918 795.128 153.586C803.408 146.957 812.313 141.165 821.7 136.302C840.471 126.568 861.218 120.593 882.381 118.783C887.038 118.381 891.718 118.182 896.392 118.182C912.957 118.182 929.514 120.694 945.27 125.641C965.489 131.964 984.345 142.274 1000.63 155.893L999.275 157.511C986.05 148.441 971.519 141.364 956.204 136.572C940.448 131.628 923.888 129.115 907.326 129.115C902.649 129.115 897.972 129.315 893.314 129.717C872.149 131.526 851.405 137.502 832.637 147.236C823.247 152.099 814.342 157.891 806.062 164.519C801.934 167.852 797.924 171.339 794.106 175.082L792.649 176.451L790.878 178.2L787.174 181.902L779.763 189.304ZM995.557 185.966L1009.39 169.418C1017.28 168.283 1025.42 167.701 1033.72 167.701C1049.45 167.701 1065.8 169.787 1082.38 174.158C1090.36 144.948 1092.35 111.539 1086.76 76.8843L1093.8 68.4597C1103.81 109.959 1102.77 150.475 1093.31 185.094C1076.74 180.721 1060.38 178.635 1044.66 178.635C1027.33 178.635 1010.77 181.169 995.557 185.966ZM768.512 117.455C761.217 116.686 753.738 116.26 746.166 116.26C745.3 116.26 744.43 116.265 743.564 116.276C740.393 116.315 737.184 116.402 733.931 116.533C732.969 116.577 732.045 116.593 731.143 116.593C730.069 116.593 729.027 116.572 727.983 116.55C726.944 116.528 725.906 116.506 724.837 116.506C724.818 116.506 724.801 116.506 724.785 116.506L706.766 116.263L714.176 108.863L717.418 105.624C718.342 105.64 719.269 105.66 720.217 105.66C721.117 105.66 722.038 105.643 722.997 105.599C726.25 105.468 729.459 105.381 732.63 105.342C733.496 105.332 734.366 105.326 735.232 105.326C747.011 105.326 758.576 106.362 769.548 108.098C769.136 111.241 768.788 114.36 768.512 117.455Z" fill="#121F2E"/>
<path d="M1054.09 543.054C1011.42 538.448 973.725 523.646 944.441 502.861C945.045 501.994 945.641 501.128 946.229 500.256C973.391 516.637 1006.43 528.156 1043.16 532.12L1030.57 510.58C1060.59 493.028 1086.83 469.682 1107.87 442.191C1128.95 414.673 1144.56 382.875 1153.44 349.379C1162.36 315.883 1164.64 280.711 1160.16 246.376C1156.6 218.836 1148.66 191.819 1136.71 166.676C1137.2 164.26 1137.66 161.824 1138.08 159.364C1155.41 189.454 1166.65 222.978 1171.1 257.31C1175.57 291.645 1173.29 326.817 1164.37 360.313C1155.5 393.809 1139.89 425.607 1118.81 453.125C1097.76 480.616 1071.52 503.962 1041.5 521.514L1054.09 543.054ZM978.462 421.425L976.387 417.874C976.584 415.512 976.726 413.162 976.808 410.819L981.827 419.405C980.712 420.094 979.591 420.766 978.462 421.425Z" fill="#121F2E"/>
<path d="M106.665 382.722C75.1864 371.463 43.8903 351.208 16.8855 322.542C41.2402 345.476 68.418 362.019 95.7312 371.788C105.65 344.737 120.696 321.908 138.632 304.463C138.655 304.766 138.68 305.072 138.705 305.375L163.569 303.306C139.496 321.659 119.07 348.89 106.665 382.722ZM127.772 294.442C126.007 273.279 128.412 251.761 134.817 231.58C141.202 211.38 151.57 192.557 165.24 176.317C178.947 160.007 195.768 146.369 214.492 136.6C233.222 126.784 253.944 120.724 275.101 118.83C274.645 118.318 274.188 117.81 273.726 117.302C278.1 121.301 282.206 125.461 286.035 129.763C264.878 131.658 244.156 137.718 225.426 147.534C206.702 157.3 189.88 170.941 176.175 187.251C162.504 203.491 152.136 222.311 145.751 242.514C140.534 258.953 137.97 276.278 138.152 293.578L127.772 294.442ZM234.132 84.9345C230.013 82.4197 225.749 80.0224 221.342 77.7537C229.217 61.4102 239.654 45.3101 252.569 30.2131C260.57 28.7452 268.637 27.6436 276.731 26.9193C258.681 44.8098 244.426 64.6385 234.132 84.9345Z" fill="#121F2E"/>
<path d="M300.848 557.721C269.757 557.721 238.658 552.263 209.394 541.553C176.802 529.681 146.56 511.211 121.097 487.818C116.282 483.42 111.625 478.836 107.141 474.08C108.142 475.023 109.147 475.958 110.163 476.884C135.627 500.277 165.868 518.745 198.46 530.619C227.724 541.329 258.823 546.788 289.911 546.788C293.434 546.788 296.958 546.719 300.479 546.577C335.062 545.229 369.419 537.07 400.961 522.558L406.994 535.687C376.811 548.827 344.214 556.232 311.412 557.511C307.892 557.653 304.371 557.721 300.848 557.721ZM422.312 556.161L414.552 539.27C431.141 507.133 439.697 473.992 441.195 442.987C444.877 443.211 448.605 443.331 452.367 443.347C452.492 479.202 443.007 518.51 422.312 556.161ZM180.238 401.036C180.154 400.959 180.069 400.88 179.985 400.804C168.647 390.452 158.864 378.581 150.935 365.607C151.743 363.992 152.572 362.396 153.423 360.824C160.259 375.451 169.316 389.022 180.238 401.036Z" fill="#121F2E"/>
<path d="M907.432 557.697C888.192 557.697 868.942 555.622 850.131 551.481C816.29 544.073 783.849 529.897 755.419 510.017L750.094 506.286L744.947 502.322L739.819 498.331L734.874 494.133C731.572 491.331 728.308 488.496 725.227 485.481L720.542 481.015L719.375 479.897L718.44 478.965L716.587 477.114L686.948 447.508L645.667 402.295L622.031 421.943L622.104 399.996L634.733 391.361L676.014 436.574L705.653 466.18L707.506 468.031L708.441 468.963L709.608 470.081L714.293 474.547C717.371 477.562 720.638 480.397 723.94 483.199L728.885 487.397L734.013 491.388L739.16 495.352L744.485 499.083C772.916 518.964 805.356 533.139 839.197 540.547C858.009 544.688 877.255 546.763 896.496 546.763C910.108 546.763 923.716 545.724 937.175 543.647C942.347 547.162 947.732 550.524 953.319 553.722C938.168 556.374 922.803 557.697 907.432 557.697ZM899.505 511.474C893.732 506.114 888.361 500.529 883.402 494.745C897.097 482.381 908.46 468.558 917.339 454.131C923.448 453.762 929.538 453.051 935.56 451.999C925.979 471.1 912.123 489.62 894.336 505.679C896.012 507.633 897.734 509.566 899.505 511.474ZM712.67 331.249L701.73 320.32L708.348 313.7L730.301 313.607L712.67 331.249Z" fill="#121F2E"/>
<path d="M520.105 280.853L455.333 216.158L425.691 186.554C425.106 185.964 424.535 185.387 423.972 184.824L444.399 205.226L520.111 280.848L520.105 280.853ZM418.855 179.709C411.805 172.734 406.521 167.86 399.808 162.713C383.022 149.778 363.751 140.241 343.28 134.741L336.793 158.834C334.606 151.847 331.845 144.874 328.527 137.997L332.346 123.807C352.817 129.307 372.088 138.844 388.874 151.782C397.583 158.457 403.889 164.675 414.757 175.62L418.855 179.709ZM288.446 84.5491C286.158 82.4388 283.805 80.3695 281.383 78.3413C281.544 78.1472 281.703 77.9532 281.864 77.7591C284.133 79.9841 286.325 82.2502 288.446 84.5491ZM372.038 27.8978C367.788 26.5202 363.502 25.2518 359.186 24.0928L360.9 17.7239C365.997 15.3184 371.232 13.0523 376.603 10.9339L372.038 27.8978Z" fill="#121F2E"/>
<path d="M530.802 310.263L493.802 252.263L524.302 207.263L585.802 223.763L612.302 236.263L524.302 244.263L530.802 310.263Z" fill="black" stroke="black"/>
<path d="M1082.38 174.158C1091.84 139.541 1092.88 99.0255 1082.86 57.5259L1066.86 76.6684C1040.31 54.4398 1009.23 37.4321 976.133 27.0969C943.042 16.7151 907.993 12.9211 873.505 15.9006C839.014 18.8527 805.053 28.614 774.225 44.5993C758.816 52.5783 744.195 62.0881 730.67 72.9072C723.924 78.3331 717.404 84.0351 711.238 90.0597L708.9 92.2957L706.946 94.2283L703.242 97.9294L695.832 105.329L713.851 105.572C714.939 105.572 715.997 105.594 717.052 105.616C718.971 105.654 720.887 105.695 722.997 105.6C726.25 105.468 729.459 105.381 732.63 105.343C745.305 105.176 757.77 106.234 769.548 108.098C767.974 120.095 767.359 131.682 767.878 143.07C768.006 145.915 768.179 148.72 768.395 151.475C768.619 154.214 768.52 157.41 768.602 160.354L768.829 178.37L776.24 170.968L779.943 167.269L781.715 165.517L783.172 164.148C786.99 160.406 791 156.918 795.128 153.586C803.408 146.957 812.313 141.165 821.7 136.302C840.471 126.568 861.218 120.593 882.38 118.783C903.537 116.954 925.066 119.297 945.269 125.641C965.489 131.964 984.344 142.275 1000.63 155.893L984.623 175.032C1013.64 165.881 1047.54 164.965 1082.38 174.158Z" fill="#8500AC"/>
<path d="M933.508 491.927C962.791 512.709 1000.48 527.517 1043.16 532.12L1030.57 510.58C1060.59 493.028 1086.83 469.682 1107.87 442.191C1128.95 414.673 1144.56 382.875 1153.44 349.379C1162.36 315.883 1164.64 280.711 1160.16 246.376C1155.72 212.044 1144.47 178.52 1127.15 148.43C1122.57 175.101 1113.88 199.382 1102.11 220.302C1080.85 209.056 1058.82 202.326 1037.61 199.885C1048.16 218.205 1055.04 238.649 1057.76 259.705C1060.51 280.752 1059.1 302.369 1053.64 322.842C1048.2 343.332 1038.73 362.633 1025.85 379.458C1012.96 396.31 996.686 410.797 978.462 421.425L965.875 399.885C964.814 430.109 954.104 462.389 933.508 491.927Z" fill="#8500AC"/>
<path d="M95.7312 371.788C108.138 337.956 128.562 310.725 152.636 292.372L127.772 294.441C126.007 273.279 128.412 251.761 134.817 231.58C141.202 211.379 151.57 192.557 165.24 176.317C178.947 160.007 195.768 146.369 214.492 136.6C233.222 126.784 253.944 120.724 275.101 118.829C260.855 102.817 242.745 88.7749 221.342 77.7536C231.749 56.1537 246.638 34.9775 265.797 15.9853C231.319 19.0741 197.391 28.9775 166.633 45.0941C135.822 61.186 108.438 83.3983 86.2176 109.842C63.9086 136.318 46.802 167.349 36.368 200.413C25.8857 233.471 21.9861 268.509 24.8639 303.005L0 305.075C28.3021 337.209 61.9121 359.692 95.7312 371.788Z" fill="#A4A8FF"/>
<path d="M441.433 432.414C405.356 432.26 372.76 422.477 347.429 406.055L357.846 428.723C338.635 437.566 317.609 442.568 296.378 443.397C275.153 444.241 253.772 440.906 233.899 433.63C214.008 426.37 195.669 415.187 179.985 400.804C164.207 386.401 151.443 369.049 142.489 349.89C132.334 368.653 125.249 390.523 122.249 414.397C98.3682 412.025 73.4529 405.243 48.9724 393.688C63.6659 425.145 84.6923 453.617 110.163 476.884C135.627 500.277 165.868 518.745 198.46 530.619C231.043 542.545 265.895 547.957 300.478 546.577C335.062 545.229 369.419 537.07 400.961 522.558L411.378 545.227C432.073 507.576 441.559 468.269 441.433 432.414Z" fill="#A4A8FF"/>
<path d="M270.449 67.4074C298.016 90.4943 316.828 119.04 325.859 147.9L332.346 123.807C352.816 129.307 372.087 138.844 388.874 151.782C397.583 158.457 403.889 164.675 414.757 175.62L444.399 205.226L542.96 303.649L543.868 231.581L615.958 230.61L517.396 132.185L487.757 102.579C482.681 97.5468 478.444 93.1404 471.619 86.7413C468.541 83.7236 465.236 80.9272 461.95 78.1117C458.708 75.2443 455.297 72.5792 451.856 69.9468C424.409 48.7788 392.657 33.0723 359.185 24.0928L365.669 0C325.793 15.7257 293.35 39.6463 270.449 67.4074Z" fill="#A4A8FF"/>
<path d="M389.727 59.4061C392.716 61.9205 394.423 64.6731 394.848 67.6639C395.294 70.6528 394.471 73.3909 392.38 75.8781C390.277 78.3772 387.721 79.6569 384.71 79.7172C381.71 79.7875 378.716 78.5655 375.727 76.0511L371.314 72.3398L366.441 78.1333L368.787 81.0249L366.147 84.1637L355.331 75.0666L357.971 71.9278L361.204 73.7281L376.969 54.9845L374.642 52.108L377.297 48.9512L380.077 51.2896L389.727 59.4061ZM374.709 68.3041L379.121 72.0154C380.58 73.2424 382.012 73.7731 383.417 73.6075C384.844 73.4399 386.076 72.7404 387.112 71.5087C388.168 70.2532 388.661 68.902 388.592 67.4553C388.544 66.0066 387.791 64.6688 386.333 63.4418L381.92 59.7305L374.709 68.3041ZM382.275 92.3699L385.239 93.9439L395.362 81.9085L393.034 79.032L395.69 75.8752L403.348 82.3171L401.198 85.3472C402.497 84.7249 403.742 84.4345 404.932 84.476C406.122 84.5174 407.19 84.9354 408.134 85.73C408.409 85.9613 408.676 86.2266 408.935 86.5259C409.216 86.8232 409.432 87.0873 409.585 87.3181L405.016 91.6215L402.909 89.7573C402.144 89.1136 401.384 88.73 400.631 88.6066C399.877 88.4831 399.137 88.5857 398.412 88.9145L390.476 98.3491L392.535 100.999L389.895 104.138L379.635 95.5087L382.275 92.3699ZM402.656 97.9966C405.09 95.1029 407.888 93.4141 411.051 92.9304C414.236 92.4448 417.258 93.4039 420.116 95.8077C422.986 98.2215 424.453 101.028 424.519 104.227C424.596 107.437 423.413 110.494 420.969 113.4L420.652 113.777C418.198 116.694 415.383 118.39 412.208 118.863C409.055 119.335 406.056 118.374 403.21 115.981C400.328 113.557 398.843 110.746 398.756 107.549C398.69 104.349 399.885 101.291 402.339 98.3733L402.656 97.9966ZM407.576 102.779C406.088 104.548 405.202 106.233 404.918 107.832C404.645 109.419 405.202 110.796 406.589 111.963C407.94 113.099 409.379 113.391 410.906 112.838C412.445 112.295 413.954 111.144 415.432 109.386L415.749 109.01C417.197 107.288 418.062 105.616 418.344 103.995C418.625 102.374 418.084 100.99 416.721 99.8434C415.358 98.6968 413.908 98.4061 412.371 98.9713C410.834 99.5364 409.341 100.68 407.893 102.402L407.576 102.779ZM436.548 115.632L434.432 114.434L429.695 125.272L428.497 127.388L428.605 127.479L430.52 125.966L440.336 119.43L438.772 117.502L441.427 114.346L450.234 121.753L447.579 124.91L445.667 123.761L426.503 134.93L421.499 130.72L429.201 109.911L427.741 108.224L430.397 105.067L439.203 112.475L436.548 115.632ZM438.075 139.304L441.057 140.893L451.18 128.857L448.835 125.966L451.49 122.809L459.525 129.568L446.295 145.298L448.353 147.948L445.713 151.087L435.435 142.443L438.075 139.304ZM463.433 124.922L458.195 120.517L461.499 116.589L466.737 120.994L463.433 124.922ZM473.984 153.122L470.469 150.165L471.949 147.276C471.832 146.687 471.579 146.066 471.189 145.412C470.812 144.768 470.295 144.169 469.637 143.616C468.716 142.842 467.811 142.437 466.921 142.403C466.041 142.357 465.339 142.645 464.816 143.267C464.324 143.853 464.168 144.559 464.351 145.387C464.543 146.202 465.285 147.407 466.576 149.004C468.577 151.504 469.765 153.708 470.141 155.616C470.526 157.512 470.035 159.274 468.667 160.9C467.199 162.646 465.243 163.441 462.801 163.286C460.381 163.129 457.946 162.019 455.494 159.957C454 158.7 452.806 157.328 451.912 155.842C451.041 154.353 450.463 152.795 450.178 151.168L453.79 146.764L457.449 149.841L456.039 152.974C456.129 153.498 456.388 154.053 456.815 154.637C457.253 155.209 457.764 155.742 458.35 156.234C459.414 157.129 460.382 157.617 461.254 157.697C462.138 157.787 462.857 157.503 463.41 156.846C463.893 156.272 464.029 155.539 463.819 154.648C463.609 153.757 462.887 152.516 461.651 150.926C459.76 148.538 458.61 146.398 458.203 144.503C457.817 142.607 458.288 140.869 459.616 139.291C460.984 137.665 462.83 136.829 465.155 136.784C467.49 136.726 469.895 137.739 472.37 139.82C473.877 141.088 475.129 142.488 476.126 144.021C477.136 145.564 477.756 146.974 477.989 148.252L473.984 153.122ZM468.819 165.162L471.8 166.751L481.923 154.716L479.578 151.824L482.233 148.667L490.268 155.426L477.038 171.156L479.096 173.806L476.456 176.945L466.178 168.301L468.819 165.162ZM494.176 150.78L488.938 146.375L492.242 142.447L497.48 146.852L494.176 150.78ZM486.491 168.511C488.924 165.617 491.723 163.928 494.886 163.444C498.071 162.959 501.093 163.918 503.951 166.322C506.821 168.735 508.288 171.542 508.354 174.741C508.431 177.951 507.248 181.008 504.804 183.914L504.487 184.29C502.033 187.208 499.218 188.904 496.043 189.377C492.89 189.849 489.89 188.888 487.045 186.494C484.163 184.071 482.678 181.26 482.591 178.063C482.525 174.863 483.72 171.805 486.174 168.887L486.491 168.511ZM491.411 173.292C489.923 175.062 489.037 176.747 488.753 178.346C488.48 179.933 489.037 181.31 490.424 182.477C491.775 183.613 493.214 183.905 494.741 183.352C496.28 182.809 497.789 181.658 499.267 179.9L499.584 179.524C501.032 177.802 501.897 176.13 502.179 174.509C502.46 172.888 501.919 171.504 500.556 170.357C499.193 169.211 497.743 168.92 496.206 169.485C494.669 170.05 493.176 171.194 491.728 172.916L491.411 173.292ZM501.122 192.332L504.086 193.906L514.209 181.871L511.881 178.995L514.536 175.838L522.195 182.28L520.09 185.256C521.571 184.807 523.014 184.704 524.422 184.949C525.829 185.193 527.119 185.808 528.291 186.794C530.252 188.443 531.264 190.347 531.328 192.503C531.393 194.66 530.318 197.054 528.106 199.685L521 208.133L523.058 210.783L520.418 213.922L510.41 205.504L513.05 202.365L515.744 203.713L522.835 195.283C523.931 193.979 524.443 192.837 524.369 191.857C524.306 190.864 523.742 189.92 522.678 189.025C521.984 188.442 521.242 188.062 520.45 187.886C519.669 187.699 518.877 187.706 518.073 187.909L509.323 198.312L510.987 200.63L508.347 203.769L498.482 195.471L501.122 192.332Z" fill="black"/>
<path d="M732.313 141.867L624.422 141.394L642.053 159.044L404.93 395.897L477.009 396.876L477.905 468.96L715.029 232.105L732.662 249.757L732.313 141.867Z" fill="#613DC1"/>
<path d="M67.6732 246.167L63.64 245.301L66.6052 231.483L70.6384 232.348L70.5588 236.071L94.5058 241.209L95.9604 237.782L99.9707 238.643L97.0054 252.461L92.9952 251.6L93.0748 247.878L69.1278 242.739L67.6732 246.167Z" fill="black"/>
<path d="M97.5375 230.441L97.912 227.106L82.9983 222.115L81.1787 225.337L77.2669 224.028L80.4427 214.538L83.9845 215.402C83.0224 214.19 82.3964 212.885 82.1065 211.486C81.8166 210.087 81.9146 208.662 82.4006 207.21C83.2137 204.78 84.6115 203.139 86.5939 202.286C88.5762 201.434 91.1973 201.553 94.4572 202.644L104.926 206.147L106.634 203.258L110.523 204.56L106.373 216.962L102.484 215.66L102.746 212.659L92.3002 209.163C90.6851 208.623 89.435 208.567 88.5501 208.996C87.6503 209.42 86.9798 210.291 86.5385 211.61C86.2509 212.469 86.1709 213.299 86.2984 214.1C86.4111 214.896 86.7092 215.63 87.1926 216.302L100.084 220.616L101.628 218.216L105.518 219.518L101.427 231.742L97.5375 230.441Z" fill="black"/>
<path d="M107.362 172.289L105.365 176.426L102.199 175.705C101.658 175.964 101.118 176.362 100.581 176.901C100.05 177.425 99.5976 178.075 99.2239 178.848C98.7007 179.932 98.5325 180.909 98.7193 181.78C98.8919 182.644 99.3441 183.253 100.076 183.606C100.765 183.939 101.488 183.915 102.245 183.534C102.987 183.147 103.972 182.13 105.201 180.485C107.129 177.929 108.972 176.233 110.728 175.398C112.471 174.556 114.299 174.598 116.212 175.522C118.266 176.513 119.52 178.212 119.972 180.617C120.418 183 119.944 185.635 118.551 188.519C117.702 190.278 116.667 191.774 115.447 193.007C114.22 194.219 112.853 195.163 111.346 195.841L106.186 193.428L108.265 189.122L111.649 189.715C112.135 189.499 112.609 189.111 113.069 188.553C113.516 187.988 113.905 187.36 114.238 186.671C114.843 185.419 115.076 184.36 114.939 183.495C114.808 182.617 114.355 181.99 113.581 181.617C112.906 181.291 112.162 181.339 111.351 181.763C110.539 182.186 109.515 183.193 108.279 184.782C106.432 187.205 104.642 188.847 102.906 189.71C101.164 190.552 99.3641 190.524 97.5068 189.627C95.5932 188.703 94.3274 187.12 93.7094 184.879C93.0774 182.63 93.4646 180.05 94.871 177.137C95.727 175.364 96.7747 173.805 98.0141 172.46C99.2602 171.101 100.474 170.152 101.654 169.611L107.362 172.289Z" fill="black"/>
<path d="M105.037 146.782L110.327 150.038L112.661 146.245L116.753 148.764L114.418 152.556L125.416 159.326C126.254 159.842 126.959 160.037 127.532 159.912C128.104 159.788 128.57 159.432 128.931 158.847C129.176 158.448 129.376 158.094 129.529 157.784C129.678 157.454 129.827 157.078 129.976 156.656L134.495 158.749C134.293 159.524 134.042 160.26 133.742 160.956C133.456 161.66 133.083 162.385 132.624 163.13C131.388 165.139 129.881 166.349 128.105 166.76C126.337 167.158 124.256 166.62 121.861 165.146L110.843 158.364L108.89 161.538L104.798 159.019L106.751 155.846L101.462 152.59L105.037 146.782Z" fill="black"/>
<path d="M148.363 140.161C147.915 140.051 147.474 139.919 147.042 139.763C146.598 139.597 146.172 139.407 145.766 139.192C146.011 140.408 146.005 141.656 145.746 142.937C145.497 144.205 144.914 145.433 143.997 146.621C142.479 148.587 140.739 149.741 138.778 150.082C136.814 150.401 134.91 149.85 133.068 148.427C131.188 146.975 130.317 145.099 130.456 142.797C130.594 140.496 131.79 137.886 134.044 134.967L136.178 132.203L134.212 130.685C133.247 129.94 132.284 129.64 131.323 129.786C130.361 129.932 129.46 130.549 128.62 131.638C128.142 132.256 127.792 132.864 127.568 133.461C127.331 134.048 127.197 134.566 127.166 135.016L129.046 137.03L125.895 141.111L121.457 137.655C121.553 136.15 121.864 134.584 122.39 132.957C122.925 131.317 123.776 129.743 124.941 128.234C126.86 125.748 129.029 124.205 131.447 123.605C133.862 122.982 136.195 123.54 138.446 125.278L146.738 131.681C147.048 131.92 147.338 132.144 147.61 132.354C147.892 132.552 148.171 132.728 148.447 132.882L149.944 131.403L153.191 133.909L148.363 140.161ZM141.122 142.061C141.752 141.245 142.152 140.369 142.321 139.434C142.478 138.489 142.434 137.626 142.189 136.844L139.128 134.481L136.994 137.245C136.106 138.395 135.704 139.477 135.79 140.491C135.864 141.495 136.277 142.288 137.032 142.871C137.712 143.396 138.411 143.59 139.129 143.454C139.856 143.304 140.52 142.84 141.122 142.061Z" fill="black"/>
<path d="M134.171 106.692L131.18 103.852L138.409 96.2371L161.44 118.103L164.226 116.191L167.2 119.015L157.937 128.771L154.963 125.947L156.728 123.066L137.199 104.525L134.171 106.692Z" fill="black"/>
<path d="M150.358 90.1498L147.606 87.0775L155.426 80.0709L176.618 103.724L179.548 102.042L182.285 105.097L172.265 114.074L169.528 111.02L171.521 108.291L153.551 88.2336L150.358 90.1498Z" fill="black"/>
<path d="M525.979 326.542C528.789 323.673 531.54 321.982 534.23 321.469C536.921 320.955 539.377 321.786 541.598 323.962C542.725 325.067 543.44 326.358 543.743 327.835C544.045 329.291 543.861 330.806 543.192 332.382C544.937 331.226 546.679 330.788 548.416 331.069C550.165 331.338 551.714 332.135 553.065 333.458C555.397 335.743 556.412 338.246 556.108 340.968C555.794 343.678 554.253 346.445 551.486 349.269L539.742 361.256L536.812 358.385L538.853 355.298L521.358 338.158L518.313 340.26L515.367 337.374L517.909 334.779L525.979 326.542ZM536.293 343.209L543.324 350.098L547.736 345.594C549.005 344.3 549.693 343.039 549.802 341.811C549.9 340.573 549.397 339.412 548.292 338.33C547.097 337.159 545.904 336.558 544.71 336.526C543.505 336.484 542.29 337.087 541.066 338.337L536.293 343.209ZM532.911 339.896L536.355 336.38C537.635 335.074 538.351 333.807 538.504 332.579C538.657 331.351 538.22 330.234 537.194 329.228C536.066 328.124 534.885 327.666 533.649 327.856C532.425 328.034 531.124 328.826 529.746 330.232L526.465 333.581L532.911 339.896ZM573.367 326.936C572.935 326.774 572.513 326.591 572.102 326.385C571.68 326.168 571.28 325.929 570.901 325.668C571.002 326.904 570.849 328.144 570.442 329.385C570.046 330.616 569.323 331.767 568.273 332.838C566.534 334.613 564.671 335.554 562.684 335.663C560.696 335.75 558.87 334.978 557.207 333.349C555.511 331.687 554.866 329.721 555.274 327.452C555.682 325.183 557.176 322.731 559.756 320.097L562.2 317.603L560.426 315.864C559.555 315.011 558.634 314.601 557.662 314.633C556.69 314.665 555.723 315.172 554.761 316.154C554.214 316.712 553.794 317.274 553.502 317.841C553.198 318.396 553.004 318.896 552.92 319.338L554.551 321.559L550.942 325.242L546.941 321.289C547.213 319.806 547.705 318.287 548.419 316.733C549.143 315.167 550.172 313.704 551.506 312.342C553.704 310.099 556.039 308.821 558.511 308.508C560.983 308.174 563.234 309.001 565.265 310.992L572.749 318.324C573.028 318.597 573.29 318.854 573.536 319.094C573.792 319.324 574.048 319.531 574.304 319.716L575.965 318.423L578.895 321.294L573.367 326.936ZM565.953 327.973C566.674 327.236 567.174 326.413 567.452 325.504C567.719 324.585 567.777 323.722 567.625 322.917L564.862 320.211L562.418 322.705C561.401 323.743 560.876 324.771 560.842 325.787C560.797 326.793 561.115 327.63 561.796 328.297C562.41 328.898 563.081 329.173 563.81 329.122C564.55 329.059 565.264 328.676 565.953 327.973ZM585.469 307.785C586.322 306.915 586.754 305.971 586.766 304.954C586.766 303.927 586.343 302.997 585.494 302.166L589.825 297.747L589.974 297.795C591.848 299.544 592.71 301.733 592.561 304.365C592.4 306.985 591.286 309.35 589.219 311.459C586.573 314.16 583.68 315.405 580.539 315.194C577.399 314.983 574.49 313.566 571.811 310.941L571.309 310.449C568.642 307.836 567.181 304.939 566.928 301.76C566.685 298.569 567.925 295.584 570.648 292.805C572.08 291.343 573.583 290.245 575.155 289.51C576.728 288.776 578.288 288.412 579.835 288.418L584.739 293.092L580.851 297.059L577.235 295.091C576.782 295.129 576.314 295.261 575.83 295.487C575.335 295.702 574.863 296.038 574.415 296.496C573.059 297.879 572.604 299.348 573.051 300.901C573.498 302.455 574.514 304.008 576.099 305.561L576.601 306.053C578.219 307.638 579.782 308.655 581.289 309.104C582.785 309.542 584.179 309.102 585.469 307.785ZM574.571 279.357L571.624 276.47L578.956 268.986L594.091 283.814L595.157 282.726L593.945 276.026L592.169 277.403L589.222 274.517L597.948 265.61L600.895 268.497L599.281 271.115L600.569 278.776L611.928 280.947L614.133 279.466L617.063 282.336L608.862 290.707L605.932 287.837L606.749 286.668L599.539 285.051L597.489 287.144L601.641 291.212L604.21 289.594L607.14 292.465L597.987 301.807L595.057 298.936L596.868 296.084L577.632 277.237L574.571 279.357ZM628.876 265.691C629.155 267.103 629.103 268.462 628.719 269.77C628.345 271.067 627.623 272.262 626.551 273.356C624.681 275.264 622.607 276.164 620.33 276.055C618.042 275.934 615.609 274.611 613.03 272.085L605.547 264.753L603.093 266.254L600.146 263.367L602.098 261.374L606.888 256.486L617.853 267.23C619.17 268.52 620.332 269.232 621.339 269.365C622.346 269.476 623.275 269.097 624.128 268.226C624.883 267.456 625.411 266.672 625.712 265.873C626.013 265.052 626.104 264.234 625.985 263.417L616.225 253.855L613.623 255.505L610.677 252.619L612.776 250.476L617.566 245.587L632.248 259.972L634.899 258.271L637.829 261.142L631.481 267.62L628.876 265.691ZM624.186 244.724L621.24 241.837L628.194 234.739L630.534 236.571C630.277 235.27 630.303 234.038 630.612 232.874C630.92 231.711 631.561 230.633 632.534 229.639C634.732 227.396 637.314 226.513 640.28 226.991C643.246 227.469 646.158 229.108 649.015 231.907L649.367 232.252C652.045 234.876 653.593 237.606 654.008 240.441C654.424 243.277 653.544 245.805 651.368 248.026C650.438 248.975 649.44 249.648 648.372 250.045C647.293 250.432 646.156 250.554 644.962 250.412L650.202 255.546L653.017 253.677L655.963 256.564L646.565 266.157L643.618 263.27L645.429 260.417L627.247 242.604L624.186 244.724ZM644.226 236.796C642.518 235.123 640.855 234.051 639.237 233.582C637.619 233.112 636.236 233.463 635.088 234.635C634.366 235.372 633.899 236.15 633.687 236.97C633.485 237.778 633.516 238.607 633.778 239.455L641.714 247.23C642.522 247.431 643.312 247.407 644.083 247.156C644.865 246.894 645.628 246.383 646.371 245.624C647.53 244.441 647.915 243.122 647.524 241.668C647.144 240.202 646.162 238.693 644.577 237.14L644.226 236.796Z" fill="white"/>
<path d="M711.004 391.504C708.172 395.625 704.654 398.222 700.448 399.294C696.242 400.366 692.233 399.593 688.421 396.974C684.622 394.364 682.475 390.908 681.98 386.606C681.498 382.313 682.673 378.106 685.504 373.985L685.796 373.56C688.61 369.464 692.111 366.865 696.3 365.762C700.489 364.659 704.483 365.413 708.283 368.023C712.095 370.642 714.25 374.113 714.749 378.437C715.26 382.769 714.109 386.983 711.296 391.079L711.004 391.504ZM705.701 387.178C707.7 384.267 708.719 381.488 708.756 378.841C708.793 376.193 707.626 374.055 705.257 372.427C702.887 370.799 700.497 370.484 698.086 371.482C695.688 372.489 693.481 374.46 691.464 377.397L691.145 377.86C689.11 380.822 688.055 383.614 687.979 386.235C687.925 388.852 689.077 390.97 691.433 392.589C693.816 394.226 696.225 394.554 698.662 393.574C701.107 392.581 703.347 390.604 705.382 387.642L705.701 387.178ZM715.482 389.206L717.818 385.806L726.009 391.434L724.607 394.053C725.845 393.577 727.063 393.39 728.262 393.493C729.461 393.597 730.634 394.042 731.78 394.83C734.369 396.608 735.683 398.999 735.724 402.003C735.764 405.007 734.652 408.158 732.387 411.455L732.108 411.86C729.984 414.951 727.562 416.946 724.841 417.844C722.119 418.742 719.477 418.311 716.914 416.55C715.82 415.798 714.985 414.93 714.409 413.947C713.842 412.951 713.526 411.852 713.46 410.651L709.306 416.697L711.632 419.148L709.296 422.548L698.227 414.943L700.563 411.544L703.685 412.835L718.098 391.856L715.482 389.206ZM726.746 407.579C728.099 405.609 728.868 403.786 729.052 402.112C729.236 400.437 728.651 399.135 727.299 398.206C726.449 397.622 725.602 397.296 724.758 397.228C723.927 397.169 723.116 397.342 722.326 397.747L716.035 406.903C715.976 407.735 716.136 408.508 716.516 409.224C716.909 409.949 717.543 410.613 718.419 411.214C719.784 412.152 721.15 412.303 722.515 411.668C723.893 411.041 725.211 409.814 726.467 407.985L726.746 407.579ZM754.04 403.156L750.523 408.276L754.194 410.797L751.473 414.757L747.803 412.236L740.49 422.88C739.932 423.691 739.702 424.386 739.798 424.963C739.894 425.541 740.225 426.025 740.791 426.414C741.178 426.679 741.522 426.897 741.823 427.066C742.145 427.23 742.514 427.398 742.927 427.569L740.61 431.976C739.846 431.736 739.124 431.449 738.444 431.114C737.755 430.792 737.05 430.384 736.329 429.888C734.384 428.552 733.251 426.987 732.929 425.193C732.621 423.407 733.262 421.355 734.855 419.037L742.181 408.374L739.11 406.263L741.83 402.303L744.902 404.413L748.419 399.294L754.04 403.156ZM744.745 430.097L747.867 431.389L756.772 418.426L754.157 415.776L756.492 412.377L765.147 418.322L753.507 435.264L755.814 437.702L753.491 441.082L742.422 433.477L744.745 430.097ZM768.584 413.319L762.943 409.444L765.85 405.213L771.491 409.088L768.584 413.319ZM766.713 424.403L769.049 421.003L777.298 426.67L775.632 429.592C776.991 429.047 778.359 428.85 779.736 428.999C781.133 429.144 782.496 429.673 783.822 430.584C785.161 431.504 786.104 432.588 786.65 433.835C787.196 435.082 787.302 436.473 786.969 438.007C788.383 437.329 789.821 437.028 791.285 437.105C792.749 437.181 794.176 437.698 795.567 438.653C797.628 440.069 798.759 441.898 798.962 444.142C799.187 446.381 798.299 448.956 796.299 451.867L790.327 460.56L792.653 463.011L790.33 466.391L779.532 458.973L781.854 455.592L784.686 456.685L790.672 447.972C791.76 446.388 792.259 445.11 792.169 444.138C792.078 443.166 791.524 442.33 790.507 441.632C789.708 441.083 788.889 440.785 788.049 440.739C787.231 440.689 786.431 440.859 785.649 441.252C785.481 441.496 785.342 441.713 785.231 441.902C785.129 442.079 785.016 442.257 784.892 442.437L778.176 452.212L780.058 454.358L777.735 457.738L767.555 450.744L769.877 447.363L772.555 448.35L778.54 439.638C779.602 438.092 780.092 436.827 780.011 435.842C779.938 434.844 779.386 433.991 778.356 433.284C777.596 432.762 776.825 432.45 776.042 432.348C775.28 432.242 774.532 432.324 773.795 432.596L766.045 443.877L768.081 446.129L765.758 449.51L754.979 442.104L757.301 438.723L760.423 440.015L769.329 427.053L766.713 424.403ZM794.314 464.152L797.436 465.444L806.341 452.482L803.726 449.832L806.062 446.432L814.716 452.378L803.077 469.319L805.383 471.757L803.061 475.138L791.992 467.533L794.314 464.152ZM818.154 447.374L812.513 443.499L815.419 439.268L821.06 443.144L818.154 447.374ZM815.364 477.221L821.198 481.229L823.341 478.606L827.649 481.566L822.765 488.675L805.398 476.743L807.681 473.421L826.707 467.042L821.588 463.525L819.478 466.142L815.151 463.169L820.048 456.041L836.777 467.534L834.561 470.76L815.364 477.221ZM835.004 497.681C831.99 495.61 830.246 492.99 829.77 489.819C829.294 486.649 830.078 483.576 832.122 480.601L832.653 479.828C834.785 476.725 837.391 474.752 840.472 473.911C843.565 473.079 846.543 473.656 849.406 475.642C852.226 477.579 853.832 479.934 854.222 482.704C854.612 485.475 853.812 488.309 851.821 491.206L849.711 494.278L837.232 485.704L837.114 485.794C836.27 487.242 835.949 488.69 836.149 490.136C836.363 491.591 837.172 492.8 838.576 493.765C839.825 494.623 840.946 495.213 841.938 495.535C842.939 495.843 844.115 496.063 845.465 496.195L844.602 500.721C843.271 500.81 841.756 500.614 840.06 500.131C838.376 499.656 836.691 498.84 835.004 497.681ZM846.42 479.988C845.377 479.272 844.278 479.104 843.124 479.487C841.97 479.87 840.876 480.663 839.84 481.866L839.832 482.003L846.748 486.754L847.093 486.252C847.916 485.054 848.287 483.906 848.207 482.809C848.149 481.707 847.553 480.767 846.42 479.988Z" fill="white"/>
<path d="M874.874 38.0532L878.67 46.3169L873.899 48.5082L872.049 45.154L866.341 47.7757L876.378 69.6278L879.994 68.7407L881.706 72.4679L868.841 78.3765L867.129 74.6493L870.158 72.4843L860.122 50.6322L854.435 53.2442L855.774 56.8332L851.024 59.0147L847.229 50.7509L874.874 38.0532Z" fill="white"/>
<path d="M907.486 67.5739C903.842 67.8631 900.836 66.926 898.47 64.7626C896.104 62.5993 894.778 59.7185 894.493 56.1205L894.419 55.1859C894.121 51.4321 894.903 48.2587 896.767 45.6657C898.646 43.0714 901.322 41.6443 904.797 41.3843C908.208 41.1136 910.938 41.9315 912.985 43.838C915.033 45.7445 916.196 48.45 916.474 51.9547L916.769 55.6695L901.676 56.8671L901.64 57.011C901.897 58.6678 902.559 59.9946 903.625 60.9915C904.708 61.9871 906.098 62.4176 907.795 62.2829C909.306 62.163 910.548 61.9155 911.522 61.5405C912.494 61.1499 913.546 60.5805 914.678 59.8324L916.857 63.8915C915.879 64.7998 914.579 65.6005 912.957 66.2934C911.35 66.9852 909.527 67.412 907.486 67.5739ZM905.214 46.6412C903.952 46.7413 902.994 47.3032 902.338 48.327C901.683 49.3508 901.332 50.6561 901.286 52.2429L901.365 52.3542L909.729 51.6905L909.681 51.083C909.566 49.6344 909.132 48.509 908.379 47.7067C907.64 46.8876 906.585 46.5324 905.214 46.6412Z" fill="white"/>
<path d="M948.533 55.326L944.061 54.2722L944.08 51.0258C943.71 50.5533 943.204 50.1129 942.561 49.7047C941.934 49.3 941.203 48.9992 940.366 48.802C939.195 48.526 938.205 48.5735 937.395 48.9445C936.589 49.3003 936.092 49.8736 935.906 50.6644C935.73 51.4096 935.91 52.1102 936.446 52.7662C936.985 53.407 938.191 54.1487 940.063 54.9913C942.977 56.3201 945.031 57.7515 946.227 59.2855C947.426 60.8042 947.782 62.5977 947.295 64.666C946.771 66.8865 945.385 68.478 943.135 69.4408C940.904 70.3919 938.23 70.5 935.112 69.7652C933.211 69.3171 931.527 68.6312 930.059 67.7073C928.61 66.7718 927.391 65.6418 926.403 64.3173L927.641 58.7577L932.295 59.8546L932.45 63.2862C932.766 63.714 933.247 64.0922 933.892 64.4208C934.54 64.7342 935.237 64.9787 935.982 65.1543C937.336 65.4733 938.42 65.4719 939.234 65.1502C940.064 64.832 940.577 64.2546 940.774 63.4182C940.946 62.6882 940.738 61.9728 940.148 61.272C939.559 60.5713 938.354 59.7898 936.535 58.9275C933.77 57.6498 931.778 56.2573 930.561 54.7502C929.361 53.2315 928.998 51.4684 929.471 49.4609C929.959 47.3925 931.23 45.8139 933.285 44.7249C935.343 43.6208 937.946 43.4397 941.094 44.1817C943.01 44.6333 944.759 45.3184 946.341 46.237C947.937 47.1591 949.127 48.1379 949.911 49.1733L948.533 55.326Z" fill="white"/>
<path d="M975.92 51.7551L972.934 57.2016L976.839 59.3419L974.53 63.5553L970.625 61.415L964.418 72.7396C963.945 73.6028 963.785 74.317 963.939 74.8823C964.092 75.4475 964.47 75.8953 965.073 76.2257C965.484 76.451 965.848 76.6326 966.165 76.7704C966.502 76.902 966.885 77.0318 967.314 77.1599L965.451 81.7782C964.667 81.6157 963.92 81.4022 963.21 81.1377C962.492 80.8868 961.749 80.5511 960.982 80.1305C958.913 78.9966 957.628 77.553 957.128 75.8C956.642 74.0544 957.074 71.9485 958.426 69.4821L964.644 58.1369L961.376 56.3458L963.686 52.1325L966.953 53.9236L969.939 48.4771L975.92 51.7551Z" fill="white"/>
<path d="M1128.67 276.404L1128.7 276.265L1103.93 265.856L1104.16 261.268L1129.76 253.461L1129.74 253.319L1114.75 253.216L1109.39 252.944L1108.51 256.56L1104.41 256.352L1105.13 242.238L1109.22 242.445L1109.74 246.109L1134.2 247.35L1135.09 243.758L1139.21 243.967L1139.02 247.595L1138.57 256.513L1113.01 263.923L1113.01 264.063L1137.68 274.092L1137.04 286.685L1132.92 286.476L1132.4 282.789L1107.94 281.548L1107.06 285.164L1102.96 284.956L1103.68 270.841L1107.77 271.049L1108.29 274.713L1113.65 274.985L1128.67 276.404Z" fill="white"/>
<path d="M1098.2 304.07C1098.97 300.495 1100.72 297.882 1103.47 296.233C1106.22 294.584 1109.36 294.137 1112.89 294.892L1113.81 295.088C1117.49 295.876 1120.31 297.533 1122.26 300.059C1124.21 302.601 1124.81 305.574 1124.07 308.978C1123.35 312.325 1121.79 314.706 1119.38 316.124C1116.96 317.541 1114.04 317.883 1110.6 317.147L1106.96 316.368L1110.12 301.562L1110 301.487C1108.33 301.26 1106.87 301.514 1105.61 302.252C1104.35 303.004 1103.54 304.213 1103.18 305.878C1102.87 307.36 1102.75 308.621 1102.83 309.661C1102.93 310.705 1103.17 311.876 1103.57 313.174L1099.05 314.102C1098.46 312.905 1098.07 311.431 1097.87 309.678C1097.66 307.941 1097.77 306.072 1098.2 304.07ZM1118.91 307.876C1119.18 306.638 1118.91 305.559 1118.12 304.638C1117.32 303.717 1116.17 303.008 1114.67 302.51L1114.54 302.554L1112.78 310.759L1113.38 310.887C1114.8 311.19 1116 311.096 1116.99 310.604C1117.98 310.129 1118.62 309.22 1118.91 307.876Z" fill="white"/>
<path d="M1089.2 337.09C1089.66 337.051 1090.11 337.037 1090.57 337.047C1091.05 337.063 1091.51 337.108 1091.97 337.183C1091.35 336.108 1090.96 334.922 1090.79 333.626C1090.63 332.344 1090.79 330.994 1091.28 329.577C1092.09 327.23 1093.37 325.582 1095.12 324.634C1096.88 323.706 1098.86 323.624 1101.06 324.386C1103.31 325.164 1104.73 326.665 1105.33 328.891C1105.93 331.117 1105.63 333.972 1104.42 337.456L1103.28 340.756L1105.63 341.569C1106.78 341.969 1107.79 341.946 1108.65 341.502C1109.52 341.057 1110.17 340.185 1110.62 338.886C1110.88 338.148 1111.02 337.46 1111.04 336.823C1111.08 336.191 1111.04 335.657 1110.93 335.221L1108.5 333.91L1110.19 329.038L1115.5 330.902C1115.89 332.359 1116.09 333.943 1116.11 335.653C1116.12 337.378 1115.82 339.141 1115.2 340.942C1114.17 343.909 1112.6 346.062 1110.5 347.401C1108.41 348.76 1106.02 348.974 1103.33 348.043L1093.43 344.612C1093.07 344.484 1092.72 344.364 1092.39 344.251C1092.06 344.154 1091.74 344.076 1091.43 344.018L1090.48 345.896L1086.61 344.553L1089.2 337.09ZM1095.46 332.984C1095.12 333.959 1095.02 334.916 1095.15 335.857C1095.31 336.802 1095.62 337.606 1096.1 338.269L1099.76 339.536L1100.9 336.236C1101.38 334.863 1101.41 333.71 1101.01 332.776C1100.62 331.847 1099.98 331.227 1099.07 330.915C1098.26 330.633 1097.54 330.672 1096.9 331.03C1096.26 331.403 1095.78 332.054 1095.46 332.984Z" fill="white"/>
<path d="M1089.63 377.137L1091.64 373.009L1094.81 373.746C1095.35 373.489 1095.89 373.093 1096.43 372.557C1096.96 372.035 1097.42 371.388 1097.8 370.616C1098.33 369.535 1098.5 368.559 1098.32 367.687C1098.15 366.822 1097.7 366.211 1096.97 365.854C1096.28 365.518 1095.56 365.539 1094.8 365.916C1094.05 366.3 1093.06 367.312 1091.83 368.951C1089.89 371.498 1088.04 373.185 1086.28 374.012C1084.53 374.845 1082.7 374.795 1080.79 373.862C1078.74 372.861 1077.5 371.156 1077.06 368.75C1076.62 366.364 1077.11 363.732 1078.52 360.854C1079.37 359.099 1080.42 357.608 1081.64 356.381C1082.87 355.175 1084.25 354.237 1085.76 353.566L1090.9 356.004L1088.8 360.299L1085.42 359.691C1084.94 359.905 1084.46 360.29 1084 360.846C1083.55 361.409 1083.16 362.035 1082.82 362.723C1082.21 363.972 1081.97 365.029 1082.1 365.895C1082.23 366.774 1082.68 367.402 1083.45 367.78C1084.13 368.109 1084.87 368.064 1085.68 367.644C1086.5 367.225 1087.53 366.223 1088.77 364.639C1090.63 362.226 1092.43 360.592 1094.17 359.737C1095.91 358.904 1097.71 358.94 1099.57 359.846C1101.47 360.779 1102.73 362.368 1103.34 364.612C1103.96 366.864 1103.56 369.442 1102.14 372.348C1101.28 374.117 1100.22 375.671 1098.98 377.01C1097.72 378.363 1096.51 379.307 1095.32 379.842L1089.63 377.137Z" fill="white"/>
<path d="M1063.58 393.997C1063.03 392.666 1062.82 391.321 1062.95 389.964C1063.06 388.62 1063.54 387.308 1064.38 386.028C1065.85 383.796 1067.71 382.513 1069.97 382.182C1072.24 381.86 1074.88 382.689 1077.9 384.672L1086.65 390.426L1088.77 388.481L1092.22 390.747L1090.69 393.077L1086.93 398.797L1074.1 390.365C1072.56 389.353 1071.28 388.878 1070.27 388.941C1069.26 389.026 1068.42 389.577 1067.75 390.596C1067.16 391.497 1066.79 392.368 1066.65 393.21C1066.51 394.073 1066.58 394.894 1066.85 395.672L1078.27 403.176L1080.51 401.055L1083.95 403.321L1082.31 405.828L1078.55 411.547L1061.37 400.258L1059.1 402.438L1055.67 400.185L1060.65 392.605L1063.58 393.997Z" fill="white"/>
<path d="M1054.03 408.717L1052.45 411.679L1064.47 421.815L1067.35 419.491L1070.5 422.15L1064.05 429.801L1061.03 427.647C1061.65 428.947 1061.94 430.192 1061.89 431.383C1061.85 432.573 1061.43 433.64 1060.64 434.583C1060.4 434.858 1060.14 435.125 1059.84 435.383C1059.54 435.663 1059.28 435.88 1059.05 436.033L1054.75 431.459L1056.61 429.354C1057.26 428.589 1057.64 427.83 1057.77 427.077C1057.89 426.323 1057.79 425.583 1057.46 424.857L1048.04 416.911L1045.38 418.967L1042.25 416.323L1050.89 406.073L1054.03 408.717Z" fill="white"/>
<path d="M1025.53 432.893C1028.18 430.376 1031.11 429.215 1034.31 429.41C1037.51 429.605 1040.35 431.011 1042.83 433.629L1043.48 434.309C1046.07 437.041 1047.46 440.001 1047.64 443.189C1047.81 446.387 1046.62 449.18 1044.08 451.567C1041.6 453.922 1038.97 455.003 1036.17 454.808C1033.38 454.613 1030.78 453.24 1028.36 450.69L1025.79 447.986L1036.78 437.565L1036.71 437.431C1035.47 436.304 1034.12 435.688 1032.67 435.584C1031.2 435.49 1029.85 436.029 1028.61 437.202C1027.51 438.245 1026.7 439.218 1026.18 440.122C1025.67 441.037 1025.21 442.141 1024.8 443.434L1020.56 441.648C1020.74 440.327 1021.25 438.887 1022.08 437.328C1022.89 435.78 1024.04 434.302 1025.53 432.893ZM1040.46 447.742C1041.37 446.87 1041.77 445.831 1041.63 444.623C1041.5 443.414 1040.95 442.179 1039.99 440.916L1039.86 440.879L1033.77 446.654L1034.19 447.096C1035.19 448.15 1036.23 448.752 1037.32 448.903C1038.41 449.075 1039.46 448.688 1040.46 447.742Z" fill="white"/>
<path d="M274.467 256.138C278.638 256.138 282.076 257.474 284.779 260.145C287.482 262.802 288.834 266.216 288.834 270.388V276.036C288.834 280.224 287.482 283.645 284.779 286.302C282.076 288.942 278.638 290.263 274.467 290.263H259.115V286.161L262.748 285.458V260.966L259.115 260.263V256.138H262.748H274.467ZM269.592 261.411V285.013H274.115C276.568 285.013 278.49 284.184 279.881 282.528C281.271 280.872 281.967 278.708 281.967 276.036V270.341C281.967 267.7 281.271 265.552 279.881 263.895C278.49 262.239 276.568 261.411 274.115 261.411H269.592ZM308.521 290.263C308.334 289.841 308.17 289.411 308.029 288.974C307.888 288.52 307.779 288.067 307.701 287.614C306.888 288.552 305.896 289.309 304.724 289.888C303.568 290.466 302.24 290.755 300.74 290.755C298.256 290.755 296.279 290.083 294.81 288.739C293.357 287.38 292.631 285.536 292.631 283.208C292.631 280.833 293.584 278.997 295.49 277.7C297.396 276.403 300.193 275.755 303.881 275.755H307.373V273.27C307.373 272.052 307.021 271.106 306.318 270.434C305.615 269.763 304.576 269.427 303.201 269.427C302.42 269.427 301.724 269.52 301.115 269.708C300.506 269.88 300.013 270.091 299.638 270.341L299.193 273.059H294.037L294.06 267.434C295.31 266.591 296.74 265.88 298.349 265.302C299.974 264.724 301.74 264.434 303.646 264.434C306.787 264.434 309.334 265.208 311.287 266.755C313.256 268.286 314.24 270.474 314.24 273.317V283.794C314.24 284.184 314.24 284.552 314.24 284.895C314.256 285.239 314.287 285.567 314.334 285.88L316.42 286.161V290.263H308.521ZM302.592 285.692C303.623 285.692 304.56 285.474 305.404 285.036C306.248 284.583 306.904 284.02 307.373 283.349V279.481H303.881C302.427 279.481 301.326 279.825 300.576 280.513C299.826 281.184 299.451 281.997 299.451 282.95C299.451 283.809 299.724 284.481 300.271 284.966C300.834 285.45 301.607 285.692 302.592 285.692ZM326.99 258.692V264.903H331.443V269.708H326.99V282.622C326.99 283.606 327.193 284.309 327.599 284.731C328.006 285.153 328.552 285.364 329.24 285.364C329.709 285.364 330.115 285.349 330.459 285.317C330.818 285.27 331.217 285.2 331.654 285.106L332.24 290.052C331.474 290.286 330.717 290.458 329.967 290.567C329.217 290.692 328.404 290.755 327.529 290.755C325.17 290.755 323.349 290.106 322.068 288.809C320.802 287.513 320.17 285.458 320.17 282.645V269.708H316.443V264.903H320.17V258.692H326.99ZM350.943 290.263C350.756 289.841 350.592 289.411 350.451 288.974C350.31 288.52 350.201 288.067 350.123 287.614C349.31 288.552 348.318 289.309 347.146 289.888C345.99 290.466 344.662 290.755 343.162 290.755C340.677 290.755 338.701 290.083 337.232 288.739C335.779 287.38 335.052 285.536 335.052 283.208C335.052 280.833 336.006 278.997 337.912 277.7C339.818 276.403 342.615 275.755 346.302 275.755H349.795V273.27C349.795 272.052 349.443 271.106 348.74 270.434C348.037 269.763 346.998 269.427 345.623 269.427C344.842 269.427 344.146 269.52 343.537 269.708C342.927 269.88 342.435 270.091 342.06 270.341L341.615 273.059H336.459L336.482 267.434C337.732 266.591 339.162 265.88 340.771 265.302C342.396 264.724 344.162 264.434 346.068 264.434C349.209 264.434 351.756 265.208 353.709 266.755C355.677 268.286 356.662 270.474 356.662 273.317V283.794C356.662 284.184 356.662 284.552 356.662 284.895C356.677 285.239 356.709 285.567 356.756 285.88L358.842 286.161V290.263H350.943ZM345.013 285.692C346.045 285.692 346.982 285.474 347.826 285.036C348.67 284.583 349.326 284.02 349.795 283.349V279.481H346.302C344.849 279.481 343.748 279.825 342.998 280.513C342.248 281.184 341.873 281.997 341.873 282.95C341.873 283.809 342.146 284.481 342.693 284.966C343.256 285.45 344.029 285.692 345.013 285.692Z" fill="#8500AC"/>
<path d="M881.31 273.458C881.31 278.458 879.881 282.591 877.021 285.856C874.162 289.122 870.42 290.755 865.795 290.755C861.185 290.755 857.459 289.122 854.615 285.856C851.787 282.591 850.373 278.458 850.373 273.458V272.942C850.373 267.974 851.787 263.849 854.615 260.567C857.443 257.286 861.162 255.645 865.771 255.645C870.396 255.645 874.138 257.286 876.998 260.567C879.873 263.849 881.31 267.974 881.31 272.942V273.458ZM874.49 272.895C874.49 269.364 873.756 266.497 872.287 264.294C870.818 262.091 868.646 260.989 865.771 260.989C862.896 260.989 860.748 262.083 859.326 264.27C857.92 266.458 857.217 269.333 857.217 272.895V273.458C857.217 277.052 857.927 279.95 859.349 282.153C860.787 284.341 862.935 285.434 865.795 285.434C868.685 285.434 870.857 284.341 872.31 282.153C873.763 279.95 874.49 277.052 874.49 273.458V272.895ZM883.701 269.028V264.903H893.638L893.967 267.856C894.717 266.763 895.615 265.919 896.662 265.325C897.709 264.731 898.927 264.434 900.318 264.434C903.459 264.434 905.896 265.661 907.631 268.114C909.365 270.567 910.232 273.794 910.232 277.794V278.286C910.232 282.036 909.365 285.052 907.631 287.333C905.896 289.614 903.474 290.755 900.365 290.755C899.037 290.755 897.857 290.513 896.826 290.028C895.795 289.528 894.912 288.802 894.177 287.849V295.184L897.482 295.888V300.013H884.052V295.888L887.357 295.184V269.731L883.701 269.028ZM903.388 277.794C903.388 275.403 902.99 273.466 902.193 271.981C901.396 270.497 900.177 269.755 898.537 269.755C897.506 269.755 896.623 269.966 895.888 270.388C895.17 270.809 894.599 271.411 894.177 272.192V283.302C894.599 284.02 895.17 284.567 895.888 284.942C896.623 285.317 897.521 285.505 898.584 285.505C900.24 285.505 901.451 284.856 902.217 283.559C902.998 282.263 903.388 280.505 903.388 278.286V277.794ZM933.974 273.622H929.381L928.654 270.458C928.185 270.083 927.592 269.77 926.873 269.52C926.17 269.27 925.388 269.145 924.529 269.145C923.326 269.145 922.373 269.419 921.67 269.966C920.967 270.497 920.615 271.169 920.615 271.981C920.615 272.747 920.951 273.388 921.623 273.903C922.295 274.403 923.638 274.849 925.654 275.239C928.795 275.864 931.123 276.786 932.638 278.005C934.154 279.208 934.912 280.872 934.912 282.997C934.912 285.278 933.927 287.145 931.959 288.599C930.006 290.036 927.427 290.755 924.224 290.755C922.271 290.755 920.474 290.474 918.834 289.911C917.209 289.333 915.763 288.513 914.498 287.45L914.427 281.755H919.209L920.146 285.059C920.552 285.403 921.107 285.661 921.81 285.833C922.513 285.989 923.248 286.067 924.013 286.067C925.404 286.067 926.459 285.817 927.177 285.317C927.912 284.817 928.279 284.138 928.279 283.278C928.279 282.528 927.912 281.88 927.177 281.333C926.443 280.786 925.092 280.302 923.123 279.88C920.138 279.27 917.881 278.372 916.349 277.184C914.834 275.981 914.076 274.349 914.076 272.286C914.076 270.161 914.951 268.333 916.701 266.802C918.451 265.255 920.943 264.481 924.177 264.481C926.146 264.481 928.006 264.747 929.756 265.278C931.521 265.809 932.904 266.489 933.904 267.317L933.974 273.622Z" fill="#613DC1"/>
<path d="M195.205 483.7L197.064 480.044L200.621 481.064L211.724 459.233L208.805 456.96L210.675 453.283L213.913 454.93L220.013 458.032L223.272 459.69L221.402 463.367L217.824 462.336L206.923 483.77L215.509 488.137L217.746 484.462L222.404 486.832L218.08 495.334L195.205 483.7Z" fill="black"/>
<path d="M230.557 486.281C231.508 482.622 233.306 479.892 235.953 478.094C238.618 476.284 241.758 475.848 245.373 476.787C249.002 477.73 251.536 479.631 252.972 482.49C254.424 485.353 254.673 488.622 253.718 492.297L253.595 492.773C252.636 496.463 250.826 499.206 248.165 501.001C245.522 502.784 242.401 503.209 238.802 502.274C235.157 501.327 232.607 499.43 231.151 496.582C229.714 493.723 229.475 490.448 230.433 486.758L230.557 486.281ZM237.057 488.478C236.476 490.716 236.402 492.618 236.835 494.184C237.272 495.734 238.367 496.737 240.122 497.192C241.83 497.636 243.255 497.28 244.395 496.123C245.55 494.97 246.416 493.282 246.993 491.059L247.117 490.582C247.683 488.405 247.744 486.524 247.299 484.939C246.855 483.355 245.771 482.339 244.047 481.891C242.323 481.443 240.889 481.805 239.745 482.977C238.602 484.149 237.747 485.824 237.181 488.002L237.057 488.478Z" fill="black"/>
<path d="M275.878 506.917C275.709 506.488 275.564 506.051 275.443 505.608C275.323 505.149 275.233 504.691 275.175 504.235C274.322 505.136 273.297 505.849 272.101 506.375C270.92 506.901 269.581 507.131 268.082 507.065C265.6 506.955 263.655 506.196 262.248 504.789C260.856 503.366 260.212 501.492 260.315 499.166C260.42 496.794 261.453 495.002 263.415 493.79C265.377 492.579 268.2 492.055 271.884 492.218L275.372 492.373L275.482 489.891C275.536 488.673 275.227 487.713 274.554 487.011C273.882 486.309 272.858 485.927 271.485 485.866C270.704 485.832 270.005 485.895 269.388 486.055C268.772 486.2 268.271 486.389 267.885 486.622L267.32 489.318L262.169 489.09L262.441 483.472C263.727 482.684 265.187 482.037 266.82 481.531C268.469 481.025 270.246 480.814 272.151 480.899C275.288 481.038 277.798 481.923 279.681 483.555C281.58 485.172 282.467 487.401 282.341 490.242L281.877 500.708C281.86 501.098 281.844 501.465 281.828 501.809C281.829 502.153 281.845 502.482 281.878 502.796L283.95 503.169L283.768 507.267L275.878 506.917ZM270.156 502.089C271.186 502.135 272.133 501.958 272.995 501.558C273.858 501.143 274.538 500.61 275.036 499.959L275.207 496.096L271.719 495.941C270.267 495.877 269.151 496.172 268.372 496.825C267.593 497.463 267.182 498.258 267.14 499.211C267.102 500.069 267.345 500.752 267.87 501.261C268.411 501.769 269.173 502.045 270.156 502.089Z" fill="black"/>
<path d="M308.792 500.906C308.208 502.197 307.429 503.236 306.456 504.024C305.498 504.809 304.334 505.321 302.964 505.559C299.885 506.094 297.296 505.387 295.196 503.436C293.112 501.483 291.749 498.659 291.107 494.964L291.023 494.479C290.338 490.539 290.639 487.211 291.928 484.497C293.217 481.783 295.408 480.157 298.502 479.62C299.749 479.403 300.921 479.484 302.018 479.865C303.112 480.23 304.124 480.847 305.052 481.716L303.494 472.757L299.772 472.69L299.065 468.626L302.667 468L309.41 466.828L314.849 498.117L318.202 498.247L318.905 502.288L309.83 503.866L308.792 500.906ZM297.85 493.792C298.23 495.978 298.891 497.639 299.834 498.776C300.79 499.894 302.099 500.309 303.761 500.02C304.747 499.849 305.566 499.5 306.22 498.974C306.874 498.448 307.366 497.768 307.697 496.933L305.855 486.334C305.254 485.614 304.554 485.102 303.756 484.796C302.97 484.473 302.092 484.396 301.122 484.564C299.475 484.851 298.401 485.79 297.901 487.384C297.401 488.978 297.356 490.952 297.765 493.307L297.85 493.792Z" fill="black"/>
</svg>
