<?xml version="1.0" encoding="utf-8"?>
<!-- Generator: Adobe Illustrator 23.1.1, SVG Export Plug-In . SVG Version: 6.00 Build 0)  -->
<svg version="1.1" id="Layer_2" xmlns="http://www.w3.org/2000/svg" xmlns:xlink="http://www.w3.org/1999/xlink" x="0px" y="0px"
	 viewBox="0 0 45 40" style="enable-background:new 0 0 45 40;" xml:space="preserve">
<style type="text/css">
	.st0{fill:none;stroke:#0A025D;stroke-width:2;stroke-linecap:round;stroke-miterlimit:10;}
	.st1{fill:#0A025D;}
	.st2{fill:none;stroke:#0063FF;stroke-width:7;stroke-linecap:round;stroke-miterlimit:10;}
	.st3{fill:#0063FF;}
	.st4{fill:none;stroke:#FEFEFE;stroke-width:3;stroke-linecap:round;stroke-miterlimit:10;}
	.st5{fill:#FEFEFE;}
	.st6{fill:#FEFEFE;stroke:#0A025D;stroke-width:3;stroke-linecap:round;stroke-miterlimit:10;}
	.st7{fill:none;stroke:#0A025D;stroke-width:2;stroke-miterlimit:10;}
	.st8{fill:none;stroke:#0063FF;stroke-linecap:round;stroke-miterlimit:10;stroke-dasharray:3;}
	.st9{fill:none;stroke:#0A025D;stroke-width:2;stroke-linecap:round;stroke-linejoin:round;}
	.st10{fill:none;stroke:#0A025D;stroke-width:3;stroke-linecap:round;stroke-miterlimit:10;}
	.st11{fill:none;stroke:#0063FF;stroke-linecap:round;stroke-miterlimit:10;stroke-dasharray:2.969475,2.969475;}
	.st12{fill:none;stroke:#949698;stroke-width:7;stroke-linecap:round;stroke-miterlimit:10;}
	.st13{fill:#949698;}
	.st14{fill:#FEFEFE;stroke:#949698;stroke-width:3;stroke-linecap:round;stroke-miterlimit:10;}
	.st15{fill:none;stroke:#949698;stroke-width:2;stroke-miterlimit:10;}
	.st16{fill:none;stroke:#949698;stroke-linecap:round;stroke-miterlimit:10;stroke-dasharray:3;}
	.st17{fill:none;stroke:#949698;stroke-width:2;stroke-linecap:round;stroke-miterlimit:10;}
	.st18{fill:none;stroke:#949698;stroke-width:2;stroke-linecap:round;stroke-linejoin:round;}
	.st19{fill:none;stroke:#949698;stroke-width:3;stroke-linecap:round;stroke-miterlimit:10;}
	.st20{fill:none;stroke:#949698;stroke-linecap:round;stroke-miterlimit:10;stroke-dasharray:2.969475,2.969475;}
	.st21{fill:none;stroke:#4E4EF9;stroke-width:11;stroke-miterlimit:10;}
	.st22{fill:none;stroke:#4422EE;stroke-width:11;stroke-miterlimit:10;}
	.st23{fill:none;stroke:#1101BB;stroke-width:11;stroke-miterlimit:10;}
	.st24{fill:none;stroke:#0A025D;stroke-width:11;stroke-miterlimit:10;}
	.st25{fill:#4E4EF9;}
	.st26{fill:#4422EE;}
	.st27{fill:#1101BB;}
</style>
<g>
	<g>
		<g>
			<g>
				<path class="st3" d="M29.0187263,5.4501758c-0.6305943,0-1.1420174-0.5112634-1.1420174-1.1420174V1.1996337
					c0-0.6307544,0.5114231-1.1420176,1.1420174-1.1420176c0.6305962,0,1.1420174,0.5112631,1.1420174,1.1420176v3.1085248
					C30.1607437,4.9389124,29.6493225,5.4501758,29.0187263,5.4501758z"/>
			</g>
			<g>
				<path class="st3" d="M26.364109,5.4501758c-0.6305943,0-1.1420174-0.5112634-1.1420174-1.1420174V1.1996337
					c0-0.6307544,0.5114231-1.1420176,1.1420174-1.1420176c0.6305962,0,1.1420174,0.5112631,1.1420174,1.1420176v3.1085248
					C27.5061264,4.9389124,26.9947052,5.4501758,26.364109,5.4501758z"/>
			</g>
			<g>
				<path class="st3" d="M23.618679,5.4501758c-0.6305962,0-1.1420174-0.5112634-1.1420174-1.1420174V1.1996337
					c0-0.6307544,0.5114212-1.1420176,1.1420174-1.1420176c0.6305943,0,1.1420174,0.5112631,1.1420174,1.1420176v3.1085248
					C24.7606964,4.9389124,24.2492733,5.4501758,23.618679,5.4501758z"/>
			</g>
			<g>
				<path class="st3" d="M28.6783752,12.0447216v-1.2472c0,0,0.0226898-1.0891161,0.726078-1.5202255
					c0,0,0.6580086-0.4537983,0.6126289-1.2025661l0.002243-2.5866523c0,0-1.0232906,1.0437369-2.4073772-0.2722793
					c0,0-0.9983559,1.3160162-2.6320324,0.1361394c0,0-1.4067745,1.2252564-2.7001019-0.0453796
					c0,0-2.0647831,1.1571865-3.0177612-0.7033882h-0.4647503c-0.0440769,0-0.0798073,0.0357308-0.0798073,0.0798068V6.22855
					c0,0.0979128-0.0593204,0.1879563-0.1516685,0.220499c-0.0912495,0.032156-0.2146797,0.0535436-0.3447266,0.0114393
					c-0.0977592-0.0316515-0.1616135-0.1269221-0.1616135-0.2296782V4.5351h-0.0057068
					c-0.4020576,0-0.5049458-0.5677691-0.1245098-0.6978409c0.0055065-0.0018823,0.011095-0.0037317,0.0167675-0.0055468h0.6650753
					c0.3314686,0,0.6623821-0.0759382,0.9472122-0.2454729c0.4116859-0.2450395,0.8438969-0.7264128,0.770155-1.6604816h-3.4234104
					c-0.239624,0-0.4338779,0.1942538-0.4338779,0.4338778v4.7621174c0,0,0,1.2011261,1.0822392,2.0992479
					c0.1155376,0.0958815,0.2422123,0.1776247,0.3697758,0.2568035c0.3081284,0.1912565,1.1309566,0.817872,1.0185814,2.0016003
					c-0.0150642,0.1586781-0.0161705,0.419632-0.013792,0.5790052v27.7817383h10.0907288L28.6783752,12.0447216z"/>
			</g>
			<g>
				<path class="st3" d="M19.8746815,1.1996799c0,0,1.7925053,0.0907598,1.0210476,1.9967141
					c0,0-0.1588306,0.5218685-1.1118069,1.1118069c0,0,0.322279,0.6873813,1.1374054,0.7915354
					c0.2842827,0.0363245,0.5781784-0.0458078,0.7741566-0.2549214c0.0624352-0.0666194,0.1078415-0.1408305,0.1078415-0.2157702
					c0-0.300878,0-0.1581936,0-0.300878V1.2940028c0-0.4029213-0.2126713-0.7880117-0.5738964-0.9665116
					c-0.2273426-0.1123418-0.5208931-0.1516946-0.8782597,0.0099711
					C20.3511696,0.3374623,19.8293018,0.6097415,19.8746815,1.1996799z"/>
			</g>
		</g>
		<g>
			<path class="st5" d="M26.8761692,12.0717421c-0.2702103,0-0.4894371-0.2190666-0.4894371-0.4894352v-3.317874
				c0-0.2703686,0.2192268-0.4894357,0.4894371-0.4894357s0.4894352,0.2190671,0.4894352,0.4894357v3.317874
				C27.3656044,11.8526754,27.1463795,12.0717421,26.8761692,12.0717421z"/>
		</g>
		<g>
			<rect x="20.4220791" y="8.0890226" class="st5" width="0.7891243" height="0.7891243"/>
		</g>
		<g>
			<rect x="20.4220791" y="9.4532976" class="st5" width="0.7891243" height="0.7891243"/>
		</g>
		<g>
			<rect x="20.4220791" y="10.8175726" class="st5" width="0.7891243" height="0.7891243"/>
		</g>
	</g>
	<g>
		<path class="st5" d="M39.0473099,36.6435623c2.531208,0,4.5831757-2.0519676,4.5831757-4.5831985
			c0-1.2441807-0.4975471-2.3708878-1.3023148-3.1967087c0.2874908-0.7382584,0.4511566-1.5384884,0.4511566-2.3784466
			c0-3.6257248-2.9392281-6.5649548-6.5649338-6.5649548c-0.6074257,0-1.1929054,0.0890598-1.751194,0.2434578
			c0.0000191-0.0061359,0.0009155-0.0120564,0.0009155-0.0181904c0-2.531229-2.0519485-4.5831757-4.5831776-4.5831757
			c-1.2089138,0-2.3051815,0.4715691-3.1241264,1.2363529c-1.8620663-1.9195566-4.4671631-3.114233-7.3527012-3.114233
			c-5.3232079,0-9.6970081,4.0600567-10.1965818,9.2522755c-0.4345264-0.085495-0.8832903-0.1313591-1.3428812-0.1313591
			c-3.8213129,0-6.9190893,3.0977764-6.9190893,6.9190903c0,3.8212929,3.0977764,6.9190903,6.9190893,6.9190903"/>
		<path class="st1" d="M39.0473862,37.1330376c-0.2702103,0-0.4894371-0.2190666-0.4894371-0.4894371
			s0.2192268-0.4894371,0.4894371-0.4894371c2.2572708,0,4.0936089-1.8364983,4.0936089-4.0937691
			c0-1.0714378-0.4132805-2.0853596-1.1633644-2.8552017l-0.2198639-0.2256012l0.1143913-0.2936287
			c0.2772217-0.7120094,0.4177437-1.4523754,0.4177437-2.2007103c0-3.3500557-2.7253571-6.0755711-6.075573-6.0755711
			c-0.5334091,0-1.0789261,0.0759964-1.6209373,0.2257595l-0.6197624,0.1712704l0.0019112-0.6906605
			c-0.0009537-2.2277946-1.8372955-4.0642948-4.0945644-4.0642948c-1.0362282,0-2.0272083,0.3922501-2.7903595,1.1047363
			L26.73979,17.4840584l-0.3345757-0.344614c-1.8548222-1.9123363-4.3411961-2.9656124-7.0012302-2.9656124
			c-5.0520887,0-9.2259979,3.7873936-9.7093792,8.8096905l-0.0516205,0.5375519L9.113081,23.4168777
			c-0.4120064-0.0809364-0.8319778-0.1220417-1.2484446-0.1220417c-3.5452251,0-6.4295845,2.8843594-6.4295845,6.4295845
			c0,3.5453854,2.8843591,6.4297428,6.4295845,6.4297428c0.2702093,0,0.4894361,0.2190666,0.4894361,0.4894371
			s-0.2192268,0.4894371-0.4894361,0.4894371c-4.0850067,0-7.4084563-3.323452-7.4084563-7.408617
			c0-4.0850067,3.3234494-7.4084568,7.4084563-7.4084568c0.3052597,0,0.6124325,0.0191193,0.9176922,0.0571976
			c0.7593269-5.2678108,5.2375402-9.1782017,10.6216555-9.1782017c2.7737904,0,5.3761501,1.0406895,7.3778667,2.9401226
			c0.8871021-0.6879511,1.9711266-1.0621977,3.0991249-1.0621977c2.5972614,0,4.7449169,1.9623652,5.0383854,4.4821959
			c0.4333572-0.0825291,0.8667107-0.1242714,1.2949677-0.1242714c3.889679,0,7.0544434,3.1646061,7.0544434,7.0544434
			c0,0.7692051-0.1274567,1.5302849-0.3788681,2.2668285c0.7953339,0.9213562,1.2299652,2.0845642,1.2299652,3.3083134
			C44.1198692,34.8574448,41.8444366,37.1330376,39.0473862,37.1330376z"/>
	</g>
	<g>
		<path class="st1" d="M23.7031193,31.7956028h-0.7411652c-1.2793522,0-2.3200417-1.0406895-2.3200417-2.3198833v-0.9227905
			c0-1.2791939,1.0406895-2.3198833,2.3200417-2.3198833h0.7411652c1.2793522,0,2.3200417,1.0406895,2.3200417,2.3198833v0.9227905
			C26.0231609,30.7549133,24.9824715,31.7956028,23.7031193,31.7956028z M22.9619541,26.8856277
			c-0.9192848,0-1.6674595,0.7480145-1.6674595,1.6673012v0.9227905c0,0.9192867,0.7481747,1.6673012,1.6674595,1.6673012h0.7411652
			c0.9192867,0,1.6674595-0.7480145,1.6674595-1.6673012v-0.9227905c0-0.9192867-0.7481728-1.6673012-1.6674595-1.6673012
			H22.9619541z"/>
	</g>
	<g>
		<path class="st1" d="M39.0473862,37.1330376H7.8646364c-0.2702098,0-0.4894361-0.2190666-0.4894361-0.4894371
			s0.2192264-0.4894371,0.4894361-0.4894371h31.1827507c0.2702103,0,0.4894371,0.2190666,0.4894371,0.4894371
			S39.3175964,37.1330376,39.0473862,37.1330376z"/>
	</g>
	<g>
		<rect x="20.1595097" y="29.6511879" class="st1" width="6.3460789" height="4.4674249"/>
	</g>
	<g>
		<circle class="st5" cx="23.3359127" cy="31.349411" r="0.9917448"/>
	</g>
	<g>
		<path class="st5" d="M23.449194,33.659771h-0.1793346c-0.1200123,0-0.2173023-0.09729-0.2173023-0.2173042v-1.1043968
			c0-0.1200142,0.09729-0.2173004,0.2173023-0.2173004h0.1793346c0.1200123,0,0.2173004,0.0972862,0.2173004,0.2173004v1.1043968
			C23.6664944,33.5624809,23.5692062,33.659771,23.449194,33.659771z"/>
	</g>
</g>
</svg>
