<?xml version="1.0" encoding="utf-8"?>
<!-- Generator: Adobe Illustrator 23.1.1, SVG Export Plug-In . SVG Version: 6.00 Build 0)  -->
<svg version="1.1" id="Layer_2" xmlns="http://www.w3.org/2000/svg" xmlns:xlink="http://www.w3.org/1999/xlink" x="0px" y="0px"
	 viewBox="0 0 45 40" style="enable-background:new 0 0 45 40;" xml:space="preserve">
<style type="text/css">
	.st0{fill:none;stroke:#0A025D;stroke-width:2;stroke-linecap:round;stroke-miterlimit:10;}
	.st1{fill:#0A025D;}
	.st2{fill:none;stroke:#0063FF;stroke-width:7;stroke-linecap:round;stroke-miterlimit:10;}
	.st3{fill:#0063FF;}
	.st4{fill:none;stroke:#FEFEFE;stroke-width:3;stroke-linecap:round;stroke-miterlimit:10;}
	.st5{fill:#FEFEFE;}
	.st6{fill:#FEFEFE;stroke:#0A025D;stroke-width:3;stroke-linecap:round;stroke-miterlimit:10;}
	.st7{fill:none;stroke:#0A025D;stroke-width:2;stroke-miterlimit:10;}
	.st8{fill:none;stroke:#0063FF;stroke-linecap:round;stroke-miterlimit:10;stroke-dasharray:3;}
	.st9{fill:none;stroke:#0A025D;stroke-width:2;stroke-linecap:round;stroke-linejoin:round;}
	.st10{fill:none;stroke:#0A025D;stroke-width:3;stroke-linecap:round;stroke-miterlimit:10;}
	.st11{fill:none;stroke:#0063FF;stroke-linecap:round;stroke-miterlimit:10;stroke-dasharray:2.969475,2.969475;}
	.st12{fill:none;stroke:#949698;stroke-width:7;stroke-linecap:round;stroke-miterlimit:10;}
	.st13{fill:#949698;}
	.st14{fill:#FEFEFE;stroke:#949698;stroke-width:3;stroke-linecap:round;stroke-miterlimit:10;}
	.st15{fill:none;stroke:#949698;stroke-width:2;stroke-miterlimit:10;}
	.st16{fill:none;stroke:#949698;stroke-linecap:round;stroke-miterlimit:10;stroke-dasharray:3;}
	.st17{fill:none;stroke:#949698;stroke-width:2;stroke-linecap:round;stroke-miterlimit:10;}
	.st18{fill:none;stroke:#949698;stroke-width:2;stroke-linecap:round;stroke-linejoin:round;}
	.st19{fill:none;stroke:#949698;stroke-width:3;stroke-linecap:round;stroke-miterlimit:10;}
	.st20{fill:none;stroke:#949698;stroke-linecap:round;stroke-miterlimit:10;stroke-dasharray:2.969475,2.969475;}
	.st21{fill:none;stroke:#4E4EF9;stroke-width:11;stroke-miterlimit:10;}
	.st22{fill:none;stroke:#4422EE;stroke-width:11;stroke-miterlimit:10;}
	.st23{fill:none;stroke:#1101BB;stroke-width:11;stroke-miterlimit:10;}
	.st24{fill:none;stroke:#0A025D;stroke-width:11;stroke-miterlimit:10;}
	.st25{fill:#4E4EF9;}
	.st26{fill:#4422EE;}
	.st27{fill:#1101BB;}
</style>
<g>
	<g>
		<path class="st1" d="M32.3001137,20.0096378c-1.306015,0-2.3683777-1.062521-2.3683777-2.3685341
			s1.0623627-2.368536,2.3683777-2.368536c1.3060112,0,2.3686905,1.0625229,2.3686905,2.368536
			S33.6061249,20.0096378,32.3001137,20.0096378z M32.3001137,16.2458992c-0.769289,0-1.3950462,0.6259174-1.3950462,1.3952045
			c0,0.7692852,0.6257572,1.3952026,1.3950462,1.3952026c0.7692871,0,1.395359-0.6259174,1.395359-1.3952026
			C33.6954727,16.8718166,33.0694008,16.2458992,32.3001137,16.2458992z"/>
	</g>
	<g>
		<path class="st1" d="M32.3002434,15.7593012l5.1926651-3.8923416l-3.4250145,5.127141
			C34.067894,16.9941006,33.8495255,15.7854118,32.3002434,15.7593012z"/>
	</g>
	<g>
		<path class="st1" d="M39.9033127,26.73456H5.3060036c-2.4152691,0-4.379992-1.96488-4.379992-4.3799915V10.5884094
			c0-2.4151106,1.9647229-4.379992,4.379992-4.379992h34.5973091c2.4152718,0,4.3799934,1.9648814,4.3799934,4.379992v11.7661591
			C44.2833061,24.76968,42.3185844,26.73456,39.9033127,26.73456z M5.3060036,7.1817493
			c-1.8785427,0-3.4066606,1.5282764-3.4066606,3.4066601v11.7661591c0,1.8783836,1.5281179,3.4066601,3.4066606,3.4066601
			h34.5973091c1.8785439,0,3.406662-1.5282764,3.406662-3.4066601V10.5884094c0-1.8783836-1.5281181-3.4066601-3.406662-3.4066601
			H5.3060036z"/>
	</g>
	<g>
		<path class="st1" d="M13.6493435,39.641819H10.401103v-8.6795082h3.2482405V39.641819z M11.0499907,38.9929314h1.9504652
			v-7.3817329h-1.9504652V38.9929314z"/>
	</g>
	<g>
		
			<rect x="7.7244763" y="34.5046768" transform="matrix(-1.836970e-16 1 -1 -1.836970e-16 45.2303772 25.0284519)" class="st1" width="4.7529707" height="1.2494732"/>
	</g>
	<g>
		
			<rect x="12.6069384" y="33.7085075" transform="matrix(-1.836970e-16 1 -1 -1.836970e-16 50.1128387 20.1459904)" class="st1" width="4.7529707" height="2.8418143"/>
	</g>
	<g>
		<path class="st1" d="M35.9013138,39.6999588h-3.2482414v-8.6795082h3.2482414V39.6999588z M33.30196,39.0510712h1.9504662
			v-7.3817329H33.30196V39.0510712z"/>
	</g>
	<g>
		
			<rect x="33.8249817" y="34.5628242" transform="matrix(-8.955343e-11 1 -1 -8.955343e-11 71.3890305 -1.0139077)" class="st1" width="4.7529707" height="1.2494732"/>
	</g>
	<g>
		
			<rect x="28.9425201" y="33.766655" transform="matrix(-8.993624e-11 1 -1 -8.993624e-11 66.5065689 3.8685548)" class="st1" width="4.7529707" height="2.8418143"/>
	</g>
	<g>
		<path class="st1" d="M26.9920959,22.6493874c-0.0871296,0-0.1742611-0.0350094-0.2382622-0.1040802
			c-0.121666-0.1314888-0.1137466-0.3368015,0.0180588-0.4584675l1.1710396-1.0835915
			c0.1311722-0.1219845,0.3361683-0.113905,0.4584675,0.0177422c0.121666,0.1314888,0.1137447,0.3368015-0.0180588,0.4584675
			l-1.1710396,1.0835915C27.1498833,22.6208725,27.0709896,22.6493874,26.9920959,22.6493874z"/>
	</g>
	<g>
		<path class="st1" d="M25.1496735,17.9584179c-0.1742611,0-0.3181057-0.1382999-0.3238106-0.3136711
			c-0.0060196-0.1791725,0.1343403-0.3291969,0.3133545-0.3350582l1.594656-0.0525951
			c0.1802807-0.0087128,0.329195,0.1343403,0.334898,0.3135128c0.0060215,0.1791725-0.1343403,0.3291969-0.3133545,0.3350582
			l-1.5946541,0.0525951C25.1569614,17.9584179,25.1534767,17.9584179,25.1496735,17.9584179z"/>
	</g>
	<g>
		<path class="st1" d="M37.6084442,22.6493874c-0.0788918,0-0.1577873-0.0285149-0.2202034-0.086338l-1.1710396-1.0835915
			c-0.1318054-0.121666-0.1397247-0.3269787-0.0180588-0.4584675c0.1219826-0.1316471,0.3269768-0.1397266,0.4584656-0.0177422
			l1.1710396,1.0835915c0.1318054,0.121666,0.1397285,0.3269787,0.0180588,0.4584675
			C37.7827072,22.614378,37.6955757,22.6493874,37.6084442,22.6493874z"/>
	</g>
	<g>
		<path class="st1" d="M39.4508667,17.9584179c-0.0037994,0-0.0072861,0-0.0110893-0.0001583l-1.5946541-0.0525951
			c-0.1790123-0.0058613-0.3193741-0.1558857-0.3133545-0.3350582c0.005703-0.1791725,0.1536674-0.3160477,0.3348999-0.3135128
			l1.5946541,0.0525951c0.1790161,0.0058613,0.3193741,0.1558857,0.3133545,0.3350582
			C39.7689743,17.820118,39.6251297,17.9584179,39.4508667,17.9584179z"/>
	</g>
	<g>
		<path class="st1" d="M28.4150238,14.104538c-0.0928345,0-0.1850338-0.0396051-0.2493534-0.1164379l-1.0230751-1.2245855
			c-0.1146965-0.1375084-0.0966358-0.3421869,0.0408726-0.4570417c0.1381416-0.1146955,0.3421879-0.0961609,0.4571991,0.0410309
			l1.023077,1.2245855c0.1146946,0.1375084,0.0966358,0.3421869-0.0408726,0.4570408
			C28.5620384,14.0798244,28.4882145,14.104538,28.4150238,14.104538z"/>
	</g>
	<g>
		<path class="st1" d="M32.368866,12.6361446c-0.0015831,0-0.0031662,0-0.0047531,0
			c-0.1793289-0.0026932-0.3222237-0.1501818-0.3196907-0.3293552l0.0240822-1.5952873
			c0.0028496-0.1774302,0.1473274-0.3195333,0.3244438-0.3195333c0.0015831,0,0.0031662,0,0.0047493,0
			c0.1793327,0.0026932,0.3222275,0.1501827,0.3196945,0.3293552l-0.0240822,1.5952873
			C32.6904602,12.4940424,32.5459785,12.6361446,32.368866,12.6361446z"/>
	</g>
	<g>
		<path class="st1" d="M26.693634,23.8457756c-0.0801601,0-0.1600037-0.0293083-0.2227383-0.0887165
			c-1.7150536-1.6206341-2.6595535-3.8122139-2.6595535-6.170927c0-4.6808319,3.8080978-8.4889288,8.4887714-8.4889288
			c4.6809883,0,8.4890862,3.8080969,8.4890862,8.4889288c0,2.2566891-0.8757477,4.3810997-2.4659653,5.9822502
			c-0.1267357,0.1273689-0.3317299,0.1280022-0.4590988,0.0015831c-0.1270523-0.1262608-0.1276894-0.3317299-0.0015869-0.4587841
			c1.4688683-1.4788494,2.2777634-3.4408779,2.2777634-5.5250492c0-4.3229618-3.5172386-7.8400412-7.8401985-7.8400412
			s-7.8398838,3.5170794-7.8398838,7.8400412c0,2.1784306,0.872261,4.2024021,2.4561424,5.6994705
			c0.1302204,0.1229343,0.13624,0.3284035,0.012991,0.4586258C26.8656769,23.8117142,26.7798138,23.8457756,26.693634,23.8457756z"
			/>
	</g>
	<g>
		<rect x="4.9654703" y="11.522109" class="st3" width="1.7634701" height="10.1694727"/>
	</g>
	<g>
		<rect x="9.1366024" y="11.522109" class="st3" width="1.7634701" height="10.1694727"/>
	</g>
	<g>
		<path class="st3" d="M15.1904516,21.8538036h-1.1355534c-0.0896654,0-0.1622219-0.0725555-0.1622219-0.1622219
			s0.0725565-0.1622219,0.1622219-0.1622219h0.8111095v-0.343771c0-0.0896664,0.0725565-0.1622219,0.1622219-0.1622219
			s0.1622219,0.0725555,0.1622219,0.1622219V21.8538036z M13.2646999,21.6706696
			c-0.0896654,0-0.1622219-0.0725555-0.1622219-0.1622219v-0.9733315c0-0.0896645,0.0725565-0.1622219,0.1622219-0.1622219
			s0.1622219,0.0725574,0.1622219,0.1622219v0.9733315C13.4269218,21.598114,13.3543653,21.6706696,13.2646999,21.6706696z
			 M15.0282297,20.3744793c-0.0896654,0-0.1622219-0.0725574-0.1622219-0.1622219v-0.9733315
			c0-0.0896664,0.0725565-0.1622219,0.1622219-0.1622219s0.1622219,0.0725555,0.1622219,0.1622219v0.9733315
			C15.1904516,20.3019218,15.1178951,20.3744793,15.0282297,20.3744793z M13.2646999,19.7240067
			c-0.0896654,0-0.1622219-0.0725555-0.1622219-0.1622219v-0.9733315c0-0.0896645,0.0725565-0.1622219,0.1622219-0.1622219
			s0.1622219,0.0725574,0.1622219,0.1622219v0.9733315C13.4269218,19.6514511,13.3543653,19.7240067,13.2646999,19.7240067z
			 M15.0282297,18.4278164c-0.0896654,0-0.1622219-0.0725574-0.1622219-0.1622219V17.292263
			c0-0.0896664,0.0725565-0.1622219,0.1622219-0.1622219s0.1622219,0.0725555,0.1622219,0.1622219v0.9733315
			C15.1904516,18.3552589,15.1178951,18.4278164,15.0282297,18.4278164z M13.2646999,17.7773438
			c-0.0896654,0-0.1622219-0.0725555-0.1622219-0.1622219v-0.9733315c0-0.0896664,0.0725565-0.1622219,0.1622219-0.1622219
			s0.1622219,0.0725555,0.1622219,0.1622219v0.9733315C13.4269218,17.7047882,13.3543653,17.7773438,13.2646999,17.7773438z
			 M15.0282297,16.4811535c-0.0896654,0-0.1622219-0.0725574-0.1622219-0.1622219v-0.9733324
			c0-0.0896654,0.0725565-0.1622219,0.1622219-0.1622219s0.1622219,0.0725565,0.1622219,0.1622219v0.9733324
			C15.1904516,16.408596,15.1178951,16.4811535,15.0282297,16.4811535z M13.2646999,15.8306808
			c-0.0896654,0-0.1622219-0.0725565-0.1622219-0.1622219v-0.9733315c0-0.0896654,0.0725565-0.1622219,0.1622219-0.1622219
			s0.1622219,0.0725565,0.1622219,0.1622219v0.9733315C13.4269218,15.7581244,13.3543653,15.8306808,13.2646999,15.8306808z
			 M15.0282297,14.5344896c-0.0896654,0-0.1622219-0.0725565-0.1622219-0.1622219v-0.9733315
			c0-0.0896654,0.0725565-0.1622219,0.1622219-0.1622219s0.1622219,0.0725565,0.1622219,0.1622219v0.9733315
			C15.1904516,14.4619331,15.1178951,14.5344896,15.0282297,14.5344896z M13.2646999,13.8840179
			c-0.0896654,0-0.1622219-0.0725565-0.1622219-0.1622219v-0.9733315c0-0.0896664,0.0725565-0.1622219,0.1622219-0.1622219
			s0.1622219,0.0725555,0.1622219,0.1622219v0.9733315C13.4269218,13.8114614,13.3543653,13.8840179,13.2646999,13.8840179z
			 M15.0282297,12.5878267c-0.0896654,0-0.1622219-0.0725565-0.1622219-0.1622219v-0.7699203
			c-0.0424566-0.0293083-0.0700216-0.0782595-0.0700216-0.1335478c0-0.0896664,0.0725565-0.1622229,0.1622219-0.1622229h0.2322435
			v1.065691C15.1904516,12.5152702,15.1178951,12.5878267,15.0282297,12.5878267z M13.2646999,11.937355
			c-0.0896654,0-0.1622219-0.0725565-0.1622219-0.1622219v-0.4152193h0.8823986
			c0.0896654,0,0.1622219,0.0725565,0.1622219,0.1622229c0,0.0896654-0.0725565,0.1622219-0.1622219,0.1622219h-0.5579548v0.0907745
			C13.4269218,11.8647985,13.3543653,11.937355,13.2646999,11.937355z"/>
	</g>
	<g>
		<g>
			<g>
				<path class="st3" d="M17.4216366,39.852993c-0.6270256,0-1.1355534-0.5083694-1.1355534-1.1355553v-3.0909309
					c0-0.627182,0.5085278-1.1355515,1.1355534-1.1355515s1.1355534,0.5083694,1.1355534,1.1355515v3.0909309
					C18.5571899,39.3446236,18.0486622,39.852993,17.4216366,39.852993z"/>
			</g>
			<g>
				<path class="st3" d="M20.0612278,39.852993c-0.6270256,0-1.1355534-0.5083694-1.1355534-1.1355553v-3.0909309
					c0-0.627182,0.5085278-1.1355515,1.1355534-1.1355515s1.1355534,0.5083694,1.1355534,1.1355515v3.0909309
					C21.1967812,39.3446236,20.6882534,39.852993,20.0612278,39.852993z"/>
			</g>
			<g>
				<path class="st3" d="M22.7911186,39.852993c-0.6270256,0-1.1355534-0.5083694-1.1355534-1.1355553v-3.0909309
					c0-0.627182,0.5085278-1.1355515,1.1355534-1.1355515s1.1355534,0.5083694,1.1355534,1.1355515v3.0909309
					C23.926672,39.3446236,23.4181442,39.852993,22.7911186,39.852993z"/>
			</g>
			<g>
				<path class="st3" d="M27.4552002,26.7138271v1.2063408c0.0023651,0.1584721,0.0012646,0.4179497-0.0137138,0.5757294
					c-0.1117401,1.1770267,0.7064304,1.8000965,1.0128155,1.9902706c0.1268425,0.0787315,0.2528,0.1600113,0.3676834,0.2553501
					c1.0761147,0.8930378,1.0761147,2.0873661,1.0761147,2.0873661v4.7351608c0,0.2382698-0.1931553,0.4314232-0.4314232,0.4314232
					h-3.4040337c-0.0733242-0.9287834,0.3564415-1.4074287,0.7657948-1.6510811
					c0.2832203-0.1685753,0.6122608-0.2440834,0.9418526-0.2440834h0.6613102
					c0.0056419-0.0018082,0.011198-0.0036469,0.0166721-0.0055161c0.3782845-0.1293373,0.2759781-0.6938934-0.123806-0.6938934
					h-0.0056725v-1.6861115c0-0.1021729-0.0634937-0.196907-0.1606998-0.2283783
					c-0.1293106-0.0418663-0.2520428-0.0205994-0.3427753,0.0113754c-0.0918236,0.0323563-0.1508083,0.121891-0.1508083,0.2192497
					v1.5368271c0,0.0438271-0.0355301,0.0793533-0.0793552,0.0793533h-0.462122
					c-0.9475822-1.8500443-3.000679-0.6994057-3.000679-0.6994057c-1.2860069-1.263443-2.6848202-0.0451241-2.6848202-0.0451241
					c-1.6244278-1.1731987-2.6171341,0.1353683-2.6171341,0.1353683c-1.3762512-1.308567-2.3937511-0.2707367-2.3937511-0.2707367
					L16.4288807,31.8813c-0.0451221-0.7445297,0.6091614-1.1957588,0.6091614-1.1957588
					c0.6994057-0.428669,0.7219677-1.5116215,0.7219677-1.5116215v-1.240139l-0.0149384-1.2199516L27.4552002,26.7138271z"/>
			</g>
			<g>
				<path class="st3" d="M26.5138741,38.7174377c0,0-1.7823601-0.0902481-1.0152683-1.9854126
					c0,0,0.1579304-0.5189171,1.1055145-1.1055145c0,0-0.3204575-0.6834908-1.13097-0.787056
					c-0.2826729-0.0361176-0.5749054,0.0455475-0.7697735,0.253479c-0.0620804,0.0662422-0.1072311,0.1400337-0.1072311,0.21455
					c0,0.2991753,0,0.157299,0,0.2991753v3.0169868c0,0.4006424,0.2114677,0.7835541,0.5706482,0.9610443
					c0.2260551,0.1117058,0.5179443,0.1508331,0.8732872-0.0099182
					C26.040081,39.5747719,26.5589962,39.3040352,26.5138741,38.7174377z"/>
			</g>
		</g>
		<g>
			<path class="st5" d="M19.5517502,32.179451c-0.2686806,0-0.4866657-0.2178268-0.4866657-0.4866657v-3.2992516
				c0-0.2688389,0.2179852-0.4866657,0.4866657-0.4866657s0.4866657,0.2178268,0.4866657,0.4866657v3.2992516
				C20.0384159,31.9616241,19.8204308,32.179451,19.5517502,32.179451z"/>
		</g>
		<g>
			
				<rect x="25.1849155" y="31.0824299" transform="matrix(-1 -1.224647e-16 1.224647e-16 -1 51.1544914 62.9495201)" class="st5" width="0.7846577" height="0.7846577"/>
		</g>
		<g>
			
				<rect x="25.1849155" y="29.7258778" transform="matrix(-1 -1.224647e-16 1.224647e-16 -1 51.1544914 60.236412)" class="st5" width="0.7846577" height="0.7846577"/>
		</g>
		<g>
			
				<rect x="25.1849155" y="28.3693256" transform="matrix(-1 -1.224647e-16 1.224647e-16 -1 51.1544914 57.5233078)" class="st5" width="0.7846577" height="0.7846577"/>
		</g>
	</g>
</g>
</svg>
