<?xml version="1.0" encoding="utf-8"?>
<!-- Generator: Adobe Illustrator 23.1.1, SVG Export Plug-In . SVG Version: 6.00 Build 0)  -->
<svg version="1.1" id="Layer_2" xmlns="http://www.w3.org/2000/svg" xmlns:xlink="http://www.w3.org/1999/xlink" x="0px" y="0px"
	 viewBox="0 0 45 40" style="enable-background:new 0 0 45 40;" xml:space="preserve">
<style type="text/css">
	.st0{fill:none;stroke:#0A025D;stroke-width:2;stroke-linecap:round;stroke-miterlimit:10;}
	.st1{fill:#0A025D;}
	.st2{fill:none;stroke:#0063FF;stroke-width:7;stroke-linecap:round;stroke-miterlimit:10;}
	.st3{fill:#0063FF;}
	.st4{fill:none;stroke:#FEFEFE;stroke-width:3;stroke-linecap:round;stroke-miterlimit:10;}
	.st5{fill:#FEFEFE;}
	.st6{fill:#FEFEFE;stroke:#0A025D;stroke-width:3;stroke-linecap:round;stroke-miterlimit:10;}
	.st7{fill:none;stroke:#0A025D;stroke-width:2;stroke-miterlimit:10;}
	.st8{fill:none;stroke:#0063FF;stroke-linecap:round;stroke-miterlimit:10;stroke-dasharray:3;}
	.st9{fill:none;stroke:#0A025D;stroke-width:2;stroke-linecap:round;stroke-linejoin:round;}
	.st10{fill:none;stroke:#0A025D;stroke-width:3;stroke-linecap:round;stroke-miterlimit:10;}
	.st11{fill:none;stroke:#0063FF;stroke-linecap:round;stroke-miterlimit:10;stroke-dasharray:2.969475,2.969475;}
	.st12{fill:none;stroke:#949698;stroke-width:7;stroke-linecap:round;stroke-miterlimit:10;}
	.st13{fill:#949698;}
	.st14{fill:#FEFEFE;stroke:#949698;stroke-width:3;stroke-linecap:round;stroke-miterlimit:10;}
	.st15{fill:none;stroke:#949698;stroke-width:2;stroke-miterlimit:10;}
	.st16{fill:none;stroke:#949698;stroke-linecap:round;stroke-miterlimit:10;stroke-dasharray:3;}
	.st17{fill:none;stroke:#949698;stroke-width:2;stroke-linecap:round;stroke-miterlimit:10;}
	.st18{fill:none;stroke:#949698;stroke-width:2;stroke-linecap:round;stroke-linejoin:round;}
	.st19{fill:none;stroke:#949698;stroke-width:3;stroke-linecap:round;stroke-miterlimit:10;}
	.st20{fill:none;stroke:#949698;stroke-linecap:round;stroke-miterlimit:10;stroke-dasharray:2.969475,2.969475;}
	.st21{fill:none;stroke:#4E4EF9;stroke-width:11;stroke-miterlimit:10;}
	.st22{fill:none;stroke:#4422EE;stroke-width:11;stroke-miterlimit:10;}
	.st23{fill:none;stroke:#1101BB;stroke-width:11;stroke-miterlimit:10;}
	.st24{fill:none;stroke:#0A025D;stroke-width:11;stroke-miterlimit:10;}
	.st25{fill:#4E4EF9;}
	.st26{fill:#4422EE;}
	.st27{fill:#1101BB;}
</style>
<g>
	<g>
		<path class="st1" d="M39.3071327,39.904911H5.7977152c-2.3248236,0-4.2159729-1.891304-4.2159729-4.2159729V19.4694595
			c0-2.3246708,1.891149-4.2159729,4.2159729-4.2159729h33.5094185c2.3248253,0,4.2159729,1.8913021,4.2159729,4.2159729v16.2194786
			C43.5231056,38.013607,41.631958,39.904911,39.3071327,39.904911z M5.7977152,16.1903687
			c-1.8081961,0-3.2790899,1.4710464-3.2790899,3.2790909v16.2194786c0,1.8080444,1.4708939,3.2790871,3.2790899,3.2790871
			h33.5094185c1.808197,0,3.2790909-1.4710426,3.2790909-3.2790871V19.4694595c0-1.8080444-1.4708939-3.2790909-3.2790909-3.2790909
			H5.7977152z"/>
	</g>
	<g>
		<path class="st3" d="M18.2830811,25.99897c-0.0399513,0-0.0799026-0.0152473-0.1104012-0.0457458
			c-0.0609951-0.0609951-0.0609951-0.1598072,0-0.2208023l0.6627102-0.662405c0.0609951-0.0609951,0.1598072-0.0609951,0.2208023,0
			s0.0609951,0.1598072,0,0.2208023l-0.6627102,0.662405C18.3629837,25.9837227,18.3230324,25.99897,18.2830811,25.99897z
			 M17.620676,25.3995419c-0.0399513,0-0.0799046-0.0152473-0.1104012-0.0457458l-0.662405-0.662405
			c-0.0609951-0.0609951-0.0609951-0.1598072,0-0.2208023s0.1598072-0.0609951,0.2208023,0l0.662405,0.662405
			c0.0609951,0.0609951,0.0609951,0.1598072,0,0.2208023C17.7005787,25.3842945,17.6606274,25.3995419,17.620676,25.3995419z
			 M19.6081963,24.67416c-0.0399513,0-0.0799026-0.0152493-0.1103992-0.0457458
			c-0.0609951-0.0609951-0.0609951-0.1598072,0-0.2208023l0.662405-0.6625576c0.0609951-0.0609951,0.1598072-0.0609951,0.2208004,0
			c0.0609951,0.0609951,0.0609951,0.1598072,0,0.2208023l-0.662405,0.6625576
			C19.6881008,24.6589108,19.6481495,24.67416,19.6081963,24.67416z M16.2958641,24.0747318
			c-0.0399513,0-0.0799026-0.0152493-0.1103992-0.0457458l-0.6627111-0.6625576
			c-0.0609951-0.0609951-0.0609951-0.1598072,0-0.2208023s0.1598072-0.0609951,0.2208014,0l0.6627102,0.6625576
			c0.0609951,0.0609951,0.0609951,0.1598072,0,0.2208023C16.3757687,24.0594826,16.3358173,24.0747318,16.2958641,24.0747318z
			 M19.7213421,23.3491974c-0.0399513,0-0.0799026-0.0152493-0.1104012-0.0457478l-0.662405-0.6625576
			c-0.0609951-0.0609951-0.0609951-0.1598072,0-0.2208004c0.0609951-0.0609951,0.1598072-0.0609951,0.2208023,0l0.662405,0.6625576
			c0.0609951,0.0609951,0.0609951,0.1598053,0,0.2208004C19.8012466,23.3339481,19.7612953,23.3491974,19.7213421,23.3491974z
			 M14.9707489,22.7497692c-0.0399513,0-0.0799036-0.0152493-0.1104002-0.0457478l-0.662406-0.662405
			c-0.0609951-0.0609951-0.0609951-0.1598072,0-0.2208023c0.0609951-0.0609932,0.1598072-0.0609932,0.2208023,0l0.662405,0.6624069
			c0.0609951,0.0609951,0.0609951,0.1598072,0,0.2208004C15.0506525,22.73452,15.0107012,22.7497692,14.9707489,22.7497692z
			 M12.1113052,22.3174667l-0.0079298-0.3395901v-0.9263611c0-0.0863075,0.0698395-0.156147,0.156147-0.156147
			c0.0863085,0,0.156147,0.0698395,0.156147,0.156147v0.8835125c0.0152493,0.0538273,0.0006104,0.1126881-0.0448313,0.152792
			L12.1113052,22.3174667z M18.3965321,22.0242329c-0.0399513,0-0.0799046-0.0152473-0.1104012-0.0457458l-0.662405-0.6625576
			c-0.0609951-0.0609951-0.0609951-0.1598072,0-0.2208023s0.1598072-0.0609951,0.2208023,0l0.662405,0.6625576
			c0.0609951,0.0609951,0.0609951,0.1598072,0,0.2208023C18.4764347,22.0089855,18.4364834,22.0242329,18.3965321,22.0242329z
			 M12.9637098,21.5004387c-0.042697,0-0.085393-0.0173836-0.1161957-0.051693
			c-0.0576401-0.0641975-0.0524559-0.1628571,0.0118942-0.2204971l0.5090027-0.4579201l0.387928,0.387928
			c0.0609951,0.0609951,0.0609951,0.1598072,0,0.2208023s-0.1598063,0.0609951-0.2208014,0l-0.1787157-0.1784096
			l-0.2888107,0.2596855C13.0384283,21.4871731,13.0009165,21.5004387,12.9637098,21.5004387z M17.0714169,20.6992702
			c-0.0399532,0-0.0799046-0.0152493-0.1104012-0.0457458l-0.6624069-0.6625576
			c-0.0609932-0.0609951-0.0609932-0.1598072,0-0.2208023c0.0609951-0.0609951,0.1598072-0.0609951,0.2208023,0l0.662405,0.6625576
			c0.0609951,0.0609951,0.0609951,0.1598072,0,0.2208023C17.1513195,20.684021,17.1113682,20.6992702,17.0714169,20.6992702z
			 M12.2595224,20.2707806c-0.0863075,0-0.156147-0.0698395-0.156147-0.156147v-0.9368839
			c0-0.0863075,0.0698395-0.156147,0.156147-0.156147c0.0863085,0,0.156147,0.0698395,0.156147,0.156147v0.9368839
			C12.4156694,20.2009411,12.3458309,20.2707806,12.2595224,20.2707806z M15.7466049,19.3743076
			c-0.0399513,0-0.0799036-0.0152493-0.1104002-0.0457478l-0.2412357-0.2410812l0.6486826-0.6389236
			c0.0609932-0.0605373,0.1604156-0.059927,0.2208004,0.0015259s0.0597763,0.1604156-0.0018291,0.2208004l-0.4242201,0.4181213
			l0.0186033,0.0187569c0.0609951,0.0609951,0.0609951,0.1598053,0,0.2208004
			C15.8265085,19.3590584,15.7865572,19.3743076,15.7466049,19.3743076z M12.2595224,18.3970146
			c-0.0863075,0-0.156147-0.0698395-0.156147-0.156147v-0.387928h0.861249c0.0863075,0,0.156147,0.0698395,0.156147,0.156147
			s-0.0698395,0.156147-0.156147,0.156147h-0.548955v0.075634C12.4156694,18.3271751,12.3458309,18.3970146,12.2595224,18.3970146z
			 M16.7121563,18.1652336h-0.9368839c-0.0863075,0-0.156147-0.0698395-0.156147-0.156147s0.0698395-0.156147,0.156147-0.156147
			h0.9368839c0.0863075,0,0.156147,0.0698395,0.156147,0.156147S16.7984638,18.1652336,16.7121563,18.1652336z
			 M14.8383904,18.1652336h-0.936883c-0.0863085,0-0.156147-0.0698395-0.156147-0.156147s0.0698385-0.156147,0.156147-0.156147
			h0.936883c0.0863075,0,0.156147,0.0698395,0.156147,0.156147S14.9246979,18.1652336,14.8383904,18.1652336z"/>
	</g>
	<g>
		<polygon class="st1" points="28.3970127,18.009016 32.8497963,18.009016 32.8497963,21.9779453 31.7466583,20.9854584 
			26.8576584,25.8744583 24.7820644,23.7988644 29.4927521,19.0881767 		"/>
	</g>
	<g>
		<polygon class="st1" points="16.712286,36.813385 12.2595034,36.813385 12.2595034,32.8444557 13.3626413,33.8369446 
			18.2516422,28.9479427 20.3272362,31.0235367 15.6165476,35.7342262 		"/>
	</g>
	<g>
		<path class="st3" d="M33.0060463,36.9695282h-0.8615532c-0.0863075,0-0.156147-0.0698395-0.156147-0.156147
			c0-0.0863113,0.0698395-0.156147,0.156147-0.156147h0.5492592v-0.0753288c0-0.0863113,0.0698395-0.156147,0.156147-0.156147
			s0.156147,0.0698357,0.156147,0.156147V36.9695282z M31.2076111,36.9695282h-0.936882
			c-0.0863094,0-0.156147-0.0698395-0.156147-0.156147c0-0.0863113,0.0698376-0.156147,0.156147-0.156147h0.936882
			c0.0863075,0,0.156147,0.0698357,0.156147,0.156147C31.3637581,36.8996887,31.2939186,36.9695282,31.2076111,36.9695282z
			 M29.3338451,36.9695282h-0.936882c-0.0863075,0-0.156147-0.0698395-0.156147-0.156147
			c0-0.0863113,0.0698395-0.156147,0.156147-0.156147h0.936882c0.0863075,0,0.156147,0.0698357,0.156147,0.156147
			C29.4899921,36.8996887,29.4201527,36.9695282,29.3338451,36.9695282z M28.9565926,36.4182854
			c-0.0402584,0-0.0808201-0.0155563-0.1113167-0.0466614c-0.0603848-0.0614548-0.0597744-0.1602631,0.0018291-0.2208023
			l0.4239159-0.417511l-0.0192127-0.0192146c-0.0609951-0.0609932-0.0609951-0.1598053,0-0.2207985
			c0.0609932-0.060997,0.1598053-0.060997,0.2208004,0l0.2418461,0.2418442l-0.6483765,0.6383133
			C29.0358849,36.4033394,28.9962387,36.4182854,28.9565926,36.4182854z M32.8498993,35.8011665
			c-0.0863075,0-0.156147-0.0698395-0.156147-0.156147v-0.936882c0-0.0863075,0.0698395-0.156147,0.156147-0.156147
			s0.156147,0.0698395,0.156147,0.156147v0.936882C33.0060463,35.7313271,32.9362068,35.8011665,32.8498993,35.8011665z
			 M28.6998024,35.0974388c-0.0399513,0-0.0799026-0.0152473-0.1104012-0.0457458l-0.662405-0.6624069
			c-0.0609951-0.0609932-0.0609951-0.1598053,0-0.2208023c0.0609951-0.0609932,0.1598072-0.0609932,0.2208023,0l0.662405,0.6624069
			c0.0609951,0.0609932,0.0609951,0.1598053,0,0.2208023C28.779707,35.0821915,28.7397537,35.0974388,28.6998024,35.0974388z
			 M31.7410126,34.0521355l-0.3873177-0.3876228c-0.0609951-0.0609932-0.0609951-0.1598053,0-0.2207985
			c0.0609932-0.060997,0.1598053-0.060997,0.2208004,0l0.1781063,0.1781044l0.2891159-0.2599907
			c0.0634346-0.0576401,0.1628571-0.0526085,0.2204971,0.0115891s0.0524559,0.1628571-0.0118942,0.2204971L31.7410126,34.0521355z
			 M32.8498993,33.9274025c-0.0863075,0-0.156147-0.0698395-0.156147-0.156147v-0.8848839
			c-0.014637-0.0538292,0-0.1125374,0.0454445-0.1524887l0.2592278-0.2281227l0.0076218,0.3386765v0.9268188
			C33.0060463,33.857563,32.9362068,33.9274025,32.8498993,33.9274025z M27.3749924,33.7724762
			c-0.0399513,0-0.0799046-0.0152512-0.1104012-0.0457458l-0.6627102-0.6624069
			c-0.0609951-0.0609932-0.0609951-0.1598053,0-0.2208023c0.0609951-0.0609932,0.1598072-0.0609932,0.2208023,0l0.6627102,0.6624069
			c0.0609951,0.0609932,0.0609951,0.1598053,0,0.2208023C27.454895,33.757225,27.4149437,33.7724762,27.3749924,33.7724762z
			 M30.801384,33.0478554c-0.0399513,0-0.0799026-0.0152473-0.1104012-0.0457458l-0.662405-0.6624069
			c-0.0609951-0.0609932-0.0609951-0.1598053,0-0.2208023c0.0609951-0.0609932,0.1598072-0.0609932,0.2208023,0l0.662405,0.6624069
			c0.0609951,0.0609932,0.0609951,0.1598053,0,0.2208023C30.8812885,33.032608,30.8413372,33.0478554,30.801384,33.0478554z
			 M26.0498753,32.4475136c-0.0399513,0-0.0799026-0.0152512-0.1103992-0.0457497l-0.6624069-0.6624031
			c-0.0609951-0.0609951-0.0609951-0.1598072,0-0.2208023s0.1598072-0.0609951,0.2208023,0l0.662405,0.6624069
			c0.0609951,0.0609932,0.0609951,0.1598053,0,0.2207985C26.1297798,32.4322624,26.0898285,32.4475136,26.0498753,32.4475136z
			 M29.4765739,31.7228909c-0.0399513,0-0.0799026-0.0152473-0.1104012-0.0457458l-0.662405-0.662405
			c-0.0609951-0.0609951-0.0609951-0.1598072,0-0.2208023s0.1598072-0.0609951,0.2208023,0l0.662405,0.662405
			c0.0609951,0.0609951,0.0609951,0.1598072,0,0.2208023C29.5564766,31.7076435,29.5165253,31.7228909,29.4765739,31.7228909z
			 M24.8391266,31.1225491c-0.0399532,0-0.0799046-0.0152493-0.1104012-0.0457458
			c-0.0609951-0.0609951-0.0609951-0.1598072,0-0.2208023l0.6627102-0.662405c0.0609951-0.0609951,0.1598072-0.0609951,0.2208023,0
			s0.0609951,0.1598053,0,0.2208004l-0.6627102,0.6624069C24.9190292,31.1072998,24.8790779,31.1225491,24.8391266,31.1225491z
			 M28.151762,30.3979282c-0.0399513,0-0.0799026-0.0152493-0.1103992-0.0457458l-0.6627102-0.662405
			c-0.0609951-0.0609951-0.0609951-0.1598072,0-0.2208023c0.0609932-0.0609951,0.1598053-0.0609951,0.2208004,0l0.6627102,0.662405
			c0.0609951,0.0609951,0.0609951,0.1598072,0,0.2208023C28.2316666,30.382679,28.1917152,30.3979282,28.151762,30.3979282z
			 M26.1642418,29.7975845c-0.0399513,0-0.0799026-0.0152473-0.1104012-0.0457458
			c-0.0609951-0.0609951-0.0609951-0.1598072,0-0.2208023l0.662405-0.662405c0.0609951-0.0609951,0.1598072-0.0609951,0.2208023,0
			s0.0609951,0.1598072,0,0.2208023l-0.662405,0.662405C26.2441444,29.7823372,26.2041931,29.7975845,26.1642418,29.7975845z"/>
	</g>
	<g>
		<path class="st3" d="M22.5579147,30.0554409h-0.0054913c-0.3315067,0-0.6538658-0.0634346-0.9579258-0.1884747
			c-0.0795975-0.0327835-0.1177197-0.1241245-0.0850868-0.2038746c0.0332413-0.079752,0.1241245-0.1171112,0.2040272-0.0849361
			c0.2659378,0.1094856,0.5483456,0.1649914,0.8389854,0.1649914c0.0863094,0,0.1588936,0.0698395,0.1588936,0.156147
			S22.6442223,30.0554409,22.5579147,30.0554409z M23.4612503,29.8744392c-0.0609951,0-0.1192455-0.0361404-0.1442547-0.0960674
			c-0.0329361-0.0795975,0.0045757-0.1710911,0.0841732-0.2041798c0.2683792-0.111927,0.5086994-0.2732582,0.7142525-0.4795742
			c0.0609951-0.0613003,0.1601105-0.0609951,0.2211056-0.0003052c0.0609951,0.0608425,0.0609951,0.1598072,0.0003052,0.2208023
			c-0.2348309,0.2354412-0.5093079,0.4196453-0.8155022,0.5472775
			C23.501812,29.8706264,23.4813786,29.8744392,23.4612503,29.8744392z M20.886652,29.3689423
			c-0.0396461,0-0.0795994-0.0150948-0.110096-0.0452881c-0.23666-0.2348309-0.4211712-0.5088501-0.5489559-0.8142834
			c-0.0332413-0.0795975,0.0042706-0.1710911,0.0835648-0.2043324c0.0799026-0.032938,0.1713943,0.0042686,0.2043324,0.083868
			c0.1119251,0.2673111,0.2738667,0.5073261,0.4812508,0.7130318c0.0609951,0.0606899,0.0616055,0.1596546,0.0006104,0.2208004
			C20.9668598,29.3535423,20.9269085,29.3689423,20.886652,29.3689423z M24.7375698,28.5950699
			c-0.0198231,0-0.0402565-0.0038128-0.0597763-0.0118942c-0.0795975-0.032938-0.1174145-0.1242771-0.0844765-0.2040291
			c0.1110096-0.2679195,0.1671257-0.5520039,0.1671257-0.844017c0-0.0863075,0.0698395-0.1674309,0.156147-0.1674309
			s0.156147,0.0585537,0.156147,0.1448631v0.0225677c0,0.3331852-0.0643501,0.6573734-0.1909142,0.9635677
			C24.8568153,28.5587769,24.7988701,28.5950699,24.7375698,28.5950699z M20.1882591,27.6969185
			c-0.0863075,0-0.156147-0.0641975-0.156147-0.1505051v-0.0112839c0-0.3296776,0.0625191-0.6500549,0.1860352-0.9522839
			c0.0326309-0.0800571,0.1235142-0.1184826,0.203722-0.0855465c0.0795994,0.0326328,0.1180267,0.1238213,0.0853939,0.2035713
			c-0.1079617,0.2645664-0.1628571,0.5452957-0.1628571,0.834259
			C20.3444061,27.6214371,20.2745667,27.6969185,20.1882591,27.6969185z M24.7290306,26.7668972
			c-0.0606899,0-0.11833-0.0356827-0.1436443-0.0951519c-0.113451-0.2668533-0.2763062-0.5061054-0.4846039-0.7108955
			c-0.0616055-0.0605392-0.0622158-0.1593494-0.0018311-0.2208023c0.0603848-0.061758,0.1591969-0.0620632,0.2208023-0.0018311
			c0.2375755,0.2337646,0.4236107,0.5067158,0.5529194,0.8115387c0.0338516,0.0792942-0.003355,0.1710911-0.0826473,0.2047901
			C24.7702007,26.7629337,24.749464,26.7668972,24.7290306,26.7668972z M20.8707924,26.0294685
			c-0.0396461,0-0.0792923-0.0149441-0.1097908-0.0451374c-0.0613003-0.0605373-0.0619087-0.1593494-0.0012188-0.2208004
			c0.2339153-0.2366619,0.5071716-0.4220867,0.8127575-0.5510902c0.0786839-0.0330906,0.1707859,0.003355,0.2046375,0.0829525
			c0.0335484,0.0794468-0.0036602,0.1710911-0.0832577,0.2046394c-0.2674637,0.1131458-0.5071735,0.2755451-0.7121162,0.4830799
			C20.9513054,26.0139141,20.9110489,26.0294685,20.8707924,26.0294685z M23.4402065,25.4995747
			c-0.0195179,0-0.0393429-0.0036602-0.0588608-0.0114365c-0.2631931-0.1068935-0.5419407-0.1610279-0.8289223-0.1610279
			c-0.0863075,0-0.1646862-0.0698376-0.1646862-0.156147c0-0.0863075,0.0613003-0.156147,0.1476078-0.156147h0.0170784
			c0.3272381,0,0.645937,0.0619106,0.9466419,0.1839008c0.0799046,0.0324802,0.1183319,0.1235142,0.0856991,0.2034187
			C23.5603657,25.4628258,23.501812,25.4995747,23.4402065,25.4995747z"/>
	</g>
</g>
</svg>
