<svg width="143" height="52" viewBox="0 0 143 52" fill="none" xmlns="http://www.w3.org/2000/svg">
<path d="M18.4969 32.7398C17.5441 32.1688 16.5912 31.5977 15.6383 31.0267C14.876 31.5977 14.1137 32.3591 13.1608 32.9302C12.2079 33.5012 11.2551 33.6916 10.3022 34.2626C10.3022 35.4047 10.3022 36.5468 10.3022 37.6889C14.3043 39.402 16.21 42.2572 15.4477 45.8738C14.6854 49.1097 12.0174 51.3939 8.58699 51.2035C5.34719 51.2035 2.67912 48.729 2.1074 45.4931C1.53567 42.0668 3.44143 39.2116 7.25295 37.6889C7.25295 36.5468 7.25295 35.4047 7.25295 34.2626C6.8718 34.0722 6.68122 34.0722 6.30007 33.8819C2.67913 32.7398 0.201637 29.5039 0.0110607 25.8873C-0.179515 22.0803 2.1074 18.6541 5.72834 17.512C7.06238 17.1313 7.44353 16.3699 7.25295 15.2278C7.25295 14.6568 7.25295 14.0857 7.25295 13.5147C3.06028 11.8016 1.34509 8.94634 2.1074 5.52008C2.8697 2.28417 5.53777 0 8.77756 0C12.0174 0 14.6854 2.28417 15.4477 5.71043C16.0195 9.13669 14.1137 11.9919 10.3022 13.5147C10.3022 14.6568 10.3022 15.7989 10.3022 16.9409C11.2551 17.3216 12.2079 17.7023 13.1608 18.083C14.1137 18.6541 14.876 19.2251 15.8289 19.9865C16.7818 19.4155 17.7346 18.8444 18.6875 18.2734C18.1158 13.8954 19.6404 10.8498 23.0708 9.70773C26.12 8.75599 29.5504 9.89808 31.075 12.7533C32.7902 15.6085 32.0279 19.2251 29.5504 21.3189C26.8823 23.6031 23.4519 23.4128 20.0216 20.7479C19.0687 21.3189 18.1158 21.89 17.3535 22.2707C17.3535 24.5549 17.3535 26.4583 17.3535 28.7425C18.1158 29.1232 19.0687 29.6942 20.0216 30.2653C23.2614 27.4101 27.2635 27.4101 29.9315 30.0749C32.2184 32.3591 32.5996 35.9757 30.8844 38.6406C29.1692 41.3055 25.9294 42.4475 22.8802 41.3055C19.4498 40.1634 17.9252 37.1178 18.4969 32.7398ZM4.20373 25.5066C4.20373 27.9811 6.1095 30.0749 8.58699 30.0749C11.0645 30.0749 13.1608 28.1715 13.1608 25.6969C13.1608 23.2224 11.2551 21.1286 8.77756 20.9383C6.49065 20.9383 4.39431 22.8417 4.20373 25.5066ZM11.8268 6.85252C11.8268 5.13939 10.4927 3.61661 8.77756 3.61661C7.06238 3.61661 5.53777 4.94904 5.53777 6.66217C5.53777 8.3753 6.8718 9.89808 8.58699 9.89808C10.4927 9.89808 11.8268 8.56565 11.8268 6.85252ZM25.1671 19.2251C26.8823 19.2251 28.2163 17.7023 28.2163 15.9892C28.2163 14.2761 26.6917 12.9436 24.9765 12.9436C23.2613 12.9436 21.9273 14.4664 21.9273 16.1796C22.1179 17.8927 23.4519 19.2251 25.1671 19.2251ZM21.9273 35.024C21.9273 36.7371 23.4519 38.0695 25.1671 38.0695C26.8823 38.0695 28.2163 36.5468 28.2163 34.8336C28.2163 33.1205 26.6917 31.7881 24.9765 31.7881C23.2613 31.7881 21.9273 33.3109 21.9273 35.024ZM8.77756 47.3966C10.4927 47.3966 11.8268 46.0642 11.8268 44.1607C11.8268 42.4475 10.4927 41.1151 8.58699 41.1151C6.8718 41.1151 5.53777 42.4475 5.53777 44.351C5.72834 46.0642 7.06238 47.5869 8.77756 47.3966Z" fill="black"/>
<path d="M105.238 18.3284V42.4396C105.238 43.0538 105.585 43.527 106.148 43.8332L118.596 50.7406C119.156 51.0451 119.845 51.103 120.405 50.7985L132.85 43.8541C133.415 43.5472 133.763 43.0555 133.763 42.4396V18.3071L119.5 26.3369L105.238 18.3284Z" fill="#001959"/>
<path d="M101.021 39.9175V16.6425C101.021 16.2868 101.116 15.8373 101.852 15.493L118.982 5.85049C119.303 5.67739 119.697 5.6774 120.018 5.85049L137.468 15.6715C137.795 15.8476 137.985 15.9629 137.979 16.3679L137.978 39.9175C137.978 40.406 138.549 40.6361 139 40.3993L142.508 38.4291C142.841 38.2546 143 37.9917 143 37.6319V13.5403C143 13.1158 142.85 12.9705 142.527 12.7933L120.024 0.133928C119.7 -0.0441846 119.3 -0.0446724 118.975 0.132649L96.5148 12.7806C96.1909 12.9575 96 13.2592 96 13.6129V37.6319C96 37.979 96.1547 38.2379 96.469 38.4171L100.011 40.4059C100.463 40.6635 101.021 40.4166 101.021 39.9175Z" fill="#001959"/>
<path d="M129.665 16.0683L119.5 10.361H119.5L109.336 16.0683L119.5 21.7759L129.665 16.0683Z" fill="#0063FF"/>
</svg>
