<svg width="164" height="23" viewBox="0 0 164 23" fill="none" xmlns="http://www.w3.org/2000/svg">
<path d="M10.691 0.81789L13.0667 3.19133L2.37577 13.8718L0 11.4984L10.691 0.81789Z" fill="white"/>
<path d="M0 11.4984L2.37605 9.12487L13.067 19.8054L10.6912 22.1788L0 11.4984Z" fill="white"/>
<path d="M18.6868 23L7.17553 11.5L18.6868 0L19.6453 0.957548L17.4095 3.19114L25.7247 11.4982L17.4095 19.8053L19.6471 22.0407L18.6868 23Z" fill="white"/>
<path d="M21.9036 0.817692L19.5278 3.19114L30.2188 13.8716L32.5945 11.4982L21.9036 0.817692Z" fill="white"/>
<path d="M32.5945 11.4982L30.2188 9.12476L19.5278 19.8053L21.9036 22.1787L32.5945 11.4982Z" fill="white"/>
<path d="M50.9296 17.8619H47.6216L42.4203 11.0445V17.8619H39.5492V3.31257H42.4203V9.73505L47.4135 3.31257H50.7215L45.333 10.3794L50.9296 17.8619Z" fill="white"/>
<path d="M58.2676 7.46952H60.9515V17.8619H58.2676V16.6979C57.6157 17.6679 56.5824 18.1529 55.1677 18.1529C54.0303 18.1529 53.0872 17.7718 52.3382 17.0097C51.6031 16.2476 51.2355 15.1945 51.2355 13.8504V7.46952H53.9194V13.5179C53.9194 14.2107 54.1066 14.7442 54.4811 15.1183C54.8556 15.4786 55.3549 15.6587 55.9791 15.6587C56.6726 15.6587 57.2274 15.4439 57.6435 15.0144C58.0596 14.5848 58.2676 13.9405 58.2676 13.0814V7.46952Z" fill="white"/>
<path d="M69.0478 7.17853C70.4486 7.17853 71.6415 7.71201 72.6262 8.77896C73.6249 9.83205 74.1242 11.1276 74.1242 12.6657C74.1242 14.2038 73.6249 15.5063 72.6262 16.5732C71.6415 17.6263 70.4486 18.1529 69.0478 18.1529C67.5914 18.1529 66.4679 17.6471 65.6773 16.6356V17.8619H62.9935V3.31257H65.6773V8.69582C66.4679 7.68429 67.5914 7.17853 69.0478 7.17853ZM66.4887 14.7857C67.0297 15.3262 67.7162 15.5964 68.5484 15.5964C69.3806 15.5964 70.0672 15.3262 70.6081 14.7857C71.1629 14.2315 71.4403 13.5248 71.4403 12.6657C71.4403 11.8066 71.1629 11.1068 70.6081 10.5664C70.0672 10.0122 69.3806 9.73505 68.5484 9.73505C67.7162 9.73505 67.0297 10.0122 66.4887 10.5664C65.9478 11.1068 65.6773 11.8066 65.6773 12.6657C65.6773 13.5248 65.9478 14.2315 66.4887 14.7857Z" fill="white"/>
<path d="M77.8686 13.7673C78.2293 15.0698 79.2071 15.7211 80.8022 15.7211C81.8285 15.7211 82.6053 15.3747 83.1323 14.6818L85.2961 15.9289C84.2697 17.4116 82.7578 18.1529 80.7606 18.1529C79.0407 18.1529 77.6606 17.6333 76.6203 16.594C75.5801 15.5548 75.0599 14.2453 75.0599 12.6657C75.0599 11.0999 75.5731 9.79741 76.5995 8.75817C77.6259 7.70508 78.9436 7.17853 80.5525 7.17853C82.0782 7.17853 83.3334 7.70508 84.3182 8.75817C85.3169 9.81127 85.8162 11.1138 85.8162 12.6657C85.8162 13.0121 85.7815 13.3793 85.7122 13.7673H77.8686ZM77.827 11.6888H83.1323C82.9798 10.9821 82.6608 10.4556 82.1753 10.1092C81.7037 9.76277 81.1628 9.58956 80.5525 9.58956C79.8313 9.58956 79.2348 9.77662 78.7633 10.1508C78.2917 10.511 77.9796 11.0237 77.827 11.6888Z" fill="white"/>
<path d="M89.9575 9.25701C90.2072 8.59189 90.6164 8.09306 91.1851 7.7605C91.7676 7.42795 92.4125 7.26167 93.1199 7.26167V10.2547C92.3016 10.1577 91.5665 10.324 90.9146 10.7535C90.2766 11.1831 89.9575 11.8967 89.9575 12.8943V17.8619H87.2737V7.46952H89.9575V9.25701Z" fill="white"/>
<path d="M101.793 7.46952H104.477V17.8619H101.793V16.6356C100.989 17.6471 99.8585 18.1529 98.4021 18.1529C97.0151 18.1529 95.8223 17.6263 94.8237 16.5732C93.8389 15.5063 93.3465 14.2038 93.3465 12.6657C93.3465 11.1276 93.8389 9.83205 94.8237 8.77896C95.8223 7.71201 97.0151 7.17853 98.4021 7.17853C99.8585 7.17853 100.989 7.68429 101.793 8.69582V7.46952ZM96.8418 14.7857C97.3827 15.3262 98.0693 15.5964 98.9015 15.5964C99.7337 15.5964 100.42 15.3262 100.961 14.7857C101.516 14.2315 101.793 13.5248 101.793 12.6657C101.793 11.8066 101.516 11.1068 100.961 10.5664C100.42 10.0122 99.7337 9.73505 98.9015 9.73505C98.0693 9.73505 97.3827 10.0122 96.8418 10.5664C96.3008 11.1068 96.0304 11.8066 96.0304 12.6657C96.0304 13.5248 96.3008 14.2315 96.8418 14.7857Z" fill="white"/>
<path d="M114.142 3.31257C115.446 3.31257 116.535 3.74905 117.408 4.62201C118.282 5.49497 118.719 6.5827 118.719 7.88521C118.719 9.18772 118.282 10.2755 117.408 11.1484C116.535 12.0214 115.446 12.4579 114.142 12.4579H110.397V17.8619H108.941V3.31257H114.142ZM114.142 11.0861C115.044 11.0861 115.786 10.7881 116.368 10.1923C116.965 9.58263 117.263 8.8136 117.263 7.88521C117.263 6.95683 116.965 6.19472 116.368 5.59889C115.786 4.9892 115.044 4.68436 114.142 4.68436H110.397V11.0861H114.142Z" fill="white"/>
<path d="M121.758 9.19465C122.396 7.93371 123.492 7.30324 125.046 7.30324V8.63346C124.102 8.63346 123.319 8.91059 122.695 9.46485C122.07 10.0191 121.758 10.8921 121.758 12.0837V17.8619H120.385V7.46952H121.758V9.19465Z" fill="white"/>
<path d="M134.599 16.5525C133.545 17.5917 132.255 18.1113 130.729 18.1113C129.203 18.1113 127.906 17.5917 126.838 16.5525C125.784 15.4994 125.257 14.2038 125.257 12.6657C125.257 11.1276 125.784 9.83898 126.838 8.79974C127.906 7.74665 129.203 7.2201 130.729 7.2201C132.255 7.2201 133.545 7.74665 134.599 8.79974C135.667 9.83898 136.201 11.1276 136.201 12.6657C136.201 14.2038 135.667 15.4994 134.599 16.5525ZM127.816 15.5964C128.607 16.3862 129.578 16.7811 130.729 16.7811C131.88 16.7811 132.851 16.3862 133.642 15.5964C134.432 14.7927 134.828 13.8158 134.828 12.6657C134.828 11.5156 134.432 10.5457 133.642 9.75584C132.851 8.95216 131.88 8.55032 130.729 8.55032C129.578 8.55032 128.607 8.95216 127.816 9.75584C127.026 10.5457 126.63 11.5156 126.63 12.6657C126.63 13.8158 127.026 14.7927 127.816 15.5964Z" fill="white"/>
<path d="M143.658 7.2201C145.142 7.2201 146.405 7.74665 147.445 8.79974C148.499 9.85284 149.026 11.1415 149.026 12.6657C149.026 14.1899 148.499 15.4786 147.445 16.5317C146.405 17.5848 145.142 18.1113 143.658 18.1113C141.814 18.1113 140.413 17.3492 139.456 15.825V22.0188H138.083V7.46952H139.456V9.50642C140.413 7.98221 141.814 7.2201 143.658 7.2201ZM140.642 15.5964C141.432 16.3862 142.403 16.7811 143.554 16.7811C144.705 16.7811 145.676 16.3862 146.467 15.5964C147.258 14.7927 147.653 13.8158 147.653 12.6657C147.653 11.5156 147.258 10.5457 146.467 9.75584C145.676 8.95216 144.705 8.55032 143.554 8.55032C142.403 8.55032 141.432 8.95216 140.642 9.75584C139.851 10.5457 139.456 11.5156 139.456 12.6657C139.456 13.8158 139.851 14.7927 140.642 15.5964Z" fill="white"/>
<path d="M155.699 7.2201C157.239 7.2201 158.48 7.76743 159.423 8.8621C160.38 9.9429 160.859 11.2246 160.859 12.7073C160.859 12.8597 160.845 13.0745 160.817 13.3516H151.684C151.822 14.4047 152.266 15.243 153.015 15.8666C153.778 16.4762 154.714 16.7811 155.824 16.7811C156.615 16.7811 157.294 16.6217 157.863 16.303C158.445 15.9705 158.882 15.5409 159.174 15.0144L160.38 15.7211C159.923 16.4555 159.298 17.0374 158.508 17.467C157.717 17.8965 156.816 18.1113 155.803 18.1113C154.166 18.1113 152.835 17.5986 151.809 16.5732C150.782 15.5479 150.269 14.2453 150.269 12.6657C150.269 11.1138 150.775 9.81819 151.788 8.77896C152.8 7.73972 154.104 7.2201 155.699 7.2201ZM155.699 8.55032C154.617 8.55032 153.709 8.87595 152.974 9.52721C152.252 10.1646 151.822 10.996 151.684 12.0214H159.444C159.305 10.9267 158.882 10.0745 158.175 9.46485C157.468 8.85517 156.642 8.55032 155.699 8.55032Z" fill="white"/>
<path d="M162.627 17.8619V2.68903H164V17.8619H162.627Z" fill="white"/>
</svg>
