<svg width="166" height="23" viewBox="0 0 166 23" fill="none" xmlns="http://www.w3.org/2000/svg">
<path d="M115.072 18.1894C112.879 18.1894 111.066 17.462 109.632 16.007C108.198 14.5521 107.481 12.7715 107.481 10.6653C107.481 8.55915 108.198 6.77859 109.632 5.32366C111.066 3.86872 112.879 3.14126 115.072 3.14126C116.41 3.14126 117.637 3.46689 118.754 4.11814C119.871 4.75554 120.733 5.62157 121.339 6.71623L120.057 7.46449C119.602 6.57767 118.926 5.87099 118.03 5.34444C117.134 4.81789 116.148 4.55462 115.072 4.55462C113.266 4.55462 111.79 5.14352 110.646 6.32132C109.501 7.49913 108.929 8.94713 108.929 10.6653C108.929 12.3835 109.501 13.8315 110.646 15.0093C111.79 16.1872 113.266 16.7761 115.072 16.7761C116.148 16.7761 117.134 16.5128 118.03 15.9862C118.926 15.4597 119.602 14.753 120.057 13.8662L121.339 14.5937C120.746 15.6883 119.885 16.5613 118.754 17.2125C117.637 17.8638 116.41 18.1894 115.072 18.1894Z" fill="white"/>
<path d="M127.94 7.29821C129.195 7.29821 130.181 7.68619 130.898 8.46215C131.629 9.22426 131.994 10.2566 131.994 11.5591V17.94H130.629V11.5591C130.629 10.6307 130.381 9.91016 129.884 9.39747C129.402 8.88478 128.712 8.62843 127.816 8.62843C126.823 8.62843 126.016 8.94713 125.396 9.58453C124.775 10.2081 124.465 11.178 124.465 12.4944V17.94H123.1V3.39067H124.465V9.16883C125.237 7.92175 126.396 7.29821 127.94 7.29821Z" fill="white"/>
<path d="M143.114 7.54762H144.48V17.94H143.114V15.9031C142.163 17.4273 140.77 18.1894 138.936 18.1894C137.461 18.1894 136.199 17.6629 135.151 16.6098C134.117 15.5567 133.6 14.268 133.6 12.7438C133.6 11.2196 134.117 9.93094 135.151 8.87785C136.199 7.82475 137.461 7.29821 138.936 7.29821C140.77 7.29821 142.163 8.06031 143.114 9.58453V7.54762ZM136.144 15.6745C136.93 16.4643 137.895 16.8592 139.04 16.8592C140.184 16.8592 141.149 16.4643 141.935 15.6745C142.721 14.8708 143.114 13.8939 143.114 12.7438C143.114 11.5937 142.721 10.6238 141.935 9.83395C141.149 9.03027 140.184 8.62843 139.04 8.62843C137.895 8.62843 136.93 9.03027 136.144 9.83395C135.358 10.6238 134.965 11.5937 134.965 12.7438C134.965 13.8939 135.358 14.8708 136.144 15.6745Z" fill="white"/>
<path d="M155.623 16.6306C154.575 17.6698 153.293 18.1894 151.776 18.1894C150.259 18.1894 148.97 17.6698 147.908 16.6306C146.86 15.5775 146.336 14.2819 146.336 12.7438C146.336 11.2057 146.86 9.91709 147.908 8.87785C148.97 7.82475 150.259 7.29821 151.776 7.29821C153.293 7.29821 154.575 7.82475 155.623 8.87785C156.685 9.91709 157.216 11.2057 157.216 12.7438C157.216 14.2819 156.685 15.5775 155.623 16.6306ZM148.88 15.6745C149.666 16.4643 150.631 16.8592 151.776 16.8592C152.92 16.8592 153.886 16.4643 154.672 15.6745C155.458 14.8708 155.851 13.8939 155.851 12.7438C155.851 11.5937 155.458 10.6238 154.672 9.83395C153.886 9.03027 152.92 8.62843 151.776 8.62843C150.631 8.62843 149.666 9.03027 148.88 9.83395C148.094 10.6238 147.701 11.5937 147.701 12.7438C147.701 13.8939 148.094 14.8708 148.88 15.6745Z" fill="white"/>
<path d="M159.96 10.2704C159.96 10.7415 160.167 11.1157 160.581 11.3928C160.994 11.6699 161.498 11.8847 162.091 12.0371C162.684 12.1896 163.277 12.3628 163.87 12.5567C164.462 12.7369 164.966 13.0487 165.379 13.4921C165.793 13.9216 166 14.4897 166 15.1964C166 16.0832 165.648 16.8038 164.945 17.358C164.256 17.9123 163.359 18.1894 162.256 18.1894C161.263 18.1894 160.415 17.9677 159.712 17.5243C159.022 17.0809 158.54 16.5059 158.264 15.7992L159.422 15.1133C159.615 15.6537 159.96 16.0832 160.457 16.4019C160.967 16.7068 161.567 16.8592 162.256 16.8592C162.932 16.8592 163.497 16.7276 163.952 16.4643C164.407 16.1872 164.635 15.7645 164.635 15.1964C164.635 14.7253 164.428 14.3512 164.014 14.074C163.601 13.7969 163.097 13.5821 162.504 13.4297C161.911 13.2773 161.318 13.111 160.726 12.9309C160.133 12.7369 159.629 12.4251 159.216 11.9956C158.802 11.5522 158.595 10.9771 158.595 10.2704C158.595 9.42518 158.926 8.7185 159.588 8.15038C160.264 7.58227 161.112 7.29821 162.132 7.29821C162.973 7.29821 163.711 7.4922 164.345 7.88018C164.98 8.25431 165.448 8.767 165.752 9.41825L164.614 10.0834C164.214 9.11341 163.387 8.62843 162.132 8.62843C161.539 8.62843 161.029 8.77392 160.601 9.06491C160.174 9.34204 159.96 9.74388 159.96 10.2704Z" fill="white"/>
<path d="M10.6289 0.81789L12.9909 3.19133L2.36198 13.8718L0 11.4984L10.6289 0.81789Z" fill="white"/>
<path d="M0 11.4984L2.36225 9.12487L12.9911 19.8054L10.6292 22.1788L0 11.4984Z" fill="white"/>
<path d="M18.5783 23L7.13387 11.5L18.5783 0L19.5312 0.957548L17.3084 3.19114L25.5753 11.4982L17.3084 19.8053L19.533 22.0407L18.5783 23Z" fill="white"/>
<path d="M21.7764 0.817692L19.4144 3.19114L30.0433 13.8716L32.4053 11.4982L21.7764 0.817692Z" fill="white"/>
<path d="M32.4053 11.4982L30.0433 9.12476L19.4144 19.8053L21.7764 22.1787L32.4053 11.4982Z" fill="white"/>
<path d="M50.6339 17.94H47.3451L42.174 11.1226V17.94H39.3196V3.39067H42.174V9.81316L47.1383 3.39067H50.4271L45.0698 10.4575L50.6339 17.94Z" fill="white"/>
<path d="M57.9293 7.54762H60.5976V17.94H57.9293V16.7761C57.2812 17.746 56.2539 18.231 54.8474 18.231C53.7166 18.231 52.7789 17.8499 52.0343 17.0878C51.3034 16.3257 50.938 15.2726 50.938 13.9285V7.54762H53.6063V13.596C53.6063 14.2888 53.7925 14.8223 54.1648 15.1964C54.5371 15.5567 55.0335 15.7368 55.654 15.7368C56.3435 15.7368 56.8951 15.522 57.3088 15.0925C57.7225 14.6629 57.9293 14.0186 57.9293 13.1595V7.54762Z" fill="white"/>
<path d="M68.6469 7.25664C70.0396 7.25664 71.2255 7.79011 72.2046 8.85706C73.1974 9.91016 73.6938 11.2057 73.6938 12.7438C73.6938 14.2819 73.1974 15.5844 72.2046 16.6513C71.2255 17.7044 70.0396 18.231 68.6469 18.231C67.199 18.231 66.082 17.7252 65.296 16.7137V17.94H62.6277V3.39067H65.296V8.77392C66.082 7.7624 67.199 7.25664 68.6469 7.25664ZM66.1027 14.8639C66.6405 15.4043 67.3231 15.6745 68.1504 15.6745C68.9778 15.6745 69.6604 15.4043 70.1982 14.8639C70.7498 14.3096 71.0256 13.6029 71.0256 12.7438C71.0256 11.8847 70.7498 11.185 70.1982 10.6446C69.6604 10.0903 68.9778 9.81316 68.1504 9.81316C67.3231 9.81316 66.6405 10.0903 66.1027 10.6446C65.5649 11.185 65.296 11.8847 65.296 12.7438C65.296 13.6029 65.5649 14.3096 66.1027 14.8639Z" fill="white"/>
<path d="M77.4165 13.8454C77.7751 15.1479 78.7472 15.7992 80.333 15.7992C81.3534 15.7992 82.1257 15.4528 82.6497 14.7599L84.8008 16.007C83.7804 17.4897 82.2773 18.231 80.2916 18.231C78.5817 18.231 77.2097 17.7114 76.1755 16.6721C75.1413 15.6329 74.6241 14.3235 74.6241 12.7438C74.6241 11.178 75.1344 9.87552 76.1548 8.83628C77.1752 7.78319 78.4852 7.25664 80.0848 7.25664C81.6017 7.25664 82.8496 7.78319 83.8287 8.83628C84.8215 9.88937 85.3179 11.1919 85.3179 12.7438C85.3179 13.0902 85.2835 13.4574 85.2145 13.8454H77.4165ZM77.3752 11.7669H82.6497C82.498 11.0602 82.1808 10.5337 81.6982 10.1873C81.2293 9.84087 80.6915 9.66767 80.0848 9.66767C79.3677 9.66767 78.7748 9.85473 78.306 10.2289C77.8371 10.5891 77.5268 11.1018 77.3752 11.7669Z" fill="white"/>
<path d="M89.4352 9.33511C89.6835 8.67 90.0903 8.17117 90.6556 7.83861C91.2348 7.50605 91.876 7.33978 92.5793 7.33978V10.3328C91.7657 10.2358 91.0348 10.4021 90.3867 10.8316C89.7524 11.2612 89.4352 11.9748 89.4352 12.9724V17.94H86.767V7.54762H89.4352V9.33511Z" fill="white"/>
<path d="M101.202 7.54762H103.871V17.94H101.202V16.7137C100.403 17.7252 99.2787 18.231 97.8308 18.231C96.4519 18.231 95.266 17.7044 94.2731 16.6513C93.2941 15.5844 92.8045 14.2819 92.8045 12.7438C92.8045 11.2057 93.2941 9.91016 94.2731 8.85706C95.266 7.79011 96.4519 7.25664 97.8308 7.25664C99.2787 7.25664 100.403 7.7624 101.202 8.77392V7.54762ZM96.2795 14.8639C96.8173 15.4043 97.4999 15.6745 98.3272 15.6745C99.1546 15.6745 99.8372 15.4043 100.375 14.8639C100.927 14.3096 101.202 13.6029 101.202 12.7438C101.202 11.8847 100.927 11.185 100.375 10.6446C99.8372 10.0903 99.1546 9.81316 98.3272 9.81316C97.4999 9.81316 96.8173 10.0903 96.2795 10.6446C95.7417 11.185 95.4728 11.8847 95.4728 12.7438C95.4728 13.6029 95.7417 14.3096 96.2795 14.8639Z" fill="white"/>
</svg>
