<svg width="220" height="106" viewBox="0 0 220 106" fill="none" xmlns="http://www.w3.org/2000/svg">
<path d="M152.498 100.434C149.593 100.434 147.19 99.4698 145.29 97.542C143.39 95.6143 142.439 93.255 142.439 90.4643C142.439 87.6736 143.39 85.3144 145.29 83.3866C147.19 81.4588 149.593 80.4949 152.498 80.4949C154.27 80.4949 155.896 80.9264 157.376 81.7893C158.856 82.6338 159.998 83.7813 160.802 85.2318L159.103 86.2232C158.5 85.0482 157.605 84.1118 156.417 83.4141C155.229 82.7165 153.923 82.3676 152.498 82.3676C150.104 82.3676 148.149 83.1479 146.633 84.7085C145.116 86.2691 144.358 88.1877 144.358 90.4643C144.358 92.7409 145.116 94.6595 146.633 96.2201C148.149 97.7807 150.104 98.561 152.498 98.561C153.923 98.561 155.229 98.2122 156.417 97.5145C157.605 96.8168 158.5 95.8805 159.103 94.7054L160.802 95.6693C160.016 97.1198 158.874 98.2764 157.376 99.1394C155.896 100.002 154.27 100.434 152.498 100.434Z" fill="white"/>
<path d="M169.548 86.0029C171.211 86.0029 172.517 86.5169 173.467 87.5451C174.435 88.5549 174.92 89.9227 174.92 91.6485V100.103H173.111V91.6485C173.111 90.4184 172.782 89.4637 172.124 88.7844C171.485 88.1051 170.571 87.7654 169.383 87.7654C168.068 87.7654 166.999 88.1877 166.177 89.0323C165.355 89.8584 164.944 91.1436 164.944 92.8878V100.103H163.135V80.8254H164.944V88.4815C165.967 86.8291 167.502 86.0029 169.548 86.0029Z" fill="white"/>
<path d="M189.654 86.3334H191.463V100.103H189.654V97.4043C188.393 99.4239 186.548 100.434 184.118 100.434C182.163 100.434 180.491 99.736 179.102 98.3407C177.732 96.9454 177.047 95.2379 177.047 93.2183C177.047 91.1987 177.732 89.4912 179.102 88.0959C180.491 86.7005 182.163 86.0029 184.118 86.0029C186.548 86.0029 188.393 87.0127 189.654 89.0323V86.3334ZM180.418 97.1014C181.459 98.1479 182.738 98.6712 184.255 98.6712C185.771 98.6712 187.05 98.1479 188.092 97.1014C189.133 96.0365 189.654 94.7422 189.654 93.2183C189.654 91.6944 189.133 90.4092 188.092 89.3627C187.05 88.2979 185.771 87.7654 184.255 87.7654C182.738 87.7654 181.459 88.2979 180.418 89.3627C179.376 90.4092 178.856 91.6944 178.856 93.2183C178.856 94.7422 179.376 96.0365 180.418 97.1014Z" fill="white"/>
<path d="M206.228 98.3682C204.839 99.7452 203.14 100.434 201.13 100.434C199.12 100.434 197.412 99.7452 196.005 98.3682C194.617 96.9729 193.922 95.2562 193.922 93.2183C193.922 91.1804 194.617 89.4729 196.005 88.0959C197.412 86.7005 199.12 86.0029 201.13 86.0029C203.14 86.0029 204.839 86.7005 206.228 88.0959C207.635 89.4729 208.338 91.1804 208.338 93.2183C208.338 95.2562 207.635 96.9729 206.228 98.3682ZM197.293 97.1014C198.335 98.1479 199.614 98.6712 201.13 98.6712C202.647 98.6712 203.926 98.1479 204.967 97.1014C206.009 96.0365 206.529 94.7422 206.529 93.2183C206.529 91.6944 206.009 90.4092 204.967 89.3627C203.926 88.2979 202.647 87.7654 201.13 87.7654C199.614 87.7654 198.335 88.2979 197.293 89.3627C196.252 90.4092 195.731 91.6944 195.731 93.2183C195.731 94.7422 196.252 96.0365 197.293 97.1014Z" fill="white"/>
<path d="M211.975 89.9411C211.975 90.5653 212.249 91.061 212.797 91.4282C213.345 91.7954 214.012 92.08 214.797 92.2819C215.583 92.4839 216.369 92.7134 217.154 92.9704C217.94 93.2091 218.607 93.6222 219.155 94.2097C219.703 94.7789 219.977 95.5316 219.977 96.468C219.977 97.643 219.511 98.5977 218.58 99.3321C217.666 100.067 216.478 100.434 215.017 100.434C213.701 100.434 212.578 100.14 211.646 99.5525C210.732 98.9649 210.093 98.203 209.727 97.2666L211.262 96.3578C211.518 97.0739 211.975 97.643 212.632 98.0653C213.308 98.4692 214.103 98.6712 215.017 98.6712C215.912 98.6712 216.661 98.4968 217.264 98.1479C217.867 97.7807 218.168 97.2207 218.168 96.468C218.168 95.8438 217.894 95.348 217.346 94.9808C216.798 94.6136 216.131 94.3291 215.346 94.1271C214.56 93.9252 213.774 93.7048 212.989 93.4662C212.203 93.2091 211.536 92.796 210.988 92.2269C210.44 91.6394 210.166 90.8774 210.166 89.9411C210.166 88.8211 210.604 87.8848 211.481 87.132C212.377 86.3793 213.5 86.0029 214.852 86.0029C215.967 86.0029 216.944 86.2599 217.785 86.774C218.625 87.2697 219.246 87.949 219.648 88.8119L218.141 89.6932C217.611 88.408 216.515 87.7654 214.852 87.7654C214.067 87.7654 213.391 87.9582 212.824 88.3438C212.258 88.711 211.975 89.2434 211.975 89.9411Z" fill="white"/>
<path d="M14.1106 76.6091L17.2402 79.7539L3.15696 93.9056L0.0273438 90.7608L14.1106 76.6091Z" fill="white"/>
<path d="M0.0273438 90.7608L3.15733 87.6158L17.2406 101.768L14.111 104.912L0.0273438 90.7608Z" fill="white"/>
<path d="M24.6436 106L9.47972 90.7629L24.6436 75.5254L25.9062 76.7941L22.961 79.7537L33.9147 90.7605L22.961 101.767L25.9086 104.729L24.6436 106Z" fill="white"/>
<path d="M28.8811 76.6088L25.7515 79.7536L39.8347 93.9053L42.9643 90.7605L28.8811 76.6088Z" fill="white"/>
<path d="M42.9643 90.7605L39.8347 87.6157L25.7515 101.767L28.8811 104.912L42.9643 90.7605Z" fill="white"/>
<path d="M67.1173 100.103H62.7596L55.9079 91.0702V100.103H52.1258V80.8254H55.9079V89.3352L62.4855 80.8254H66.8432L59.7449 90.1889L67.1173 100.103Z" fill="white"/>
<path d="M76.7837 86.3334H80.3192V100.103H76.7837V98.561C75.9249 99.8462 74.5638 100.489 72.7001 100.489C71.2019 100.489 69.9594 99.9839 68.9728 98.9741C68.0044 97.9643 67.5202 96.569 67.5202 94.7881V86.3334H71.0557V94.3474C71.0557 95.2654 71.3023 95.9723 71.7957 96.468C72.289 96.9454 72.9467 97.184 73.769 97.184C74.6825 97.184 75.4134 96.8995 75.9615 96.3303C76.5096 95.7611 76.7837 94.9074 76.7837 93.7691V86.3334Z" fill="white"/>
<path d="M90.9844 85.9478C92.8298 85.9478 94.4011 86.6546 95.6984 88.0684C97.0139 89.4637 97.6717 91.1804 97.6717 93.2183C97.6717 95.2562 97.0139 96.9821 95.6984 98.3958C94.4011 99.7911 92.8298 100.489 90.9844 100.489C89.066 100.489 87.586 99.8187 86.5445 98.4784V100.103H83.0091V80.8254H86.5445V87.9582C87.586 86.6179 89.066 85.9478 90.9844 85.9478ZM87.6134 96.0274C88.326 96.7434 89.2304 97.1014 90.3267 97.1014C91.4229 97.1014 92.3274 96.7434 93.0399 96.0274C93.7708 95.293 94.1362 94.3566 94.1362 93.2183C94.1362 92.08 93.7708 91.1528 93.0399 90.4368C92.3274 89.7024 91.4229 89.3352 90.3267 89.3352C89.2304 89.3352 88.326 89.7024 87.6134 90.4368C86.9008 91.1528 86.5445 92.08 86.5445 93.2183C86.5445 94.3566 86.9008 95.293 87.6134 96.0274Z" fill="white"/>
<path d="M102.604 94.6779C103.079 96.4037 104.367 97.2666 106.469 97.2666C107.821 97.2666 108.844 96.8077 109.538 95.8897L112.388 97.542C111.036 99.5066 109.045 100.489 106.414 100.489C104.148 100.489 102.33 99.8003 100.96 98.4233C99.5895 97.0463 98.9043 95.3113 98.9043 93.2183C98.9043 91.1436 99.5804 89.4178 100.932 88.0408C102.284 86.6455 104.02 85.9478 106.14 85.9478C108.15 85.9478 109.803 86.6455 111.1 88.0408C112.416 89.4362 113.074 91.162 113.074 93.2183C113.074 93.6773 113.028 94.1638 112.937 94.6779H102.604ZM102.549 91.9239H109.538C109.337 90.9876 108.917 90.2899 108.277 89.8309C107.656 89.3719 106.944 89.1424 106.14 89.1424C105.19 89.1424 104.404 89.3903 103.783 89.886C103.162 90.3633 102.75 91.0427 102.549 91.9239Z" fill="white"/>
<path d="M118.529 88.7018C118.858 87.8205 119.397 87.1595 120.146 86.7189C120.913 86.2783 121.763 86.058 122.695 86.058V90.0237C121.617 89.8952 120.648 90.1155 119.79 90.6846C118.949 91.2538 118.529 92.1993 118.529 93.5212V100.103H114.994V86.3334H118.529V88.7018Z" fill="white"/>
<path d="M134.12 86.3334H137.656V100.103H134.12V98.4784C133.061 99.8187 131.572 100.489 129.653 100.489C127.826 100.489 126.255 99.7911 124.939 98.3958C123.642 96.9821 122.993 95.2562 122.993 93.2183C122.993 91.1804 123.642 89.4637 124.939 88.0684C126.255 86.6546 127.826 85.9478 129.653 85.9478C131.572 85.9478 133.061 86.6179 134.12 87.9582V86.3334ZM127.598 96.0274C128.31 96.7434 129.215 97.1014 130.311 97.1014C131.407 97.1014 132.312 96.7434 133.024 96.0274C133.755 95.293 134.12 94.3566 134.12 93.2183C134.12 92.08 133.755 91.1528 133.024 90.4368C132.312 89.7024 131.407 89.3352 130.311 89.3352C129.215 89.3352 128.31 89.7024 127.598 90.4368C126.885 91.1528 126.529 92.08 126.529 93.2183C126.529 94.3566 126.885 95.293 127.598 96.0274Z" fill="white"/>
<path d="M15.5171 1.0837L18.665 4.22852L4.49946 18.3802L1.35156 15.2354L15.5171 1.0837Z" fill="white"/>
<path d="M1.35156 15.2354L4.49982 12.0905L18.6653 26.2421L15.5175 29.3869L1.35156 15.2354Z" fill="white"/>
<path d="M26.1116 30.475L10.8591 15.2375L26.1116 0L27.3816 1.26875L24.4191 4.22826L35.4368 15.2351L24.4192 26.242L27.3839 29.2039L26.1116 30.475Z" fill="white"/>
<path d="M30.3738 1.08344L27.2259 4.22826L41.3914 18.3799L44.5393 15.2351L30.3738 1.08344Z" fill="white"/>
<path d="M44.5393 15.2351L41.3914 12.0903L27.2259 26.242L30.3738 29.3868L44.5393 15.2351Z" fill="white"/>
<path d="M68.8333 23.667H64.4502L57.5585 14.634V23.667H53.7543V4.38915H57.5585V12.8989L64.1745 4.38915H68.5576L61.4178 13.7527L68.8333 23.667Z" fill="white"/>
<path d="M78.5562 9.89711H82.1123V23.667H78.5562V22.1248C77.6924 23.41 76.3233 24.0526 74.4487 24.0526C72.9417 24.0526 71.692 23.5477 70.6996 22.5379C69.7256 21.5281 69.2386 20.1327 69.2386 18.3518V9.89711H72.7947V17.9112C72.7947 18.8292 73.0428 19.536 73.539 20.0318C74.0352 20.5091 74.6968 20.7478 75.5238 20.7478C76.4427 20.7478 77.1778 20.4632 77.7292 19.8941C78.2805 19.3249 78.5562 18.4712 78.5562 17.3329V9.89711Z" fill="white"/>
<path d="M92.8399 9.51155C94.696 9.51155 96.2765 10.2184 97.5813 11.6321C98.9045 13.0275 99.5661 14.7441 99.5661 16.7821C99.5661 18.82 98.9045 20.5458 97.5813 21.9595C96.2765 23.3549 94.696 24.0526 92.8399 24.0526C90.9102 24.0526 89.4216 23.3824 88.374 22.0422V23.667H84.8179V4.38915H88.374V11.522C89.4216 10.1817 90.9102 9.51155 92.8399 9.51155ZM89.4491 19.5911C90.1659 20.3072 91.0756 20.6652 92.1782 20.6652C93.2809 20.6652 94.1906 20.3072 94.9074 19.5911C95.6425 18.8567 96.01 17.9204 96.01 16.7821C96.01 15.6437 95.6425 14.7166 94.9074 14.0005C94.1906 13.2661 93.2809 12.8989 92.1782 12.8989C91.0756 12.8989 90.1659 13.2661 89.4491 14.0005C88.7324 14.7166 88.374 15.6437 88.374 16.7821C88.374 17.9204 88.7324 18.8567 89.4491 19.5911Z" fill="white"/>
<path d="M104.528 18.2417C105.005 19.9675 106.301 20.8304 108.414 20.8304C109.774 20.8304 110.804 20.3714 111.502 19.4534L114.369 21.1058C113.009 23.0703 111.006 24.0526 108.359 24.0526C106.08 24.0526 104.252 23.3641 102.874 21.9871C101.495 20.6101 100.806 18.8751 100.806 16.7821C100.806 14.7074 101.486 12.9816 102.846 11.6046C104.206 10.2092 105.952 9.51155 108.084 9.51155C110.105 9.51155 111.768 10.2092 113.073 11.6046C114.396 12.9999 115.058 14.7258 115.058 16.7821C115.058 17.2411 115.012 17.7276 114.92 18.2417H104.528ZM104.472 15.4877H111.502C111.3 14.5513 110.877 13.8537 110.234 13.3947C109.609 12.9357 108.892 12.7062 108.084 12.7062C107.128 12.7062 106.338 12.954 105.713 13.4497C105.088 13.9271 104.675 14.6064 104.472 15.4877Z" fill="white"/>
<path d="M120.545 12.2655C120.876 11.3843 121.418 10.7233 122.172 10.2827C122.944 9.84203 123.798 9.62171 124.735 9.62171V13.5874C123.651 13.4589 122.677 13.6792 121.813 14.2484C120.968 14.8176 120.545 15.7631 120.545 17.085V23.667H116.989V9.89711H120.545V12.2655Z" fill="white"/>
<path d="M136.228 9.89711H139.784V23.667H136.228V22.0422C135.162 23.3824 133.664 24.0526 131.734 24.0526C129.897 24.0526 128.316 23.3549 126.993 21.9595C125.688 20.5458 125.036 18.82 125.036 16.7821C125.036 14.7441 125.688 13.0275 126.993 11.6321C128.316 10.2184 129.897 9.51155 131.734 9.51155C133.664 9.51155 135.162 10.1817 136.228 11.522V9.89711ZM129.667 19.5911C130.384 20.3072 131.293 20.6652 132.396 20.6652C133.499 20.6652 134.408 20.3072 135.125 19.5911C135.86 18.8567 136.228 17.9204 136.228 16.7821C136.228 15.6437 135.86 14.7166 135.125 14.0005C134.408 13.2661 133.499 12.8989 132.396 12.8989C131.293 12.8989 130.384 13.2661 129.667 14.0005C128.95 14.7166 128.592 15.6437 128.592 16.7821C128.592 17.9204 128.95 18.8567 129.667 19.5911Z" fill="white"/>
<path d="M152.59 4.38915C154.317 4.38915 155.76 4.96749 156.918 6.12416C158.076 7.28083 158.654 8.72208 158.654 10.4479C158.654 12.1737 158.076 13.615 156.918 14.7717C155.76 15.9283 154.317 16.5067 152.59 16.5067H147.628V23.667H145.698V4.38915H152.59ZM152.59 14.689C153.784 14.689 154.768 14.2943 155.539 13.5048C156.33 12.697 156.725 11.678 156.725 10.4479C156.725 9.2178 156.33 8.208 155.539 7.41853C154.768 6.6107 153.784 6.20678 152.59 6.20678H147.628V14.689H152.59Z" fill="white"/>
<path d="M162.681 12.1829C163.527 10.5122 164.979 9.67679 167.037 9.67679V11.4393C165.787 11.4393 164.749 11.8065 163.922 12.5409C163.095 13.2753 162.681 14.432 162.681 16.0109V23.667H160.862V9.89711H162.681V12.1829Z" fill="white"/>
<path d="M179.695 21.932C178.298 23.309 176.589 23.9975 174.568 23.9975C172.546 23.9975 170.828 23.309 169.413 21.932C168.016 20.5367 167.317 18.82 167.317 16.7821C167.317 14.7441 168.016 13.0366 169.413 11.6597C170.828 10.2643 172.546 9.56663 174.568 9.56663C176.589 9.56663 178.298 10.2643 179.695 11.6597C181.11 13.0366 181.818 14.7441 181.818 16.7821C181.818 18.82 181.11 20.5367 179.695 21.932ZM170.708 20.6652C171.756 21.7117 173.042 22.2349 174.568 22.2349C176.093 22.2349 177.379 21.7117 178.427 20.6652C179.474 19.6003 179.998 18.3059 179.998 16.7821C179.998 15.2582 179.474 13.973 178.427 12.9265C177.379 11.8616 176.093 11.3292 174.568 11.3292C173.042 11.3292 171.756 11.8616 170.708 12.9265C169.661 13.973 169.137 15.2582 169.137 16.7821C169.137 18.3059 169.661 19.6003 170.708 20.6652Z" fill="white"/>
<path d="M191.699 9.56663C193.665 9.56663 195.338 10.2643 196.716 11.6597C198.113 13.055 198.811 14.7625 198.811 16.7821C198.811 18.8016 198.113 20.5091 196.716 21.9045C195.338 23.2998 193.665 23.9975 191.699 23.9975C189.255 23.9975 187.398 22.9877 186.13 20.9681V29.175H184.311V9.89711H186.13V12.596C187.398 10.5764 189.255 9.56663 191.699 9.56663ZM187.702 20.6652C188.749 21.7117 190.036 22.2349 191.561 22.2349C193.086 22.2349 194.373 21.7117 195.42 20.6652C196.468 19.6003 196.992 18.3059 196.992 16.7821C196.992 15.2582 196.468 13.973 195.42 12.9265C194.373 11.8616 193.086 11.3292 191.561 11.3292C190.036 11.3292 188.749 11.8616 187.702 12.9265C186.654 13.973 186.13 15.2582 186.13 16.7821C186.13 18.3059 186.654 19.6003 187.702 20.6652Z" fill="white"/>
<path d="M207.653 9.56663C209.693 9.56663 211.338 10.2918 212.587 11.7423C213.855 13.1743 214.489 14.8726 214.489 16.8371C214.489 17.0391 214.471 17.3237 214.434 17.6909H202.332C202.516 19.0862 203.104 20.197 204.097 21.0232C205.108 21.831 206.348 22.2349 207.818 22.2349C208.866 22.2349 209.766 22.0238 210.52 21.6015C211.292 21.1609 211.871 20.5917 212.256 19.8941L213.855 20.8304C213.249 21.8035 212.422 22.5746 211.374 23.1438C210.327 23.7129 209.132 23.9975 207.791 23.9975C205.622 23.9975 203.858 23.3182 202.498 21.9595C201.138 20.6009 200.458 18.8751 200.458 16.7821C200.458 14.7258 201.129 13.0091 202.47 11.6321C203.812 10.2551 205.539 9.56663 207.653 9.56663ZM207.653 11.3292C206.219 11.3292 205.016 11.7606 204.042 12.6236C203.086 13.4681 202.516 14.5697 202.332 15.9283H212.615C212.431 14.4779 211.871 13.3488 210.933 12.5409C209.996 11.7331 208.903 11.3292 207.653 11.3292Z" fill="white"/>
<path d="M216.832 23.667V3.56296H218.652V23.667H216.832Z" fill="white"/>
<path d="M115.134 53.925H115.465V53.5938V52.2582V51.9269H115.134H110.907V47.7002V47.3689H110.576H109.261H108.93V47.7002V51.9269H104.703H104.372V52.2582V53.5938V53.925H104.703H108.93V58.1518V58.483H109.261H110.576H110.907V58.1518V53.925H115.134Z" fill="white" stroke="white" stroke-width="0.6625"/>
</svg>
