<svg width="1115" height="175" viewBox="0 0 1115 175" fill="none" xmlns="http://www.w3.org/2000/svg">
<path d="M391.027 103.426C428.021 103.426 446.518 77.738 446.518 52.048C446.518 26.36 428.02 1.69502 388.972 1.69502C360.199 0.666016 254.355 0.666016 254.355 0.666016V174.334H287.234V28.413C312.925 28.413 377.664 28.413 391.024 28.413C409.52 28.413 418.769 34.576 418.769 52.048C418.769 66.433 409.522 74.654 392.051 74.654H305.736L408.497 173.302H448.575L374.584 101.37C381.78 103.426 390 103.426 391.027 103.426Z" fill="white"/>
<path d="M512.285 0.669067H480.429V174.334H512.285V0.669067Z" fill="white"/>
<path d="M916.137 27.3871V0.669067H848.313H816.457H759.938L741.441 27.3871H816.457V174.334H848.313V27.3871H916.137Z" fill="white"/>
<path d="M678.756 72.6001C662.315 72.6001 621.213 72.6001 597.574 72.6001C581.136 72.6001 571.885 65.4081 571.885 51.0201C571.885 34.5801 583.19 27.3871 597.574 27.3871C620.183 27.3871 708.554 27.3871 708.554 27.3871L722.941 0.669067C722.941 0.669067 615.043 0.669067 596.546 0.669067C567.771 0.669067 544.139 22.2461 544.139 52.0511C544.139 78.7661 566.747 100.345 597.573 100.345C615.046 100.345 667.45 100.345 678.755 100.345C697.255 100.345 707.53 108.569 707.53 123.982C707.53 137.339 696.225 146.59 678.755 146.59H566.748L550.308 174.334C550.308 174.334 648.957 174.334 682.866 174.334C716.778 174.334 735.272 149.676 735.272 121.93C735.275 96.2331 713.695 72.6001 678.756 72.6001Z" fill="white"/>
<path d="M104.325 11.972C97.133 23.272 1.564 174.334 1.564 174.334H35.474L67.332 122.953H135.154L152.624 95.207H84.8L121.793 35.605L208.114 173.302H242.025C242.025 173.302 147.483 24.301 139.26 10.943C130.013 -2.41301 113.574 -1.38701 104.325 11.972Z" fill="white"/>
<path d="M1079.52 174.334H1113.44C1113.44 174.334 1018.9 25.331 1010.67 11.972C1001.43 -3.44304 984.982 -2.41304 975.733 10.944C968.538 22.245 872.971 173.303 872.971 173.303H906.881L938.736 121.925H1007.59L1025.06 94.179H957.235L994.231 34.576L1079.52 174.334Z" fill="white"/>
</svg>
