<svg width="258" height="48" viewBox="0 0 258 48" fill="none" xmlns="http://www.w3.org/2000/svg">
<g clip-path="url(#clip0)">
<path d="M0 0H18.9C22.5 0 25.2 0.900001 27.2 2.4C29.4 4.2 30.6 6.8 30.6 10C30.6 13.7 29.1 16 26.1 17.4V17.6C30.1 18.9 32.4 22.5 32.4 26.8C32.4 30.9 30.8 34.1 28.2 36.1C26 37.7 23.2 38.4 19.4 38.4H0V0ZM17 15C19 15 20.5 13.9 20.5 11.6C20.5 9.4 19 8.3 16.9 8.3H10.4V14.9H17V15ZM17.9 29.9C20.2 29.9 21.9 28.5 21.9 26C21.9 23.3 20.1 22.1 17.9 22.1H10.5V30H17.9V29.9Z" fill="white"/>
<path d="M34.1 0H44V38.5H34.1V0Z" fill="white"/>
<path d="M46 24.8C46 16.1 51.6 10.3 60.3 10.3C69 10.3 74.5 16.2 74.5 24.8C74.5 33.5 69 39.3 60.3 39.3C51.6 39.3 46 33.5 46 24.8ZM64.6 24.8C64.6 20 63.1 17 60.1 17C57.1 17 55.7 20 55.7 24.8C55.7 29.6 57.1 32.7 60.1 32.7C63.1 32.6 64.6 29.6 64.6 24.8Z" fill="white"/>
<path d="M75.6 24.8C75.6 16.1 81.2 10.3 89.9 10.3C98.6 10.3 104 16.1 104 24.8C104 33.5 98.5 39.3 89.8 39.3C81.2 39.3 75.6 33.5 75.6 24.8ZM94.2 24.8C94.2 20 92.7 17 89.7 17C86.7 17 85.3 20 85.3 24.8C85.3 29.6 86.7 32.7 89.7 32.7C92.7 32.6 94.2 29.6 94.2 24.8Z" fill="white"/>
<path d="M106 11H115.2V15.1H115.4C117.2 11.9 119.7 10.2 123.7 10.2C127.2 10.2 129.8 11.9 131.1 14.9H131.3C133.5 11.3 136.4 10.2 139.8 10.2C146.2 10.2 148.9 14.9 148.9 21.2V38.4H139.3V22.9C139.3 20.1 138.4 18.3 136 18.3C133.6 18.3 132.4 20.5 132.4 23.5V38.4H122.8V22.9C122.8 20.1 121.9 18.3 119.5 18.3C117.1 18.3 115.9 20.5 115.9 23.5V38.4H106C106 38.4 106 11 106 11Z" fill="white"/>
<path d="M161 34.8H160.9V38.4H151.7V0H161.3V13.8H161.5C163.3 11.4 165.8 10.1 169.3 10.1C176.2 10.1 180.2 16.3 180.2 24.6C180.2 33.9 175.9 39.3 168.7 39.3C165.7 39.3 162.6 37.9 161 34.8ZM170.3 24.5C170.3 20.1 168.7 17.2 165.8 17.2C162.8 17.2 161 20.1 161 24.5C161 28.9 162.9 31.8 165.8 31.8C168.7 31.8 170.3 29 170.3 24.5Z" fill="white"/>
<path d="M181.3 24.7C181.3 16.1 187 10.2 195.2 10.2C199.3 10.2 202.4 11.5 204.8 13.8C208 16.9 209.4 21.7 209.3 27.3H190.9C191.3 30.7 192.9 32.5 195.8 32.5C197.5 32.5 199 31.7 199.6 29.9H208.9C207.3 36.2 202.4 39.3 195.5 39.3C187 39.2 181.3 33.4 181.3 24.7ZM190.9 21.8H199.7C199.5 18.5 197.7 16.8 195.4 16.8C192.7 16.7 191.2 18.6 190.9 21.8Z" fill="white"/>
<path d="M220.2 15.7H220.4C222.4 11.9 225 10.4 228.3 10.4C229.1 10.4 229.6 10.5 229.9 10.7V19.1H229.7C224 18.1 220.7 20.8 220.7 27V38.5H211V11H220.2V15.7Z" fill="white"/>
<path d="M230.9 38.5H240.2C240.6 39.7 241.8 40.8 244.1 40.8C247.2 40.8 248.3 38.9 248.3 36V34H248.1C246.6 35.8 244.5 37.1 241.5 37.1C235.6 37.1 230.4 32.7 230.4 24.1C230.4 16.2 234.6 10.1 241 10.1C244.7 10.1 246.9 11.6 248.4 13.9H248.6V10.9H257.8V34.7C257.8 39.1 256.3 42.5 254 44.5C251.6 46.6 248.2 47.5 244.3 47.5C236.9 47.6 231.8 44.6 230.9 38.5ZM248.7 23.7C248.7 20.3 247.1 17.5 244.3 17.5C241.6 17.5 239.9 19.9 239.9 23.7C239.9 27.4 241.6 30 244.3 30C247 30 248.7 27.3 248.7 23.7Z" fill="white"/>
</g>
<defs>
<clipPath id="clip0">
<rect width="257.8" height="47.6" fill="white"/>
</clipPath>
</defs>
</svg>
