<svg width="74" height="38" viewBox="0 0 74 38" fill="none" xmlns="http://www.w3.org/2000/svg">
<path fill-rule="evenodd" clip-rule="evenodd" d="M44.4302 2.36028C44.9923 3.49296 44.6613 4.98074 44.0763 5.99907L39.5347 16.2149L39.4962 16.2606L37.8543 5.89917C37.7231 4.90491 38.7872 4.48 39.4119 4.00213C39.3806 3.85528 39.2181 3.8637 39.1182 3.79389L37.5835 3.77824L37.5378 3.7325C37.545 2.44454 38.2395 1.25769 39.4119 0.632963C40.6373 -0.0760181 42.3646 0.116574 43.4275 1.02657C43.8596 1.41176 44.2219 1.85833 44.4302 2.36028Z" fill="white"/>
<path fill-rule="evenodd" clip-rule="evenodd" d="M36.0649 2.00543C36.4344 2.69154 36.6511 3.47033 36.5199 4.33339L34.6698 16.1995C34.677 16.2151 34.6614 16.2308 34.6469 16.238L34.1679 15.2823L29.5264 4.91959C29.0955 3.58589 29.4963 2.1908 30.4677 1.23385C31.4463 0.239592 33.0581 -0.0300372 34.3376 0.510426C35.0165 0.802926 35.6641 1.34219 36.0649 2.00543Z" fill="white"/>
<path fill-rule="evenodd" clip-rule="evenodd" d="M51.145 7.0014C51.7698 8.06547 51.6313 9.67723 50.9368 10.6643C50.5059 11.3576 49.7957 11.7043 49.195 12.1593L39.581 18.7592H39.5582L39.6653 18.4426L44.7618 6.94001C45.5249 5.58223 46.9814 4.89732 48.5246 5.10436C49.5802 5.29816 50.6359 5.98427 51.145 7.0014Z" fill="white"/>
<path fill-rule="evenodd" clip-rule="evenodd" d="M29.3037 6.93989L34.6084 18.7591H34.523L23.8293 11.3876C22.7423 10.4716 22.2957 9.09813 22.6653 7.71026C22.9433 6.67026 23.8064 5.69887 24.8319 5.31369C26.5123 4.69619 28.4094 5.351 29.3037 6.93989Z" fill="white"/>
<path fill-rule="evenodd" clip-rule="evenodd" d="M53.9364 15.3435C54.4685 16.469 54.2602 18.011 53.4971 18.9667C52.7411 19.8851 51.7312 20.3859 50.5432 20.3546L39.1417 20.363L48.6931 13.7161C49.6272 13.1155 51.0451 13.0072 52.0623 13.4935C52.8495 13.8016 53.5898 14.572 53.9364 15.3435Z" fill="white"/>
<path fill-rule="evenodd" clip-rule="evenodd" d="M20.1751 15.3435C19.643 16.469 19.8513 18.011 20.6144 18.9667C21.3703 19.8851 22.3802 20.3859 23.5671 20.3546L34.971 20.363L25.4184 13.7161C24.4855 13.1155 23.0664 13.0072 22.048 13.4935C21.262 13.8016 20.5217 14.572 20.1751 15.3435Z" fill="white"/>
<path fill-rule="evenodd" clip-rule="evenodd" d="M16.678 35.8852C14.2559 35.8852 12.2853 33.9139 12.2853 31.4931C12.2853 29.0731 14.2559 27.1025 16.678 27.1025C19.1002 27.1025 21.0707 29.0731 21.0707 31.4931C21.0707 33.9139 19.1002 35.8852 16.678 35.8852ZM16.678 26.0247C13.6632 26.0247 11.2102 28.4776 11.2102 31.4931C11.2102 34.5079 13.6632 36.963 16.678 36.963C19.6928 36.963 22.1458 34.5079 22.1458 31.4931C22.1458 28.4776 19.6928 26.0247 16.678 26.0247Z" fill="white"/>
<path fill-rule="evenodd" clip-rule="evenodd" d="M63.8258 31.5627C63.5318 31.4086 61.7483 30.4897 61.4913 30.3561C60.5554 29.8792 60.223 29.4551 60.223 28.7384C60.223 27.7442 61.0405 27.1008 62.3074 27.1008C63.0515 27.1008 63.7709 27.4283 64.1916 27.6654C64.2691 27.7079 64.3588 27.7305 64.4534 27.7305C64.7494 27.7305 64.9906 27.49 64.9906 27.1933C64.9906 26.9946 64.8823 26.8206 64.7213 26.7281C64.1903 26.4321 63.2845 26.0251 62.3074 26.0251C60.4464 26.0251 59.1466 27.1412 59.1466 28.7384C59.1466 30.1739 60.0894 30.8508 61.0131 31.3222C61.2707 31.4538 63.0755 32.3843 63.3468 32.5268C64.0594 32.9002 64.4534 33.46 64.4534 34.1041C64.4534 34.9681 63.7223 35.8856 62.3677 35.8856C61.0514 35.8856 60.0285 35.0024 59.7455 34.731L59.6619 34.6502L58.8657 35.3751L58.9596 35.4676C59.3124 35.8191 60.604 36.9627 62.3677 36.9627C64.3458 36.9627 65.5284 35.5087 65.5284 34.1041C65.5284 33.0551 64.9083 32.128 63.8258 31.5627Z" fill="white"/>
<path fill-rule="evenodd" clip-rule="evenodd" d="M5.46723 27.1022C6.64095 27.1022 7.74479 27.5585 8.57317 28.3869C8.76982 28.5829 9.13982 28.5829 9.33373 28.3869C9.43651 28.2869 9.49132 28.1519 9.49132 28.0073C9.49132 27.8641 9.43651 27.7278 9.33373 27.6277L9.26864 27.5599C8.24428 26.5698 6.8931 26.0251 5.46723 26.0251C2.45242 26.0251 0.000137329 28.4774 0.000137329 31.4929C0.000137329 34.5084 2.45242 36.9627 5.46723 36.9627C7.05892 36.9627 8.49232 36.2796 9.49132 35.1908L8.73077 34.4289C7.92567 35.3224 6.76155 35.8849 5.46723 35.8849C3.04579 35.8849 1.07519 33.9143 1.07519 31.4929C1.07519 29.0728 3.04579 27.1022 5.46723 27.1022Z" fill="white"/>
<path fill-rule="evenodd" clip-rule="evenodd" d="M42.5349 27.1022C43.7079 27.1022 44.8124 27.5585 45.6401 28.3869C45.8375 28.5829 46.2074 28.5829 46.4014 28.3869C46.5041 28.2869 46.5603 28.1519 46.5603 28.0073C46.5603 27.8641 46.5041 27.7278 46.4014 27.6277L46.3363 27.5599C45.3105 26.5698 43.9614 26.0251 42.5349 26.0251C39.52 26.0251 37.0671 28.4774 37.0671 31.4929C37.0671 34.5084 39.52 36.9627 42.5349 36.9627C44.1252 36.9627 45.5593 36.2796 46.5589 35.1908L45.7977 34.4289C44.9933 35.3224 43.8292 35.8849 42.5349 35.8849C40.1127 35.8849 38.1421 33.9143 38.1421 31.4929C38.1421 29.0728 40.1127 27.1022 42.5349 27.1022Z" fill="white"/>
<path fill-rule="evenodd" clip-rule="evenodd" d="M33.2726 26.0249C33.0705 26.0249 32.9115 26.1551 32.8245 26.3236C32.7361 26.4915 29.6069 34.232 29.6069 34.232C29.6069 34.232 26.4776 26.4915 26.3892 26.3236C26.3015 26.1551 26.1432 26.0249 25.9404 26.0249C25.7047 26.0249 25.5273 26.1975 25.4649 26.4168C25.4026 26.6367 23.6368 36.3794 23.6368 36.3794C23.6307 36.4109 23.6272 36.4438 23.6272 36.4774C23.6272 36.7453 23.8458 36.9625 24.113 36.9625C24.3487 36.9625 24.5468 36.7932 24.5892 36.5699L26.1179 28.2353C26.1179 28.2353 29.0683 35.5236 29.1546 35.6976C29.2416 35.8703 29.4013 36.0046 29.6069 36.0046C29.8117 36.0046 29.9721 35.8703 30.0584 35.6976C30.1454 35.5236 33.0951 28.2353 33.0951 28.2353L34.6848 36.9015H35.6707C35.6707 36.9015 33.8111 26.6367 33.7488 26.4168C33.6858 26.1975 33.5083 26.0249 33.2726 26.0249Z" fill="white"/>
<path fill-rule="evenodd" clip-rule="evenodd" d="M51.088 31.7952L52.7133 27.7964L54.3413 31.7952H51.088ZM52.7133 26.0245C52.5091 26.0245 52.3515 26.1575 52.2617 26.3315C52.174 26.5048 48.2123 36.2879 48.2123 36.2879C48.1883 36.3462 48.1753 36.4106 48.1753 36.477C48.1753 36.7456 48.3925 36.9628 48.6604 36.9628C48.8646 36.9628 49.04 36.8347 49.1113 36.6545L50.6495 32.8716H54.7791L56.4194 36.9018H57.4671C57.4671 36.9018 53.2518 26.5048 53.1648 26.3315C53.0778 26.1575 52.9188 26.0245 52.7133 26.0245Z" fill="white"/>
<path fill-rule="evenodd" clip-rule="evenodd" d="M74 26.6212C74 26.3238 73.7574 26.0833 73.4614 26.0833H67.3729C67.0762 26.0833 66.8357 26.3238 66.8357 26.6212C66.8357 26.9179 67.0762 27.1584 67.3729 27.1584H69.9252V36.9017H70.9105V27.1584H73.4614C73.7574 27.1584 74 26.9179 74 26.6212Z" fill="white"/>
</svg>
