<svg width="1413" height="893" viewBox="0 0 1413 893" fill="none" xmlns="http://www.w3.org/2000/svg">
<g clip-path="url(#clip0)">
<path d="M304.577 191.07H1412.45V11.6389C1412.45 5.21038 1407.24 -0.000976562 1400.81 -0.000976562H316.217C309.789 -0.000976562 304.577 5.21038 304.577 11.6389V191.07Z" fill="url(#paint0_linear)"/>
<path opacity="0.5" d="M304.577 191.069H1412.45V881.131C1412.45 887.559 1407.24 892.771 1400.81 892.771H316.217C309.789 892.771 304.577 887.559 304.577 881.131V191.069Z" fill="#EC7B1E"/>
<path opacity="0.4" d="M0 191.069H266.192V881.13C266.192 887.559 260.981 892.77 254.552 892.77H11.6399C5.21134 892.77 0 887.559 0 881.13V191.069Z" fill="#613DC1"/>
<path opacity="0.9" d="M0 11.6389C0 5.21039 5.21136 -0.000976562 11.6399 -0.000976562H254.552C260.981 -0.000976562 266.192 5.21038 266.192 11.6389V191.069H0V11.6389Z" fill="url(#paint1_linear)"/>
<path d="M62.8303 97.7169H54.4244V104.81H62.4382L62.6598 101.843H66.4451V108.629H46.8027V105.645L49.4456 105.134V87.316L46.8027 86.8045V83.8035H66.411V90.6067H62.5916L62.37 87.6399H54.4244V93.8805H62.8303V97.7169Z" fill="white"/>
<path d="M68.9515 105.645L71.3386 105.134V93.6929L68.6957 93.1814V90.1805H75.9764L76.198 92.8233C76.8118 91.8799 77.5678 91.1467 78.4658 90.6238C79.3638 90.1009 80.3697 89.8395 81.4837 89.8395C83.3479 89.8395 84.8029 90.4249 85.8487 91.5957C86.8945 92.7665 87.4173 94.6023 87.4173 97.103V105.134L89.8044 105.645V108.629H80.2902V105.645L82.4215 105.134V97.1201C82.4215 95.8811 82.1714 95.0058 81.6713 94.4943C81.1711 93.9714 80.4152 93.71 79.4035 93.71C78.7443 93.71 78.1532 93.8464 77.6303 94.1192C77.1074 94.3806 76.6698 94.7557 76.3174 95.2445V105.134L78.3294 105.645V108.629H68.9515V105.645Z" fill="white"/>
<path d="M98.739 85.6621V90.1805H101.979V93.6759H98.739V103.071C98.739 103.787 98.8867 104.298 99.1823 104.605C99.4778 104.912 99.8757 105.066 100.376 105.066C100.717 105.066 101.012 105.054 101.262 105.032C101.524 104.997 101.814 104.946 102.132 104.878L102.558 108.476C102.001 108.646 101.45 108.771 100.904 108.851C100.359 108.942 99.7677 108.987 99.1311 108.987C97.4147 108.987 96.0904 108.516 95.1583 107.572C94.2376 106.629 93.7772 105.134 93.7772 103.088V93.6759H91.0662V90.1805H93.7772V85.6621H98.739Z" fill="white"/>
<path d="M113.249 108.987C110.589 108.987 108.464 108.135 106.872 106.43C105.281 104.725 104.485 102.559 104.485 99.9334V99.2514C104.485 96.5119 105.235 94.2556 106.736 92.4823C108.248 90.709 110.271 89.8281 112.806 89.8395C115.295 89.8395 117.228 90.5897 118.603 92.0901C119.978 93.5906 120.666 95.6196 120.666 98.1772V100.888H109.651L109.617 100.991C109.708 102.207 110.112 103.207 110.828 103.991C111.555 104.776 112.539 105.168 113.778 105.168C114.88 105.168 115.795 105.06 116.523 104.844C117.25 104.617 118.046 104.264 118.91 103.787L120.257 106.856C119.495 107.458 118.506 107.964 117.29 108.373C116.085 108.783 114.738 108.987 113.249 108.987ZM112.806 93.6759C111.885 93.6759 111.158 94.0282 110.623 94.733C110.089 95.4378 109.759 96.3642 109.634 97.5122L109.685 97.5975H115.79V97.1542C115.79 96.097 115.54 95.2559 115.039 94.6307C114.551 93.9941 113.806 93.6759 112.806 93.6759Z" fill="white"/>
<path d="M123.411 105.645L125.798 105.134V93.6929L123.155 93.1814V90.1805H130.436L130.658 92.8745C131.09 91.9196 131.647 91.1751 132.329 90.6408C133.011 90.1066 133.801 89.8395 134.699 89.8395C134.96 89.8395 135.233 89.8622 135.517 89.9077C135.813 89.9418 136.057 89.9872 136.25 90.0441L135.722 94.5795L133.676 94.5284C132.948 94.5284 132.346 94.6705 131.868 94.9547C131.391 95.2388 131.027 95.6424 130.777 96.1652V105.134L133.164 105.645V108.629H123.411V105.645Z" fill="white"/>
<path d="M137.359 93.1814V90.1805H144.588L144.827 92.3289C145.372 91.5332 146.026 90.9193 146.788 90.4874C147.549 90.0554 148.436 89.8395 149.448 89.8395C151.732 89.8395 153.506 90.7318 154.767 92.5164C156.029 94.301 156.66 96.6483 156.66 99.5583V99.9164C156.66 102.644 156.029 104.838 154.767 106.498C153.506 108.158 151.744 108.987 149.482 108.987C148.515 108.987 147.657 108.811 146.907 108.459C146.157 108.095 145.515 107.566 144.98 106.873V112.21L147.384 112.721V115.722H137.614V112.721L140.019 112.21V93.6929L137.359 93.1814ZM151.681 99.5583C151.681 97.8192 151.391 96.4096 150.812 95.3298C150.232 94.2499 149.345 93.71 148.152 93.71C147.401 93.71 146.759 93.8634 146.225 94.1703C145.702 94.4772 145.287 94.9149 144.98 95.4832V103.565C145.287 104.088 145.702 104.486 146.225 104.759C146.759 105.032 147.413 105.168 148.186 105.168C149.391 105.168 150.272 104.696 150.829 103.753C151.397 102.809 151.681 101.531 151.681 99.9164V99.5583Z" fill="white"/>
<path d="M159.252 105.645L161.639 105.134V93.6929L158.996 93.1814V90.1805H166.277L166.498 92.8745C166.93 91.9196 167.487 91.1751 168.169 90.6408C168.851 90.1066 169.641 89.8395 170.539 89.8395C170.801 89.8395 171.073 89.8622 171.358 89.9077C171.653 89.9418 171.898 89.9872 172.091 90.0441L171.562 94.5795L169.516 94.5284C168.789 94.5284 168.186 94.6705 167.709 94.9547C167.231 95.2388 166.868 95.6424 166.618 96.1652V105.134L169.005 105.645V108.629H159.252V105.645Z" fill="white"/>
<path d="M173.421 105.645L175.825 105.134V93.6929L173.165 93.1814V90.1805H180.804V105.134L183.191 105.645V108.629H173.421V105.645ZM180.804 85.7644H175.825V82.0303H180.804V85.7644Z" fill="white"/>
<path d="M199.883 96.5233H196.541L196.013 94.2215C195.672 93.9487 195.24 93.7213 194.717 93.5394C194.205 93.3576 193.637 93.2666 193.012 93.2666C192.137 93.2666 191.443 93.4656 190.932 93.8634C190.42 94.2499 190.164 94.7387 190.164 95.3298C190.164 95.8868 190.409 96.3528 190.898 96.7279C191.386 97.0917 192.364 97.4156 193.83 97.6998C196.115 98.1545 197.809 98.8251 198.911 99.7118C200.014 100.587 200.565 101.798 200.565 103.344C200.565 105.003 199.849 106.362 198.417 107.419C196.996 108.464 195.12 108.987 192.79 108.987C191.369 108.987 190.062 108.783 188.869 108.373C187.686 107.953 186.635 107.356 185.714 106.583L185.663 102.44H189.141L189.823 104.844C190.119 105.094 190.523 105.282 191.034 105.407C191.546 105.52 192.08 105.577 192.637 105.577C193.648 105.577 194.416 105.395 194.939 105.032C195.473 104.668 195.74 104.173 195.74 103.548C195.74 103.003 195.473 102.531 194.939 102.133C194.404 101.735 193.421 101.383 191.989 101.076C189.818 100.633 188.175 99.9789 187.061 99.115C185.959 98.2397 185.407 97.0519 185.407 95.5514C185.407 94.0055 186.044 92.6756 187.317 91.5616C188.59 90.4362 190.403 89.8736 192.756 89.8736C194.188 89.8736 195.541 90.0668 196.814 90.4533C198.099 90.8398 199.105 91.3342 199.832 91.9367L199.883 96.5233Z" fill="white"/>
<path d="M211.631 108.987C208.971 108.987 206.846 108.135 205.254 106.43C203.663 104.725 202.867 102.559 202.867 99.9334V99.2514C202.867 96.5119 203.617 94.2556 205.118 92.4823C206.63 90.709 208.653 89.8281 211.188 89.8395C213.677 89.8395 215.61 90.5897 216.985 92.0901C218.361 93.5906 219.048 95.6196 219.048 98.1772V100.888H208.034L207.999 100.991C208.09 102.207 208.494 103.207 209.21 103.991C209.937 104.776 210.921 105.168 212.16 105.168C213.262 105.168 214.177 105.06 214.905 104.844C215.632 104.617 216.428 104.264 217.292 103.787L218.639 106.856C217.877 107.458 216.888 107.964 215.672 108.373C214.467 108.783 213.12 108.987 211.631 108.987ZM211.188 93.6759C210.267 93.6759 209.54 94.0282 209.005 94.733C208.471 95.4378 208.141 96.3642 208.016 97.5122L208.068 97.5975H214.172V97.1542C214.172 96.097 213.922 95.2559 213.422 94.6307C212.933 93.9941 212.188 93.6759 211.188 93.6759Z" fill="white"/>
<g opacity="0.9">
<path d="M573.42 134.684H580.613C582.398 134.684 583.787 135.118 584.78 135.987C585.774 136.841 586.27 138.013 586.27 139.503C586.27 140.993 585.766 142.172 584.757 143.041C583.764 143.91 582.383 144.345 580.613 144.345H576.423V151.259H573.42V134.684ZM580.264 142.017C581.304 142.017 582.088 141.807 582.615 141.388C583.159 140.954 583.43 140.333 583.43 139.526C583.43 138.703 583.166 138.083 582.639 137.664C582.111 137.229 581.32 137.012 580.264 137.012H576.423V142.017H580.264Z" fill="white"/>
<path d="M594.82 139.223C595.27 139.223 595.658 139.285 595.984 139.41L595.961 142.063C595.464 141.862 594.952 141.761 594.424 141.761C593.431 141.761 592.67 142.048 592.143 142.622C591.631 143.196 591.374 143.957 591.374 144.904V151.259H588.488V142.832C588.488 141.59 588.426 140.48 588.302 139.503H591.025L591.258 141.575C591.553 140.814 592.019 140.232 592.655 139.829C593.291 139.425 594.013 139.223 594.82 139.223Z" fill="white"/>
<path d="M602.708 151.445C601.513 151.445 600.458 151.197 599.542 150.7C598.642 150.204 597.943 149.497 597.447 148.582C596.966 147.651 596.725 146.564 596.725 145.323C596.725 144.081 596.966 143.002 597.447 142.087C597.943 141.155 598.642 140.442 599.542 139.945C600.458 139.448 601.513 139.2 602.708 139.2C603.887 139.2 604.927 139.448 605.827 139.945C606.728 140.442 607.418 141.155 607.899 142.087C608.396 143.002 608.644 144.081 608.644 145.323C608.644 146.564 608.396 147.651 607.899 148.582C607.418 149.497 606.728 150.204 605.827 150.7C604.927 151.197 603.887 151.445 602.708 151.445ZM602.685 149.164C603.678 149.164 604.431 148.846 604.943 148.209C605.47 147.557 605.734 146.595 605.734 145.323C605.734 144.065 605.47 143.111 604.943 142.459C604.415 141.792 603.67 141.458 602.708 141.458C601.73 141.458 600.977 141.792 600.45 142.459C599.922 143.111 599.658 144.065 599.658 145.323C599.658 146.595 599.914 147.557 600.426 148.209C600.954 148.846 601.707 149.164 602.685 149.164Z" fill="white"/>
<path d="M625.029 139.2C626.363 139.2 627.356 139.604 628.008 140.411C628.66 141.202 628.986 142.413 628.986 144.042V151.259H626.076V144.135C626.076 143.204 625.921 142.537 625.61 142.133C625.316 141.714 624.819 141.505 624.121 141.505C623.314 141.505 622.677 141.792 622.212 142.366C621.762 142.925 621.537 143.701 621.537 144.694V151.259H618.627V144.135C618.627 143.22 618.464 142.552 618.138 142.133C617.827 141.714 617.331 141.505 616.648 141.505C615.841 141.505 615.204 141.792 614.739 142.366C614.273 142.925 614.04 143.701 614.04 144.694V151.259H611.154V142.832C611.154 141.59 611.092 140.48 610.968 139.503H613.691L613.901 141.365C614.242 140.667 614.731 140.131 615.367 139.759C616.019 139.386 616.764 139.2 617.602 139.2C619.403 139.2 620.574 139.945 621.117 141.435C621.49 140.736 622.018 140.193 622.701 139.805C623.399 139.402 624.175 139.2 625.029 139.2Z" fill="white"/>
<path d="M642.382 145.532H634.28C634.342 146.789 634.653 147.72 635.211 148.326C635.786 148.915 636.631 149.21 637.749 149.21C639.037 149.21 640.232 148.791 641.334 147.953L642.172 149.955C641.613 150.405 640.923 150.77 640.1 151.049C639.293 151.313 638.471 151.445 637.633 151.445C635.708 151.445 634.195 150.902 633.093 149.816C631.991 148.729 631.44 147.239 631.44 145.346C631.44 144.151 631.681 143.088 632.162 142.157C632.643 141.225 633.318 140.504 634.187 139.992C635.056 139.464 636.042 139.2 637.144 139.2C638.758 139.2 640.03 139.728 640.962 140.783C641.908 141.823 642.382 143.258 642.382 145.09V145.532ZM637.213 141.295C636.437 141.295 635.801 141.528 635.305 141.994C634.823 142.444 634.513 143.103 634.373 143.972H639.844C639.751 143.088 639.479 142.42 639.029 141.97C638.595 141.52 637.989 141.295 637.213 141.295Z" fill="white"/>
<path d="M648.388 141.691V146.952C648.388 148.333 649.032 149.024 650.32 149.024C650.677 149.024 651.065 148.962 651.484 148.838V151.143C650.972 151.329 650.351 151.422 649.622 151.422C648.287 151.422 647.263 151.049 646.549 150.304C645.835 149.56 645.478 148.489 645.478 147.092V141.691H643.22V139.503H645.478V136.639L648.388 135.661V139.503H651.508V141.691H648.388Z" fill="white"/>
<path d="M660.235 139.2C663.044 139.2 664.449 140.814 664.449 144.042V151.259H661.539V144.182C661.539 143.251 661.361 142.576 661.004 142.157C660.647 141.722 660.096 141.505 659.351 141.505C658.466 141.505 657.752 141.792 657.209 142.366C656.666 142.925 656.394 143.67 656.394 144.601V151.259H653.508V134.125H656.394V141.202C656.798 140.566 657.333 140.077 658.001 139.735C658.668 139.378 659.413 139.2 660.235 139.2Z" fill="white"/>
<path d="M677.824 145.532H669.723C669.785 146.789 670.095 147.72 670.654 148.326C671.228 148.915 672.074 149.21 673.191 149.21C674.48 149.21 675.675 148.791 676.777 147.953L677.615 149.955C677.056 150.405 676.365 150.77 675.543 151.049C674.736 151.313 673.913 151.445 673.075 151.445C671.151 151.445 669.637 150.902 668.536 149.816C667.434 148.729 666.883 147.239 666.883 145.346C666.883 144.151 667.123 143.088 667.604 142.157C668.085 141.225 668.761 140.504 669.63 139.992C670.499 139.464 671.484 139.2 672.586 139.2C674.2 139.2 675.473 139.728 676.404 140.783C677.351 141.823 677.824 143.258 677.824 145.09V145.532ZM672.656 141.295C671.88 141.295 671.244 141.528 670.747 141.994C670.266 142.444 669.956 143.103 669.816 143.972H675.287C675.194 143.088 674.922 142.42 674.472 141.97C674.037 141.52 673.432 141.295 672.656 141.295Z" fill="white"/>
<path d="M690.997 139.503V151.259H688.157V149.443C687.784 150.095 687.288 150.592 686.667 150.933C686.046 151.274 685.332 151.445 684.525 151.445C681.654 151.445 680.219 149.831 680.219 146.603V139.503H683.105V146.626C683.105 147.48 683.276 148.108 683.617 148.512C683.974 148.915 684.518 149.117 685.247 149.117C686.101 149.117 686.783 148.838 687.296 148.279C687.808 147.72 688.064 146.975 688.064 146.044V139.503H690.997Z" fill="white"/>
<path d="M698.463 151.445C696.337 151.445 694.645 150.949 693.388 149.955L694.203 147.907C695.46 148.838 696.895 149.303 698.51 149.303C699.208 149.303 699.743 149.187 700.116 148.954C700.504 148.721 700.698 148.396 700.698 147.976C700.698 147.62 700.566 147.34 700.302 147.138C700.038 146.921 699.588 146.735 698.952 146.58L696.996 146.137C694.855 145.672 693.784 144.578 693.784 142.855C693.784 142.141 693.986 141.512 694.389 140.969C694.793 140.411 695.359 139.976 696.088 139.666C696.818 139.355 697.664 139.2 698.626 139.2C699.464 139.2 700.271 139.332 701.047 139.596C701.823 139.844 702.506 140.209 703.096 140.69L702.234 142.669C701.055 141.8 699.844 141.365 698.603 141.365C697.935 141.365 697.415 141.489 697.043 141.737C696.67 141.986 696.484 142.327 696.484 142.762C696.484 143.103 696.593 143.375 696.81 143.577C697.043 143.778 697.431 143.949 697.974 144.089L699.976 144.531C701.14 144.795 701.986 145.206 702.514 145.765C703.057 146.308 703.328 147.022 703.328 147.907C703.328 148.993 702.894 149.854 702.025 150.491C701.156 151.127 699.968 151.445 698.463 151.445Z" fill="white"/>
</g>
<path d="M630.638 597.493L621.148 588.003L617.916 591.212L630.638 603.934L657.949 576.623L654.74 573.414L630.638 597.493Z" fill="white"/>
<path d="M630.638 706.521L621.148 697.03L617.916 700.239L630.638 712.961L657.949 685.65L654.74 682.441L630.638 706.521Z" fill="white"/>
<path d="M630.638 815.547L621.148 806.056L617.916 809.265L630.638 821.988L657.949 794.677L654.74 791.468L630.638 815.547Z" fill="white"/>
<g opacity="0.9">
<path d="M794.469 134.684H801.662C803.447 134.684 804.836 135.119 805.829 135.988C806.823 136.841 807.319 138.013 807.319 139.503C807.319 140.993 806.815 142.172 805.806 143.042C804.813 143.911 803.431 144.345 801.662 144.345H797.472V151.259H794.469V134.684ZM801.313 142.017C802.353 142.017 803.137 141.808 803.664 141.389C804.207 140.954 804.479 140.333 804.479 139.526C804.479 138.704 804.215 138.083 803.688 137.664C803.16 137.229 802.368 137.012 801.313 137.012H797.472V142.017H801.313Z" fill="white"/>
<path d="M814.663 151.446C813.468 151.446 812.413 151.197 811.497 150.701C810.597 150.204 809.898 149.498 809.402 148.582C808.921 147.651 808.68 146.565 808.68 145.323C808.68 144.081 808.921 143.003 809.402 142.087C809.898 141.156 810.597 140.442 811.497 139.945C812.413 139.449 813.468 139.2 814.663 139.2C815.843 139.2 816.882 139.449 817.783 139.945C818.683 140.442 819.373 141.156 819.854 142.087C820.351 143.003 820.599 144.081 820.599 145.323C820.599 146.565 820.351 147.651 819.854 148.582C819.373 149.498 818.683 150.204 817.783 150.701C816.882 151.197 815.843 151.446 814.663 151.446ZM814.64 149.164C815.633 149.164 816.386 148.846 816.898 148.21C817.426 147.558 817.689 146.596 817.689 145.323C817.689 144.066 817.426 143.111 816.898 142.46C816.37 141.792 815.625 141.459 814.663 141.459C813.685 141.459 812.933 141.792 812.405 142.46C811.877 143.111 811.613 144.066 811.613 145.323C811.613 146.596 811.869 147.558 812.382 148.21C812.909 148.846 813.662 149.164 814.64 149.164Z" fill="white"/>
<path d="M827.416 151.446C825.289 151.446 823.598 150.949 822.341 149.956L823.155 147.907C824.413 148.838 825.848 149.304 827.462 149.304C828.161 149.304 828.696 149.187 829.069 148.955C829.457 148.722 829.651 148.396 829.651 147.977C829.651 147.62 829.519 147.341 829.255 147.139C828.991 146.922 828.541 146.735 827.905 146.58L825.949 146.138C823.807 145.672 822.736 144.578 822.736 142.855C822.736 142.141 822.938 141.513 823.342 140.97C823.745 140.411 824.312 139.976 825.041 139.666C825.771 139.356 826.616 139.2 827.579 139.2C828.417 139.2 829.224 139.332 830 139.596C830.776 139.844 831.459 140.209 832.048 140.69L831.187 142.669C830.007 141.8 828.797 141.365 827.555 141.365C826.888 141.365 826.368 141.49 825.996 141.738C825.623 141.986 825.437 142.328 825.437 142.762C825.437 143.104 825.546 143.375 825.763 143.577C825.996 143.779 826.384 143.949 826.927 144.089L828.929 144.531C830.093 144.795 830.939 145.207 831.466 145.765C832.01 146.309 832.281 147.022 832.281 147.907C832.281 148.993 831.847 149.855 830.977 150.491C830.108 151.127 828.921 151.446 827.416 151.446Z" fill="white"/>
<path d="M838.359 141.691V146.953C838.359 148.334 839.003 149.024 840.292 149.024C840.649 149.024 841.037 148.962 841.456 148.838V151.143C840.943 151.329 840.323 151.422 839.593 151.422C838.258 151.422 837.234 151.05 836.52 150.305C835.806 149.56 835.449 148.489 835.449 147.092V141.691H833.191V139.503H835.449V136.64L838.359 135.662V139.503H841.479V141.691H838.359Z" fill="white"/>
<path d="M854.839 139.503V150.887C854.839 152.718 854.335 154.107 853.326 155.054C852.317 156.001 850.835 156.474 848.88 156.474C847.064 156.474 845.465 156.094 844.084 155.333L844.55 153.122C845.977 153.867 847.397 154.239 848.81 154.239C850.905 154.239 851.953 153.199 851.953 151.12V148.792C851.596 149.428 851.076 149.948 850.393 150.351C849.71 150.739 848.942 150.933 848.088 150.933C847.064 150.933 846.148 150.693 845.341 150.212C844.55 149.715 843.929 149.024 843.479 148.14C843.044 147.24 842.827 146.215 842.827 145.067C842.827 143.918 843.044 142.902 843.479 142.017C843.929 141.117 844.55 140.426 845.341 139.945C846.148 139.449 847.064 139.2 848.088 139.2C848.957 139.2 849.725 139.387 850.393 139.759C851.076 140.116 851.596 140.62 851.953 141.272V139.503H854.839ZM848.856 148.652C849.819 148.652 850.571 148.334 851.114 147.698C851.673 147.061 851.953 146.184 851.953 145.067C851.953 143.949 851.681 143.073 851.138 142.436C850.595 141.8 849.834 141.482 848.856 141.482C847.894 141.482 847.134 141.8 846.575 142.436C846.032 143.073 845.76 143.949 845.76 145.067C845.76 146.184 846.032 147.061 846.575 147.698C847.134 148.334 847.894 148.652 848.856 148.652Z" fill="white"/>
<path d="M864.315 139.224C864.765 139.224 865.153 139.286 865.479 139.41L865.456 142.064C864.959 141.862 864.447 141.761 863.919 141.761C862.926 141.761 862.166 142.048 861.638 142.623C861.126 143.197 860.87 143.957 860.87 144.904V151.259H857.983V142.832C857.983 141.59 857.921 140.481 857.797 139.503H860.521L860.753 141.575C861.048 140.814 861.514 140.232 862.15 139.829C862.787 139.425 863.508 139.224 864.315 139.224Z" fill="white"/>
<path d="M877.162 145.533H869.06C869.123 146.79 869.433 147.721 869.992 148.326C870.566 148.916 871.412 149.211 872.529 149.211C873.817 149.211 875.012 148.792 876.114 147.954L876.952 149.956C876.394 150.406 875.703 150.77 874.88 151.05C874.073 151.314 873.251 151.446 872.413 151.446C870.488 151.446 868.975 150.902 867.873 149.816C866.771 148.73 866.22 147.24 866.22 145.346C866.22 144.151 866.461 143.088 866.942 142.157C867.423 141.226 868.098 140.504 868.967 139.992C869.836 139.464 870.822 139.2 871.924 139.2C873.538 139.2 874.811 139.728 875.742 140.783C876.689 141.823 877.162 143.259 877.162 145.09V145.533ZM871.994 141.296C871.218 141.296 870.581 141.528 870.085 141.994C869.604 142.444 869.293 143.104 869.154 143.973H874.624C874.531 143.088 874.26 142.421 873.81 141.971C873.375 141.521 872.77 141.296 871.994 141.296Z" fill="white"/>
<path d="M885.446 151.469C884.173 151.469 882.978 151.298 881.861 150.957C880.759 150.615 879.82 150.126 879.044 149.49L880.068 147.302C880.875 147.907 881.713 148.357 882.583 148.652C883.467 148.931 884.429 149.071 885.469 149.071C886.618 149.071 887.502 148.869 888.123 148.466C888.759 148.062 889.078 147.496 889.078 146.766C889.078 146.146 888.783 145.672 888.193 145.346C887.619 145.005 886.664 144.687 885.33 144.392C883.25 143.942 881.737 143.36 880.79 142.646C879.843 141.932 879.37 140.892 879.37 139.526C879.37 138.549 879.634 137.679 880.161 136.919C880.689 136.159 881.434 135.561 882.396 135.126C883.374 134.692 884.499 134.475 885.772 134.475C886.936 134.475 888.038 134.653 889.078 135.01C890.133 135.351 890.994 135.833 891.662 136.453L890.661 138.642C889.186 137.462 887.557 136.872 885.772 136.872C884.701 136.872 883.855 137.097 883.234 137.548C882.614 137.982 882.303 138.58 882.303 139.34C882.303 139.992 882.575 140.489 883.118 140.83C883.677 141.171 884.623 141.49 885.958 141.784C887.339 142.11 888.465 142.467 889.334 142.855C890.203 143.228 890.87 143.717 891.336 144.322C891.801 144.912 892.034 145.657 892.034 146.557C892.034 147.55 891.77 148.419 891.243 149.164C890.715 149.894 889.955 150.46 888.961 150.864C887.968 151.267 886.796 151.469 885.446 151.469Z" fill="white"/>
<path d="M905.712 150.77C906.054 151.376 906.473 151.942 906.969 152.47C907.466 152.998 908.048 153.533 908.715 154.076L906.69 155.706C905.945 155.178 905.239 154.542 904.572 153.797C903.92 153.067 903.346 152.284 902.849 151.446C902.709 151.461 902.484 151.469 902.174 151.469C900.575 151.469 899.178 151.127 897.983 150.445C896.804 149.746 895.888 148.761 895.236 147.488C894.6 146.2 894.282 144.687 894.282 142.948C894.282 141.226 894.6 139.728 895.236 138.455C895.873 137.167 896.781 136.182 897.96 135.499C899.155 134.816 900.56 134.475 902.174 134.475C903.788 134.475 905.185 134.816 906.364 135.499C907.559 136.182 908.467 137.167 909.088 138.455C909.724 139.728 910.042 141.226 910.042 142.948C910.042 144.842 909.662 146.464 908.902 147.814C908.157 149.164 907.094 150.15 905.712 150.77ZM897.308 142.948C897.308 144.919 897.735 146.433 898.589 147.488C899.442 148.543 900.637 149.071 902.174 149.071C903.71 149.071 904.905 148.543 905.759 147.488C906.612 146.433 907.039 144.919 907.039 142.948C907.039 140.993 906.612 139.495 905.759 138.455C904.905 137.4 903.71 136.872 902.174 136.872C900.637 136.872 899.442 137.392 898.589 138.432C897.735 139.472 897.308 140.977 897.308 142.948Z" fill="white"/>
<path d="M913.118 134.684H916.122V148.792H923.874V151.259H913.118V134.684Z" fill="white"/>
</g>
<path d="M851.22 706.522L841.73 697.031L838.498 700.24L851.22 712.962L878.531 685.651L875.322 682.442L851.22 706.522Z" fill="white"/>
<path d="M851.22 488.466L841.73 478.975L838.498 482.184L851.22 494.907L878.531 467.596L875.322 464.387L851.22 488.466Z" fill="white"/>
<path d="M851.22 815.547L841.73 806.056L838.498 809.265L851.22 821.988L878.531 794.677L875.322 791.468L851.22 815.547Z" fill="white"/>
<g opacity="0.9">
<path d="M346.177 134.631H357.258V137.006H349.11V141.592H356.769V143.966H349.11V148.832H357.258V151.206H346.177V134.631Z" fill="white"/>
<path d="M359.812 134.072H362.699V151.206H359.812V134.072Z" fill="white"/>
<path d="M377.127 139.45V151.206H374.263V149.321C373.906 149.972 373.394 150.485 372.727 150.857C372.059 151.214 371.299 151.392 370.445 151.392C369.421 151.392 368.513 151.144 367.721 150.647C366.93 150.151 366.317 149.445 365.882 148.529C365.448 147.613 365.231 146.55 365.231 145.34C365.231 144.129 365.448 143.058 365.882 142.127C366.332 141.18 366.953 140.451 367.745 139.939C368.536 139.411 369.436 139.147 370.445 139.147C371.299 139.147 372.059 139.334 372.727 139.706C373.394 140.063 373.906 140.567 374.263 141.219V139.45H377.127ZM371.237 149.111C372.199 149.111 372.944 148.777 373.472 148.11C373.999 147.443 374.263 146.504 374.263 145.293C374.263 144.052 373.999 143.097 373.472 142.43C372.944 141.762 372.191 141.429 371.213 141.429C370.251 141.429 369.499 141.778 368.955 142.476C368.428 143.159 368.164 144.114 368.164 145.34C368.164 146.55 368.428 147.481 368.955 148.133C369.499 148.785 370.259 149.111 371.237 149.111Z" fill="white"/>
<path d="M384.603 151.392C382.476 151.392 380.785 150.896 379.528 149.903L380.342 147.854C381.6 148.785 383.035 149.251 384.649 149.251C385.348 149.251 385.883 149.134 386.255 148.901C386.643 148.669 386.837 148.343 386.837 147.924C386.837 147.567 386.706 147.287 386.442 147.086C386.178 146.868 385.728 146.682 385.091 146.527L383.136 146.085C380.994 145.619 379.923 144.525 379.923 142.802C379.923 142.088 380.125 141.46 380.529 140.917C380.932 140.358 381.499 139.923 382.228 139.613C382.958 139.302 383.803 139.147 384.766 139.147C385.604 139.147 386.411 139.279 387.187 139.543C387.963 139.791 388.646 140.156 389.235 140.637L388.374 142.616C387.194 141.747 385.984 141.312 384.742 141.312C384.075 141.312 383.555 141.436 383.183 141.685C382.81 141.933 382.624 142.275 382.624 142.709C382.624 143.051 382.732 143.322 382.95 143.524C383.183 143.726 383.571 143.896 384.114 144.036L386.116 144.478C387.28 144.742 388.126 145.153 388.653 145.712C389.196 146.255 389.468 146.969 389.468 147.854C389.468 148.94 389.034 149.802 388.164 150.438C387.295 151.074 386.108 151.392 384.603 151.392Z" fill="white"/>
<path d="M395.546 141.638V146.899C395.546 148.281 396.19 148.971 397.479 148.971C397.835 148.971 398.223 148.909 398.643 148.785V151.09C398.13 151.276 397.51 151.369 396.78 151.369C395.445 151.369 394.421 150.997 393.707 150.252C392.993 149.507 392.636 148.436 392.636 147.039V141.638H390.378V139.45H392.636V136.586L395.546 135.609V139.45H398.666V141.638H395.546Z" fill="white"/>
<path d="M400.666 139.45H403.552V151.206H400.666V139.45ZM403.715 134.119V136.982H400.479V134.119H403.715Z" fill="white"/>
<path d="M412.067 151.392C410.841 151.392 409.778 151.144 408.877 150.647C407.977 150.151 407.287 149.452 406.806 148.552C406.324 147.637 406.084 146.566 406.084 145.34C406.084 144.114 406.332 143.035 406.829 142.104C407.341 141.173 408.055 140.451 408.971 139.939C409.902 139.411 410.973 139.147 412.183 139.147C413.021 139.147 413.828 139.279 414.604 139.543C415.396 139.807 416.024 140.172 416.49 140.637L415.675 142.686C415.178 142.282 414.651 141.98 414.092 141.778C413.533 141.561 412.982 141.452 412.439 141.452C411.384 141.452 410.561 141.786 409.972 142.453C409.382 143.105 409.087 144.052 409.087 145.293C409.087 146.535 409.374 147.481 409.948 148.133C410.538 148.785 411.368 149.111 412.439 149.111C412.982 149.111 413.533 149.002 414.092 148.785C414.651 148.568 415.178 148.257 415.675 147.854L416.49 149.903C415.993 150.368 415.349 150.733 414.558 150.997C413.766 151.261 412.936 151.392 412.067 151.392Z" fill="white"/>
<path d="M422.751 151.392C420.624 151.392 418.933 150.896 417.676 149.903L418.49 147.854C419.747 148.785 421.183 149.251 422.797 149.251C423.496 149.251 424.031 149.134 424.403 148.901C424.791 148.669 424.985 148.343 424.985 147.924C424.985 147.567 424.853 147.287 424.59 147.086C424.326 146.868 423.876 146.682 423.239 146.527L421.284 146.085C419.142 145.619 418.071 144.525 418.071 142.802C418.071 142.088 418.273 141.46 418.677 140.917C419.08 140.358 419.647 139.923 420.376 139.613C421.105 139.302 421.951 139.147 422.914 139.147C423.752 139.147 424.559 139.279 425.335 139.543C426.111 139.791 426.793 140.156 427.383 140.637L426.522 142.616C425.342 141.747 424.132 141.312 422.89 141.312C422.223 141.312 421.703 141.436 421.33 141.685C420.958 141.933 420.772 142.275 420.772 142.709C420.772 143.051 420.88 143.322 421.098 143.524C421.33 143.726 421.718 143.896 422.262 144.036L424.264 144.478C425.428 144.742 426.274 145.153 426.801 145.712C427.344 146.255 427.616 146.969 427.616 147.854C427.616 148.94 427.181 149.802 426.312 150.438C425.443 151.074 424.256 151.392 422.751 151.392Z" fill="white"/>
<path d="M440.396 145.479H432.295C432.357 146.736 432.667 147.668 433.226 148.273C433.8 148.863 434.646 149.158 435.763 149.158C437.052 149.158 438.247 148.739 439.349 147.9L440.187 149.903C439.628 150.353 438.937 150.717 438.115 150.997C437.308 151.261 436.485 151.392 435.647 151.392C433.723 151.392 432.209 150.849 431.107 149.763C430.006 148.676 429.455 147.187 429.455 145.293C429.455 144.098 429.695 143.035 430.176 142.104C430.657 141.173 431.332 140.451 432.202 139.939C433.071 139.411 434.056 139.147 435.158 139.147C436.772 139.147 438.045 139.675 438.976 140.73C439.923 141.77 440.396 143.206 440.396 145.037V145.479ZM435.228 141.242C434.452 141.242 433.816 141.475 433.319 141.941C432.838 142.391 432.528 143.051 432.388 143.92H437.859C437.765 143.035 437.494 142.368 437.044 141.918C436.609 141.467 436.004 141.242 435.228 141.242Z" fill="white"/>
<path d="M454.104 139.45V151.206H451.241V149.321C450.884 149.972 450.372 150.485 449.705 150.857C449.037 151.214 448.277 151.392 447.423 151.392C446.399 151.392 445.491 151.144 444.699 150.647C443.908 150.151 443.295 149.445 442.86 148.529C442.426 147.613 442.208 146.55 442.208 145.34C442.208 144.129 442.426 143.058 442.86 142.127C443.31 141.18 443.931 140.451 444.723 139.939C445.514 139.411 446.414 139.147 447.423 139.147C448.277 139.147 449.037 139.334 449.705 139.706C450.372 140.063 450.884 140.567 451.241 141.219V139.45H454.104ZM448.215 149.111C449.177 149.111 449.922 148.777 450.45 148.11C450.977 147.443 451.241 146.504 451.241 145.293C451.241 144.052 450.977 143.097 450.45 142.43C449.922 141.762 449.169 141.429 448.191 141.429C447.229 141.429 446.476 141.778 445.933 142.476C445.406 143.159 445.142 144.114 445.142 145.34C445.142 146.55 445.406 147.481 445.933 148.133C446.476 148.785 447.237 149.111 448.215 149.111Z" fill="white"/>
<path d="M463.606 139.171C464.056 139.171 464.444 139.233 464.77 139.357L464.747 142.011C464.25 141.809 463.738 141.708 463.21 141.708C462.217 141.708 461.456 141.995 460.929 142.569C460.417 143.144 460.16 143.904 460.16 144.851V151.206H457.274V142.779C457.274 141.537 457.212 140.428 457.088 139.45H459.811L460.044 141.522C460.339 140.761 460.805 140.179 461.441 139.776C462.077 139.372 462.799 139.171 463.606 139.171Z" fill="white"/>
<path d="M471.494 151.392C470.268 151.392 469.205 151.144 468.305 150.647C467.404 150.151 466.714 149.452 466.233 148.552C465.752 147.637 465.511 146.566 465.511 145.34C465.511 144.114 465.759 143.035 466.256 142.104C466.768 141.173 467.482 140.451 468.398 139.939C469.329 139.411 470.4 139.147 471.61 139.147C472.448 139.147 473.255 139.279 474.031 139.543C474.823 139.807 475.451 140.172 475.917 140.637L475.102 142.686C474.606 142.282 474.078 141.98 473.519 141.778C472.961 141.561 472.41 141.452 471.866 141.452C470.811 141.452 469.988 141.786 469.399 142.453C468.809 143.105 468.514 144.052 468.514 145.293C468.514 146.535 468.801 147.481 469.375 148.133C469.965 148.785 470.796 149.111 471.866 149.111C472.41 149.111 472.961 149.002 473.519 148.785C474.078 148.568 474.606 148.257 475.102 147.854L475.917 149.903C475.42 150.368 474.776 150.733 473.985 150.997C473.193 151.261 472.363 151.392 471.494 151.392Z" fill="white"/>
<path d="M484.599 139.147C487.408 139.147 488.812 140.761 488.812 143.989V151.206H485.902V144.129C485.902 143.198 485.724 142.523 485.367 142.104C485.01 141.669 484.459 141.452 483.714 141.452C482.83 141.452 482.116 141.739 481.572 142.313C481.029 142.872 480.758 143.617 480.758 144.548V151.206H477.871V134.072H480.758V141.149C481.161 140.513 481.697 140.024 482.364 139.683C483.031 139.326 483.776 139.147 484.599 139.147Z" fill="white"/>
</g>
<path d="M410.056 379.439L400.566 369.949L397.334 373.158L410.056 385.88L437.367 358.569L434.158 355.36L410.056 379.439Z" fill="white"/>
<path d="M410.056 488.466L400.566 478.975L397.334 482.184L410.056 494.907L437.367 467.596L434.158 464.387L410.056 488.466Z" fill="white"/>
<path d="M410.056 597.493L400.566 588.003L397.334 591.212L410.056 603.934L437.367 576.623L434.158 573.414L410.056 597.493Z" fill="white"/>
<path d="M410.056 706.521L400.566 697.03L397.334 700.239L410.056 712.961L437.367 685.65L434.158 682.441L410.056 706.521Z" fill="white"/>
<g opacity="0.9">
<path d="M1063.91 151.259H1060.74L1058.62 145.742C1058.44 145.229 1058.15 144.873 1057.76 144.671C1057.37 144.469 1056.87 144.368 1056.25 144.368H1053.25V151.259H1050.27V134.684H1057.37C1059.24 134.684 1060.67 135.095 1061.65 135.918C1062.63 136.74 1063.12 137.92 1063.12 139.456C1063.12 140.558 1062.82 141.497 1062.23 142.273C1061.66 143.033 1060.83 143.577 1059.76 143.903C1060.74 144.104 1061.45 144.787 1061.88 145.951L1063.91 151.259ZM1056.95 142.04C1058.08 142.04 1058.92 141.831 1059.46 141.412C1060 140.993 1060.28 140.356 1060.28 139.503C1060.28 138.665 1060 138.044 1059.46 137.64C1058.93 137.221 1058.1 137.012 1056.95 137.012H1053.2V142.04H1056.95Z" fill="white"/>
<path d="M1076.69 145.532H1068.59C1068.65 146.789 1068.96 147.72 1069.52 148.326C1070.1 148.915 1070.94 149.21 1072.06 149.21C1073.35 149.21 1074.54 148.791 1075.64 147.953L1076.48 149.955C1075.92 150.405 1075.23 150.77 1074.41 151.049C1073.6 151.313 1072.78 151.445 1071.94 151.445C1070.02 151.445 1068.5 150.902 1067.4 149.816C1066.3 148.729 1065.75 147.239 1065.75 145.346C1065.75 144.151 1065.99 143.088 1066.47 142.157C1066.95 141.225 1067.63 140.504 1068.5 139.992C1069.37 139.464 1070.35 139.2 1071.45 139.2C1073.07 139.2 1074.34 139.728 1075.27 140.783C1076.22 141.823 1076.69 143.258 1076.69 145.09V145.532ZM1071.52 141.295C1070.75 141.295 1070.11 141.528 1069.61 141.994C1069.13 142.444 1068.82 143.103 1068.68 143.972H1074.15C1074.06 143.088 1073.79 142.42 1073.34 141.97C1072.9 141.52 1072.3 141.295 1071.52 141.295Z" fill="white"/>
<path d="M1090.4 134.125V151.259H1087.54V149.373C1087.18 150.025 1086.67 150.537 1086 150.91C1085.33 151.267 1084.57 151.445 1083.72 151.445C1082.71 151.445 1081.81 151.189 1081.02 150.677C1080.23 150.165 1079.61 149.443 1079.16 148.512C1078.72 147.565 1078.5 146.487 1078.5 145.276C1078.5 144.065 1078.72 143.002 1079.16 142.087C1079.59 141.171 1080.2 140.465 1080.99 139.968C1081.79 139.456 1082.69 139.2 1083.72 139.2C1084.56 139.2 1085.3 139.378 1085.95 139.735C1086.62 140.077 1087.13 140.566 1087.49 141.202V134.125H1090.4ZM1084.49 149.164C1085.45 149.164 1086.19 148.83 1086.72 148.163C1087.26 147.495 1087.54 146.549 1087.54 145.323C1087.54 144.097 1087.27 143.15 1086.75 142.482C1086.22 141.815 1085.47 141.481 1084.51 141.481C1083.53 141.481 1082.77 141.815 1082.23 142.482C1081.7 143.134 1081.44 144.065 1081.44 145.276C1081.44 146.502 1081.7 147.457 1082.23 148.139C1082.77 148.822 1083.52 149.164 1084.49 149.164Z" fill="white"/>
<path d="M1093.57 139.503H1096.46V151.259H1093.57V139.503ZM1096.62 134.172V137.035H1093.38V134.172H1096.62Z" fill="white"/>
<path d="M1103.95 151.445C1101.82 151.445 1100.13 150.949 1098.87 149.955L1099.69 147.907C1100.94 148.838 1102.38 149.303 1103.99 149.303C1104.69 149.303 1105.23 149.187 1105.6 148.954C1105.99 148.721 1106.18 148.396 1106.18 147.976C1106.18 147.62 1106.05 147.34 1105.79 147.138C1105.52 146.921 1105.07 146.735 1104.43 146.58L1102.48 146.137C1100.34 145.672 1099.27 144.578 1099.27 142.855C1099.27 142.141 1099.47 141.512 1099.87 140.969C1100.28 140.411 1100.84 139.976 1101.57 139.666C1102.3 139.355 1103.15 139.2 1104.11 139.2C1104.95 139.2 1105.75 139.332 1106.53 139.596C1107.31 139.844 1107.99 140.209 1108.58 140.69L1107.72 142.669C1106.54 141.8 1105.33 141.365 1104.09 141.365C1103.42 141.365 1102.9 141.489 1102.53 141.737C1102.15 141.986 1101.97 142.327 1101.97 142.762C1101.97 143.103 1102.08 143.375 1102.29 143.577C1102.53 143.778 1102.91 143.949 1103.46 144.089L1105.46 144.531C1106.62 144.795 1107.47 145.206 1108 145.765C1108.54 146.308 1108.81 147.022 1108.81 147.907C1108.81 148.993 1108.38 149.854 1107.51 150.491C1106.64 151.127 1105.45 151.445 1103.95 151.445Z" fill="white"/>
</g>
<path d="M1071.8 488.466L1062.31 478.975L1059.08 482.184L1071.8 494.907L1099.11 467.596L1095.9 464.387L1071.8 488.466Z" fill="white"/>
<path d="M1071.8 270.411L1062.31 260.921L1059.08 264.13L1071.8 276.852L1099.11 249.541L1095.9 246.332L1071.8 270.411Z" fill="white"/>
<path d="M1071.8 597.493L1062.31 588.003L1059.08 591.212L1071.8 603.934L1099.11 576.623L1095.9 573.414L1071.8 597.493Z" fill="white"/>
<path d="M1071.8 706.521L1062.31 697.03L1059.08 700.239L1071.8 712.961L1099.11 685.65L1095.9 682.441L1071.8 706.521Z" fill="white"/>
<path d="M1071.8 815.547L1062.31 806.056L1059.08 809.265L1071.8 821.988L1099.11 794.677L1095.9 791.468L1071.8 815.547Z" fill="white"/>
<g opacity="0.9">
<path d="M1278.26 134.684V151.259H1275.61V140.97L1271.21 151.259H1269.23L1264.81 141.086V151.259H1262.15V134.684H1264.53L1270.23 147.651L1275.89 134.684H1278.26Z" fill="white"/>
<path d="M1292.8 139.503L1287.33 152.051C1286.71 153.51 1285.92 154.573 1284.96 155.24C1284 155.908 1282.81 156.35 1281.4 156.567L1280.74 154.332C1281.85 154.084 1282.67 153.766 1283.21 153.378C1283.77 153.005 1284.22 152.447 1284.56 151.702L1284.93 150.84L1280.05 139.503H1283.1L1286.47 147.954L1289.92 139.503H1292.8Z" fill="white"/>
<path d="M1300.14 151.469C1298.86 151.469 1297.67 151.298 1296.55 150.957C1295.45 150.615 1294.51 150.126 1293.73 149.49L1294.76 147.302C1295.56 147.907 1296.4 148.357 1297.27 148.652C1298.16 148.931 1299.12 149.071 1300.16 149.071C1301.31 149.071 1302.19 148.869 1302.81 148.466C1303.45 148.062 1303.77 147.496 1303.77 146.766C1303.77 146.146 1303.47 145.672 1302.88 145.346C1302.31 145.005 1301.35 144.687 1300.02 144.392C1297.94 143.942 1296.43 143.36 1295.48 142.646C1294.53 141.932 1294.06 140.892 1294.06 139.526C1294.06 138.549 1294.32 137.679 1294.85 136.919C1295.38 136.159 1296.12 135.561 1297.09 135.126C1298.06 134.692 1299.19 134.475 1300.46 134.475C1301.63 134.475 1302.73 134.653 1303.77 135.01C1304.82 135.351 1305.68 135.833 1306.35 136.453L1305.35 138.642C1303.88 137.462 1302.25 136.872 1300.46 136.872C1299.39 136.872 1298.54 137.097 1297.92 137.548C1297.3 137.982 1296.99 138.58 1296.99 139.34C1296.99 139.992 1297.26 140.489 1297.81 140.83C1298.37 141.171 1299.31 141.49 1300.65 141.784C1302.03 142.11 1303.15 142.467 1304.02 142.855C1304.89 143.228 1305.56 143.717 1306.02 144.322C1306.49 144.912 1306.72 145.657 1306.72 146.557C1306.72 147.55 1306.46 148.419 1305.93 149.164C1305.4 149.894 1304.64 150.46 1303.65 150.864C1302.66 151.267 1301.49 151.469 1300.14 151.469Z" fill="white"/>
<path d="M1320.4 150.77C1320.74 151.376 1321.16 151.942 1321.66 152.47C1322.16 152.998 1322.74 153.533 1323.4 154.076L1321.38 155.706C1320.63 155.178 1319.93 154.542 1319.26 153.797C1318.61 153.067 1318.03 152.284 1317.54 151.446C1317.4 151.461 1317.17 151.469 1316.86 151.469C1315.26 151.469 1313.87 151.127 1312.67 150.445C1311.49 149.746 1310.58 148.761 1309.93 147.488C1309.29 146.2 1308.97 144.687 1308.97 142.948C1308.97 141.226 1309.29 139.728 1309.93 138.455C1310.56 137.167 1311.47 136.182 1312.65 135.499C1313.84 134.816 1315.25 134.475 1316.86 134.475C1318.48 134.475 1319.87 134.816 1321.05 135.499C1322.25 136.182 1323.16 137.167 1323.78 138.455C1324.41 139.728 1324.73 141.226 1324.73 142.948C1324.73 144.842 1324.35 146.464 1323.59 147.814C1322.85 149.164 1321.78 150.15 1320.4 150.77ZM1312 142.948C1312 144.919 1312.42 146.433 1313.28 147.488C1314.13 148.543 1315.33 149.071 1316.86 149.071C1318.4 149.071 1319.59 148.543 1320.45 147.488C1321.3 146.433 1321.73 144.919 1321.73 142.948C1321.73 140.993 1321.3 139.495 1320.45 138.455C1319.59 137.4 1318.4 136.872 1316.86 136.872C1315.33 136.872 1314.13 137.392 1313.28 138.432C1312.42 139.472 1312 140.977 1312 142.948Z" fill="white"/>
<path d="M1327.81 134.684H1330.81V148.792H1338.56V151.259H1327.81V134.684Z" fill="white"/>
</g>
<path d="M1292.38 597.494L1282.89 588.004L1279.66 591.213L1292.38 603.935L1319.69 576.624L1316.48 573.415L1292.38 597.494Z" fill="white"/>
<path d="M1292.38 706.522L1282.89 697.031L1279.66 700.24L1292.38 712.962L1319.69 685.651L1316.48 682.442L1292.38 706.522Z" fill="white"/>
<path d="M1292.38 815.547L1282.89 806.056L1279.66 809.265L1292.38 821.988L1319.69 794.677L1316.48 791.468L1292.38 815.547Z" fill="white"/>
<path d="M736.294 55.3385H732.352L731.668 51.7389C731.212 51.4509 730.546 51.199 729.671 50.983C728.795 50.767 727.865 50.659 726.881 50.659C725.441 50.659 724.325 50.965 723.533 51.5769C722.753 52.1769 722.363 52.9568 722.363 53.9166C722.363 54.8045 722.771 55.5365 723.587 56.1124C724.415 56.6763 725.837 57.2763 727.853 57.9122C730.744 58.7161 732.934 59.778 734.422 61.0978C735.922 62.4176 736.672 64.1514 736.672 66.2992C736.672 68.5429 735.784 70.3127 734.008 71.6086C732.232 72.9044 729.892 73.5523 726.989 73.5523C724.913 73.5523 723.035 73.2224 721.355 72.5625C719.688 71.9025 718.296 70.9906 717.18 69.8268V64.3554H721.247L721.805 68.081C722.333 68.5129 723.047 68.8729 723.947 69.1609C724.859 69.4368 725.873 69.5748 726.989 69.5748C728.429 69.5748 729.521 69.2808 730.264 68.6929C731.02 68.105 731.398 67.3191 731.398 66.3352C731.398 65.3273 731.038 64.5174 730.318 63.9055C729.611 63.2935 728.363 62.7176 726.575 62.1777C723.467 61.2778 721.116 60.2099 719.52 58.9741C717.924 57.7382 717.126 56.0464 717.126 53.8986C717.126 51.7749 718.026 50.0411 719.826 48.6973C721.625 47.3414 723.887 46.6455 726.611 46.6095C728.627 46.6095 730.462 46.9155 732.118 47.5274C733.774 48.1393 735.166 48.9552 736.294 49.9751V55.3385Z" fill="white"/>
<path d="M746.625 48.9312V53.7007H750.044V57.3902H746.625V67.3071C746.625 68.063 746.78 68.6029 747.092 68.9269C747.404 69.2508 747.824 69.4128 748.352 69.4128C748.712 69.4128 749.024 69.4008 749.288 69.3768C749.564 69.3408 749.87 69.2868 750.206 69.2149L750.656 73.0124C750.068 73.1924 749.486 73.3244 748.91 73.4084C748.334 73.5043 747.71 73.5523 747.038 73.5523C745.227 73.5523 743.829 73.0544 742.845 72.0585C741.873 71.0626 741.387 69.4848 741.387 67.3251V57.3902H738.525V53.7007H741.387V48.9312H746.625Z" fill="white"/>
<path d="M765.018 73.1744C764.874 72.8504 764.748 72.5205 764.64 72.1845C764.532 71.8365 764.448 71.4886 764.388 71.1406C763.765 71.8605 763.003 72.4425 762.103 72.8864C761.215 73.3304 760.195 73.5523 759.043 73.5523C757.135 73.5523 755.617 73.0364 754.49 72.0045C753.374 70.9606 752.816 69.5448 752.816 67.757C752.816 65.9332 753.548 64.5234 755.012 63.5275C756.475 62.5316 758.623 62.0337 761.455 62.0337H764.136V60.1259C764.136 59.19 763.866 58.4641 763.327 57.9482C762.787 57.4322 761.989 57.1743 760.933 57.1743C760.333 57.1743 759.799 57.2463 759.331 57.3902C758.863 57.5222 758.485 57.6842 758.197 57.8762L757.855 59.9639H753.896L753.914 55.6444C754.874 54.9965 755.971 54.4506 757.207 54.0066C758.455 53.5627 759.811 53.3407 761.275 53.3407C763.687 53.3407 765.642 53.9346 767.142 55.1225C768.654 56.2984 769.41 57.9782 769.41 60.1619V68.207C769.41 68.5069 769.41 68.7889 769.41 69.0529C769.422 69.3168 769.446 69.5688 769.482 69.8088L771.084 70.0248V73.1744H765.018ZM760.465 69.6648C761.257 69.6648 761.977 69.4968 762.625 69.1609C763.273 68.8129 763.777 68.381 764.136 67.865V64.8954H761.455C760.339 64.8954 759.493 65.1593 758.917 65.6873C758.341 66.2032 758.053 66.8271 758.053 67.559C758.053 68.219 758.263 68.7349 758.683 69.1069C759.115 69.4788 759.709 69.6648 760.465 69.6648Z" fill="white"/>
<path d="M779.201 48.9312V53.7007H782.62V57.3902H779.201V67.3071C779.201 68.063 779.357 68.6029 779.669 68.9269C779.981 69.2508 780.401 69.4128 780.928 69.4128C781.288 69.4128 781.6 69.4008 781.864 69.3768C782.14 69.3408 782.446 69.2868 782.782 69.2149L783.232 73.0124C782.644 73.1924 782.062 73.3244 781.486 73.4084C780.91 73.5043 780.287 73.5523 779.615 73.5523C777.803 73.5523 776.405 73.0544 775.421 72.0585C774.449 71.0626 773.963 69.4848 773.963 67.3251V57.3902H771.102V53.7007H773.963V48.9312H779.201Z" fill="white"/>
<path d="M794.517 73.5523C791.709 73.5523 789.465 72.6524 787.786 70.8527C786.106 69.0529 785.266 66.7671 785.266 63.9955V63.2755C785.266 60.3839 786.058 58.0022 787.642 56.1304C789.238 54.2586 791.373 53.3287 794.049 53.3407C796.677 53.3407 798.716 54.1326 800.168 55.7164C801.62 57.3003 802.346 59.442 802.346 62.1417V65.0033H790.719L790.683 65.1113C790.779 66.3952 791.205 67.4511 791.961 68.279C792.729 69.1069 793.767 69.5208 795.075 69.5208C796.239 69.5208 797.205 69.4068 797.972 69.1789C798.74 68.9389 799.58 68.5669 800.492 68.063L801.914 71.3026C801.11 71.9385 800.066 72.4725 798.782 72.9044C797.511 73.3364 796.089 73.5523 794.517 73.5523ZM794.049 57.3902C793.077 57.3902 792.309 57.7622 791.745 58.5061C791.181 59.25 790.833 60.2279 790.701 61.4398L790.755 61.5298H797.199V61.0618C797.199 59.9459 796.935 59.058 796.407 58.3981C795.891 57.7262 795.105 57.3902 794.049 57.3902Z" fill="white"/>
<path d="M805.136 70.0248L807.673 69.4848V57.3902H804.776V53.7007H807.673V51.5409C807.673 49.3572 808.303 47.6774 809.563 46.5015C810.823 45.3137 812.593 44.7197 814.873 44.7197C815.316 44.7197 815.766 44.7557 816.222 44.8277C816.69 44.8877 817.2 44.9777 817.752 45.0977L817.302 49.0032C817.014 48.9552 816.732 48.9132 816.456 48.8772C816.192 48.8412 815.88 48.8232 815.52 48.8232C814.669 48.8232 814.021 49.0572 813.577 49.5252C813.145 49.9931 812.929 50.665 812.929 51.5409V53.7007H816.798V57.3902H812.929V69.4848L815.466 70.0248V73.1744H805.136V70.0248Z" fill="white"/>
<path d="M832.186 70.7087C831.563 71.6206 830.789 72.3225 829.865 72.8144C828.953 73.3064 827.909 73.5523 826.733 73.5523C824.681 73.5523 823.074 72.8984 821.91 71.5906C820.746 70.2707 820.164 68.225 820.164 65.4533V57.4082L818.022 56.8683V53.7007H825.419V65.4893C825.419 66.9051 825.653 67.925 826.121 68.5489C826.601 69.1609 827.309 69.4668 828.245 69.4668C829.073 69.4668 829.787 69.3348 830.387 69.0709C830.999 68.7949 831.497 68.4049 831.881 67.901V57.4082L829.577 56.8683V53.7007H837.136V69.4848L839.494 70.0248V73.1744H832.528L832.186 70.7087Z" fill="white"/>
<path d="M841.005 48.2653V45.0977H849.068V69.4848L851.606 70.0248V73.1744H841.275V70.0248L843.813 69.4848V48.8052L841.005 48.2653Z" fill="white"/>
<path d="M890.122 56.8683L888.16 57.1203L884.092 73.1744H879.701L876.083 61.5837H875.975L872.358 73.1744H867.984L863.899 57.1203L861.937 56.8683V53.7007H870.756V56.8683L868.686 57.2643L870.522 66.1732H870.63L874.266 53.7007H877.793L881.465 66.2092H881.573L883.39 57.2823L881.303 56.8683V53.7007H890.122V56.8683Z" fill="white"/>
<path d="M891.921 63.2576C891.921 60.3539 892.731 57.9782 894.351 56.1304C895.983 54.2706 898.233 53.3407 901.1 53.3407C903.98 53.3407 906.23 54.2646 907.85 56.1124C909.481 57.9602 910.297 60.3419 910.297 63.2576V63.6355C910.297 66.5632 909.481 68.9509 907.85 70.7987C906.23 72.6345 903.992 73.5523 901.136 73.5523C898.245 73.5523 895.983 72.6345 894.351 70.7987C892.731 68.9509 891.921 66.5632 891.921 63.6355V63.2576ZM897.177 63.6355C897.177 65.4113 897.489 66.8391 898.113 67.919C898.737 68.9869 899.745 69.5208 901.136 69.5208C902.492 69.5208 903.482 68.9809 904.106 67.901C904.742 66.8211 905.06 65.3993 905.06 63.6355V63.2576C905.06 61.5298 904.742 60.1199 904.106 59.028C903.47 57.9362 902.468 57.3902 901.1 57.3902C899.733 57.3902 898.737 57.9362 898.113 59.028C897.489 60.1199 897.177 61.5298 897.177 63.2576V63.6355Z" fill="white"/>
<path d="M912.979 70.0248L915.499 69.4848V57.4082L912.709 56.8683V53.7007H920.394L920.628 56.5443C921.084 55.5365 921.672 54.7505 922.392 54.1866C923.112 53.6227 923.946 53.3407 924.894 53.3407C925.17 53.3407 925.458 53.3647 925.757 53.4127C926.069 53.4487 926.327 53.4967 926.531 53.5567L925.973 58.3441L923.814 58.2901C923.046 58.2901 922.41 58.4401 921.906 58.7401C921.402 59.04 921.018 59.466 920.754 60.0179V69.4848L923.274 70.0248V73.1744H912.979V70.0248Z" fill="white"/>
<path d="M926.639 48.2653V45.0977H934.684V61.3678H935.854L938.878 57.1023L937.168 56.8683V53.7007H946.743V56.8683L944.439 57.3902L940.93 62.2137L945.843 69.6108L947.841 70.0248V73.1744H938.842V70.0248L939.922 69.8448L936.934 65.0213H934.684V69.4848L936.952 70.0248V73.1744H926.909V70.0248L929.447 69.4848V48.8052L926.639 48.2653Z" fill="white"/>
<path d="M949.137 48.2653V45.0977H957.2V69.4848L959.738 70.0248V73.1744H949.407V70.0248L951.944 69.4848V48.8052L949.137 48.2653Z" fill="white"/>
<path d="M961.105 63.2576C961.105 60.3539 961.915 57.9782 963.535 56.1304C965.167 54.2706 967.417 53.3407 970.284 53.3407C973.164 53.3407 975.414 54.2646 977.033 56.1124C978.665 57.9602 979.481 60.3419 979.481 63.2576V63.6355C979.481 66.5632 978.665 68.9509 977.033 70.7987C975.414 72.6345 973.176 73.5523 970.32 73.5523C967.429 73.5523 965.167 72.6345 963.535 70.7987C961.915 68.9509 961.105 66.5632 961.105 63.6355V63.2576ZM966.361 63.6355C966.361 65.4113 966.673 66.8391 967.297 67.919C967.921 68.9869 968.928 69.5208 970.32 69.5208C971.676 69.5208 972.666 68.9809 973.29 67.901C973.926 66.8211 974.244 65.3993 974.244 63.6355V63.2576C974.244 61.5298 973.926 60.1199 973.29 59.028C972.654 57.9362 971.652 57.3902 970.284 57.3902C968.916 57.3902 967.921 57.9362 967.297 59.028C966.673 60.1199 966.361 61.5298 966.361 63.2576V63.6355Z" fill="white"/>
<path d="M994.167 73.1744C994.023 72.8504 993.898 72.5205 993.79 72.1845C993.682 71.8365 993.598 71.4886 993.538 71.1406C992.914 71.8605 992.152 72.4425 991.252 72.8864C990.364 73.3304 989.344 73.5523 988.192 73.5523C986.284 73.5523 984.767 73.0364 983.639 72.0045C982.523 70.9606 981.965 69.5448 981.965 67.757C981.965 65.9332 982.697 64.5234 984.161 63.5275C985.624 62.5316 987.772 62.0337 990.604 62.0337H993.286V60.1259C993.286 59.19 993.016 58.4641 992.476 57.9482C991.936 57.4322 991.138 57.1743 990.082 57.1743C989.482 57.1743 988.948 57.2463 988.48 57.3902C988.012 57.5222 987.634 57.6842 987.346 57.8762L987.004 59.9639H983.045L983.063 55.6444C984.023 54.9965 985.121 54.4506 986.356 54.0066C987.604 53.5627 988.96 53.3407 990.424 53.3407C992.836 53.3407 994.791 53.9346 996.291 55.1225C997.803 56.2984 998.559 57.9782 998.559 60.1619V68.207C998.559 68.5069 998.559 68.7889 998.559 69.0529C998.571 69.3168 998.595 69.5688 998.631 69.8088L1000.23 70.0248V73.1744H994.167ZM989.614 69.6648C990.406 69.6648 991.126 69.4968 991.774 69.1609C992.422 68.8129 992.926 68.381 993.286 67.865V64.8954H990.604C989.488 64.8954 988.642 65.1593 988.066 65.6873C987.49 66.2032 987.202 66.8271 987.202 67.559C987.202 68.219 987.412 68.7349 987.832 69.1069C988.264 69.4788 988.858 69.6648 989.614 69.6648Z" fill="white"/>
<path d="M1014.7 70.7987C1014.09 71.6986 1013.37 72.3825 1012.53 72.8504C1011.7 73.3184 1010.75 73.5523 1009.68 73.5523C1007.28 73.5523 1005.42 72.6764 1004.08 70.9247C1002.76 69.1729 1002.1 66.8571 1002.1 63.9775V63.5995C1002.1 60.5279 1002.77 58.0502 1004.1 56.1664C1005.43 54.2826 1007.31 53.3407 1009.72 53.3407C1010.69 53.3407 1011.57 53.5567 1012.35 53.9886C1013.13 54.4086 1013.81 55.0085 1014.4 55.7884V48.8052L1011.59 48.2653V45.0977H1019.65V69.4848L1022.17 70.0248V73.1744H1015.1L1014.7 70.7987ZM1007.36 63.9775C1007.36 65.6813 1007.64 67.0251 1008.21 68.009C1008.78 68.9809 1009.72 69.4668 1011.01 69.4668C1011.78 69.4668 1012.45 69.3108 1013.01 68.9989C1013.58 68.6869 1014.04 68.237 1014.4 67.649V59.388C1014.04 58.7641 1013.58 58.2841 1013.01 57.9482C1012.46 57.6002 1011.81 57.4262 1011.05 57.4262C1009.77 57.4262 1008.83 57.9962 1008.24 59.136C1007.65 60.2759 1007.36 61.7637 1007.36 63.5995V63.9775Z" fill="white"/>
<path d="M1039.74 60.3959H1036.21L1035.65 57.9662C1035.29 57.6782 1034.84 57.4382 1034.28 57.2463C1033.74 57.0543 1033.14 56.9583 1032.48 56.9583C1031.56 56.9583 1030.83 57.1683 1030.29 57.5882C1029.75 57.9962 1029.48 58.5121 1029.48 59.136C1029.48 59.724 1029.74 60.2159 1030.25 60.6119C1030.77 60.9958 1031.8 61.3378 1033.35 61.6377C1035.76 62.1177 1037.55 62.8256 1038.71 63.7615C1039.88 64.6854 1040.46 65.9632 1040.46 67.595C1040.46 69.3468 1039.7 70.7807 1038.19 71.8965C1036.69 73.0004 1034.71 73.5523 1032.25 73.5523C1030.75 73.5523 1029.37 73.3364 1028.11 72.9044C1026.86 72.4605 1025.75 71.8305 1024.78 71.0146L1024.73 66.6412H1028.4L1029.12 69.1789C1029.43 69.4428 1029.86 69.6408 1030.4 69.7728C1030.94 69.8928 1031.5 69.9528 1032.09 69.9528C1033.16 69.9528 1033.97 69.7608 1034.52 69.3768C1035.08 68.9929 1035.36 68.4709 1035.36 67.811C1035.36 67.2351 1035.08 66.7371 1034.52 66.3172C1033.95 65.8972 1032.92 65.5253 1031.41 65.2013C1029.11 64.7334 1027.38 64.0435 1026.2 63.1316C1025.04 62.2077 1024.46 60.9538 1024.46 59.37C1024.46 57.7382 1025.13 56.3344 1026.47 55.1585C1027.82 53.9706 1029.73 53.3767 1032.22 53.3767C1033.73 53.3767 1035.15 53.5807 1036.5 53.9886C1037.85 54.3966 1038.92 54.9185 1039.68 55.5545L1039.74 60.3959Z" fill="white"/>
<path d="M66.1579 266.313H58.7287L57.2116 269.838H53.709L61.0043 253.953H63.8153L71.1106 269.838H67.6749L66.1579 266.313ZM65.0201 263.658L62.4544 257.701L59.8888 263.658H65.0201Z" fill="white"/>
<path d="M78.8251 258.259C79.3011 258.259 79.7026 258.333 80.0298 258.482L80.0075 261.561C79.4572 261.308 78.9069 261.181 78.3566 261.181C77.4642 261.181 76.7801 261.427 76.3041 261.918C75.843 262.394 75.6125 263.063 75.6125 263.926V269.838H72.2437V261.761C72.2437 260.557 72.1842 259.478 72.0652 258.527H75.2332L75.4563 260.467C75.7389 259.754 76.1777 259.211 76.7726 258.839C77.3824 258.452 78.0666 258.259 78.8251 258.259Z" fill="white"/>
<path d="M81.3942 258.527H84.763V269.838H81.3942V258.527ZM84.8746 253.217V256.385H81.2827V253.217H84.8746Z" fill="white"/>
<path d="M91.8445 270.016C89.7027 270.016 88.0146 269.555 86.7801 268.633L87.6725 266.29C88.2675 266.722 88.9293 267.056 89.6581 267.294C90.3869 267.517 91.1305 267.629 91.8891 267.629C92.4691 267.629 92.9153 267.54 93.2277 267.361C93.54 267.183 93.6962 266.922 93.6962 266.58C93.6962 266.298 93.5846 266.075 93.3615 265.911C93.1384 265.747 92.7443 265.606 92.1791 265.487L90.3274 265.063C89.2416 264.825 88.4385 264.446 87.9179 263.926C87.4122 263.405 87.1594 262.713 87.1594 261.851C87.1594 261.152 87.3602 260.527 87.7618 259.977C88.1782 259.426 88.7508 259.002 89.4796 258.705C90.2084 258.393 91.0487 258.237 92.0006 258.237C92.8038 258.237 93.5921 258.363 94.3655 258.616C95.1389 258.854 95.8305 259.196 96.4403 259.642L95.5033 261.895C94.9232 261.494 94.3283 261.189 93.7185 260.981C93.1236 260.772 92.5435 260.668 91.9783 260.668C91.428 260.668 90.9967 260.765 90.6843 260.958C90.372 261.152 90.2158 261.419 90.2158 261.761C90.2158 262.014 90.3051 262.223 90.4836 262.386C90.6769 262.535 91.0116 262.661 91.4875 262.765L93.3838 263.189C94.5439 263.457 95.3843 263.859 95.9048 264.394C96.4254 264.929 96.6857 265.643 96.6857 266.536C96.6857 267.607 96.2544 268.454 95.3917 269.079C94.5291 269.704 93.3467 270.016 91.8445 270.016Z" fill="white"/>
<path d="M102.867 261.048V265.443C102.867 266.067 103.03 266.528 103.357 266.826C103.685 267.108 104.108 267.25 104.629 267.25C104.956 267.25 105.328 267.198 105.745 267.093V269.704C105.209 269.912 104.562 270.016 103.804 270.016C102.405 270.016 101.335 269.622 100.591 268.834C99.8622 268.045 99.4978 266.937 99.4978 265.509V261.048H97.356V258.527H99.4978V255.872L102.867 254.778V258.527H105.745V261.048H102.867Z" fill="white"/>
<path d="M118.807 258.527V269.838H115.482V268.164C115.14 268.744 114.657 269.198 114.032 269.525C113.408 269.852 112.701 270.016 111.913 270.016C110.931 270.016 110.061 269.778 109.303 269.302C108.559 268.826 107.971 268.149 107.54 267.272C107.124 266.38 106.915 265.353 106.915 264.193C106.915 263.033 107.124 261.999 107.54 261.092C107.971 260.185 108.566 259.486 109.325 258.995C110.083 258.489 110.946 258.237 111.913 258.237C112.701 258.237 113.408 258.408 114.032 258.75C114.657 259.092 115.14 259.553 115.482 260.133V258.527H118.807ZM112.894 267.45C113.727 267.45 114.367 267.168 114.813 266.603C115.259 266.037 115.482 265.219 115.482 264.149C115.482 263.078 115.259 262.26 114.813 261.695C114.367 261.114 113.727 260.824 112.894 260.824C112.062 260.824 111.415 261.122 110.954 261.717C110.492 262.312 110.262 263.137 110.262 264.193C110.262 265.249 110.485 266.06 110.931 266.625C111.392 267.175 112.047 267.45 112.894 267.45Z" fill="white"/>
<path d="M141.789 253.953V269.838H139.201L131.281 259.709V269.838H128.023V253.953H130.589L138.509 264.059V253.953H141.789Z" fill="white"/>
<path d="M154.902 264.461H147.45C147.51 265.517 147.785 266.29 148.276 266.781C148.766 267.257 149.495 267.495 150.462 267.495C151.042 267.495 151.622 267.398 152.202 267.205C152.782 267.012 153.318 266.729 153.808 266.357L154.701 268.633C154.165 269.064 153.496 269.406 152.693 269.659C151.905 269.897 151.109 270.016 150.306 270.016C148.402 270.016 146.907 269.496 145.821 268.454C144.736 267.398 144.193 265.963 144.193 264.149C144.193 263.003 144.423 261.985 144.884 261.092C145.36 260.185 146.022 259.486 146.87 258.995C147.718 258.489 148.677 258.237 149.748 258.237C151.339 258.237 152.596 258.757 153.518 259.798C154.44 260.824 154.902 262.215 154.902 263.97V264.461ZM149.837 260.601C149.198 260.601 148.677 260.787 148.276 261.159C147.889 261.531 147.636 262.074 147.517 262.788H152.001C151.823 261.33 151.101 260.601 149.837 260.601Z" fill="white"/>
<path d="M161.038 261.048V265.443C161.038 266.067 161.201 266.528 161.528 266.826C161.856 267.108 162.28 267.25 162.8 267.25C163.127 267.25 163.499 267.198 163.916 267.093V269.704C163.38 269.912 162.733 270.016 161.975 270.016C160.577 270.016 159.506 269.622 158.762 268.834C158.033 268.045 157.669 266.937 157.669 265.509V261.048H155.527V258.527H157.669V255.872L161.038 254.778V258.527H163.916V261.048H161.038Z" fill="white"/>
<path d="M184.357 258.527L179.783 269.838H176.95L174.384 263.279L171.93 269.838H169.075L164.501 258.527H167.937L170.659 265.822L173.358 258.527H175.656L178.378 265.889L181.1 258.527H184.357Z" fill="white"/>
<path d="M190.913 270.016C189.708 270.016 188.652 269.778 187.745 269.302C186.852 268.826 186.161 268.142 185.67 267.25C185.194 266.357 184.956 265.316 184.956 264.126C184.956 262.936 185.194 261.895 185.67 261.003C186.161 260.111 186.852 259.426 187.745 258.95C188.652 258.474 189.708 258.237 190.913 258.237C192.103 258.237 193.144 258.474 194.036 258.95C194.929 259.426 195.613 260.111 196.089 261.003C196.58 261.895 196.825 262.936 196.825 264.126C196.825 265.316 196.58 266.357 196.089 267.25C195.613 268.142 194.929 268.826 194.036 269.302C193.144 269.778 192.103 270.016 190.913 270.016ZM190.913 267.45C191.746 267.45 192.378 267.175 192.809 266.625C193.255 266.075 193.479 265.242 193.479 264.126C193.479 263.026 193.255 262.2 192.809 261.65C192.378 261.085 191.746 260.802 190.913 260.802C190.065 260.802 189.418 261.085 188.972 261.65C188.526 262.2 188.303 263.026 188.303 264.126C188.303 266.342 189.173 267.45 190.913 267.45Z" fill="white"/>
<path d="M205.56 258.259C206.036 258.259 206.437 258.333 206.764 258.482L206.742 261.561C206.192 261.308 205.641 261.181 205.091 261.181C204.199 261.181 203.515 261.427 203.039 261.918C202.578 262.394 202.347 263.063 202.347 263.926V269.838H198.978V261.761C198.978 260.557 198.919 259.478 198.8 258.527H201.968L202.191 260.467C202.473 259.754 202.912 259.211 203.507 258.839C204.117 258.452 204.801 258.259 205.56 258.259Z" fill="white"/>
<path d="M215.937 269.838L211.498 264.773V269.838H208.129V253.418H211.498V263.39L215.736 258.549H219.774L214.978 263.97L220.064 269.838H215.937Z" fill="white"/>
<path d="M225.137 270.016C222.995 270.016 221.307 269.555 220.073 268.633L220.965 266.29C221.56 266.722 222.222 267.056 222.95 267.294C223.679 267.517 224.423 267.629 225.181 267.629C225.762 267.629 226.208 267.54 226.52 267.361C226.832 267.183 226.989 266.922 226.989 266.58C226.989 266.298 226.877 266.075 226.654 265.911C226.431 265.747 226.037 265.606 225.471 265.487L223.62 265.063C222.534 264.825 221.731 264.446 221.21 263.926C220.705 263.405 220.452 262.713 220.452 261.851C220.452 261.152 220.653 260.527 221.054 259.977C221.471 259.426 222.043 259.002 222.772 258.705C223.501 258.393 224.341 258.237 225.293 258.237C226.096 258.237 226.884 258.363 227.658 258.616C228.431 258.854 229.123 259.196 229.733 259.642L228.796 261.895C228.216 261.494 227.621 261.189 227.011 260.981C226.416 260.772 225.836 260.668 225.271 260.668C224.72 260.668 224.289 260.765 223.977 260.958C223.664 261.152 223.508 261.419 223.508 261.761C223.508 262.014 223.597 262.223 223.776 262.386C223.969 262.535 224.304 262.661 224.78 262.765L226.676 263.189C227.836 263.457 228.677 263.859 229.197 264.394C229.718 264.929 229.978 265.643 229.978 266.536C229.978 267.607 229.547 268.454 228.684 269.079C227.821 269.704 226.639 270.016 225.137 270.016Z" fill="white"/>
<path d="M93.7356 370.655C94.6578 370.923 95.3717 371.391 95.8774 372.061C96.383 372.73 96.6359 373.548 96.6359 374.515C96.6359 375.853 96.1376 376.917 95.1411 377.705C94.1446 378.478 92.7912 378.865 91.0808 378.865H83.54V362.98H90.8577C92.5086 362.98 93.81 363.352 94.7619 364.096C95.7286 364.825 96.212 365.829 96.212 367.108C96.212 367.941 95.9889 368.669 95.5427 369.294C95.1114 369.919 94.509 370.372 93.7356 370.655ZM86.9311 369.45H90.2776C91.17 369.45 91.8318 369.302 92.2632 369.004C92.7094 368.692 92.9325 368.216 92.9325 367.576C92.9325 366.922 92.7094 366.438 92.2632 366.126C91.8318 365.814 91.17 365.658 90.2776 365.658H86.9311V369.45ZM90.6792 376.188C91.6162 376.188 92.2929 376.032 92.7094 375.719C93.1407 375.392 93.3564 374.879 93.3564 374.18C93.3564 373.466 93.1407 372.946 92.7094 372.618C92.2929 372.291 91.6162 372.127 90.6792 372.127H86.9311V376.188H90.6792Z" fill="white"/>
<path d="M110.006 367.554L104.785 379.467C104.146 380.91 103.335 381.966 102.354 382.635C101.387 383.32 100.197 383.758 98.7841 383.952L98.0032 381.364C99.0444 381.141 99.8252 380.858 100.346 380.516C100.881 380.174 101.298 379.676 101.595 379.021L101.93 378.285L97.267 367.554H100.792L103.692 374.894L106.682 367.554H110.006Z" fill="white"/>
<path d="M115.683 370.075V374.47C115.683 375.095 115.846 375.556 116.174 375.853C116.501 376.136 116.925 376.277 117.445 376.277C117.772 376.277 118.144 376.225 118.561 376.121V378.731C118.025 378.939 117.378 379.044 116.62 379.044C115.222 379.044 114.151 378.649 113.407 377.861C112.678 377.073 112.314 375.965 112.314 374.537V370.075H110.172V367.554H112.314V364.899L115.683 363.806V367.554H118.561V370.075H115.683Z" fill="white"/>
<path d="M130.44 373.488H122.989C123.048 374.544 123.323 375.318 123.814 375.809C124.305 376.285 125.034 376.523 126.001 376.523C126.581 376.523 127.161 376.426 127.741 376.232C128.321 376.039 128.856 375.757 129.347 375.385L130.24 377.66C129.704 378.092 129.035 378.434 128.232 378.687C127.443 378.925 126.648 379.044 125.844 379.044C123.941 379.044 122.446 378.523 121.36 377.482C120.274 376.426 119.732 374.991 119.732 373.176C119.732 372.031 119.962 371.012 120.423 370.12C120.899 369.212 121.561 368.513 122.409 368.022C123.257 367.517 124.216 367.264 125.287 367.264C126.878 367.264 128.135 367.785 129.057 368.826C129.979 369.852 130.44 371.243 130.44 372.998V373.488ZM125.376 369.629C124.736 369.629 124.216 369.815 123.814 370.187C123.428 370.558 123.175 371.101 123.056 371.815H127.54C127.362 370.358 126.64 369.629 125.376 369.629Z" fill="white"/>
<path d="M132.778 362.98H138.914C140.654 362.98 142.149 363.293 143.398 363.917C144.647 364.542 145.599 365.449 146.254 366.639C146.923 367.829 147.258 369.25 147.258 370.9C147.258 372.566 146.93 373.994 146.276 375.184C145.621 376.374 144.67 377.288 143.42 377.928C142.171 378.553 140.669 378.865 138.914 378.865H132.778V362.98ZM138.691 376.054C142.082 376.054 143.777 374.336 143.777 370.9C143.777 367.494 142.082 365.792 138.691 365.792H136.259V376.054H138.691Z" fill="white"/>
<path d="M161.1 367.554V378.865H157.776V377.192C157.434 377.772 156.951 378.226 156.326 378.553C155.701 378.88 154.995 379.044 154.207 379.044C153.225 379.044 152.355 378.806 151.596 378.33C150.853 377.854 150.265 377.177 149.834 376.299C149.418 375.407 149.209 374.381 149.209 373.221C149.209 372.061 149.418 371.027 149.834 370.12C150.265 369.212 150.86 368.513 151.619 368.022C152.377 367.517 153.24 367.264 154.207 367.264C154.995 367.264 155.701 367.435 156.326 367.777C156.951 368.119 157.434 368.58 157.776 369.16V367.554H161.1ZM155.188 376.478C156.021 376.478 156.661 376.195 157.107 375.63C157.553 375.065 157.776 374.247 157.776 373.176C157.776 372.105 157.553 371.287 157.107 370.722C156.661 370.142 156.021 369.852 155.188 369.852C154.355 369.852 153.708 370.149 153.247 370.744C152.786 371.339 152.556 372.165 152.556 373.221C152.556 374.277 152.779 375.087 153.225 375.652C153.686 376.203 154.341 376.478 155.188 376.478Z" fill="white"/>
<path d="M170.803 367.264C173.48 367.264 174.818 368.848 174.818 372.016V378.865H171.45V372.172C171.45 371.384 171.301 370.811 171.003 370.454C170.721 370.082 170.267 369.897 169.642 369.897C168.899 369.897 168.304 370.134 167.858 370.61C167.411 371.086 167.188 371.726 167.188 372.529V378.865H163.82V370.789C163.82 369.584 163.76 368.506 163.641 367.554H166.809L167.032 369.339C167.434 368.669 167.954 368.156 168.594 367.799C169.248 367.442 169.985 367.264 170.803 367.264Z" fill="white"/>
<path d="M182.856 379.044C181.012 379.044 179.562 378.523 178.506 377.482C177.465 376.441 176.944 375.02 176.944 373.221C176.944 372.046 177.197 371.012 177.703 370.12C178.208 369.212 178.915 368.513 179.822 368.022C180.744 367.517 181.808 367.264 183.012 367.264C183.83 367.264 184.626 367.39 185.399 367.643C186.173 367.896 186.79 368.238 187.251 368.669L186.359 371.012C185.913 370.655 185.422 370.38 184.886 370.187C184.351 369.978 183.83 369.874 183.325 369.874C182.403 369.874 181.681 370.157 181.161 370.722C180.655 371.272 180.402 372.083 180.402 373.154C180.402 374.239 180.655 375.065 181.161 375.63C181.666 376.18 182.388 376.456 183.325 376.456C183.83 376.456 184.351 376.359 184.886 376.166C185.422 375.957 185.913 375.675 186.359 375.318L187.251 377.66C186.76 378.092 186.121 378.434 185.333 378.687C184.544 378.925 183.719 379.044 182.856 379.044Z" fill="white"/>
<path d="M199.004 373.488H191.552C191.612 374.544 191.887 375.318 192.378 375.809C192.869 376.285 193.597 376.523 194.564 376.523C195.144 376.523 195.724 376.426 196.304 376.232C196.884 376.039 197.42 375.757 197.911 375.385L198.803 377.66C198.268 378.092 197.598 378.434 196.795 378.687C196.007 378.925 195.211 379.044 194.408 379.044C192.504 379.044 191.009 378.523 189.924 377.482C188.838 376.426 188.295 374.991 188.295 373.176C188.295 372.031 188.526 371.012 188.987 370.12C189.463 369.212 190.124 368.513 190.972 368.022C191.82 367.517 192.779 367.264 193.85 367.264C195.442 367.264 196.698 367.785 197.621 368.826C198.543 369.852 199.004 371.243 199.004 372.998V373.488ZM193.939 369.629C193.3 369.629 192.779 369.815 192.378 370.187C191.991 370.558 191.738 371.101 191.619 371.815H196.103C195.925 370.358 195.204 369.629 193.939 369.629Z" fill="white"/>
<path d="M112.965 459.963C111.359 459.963 109.953 459.628 108.748 458.959C107.558 458.275 106.644 457.323 106.004 456.103C105.365 454.869 105.045 453.434 105.045 451.798C105.045 450.176 105.365 448.756 106.004 447.536C106.644 446.302 107.558 445.35 108.748 444.681C109.953 444.011 111.359 443.677 112.965 443.677C114.021 443.677 115.025 443.84 115.977 444.168C116.943 444.48 117.732 444.926 118.341 445.506L117.248 448.005C116.534 447.469 115.835 447.083 115.151 446.845C114.482 446.592 113.775 446.465 113.032 446.465C111.604 446.465 110.511 446.919 109.752 447.826C108.994 448.734 108.614 450.057 108.614 451.798C108.614 453.553 108.994 454.891 109.752 455.813C110.511 456.721 111.604 457.174 113.032 457.174C113.775 457.174 114.482 457.055 115.151 456.817C115.835 456.564 116.534 456.17 117.248 455.635L118.341 458.134C117.732 458.714 116.943 459.167 115.977 459.494C115.025 459.807 114.021 459.963 112.965 459.963Z" fill="white"/>
<path d="M134.551 443.878V459.762H131.963L124.043 449.633V459.762H120.786V443.878H123.352L131.272 453.984V443.878H134.551Z" fill="white"/>
<path d="M145.188 459.963C143.581 459.963 142.176 459.628 140.971 458.959C139.781 458.275 138.867 457.323 138.227 456.103C137.587 454.869 137.268 453.434 137.268 451.798C137.268 450.176 137.587 448.756 138.227 447.536C138.867 446.302 139.781 445.35 140.971 444.681C142.176 444.011 143.581 443.677 145.188 443.677C146.244 443.677 147.248 443.84 148.199 444.168C149.166 444.48 149.955 444.926 150.564 445.506L149.471 448.005C148.757 447.469 148.058 447.083 147.374 446.845C146.705 446.592 145.998 446.465 145.255 446.465C143.827 446.465 142.734 446.919 141.975 447.826C141.217 448.734 140.837 450.057 140.837 451.798C140.837 453.553 141.217 454.891 141.975 455.813C142.734 456.721 143.827 457.174 145.255 457.174C145.998 457.174 146.705 457.055 147.374 456.817C148.058 456.564 148.757 456.17 149.471 455.635L150.564 458.134C149.955 458.714 149.166 459.167 148.199 459.494C147.248 459.807 146.244 459.963 145.188 459.963Z" fill="white"/>
<path d="M153.009 443.878H163.718V446.622H156.445V450.303H163.271V453.069H156.445V459.762H153.009V443.878Z" fill="white"/>
<path d="M168.268 456.17V458.468C168.268 459.346 168.112 460.134 167.8 460.833C167.502 461.547 166.989 462.261 166.26 462.975L164.944 461.948C165.673 461.19 166.126 460.461 166.305 459.762H164.632V456.17H168.268Z" fill="white"/>
<path d="M92.6904 474.841H87.7153V472.007H101.19V474.841H96.2153V487.892H92.6904V474.841Z" fill="white"/>
<path d="M109.8 476.291C112.478 476.291 113.816 477.875 113.816 481.043V487.892H110.447V481.199C110.447 480.411 110.299 479.838 110.001 479.481C109.719 479.109 109.265 478.923 108.64 478.923C107.897 478.923 107.302 479.161 106.856 479.637C106.409 480.113 106.186 480.753 106.186 481.556V487.892H102.817V471.472H106.186V478.12C106.588 477.525 107.101 477.072 107.726 476.759C108.35 476.447 109.042 476.291 109.8 476.291Z" fill="white"/>
<path d="M126.651 482.515H119.199C119.259 483.571 119.534 484.345 120.025 484.835C120.515 485.311 121.244 485.549 122.211 485.549C122.791 485.549 123.371 485.453 123.951 485.259C124.531 485.066 125.067 484.783 125.557 484.412L126.45 486.687C125.914 487.118 125.245 487.461 124.442 487.713C123.654 487.951 122.858 488.07 122.055 488.07C120.151 488.07 118.656 487.55 117.57 486.509C116.485 485.453 115.942 484.017 115.942 482.203C115.942 481.058 116.172 480.039 116.633 479.146C117.109 478.239 117.771 477.54 118.619 477.049C119.467 476.544 120.426 476.291 121.497 476.291C123.088 476.291 124.345 476.811 125.267 477.852C126.19 478.879 126.651 480.269 126.651 482.024V482.515ZM121.586 478.656C120.947 478.656 120.426 478.842 120.025 479.213C119.638 479.585 119.385 480.128 119.266 480.842H123.75C123.572 479.384 122.85 478.656 121.586 478.656Z" fill="white"/>
<path d="M135.263 472.007H138.744V485.059H145.838V487.892H135.263V472.007Z" fill="white"/>
<path d="M147.742 476.581H151.111V487.892H147.742V476.581ZM151.222 471.271V474.439H147.631V471.271H151.222Z" fill="white"/>
<path d="M160.847 476.291C163.524 476.291 164.863 477.875 164.863 481.043V487.892H161.494V481.199C161.494 480.411 161.345 479.838 161.048 479.481C160.765 479.109 160.312 478.923 159.687 478.923C158.943 478.923 158.348 479.161 157.902 479.637C157.456 480.113 157.233 480.753 157.233 481.556V487.892H153.864V479.816C153.864 478.611 153.805 477.533 153.686 476.581H156.854L157.077 478.366C157.478 477.696 157.999 477.183 158.638 476.826C159.293 476.469 160.029 476.291 160.847 476.291Z" fill="white"/>
<path d="M178.344 476.581V487.892H175.065V486.241C174.708 486.836 174.239 487.29 173.659 487.602C173.079 487.914 172.425 488.07 171.696 488.07C170.283 488.07 169.227 487.676 168.528 486.888C167.829 486.1 167.479 484.91 167.479 483.318V476.581H170.848V483.385C170.848 484.754 171.436 485.438 172.611 485.438C173.31 485.438 173.875 485.2 174.306 484.724C174.738 484.248 174.953 483.623 174.953 482.85V476.581H178.344Z" fill="white"/>
<path d="M192.633 487.892H188.661L185.917 484.434L183.173 487.892H179.224L183.999 482.069L179.514 476.581H183.485L185.917 479.726L188.349 476.581H192.342L187.858 482.069L192.633 487.892Z" fill="white"/>
<path d="M79.5869 500.137H90.2956V502.881H83.0226V506.562H89.8494V509.329H83.0226V516.022H79.5869V500.137Z" fill="white"/>
<path d="M97.4428 516.2C96.238 516.2 95.182 515.962 94.2748 515.486C93.3824 515.01 92.6908 514.326 92.2 513.434C91.724 512.541 91.4861 511.5 91.4861 510.31C91.4861 509.12 91.724 508.079 92.2 507.187C92.6908 506.295 93.3824 505.61 94.2748 505.134C95.182 504.659 96.238 504.421 97.4428 504.421C98.6326 504.421 99.6738 504.659 100.566 505.134C101.459 505.61 102.143 506.295 102.619 507.187C103.109 508.079 103.355 509.12 103.355 510.31C103.355 511.5 103.109 512.541 102.619 513.434C102.143 514.326 101.459 515.01 100.566 515.486C99.6738 515.962 98.6326 516.2 97.4428 516.2ZM97.4428 513.634C98.2757 513.634 98.9078 513.359 99.3391 512.809C99.7853 512.259 100.008 511.426 100.008 510.31C100.008 509.21 99.7853 508.384 99.3391 507.834C98.9078 507.269 98.2757 506.986 97.4428 506.986C96.595 506.986 95.948 507.269 95.5018 507.834C95.0556 508.384 94.8325 509.21 94.8325 510.31C94.8325 512.526 95.7026 513.634 97.4428 513.634Z" fill="white"/>
<path d="M116.306 504.711V516.022H113.027V514.371C112.67 514.966 112.201 515.419 111.621 515.732C111.041 516.044 110.387 516.2 109.658 516.2C108.245 516.2 107.189 515.806 106.49 515.018C105.791 514.229 105.441 513.04 105.441 511.448V504.711H108.81V511.515C108.81 512.883 109.397 513.568 110.572 513.568C111.271 513.568 111.837 513.33 112.268 512.854C112.699 512.378 112.915 511.753 112.915 510.98V504.711H116.306Z" fill="white"/>
<path d="M126.021 504.421C128.698 504.421 130.037 506.005 130.037 509.173V516.022H126.668V509.329C126.668 508.54 126.519 507.968 126.222 507.611C125.939 507.239 125.485 507.053 124.861 507.053C124.117 507.053 123.522 507.291 123.076 507.767C122.63 508.243 122.407 508.882 122.407 509.686V516.022H119.038V507.945C119.038 506.741 118.978 505.662 118.859 504.711H122.027L122.25 506.495C122.652 505.826 123.173 505.313 123.812 504.956C124.467 504.599 125.203 504.421 126.021 504.421Z" fill="white"/>
<path d="M144.053 499.602V516.022H140.729V514.348C140.387 514.928 139.904 515.382 139.279 515.709C138.654 516.037 137.948 516.2 137.16 516.2C136.193 516.2 135.33 515.955 134.572 515.464C133.813 514.958 133.218 514.259 132.787 513.367C132.37 512.46 132.162 511.426 132.162 510.266C132.162 509.106 132.37 508.087 132.787 507.209C133.218 506.317 133.806 505.633 134.549 505.157C135.308 504.666 136.178 504.421 137.16 504.421C137.918 504.421 138.61 504.584 139.234 504.911C139.859 505.224 140.342 505.662 140.685 506.228V499.602H144.053ZM138.141 513.634C138.974 513.634 139.614 513.352 140.06 512.787C140.506 512.207 140.729 511.381 140.729 510.31C140.729 509.254 140.499 508.444 140.038 507.879C139.591 507.299 138.959 507.008 138.141 507.008C137.308 507.008 136.661 507.291 136.2 507.856C135.739 508.421 135.509 509.225 135.509 510.266C135.509 511.337 135.739 512.169 136.2 512.764C136.661 513.344 137.308 513.634 138.141 513.634Z" fill="white"/>
<path d="M158.106 504.711V516.022H154.782V514.348C154.44 514.928 153.956 515.382 153.332 515.709C152.707 516.037 152 516.2 151.212 516.2C150.231 516.2 149.36 515.962 148.602 515.486C147.858 515.01 147.271 514.334 146.839 513.456C146.423 512.564 146.215 511.537 146.215 510.377C146.215 509.217 146.423 508.183 146.839 507.276C147.271 506.369 147.866 505.67 148.624 505.179C149.383 504.673 150.245 504.421 151.212 504.421C152 504.421 152.707 504.592 153.332 504.934C153.956 505.276 154.44 505.737 154.782 506.317V504.711H158.106ZM152.194 513.634C153.027 513.634 153.666 513.352 154.112 512.787C154.559 512.222 154.782 511.404 154.782 510.333C154.782 509.262 154.559 508.444 154.112 507.879C153.666 507.299 153.027 507.008 152.194 507.008C151.361 507.008 150.714 507.306 150.253 507.901C149.792 508.496 149.561 509.321 149.561 510.377C149.561 511.433 149.784 512.244 150.231 512.809C150.692 513.359 151.346 513.634 152.194 513.634Z" fill="white"/>
<path d="M165.064 507.232V511.627C165.064 512.251 165.228 512.712 165.555 513.01C165.882 513.292 166.306 513.434 166.826 513.434C167.154 513.434 167.525 513.382 167.942 513.278V515.888C167.406 516.096 166.76 516.2 166.001 516.2C164.603 516.2 163.532 515.806 162.788 515.018C162.06 514.229 161.695 513.121 161.695 511.694V507.232H159.553V504.711H161.695V502.056L165.064 500.963V504.711H167.942V507.232H165.064Z" fill="white"/>
<path d="M169.671 504.711H173.039V516.022H169.671V504.711ZM173.151 499.401V502.569H169.559V499.401H173.151Z" fill="white"/>
<path d="M181.192 516.2C179.987 516.2 178.931 515.962 178.024 515.486C177.131 515.01 176.44 514.326 175.949 513.434C175.473 512.541 175.235 511.5 175.235 510.31C175.235 509.12 175.473 508.079 175.949 507.187C176.44 506.295 177.131 505.61 178.024 505.134C178.931 504.659 179.987 504.421 181.192 504.421C182.382 504.421 183.423 504.659 184.315 505.134C185.207 505.61 185.892 506.295 186.368 507.187C186.858 508.079 187.104 509.12 187.104 510.31C187.104 511.5 186.858 512.541 186.368 513.434C185.892 514.326 185.207 515.01 184.315 515.486C183.423 515.962 182.382 516.2 181.192 516.2ZM181.192 513.634C182.025 513.634 182.657 513.359 183.088 512.809C183.534 512.259 183.757 511.426 183.757 510.31C183.757 509.21 183.534 508.384 183.088 507.834C182.657 507.269 182.025 506.986 181.192 506.986C180.344 506.986 179.697 507.269 179.251 507.834C178.805 508.384 178.581 509.21 178.581 510.31C178.581 512.526 179.452 513.634 181.192 513.634Z" fill="white"/>
<path d="M196.24 504.421C198.917 504.421 200.256 506.005 200.256 509.173V516.022H196.887V509.329C196.887 508.54 196.738 507.968 196.441 507.611C196.158 507.239 195.705 507.053 195.08 507.053C194.336 507.053 193.741 507.291 193.295 507.767C192.849 508.243 192.626 508.882 192.626 509.686V516.022H189.257V507.945C189.257 506.741 189.198 505.662 189.079 504.711H192.247L192.47 506.495C192.871 505.826 193.392 505.313 194.031 504.956C194.686 504.599 195.422 504.421 196.24 504.421Z" fill="white"/>
<path d="M86.9472 596.919L80.0311 589.579V596.919H76.5508V581.034H80.0311V588.017L86.7017 581.034H90.8514L83.4668 588.62L91.1414 596.919H86.9472Z" fill="white"/>
<path d="M102.18 585.608V596.919H98.9008V595.268C98.5439 595.863 98.0754 596.317 97.4953 596.629C96.9153 596.941 96.2609 597.098 95.5321 597.098C94.1191 597.098 93.0631 596.703 92.3641 595.915C91.665 595.127 91.3155 593.937 91.3155 592.346V585.608H94.6843V592.412C94.6843 593.781 95.2718 594.465 96.4468 594.465C97.1458 594.465 97.711 594.227 98.1423 593.751C98.5736 593.275 98.7893 592.65 98.7893 591.877V585.608H102.18Z" fill="white"/>
<path d="M111.828 585.318C112.81 585.318 113.68 585.563 114.438 586.054C115.197 586.53 115.784 587.214 116.201 588.107C116.617 588.984 116.826 590.003 116.826 591.163C116.826 592.323 116.61 593.357 116.179 594.264C115.762 595.157 115.175 595.856 114.416 596.361C113.658 596.852 112.795 597.098 111.828 597.098C111.04 597.098 110.326 596.934 109.686 596.607C109.062 596.265 108.586 595.804 108.259 595.223V596.919H104.912V580.499H108.281V587.192C108.608 586.612 109.084 586.158 109.709 585.831C110.348 585.489 111.055 585.318 111.828 585.318ZM110.869 594.532C111.702 594.532 112.341 594.242 112.787 593.662C113.234 593.082 113.457 592.249 113.457 591.163C113.457 590.122 113.234 589.319 112.787 588.754C112.341 588.188 111.702 587.906 110.869 587.906C110.036 587.906 109.389 588.196 108.928 588.776C108.482 589.341 108.259 590.152 108.259 591.208C108.259 592.279 108.482 593.104 108.928 593.684C109.389 594.249 110.036 594.532 110.869 594.532Z" fill="white"/>
<path d="M129.137 591.542H121.686C121.745 592.598 122.021 593.372 122.511 593.863C123.002 594.339 123.731 594.577 124.698 594.577C125.278 594.577 125.858 594.48 126.438 594.286C127.018 594.093 127.553 593.811 128.044 593.439L128.937 595.714C128.401 596.146 127.732 596.488 126.929 596.741C126.14 596.979 125.345 597.098 124.542 597.098C122.638 597.098 121.143 596.577 120.057 595.536C118.972 594.48 118.429 593.045 118.429 591.23C118.429 590.085 118.659 589.066 119.12 588.174C119.596 587.266 120.258 586.567 121.106 586.076C121.954 585.571 122.913 585.318 123.984 585.318C125.575 585.318 126.832 585.839 127.754 586.88C128.676 587.906 129.137 589.297 129.137 591.052V591.542ZM124.073 587.683C123.434 587.683 122.913 587.869 122.511 588.241C122.125 588.612 121.872 589.155 121.753 589.869H126.237C126.059 588.412 125.337 587.683 124.073 587.683Z" fill="white"/>
<path d="M137.031 597.12C135.826 597.12 134.666 596.964 133.55 596.651C132.45 596.324 131.535 595.87 130.806 595.29L131.922 592.792C133.454 593.863 135.164 594.398 137.053 594.398C138.064 594.398 138.838 594.242 139.373 593.93C139.924 593.602 140.199 593.149 140.199 592.569C140.199 592.063 139.946 591.669 139.44 591.386C138.949 591.089 138.079 590.806 136.83 590.538C135.432 590.256 134.316 589.914 133.483 589.512C132.665 589.096 132.063 588.597 131.676 588.017C131.305 587.423 131.119 586.686 131.119 585.809C131.119 584.857 131.379 584.002 131.899 583.243C132.435 582.485 133.179 581.897 134.13 581.481C135.082 581.049 136.183 580.834 137.432 580.834C138.563 580.834 139.648 580.997 140.69 581.324C141.731 581.652 142.564 582.098 143.188 582.663L142.073 585.162C140.675 584.091 139.135 583.555 137.455 583.555C136.562 583.555 135.848 583.734 135.313 584.091C134.777 584.448 134.51 584.931 134.51 585.541C134.51 585.898 134.606 586.195 134.8 586.433C135.008 586.671 135.35 586.887 135.826 587.08C136.302 587.259 136.979 587.437 137.856 587.616C139.894 588.062 141.359 588.642 142.251 589.356C143.159 590.07 143.612 591.044 143.612 592.279C143.612 593.766 143.032 594.948 141.872 595.826C140.712 596.689 139.098 597.12 137.031 597.12Z" fill="white"/>
<path d="M152.831 585.318C153.798 585.318 154.661 585.571 155.419 586.076C156.178 586.567 156.765 587.266 157.182 588.174C157.613 589.081 157.829 590.115 157.829 591.275C157.829 592.435 157.62 593.461 157.204 594.353C156.787 595.231 156.2 595.908 155.441 596.384C154.683 596.86 153.813 597.098 152.831 597.098C152.043 597.098 151.336 596.934 150.712 596.607C150.087 596.279 149.611 595.826 149.284 595.246V601.738H145.915V588.843C145.915 587.638 145.856 586.56 145.737 585.608H148.905L149.128 587.482C149.425 586.813 149.901 586.285 150.556 585.898C151.225 585.511 151.983 585.318 152.831 585.318ZM151.872 594.532C152.705 594.532 153.344 594.257 153.79 593.706C154.237 593.141 154.46 592.331 154.46 591.275C154.46 590.219 154.229 589.393 153.768 588.798C153.322 588.203 152.69 587.906 151.872 587.906C151.039 587.906 150.392 588.196 149.931 588.776C149.485 589.341 149.262 590.159 149.262 591.23C149.262 592.301 149.485 593.119 149.931 593.684C150.392 594.249 151.039 594.532 151.872 594.532Z" fill="white"/>
<path d="M166.972 585.318C169.65 585.318 170.988 586.902 170.988 590.07V596.919H167.619V590.226C167.619 589.438 167.471 588.865 167.173 588.508C166.891 588.136 166.437 587.95 165.812 587.95C165.069 587.95 164.474 588.188 164.028 588.664C163.581 589.14 163.358 589.78 163.358 590.583V596.919H159.989V580.499H163.358V587.147C163.76 586.552 164.273 586.099 164.898 585.786C165.522 585.474 166.214 585.318 166.972 585.318Z" fill="white"/>
<path d="M183.823 591.542H176.371C176.431 592.598 176.706 593.372 177.197 593.863C177.687 594.339 178.416 594.577 179.383 594.577C179.963 594.577 180.543 594.48 181.123 594.286C181.703 594.093 182.239 593.811 182.729 593.439L183.622 595.714C183.086 596.146 182.417 596.488 181.614 596.741C180.826 596.979 180.03 597.098 179.227 597.098C177.323 597.098 175.828 596.577 174.743 595.536C173.657 594.48 173.114 593.045 173.114 591.23C173.114 590.085 173.344 589.066 173.805 588.174C174.281 587.266 174.943 586.567 175.791 586.076C176.639 585.571 177.598 585.318 178.669 585.318C180.26 585.318 181.517 585.839 182.439 586.88C183.362 587.906 183.823 589.297 183.823 591.052V591.542ZM178.758 587.683C178.119 587.683 177.598 587.869 177.197 588.241C176.81 588.612 176.557 589.155 176.438 589.869H180.922C180.744 588.412 180.022 587.683 178.758 587.683Z" fill="white"/>
<path d="M192.519 585.34C192.995 585.34 193.397 585.415 193.724 585.563L193.701 588.642C193.151 588.389 192.601 588.263 192.051 588.263C191.158 588.263 190.474 588.508 189.998 588.999C189.537 589.475 189.306 590.144 189.306 591.007V596.919H185.938V588.843C185.938 587.638 185.878 586.56 185.759 585.608H188.927L189.15 587.549C189.433 586.835 189.872 586.292 190.467 585.92C191.076 585.534 191.761 585.34 192.519 585.34Z" fill="white"/>
<path d="M205.021 591.542H197.57C197.629 592.598 197.904 593.372 198.395 593.863C198.886 594.339 199.615 594.577 200.582 594.577C201.162 594.577 201.742 594.48 202.322 594.286C202.902 594.093 203.437 593.811 203.928 593.439L204.82 595.714C204.285 596.146 203.616 596.488 202.813 596.741C202.024 596.979 201.229 597.098 200.425 597.098C198.522 597.098 197.027 596.577 195.941 595.536C194.855 594.48 194.313 593.045 194.313 591.23C194.313 590.085 194.543 589.066 195.004 588.174C195.48 587.266 196.142 586.567 196.99 586.076C197.838 585.571 198.797 585.318 199.868 585.318C201.459 585.318 202.716 585.839 203.638 586.88C204.56 587.906 205.021 589.297 205.021 591.052V591.542ZM199.957 587.683C199.317 587.683 198.797 587.869 198.395 588.241C198.009 588.612 197.756 589.155 197.637 589.869H202.121C201.943 588.412 201.221 587.683 199.957 587.683Z" fill="white"/>
<path d="M111.047 706.147C109.47 706.147 108.095 705.82 106.92 705.166C105.76 704.497 104.86 703.545 104.22 702.31C103.596 701.076 103.283 699.633 103.283 697.982C103.283 696.331 103.596 694.896 104.22 693.676C104.86 692.457 105.76 691.52 106.92 690.865C108.095 690.196 109.47 689.861 111.047 689.861C112.624 689.861 113.992 690.196 115.152 690.865C116.312 691.52 117.205 692.457 117.829 693.676C118.454 694.896 118.766 696.331 118.766 697.982C118.766 699.633 118.454 701.076 117.829 702.31C117.205 703.545 116.312 704.497 115.152 705.166C113.992 705.82 112.624 706.147 111.047 706.147ZM111.047 703.426C112.386 703.426 113.427 702.957 114.17 702.02C114.929 701.083 115.308 699.737 115.308 697.982C115.308 696.227 114.929 694.888 114.17 693.966C113.427 693.044 112.386 692.583 111.047 692.583C109.708 692.583 108.66 693.044 107.901 693.966C107.158 694.888 106.786 696.227 106.786 697.982C106.786 699.752 107.158 701.105 107.901 702.042C108.66 702.965 109.708 703.426 111.047 703.426Z" fill="white"/>
<path d="M128.179 694.346C129.146 694.346 130.009 694.598 130.767 695.104C131.526 695.595 132.113 696.294 132.53 697.201C132.961 698.109 133.177 699.142 133.177 700.302C133.177 701.462 132.968 702.489 132.552 703.381C132.135 704.259 131.548 704.935 130.789 705.411C130.031 705.887 129.161 706.125 128.179 706.125C127.391 706.125 126.684 705.962 126.06 705.634C125.435 705.307 124.959 704.854 124.632 704.273V710.766H121.263V697.871C121.263 696.666 121.204 695.588 121.085 694.636H124.253L124.476 696.51C124.773 695.84 125.249 695.312 125.904 694.926C126.573 694.539 127.331 694.346 128.179 694.346ZM127.22 703.56C128.053 703.56 128.692 703.284 129.139 702.734C129.585 702.169 129.808 701.358 129.808 700.302C129.808 699.246 129.577 698.421 129.116 697.826C128.67 697.231 128.038 696.934 127.22 696.934C126.387 696.934 125.74 697.224 125.279 697.804C124.833 698.369 124.61 699.187 124.61 700.258C124.61 701.329 124.833 702.147 125.279 702.712C125.74 703.277 126.387 703.56 127.22 703.56Z" fill="white"/>
<path d="M139.467 697.157V701.552C139.467 702.176 139.631 702.637 139.958 702.935C140.285 703.217 140.709 703.359 141.23 703.359C141.557 703.359 141.929 703.307 142.345 703.203V705.813C141.81 706.021 141.163 706.125 140.404 706.125C139.006 706.125 137.936 705.731 137.192 704.943C136.463 704.154 136.099 703.046 136.099 701.619V697.157H133.957V694.636H136.099V691.981L139.467 690.888V694.636H142.345V697.157H139.467Z" fill="white"/>
<path d="M149.473 706.125C148.268 706.125 147.212 705.887 146.305 705.411C145.413 704.935 144.721 704.251 144.23 703.359C143.754 702.466 143.516 701.425 143.516 700.235C143.516 699.046 143.754 698.004 144.23 697.112C144.721 696.22 145.413 695.535 146.305 695.06C147.212 694.584 148.268 694.346 149.473 694.346C150.663 694.346 151.704 694.584 152.596 695.06C153.489 695.535 154.173 696.22 154.649 697.112C155.14 698.004 155.385 699.046 155.385 700.235C155.385 701.425 155.14 702.466 154.649 703.359C154.173 704.251 153.489 704.935 152.596 705.411C151.704 705.887 150.663 706.125 149.473 706.125ZM149.473 703.56C150.306 703.56 150.938 703.284 151.369 702.734C151.816 702.184 152.039 701.351 152.039 700.235C152.039 699.135 151.816 698.309 151.369 697.759C150.938 697.194 150.306 696.911 149.473 696.911C148.625 696.911 147.978 697.194 147.532 697.759C147.086 698.309 146.863 699.135 146.863 700.235C146.863 702.451 147.733 703.56 149.473 703.56Z" fill="white"/>
<path d="M164.12 694.368C164.596 694.368 164.997 694.442 165.325 694.591L165.302 697.67C164.752 697.417 164.202 697.29 163.651 697.29C162.759 697.29 162.075 697.536 161.599 698.027C161.138 698.503 160.907 699.172 160.907 700.035V705.947H157.538V697.871C157.538 696.666 157.479 695.588 157.36 694.636H160.528L160.751 696.577C161.034 695.863 161.472 695.32 162.067 694.948C162.677 694.561 163.361 694.368 164.12 694.368Z" fill="white"/>
<path d="M171.87 706.125C170.665 706.125 169.609 705.887 168.702 705.411C167.81 704.935 167.118 704.251 166.627 703.359C166.151 702.466 165.913 701.425 165.913 700.235C165.913 699.046 166.151 698.004 166.627 697.112C167.118 696.22 167.81 695.535 168.702 695.06C169.609 694.584 170.665 694.346 171.87 694.346C173.06 694.346 174.101 694.584 174.993 695.06C175.886 695.535 176.57 696.22 177.046 697.112C177.537 698.004 177.782 699.046 177.782 700.235C177.782 701.425 177.537 702.466 177.046 703.359C176.57 704.251 175.886 704.935 174.993 705.411C174.101 705.887 173.06 706.125 171.87 706.125ZM171.87 703.56C172.703 703.56 173.335 703.284 173.766 702.734C174.213 702.184 174.436 701.351 174.436 700.235C174.436 699.135 174.213 698.309 173.766 697.759C173.335 697.194 172.703 696.911 171.87 696.911C171.022 696.911 170.375 697.194 169.929 697.759C169.483 698.309 169.26 699.135 169.26 700.235C169.26 702.451 170.13 703.56 171.87 703.56Z" fill="white"/>
<path d="M108.361 815.175C106.785 815.175 105.409 814.848 104.234 814.193C103.074 813.524 102.174 812.572 101.535 811.338C100.91 810.103 100.598 808.66 100.598 807.009C100.598 805.359 100.91 803.923 101.535 802.704C102.174 801.484 103.074 800.547 104.234 799.893C105.409 799.223 106.785 798.889 108.361 798.889C109.938 798.889 111.306 799.223 112.466 799.893C113.627 800.547 114.519 801.484 115.144 802.704C115.768 803.923 116.081 805.359 116.081 807.009C116.081 808.66 115.768 810.103 115.144 811.338C114.519 812.572 113.627 813.524 112.466 814.193C111.306 814.848 109.938 815.175 108.361 815.175ZM108.361 812.453C109.7 812.453 110.741 811.985 111.485 811.048C112.243 810.111 112.623 808.764 112.623 807.009C112.623 805.254 112.243 803.916 111.485 802.994C110.741 802.072 109.7 801.61 108.361 801.61C107.023 801.61 105.974 802.072 105.216 802.994C104.472 803.916 104.1 805.254 104.1 807.009C104.1 808.779 104.472 810.133 105.216 811.07C105.974 811.992 107.023 812.453 108.361 812.453Z" fill="white"/>
<path d="M125.159 803.395C125.635 803.395 126.037 803.47 126.364 803.618L126.341 806.697C125.791 806.444 125.241 806.318 124.691 806.318C123.798 806.318 123.114 806.563 122.638 807.054C122.177 807.53 121.946 808.199 121.946 809.062V814.974H118.578V806.898C118.578 805.693 118.518 804.615 118.399 803.663H121.567L121.79 805.604C122.073 804.89 122.512 804.347 123.107 803.975C123.716 803.589 124.4 803.395 125.159 803.395Z" fill="white"/>
<path d="M138.844 803.663V814.974H135.519V813.301C135.177 813.881 134.694 814.334 134.069 814.662C133.445 814.989 132.738 815.153 131.95 815.153C130.968 815.153 130.098 814.915 129.34 814.439C128.596 813.963 128.009 813.286 127.577 812.408C127.161 811.516 126.953 810.49 126.953 809.33C126.953 808.17 127.161 807.136 127.577 806.229C128.009 805.321 128.603 804.622 129.362 804.131C130.12 803.626 130.983 803.373 131.95 803.373C132.738 803.373 133.445 803.544 134.069 803.886C134.694 804.228 135.177 804.689 135.519 805.269V803.663H138.844ZM132.932 812.587C133.764 812.587 134.404 812.304 134.85 811.739C135.296 811.174 135.519 810.356 135.519 809.285C135.519 808.214 135.296 807.396 134.85 806.831C134.404 806.251 133.764 805.961 132.932 805.961C132.099 805.961 131.452 806.258 130.991 806.853C130.53 807.448 130.299 808.274 130.299 809.33C130.299 810.386 130.522 811.196 130.968 811.761C131.429 812.312 132.084 812.587 132.932 812.587Z" fill="white"/>
<path d="M148.546 803.373C151.223 803.373 152.562 804.957 152.562 808.125V814.974H149.193V808.281C149.193 807.493 149.044 806.92 148.747 806.563C148.464 806.191 148.01 806.005 147.386 806.005C146.642 806.005 146.047 806.243 145.601 806.719C145.155 807.195 144.932 807.835 144.932 808.638V814.974H141.563V806.898C141.563 805.693 141.503 804.615 141.384 803.663H144.552L144.775 805.448C145.177 804.778 145.698 804.265 146.337 803.908C146.992 803.551 147.728 803.373 148.546 803.373Z" fill="white"/>
<path d="M166.69 803.663V814.461C166.69 816.261 166.169 817.629 165.128 818.566C164.087 819.503 162.57 819.971 160.577 819.971C158.777 819.971 157.216 819.622 155.892 818.923L156.405 816.424C157.773 817.108 159.127 817.45 160.465 817.45C161.432 817.45 162.154 817.22 162.63 816.759C163.105 816.313 163.343 815.628 163.343 814.706V812.743C162.986 813.293 162.488 813.754 161.849 814.126C161.209 814.483 160.503 814.662 159.729 814.662C158.748 814.662 157.878 814.431 157.119 813.97C156.36 813.494 155.766 812.832 155.334 811.985C154.903 811.122 154.687 810.133 154.687 809.017C154.687 807.902 154.903 806.92 155.334 806.072C155.766 805.21 156.36 804.548 157.119 804.087C157.878 803.611 158.748 803.373 159.729 803.373C160.518 803.373 161.231 803.544 161.871 803.886C162.511 804.228 163.001 804.689 163.343 805.269V803.663H166.69ZM160.711 812.096C161.529 812.096 162.168 811.828 162.63 811.293C163.105 810.743 163.343 809.984 163.343 809.017C163.343 808.065 163.113 807.322 162.652 806.786C162.191 806.236 161.544 805.961 160.711 805.961C159.878 805.961 159.224 806.236 158.748 806.786C158.272 807.322 158.034 808.065 158.034 809.017C158.034 809.969 158.272 810.72 158.748 811.271C159.224 811.821 159.878 812.096 160.711 812.096Z" fill="white"/>
<path d="M179.536 809.597H172.084C172.144 810.653 172.419 811.427 172.91 811.918C173.4 812.394 174.129 812.632 175.096 812.632C175.676 812.632 176.256 812.535 176.836 812.341C177.416 812.148 177.952 811.866 178.442 811.494L179.335 813.769C178.799 814.201 178.13 814.543 177.327 814.796C176.539 815.034 175.743 815.153 174.94 815.153C173.036 815.153 171.541 814.632 170.456 813.591C169.37 812.535 168.827 811.1 168.827 809.285C168.827 808.14 169.057 807.121 169.519 806.229C169.995 805.321 170.656 804.622 171.504 804.131C172.352 803.626 173.311 803.373 174.382 803.373C175.974 803.373 177.23 803.894 178.152 804.935C179.075 805.961 179.536 807.352 179.536 809.107V809.597ZM174.471 805.738C173.832 805.738 173.311 805.924 172.91 806.296C172.523 806.667 172.27 807.21 172.151 807.924H176.635C176.457 806.467 175.736 805.738 174.471 805.738Z" fill="white"/>
</g>
<defs>
<linearGradient id="paint0_linear" x1="304.577" y1="114.952" x2="1412.44" y2="110.872" gradientUnits="userSpaceOnUse">
<stop stop-color="#F39242"/>
<stop offset="1" stop-color="#E9700D"/>
</linearGradient>
<linearGradient id="paint1_linear" x1="239.328" y1="73.964" x2="74.8419" y2="217.549" gradientUnits="userSpaceOnUse">
<stop stop-color="#865FED"/>
<stop offset="1" stop-color="#5129BC"/>
</linearGradient>
<clipPath id="clip0">
<rect width="1412.45" height="892.77" fill="white"/>
</clipPath>
</defs>
</svg>
