<svg width="30" height="30" viewBox="0 0 30 30" fill="none" xmlns="http://www.w3.org/2000/svg">
<path d="M14.9883 2.23547C7.74316 2.23255 1.875 8.09778 1.875 15.337C1.875 21.0616 5.5459 25.9279 10.6582 27.715C11.3467 27.8878 11.2412 27.3986 11.2412 27.0646V24.7941C7.26562 25.2599 7.10449 22.629 6.83789 22.1896C6.29883 21.2697 5.02441 21.0353 5.40527 20.5958C6.31055 20.13 7.2334 20.713 8.30273 22.2921C9.07617 23.4376 10.585 23.2443 11.3496 23.0538C11.5166 22.3654 11.874 21.7501 12.3662 21.2726C8.24707 20.5343 6.53027 18.0206 6.53027 15.0323C6.53027 13.5822 7.00781 12.2491 7.94531 11.174C7.34766 9.40149 8.00098 7.88391 8.08887 7.65833C9.79102 7.50598 11.5605 8.87708 11.6982 8.98548C12.665 8.72473 13.7695 8.58704 15.0059 8.58704C16.248 8.58704 17.3555 8.73059 18.3311 8.99426C18.6621 8.74231 20.3027 7.56458 21.8848 7.70813C21.9697 7.93372 22.6084 9.41614 22.0459 11.1652C22.9951 12.2433 23.4785 13.588 23.4785 15.0411C23.4785 18.0353 21.75 20.5519 17.6191 21.2784C17.973 21.6264 18.2539 22.0414 18.4455 22.4991C18.6372 22.9569 18.7357 23.4482 18.7353 23.9445V27.2404C18.7588 27.504 18.7353 27.7648 19.1748 27.7648C24.3633 26.0157 28.0986 21.1144 28.0986 15.34C28.0986 8.09778 22.2275 2.23547 14.9883 2.23547Z" fill="white"/>
</svg>
