<svg width="30" height="30" viewBox="0 0 30 30" fill="none" xmlns="http://www.w3.org/2000/svg">
<path d="M27.187 7.44978C26.2905 7.8365 25.3149 8.11482 24.3101 8.22322C25.3534 7.6034 26.1346 6.62419 26.5073 5.46931C25.5283 6.0517 24.4558 6.46008 23.3374 6.67634C22.87 6.17662 22.3046 5.77851 21.6766 5.50683C21.0485 5.23516 20.3713 5.09573 19.687 5.09724C16.9185 5.09724 14.6919 7.34138 14.6919 10.0953C14.6919 10.482 14.7388 10.8687 14.8149 11.2408C10.6694 11.024 6.97217 9.04353 4.51416 6.0113C4.06629 6.77629 3.83158 7.64732 3.83447 8.53376C3.83447 10.2681 4.71631 11.7974 6.06103 12.6969C5.26857 12.6656 4.49466 12.4478 3.80225 12.0611V12.1226C3.80225 14.5513 5.51904 16.564 7.80713 17.0269C7.37752 17.1385 6.93557 17.1956 6.4917 17.1969C6.1665 17.1969 5.85889 17.1646 5.54834 17.1207C6.18115 19.1011 8.02393 20.5396 10.2183 20.5865C8.50146 21.9312 6.35107 22.7222 4.01611 22.7222C3.59717 22.7222 3.21045 22.7076 2.80908 22.6607C5.02393 24.0816 7.65185 24.9019 10.4819 24.9019C19.6694 24.9019 24.6968 17.2906 24.6968 10.6842C24.6968 10.4674 24.6968 10.2506 24.6821 10.0338C25.6548 9.32185 26.5073 8.44001 27.187 7.44978Z" fill="white"/>
</svg>
