<?xml version="1.0" encoding="UTF-8"?>
<svg width="559px" height="288px" viewBox="0 0 559 288" version="1.1" xmlns="http://www.w3.org/2000/svg" xmlns:xlink="http://www.w3.org/1999/xlink">
    <!-- Generator: Sketch 52.5 (67469) - http://www.bohemiancoding.com/sketch -->
    <title>AZ</title>
    <desc>Created with Sketch.</desc>
    <g id="AZ" stroke="none" stroke-width="1" fill="none" fill-rule="evenodd">
        <g id="Group-9-Copy-7" transform="translate(1.000000, 1.000000)">
            <g id="Group-7" opacity="0.5367141" transform="translate(0.000000, 251.627643)" fill="#6C63FF">
                <ellipse id="Oval" cx="32" cy="27.3723566" rx="32" ry="4"></ellipse>
                <path d="M40.9215974,13.0801545 C42.3494899,12.0547513 43.3886747,10.6698284 43.9004675,9.11021036 C44.289354,7.54005975 43.5271366,5.68193392 41.8160362,5.07170071 C39.9027149,4.42718474 37.8571722,5.59965528 36.3094042,6.77898238 C34.7616362,7.95830947 32.9805363,9.30905039 30.9583268,9.05535793 C33.0779793,7.3578409 34.0341723,4.80559443 33.4783109,2.32907956 C33.3898083,1.82461758 33.1479052,1.35072277 32.7783153,0.957768984 C31.7127665,-0.0432877365 29.7916674,0.381818542 28.5161199,1.17032212 C24.4717009,3.67982048 23.3439302,8.52740336 23.320597,12.8813144 C22.9161551,11.3111638 23.2583752,9.67244769 23.2505975,8.08172742 C23.2428198,6.49100716 22.7372674,4.65345099 21.1894993,3.81009498 C20.2349771,3.35741241 19.161735,3.1350719 18.0784078,3.16557901 C16.266197,3.10387003 14.2362098,3.2684273 12.9995509,4.44089785 C11.4440051,5.89448706 11.8562247,8.33541988 13.1939941,9.92614015 C14.5317635,11.5168604 16.5773061,12.5384868 18.4595165,13.6423918 C19.9652086,14.4338252 21.2492295,15.5142112 22.2161595,16.8032627 C22.3326832,16.983423 22.4265711,17.1742492 22.4961578,17.3723566 L33.8983083,17.3723566 C36.4483771,16.2275546 38.8109235,14.7837116 40.9215974,13.0801545 Z" id="Path"></path>
            </g>
            <ellipse id="Oval" fill="#CBCBFD" cx="118.497199" cy="279.313822" rx="63.4971989" ry="4.31382171"></ellipse>
            <ellipse id="Oval-Copy" fill="#CBCBFD" cx="389.497199" cy="279.313822" rx="63.4971989" ry="4.31382171"></ellipse>
            <path d="M556.149522,108.059201 C556.149522,91.4000739 549.105753,76.7348967 538.249301,67.8586052 C538.378545,66.1862604 538.507788,64.4495947 538.507788,62.712929 C538.507788,35.6981288 519.896729,13.7646839 496.891392,13.7646839 C489.524514,13.7646839 482.67461,16.0159172 476.664789,19.9394954 C460.380112,7.52555148 439.119562,-2.27373675e-13 415.855737,-2.27373675e-13 C378.052023,-2.27373675e-13 345.482669,19.8751744 331.072022,48.4336775 C330.296562,48.3693565 329.456479,48.3693565 328.616397,48.3693565 C305.611059,48.3693565 287,70.3028014 287,97.3176016 C287,107.287349 289.520248,116.485246 293.849904,124.20376 C293.849904,148.51708 313.688776,168.199292 338.05117,168.199292 C359.046752,188.618509 378.841709,198.828117 397.436042,198.828117 C411.954121,198.828117 455.280529,206.374227 487.843633,196.408953 C497.209777,193.542636 506.34322,184.139415 515.243964,168.199292 C534.436619,168.199292 550.010457,152.697942 550.010457,133.594619 C553.887761,126.197709 556.149522,117.385739 556.149522,108.059201 Z" id="Path" fill="#EFEDFD"></path>
            <path d="M238.207619,41.0847574 C239.250205,40.6375731 240.538106,39.807088 241.21272,38.2100012 C241.335377,37.8905838 241.764678,37.9544673 241.826006,38.2738847 C242.132649,39.3599037 242.929921,40.6375731 244.769779,41.2125244 C245.076422,41.3402913 245.137751,41.7874756 244.831108,41.9152426 C243.84985,42.2985434 242.623278,43.1290285 241.887335,44.7899988 C241.764678,45.1094162 241.335377,45.0455327 241.274049,44.7261153 C240.967406,43.7039798 240.108806,42.3624269 238.207619,41.7874756 C237.962305,41.6597087 237.900976,41.2125244 238.207619,41.0847574 Z" id="Path-Copy" fill="#684FF1"></path>
            <path d="M314.182668,26.2106182 C315.046188,25.9238705 316.175407,25.2930255 316.773229,24.1460347 C316.906079,23.9166366 317.238202,23.9739861 317.304627,24.2033843 C317.570325,24.9489283 318.234572,25.866521 319.828763,26.3253173 C320.094462,26.3826668 320.094462,26.7267641 319.828763,26.7841136 C318.965243,27.0708613 317.902448,27.6443567 317.304627,28.848697 C317.171777,29.0780952 316.839654,29.0207457 316.773229,28.848697 C316.507531,28.103153 315.77686,27.1855604 314.116243,26.7267641 C313.983394,26.612065 313.916969,26.2679677 314.182668,26.2106182 Z" id="Path-Copy-3" stroke="#684FF1"></path>
            <g id="USESCAES" transform="translate(2.000000, 42.000000)">
                <polygon id="Path-2" fill="#FEFEFE" points="354.250896 38.8897059 289.356272 79 258.672401 119 313.408696 166.313422 367.833333 209.5 460.86071 183.2 477.116822 89.9411765 427.521739 38.8897059"></polygon>
                <path d="M216.911903,113 L167.151648,64.5839598 C151.953934,50.0509832 131.5269,42.1313274 110.4462,43.0294327 C86.5874243,44.0091839 58.8883658,56.2560743 43.527236,101.324631 L21.1392065,111.938603 L3,89.975846 C3,89.975846 18.5245461,10.7792879 103.664425,0.491899897 C103.664425,0.491899897 109.220578,-0.242913529 118.290182,0.0836702156 C148.113652,1.3900052 176.466375,13.8818334 197.547075,35.0281309 L246,84.2606305 L216.911903,113 Z" id="Path" stroke="#0A025D" stroke-width="3" fill="#FFFFFF"></path>
                <path d="M1.78597119,97 L19.6324435,119.653525 L42.554518,108.367653 C42.554518,108.367653 33.9587401,151.139471 73.9086414,181.889382 C73.9086414,181.889382 99.4540684,204.41997 148.40907,187.572944 L170.465517,193.946864 L164.860159,225.724362 C164.860159,225.724362 94.2110503,261.462955 35.9234893,205.687851 C35.8416248,205.606069 -9.42947242,166.67799 1.78597119,97 Z" id="Path" stroke="#0A025D" stroke-width="3" fill="#684FF1"></path>
                <path d="M282.620215,124 L332.068838,171.380617 C347.246138,185.921564 367.645735,193.845564 388.69812,192.946966 C412.524849,191.966678 440.186702,179.71307 455.527199,134.619793 L469.833333,153.784615 L496,145.974803 C496,145.974803 480.496306,225.2148 395.470786,235.50783 C395.470786,235.50783 389.922095,236.243047 380.864674,235.916284 C351.081263,234.609232 322.766622,222.110553 301.714238,200.952657 L253,152.101607 L282.620215,124 Z" id="Path" stroke="#0A025D" stroke-width="3" fill="#FEFEFE"></path>
                <polygon id="Path" stroke="#0A025D" stroke-width="3" fill="#FEFEFE" points="153 183.294326 176.859242 190.100621 171.283886 222 325 75.6621581 323.522021 46.7473812 299.876359 37.7888594"></polygon>
                <path d="M330.442711,71.0574617 L328.887257,42.3036153 L304,33.3743582 C304,33.3743582 376.369524,-33.9637094 456.188852,25.5919781 C456.188852,25.5919781 513.051217,67.9923888 498.806537,138.771088 L472,146.497347 L457,127.118879 C457,127.118879 463.311192,75.4811304 416.156389,51.6424714 C405.268214,46.1538455 392.988317,44.1877705 381.035885,45.9080861 C366.954936,48.0380006 347.307102,54.1000651 330.442711,71.0574617 Z" id="Path" stroke="#0A025D" stroke-width="3" fill="#FEFEFE"></path>
                <g id="Group" transform="translate(82.000000, 13.000000)" fill="#4422EE">
                    <path d="M6.42533333,20.0307692 C5.124,19.6269231 4.06666667,18.9 3.09066667,17.85 C2.196,16.8 1.54533333,15.4269231 1.13866667,13.8115385 C0.732,12.1961538 0.650666667,10.7423077 0.976,9.36923077 C1.30133333,7.99615385 1.87066667,6.86538462 2.84666667,5.97692308 C3.82266667,5.00769231 5.04266667,4.36153846 6.588,4.03846154 C7.64533333,3.79615385 8.62133333,3.71538462 9.59733333,3.79615385 C10.5733333,3.87692308 11.468,4.2 12.2,4.60384615 L11.7933333,6.86538462 C10.98,6.46153846 10.1666667,6.21923077 9.43466667,6.13846154 C8.70266667,6.05769231 7.88933333,6.13846154 7.15733333,6.3 C5.69333333,6.70384615 4.636,7.43076923 4.06666667,8.64230769 C3.49733333,9.85384615 3.416,11.3076923 3.904,13.1653846 C4.392,15.0230769 5.124,16.3153846 6.18133333,17.1230769 C7.23866667,17.9307692 8.54,18.0923077 10.004,17.7692308 C10.8173333,17.6076923 11.468,17.2846154 12.1186667,16.8807692 C12.7693333,16.4769231 13.3386667,15.9115385 13.8266667,15.1038462 L15.2906667,16.9615385 C14.8026667,17.6884615 14.152,18.3346154 13.3386667,18.9 C12.5253333,19.4653846 11.5493333,19.8692308 10.5733333,20.1115385 C9.10933333,20.3538462 7.72666667,20.3538462 6.42533333,20.0307692 Z" id="Path"></path>
                    <polygon id="Path" points="17.9746667 18.4153846 15.9413333 2.42307692 18.788 2.1 20.8213333 18.0923077"></polygon>
                    <polygon id="Path" points="24.0746667 19.1423077 21.716 19.2230769 26.5146667 0.565384615 28.8733333 0.484615385"></polygon>
                    <path d="M33.428,16.8 C32.2893333,16.0730769 31.476,15.0230769 30.988,13.7307692 C30.4186667,12.4384615 30.256,10.9846154 30.3373333,9.28846154 C30.4186667,7.67307692 30.8253333,6.21923077 31.5573333,5.00769231 C32.2893333,3.79615385 33.184,2.90769231 34.404,2.34230769 C35.624,1.77692308 37.0066667,1.53461538 38.552,1.61538462 C39.6093333,1.69615385 40.5853333,1.93846154 41.48,2.34230769 C42.3746667,2.74615385 43.1066667,3.23076923 43.7573333,3.87692308 L42.7,5.89615385 C42.0493333,5.25 41.3173333,4.76538462 40.6666667,4.44230769 C40.016,4.11923077 39.284,3.95769231 38.4706667,3.87692308 C36.9253333,3.79615385 35.7053333,4.2 34.8106667,5.16923077 C33.916,6.13846154 33.428,7.51153846 33.2653333,9.45 C33.1026667,11.3076923 33.428,12.8423077 34.16,13.8923077 C34.892,14.9423077 36.0306667,15.5884615 37.576,15.6692308 C38.3893333,15.75 39.1213333,15.6692308 39.8533333,15.4269231 C40.5853333,15.1846154 41.3173333,14.8615385 42.0493333,14.2961538 L42.8626667,16.4769231 C42.212,17.0423077 41.3986667,17.4461538 40.4226667,17.6884615 C39.4466667,17.9307692 38.4706667,18.0923077 37.4133333,18.0115385 C35.868,18.0115385 34.4853333,17.5269231 33.428,16.8 Z" id="Path"></path>
                    <path d="M48.4746667,2.90769231 L54.168,4.2 C56.6893333,4.76538462 58.4786667,5.89615385 59.536,7.59230769 C60.5933333,9.28846154 60.8373333,11.3884615 60.268,13.8115385 C59.6986667,16.3153846 58.56,18.0923077 56.7706667,19.1423077 C55.0626667,20.1923077 52.948,20.4346154 50.4266667,19.8692308 L44.7333333,18.5769231 L48.4746667,2.90769231 Z M50.8333333,17.5269231 C54.412,18.3346154 56.608,16.8807692 57.4213333,13.2461538 C58.316,9.61153846 56.9333333,7.35 53.436,6.54230769 L50.752,5.89615385 L48.1493333,16.9615385 L50.8333333,17.5269231 Z" id="Shape" fill-rule="nonzero"></path>
                </g>
                <g id="Group" transform="translate(24.000000, 155.000000)" fill="#FEFEFE">
                    <path d="M0.328421053,8.2746988 C0.410526316,6.96385542 0.821052632,5.73493976 1.64210526,4.58795181 C2.46315789,3.44096386 3.61263158,2.45783133 5.09052632,1.63855422 C6.56842105,0.819277108 8.04631579,0.409638554 9.44210526,0.327710843 C10.8378947,0.245783133 12.0694737,0.573493976 13.2189474,1.22891566 C14.3684211,1.88433735 15.2715789,2.94939759 16.0105263,4.26024096 C16.5852632,5.24337349 16.9136842,6.22650602 17.0778947,7.20963855 C17.2421053,8.19277108 17.16,9.17590361 16.9136842,10.0771084 L15.2715789,10.1590361 C15.5178947,9.17590361 15.5178947,8.2746988 15.4357895,7.45542169 C15.3536842,6.63614458 15.0252632,5.81686747 14.6147368,5.07951807 C13.7936842,3.52289157 12.5621053,2.53975904 11.0842105,2.2939759 C9.60631579,2.04819277 7.88210526,2.37590361 5.99368421,3.35903614 C4.10526316,4.42409639 2.87368421,5.65301205 2.29894737,7.04578313 C1.72421053,8.43855422 1.88842105,9.99518072 2.79157895,11.5518072 C3.20210526,12.3710843 3.77684211,13.026506 4.35157895,13.5180723 C5.00842105,14.0096386 5.74736842,14.5012048 6.73263158,14.8289157 L5.82947368,16.139759 C4.92631579,15.8939759 4.02315789,15.4024096 3.28421053,14.746988 C2.54526316,14.0915663 1.88842105,13.2722892 1.31368421,12.2891566 C0.574736842,10.8963855 0.246315789,9.58554217 0.328421053,8.2746988 Z" id="Path"></path>
                    <path d="M19.6231579,19.0891566 L18.1452632,19.9903614 C18.0631579,19.6626506 17.8989474,19.253012 17.6526316,18.8433735 C16.9957895,17.9421687 16.2568421,17.4506024 15.3536842,17.3686747 C14.4505263,17.286747 13.6294737,17.5325301 12.8084211,18.1060241 L7.30736842,21.7927711 L6.24,20.2361446 L13.1368421,15.6481928 C14.1221053,14.9927711 15.0252632,14.3373494 15.7642105,13.6819277 L16.7494737,15.1566265 L15.1073684,16.4674699 C15.9284211,16.3036145 16.6673684,16.3036145 17.4063158,16.6313253 C18.1452632,16.9590361 18.72,17.4506024 19.1305263,18.1060241 C19.3768421,18.4337349 19.5410526,18.7614458 19.6231579,19.0891566 Z" id="Path"></path>
                    <path d="M13.0547368,28.7566265 C12.8905263,27.773494 13.0547368,26.8722892 13.4652632,25.9710843 C13.8757895,25.0698795 14.5326316,24.2506024 15.5178947,23.4313253 C16.4210526,22.6939759 17.4063158,22.2024096 18.3915789,21.9566265 C19.3768421,21.7108434 20.3621053,21.7927711 21.2652632,22.1204819 C22.1684211,22.4481928 22.9894737,23.0216867 23.6463158,23.9228916 C24.3031579,24.7421687 24.7136842,25.6433735 24.8778947,26.626506 C25.0421053,27.6096386 24.8778947,28.5108434 24.4673684,29.4120482 C24.0568421,30.313253 23.4,31.1325301 22.4147368,31.9518072 C21.4294737,32.6891566 20.5263158,33.1807229 19.5410526,33.426506 C18.5557895,33.6722892 17.5705263,33.5903614 16.6673684,33.2626506 C15.7642105,32.9349398 14.9431579,32.3614458 14.2863158,31.460241 C13.5473684,30.6409639 13.1368421,29.739759 13.0547368,28.7566265 Z M17.9810526,31.8698795 C18.9663158,31.8698795 20.0336842,31.460241 21.1831579,30.4771084 C22.2505263,29.5759036 22.9073684,28.6746988 23.1536842,27.6915663 C23.4,26.7084337 23.1536842,25.8072289 22.4147368,24.9060241 C21.6757895,24.0048193 20.8547368,23.5951807 19.8694737,23.5951807 C18.8842105,23.5951807 17.8168421,24.0048193 16.7494737,24.9060241 C15.6,25.8072289 14.9431579,26.7084337 14.7789474,27.6915663 C14.6147368,28.6746988 14.8610526,29.5759036 15.5178947,30.4771084 C16.1747368,31.3783133 16.9957895,31.8698795 17.9810526,31.8698795 Z" id="Shape" fill-rule="nonzero"></path>
                    <path d="M20.9368421,37.113253 L22.3326316,36.539759 C22.4147368,37.3590361 22.6610526,38.0144578 22.9073684,38.6698795 C23.1536842,39.3253012 23.6463158,39.8168675 24.2210526,40.3903614 C24.8778947,41.0457831 25.4526316,41.373494 25.9452632,41.4554217 C26.4378947,41.5373494 26.9305263,41.4554217 27.3410526,41.0457831 C27.6694737,40.7180723 27.8336842,40.3903614 27.8336842,39.9807229 C27.8336842,39.5710843 27.5873684,39.0795181 27.1768421,38.4240964 L26.1094737,36.7036145 C25.6168421,35.8843373 25.2884211,35.0650602 25.3705263,34.3277108 C25.3705263,33.5903614 25.6989474,32.9349398 26.1915789,32.3614458 C26.9305263,31.6240964 27.7515789,31.3783133 28.8189474,31.460241 C29.8042105,31.5421687 30.7894737,32.1156627 31.7747368,33.0168675 C32.3494737,33.5903614 32.8421053,34.2457831 33.0884211,34.9012048 C33.4168421,35.5566265 33.5810526,36.2939759 33.5810526,36.9493976 L32.1852632,37.4409639 C32.0210526,36.0481928 31.5284211,34.9012048 30.6252632,34 C30.0505263,33.426506 29.4757895,33.0987952 28.9010526,33.0168675 C28.3263158,32.9349398 27.9157895,33.0987952 27.5052632,33.5084337 C27.1768421,33.8361446 27.0126316,34.2457831 27.0126316,34.573494 C27.0126316,34.9831325 27.1768421,35.4746988 27.5052632,35.9662651 L28.5726316,37.686747 C29.1473684,38.5879518 29.4757895,39.4072289 29.4757895,40.1445783 C29.4757895,40.8819277 29.2294737,41.5373494 28.5726316,42.1108434 C27.8336842,42.8481928 27.0126316,43.0939759 26.0273684,42.9301205 C25.0421053,42.7662651 24.0568421,42.1927711 23.0715789,41.2096386 C21.84,40.0626506 21.1010526,38.5879518 20.9368421,37.113253 Z" id="Path"></path>
                    <path d="M29.8863158,45.7156627 L31.2,44.9783133 C31.3642105,45.7156627 31.6926316,46.453012 32.0210526,46.9445783 C32.4315789,47.5180723 32.9242105,48.0096386 33.4989474,48.5012048 C34.1557895,49.0746988 34.8126316,49.3204819 35.3052632,49.4024096 C35.88,49.4843373 36.2905263,49.2385542 36.6189474,48.8289157 C36.8652632,48.5012048 37.0294737,48.0915663 36.9473684,47.6819277 C36.8652632,47.2722892 36.6189474,46.7807229 36.1263158,46.2072289 L34.8947368,44.6506024 C34.2378947,43.913253 33.9094737,43.0939759 33.8273684,42.3566265 C33.7452632,41.6192771 33.9094737,40.8819277 34.4021053,40.3084337 C35.0589474,39.4891566 35.88,39.0795181 36.8652632,39.0795181 C37.9326316,39.0795181 38.9178947,39.4891566 39.9852632,40.3084337 C40.6421053,40.8 41.1347368,41.373494 41.5452632,42.0289157 C41.9557895,42.6843373 42.2021053,43.339759 42.2842105,43.9951807 L40.9705263,44.6506024 C40.6421053,43.2578313 40.0673684,42.1927711 39.0821053,41.4554217 C38.4252632,40.9638554 37.8505263,40.6361446 37.2757895,40.6361446 C36.7010526,40.6361446 36.2905263,40.8 35.9621053,41.2915663 C35.6336842,41.7012048 35.5515789,42.0289157 35.6336842,42.4385542 C35.7157895,42.8481928 35.88,43.2578313 36.2905263,43.7493976 L37.5221053,45.3060241 C38.1789474,46.1253012 38.5894737,46.9445783 38.6715789,47.6819277 C38.7536842,48.4192771 38.5894737,49.0746988 38.0147368,49.7301205 C37.44,50.5493976 36.6189474,50.8771084 35.5515789,50.8771084 C34.5663158,50.8771084 33.4989474,50.3855422 32.4315789,49.5662651 C31.1178947,48.5012048 30.2147368,47.1903614 29.8863158,45.7156627 Z" id="Path"></path>
                    <path d="M57.6378947,63.739759 L57.72,59.1518072 L49.92,55.7108434 L46.5536842,58.8240964 L44.7473684,58.0048193 L57.9663158,45.9614458 L59.4442105,46.6168675 L59.3621053,64.4771084 L57.6378947,63.739759 Z M51.0694737,54.5638554 L57.6378947,57.513253 L57.72,48.3373494 L51.0694737,54.5638554 Z" id="Shape" fill-rule="nonzero"></path>
                    <polygon id="Path" points="65.0273684 64.2313253 74.3873684 66.2795181 74.0589474 67.8361446 62.5642105 65.2963855 62.8926316 63.9036145 74.9621053 52.8433735 65.7663158 50.7951807 66.0947368 49.2385542 77.4252632 51.6963855 77.0968421 53.0072289"></polygon>
                </g>
                <g id="Group" transform="translate(200.000000, 78.000000)" fill="#4422EE">
                    <path d="M14.7413793,75.5275229 C15.5603448,75.6908257 16.3793103,76.0990826 17.0344828,76.833945 C18.0172414,77.8137615 18.4267241,78.9568807 18.3448276,80.1816514 C18.1810345,81.406422 17.5258621,82.6311927 16.2974138,83.7743119 L11.4655172,88.5100917 L0,76.7522936 L4.66810345,72.1798165 C5.89655172,71.0366972 7.04310345,70.3834862 8.18965517,70.3018349 C9.3362069,70.2201835 10.4008621,70.6284404 11.3836207,71.6082569 C11.9568966,72.2614679 12.3663793,72.9146789 12.4482759,73.7311927 C12.5301724,74.466055 12.4482759,75.2825688 12.0387931,76.0174312 C13.0215517,75.5275229 13.9224138,75.3642202 14.7413793,75.5275229 Z M6.38793103,80.6715596 L9.58189655,77.5688073 C10.4827586,76.7522936 10.9741379,75.9357798 11.0560345,75.1192661 C11.137931,74.3027523 10.8922414,73.5678899 10.237069,72.9146789 C8.92672414,71.6082569 7.37068966,71.7715596 5.65086207,73.4862385 L2.45689655,76.5889908 L6.38793103,80.6715596 Z M16.625,80.2633028 C16.7068966,79.5284404 16.4612069,78.793578 15.7241379,78.0587156 C14.3318966,76.5889908 12.7758621,76.7522936 10.9741379,78.5486239 L7.53448276,81.8963303 L11.7112069,86.1422018 L15.1508621,82.7944954 C15.9698276,81.8146789 16.4612069,80.9981651 16.625,80.2633028 Z" id="Shape" fill-rule="nonzero"></path>
                    <polygon id="Path" points="22.4396552 77.7321101 10.6465517 65.6477064 11.9568966 64.3412844 23.75 76.4256881"></polygon>
                    <path d="M25.2241379,59.033945 L33.25,67.2807339 L31.9396552,68.5055046 L30.5474138,67.1174312 C30.7931034,67.8522936 30.7931034,68.587156 30.5474138,69.3220183 C30.3017241,70.0568807 29.8922414,70.7100917 29.3189655,71.2816514 C28.3362069,72.2614679 27.3534483,72.6697248 26.2887931,72.5880734 C25.2241379,72.506422 24.2413793,71.9348624 23.1767241,70.8733945 L18.1810345,65.7293578 L19.4913793,64.4229358 L24.487069,69.4853211 C25.2241379,70.2201835 25.8793103,70.6284404 26.5344828,70.7100917 C27.1896552,70.7917431 27.8448276,70.4651376 28.4181034,69.893578 C29.1551724,69.1587156 29.4827586,68.3422018 29.4827586,67.4440367 C29.4827586,66.5458716 29.0732759,65.7293578 28.3362069,64.912844 L23.8318966,60.2587156 L25.2241379,59.033945 Z" id="Path"></path>
                    <path d="M38.6551724,53.8899083 L32.5948276,59.7688073 C33.6594828,60.8302752 34.6422414,61.4018349 35.625,61.4018349 C36.6077586,61.4834862 37.5905172,61.0752294 38.4913793,60.1770642 C39.4741379,59.2788991 40.0474138,58.0541284 40.2112069,56.666055 L41.6034483,57.2376147 C41.6034483,57.8908257 41.3577586,58.6256881 41.0301724,59.3605505 C40.6206897,60.0954128 40.2112069,60.7486239 39.5560345,61.3201835 C38.2456897,62.5449541 36.8534483,63.1981651 35.3793103,63.1165138 C33.9051724,63.0348624 32.512931,62.3816514 31.2025862,61.0752294 C30.3836207,60.2587156 29.8103448,59.3605505 29.4827586,58.3807339 C29.1551724,57.4009174 29.1551724,56.4211009 29.4008621,55.5229358 C29.6465517,54.6247706 30.137931,53.7266055 30.875,52.9917431 C31.9396552,51.9302752 33.1681034,51.440367 34.4784483,51.5220183 C35.7887931,51.6036697 37.0991379,52.3385321 38.3275862,53.5633028 L38.6551724,53.8899083 Z M30.9568966,56.2577982 C30.9568966,57.0743119 31.2025862,57.9724771 31.8577586,58.7889908 L36.6896552,54.1348624 C35.8706897,53.4 35.0517241,53.0733945 34.3146552,52.9917431 C33.4956897,52.9917431 32.7586207,53.3183486 32.1034483,53.9715596 C31.3663793,54.706422 30.9568966,55.4412844 30.9568966,56.2577982 Z" id="Shape" fill-rule="nonzero"></path>
                    <polygon id="Path" points="41.112069 52.093578 40.0474138 51.0321101 44.7155172 46.5412844 45.7801724 47.6027523"></polygon>
                    <path d="M55.4439655,33.8036697 L60.6853448,39.1926606 C60.4396552,39.8458716 60.0301724,40.6623853 59.4568966,41.5605505 C58.8836207,42.4587156 58.1465517,43.2752294 57.4094828,44.0100917 C56.262931,45.153211 55.0344828,45.8880734 53.7241379,46.2146789 C52.4137931,46.5412844 51.1034483,46.459633 49.7931034,46.0513761 C48.4827586,45.5614679 47.1724138,44.7449541 46.0258621,43.5201835 C44.7974138,42.2954128 43.9784483,40.9889908 43.5689655,39.6825688 C43.1594828,38.3761468 43.0775862,37.0697248 43.487069,35.7633028 C43.8146552,34.4568807 44.6336207,33.3137615 45.6982759,32.1706422 C46.5172414,31.3541284 47.4181034,30.7825688 48.3189655,30.3743119 C49.2198276,29.966055 50.2025862,29.7211009 51.1853448,29.8027523 L51.6767241,31.3541284 C50.612069,31.4357798 49.7112069,31.5990826 48.9741379,31.9256881 C48.237069,32.2522936 47.5,32.7422018 46.8448276,33.3954128 C45.5344828,34.7018349 44.8793103,36.0899083 45.0431034,37.559633 C45.125,39.1110092 45.9439655,40.5807339 47.5,42.1321101 C49.0560345,43.6834862 50.612069,44.5816514 52.0862069,44.6633028 C53.6422414,44.8266055 55.0344828,44.1733945 56.4267241,42.8669725 C57.4094828,41.887156 58.2284483,40.8256881 58.8017241,39.6825688 L55.362069,36.0899083 L52.4137931,38.9477064 L51.3491379,37.8862385 L55.4439655,33.8036697 Z" id="Path"></path>
                    <path d="M60.4396552,24.5770642 L61.5862069,25.8018349 C61.2586207,25.9651376 60.9310345,26.2100917 60.6034483,26.5366972 C59.7844828,27.353211 59.4568966,28.1697248 59.5387931,28.9862385 C59.6206897,29.8844037 60.0301724,30.6192661 60.6853448,31.3541284 L65.2715517,36.0899083 L63.9612069,37.3963303 L58.1465517,31.4357798 C57.3275862,30.6192661 56.5086207,29.8844037 55.7715517,29.2311927 L57,28.006422 L58.637931,29.3944954 C58.3103448,28.659633 58.2284483,27.9247706 58.3922414,27.1082569 C58.5560345,26.3733945 58.9655172,25.7201835 59.5387931,25.1486239 C59.8663793,24.9853211 60.1939655,24.740367 60.4396552,24.5770642 Z" id="Path"></path>
                    <path d="M72.6422414,20.9027523 L66.5818966,26.7816514 C67.6465517,27.8431193 68.6293103,28.4146789 69.612069,28.4146789 C70.5948276,28.4963303 71.5775862,28.0880734 72.4784483,27.1899083 C73.4612069,26.2917431 74.0344828,25.0669725 74.1982759,23.6788991 L75.5905172,24.2504587 C75.5905172,24.9036697 75.3448276,25.6385321 75.0172414,26.3733945 C74.6077586,27.1082569 74.1982759,27.7614679 73.5431034,28.3330275 C72.2327586,29.5577982 70.8405172,30.2110092 69.3663793,30.1293578 C67.8922414,30.0477064 66.5,29.3944954 65.1896552,28.0880734 C64.3706897,27.2715596 63.7974138,26.3733945 63.4698276,25.393578 C63.1422414,24.4137615 63.1422414,23.433945 63.387931,22.5357798 C63.6336207,21.6376147 64.125,20.7394495 64.862069,20.0045872 C65.9267241,18.9431193 67.1551724,18.453211 68.4655172,18.5348624 C69.7758621,18.6165138 71.0862069,19.3513761 72.3146552,20.5761468 L72.6422414,20.9027523 Z M64.9439655,23.2706422 C64.9439655,24.087156 65.1896552,24.9853211 65.8448276,25.8018349 L70.6767241,21.1477064 C69.8577586,20.412844 69.0387931,20.0862385 68.3017241,20.0045872 C67.4827586,20.0045872 66.7456897,20.3311927 66.0905172,20.9844037 C65.2715517,21.7192661 64.9439655,22.4541284 64.9439655,23.2706422 Z" id="Shape" fill-rule="nonzero"></path>
                    <path d="M81.5689655,12.2477064 L75.5086207,18.1266055 C76.5732759,19.1880734 77.5560345,19.759633 78.5387931,19.759633 C79.5215517,19.8412844 80.5043103,19.4330275 81.4051724,18.5348624 C82.387931,17.6366972 82.9612069,16.4119266 83.125,15.0238532 L84.5172414,15.5954128 C84.5172414,16.2486239 84.2715517,16.9834862 83.9439655,17.7183486 C83.5344828,18.453211 83.125,19.106422 82.4698276,19.6779817 C81.1594828,20.9027523 79.7672414,21.5559633 78.2931034,21.4743119 C76.8189655,21.3926606 75.4267241,20.7394495 74.1163793,19.4330275 C73.2974138,18.6165138 72.7241379,17.7183486 72.3965517,16.7385321 C72.0689655,15.7587156 72.0689655,14.7788991 72.3146552,13.8807339 C72.5603448,12.9825688 73.0517241,12.0844037 73.7887931,11.3495413 C74.8534483,10.2880734 76.0818966,9.79816514 77.3922414,9.87981651 C78.7025862,9.96146789 80.012931,10.6963303 81.2413793,11.9211009 L81.5689655,12.2477064 Z M73.8706897,14.6155963 C73.8706897,15.4321101 74.1163793,16.3302752 74.7715517,17.146789 L79.6034483,12.4926606 C78.7844828,11.7577982 77.9655172,11.4311927 77.2284483,11.3495413 C76.4094828,11.3495413 75.6724138,11.6761468 75.0172414,12.3293578 C74.1982759,13.0642202 73.8706897,13.7990826 73.8706897,14.6155963 Z" id="Shape" fill-rule="nonzero"></path>
                    <path d="M89.6767241,2.36788991 L94.7543103,7.51192661 L93.4439655,8.81834862 L88.4482759,3.67431193 C87.7112069,2.93944954 86.9741379,2.53119266 86.3189655,2.44954128 C85.6637931,2.36788991 85.0086207,2.69449541 84.3534483,3.34770642 C83.6163793,4.08256881 83.2068966,4.89908257 83.2068966,5.87889908 C83.2068966,6.77706422 83.6163793,7.67522936 84.3534483,8.41009174 L88.9396552,13.1458716 L87.6293103,14.4522936 L81.8146552,8.49174312 C80.9956897,7.67522936 80.1767241,6.94036697 79.4396552,6.28715596 L80.6681034,5.06238532 L82.2241379,6.36880734 C81.9784483,5.55229358 81.8965517,4.81743119 82.1422414,4.00091743 C82.387931,3.18440367 82.7974138,2.53119266 83.4525862,1.87798165 C85.5,0.0816513761 87.6293103,0.163302752 89.6767241,2.36788991 Z" id="Path"></path>
                </g>
                <g id="Group" transform="translate(360.000000, 14.000000)" fill="#4422EE">
                    <polygon id="Path" points="13.6422535 1.72083333 15.1943662 1.475 18.2169014 17.5361111 16.5014085 17.8638889 14.2957746 5.9 11.3549296 18.7652778 10.0478873 19.0111111 2.45070423 8.19444444 4.65633803 19.9944444 2.94084507 20.3222222 0 4.26111111 1.55211268 4.01527778 10.2112676 16.7166667"></polygon>
                    <path d="M30.6338028,5.49027778 L31.0422535,17.0444444 L29.2450704,17.1263889 L29.1633803,15.1597222 C28.8366197,15.8972222 28.3464789,16.3888889 27.6929577,16.7986111 C27.0394366,17.2083333 26.3042254,17.3722222 25.4873239,17.4541667 C24.0985915,17.5361111 23.1183099,17.1263889 22.3830986,16.3888889 C21.6478873,15.6513889 21.2394366,14.5041667 21.2394366,13.0291667 L20.9943662,5.9 L22.8732394,5.81805556 L23.1183099,12.9472222 C23.1183099,14.0125 23.3633803,14.75 23.8535211,15.2416667 C24.2619718,15.7333333 24.915493,15.9791667 25.8140845,15.8972222 C26.7943662,15.8972222 27.6112676,15.4875 28.2647887,14.8319444 C28.8366197,14.1763889 29.1633803,13.275 29.0816901,12.2097222 L28.8366197,5.73611111 L30.6338028,5.49027778 Z" id="Path"></path>
                    <polygon id="Path" points="34.1464789 17.2902778 35.2084507 0.409722222 37.0873239 0.491666667 36.0253521 17.3722222"></polygon>
                    <path d="M43.1323944,8.03055556 L42.2338028,14.2583333 C42.1521127,15.0777778 42.2338028,15.7333333 42.4788732,16.1430556 C42.8056338,16.5527778 43.2140845,16.7986111 43.8676056,16.8805556 C44.2760563,16.9625 44.684507,16.9625 45.0929577,16.8805556 L44.8478873,18.4375 C44.3577465,18.5194444 43.7859155,18.5194444 43.2140845,18.4375 C42.1521127,18.2736111 41.3352113,17.8638889 40.7633803,17.1263889 C40.2732394,16.3888889 40.028169,15.4875 40.1915493,14.2583333 L41.0901408,7.78472222 L38.884507,7.45694444 L39.0478873,5.98194444 L41.2535211,6.30972222 L41.6619718,3.35972222 L43.6225352,2.95 L43.2957746,6.55555556 L46.5633803,7.04722222 L46.4,8.52222222 L43.1323944,8.03055556 Z" id="Path"></path>
                    <path d="M46.8901408,18.9291667 L49.3408451,7.62083333 L51.1380282,8.03055556 L48.6873239,19.3388889 L46.8901408,18.9291667 Z M50.2394366,2.78611111 L52.4450704,3.27777778 L52.0366197,5.32638889 L49.8309859,4.83472222 L50.2394366,2.78611111 Z" id="Shape" fill-rule="nonzero"></path>
                    <polygon id="Path" points="53.343662 14.8319444 53.8338028 13.3569444 60.0422535 15.3236111 59.5521127 16.7986111"></polygon>
                    <path d="M63.8816901,23.5180556 C63.1464789,22.3708333 62.8197183,21.1416667 62.8197183,19.7486111 C62.8197183,18.3555556 63.228169,16.8805556 63.9633803,15.3236111 C64.6985915,13.7666667 65.6788732,12.6194444 66.7408451,11.7180556 C67.8028169,10.8986111 69.028169,10.4069444 70.3352113,10.325 C71.6422535,10.2430556 73.0309859,10.4888889 74.3380282,11.2263889 C75.3183099,11.7180556 76.2169014,12.3736111 76.8704225,13.1111111 C77.5239437,13.8486111 78.0140845,14.6680556 78.3408451,15.5694444 L77.0338028,16.5527778 C76.6253521,15.5694444 76.1352113,14.8319444 75.6450704,14.2583333 C75.0732394,13.6847222 74.4197183,13.1930556 73.6028169,12.7833333 C71.9690141,11.9638889 70.4985915,11.8819444 69.1098592,12.4555556 C67.7211268,13.0291667 66.5774648,14.3402778 65.5971831,16.225 C64.6169014,18.1916667 64.371831,19.8305556 64.6985915,21.3875 C65.0253521,22.8625 66.0056338,24.0097222 67.6394366,24.8291667 C68.456338,25.2388889 69.2732394,25.4847222 70.0901408,25.5666667 C70.9070423,25.6486111 71.8056338,25.5666667 72.7859155,25.3208333 L72.7859155,26.9597222 C71.8873239,27.2875 70.9070423,27.3694444 69.9267606,27.2875 C68.9464789,27.2055556 67.9661972,26.8777778 66.9042254,26.3861111 C65.5971831,25.4847222 64.6169014,24.5833333 63.8816901,23.5180556 Z" id="Path"></path>
                    <polygon id="Path" points="74.0112676 30.0736111 83.3239437 16.0611111 84.8760563 17.1263889 75.5633803 31.1388889"></polygon>
                    <path d="M79.9746479,33.5972222 C79.6478873,32.6958333 79.6478873,31.7125 79.8112676,30.7291667 C80.056338,29.7458333 80.5464789,28.7625 81.2816901,27.8611111 C82.0169014,26.9597222 82.915493,26.3041667 83.8140845,25.8944444 C84.7126761,25.4847222 85.6929577,25.4027778 86.5915493,25.4847222 C87.4901408,25.5666667 88.3887324,26.0583333 89.2873239,26.7958333 C90.1042254,27.4513889 90.6760563,28.2708333 91.0028169,29.1722222 C91.3295775,30.0736111 91.3295775,31.0569444 91.1661972,32.0402778 C90.9211268,33.0236111 90.4309859,34.0069444 89.6957746,34.9083333 C88.9605634,35.8097222 88.0619718,36.4652778 87.1633803,36.875 C86.2647887,37.2847222 85.284507,37.3666667 84.3859155,37.2847222 C83.4056338,37.1208333 82.5887324,36.7111111 81.6901408,35.9736111 C80.8732394,35.3180556 80.3014085,34.4986111 79.9746479,33.5972222 Z M85.4478873,35.6458333 C86.428169,35.4819444 87.3267606,34.8263889 88.3070423,33.6791667 C89.2056338,32.6138889 89.6957746,31.5486111 89.6957746,30.5652778 C89.6957746,29.5819444 89.2873239,28.6805556 88.4704225,28.025 C87.571831,27.2875 86.6732394,27.0416667 85.6929577,27.2055556 C84.7126761,27.3694444 83.8140845,28.025 82.915493,29.0902778 C82.0169014,30.2375 81.5267606,31.2208333 81.5267606,32.2041667 C81.5267606,33.1875 81.9352113,34.0069444 82.8338028,34.7444444 C83.5690141,35.5638889 84.4676056,35.8916667 85.4478873,35.6458333 Z" id="Shape" fill-rule="nonzero"></path>
                    <path d="M102.684507,40.4805556 L94.1887324,48.2652778 L92.9633803,46.9541667 L94.4338028,45.6430556 C93.6985915,45.8069444 92.9633803,45.8069444 92.228169,45.5611111 C91.4929577,45.3152778 90.9211268,44.9055556 90.3492958,44.25 C89.4507042,43.2666667 89.0422535,42.2013889 89.1239437,41.2180556 C89.2056338,40.1527778 89.7774648,39.1694444 90.9211268,38.1861111 L96.2309859,33.3513889 L97.456338,34.7444444 L92.228169,39.4972222 C91.4929577,40.2347222 91.0028169,40.8902778 91.0028169,41.5458333 C90.9211268,42.2013889 91.1661972,42.8569444 91.7380282,43.5125 C92.3915493,44.25 93.2084507,44.6597222 94.1070423,44.6597222 C95.0056338,44.6597222 95.9042254,44.3319444 96.6394366,43.5944444 L101.459155,39.2513889 L102.684507,40.4805556 Z" id="Path"></path>
                    <path d="M115.673239,49.1666667 L101.949296,59 L100.887324,57.525 L102.602817,56.2958333 C101.785915,56.4597222 101.050704,56.3777778 100.397183,56.05 C99.6619718,55.7222222 99.0901408,55.1486111 98.5183099,54.4111111 C97.9464789,53.5916667 97.6197183,52.6902778 97.6197183,51.7888889 C97.6197183,50.8875 97.7830986,49.9861111 98.2732394,49.0847222 C98.7633803,48.1833333 99.4985915,47.4458333 100.478873,46.7083333 C101.459155,46.0527778 102.439437,45.5611111 103.419718,45.3972222 C104.4,45.2333333 105.298592,45.3152778 106.115493,45.6430556 C106.932394,45.9708333 107.667606,46.6263889 108.239437,47.4458333 C108.729577,48.1833333 109.056338,48.9208333 109.138028,49.7402778 C109.219718,50.4777778 109.056338,51.2152778 108.647887,51.9527778 L114.611268,47.7736111 L115.673239,49.1666667 Z M102.439437,55.2305556 C103.419718,55.3125 104.48169,54.9027778 105.625352,54.0833333 C106.769014,53.2638889 107.504225,52.3625 107.749296,51.4611111 C107.994366,50.4777778 107.830986,49.5763889 107.177465,48.675 C106.523944,47.7736111 105.707042,47.2819444 104.726761,47.2 C103.746479,47.1180556 102.684507,47.5277778 101.540845,48.2652778 C100.397183,49.0847222 99.6619718,49.9861111 99.4169014,50.9694444 C99.171831,51.9527778 99.3352113,52.8541667 99.9887324,53.8375 C100.642254,54.7388889 101.459155,55.2305556 102.439437,55.2305556 Z" id="Shape" fill-rule="nonzero"></path>
                </g>
                <g id="Group" transform="translate(331.000000, 190.000000)" fill="#4422EE">
                    <polygon id="Path" points="18.1097222 5.72195122 19.8305556 6.55121951 12.7833333 21.4780488 11.0625 20.6487805 14.2583333 13.7658537 5.40833333 9.45365854 2.2125 16.3365854 0.573611111 15.5073171 7.62083333 0.580487805 9.25972222 1.4097561 6.14583333 8.04390244 14.9958333 12.3560976"></polygon>
                    <path d="M30.6472222,15.8390244 L21.2236111,25.8731707 C20.2402778,26.9512195 19.2569444,27.6146341 18.1916667,27.8634146 C17.2083333,28.1121951 16.0611111,28.195122 14.75,27.9463415 L14.9138889,26.4536585 C15.9791667,26.6195122 16.8805556,26.6195122 17.5361111,26.3707317 C18.1916667,26.204878 18.8472222,25.7902439 19.5027778,25.1268293 L20.3222222,24.297561 L19.7486111,11.7756098 L21.5513889,12.4390244 L21.8791667,22.8878049 L28.9263889,15.2585366 L30.6472222,15.8390244 Z" id="Path"></path>
                    <path d="M40.4805556,19.1560976 C41.1361111,19.8195122 41.4638889,20.7317073 41.7097222,21.7268293 C41.8736111,22.7219512 41.7916667,23.8 41.4638889,24.9609756 C41.1361111,26.1219512 40.6444444,27.1170732 39.9888889,27.8634146 C39.3333333,28.6097561 38.5958333,29.1073171 37.6944444,29.4390244 C36.7930556,29.6878049 35.8916667,29.6878049 34.9083333,29.4390244 C34.0069444,29.1902439 33.3513889,28.7756098 32.7777778,28.195122 C32.2041667,27.6146341 31.8763889,26.9512195 31.7125,26.1219512 L29.8277778,33.0878049 L28.025,32.5902439 L31.4666667,19.6536585 C31.7944444,18.4926829 32.0402778,17.4146341 32.1222222,16.4195122 L33.8430556,16.9170732 L33.5972222,19.0731707 C34.0888889,18.4097561 34.7444444,17.9121951 35.5638889,17.6634146 C36.3833333,17.4146341 37.2027778,17.4146341 38.1041667,17.6634146 C39.0875,17.9121951 39.9069444,18.4097561 40.4805556,19.1560976 Z M37.8583333,27.3658537 C38.6777778,26.7853659 39.2513889,25.7902439 39.5791667,24.4634146 C39.9069444,23.1365854 39.9069444,21.8926829 39.4972222,20.9804878 C39.0875,20.0682927 38.35,19.404878 37.2847222,19.1560976 C36.1375,18.8243902 35.2361111,18.9902439 34.4166667,19.5707317 C33.5972222,20.1512195 33.0236111,21.1463415 32.6958333,22.5560976 C32.3680556,23.9658537 32.3680556,25.1268293 32.6958333,26.0390244 C33.1055556,26.9512195 33.8430556,27.5317073 34.9083333,27.8634146 C36.1375,28.1121951 37.0388889,27.9463415 37.8583333,27.3658537 Z" id="Shape" fill-rule="nonzero"></path>
                    <path d="M54.3291667,27.0341463 L45.9708333,25.7073171 C45.725,27.2 45.9708333,28.3609756 46.4625,29.1902439 C47.0361111,30.0195122 47.9375,30.6 49.1666667,30.7658537 C50.4777778,30.9317073 51.7888889,30.6829268 53.0180556,30.0195122 L53.4277778,31.4292683 C52.8541667,31.8439024 52.1986111,32.0926829 51.3791667,32.2585366 C50.5597222,32.4243902 49.7402778,32.4243902 48.9208333,32.3414634 C47.1180556,32.0926829 45.8069444,31.3463415 44.9875,30.102439 C44.1680556,28.8585366 43.8402778,27.3658537 44.0861111,25.4585366 C44.25,24.297561 44.6597222,23.302439 45.2333333,22.3902439 C45.8069444,21.5609756 46.5444444,20.9804878 47.4458333,20.5658537 C48.3472222,20.1512195 49.3305556,20.0682927 50.3138889,20.2341463 C51.7888889,20.4829268 52.9361111,21.1463415 53.6736111,22.3073171 C54.4111111,23.4682927 54.575,24.8780488 54.3291667,26.6195122 L54.3291667,27.0341463 Z M47.6916667,22.2243902 C47.0361111,22.7219512 46.4625,23.4682927 46.2166667,24.4634146 L52.8541667,25.4585366 C52.9361111,24.3804878 52.7722222,23.4682927 52.2805556,22.804878 C51.7888889,22.1414634 51.1333333,21.7268293 50.15,21.6439024 C49.1666667,21.5609756 48.4291667,21.7268293 47.6916667,22.2243902 Z" id="Shape" fill-rule="nonzero"></path>
                    <path d="M64.2444444,21.5609756 L64.1625,23.302439 C63.8347222,23.1365854 63.425,23.0536585 62.9333333,23.0536585 C61.7861111,22.9707317 60.9666667,23.302439 60.3930556,23.9658537 C59.8194444,24.6292683 59.4916667,25.4585366 59.4916667,26.5365854 L59.2458333,33.1707317 L57.3611111,33.0878049 L57.6888889,24.7121951 C57.7708333,23.4682927 57.6888889,22.3902439 57.6069444,21.395122 L59.4097222,21.4780488 L59.4916667,23.6341463 C59.8194444,22.8878049 60.3111111,22.3073171 60.9666667,21.8926829 C61.6222222,21.4780488 62.3597222,21.3121951 63.1791667,21.395122 C63.5888889,21.395122 63.9166667,21.4780488 64.2444444,21.5609756 Z" id="Path"></path>
                    <path d="M65.9652778,32.0097561 L66.4569444,30.6 C67.1125,31.0146341 67.7680556,31.3463415 68.4236111,31.5121951 C69.0791667,31.6780488 69.8166667,31.7609756 70.6361111,31.6780488 C71.5375,31.595122 72.1930556,31.4292683 72.6027778,31.097561 C73.0125,30.7658537 73.2583333,30.2682927 73.1763889,29.7707317 C73.1763889,29.2731707 72.9305556,28.9414634 72.6027778,28.6926829 C72.275,28.4439024 71.7833333,28.2780488 71.0458333,28.195122 L69.0791667,27.8634146 C68.0958333,27.697561 67.3583333,27.3658537 66.7847222,26.8682927 C66.2111111,26.3707317 65.8833333,25.7073171 65.8013889,24.9609756 C65.7194444,23.9658537 66.0472222,23.0536585 66.7847222,22.3902439 C67.5222222,21.6439024 68.5875,21.3121951 69.8986111,21.1463415 C70.7180556,21.0634146 71.4555556,21.1463415 72.1930556,21.3121951 C72.9305556,21.4780488 73.5861111,21.8097561 74.0777778,22.3073171 L73.5861111,23.7170732 C72.4388889,22.8878049 71.2097222,22.5560976 69.9805556,22.6390244 C69.1611111,22.7219512 68.5055556,22.8878049 68.0958333,23.302439 C67.6861111,23.7170732 67.5222222,24.1317073 67.5222222,24.7121951 C67.5222222,25.2097561 67.7680556,25.5414634 68.0138889,25.7902439 C68.3416667,26.0390244 68.7513889,26.204878 69.4069444,26.2878049 L71.3736111,26.6195122 C72.4388889,26.7853659 73.2583333,27.1170732 73.8319444,27.5317073 C74.4055556,28.0292683 74.7333333,28.6926829 74.7333333,29.5219512 C74.8152778,30.5170732 74.4875,31.3463415 73.75,32.0097561 C73.0125,32.6731707 71.9472222,33.0878049 70.5541667,33.1707317 C68.7513889,33.3365854 67.1944444,32.9219512 65.9652778,32.0097561 Z" id="Path"></path>
                    <path d="M81.5347222,30.7658537 C80.6333333,30.5170732 79.8138889,29.9365854 79.1583333,29.1902439 C78.5027778,28.4439024 78.0111111,27.4487805 77.7652778,26.2878049 C77.4375,25.1268293 77.4375,24.0487805 77.6833333,23.0536585 C77.9291667,22.0585366 78.3388889,21.2292683 79.0763889,20.4829268 C79.8138889,19.7365854 80.6333333,19.2390244 81.7805556,18.9902439 C82.5180556,18.8243902 83.3375,18.7414634 84.075,18.8243902 C84.8125,18.9073171 85.55,19.1560976 86.1236111,19.4878049 L85.8777778,20.9804878 C85.2222222,20.6487805 84.5666667,20.4829268 83.9930556,20.4 C83.4194444,20.3170732 82.8458333,20.4 82.2722222,20.4829268 C81.125,20.8146341 80.3055556,21.395122 79.8958333,22.3073171 C79.4041667,23.2195122 79.4041667,24.3804878 79.7319444,25.7902439 C80.0597222,27.1170732 80.6333333,28.1121951 81.5347222,28.6926829 C82.3541667,29.2731707 83.3375,29.4390244 84.4847222,29.1073171 C85.0583333,28.9414634 85.55,28.6926829 86.0416667,28.3609756 C86.5333333,28.0292683 86.9430556,27.5317073 87.4347222,26.9512195 L88.3361111,28.1121951 C88.0083333,28.6926829 87.4347222,29.1902439 86.7791667,29.604878 C86.1236111,30.0195122 85.3861111,30.3512195 84.6486111,30.6 C83.4194444,31.0146341 82.4361111,31.0146341 81.5347222,30.7658537 Z" id="Path"></path>
                    <path d="M96.6944444,12.9365854 L101.775,23.3853659 L100.136111,24.2146341 L99.2347222,22.3073171 C99.2347222,23.1365854 99.0708333,23.8829268 98.5791667,24.4634146 C98.0875,25.0439024 97.5138889,25.6243902 96.6944444,26.0390244 C95.7930556,26.5365854 94.8916667,26.702439 93.9902778,26.6195122 C93.0888889,26.5365854 92.2694444,26.1219512 91.45,25.5414634 C90.7125,24.8780488 90.0569444,24.0487805 89.4833333,22.9707317 C88.9097222,21.8926829 88.6638889,20.8146341 88.6638889,19.8195122 C88.6638889,18.8243902 88.9097222,17.9121951 89.3194444,17.0829268 C89.8111111,16.2536585 90.4666667,15.6731707 91.3680556,15.1756098 C92.1875,14.7609756 93.0069444,14.595122 93.7444444,14.6780488 C94.5638889,14.7609756 95.2194444,15.0097561 95.875,15.5073171 L94.9736111,13.6829268 L96.6944444,12.9365854 Z M98.2513889,22.3902439 C98.4972222,21.395122 98.2513889,20.3170732 97.5958333,18.9902439 C96.9402778,17.6634146 96.2027778,16.8341463 95.3013889,16.4195122 C94.4,16.004878 93.4986111,16.004878 92.4333333,16.5853659 C91.3680556,17.1658537 90.7944444,17.8292683 90.5486111,18.8243902 C90.3027778,19.8195122 90.5486111,20.9804878 91.1222222,22.2243902 C91.7777778,23.4682927 92.5152778,24.3804878 93.4166667,24.795122 C94.3180556,25.2097561 95.3013889,25.1268293 96.2847222,24.6292683 C97.4319444,24.1317073 98.0055556,23.3853659 98.2513889,22.3902439 Z" id="Shape" fill-rule="nonzero"></path>
                    <polygon id="Path" points="106.2 20.4 96.4486111 6.46829268 97.9236111 5.3902439 107.675 19.3219512"></polygon>
                    <path d="M114.722222,5.3902439 L108.576389,11.2780488 C109.559722,12.3560976 110.625,12.9365854 111.608333,13.0195122 C112.591667,13.102439 113.575,12.6878049 114.476389,11.8585366 C115.459722,10.9463415 116.033333,9.70243902 116.279167,8.29268293 L117.672222,8.87317073 C117.590278,9.53658537 117.426389,10.2829268 117.016667,11.0292683 C116.606944,11.7756098 116.115278,12.4390244 115.541667,13.0195122 C114.230556,14.2634146 112.8375,14.8439024 111.3625,14.7609756 C109.8875,14.6780488 108.494444,13.9317073 107.265278,12.604878 C106.445833,11.7756098 105.872222,10.7804878 105.626389,9.78536585 C105.380556,8.7902439 105.298611,7.79512195 105.544444,6.88292683 C105.790278,5.97073171 106.281944,5.05853659 107.101389,4.39512195 C108.248611,3.31707317 109.395833,2.90243902 110.788889,2.98536585 C112.1,3.15121951 113.411111,3.81463415 114.558333,5.14146341 L114.722222,5.3902439 Z M106.9375,7.62926829 C106.855556,8.45853659 107.183333,9.37073171 107.756944,10.2829268 L112.673611,5.63902439 C111.854167,4.89268293 111.034722,4.47804878 110.297222,4.47804878 C109.477778,4.47804878 108.740278,4.72682927 108.084722,5.3902439 C107.347222,6.05365854 106.9375,6.8 106.9375,7.62926829 Z" id="Shape" fill-rule="nonzero"></path>
                </g>
            </g>
            <g id="Group-3" transform="translate(469.000000, 250.000000)">
                <g id="Group" transform="translate(0.131034, 0.159574)">
                    <path d="M26.8137931,25.6117021 C26.8137931,25.6117021 32.9586207,18.7819149 34.6903448,14.6840426 C36.422069,10.5861702 33.5731034,9.8462766 32.1765517,12.0090426 C30.78,14.1718085 28.1544828,19.0664894 27.4282759,13.2042553 C26.702069,7.34202128 27.6517241,6.08989362 26.8137931,5.35 C25.92,4.61010638 24.8586207,5.12234043 24.0765517,7.91117021 C23.2944828,10.7 20.5572414,11.2691489 19.8310345,8.65106383 C19.1048276,5.97606383 17.3172414,0.170744681 14.6917241,0.455319149 C12.0662069,0.796808511 14.7475862,5.00851064 14.6917241,7.45585106 C14.6358621,9.8462766 12.5131034,9.44787234 10.8372414,7.28510638 C9.16137931,5.12234043 3.51931034,-1.59361702 1.00551724,0.455319149 C-1.50827586,2.44734043 2.01103448,5.12234043 1.00551724,7.68351064 C-1.38777878e-17,10.2446809 0.111724138,14.456383 4.91586207,12.8058511 C9.72,11.212234 9.38482759,15.7654255 9.66413793,16.562234 C9.88758621,17.3590426 11.0606897,20.0909574 14.0772414,18.725 C17.0937931,17.3590426 18.7137931,17.9851064 17.5965517,19.1234043 C16.4793103,20.2617021 14.5241379,21.4569149 15.5296552,22.0829787 C16.5351724,22.7090426 20.5013793,20.6601064 22.1213793,21.7414894 C23.7972414,22.8797872 24.4117241,25.4978723 24.4117241,25.4978723 L26.8137931,25.4978723 L26.8137931,25.6117021 Z" id="Path" fill="#684FF1"></path>
                    <path d="M3.18413793,6.37446809 C4.24551724,7.1712766 5.36275862,7.96808511 6.48,8.70797872 C7.59724138,9.44787234 8.71448276,10.187766 9.88758621,10.8138298 C10.4462069,11.1553191 11.0606897,11.4398936 11.6751724,11.6675532 C12.2896552,11.8952128 12.9041379,12.1228723 13.5186207,12.3505319 L17.3172414,13.6026596 C18.602069,14.0579787 19.8310345,14.5132979 21.06,15.1393617 C22.2331034,15.7654255 23.462069,16.4484043 24.3558621,17.5867021 C24.5793103,17.8712766 24.7468966,18.1558511 24.9144828,18.4973404 C25.0262069,18.8388298 25.137931,19.1803191 25.137931,19.5218085 C25.1937931,20.2047872 25.3055172,20.887766 25.3613793,21.5707447 C25.4172414,22.9367021 25.5289655,24.3026596 25.3613793,25.668617 C25.4172414,24.3026596 25.2496552,22.9367021 25.082069,21.6276596 C25.0262069,20.9446809 24.9144828,20.2617021 24.8027586,19.6356383 C24.7468966,18.9526596 24.4675862,18.3835106 24.0206897,17.8712766 C23.1827586,16.9037234 22.0655172,16.1638298 20.8365517,15.5946809 C19.6634483,15.0255319 18.3786207,14.5702128 17.1496552,14.1148936 L13.3510345,12.8058511 C12.7365517,12.5781915 12.0662069,12.3505319 11.4517241,12.0659574 C10.8372414,11.781383 10.2227586,11.4968085 9.66413793,11.0984043 C7.3737931,9.7893617 5.19517241,8.13882979 3.18413793,6.37446809 Z" id="Path" fill="#0A025D"></path>
                </g>
                <ellipse id="Oval" fill="#CBCBFD" cx="26.211935" cy="25.7398936" rx="6.92689655" ry="1"></ellipse>
            </g>
        </g>
    </g>
</svg>