<?xml version="1.0" encoding="UTF-8"?>
<svg width="127px" height="56px" viewBox="0 0 127 56" version="1.1" xmlns="http://www.w3.org/2000/svg" xmlns:xlink="http://www.w3.org/1999/xlink">
    <!-- Generator: Sketch 52.5 (67469) - http://www.bohemiancoding.com/sketch -->
    <title>BG - Ad 01</title>
    <desc>Created with Sketch.</desc>
    <g id="BG---Ad-01" stroke="none" stroke-width="1" fill="none" fill-rule="evenodd">
        <g id="Group-Copy-4" transform="translate(1.000000, 1.000000)" fill="#684FF1">
            <path d="M0,24 C7.2,28.0384942 14.85,28.9359374 22.5,28.9359374 C30.15,28.9359374 37.8,28.0384942 45,24 C45,26.2436079 45,28.4872158 45,30.7308237 C45,35.2180395 44.55,35.6667611 40.5,37.4616474 C36.9,38.8078122 32.85,39.7052553 29.25,39.7052553 C23.4,40.1539769 18,40.1539769 12.15,39.2565337 C9,38.8078122 5.85,37.4616474 3.15,36.5642043 C0.9,35.6667611 0,34.3205964 0,31.6282669 C0.45,29.384659 0,26.6923295 0,24 Z" id="Path"></path>
            <path d="M0.45,38 C15.3,44.0634874 30.15,44.0634874 45,38 C45,38 45,38.4331062 45,38.4331062 C45,40.5986375 45,43.1972749 45,45.3628061 C45,47.0952311 44.1,48.3945498 42.75,49.2607623 C40.5,50.1269748 38.25,50.9931873 36,51.4262935 C26.1,53.5918247 16.2,53.5918247 6.75,50.9931873 C4.95,50.560081 3.6,49.6938686 2.25,49.2607623 C0.9,48.3945498 0,47.5283373 0,45.7959124 C0.9,43.1972749 0.45,40.5986375 0.45,38 Z" id="Path"></path>
            <path d="M0,11 C10.9090909,17.6879495 35.4545455,17.2420862 45,11 C45,12.3375899 45,13.6751798 45,15.0127697 C45,16.7962229 45,18.1338128 45,19.9172661 C45,21.254856 44.5454545,22.5924459 43.1818182,23.0383092 C40.9090909,23.9300358 38.1818182,25.2676257 35.4545455,25.713489 C26.3636364,27.4969422 16.8181818,27.4969422 7.72727273,25.2676257 C5.45454545,24.8217624 3.63636364,23.9300358 1.81818182,22.5924459 C0.454545455,22.1465826 0,20.8089927 0,19.4714028 C0,17.2420862 0,14.1210431 0,11 Z" id="Path"></path>
            <path d="M22.6691729,14 C16.3533835,13.5429845 10.4887218,13.085969 4.62406015,10.8008915 C3.27067669,10.343876 2.36842105,9.42984503 1.01503759,8.97282953 C-0.338345865,7.60178304 -0.338345865,6.23073655 1.01503759,4.85969006 C2.81954887,3.03162807 5.52631579,2.11759707 8.23308271,1.66058158 C18.1578947,-0.624495908 27.6315789,-0.624495908 37.556391,2.11759707 C39.3609023,2.57461257 41.1654135,3.48864357 42.9699248,4.40267456 C45.6766917,6.23073655 45.6766917,8.51581403 42.9699248,9.88686053 C40.7142857,11.257907 38.0075188,12.171938 35.3007519,12.6289535 C31.2406015,13.085969 26.7293233,13.5429845 22.6691729,14 Z" id="Path"></path>
        </g>
        <g id="Group-Copy-5" transform="translate(80.000000, 1.000000)" fill="#44B876">
            <path d="M0,24 C7.2,28.0384942 14.85,28.9359374 22.5,28.9359374 C30.15,28.9359374 37.8,28.0384942 45,24 C45,26.2436079 45,28.4872158 45,30.7308237 C45,35.2180395 44.55,35.6667611 40.5,37.4616474 C36.9,38.8078122 32.85,39.7052553 29.25,39.7052553 C23.4,40.1539769 18,40.1539769 12.15,39.2565337 C9,38.8078122 5.85,37.4616474 3.15,36.5642043 C0.9,35.6667611 0,34.3205964 0,31.6282669 C0.45,29.384659 0,26.6923295 0,24 Z" id="Path"></path>
            <path d="M0.45,38 C15.3,44.0634874 30.15,44.0634874 45,38 C45,38 45,38.4331062 45,38.4331062 C45,40.5986375 45,43.1972749 45,45.3628061 C45,47.0952311 44.1,48.3945498 42.75,49.2607623 C40.5,50.1269748 38.25,50.9931873 36,51.4262935 C26.1,53.5918247 16.2,53.5918247 6.75,50.9931873 C4.95,50.560081 3.6,49.6938686 2.25,49.2607623 C0.9,48.3945498 0,47.5283373 0,45.7959124 C0.9,43.1972749 0.45,40.5986375 0.45,38 Z" id="Path"></path>
            <path d="M0,11 C10.9090909,17.6879495 35.4545455,17.2420862 45,11 C45,12.3375899 45,13.6751798 45,15.0127697 C45,16.7962229 45,18.1338128 45,19.9172661 C45,21.254856 44.5454545,22.5924459 43.1818182,23.0383092 C40.9090909,23.9300358 38.1818182,25.2676257 35.4545455,25.713489 C26.3636364,27.4969422 16.8181818,27.4969422 7.72727273,25.2676257 C5.45454545,24.8217624 3.63636364,23.9300358 1.81818182,22.5924459 C0.454545455,22.1465826 0,20.8089927 0,19.4714028 C0,17.2420862 0,14.1210431 0,11 Z" id="Path"></path>
            <path d="M22.6691729,14 C16.3533835,13.5429845 10.4887218,13.085969 4.62406015,10.8008915 C3.27067669,10.343876 2.36842105,9.42984503 1.01503759,8.97282953 C-0.338345865,7.60178304 -0.338345865,6.23073655 1.01503759,4.85969006 C2.81954887,3.03162807 5.52631579,2.11759707 8.23308271,1.66058158 C18.1578947,-0.624495908 27.6315789,-0.624495908 37.556391,2.11759707 C39.3609023,2.57461257 41.1654135,3.48864357 42.9699248,4.40267456 C45.6766917,6.23073655 45.6766917,8.51581403 42.9699248,9.88686053 C40.7142857,11.257907 38.0075188,12.171938 35.3007519,12.6289535 C31.2406015,13.085969 26.7293233,13.5429845 22.6691729,14 Z" id="Path"></path>
        </g>
        <path d="M51.5,28 L75.4821868,28" id="Line-27-Copy" stroke="#0A025D" stroke-width="2" stroke-linecap="round"></path>
    </g>
</svg>