<?xml version="1.0" encoding="UTF-8"?>
<svg width="104px" height="94px" viewBox="0 0 104 94" version="1.1" xmlns="http://www.w3.org/2000/svg" xmlns:xlink="http://www.w3.org/1999/xlink">
    <!-- Generator: Sketch 52.5 (67469) - http://www.bohemiancoding.com/sketch -->
    <title>BG - Ad 03</title>
    <desc>Created with Sketch.</desc>
    <g id="BG---Ad-03" stroke="none" stroke-width="1" fill="none" fill-rule="evenodd">
        <g id="Group-11" transform="translate(2.000000, 1.000000)">
            <g id="Group-31-Copy" transform="translate(0.000000, 18.000000)">
                <g id="Group-30">
                    <g id="Group-29-Copy">
                        <g id="Group-12">
                            <g id="Group-11-Copy-6" transform="translate(0.860743, 0.481905)">
                                <path d="M11.1392573,2.01809524 C5.89255217,2.01809524 1.63925729,6.27139011 1.63925729,11.5180952 L1.63925729,62.5180952 C1.63925729,67.2125156 5.44483692,71.0180952 10.1392573,71.0180952 L88.1392573,71.0180952 C92.8336777,71.0180952 96.6392573,67.2125156 96.6392573,62.5180952 L96.6392573,10.5180952 C96.6392573,5.82367486 92.8336777,2.01809524 88.1392573,2.01809524 L11.1392573,2.01809524 Z" id="Rectangle" stroke="#0A025D" stroke-width="3" fill="#FEFEFE"></path>
                                <rect id="Rectangle-Copy-4" fill="#684FF1" x="21" y="26" width="22.2749779" height="22.08"></rect>
                                <rect id="Rectangle-Copy-16" fill="#44B876" x="56.0035367" y="26" width="22.2749779" height="22.08"></rect>
                            </g>
                        </g>
                    </g>
                </g>
            </g>
            <g id="Group-Copy-6" transform="translate(75.000000, 0.000000)">
                <path d="M3.555,-2.20268248e-13 C3.733,-2.20268248e-13 3.889,-2.20268248e-13 4.066,-2.20268248e-13 C4.089,0.0217 4.111,0.0217 4.133,0.0217 C4.355,0.0435 4.555,0.1086 4.777,0.1738 C5.289,0.3693 5.666,0.7387 5.977,1.1732 C6.488,1.8467 6.822,2.6072 7.066,3.3893 C7.288,4.0846 7.444,4.8015 7.577,5.5185 C7.733,6.2572 7.844,6.9959 7.933,7.7346 C7.999,8.3647 8.044,8.973 8.088,9.6031 C7.933,9.8638 7.844,10.1462 7.755,10.4287 C7.644,10.7546 7.555,11.0804 7.511,11.4281 C7.266,10.6894 7.244,9.9289 7.266,9.1468 C7.111,9.451 7,9.7769 6.911,10.081 C6.911,9.9941 6.911,9.9072 6.911,9.842 C6.911,9.3423 6.911,8.8426 6.888,8.3212 C6.844,7.4739 6.733,6.6265 6.577,5.8009 C6.4,4.845 6.111,3.9325 5.666,3.0634 C5.444,2.6506 5.2,2.2595 4.844,1.9554 C4.511,1.6512 4.133,1.4339 3.666,1.4122 C3.022,1.3905 2.466,1.6078 1.978,2.0206 C1.667,2.2813 1.489,2.6506 1.333,3.0417 C1.089,3.6718 1.089,4.3453 1.178,4.9971 C1.289,5.8444 1.467,6.67 1.733,7.4739 C2.311,9.3641 3.222,11.1239 4.355,12.7534 C4.711,13.2748 5.111,13.7528 5.6,14.1656 C5.844,14.3829 5.977,14.3611 6.133,14.0787 C6.333,13.7311 6.466,13.3617 6.555,12.9924 C6.622,12.7317 6.688,12.4709 6.733,12.2102 C6.8,12.4275 6.822,12.6447 6.933,12.862 C7.066,13.1662 7.177,13.5138 7.511,13.6876 C7.533,13.7093 7.555,13.7311 7.533,13.7745 C7.444,14.0787 7.488,14.3829 7.555,14.687 C7.622,15.0129 7.733,15.3171 7.844,15.5995 C7.911,15.7951 7.999,15.9689 8.088,16.1427 C8.022,15.8385 8.044,15.5344 8.133,15.2519 C8.199,14.9477 8.311,14.6653 8.488,14.4046 C8.355,15.5126 8.555,16.5989 8.955,17.6635 C8.955,17.6201 8.977,17.6201 8.977,17.6201 C8.977,17.0552 8.977,16.4903 9.044,15.9254 C9.088,15.5778 9.133,15.2519 9.288,14.926 C9.377,14.7522 9.466,14.6001 9.644,14.5132 C9.688,14.4915 9.733,14.4915 9.755,14.5567 C9.933,14.9695 10.088,15.3823 10.177,15.8168 C10.244,16.0992 10.288,16.3817 10.222,16.6859 C10.222,16.7076 10.199,16.7293 10.222,16.7293 C10.244,16.7293 10.266,16.7076 10.288,16.6859 C10.71,16.1427 11.021,15.5344 11.155,14.8608 C11.177,14.687 11.199,14.5132 11.199,14.3394 C11.199,14.1656 11.155,14.0135 11.133,13.8397 C11.333,14.0135 11.51,14.1873 11.666,14.4046 C11.977,14.7957 12.221,15.2085 12.332,15.6647 C12.399,15.9037 12.421,16.1427 12.399,16.4034 C12.377,16.5555 12.332,16.6858 12.332,16.8379 C12.332,16.8379 12.332,16.8597 12.31,16.8597 L12.31,16.8379 C12.332,16.8162 12.355,16.7945 12.355,16.751 C12.555,16.3382 12.71,15.9254 12.844,15.4909 C12.955,15.0998 13.021,14.7087 13.021,14.2959 C13.021,14.2525 13.021,14.209 12.999,14.1439 C13.088,14.1873 13.132,14.2525 13.177,14.3177 C13.355,14.5349 13.399,14.7957 13.466,15.0781 C13.51,15.2519 13.532,15.4474 13.555,15.6213 C13.599,15.5344 13.621,15.4474 13.666,15.3823 C13.821,14.8826 13.91,14.3829 13.843,13.8614 C13.821,13.6224 13.732,13.4052 13.599,13.2096 C13.555,13.1662 13.577,13.1227 13.599,13.0793 C13.666,12.9489 13.732,12.8403 13.777,12.6882 C13.777,12.7099 13.777,12.7099 13.799,12.7316 C13.91,13.2096 14.066,13.6659 14.288,14.1004 C14.466,14.4046 14.599,14.4263 14.866,14.1873 C15.177,13.9266 15.443,13.6224 15.71,13.2965 C16.488,12.3188 17.11,11.2325 17.665,10.1028 C18.332,8.734 18.821,7.3001 19.11,5.8227 C19.243,5.1491 19.332,4.4756 19.243,3.7804 C19.176,3.2155 18.976,2.7158 18.621,2.2595 C18.288,1.8467 17.821,1.6295 17.288,1.4991 C16.732,1.3688 16.221,1.4774 15.754,1.8033 C15.488,1.9988 15.266,2.2378 15.066,2.4985 C14.666,3.0851 14.377,3.7369 14.155,4.3887 C13.932,5.0622 13.777,5.7575 13.688,6.4527 C13.621,6.9742 13.555,7.4956 13.51,8.017 C13.488,8.256 13.466,8.5167 13.466,8.7557 C13.444,9.1685 13.444,9.5596 13.466,9.9724 C13.466,10.2548 13.51,10.559 13.51,10.8415 C13.444,10.6894 13.399,10.5373 13.332,10.3852 C13.288,10.2983 13.244,10.1897 13.221,10.1028 C13.244,10.3635 13.221,10.6242 13.221,10.8849 C13.221,11.1456 13.177,11.3846 13.088,11.6236 C12.999,11.8409 12.888,12.0147 12.644,12.1016 C12.577,12.1233 12.532,12.1233 12.51,12.0364 C12.444,11.8409 12.444,11.6671 12.466,11.4715 C12.51,11.1891 12.644,10.9501 12.799,10.7111 C12.821,10.6894 12.844,10.6676 12.821,10.6459 C12.799,10.6242 12.777,10.6242 12.755,10.6242 C12.555,10.6242 12.377,10.6894 12.199,10.7546 C12.266,10.0159 12.31,9.2772 12.377,8.5602 C12.444,7.8215 12.532,7.0611 12.666,6.3224 C12.844,5.1926 13.132,4.0846 13.51,2.9982 C13.799,2.2161 14.155,1.4774 14.732,0.8691 C15.354,0.1955 16.132,-0.0217 17.021,0.0869 C17.754,0.1955 18.399,0.5214 18.932,1.0211 C19.799,1.8033 20.154,2.8027 20.221,3.9325 C20.221,4.2149 20.221,4.4974 20.221,4.7798 C20.221,5.0405 20.199,5.323 20.154,5.5837 C20.043,6.4093 19.865,7.2132 19.621,7.9953 C18.999,9.9507 18.154,11.8191 17.177,13.6224 C17.021,13.9049 16.865,14.1656 16.71,14.4263 C16.599,14.6218 16.621,14.7305 16.777,14.8608 C16.799,14.8826 16.821,14.8826 16.843,14.9043 C17.11,15.0998 17.332,15.3388 17.532,15.5778 C17.954,16.121 18.221,16.7293 18.376,17.4028 C18.488,17.9025 18.554,18.424 18.51,18.9237 C18.488,19.3147 18.443,19.7058 18.399,20.0969 C18.354,20.5314 18.288,20.9659 18.243,21.4005 C18.177,21.9436 18.088,22.4651 18.021,23.0082 C17.932,23.7035 17.799,24.377 17.688,25.0722 C17.577,25.724 17.465,26.3758 17.354,27.0276 C17.265,27.4839 17.221,27.9618 17.11,28.4181 C16.91,29.3089 16.577,30.1779 16.243,31.0253 C16.221,31.0035 16.221,30.9818 16.199,30.9383 C16.154,30.808 16.11,30.6994 16.043,30.569 C15.621,29.7217 15.088,28.9612 14.443,28.2877 C13.91,27.7228 13.288,27.2449 12.621,26.8321 C11.888,26.3975 11.133,26.0716 10.266,25.9847 C9.666,25.9196 9.088,26.0065 8.533,26.2455 C7.888,26.5062 7.355,26.8755 6.844,27.3318 C6.177,27.9401 5.6,28.5919 5.111,29.3523 C4.711,29.9607 4.4,30.6124 4.2,31.286 C4.111,31.5901 4.066,31.8943 4,32.1985 C3.977,32.2637 3.955,32.3288 3.933,32.4157 C3.911,32.394 3.911,32.3723 3.889,32.3506 C3.6,31.6988 3.311,31.047 3.066,30.3952 C2.844,29.852 2.644,29.2871 2.511,28.7005 C2.355,28.0487 2.333,27.3535 2.289,26.68 C2.267,26.2672 2.222,25.8326 2.2,25.4198 C2.178,25.0722 2.111,24.7029 2.089,24.3553 C2.044,23.899 2.022,23.421 2,22.943 C1.978,22.3999 1.911,21.8567 1.867,21.3136 C1.822,20.8139 1.778,20.3359 1.733,19.8362 C1.689,19.293 1.711,18.7716 1.822,18.2501 C2.044,17.2942 2.489,16.4469 3.133,15.6864 C3.311,15.4909 3.489,15.2954 3.689,15.1215 C3.822,15.0129 3.822,14.926 3.755,14.7739 C3.733,14.7522 3.733,14.7305 3.711,14.687 C3.022,13.5138 2.4,12.3188 1.844,11.1022 C1.155,9.5813 0.556,8.0388 0.244,6.4093 C0.133,5.8227 0.044,5.2143 0.022,4.606 C0.022,4.5843 0.044,4.5625 -2.25597319e-13,4.5408 C-2.25597319e-13,4.4539 -2.25597319e-13,4.367 -2.25597319e-13,4.2801 C0.022,4.2801 0.022,4.2584 0.022,4.2366 C0.022,4.0411 0.044,3.8673 0.067,3.6718 C0.133,3.0851 0.289,2.5203 0.556,1.9988 C1.067,0.9994 1.933,0.4128 3.022,0.1086 C3.244,0.0435 3.4,0.0217 3.555,-2.20268248e-13 Z M12.999,24.0076 C13.088,24.0076 13.177,24.0076 13.244,24.0076 C13.332,24.0076 13.421,23.9859 13.488,23.9859 C14.621,23.8121 15.577,23.3341 16.377,22.5302 C16.91,21.9871 17.088,21.357 16.865,20.64 C16.577,19.7275 15.999,19.0323 15.177,18.5326 C14.71,18.2501 14.177,18.2067 13.666,18.3588 C13.266,18.4891 12.91,18.7064 12.621,19.0106 C11.91,19.7058 11.466,20.5314 11.244,21.4874 C11.088,22.1826 11.199,22.8561 11.533,23.4862 C11.688,23.7904 11.932,23.9642 12.288,24.0076 C12.51,24.0294 12.755,23.9859 12.999,24.0076 Z M7.688,24.0294 C7.755,24.0294 7.799,24.0294 7.844,24.0294 C8.222,24.0294 8.555,23.9207 8.777,23.5731 C8.999,23.2038 9.133,22.8127 9.177,22.3999 C9.222,21.9219 9.11,21.4656 8.977,21.0094 C8.644,19.9014 7.999,19.0323 6.933,18.4674 C6.577,18.2719 6.2,18.185 5.8,18.2719 C5.244,18.4022 4.822,18.7064 4.422,19.0758 C4,19.4886 3.711,19.9665 3.511,20.5097 C3.266,21.1398 3.355,21.7264 3.778,22.2695 C4.022,22.5954 4.333,22.8561 4.666,23.0734 C5.577,23.7469 6.622,23.9859 7.688,24.0294 Z" id="Shape" fill="#563A39" fill-rule="nonzero"></path>
                <path d="M16.377,30.9818 C16.399,31.1122 16.443,31.2642 16.466,31.3946 C16.643,32.2854 16.421,33.111 15.866,33.828 C15.177,34.7405 14.266,35.327 13.177,35.675 C12.621,35.849 12.066,35.914 11.488,35.935 C11.466,35.935 11.421,35.914 11.399,35.957 C10.955,35.957 10.533,35.957 10.088,35.957 C10.066,35.935 10.044,35.935 10.022,35.935 C9.266,35.914 8.533,35.87 7.777,35.74 C7.155,35.631 6.533,35.479 5.955,35.218 C4.711,34.6318 4.089,33.6541 4.089,32.3071 C4.089,32.2637 4.111,32.2202 4.066,32.1768 C4.133,31.8726 4.178,31.5684 4.266,31.2642 C4.466,30.569 4.777,29.9172 5.177,29.3306 C5.666,28.5919 6.266,27.9184 6.911,27.31 C7.399,26.8538 7.955,26.4844 8.599,26.2237 C9.155,26.0065 9.733,25.9196 10.333,25.963 C11.199,26.0499 11.955,26.3541 12.688,26.8103 C13.355,27.2231 13.977,27.7011 14.51,28.266 C15.155,28.9613 15.71,29.6999 16.11,30.5473 C16.177,30.6559 16.221,30.7863 16.266,30.9166 C16.332,30.9166 16.332,30.9601 16.377,30.9818 Z M14.443,32.7634 C14.421,32.7634 14.399,32.7851 14.355,32.8068 C13.799,33.2196 13.221,33.589 12.577,33.8714 C11.599,34.2842 10.599,34.3928 9.555,34.1973 C8.688,34.0452 7.888,33.7193 7.111,33.3282 C6.777,33.1544 6.444,32.9806 6.111,32.8068 C6.111,32.8503 6.155,32.872 6.177,32.9154 C6.911,33.8062 7.844,34.458 8.955,34.8274 C9.822,35.11 10.71,35.175 11.621,34.936 C12.666,34.6536 13.466,34.0669 14.11,33.2413 C14.266,33.0893 14.377,32.9372 14.443,32.7634 Z M14.732,30.0693 C14.755,29.9389 14.71,29.8303 14.621,29.7217 C14.488,29.5261 14.288,29.3741 14.088,29.2437 C13.644,28.9395 13.066,29.0047 12.71,29.3523 C12.488,29.5696 12.421,29.852 12.399,30.1345 C12.377,30.6559 12.199,31.1556 11.91,31.5901 C11.755,31.8291 11.599,32.0681 11.421,32.3071 C11.31,32.4375 11.355,32.5678 11.51,32.6547 C11.621,32.7199 11.733,32.6982 11.844,32.6547 C12.599,32.3288 13.332,31.9595 13.977,31.4598 C14.443,31.0904 14.71,30.6559 14.732,30.0693 Z M6.2,30.2648 C6.2,30.4604 6.244,30.6342 6.355,30.808 C6.577,31.1991 6.933,31.4815 7.288,31.7205 C7.777,32.0464 8.311,32.3071 8.844,32.5678 C8.955,32.6113 9.066,32.6547 9.177,32.6765 C9.31,32.7199 9.399,32.6547 9.488,32.5896 C9.555,32.5461 9.577,32.4809 9.533,32.394 C9.488,32.3071 9.444,32.2419 9.377,32.1768 C9.355,32.155 9.31,32.1116 9.31,32.0681 C9.31,32.0029 9.288,31.9595 9.244,31.916 C9.199,31.8726 9.177,31.8291 9.133,31.7857 C8.733,31.2642 8.555,30.6776 8.511,30.0476 C8.466,29.3741 7.911,28.9395 7.288,29.0264 C6.688,29.1568 6.2,29.6782 6.2,30.2648 Z" id="Shape" fill="#AF8070" fill-rule="nonzero"></path>
                <path d="M20.354,3.8673 C20.354,3.8673 20.376,3.8673 20.354,3.8673 C20.376,4.1498 20.376,4.4322 20.376,4.7146 C20.354,4.4322 20.354,4.1498 20.354,3.8673 Z" id="Path" fill="#AF8070"></path>
                <path d="M6.733,12.2103 C6.666,12.471 6.622,12.7317 6.555,12.9924 C6.444,13.3618 6.311,13.7311 6.133,14.0787 C5.977,14.3612 5.844,14.3829 5.6,14.1656 C5.111,13.7528 4.711,13.2748 4.355,12.7534 C3.222,11.1239 2.333,9.3641 1.733,7.4739 C1.489,6.67 1.289,5.8444 1.178,4.9971 C1.089,4.3453 1.111,3.6718 1.333,3.0417 C1.467,2.6507 1.644,2.303 1.978,2.0206 C2.467,1.6078 3.022,1.3905 3.666,1.4123 C4.133,1.434 4.511,1.6512 4.844,1.9554 C5.2,2.2596 5.444,2.6507 5.666,3.0635 C6.111,3.9325 6.4,4.845 6.577,5.801 C6.733,6.6483 6.822,7.4739 6.888,8.3212 C6.911,8.8209 6.933,9.3206 6.911,9.8421 C6.911,9.929 6.888,10.0159 6.911,10.0811 C6.911,10.1028 6.888,10.1463 6.888,10.168 C6.755,10.646 6.688,11.1239 6.688,11.6019 C6.688,11.8192 6.711,12.0147 6.733,12.2103 Z" id="Path" fill="#348FC0"></path>
                <path d="M13.621,10.8197 C13.621,10.5372 13.599,10.2331 13.577,9.9506 C13.555,9.5378 13.555,9.1467 13.577,8.7339 C13.577,8.495 13.599,8.2342 13.621,7.9952 C13.666,7.4738 13.71,6.9524 13.799,6.4309 C13.91,5.7357 14.043,5.0405 14.266,4.3669 C14.488,3.6934 14.777,3.0634 15.177,2.4768 C15.354,2.216 15.599,1.977 15.866,1.7815 C16.332,1.4339 16.821,1.347 17.399,1.4773 C17.91,1.6077 18.376,1.825 18.732,2.2378 C19.088,2.6723 19.265,3.1937 19.354,3.7586 C19.443,4.4538 19.354,5.1274 19.221,5.8009 C18.932,7.3 18.443,8.7122 17.777,10.081 C17.221,11.2107 16.599,12.2753 15.821,13.2748 C15.577,13.6006 15.288,13.8831 14.977,14.1655 C14.71,14.4045 14.577,14.3828 14.399,14.0786 C14.155,13.6441 13.999,13.1878 13.91,12.7099 C13.91,12.6881 13.91,12.6881 13.888,12.6664 C13.977,12.3405 13.955,11.9929 13.888,11.667 C13.799,11.3846 13.71,11.1021 13.621,10.8197 Z" id="Path" fill="#348FC0"></path>
                <path d="M13.621,10.8198 C13.71,11.1022 13.799,11.3629 13.843,11.6454 C13.91,11.9713 13.932,12.3189 13.843,12.6448 C13.799,12.7752 13.755,12.9055 13.666,13.0359 C13.643,13.0793 13.621,13.101 13.666,13.1662 C13.799,13.3618 13.888,13.579 13.91,13.818 C13.977,14.3394 13.888,14.8392 13.732,15.3389 C13.71,15.4258 13.666,15.5127 13.621,15.5779 C13.599,15.404 13.555,15.2085 13.532,15.0347 C13.488,14.774 13.421,14.5133 13.244,14.2743 C13.199,14.2091 13.132,14.1439 13.066,14.1005 C13.066,14.1656 13.066,14.2091 13.088,14.2525 C13.088,14.6653 13.021,15.0564 12.91,15.4475 C12.777,15.882 12.621,16.2948 12.421,16.7076 C12.399,16.7294 12.399,16.7511 12.377,16.7945 C12.377,16.6424 12.421,16.5121 12.444,16.36 C12.466,16.0993 12.444,15.8603 12.377,15.6213 C12.266,15.1433 11.999,14.7305 11.71,14.3612 C11.555,14.1656 11.355,13.9701 11.177,13.7963 C11.199,13.9701 11.244,14.1222 11.244,14.296 C11.244,14.4698 11.244,14.6436 11.199,14.8174 C11.088,15.4909 10.755,16.0993 10.333,16.6424 C10.31,16.6642 10.31,16.6859 10.266,16.6859 C10.244,16.6859 10.244,16.6642 10.266,16.6424 C10.333,16.36 10.288,16.0558 10.222,15.7734 C10.133,15.3389 9.977,14.9261 9.799,14.5133 C9.777,14.4481 9.733,14.4481 9.688,14.4698 C9.51,14.5567 9.399,14.7088 9.333,14.8826 C9.199,15.2085 9.133,15.5344 9.088,15.882 C9.022,16.4469 8.999,17.0118 9.022,17.5767 C9.022,17.5767 9.022,17.5984 8.999,17.6201 C8.599,16.5555 8.399,15.4909 8.533,14.3612 C8.355,14.6219 8.244,14.9043 8.177,15.2085 C8.111,15.5127 8.088,15.7951 8.133,16.0993 C8.022,15.9255 7.955,15.7299 7.888,15.5561 C7.777,15.252 7.666,14.9478 7.599,14.6436 C7.533,14.3394 7.488,14.0353 7.577,13.7311 C7.577,13.6877 7.577,13.6659 7.555,13.6442 C7.222,13.4704 7.111,13.1228 6.977,12.8186 C6.888,12.6231 6.844,12.3841 6.777,12.1668 C6.755,11.9713 6.733,11.7757 6.733,11.5802 C6.733,11.1022 6.8,10.6242 6.933,10.1463 C6.933,10.1245 6.955,10.0811 6.955,10.0594 C7.066,9.7552 7.155,9.451 7.311,9.1251 C7.288,9.9073 7.311,10.6677 7.555,11.4064 C7.599,11.0588 7.688,10.7329 7.799,10.407 C7.888,10.1245 7.999,9.8421 8.133,9.5814 C8.133,9.6031 8.133,9.6248 8.133,9.6466 L8.111,9.6683 C8.066,9.8855 8.066,10.1028 8.111,10.2983 C8.133,10.407 8.133,10.5156 8.199,10.6242 C8.244,10.8632 8.355,11.1022 8.488,11.3412 C8.644,10.885 8.822,10.4504 8.666,9.9725 C8.799,10.0811 8.91,10.2114 9.022,10.3418 C9.155,10.5373 9.31,10.7329 9.422,10.9501 C9.533,11.1457 9.599,11.3412 9.688,11.5367 C9.777,11.037 9.955,10.5591 10.199,10.0811 C10.266,10.646 10.399,11.1674 10.666,11.6671 C10.733,11.5802 10.799,11.4933 10.844,11.4064 C11.066,11.0153 11.177,10.6025 11.088,10.168 C11.066,10.0811 11.021,9.9942 11.021,9.9073 L11.044,9.9073 C11.31,10.3201 11.51,10.7763 11.666,11.2543 C11.71,11.1457 11.777,11.0805 11.844,10.9936 C11.977,10.8632 12.132,10.7329 12.31,10.6677 C12.488,10.6025 12.666,10.5373 12.866,10.5373 C12.888,10.5373 12.932,10.5156 12.932,10.5591 C12.932,10.5808 12.91,10.6025 12.91,10.6242 C12.755,10.8632 12.621,11.1022 12.577,11.3847 C12.555,11.5802 12.555,11.7757 12.621,11.9495 C12.644,12.0365 12.688,12.0365 12.755,12.0147 C12.999,11.9278 13.11,11.754 13.199,11.5367 C13.288,11.2978 13.332,11.0588 13.332,10.7981 C13.332,10.5373 13.332,10.2766 13.332,10.0159 C13.377,10.1028 13.421,10.2114 13.443,10.2983 C13.488,10.5373 13.555,10.6894 13.621,10.8198 Z" id="Path" fill="#060707"></path>
                <path d="M12.999,24.0076 C12.755,24.0076 12.532,24.051 12.288,24.0076 C11.933,23.9641 11.688,23.7903 11.533,23.4862 C11.199,22.8561 11.088,22.1826 11.244,21.4873 C11.466,20.5314 11.91,19.7058 12.621,19.0105 C12.91,18.7281 13.266,18.4891 13.666,18.3587 C14.199,18.1849 14.71,18.2284 15.177,18.5326 C15.999,19.0323 16.577,19.7275 16.866,20.64 C17.088,21.357 16.91,21.987 16.377,22.5302 C15.577,23.3341 14.621,23.8121 13.488,23.9859 C13.399,24.0076 13.31,24.0076 13.244,24.0076 C13.155,24.0076 13.088,24.0076 12.999,24.0076 Z M13.31,23.8555 C13.466,23.8555 13.599,23.8555 13.732,23.8338 C14.31,23.7034 14.688,23.3341 14.91,22.8126 C14.999,22.6171 15.066,22.4216 15.043,22.2043 C15.021,21.9436 14.799,21.8132 14.555,21.9219 C14.488,21.9436 14.443,21.9653 14.377,22.0088 C14.31,22.0522 14.243,22.0739 14.177,22.0957 C13.932,22.1609 13.71,22.0739 13.555,21.8567 C13.399,21.6394 13.399,21.4439 13.577,21.2483 C13.621,21.1832 13.688,21.1397 13.755,21.0745 C13.955,20.8573 13.843,20.5531 13.555,20.4879 C13.244,20.4227 12.955,20.4445 12.666,20.5531 C12.132,20.7486 11.733,21.118 11.599,21.6611 C11.488,22.0957 11.555,22.5302 11.71,22.943 C11.866,23.3558 12.177,23.6382 12.621,23.7686 C12.844,23.8338 13.088,23.8555 13.31,23.8555 Z" id="Shape" fill="#FFFFFF" fill-rule="nonzero"></path>
                <path d="M7.688,24.0293 C6.6,23.9859 5.555,23.7469 4.644,23.0951 C4.311,22.8561 4,22.5954 3.755,22.2912 C3.333,21.7481 3.244,21.1615 3.489,20.5314 C3.689,19.9882 3.977,19.5103 4.4,19.0975 C4.8,18.7064 5.222,18.4022 5.777,18.2936 C6.177,18.2067 6.555,18.2936 6.911,18.4891 C7.955,19.054 8.622,19.9231 8.955,21.0311 C9.088,21.4874 9.177,21.9436 9.155,22.4216 C9.133,22.8344 8.999,23.2472 8.755,23.5948 C8.555,23.9207 8.222,24.0293 7.822,24.0511 C7.799,24.0293 7.755,24.0293 7.688,24.0293 Z M5.311,22.1826 C5.311,22.226 5.311,22.313 5.333,22.3999 C5.333,22.465 5.355,22.5302 5.377,22.5737 C5.533,23.182 5.911,23.6165 6.533,23.7903 C6.711,23.8338 6.911,23.8338 7.111,23.8555 C7.466,23.8773 7.777,23.8121 8.066,23.6165 C8.599,23.2689 8.888,22.7909 8.822,22.1609 C8.799,21.9002 8.577,21.7046 8.288,21.9219 C8.244,21.9653 8.177,21.9871 8.133,22.0088 C7.933,22.0957 7.755,22.0957 7.577,21.9653 C7.244,21.7046 7.222,21.3787 7.533,21.0963 C7.555,21.0745 7.599,21.0528 7.622,21.0094 C7.733,20.879 7.755,20.7487 7.644,20.5966 C7.577,20.4879 7.466,20.4228 7.333,20.4228 C7.155,20.401 6.977,20.401 6.8,20.4445 C5.911,20.5966 5.289,21.3135 5.311,22.1826 Z" id="Shape" fill="#FFFFFF" fill-rule="nonzero"></path>
                <path d="M14.732,30.0693 C14.71,30.656 14.443,31.0905 13.977,31.4598 C13.332,31.9813 12.599,32.3506 11.844,32.6548 C11.732,32.6982 11.621,32.72 11.51,32.6548 C11.355,32.5679 11.333,32.4592 11.421,32.3072 C11.599,32.0682 11.755,31.8292 11.91,31.5902 C12.199,31.1339 12.355,30.656 12.399,30.1345 C12.421,29.8521 12.488,29.5696 12.71,29.3524 C13.066,29.0048 13.666,28.9396 14.088,29.2437 C14.288,29.3741 14.466,29.5262 14.621,29.7217 C14.71,29.8304 14.755,29.939 14.732,30.0693 Z" id="Path" fill="#060707"></path>
                <path d="M6.2,30.2648 C6.2,29.6782 6.688,29.1567 7.288,29.0698 C7.933,28.9612 8.466,29.4174 8.511,30.091 C8.555,30.721 8.733,31.3076 9.133,31.8291 C9.177,31.8725 9.199,31.916 9.244,31.9594 C9.288,32.0029 9.31,32.0463 9.31,32.1115 C9.31,32.155 9.355,32.1984 9.377,32.2201 C9.444,32.2853 9.488,32.3722 9.533,32.4374 C9.577,32.5026 9.555,32.5678 9.488,32.6329 C9.399,32.6981 9.31,32.7416 9.177,32.7199 C9.066,32.6981 8.955,32.6547 8.844,32.6112 C8.311,32.3505 7.777,32.1115 7.288,31.7639 C6.933,31.5032 6.577,31.2207 6.355,30.8514 C6.266,30.6341 6.2,30.4603 6.2,30.2648 Z" id="Path" fill="#060707"></path>
                <path d="M6.155,32.8285 C6.488,33.0023 6.8,33.1978 7.155,33.3499 C7.933,33.741 8.733,34.0452 9.599,34.219 C10.644,34.4145 11.644,34.3059 12.621,33.8931 C13.266,33.6106 13.843,33.2413 14.399,32.8285 C14.421,32.8068 14.443,32.785 14.488,32.785 C14.421,32.9588 14.31,33.0892 14.199,33.2413 C13.555,34.0669 12.755,34.6752 11.71,34.9359 C10.821,35.175 9.933,35.131 9.044,34.8273 C7.933,34.458 7,33.8279 6.266,32.9154 C6.2,32.8937 6.155,32.8719 6.155,32.8285 Z" id="Path" fill="#FFFFFF"></path>
                <path d="M10.999,9.9507 C10.999,10.0376 11.044,10.1245 11.066,10.2114 C11.133,10.6459 11.044,11.0587 10.821,11.4498 C10.777,11.5367 10.71,11.6236 10.644,11.7105 C10.377,11.2108 10.244,10.6894 10.177,10.1245 C9.933,10.6025 9.755,11.0804 9.666,11.5801 C9.599,11.3846 9.51,11.1891 9.399,10.9935 C9.288,10.7763 9.133,10.5807 8.999,10.3852 C9.266,10.0158 9.644,9.7986 10.088,9.7551 C10.11,9.7551 10.133,9.7551 10.155,9.7334 C10.244,9.7334 10.31,9.7334 10.399,9.7334 C10.599,9.7551 10.777,9.7986 10.955,9.8855 C10.955,9.9072 10.977,9.9289 10.999,9.9507 Z" id="Path" fill="#348FC0"></path>
                <path d="M10.155,7.9735 C9.599,7.8649 9.377,7.2348 9.733,6.8003 C9.977,6.4961 10.444,6.4527 10.755,6.6917 C11.066,6.9307 11.11,7.3869 10.866,7.6911 C10.733,7.8432 10.577,7.9301 10.377,7.9735 C10.31,7.9953 10.222,7.9735 10.155,7.9735 Z" id="Path" fill="#348FC0"></path>
                <path d="M10.155,7.9736 C10.221,7.9736 10.31,7.9954 10.377,7.9736 C10.377,8.4951 10.377,9.0165 10.377,9.5379 C10.377,9.6031 10.377,9.69 10.377,9.7552 C10.288,9.7552 10.221,9.7552 10.133,9.7552 C10.155,9.1686 10.155,8.5602 10.155,7.9736 Z" id="Path" fill="#060707"></path>
                <path d="M11.821,11.0587 C11.755,11.1456 11.688,11.2108 11.644,11.3194 C11.488,10.8415 11.266,10.3852 11.021,9.9724 C11.221,10.0376 11.355,10.1897 11.488,10.3418 C11.666,10.5373 11.755,10.7763 11.821,11.0153 C11.821,11.037 11.821,11.037 11.821,11.0587 Z" id="Path" fill="#348FC0"></path>
                <path d="M8.155,10.6894 C8.088,10.5807 8.088,10.4721 8.066,10.3635 C8.022,10.1462 8.022,9.9289 8.066,9.7334 C8.066,9.7117 8.066,9.7117 8.088,9.7117 C8.111,10.0158 8.133,10.3417 8.155,10.6894 Z" id="Path" fill="#4B3938"></path>
                <path d="M8.622,10.0375 C8.622,10.0375 8.599,10.0375 8.622,10.0375 C8.599,10.0158 8.622,10.0158 8.622,10.0375 C8.622,10.0158 8.622,10.0375 8.622,10.0375 Z" id="Path" fill="#060707"></path>
                <path d="M13.31,23.8555 C13.066,23.8555 12.844,23.8338 12.599,23.7686 C12.155,23.6383 11.866,23.3558 11.688,22.943 C11.51,22.5302 11.466,22.074 11.577,21.6612 C11.71,21.0963 12.11,20.7487 12.644,20.5531 C12.932,20.4445 13.244,20.4228 13.532,20.488 C13.821,20.5314 13.932,20.8356 13.732,21.0746 C13.688,21.1397 13.621,21.1832 13.555,21.2484 C13.399,21.4439 13.377,21.6612 13.532,21.8567 C13.688,22.0957 13.91,22.1609 14.155,22.0957 C14.221,22.074 14.288,22.0523 14.355,22.0088 C14.399,21.9871 14.466,21.9436 14.532,21.9219 C14.777,21.835 14.977,21.9436 15.021,22.2043 C15.043,22.4216 14.977,22.6171 14.888,22.8127 C14.666,23.3341 14.288,23.7035 13.71,23.8338 C13.599,23.8555 13.466,23.8555 13.31,23.8555 Z" id="Path" fill="#060707"></path>
                <path d="M5.311,22.1827 C5.311,21.2919 5.933,20.5966 6.777,20.4445 C6.955,20.4228 7.133,20.4011 7.311,20.4228 C7.444,20.4445 7.555,20.488 7.622,20.5966 C7.711,20.7487 7.711,20.8791 7.599,21.0094 C7.577,21.0312 7.533,21.0746 7.511,21.0963 C7.199,21.3788 7.222,21.7047 7.555,21.9654 C7.733,22.0957 7.911,22.1175 8.111,22.0088 C8.177,21.9871 8.222,21.9437 8.266,21.9219 C8.555,21.7047 8.777,21.9002 8.799,22.1609 C8.866,22.791 8.577,23.269 8.044,23.6166 C7.755,23.8121 7.444,23.8773 7.088,23.8556 C6.888,23.8339 6.711,23.8556 6.511,23.7904 C5.888,23.6166 5.533,23.1821 5.355,22.5737 C5.333,22.5085 5.333,22.4651 5.311,22.3999 C5.311,22.3347 5.311,22.2478 5.311,22.1827 Z" id="Path" fill="#060707"></path>
            </g>
        </g>
    </g>
</svg>