<svg width="505" height="258" viewBox="0 0 505 258" fill="none" xmlns="http://www.w3.org/2000/svg">
<g opacity="0.536714">
<path d="M29.8131 256.208C45.7789 256.208 58.7218 254.603 58.7218 252.624C58.7218 250.645 45.7789 249.041 29.8131 249.041C13.8472 249.041 0.904297 250.645 0.904297 252.624C0.904297 254.603 13.8472 256.208 29.8131 256.208Z" fill="#462265"/>
<path fill-rule="evenodd" clip-rule="evenodd" d="M37.8719 239.822C39.1618 238.903 40.1006 237.662 40.563 236.265C40.9143 234.859 40.2257 233.194 38.6799 232.647C36.9514 232.07 35.1035 233.12 33.7052 234.177C32.307 235.233 30.6979 236.443 28.8711 236.216C30.786 234.695 31.6498 232.409 31.1476 230.19C31.0677 229.738 30.8491 229.314 30.5152 228.962C29.5526 228.065 27.8171 228.446 26.6648 229.152C23.0111 231.4 21.9922 235.743 21.9712 239.643C21.6058 238.237 21.9149 236.769 21.9079 235.344C21.9009 233.919 21.4442 232.273 20.0459 231.517C19.1836 231.112 18.214 230.912 17.2354 230.94C15.5982 230.884 13.7643 231.032 12.6471 232.082C11.2419 233.384 11.6143 235.571 12.8228 236.996C14.0313 238.421 15.8793 239.336 17.5797 240.325C18.9399 241.034 20.0999 242.002 20.9734 243.157C21.0787 243.318 21.1635 243.489 21.2264 243.667H31.527C33.8308 242.641 35.9651 241.348 37.8719 239.822Z" fill="#A93DDB"/>
</g>
<path d="M107.955 256.77C139.636 256.77 165.318 255.04 165.318 252.905C165.318 250.771 139.636 249.041 107.955 249.041C76.2742 249.041 50.5918 250.771 50.5918 252.905C50.5918 255.04 76.2742 256.77 107.955 256.77Z" fill="#462265"/>
<path d="M352.775 256.77C384.456 256.77 410.139 255.04 410.139 252.905C410.139 250.771 384.456 249.041 352.775 249.041C321.095 249.041 295.412 250.771 295.412 252.905C295.412 255.04 321.095 256.77 352.775 256.77Z" fill="#462265"/>
<path opacity="0.3" fill-rule="evenodd" clip-rule="evenodd" d="M503.329 99.4905C503.329 84.5667 496.966 71.4292 487.158 63.4775C487.275 61.9794 487.392 60.4236 487.392 58.8678C487.392 34.6671 470.578 15.0184 449.795 15.0184C443.14 15.0184 436.952 17.0351 431.523 20.55C416.811 9.42914 397.604 2.6875 376.588 2.6875C342.436 2.6875 313.013 20.4923 299.994 46.076C299.294 46.0184 298.535 46.0184 297.776 46.0184C276.993 46.0184 260.18 65.6671 260.18 89.8678C260.18 98.7991 262.456 107.039 266.368 113.953C266.368 135.734 284.29 153.366 306.299 153.366C325.267 171.658 343.149 180.804 359.947 180.804C373.063 180.804 412.204 187.564 441.622 178.637C450.083 176.069 458.334 167.646 466.375 153.366C483.714 153.366 497.783 139.479 497.783 122.366C501.286 115.74 503.329 107.846 503.329 99.4905Z" fill="#A93DDB"/>
<path fill-rule="evenodd" clip-rule="evenodd" d="M216.102 39.4919C217.044 39.0913 218.207 38.3474 218.816 36.9166C218.927 36.6305 219.315 36.6877 219.37 36.9739C219.648 37.9468 220.368 39.0913 222.03 39.6064C222.307 39.7209 222.362 40.1215 222.085 40.2359C221.199 40.5793 220.091 41.3233 219.426 42.8112C219.315 43.0974 218.927 43.0401 218.872 42.754C218.595 41.8383 217.819 40.6365 216.102 40.1215C215.88 40.007 215.825 39.6064 216.102 39.4919Z" fill="#A93DDB"/>
<path fill-rule="evenodd" clip-rule="evenodd" d="M284.737 26.1678C285.517 25.911 286.538 25.3458 287.078 24.3183C287.198 24.1128 287.498 24.1642 287.558 24.3697C287.798 25.0376 288.398 25.8596 289.838 26.2706C290.078 26.322 290.078 26.6302 289.838 26.6816C289.058 26.9385 288.098 27.4522 287.558 28.5311C287.438 28.7366 287.138 28.6853 287.078 28.5311C286.838 27.8632 286.177 27.0412 284.677 26.6302C284.557 26.5275 284.497 26.2192 284.737 26.1678Z" stroke="#A93DDB"/>
<path fill-rule="evenodd" clip-rule="evenodd" d="M198.67 141.542L153.716 98.169C139.987 85.1498 121.533 78.0551 102.489 78.8597C80.9347 79.7374 55.9114 90.7086 42.0341 131.082L21.8088 140.591L5.42188 120.916C5.42188 120.916 19.4467 49.9689 96.362 40.7532C96.362 40.7532 101.381 40.0949 109.575 40.3875C136.517 41.5577 162.131 52.7483 181.175 71.6919L224.948 115.796L198.67 141.542Z" fill="#EACAFA" stroke="#20173D" stroke-width="3"/>
<path fill-rule="evenodd" clip-rule="evenodd" d="M4.32438 127.209L20.4469 147.503L41.1546 137.393C41.1546 137.393 33.3892 175.709 69.4799 203.256C69.4799 203.256 92.5576 223.439 136.784 208.347L156.709 214.057L151.645 242.525C151.645 242.525 87.8211 274.54 35.1642 224.575C35.0902 224.502 -5.80764 189.629 4.32438 127.209Z" fill="#EACAFA" stroke="#20173D" stroke-width="3"/>
<path fill-rule="evenodd" clip-rule="evenodd" d="M258.03 151.396L302.702 193.842C316.413 206.868 334.842 213.966 353.861 213.161C375.386 212.283 400.376 201.306 414.234 160.91L427.159 178.079L450.797 171.082C450.797 171.082 436.791 242.068 359.979 251.289C359.979 251.289 354.967 251.948 346.784 251.655C319.878 250.484 294.299 239.287 275.28 220.333L231.271 176.571L258.03 151.396Z" fill="#EACAFA" stroke="#20173D" stroke-width="3"/>
<path fill-rule="evenodd" clip-rule="evenodd" d="M140.932 204.515L162.486 210.612L157.449 239.189L296.316 108.094L294.981 82.1914L273.62 74.166L140.932 204.515Z" fill="#FC8340" stroke="#20173D" stroke-width="3"/>
<path fill-rule="evenodd" clip-rule="evenodd" d="M301.232 103.969L299.827 78.2101L277.344 70.211C277.344 70.211 342.722 9.88733 414.831 63.2393C414.831 63.2393 466.2 101.223 453.332 164.629L429.115 171.55L415.564 154.19C415.564 154.19 421.265 107.932 378.666 86.5762C368.829 81.6593 357.736 79.898 346.938 81.4391C334.217 83.3472 316.467 88.7778 301.232 103.969Z" fill="#EACAFA" stroke="#20173D" stroke-width="3"/>
<path fill-rule="evenodd" clip-rule="evenodd" d="M82.5945 69.9027C81.4189 69.5409 80.4637 68.8897 79.582 67.9491C78.7737 67.0084 78.1859 65.7784 77.8185 64.3313C77.4512 62.8842 77.3777 61.5818 77.6716 60.3517C77.9655 59.1217 78.4798 58.1087 79.3615 57.3128C80.2433 56.4445 81.3454 55.8657 82.7415 55.5762C83.6967 55.3592 84.5784 55.2868 85.4601 55.3592C86.3418 55.4315 87.1501 55.7209 87.8113 56.0827L87.444 58.1087C86.7092 57.7469 85.9744 57.5298 85.3131 57.4575C84.6519 57.3851 83.9171 57.4575 83.2558 57.6022C81.9332 57.964 80.978 58.6152 80.4637 59.7005C79.9494 60.7858 79.8759 62.0883 80.3167 63.7524C80.7576 65.4166 81.4189 66.5743 82.3741 67.2979C83.3293 68.0214 84.5049 68.1661 85.8275 67.8767C86.5622 67.732 87.1501 67.4426 87.7379 67.0808C88.3257 66.719 88.84 66.2125 89.2809 65.489L90.6034 67.1532C90.1626 67.8044 89.5748 68.3832 88.84 68.8897C88.1052 69.3962 87.2235 69.758 86.3418 69.975C85.0192 70.1921 83.7701 70.1921 82.5945 69.9027Z" fill="#9014CA"/>
<path fill-rule="evenodd" clip-rule="evenodd" d="M93.0283 68.4557L91.1914 54.1293L93.7631 53.8398L95.6 68.1663L93.0283 68.4557Z" fill="#9014CA"/>
<path fill-rule="evenodd" clip-rule="evenodd" d="M98.539 69.1068L96.4082 69.1791L100.743 52.4649L102.874 52.3926L98.539 69.1068Z" fill="#9014CA"/>
<path fill-rule="evenodd" clip-rule="evenodd" d="M106.99 67.009C105.961 66.3578 105.226 65.4172 104.785 64.2595C104.271 63.1018 104.124 61.7994 104.197 60.2799C104.271 58.8328 104.638 57.5304 105.3 56.4451C105.961 55.3598 106.769 54.5638 107.871 54.0573C108.973 53.5509 110.222 53.3338 111.619 53.4061C112.574 53.4785 113.455 53.6956 114.264 54.0573C115.072 54.4191 115.733 54.8533 116.321 55.4321L115.366 57.241C114.778 56.6622 114.117 56.228 113.529 55.9386C112.941 55.6492 112.28 55.5045 111.545 55.4321C110.149 55.3598 109.047 55.7215 108.239 56.5898C107.43 57.4581 106.99 58.6881 106.843 60.4247C106.696 62.0888 106.99 63.4636 107.651 64.4042C108.312 65.3448 109.341 65.9237 110.737 65.996C111.472 66.0684 112.133 65.996 112.794 65.779C113.455 65.5619 114.117 65.2725 114.778 64.766L115.513 66.7196C114.925 67.2261 114.19 67.5879 113.309 67.8049C112.427 68.022 111.545 68.1667 110.59 68.0944C109.194 68.0944 107.945 67.6602 106.99 67.009Z" fill="#9014CA"/>
<path d="M120.581 54.5625L125.724 55.7202C128.002 56.2267 129.619 57.2397 130.574 58.7591C131.529 60.2786 131.75 62.1599 131.235 64.3305C130.721 66.5736 129.692 68.1654 128.076 69.106C126.533 70.0466 124.622 70.2637 122.345 69.7572L117.201 68.5995L120.581 54.5625ZM122.712 67.6589C125.945 68.3825 127.929 67.0801 128.663 63.824C129.472 60.568 128.223 58.5421 125.063 57.8185L122.638 57.2397L120.287 67.1524L122.712 67.6589Z" fill="#9014CA"/>
<path fill-rule="evenodd" clip-rule="evenodd" d="M24.6889 186.579C24.763 185.405 25.1339 184.304 25.8756 183.277C26.6174 182.249 27.6558 181.369 28.9909 180.635C30.3261 179.901 31.6612 179.534 32.9222 179.46C34.1831 179.387 35.2957 179.68 36.3341 180.268C37.3726 180.855 38.1885 181.809 38.8561 182.983C39.3753 183.864 39.672 184.745 39.8203 185.625C39.9687 186.506 39.8945 187.387 39.672 188.194L38.1885 188.268C38.411 187.387 38.411 186.579 38.3368 185.846C38.2627 185.112 37.966 184.378 37.5951 183.717C36.8534 182.323 35.7408 181.442 34.4056 181.222C33.0705 181.002 31.5128 181.295 29.8069 182.176C28.1009 183.13 26.9882 184.231 26.469 185.479C25.9498 186.726 26.0982 188.121 26.9141 189.515C27.2849 190.249 27.8042 190.836 28.3234 191.277C28.9168 191.717 29.5843 192.157 30.4744 192.451L29.6585 193.625C28.8426 193.405 28.0267 192.965 27.3591 192.378C26.6916 191.79 26.0982 191.056 25.5789 190.176C24.9114 188.928 24.6147 187.754 24.6889 186.579Z" fill="#9014CA"/>
<path fill-rule="evenodd" clip-rule="evenodd" d="M42.1196 196.268L40.7845 197.075C40.7103 196.782 40.562 196.415 40.3395 196.048C39.7461 195.24 39.0785 194.8 38.2626 194.727C37.4467 194.653 36.7049 194.873 35.9632 195.387L30.9936 198.69L30.0293 197.295L36.2599 193.185C37.15 192.598 37.9659 192.011 38.6335 191.424L39.5235 192.745L38.0401 193.919C38.7818 193.772 39.4494 193.772 40.1169 194.066C40.7845 194.36 41.3037 194.8 41.6746 195.387C41.8971 195.681 42.0454 195.974 42.1196 196.268Z" fill="#9014CA"/>
<path d="M36.1858 204.929C36.0374 204.048 36.1858 203.241 36.5566 202.433C36.9275 201.626 37.5209 200.892 38.411 200.158C39.2269 199.498 40.117 199.057 41.0071 198.837C41.8971 198.617 42.7872 198.69 43.6031 198.984C44.419 199.277 45.1608 199.791 45.7542 200.598C46.3476 201.332 46.7184 202.14 46.8668 203.02C47.0151 203.901 46.8668 204.708 46.4959 205.516C46.125 206.323 45.5317 207.057 44.6416 207.791C43.7515 208.452 42.9356 208.892 42.0455 209.112C41.1554 209.332 40.2653 209.259 39.4494 208.965C38.6335 208.672 37.8918 208.158 37.2984 207.351C36.6308 206.617 36.2599 205.809 36.1858 204.929ZM40.6362 207.718C41.5263 207.718 42.4905 207.351 43.529 206.47C44.4932 205.663 45.0866 204.855 45.3091 203.975C45.5317 203.094 45.3091 202.286 44.6416 201.479C43.974 200.672 43.2323 200.305 42.3422 200.305C41.4521 200.305 40.4878 200.672 39.5236 201.479C38.4851 202.286 37.8918 203.094 37.7434 203.975C37.5951 204.855 37.8176 205.663 38.411 206.47C39.0044 207.277 39.7461 207.718 40.6362 207.718Z" fill="#9014CA"/>
<path fill-rule="evenodd" clip-rule="evenodd" d="M43.3066 212.414L44.5676 211.9C44.6418 212.634 44.8643 213.221 45.0868 213.808C45.3093 214.395 45.7544 214.836 46.2736 215.349C46.867 215.936 47.3862 216.23 47.8312 216.303C48.2763 216.377 48.7213 216.303 49.0922 215.936C49.3889 215.643 49.5372 215.349 49.5372 214.982C49.5372 214.615 49.3147 214.175 48.9439 213.588L47.9796 212.047C47.5345 211.313 47.2379 210.579 47.312 209.918C47.312 209.258 47.6087 208.671 48.0538 208.157C48.7213 207.496 49.4631 207.276 50.4273 207.349C51.3174 207.423 52.2075 207.937 53.0976 208.744C53.6168 209.258 54.0618 209.845 54.2844 210.432C54.5811 211.019 54.7294 211.68 54.7294 212.267L53.4685 212.707C53.3201 211.459 52.8751 210.432 52.0592 209.625C51.5399 209.111 51.0207 208.817 50.5015 208.744C49.9823 208.671 49.6114 208.817 49.2405 209.184C48.9439 209.478 48.7955 209.845 48.7955 210.138C48.7955 210.505 48.9439 210.946 49.2405 211.386L50.2048 212.927C50.724 213.735 51.0207 214.469 51.0207 215.129C51.0207 215.79 50.7982 216.377 50.2048 216.891C49.5372 217.551 48.7955 217.771 47.9054 217.625C47.0153 217.478 46.1252 216.964 45.2352 216.083C44.1226 215.056 43.455 213.735 43.3066 212.414Z" fill="#9014CA"/>
<path fill-rule="evenodd" clip-rule="evenodd" d="M51.3906 220.121L52.5774 219.46C52.7258 220.121 53.0224 220.781 53.3191 221.222C53.69 221.735 54.1351 222.176 54.6543 222.616C55.2477 223.13 55.8411 223.35 56.2861 223.423C56.8053 223.497 57.1762 223.277 57.4729 222.91C57.6954 222.616 57.8437 222.249 57.7696 221.882C57.6954 221.515 57.4729 221.075 57.0278 220.561L55.9152 219.167C55.3218 218.506 55.0251 217.772 54.951 217.112C54.8768 216.451 55.0251 215.79 55.4702 215.277C56.0636 214.543 56.8053 214.176 57.6954 214.176C58.6597 214.176 59.5497 214.543 60.514 215.277C61.1074 215.717 61.5524 216.231 61.9233 216.818C62.2942 217.405 62.5167 217.992 62.5909 218.579L61.4041 219.167C61.1074 217.919 60.5882 216.965 59.6981 216.304C59.1047 215.864 58.5855 215.57 58.0663 215.57C57.5471 215.57 57.1762 215.717 56.8795 216.157C56.5828 216.524 56.5086 216.818 56.5828 217.185C56.657 217.552 56.8053 217.919 57.1762 218.359L58.2888 219.754C58.8822 220.488 59.253 221.222 59.3272 221.882C59.4014 222.543 59.253 223.13 58.7338 223.717C58.2146 224.451 57.4729 224.744 56.5086 224.744C55.6185 224.744 54.6543 224.304 53.69 223.57C52.5032 222.616 51.6873 221.442 51.3906 220.121Z" fill="#9014CA"/>
<path d="M76.4617 236.266L76.5359 232.156L69.4894 229.074L66.4482 231.863L64.8164 231.129L76.7584 220.34L78.0935 220.927L78.0194 236.927L76.4617 236.266ZM70.5278 228.046L76.4617 230.688L76.5359 222.468L70.5278 228.046Z" fill="#9014CA"/>
<path fill-rule="evenodd" clip-rule="evenodd" d="M83.1373 236.706L91.5931 238.541L91.2964 239.936L80.9121 237.661L81.2088 236.413L92.1124 226.505L83.8049 224.67L84.1016 223.275L94.3376 225.477L94.0409 226.651L83.1373 236.706Z" fill="#9014CA"/>
<path d="M196.708 177.849C197.448 177.995 198.188 178.361 198.78 179.019C199.667 179.897 200.037 180.921 199.963 182.018C199.815 183.115 199.223 184.212 198.114 185.236L193.749 189.479L183.391 178.946L187.608 174.85C188.718 173.826 189.753 173.24 190.789 173.167C191.825 173.094 192.787 173.46 193.675 174.338C194.192 174.923 194.562 175.508 194.636 176.239C194.71 176.898 194.636 177.629 194.266 178.288C195.154 177.849 195.968 177.702 196.708 177.849ZM189.161 182.457L192.047 179.677C192.861 178.946 193.305 178.214 193.379 177.483C193.453 176.751 193.231 176.093 192.639 175.508C191.455 174.338 190.049 174.484 188.496 176.02L185.61 178.8L189.161 182.457ZM198.41 182.091C198.484 181.433 198.262 180.774 197.596 180.116C196.338 178.8 194.932 178.946 193.305 180.555L190.197 183.554L193.971 187.358L197.078 184.359C197.818 183.481 198.262 182.749 198.41 182.091Z" fill="#FEFEFE"/>
<path fill-rule="evenodd" clip-rule="evenodd" d="M203.662 179.822L193.008 168.997L194.192 167.826L204.845 178.652L203.662 179.822Z" fill="#FEFEFE"/>
<path fill-rule="evenodd" clip-rule="evenodd" d="M206.177 163.072L213.428 170.46L212.244 171.557L210.986 170.314C211.208 170.972 211.208 171.63 210.986 172.289C210.764 172.947 210.394 173.532 209.876 174.044C208.989 174.922 208.101 175.288 207.139 175.215C206.177 175.141 205.289 174.629 204.328 173.678L199.814 169.07L200.998 167.9L205.511 172.435C206.177 173.093 206.769 173.459 207.361 173.532C207.953 173.605 208.545 173.313 209.063 172.801C209.728 172.142 210.024 171.411 210.024 170.606C210.024 169.802 209.654 169.07 208.989 168.339L204.919 164.169L206.177 163.072Z" fill="#FEFEFE"/>
<path d="M218.311 158.463L212.837 163.73C213.798 164.68 214.686 165.192 215.574 165.192C216.462 165.266 217.35 164.9 218.164 164.095C219.051 163.291 219.569 162.194 219.717 160.95L220.975 161.462C220.975 162.047 220.753 162.706 220.457 163.364C220.087 164.022 219.717 164.607 219.125 165.119C217.942 166.217 216.684 166.802 215.352 166.729C214.02 166.655 212.763 166.07 211.579 164.9C210.839 164.168 210.321 163.364 210.025 162.486C209.729 161.608 209.729 160.731 209.951 159.926C210.173 159.121 210.617 158.317 211.283 157.658C212.245 156.708 213.354 156.269 214.538 156.342C215.722 156.415 216.906 157.073 218.016 158.17L218.311 158.463ZM211.357 160.584C211.357 161.316 211.579 162.12 212.171 162.852L216.536 158.682C215.796 158.024 215.056 157.732 214.39 157.658C213.65 157.658 212.985 157.951 212.393 158.536C211.727 159.195 211.357 159.853 211.357 160.584Z" fill="#FEFEFE"/>
<path fill-rule="evenodd" clip-rule="evenodd" d="M220.532 156.855L219.57 155.904L223.787 151.881L224.749 152.832L220.532 156.855Z" fill="#FEFEFE"/>
<path fill-rule="evenodd" clip-rule="evenodd" d="M233.479 140.469L238.214 145.297C237.992 145.882 237.622 146.614 237.104 147.418C236.586 148.223 235.92 148.954 235.254 149.613C234.218 150.637 233.109 151.295 231.925 151.587C230.741 151.88 229.557 151.807 228.374 151.441C227.19 151.002 226.006 150.271 224.97 149.174C223.861 148.076 223.121 146.906 222.751 145.736C222.381 144.565 222.307 143.395 222.677 142.225C222.973 141.054 223.713 140.03 224.674 139.006C225.414 138.275 226.228 137.763 227.042 137.397C227.856 137.031 228.744 136.812 229.631 136.885L230.075 138.275C229.114 138.348 228.3 138.494 227.634 138.787C226.968 139.079 226.302 139.518 225.71 140.104C224.526 141.274 223.935 142.517 224.083 143.834C224.157 145.224 224.896 146.54 226.302 147.93C227.708 149.32 229.114 150.125 230.445 150.198C231.851 150.344 233.109 149.759 234.366 148.588C235.254 147.711 235.994 146.76 236.512 145.736L233.405 142.517L230.741 145.077L229.779 144.127L233.479 140.469Z" fill="#FEFEFE"/>
<path fill-rule="evenodd" clip-rule="evenodd" d="M237.993 132.205L239.028 133.302C238.732 133.449 238.436 133.668 238.141 133.961C237.401 134.692 237.105 135.424 237.179 136.155C237.253 136.96 237.623 137.618 238.215 138.276L242.358 142.519L241.174 143.689L235.921 138.349C235.181 137.618 234.441 136.96 233.775 136.374L234.885 135.277L236.365 136.521C236.069 135.862 235.995 135.204 236.143 134.473C236.291 133.814 236.661 133.229 237.179 132.717C237.475 132.571 237.771 132.351 237.993 132.205Z" fill="#FEFEFE"/>
<path d="M249.015 128.912L243.54 134.179C244.502 135.13 245.389 135.642 246.277 135.642C247.165 135.715 248.053 135.349 248.867 134.545C249.754 133.74 250.272 132.643 250.42 131.399L251.678 131.911C251.678 132.496 251.456 133.155 251.16 133.813C250.79 134.471 250.42 135.057 249.828 135.569C248.645 136.666 247.387 137.251 246.055 137.178C244.723 137.105 243.466 136.519 242.282 135.349C241.542 134.618 241.024 133.813 240.728 132.935C240.432 132.058 240.432 131.18 240.654 130.375C240.876 129.571 241.32 128.766 241.986 128.108C242.948 127.157 244.058 126.718 245.241 126.791C246.425 126.864 247.609 127.522 248.719 128.62L249.015 128.912ZM242.06 131.034C242.06 131.765 242.282 132.57 242.874 133.301L247.239 129.132C246.499 128.473 245.759 128.181 245.093 128.108C244.354 128.108 243.688 128.4 243.096 128.985C242.356 129.644 242.06 130.302 242.06 131.034Z" fill="#FEFEFE"/>
<path d="M257.079 121.16L251.604 126.427C252.566 127.378 253.454 127.89 254.342 127.89C255.229 127.963 256.117 127.597 256.931 126.793C257.819 125.988 258.337 124.891 258.485 123.647L259.743 124.159C259.743 124.744 259.521 125.403 259.225 126.061C258.855 126.719 258.485 127.305 257.893 127.817C256.709 128.914 255.451 129.499 254.12 129.426C252.788 129.353 251.53 128.768 250.346 127.597C249.607 126.866 249.089 126.061 248.793 125.183C248.497 124.306 248.497 123.428 248.719 122.623C248.941 121.819 249.385 121.014 250.05 120.356C251.012 119.405 252.122 118.966 253.306 119.039C254.49 119.112 255.673 119.771 256.783 120.868L257.079 121.16ZM250.124 123.282C250.124 124.013 250.346 124.818 250.938 125.549L255.303 121.38C254.564 120.721 253.824 120.429 253.158 120.356C252.418 120.356 251.752 120.648 251.16 121.233C250.42 121.892 250.124 122.55 250.124 123.282Z" fill="#FEFEFE"/>
<path fill-rule="evenodd" clip-rule="evenodd" d="M264.404 112.309L268.992 116.917L267.808 118.087L263.295 113.479C262.629 112.821 261.963 112.455 261.371 112.382C260.779 112.309 260.187 112.601 259.595 113.186C258.93 113.845 258.56 114.576 258.56 115.454C258.56 116.259 258.93 117.063 259.595 117.721L263.739 121.964L262.555 123.134L257.302 117.795C256.562 117.063 255.822 116.405 255.156 115.82L256.266 114.722L257.672 115.893C257.45 115.161 257.376 114.503 257.598 113.772C257.82 113.04 258.19 112.455 258.782 111.87C260.631 110.261 262.555 110.334 264.404 112.309Z" fill="#FEFEFE"/>
<path fill-rule="evenodd" clip-rule="evenodd" d="M340.258 54.396L341.66 54.1758L344.391 68.5639L342.841 68.8575L340.848 58.1398L338.192 69.665L337.011 69.8852L330.148 60.1953L332.14 70.7661L330.59 71.0597L327.934 56.6717L329.336 56.4514L337.158 67.8298L340.258 54.396Z" fill="#9014CA"/>
<path fill-rule="evenodd" clip-rule="evenodd" d="M355.609 57.7715L355.978 68.1221L354.354 68.1955L354.28 66.4337C353.985 67.0944 353.542 67.5348 352.952 67.9019C352.362 68.2689 351.697 68.4157 350.959 68.4891C349.705 68.5626 348.819 68.1955 348.155 67.5348C347.491 66.8742 347.122 65.8464 347.122 64.5251L346.9 58.1385L348.598 58.0651L348.819 64.4517C348.819 65.406 349.041 66.0667 349.483 66.5071C349.852 66.9476 350.443 67.1678 351.255 67.0944C352.14 67.0944 352.878 66.7273 353.469 66.1401C353.985 65.5528 354.28 64.7453 354.207 63.791L353.985 57.9917L355.609 57.7715Z" fill="#9014CA"/>
<path fill-rule="evenodd" clip-rule="evenodd" d="M358.781 68.3429L359.741 53.2207L361.438 53.2941L360.479 68.4163L358.781 68.3429Z" fill="#9014CA"/>
<path fill-rule="evenodd" clip-rule="evenodd" d="M366.9 60.0474L366.088 65.6265C366.014 66.3606 366.088 66.9478 366.31 67.3149C366.605 67.6819 366.974 67.9021 367.564 67.9756C367.933 68.049 368.302 68.049 368.671 67.9756L368.45 69.3703C368.007 69.4437 367.49 69.4437 366.974 69.3703C366.014 69.2235 365.276 68.8565 364.76 68.1958C364.317 67.5351 364.096 66.7276 364.243 65.6265L365.055 59.8272L363.062 59.5336L363.21 58.2122L365.203 58.5058L365.572 55.8631L367.343 55.4961L367.048 58.7261L370 59.1665L369.852 60.4879L366.9 60.0474Z" fill="#9014CA"/>
<path d="M370.295 69.8111L372.509 59.6807L374.132 60.0478L371.918 70.1781L370.295 69.8111ZM373.321 55.3496L375.313 55.7901L374.944 57.6253L372.952 57.1848L373.321 55.3496Z" fill="#9014CA"/>
<path fill-rule="evenodd" clip-rule="evenodd" d="M376.125 66.1417L376.568 64.8203L382.177 66.5821L381.734 67.9035L376.125 66.1417Z" fill="#9014CA"/>
<path fill-rule="evenodd" clip-rule="evenodd" d="M385.643 73.9221C384.979 72.8944 384.684 71.7933 384.684 70.5453C384.684 69.2974 385.053 67.976 385.717 66.5813C386.381 65.1865 387.267 64.1588 388.226 63.3513C389.185 62.6172 390.292 62.1767 391.473 62.1033C392.654 62.0299 393.908 62.2502 395.089 62.9108C395.975 63.3513 396.787 63.9385 397.377 64.5992C397.967 65.2599 398.41 65.994 398.705 66.8015L397.525 67.6824C397.156 66.8015 396.713 66.1408 396.27 65.6269C395.753 65.1131 395.163 64.6726 394.425 64.3056C392.949 63.5715 391.621 63.4981 390.366 64.012C389.112 64.5258 388.078 65.7004 387.193 67.3888C386.307 69.1506 386.086 70.6187 386.381 72.0135C386.676 73.3348 387.562 74.3626 389.038 75.0967C389.776 75.4637 390.514 75.6839 391.252 75.7573C391.99 75.8307 392.802 75.7573 393.687 75.5371V77.0053C392.875 77.2989 391.99 77.3723 391.104 77.2989C390.219 77.2255 389.333 76.9319 388.374 76.4914C387.193 75.6839 386.307 74.8764 385.643 73.9221Z" fill="#9014CA"/>
<path fill-rule="evenodd" clip-rule="evenodd" d="M394.795 79.795L403.208 67.2422L404.61 68.1965L396.197 80.7494L394.795 79.795Z" fill="#9014CA"/>
<path d="M400.182 82.9512C399.887 82.1437 399.887 81.2628 400.034 80.3819C400.256 79.501 400.699 78.6201 401.363 77.8126C402.027 77.0051 402.839 76.4179 403.651 76.0508C404.462 75.6838 405.348 75.6104 406.16 75.6838C406.972 75.7572 407.783 76.1976 408.595 76.8583C409.333 77.4456 409.85 78.1797 410.145 78.9872C410.44 79.7947 410.44 80.6756 410.293 81.5565C410.071 82.4374 409.628 83.3183 408.964 84.1258C408.3 84.9333 407.488 85.5205 406.676 85.8876C405.865 86.2546 404.979 86.328 404.167 86.2546C403.282 86.1078 402.544 85.7408 401.732 85.0801C400.994 84.4928 400.477 83.7587 400.182 82.9512ZM405.127 84.7865C406.012 84.6396 406.824 84.0524 407.71 83.0246C408.521 82.0703 408.964 81.116 408.964 80.2351C408.964 79.3542 408.595 78.5467 407.857 77.9595C407.045 77.2988 406.234 77.0785 405.348 77.2254C404.462 77.3722 403.651 77.9595 402.839 78.9138C402.027 79.9415 401.584 80.8224 401.584 81.7033C401.584 82.5842 401.953 83.3183 402.765 83.979C403.429 84.7131 404.241 85.0067 405.127 84.7865Z" fill="#9014CA"/>
<path fill-rule="evenodd" clip-rule="evenodd" d="M420.699 89.117L413.024 96.0908L411.917 94.9163L413.246 93.7418C412.581 93.8886 411.917 93.8886 411.253 93.6684C410.589 93.4481 410.072 93.0811 409.556 92.4938C408.744 91.6129 408.375 90.6586 408.449 89.7777C408.522 88.8234 409.039 87.9425 410.072 87.0616L414.869 82.7305L415.976 83.9784L411.253 88.2361C410.589 88.8968 410.146 89.4841 410.146 90.0713C410.072 90.6586 410.294 91.2459 410.81 91.8331C411.401 92.4938 412.139 92.8609 412.95 92.8609C413.762 92.8609 414.574 92.5672 415.238 91.9066L419.592 88.0159L420.699 89.117Z" fill="#9014CA"/>
<path d="M432.433 96.8994L420.034 105.708L419.075 104.387L420.625 103.286C419.887 103.433 419.223 103.359 418.632 103.066C417.968 102.772 417.451 102.258 416.935 101.598C416.418 100.863 416.123 100.056 416.123 99.2485C416.123 98.441 416.271 97.6335 416.713 96.826C417.156 96.0185 417.82 95.3578 418.706 94.6972C419.592 94.1099 420.477 93.6694 421.363 93.5226C422.248 93.3758 423.06 93.4492 423.798 93.7429C424.536 94.0365 425.2 94.6238 425.717 95.3578C426.16 96.0185 426.455 96.6792 426.529 97.4133C426.603 98.074 426.455 98.7346 426.086 99.3953L431.473 95.6515L432.433 96.8994ZM420.477 102.332C421.363 102.405 422.322 102.038 423.355 101.304C424.389 100.57 425.053 99.7624 425.274 98.9549C425.496 98.074 425.348 97.2665 424.758 96.459C424.167 95.6515 423.429 95.211 422.544 95.1376C421.658 95.0642 420.699 95.4313 419.665 96.0919C418.632 96.826 417.968 97.6335 417.747 98.5144C417.525 99.3953 417.673 100.203 418.263 101.084C418.854 101.891 419.592 102.332 420.477 102.332Z" fill="#9014CA"/>
<path fill-rule="evenodd" clip-rule="evenodd" d="M318.096 215.647L319.651 216.39L313.284 229.762L311.73 229.019L314.617 222.853L306.622 218.99L303.734 225.156L302.254 224.413L308.62 211.041L310.101 211.784L307.288 217.727L315.283 221.59L318.096 215.647Z" fill="#9014CA"/>
<path fill-rule="evenodd" clip-rule="evenodd" d="M329.422 224.71L320.909 233.699C320.02 234.665 319.132 235.259 318.17 235.482C317.281 235.705 316.245 235.779 315.061 235.557L315.209 234.219C316.171 234.368 316.985 234.368 317.578 234.145C318.17 233.997 318.762 233.625 319.354 233.031L320.094 232.288L319.576 221.07L321.205 221.665L321.501 231.025L327.867 224.19L329.422 224.71Z" fill="#9014CA"/>
<path d="M338.305 227.682C338.897 228.276 339.193 229.093 339.416 229.985C339.564 230.876 339.49 231.842 339.193 232.882C338.897 233.922 338.453 234.814 337.861 235.482C337.269 236.151 336.602 236.597 335.788 236.894C334.974 237.117 334.159 237.117 333.271 236.894C332.457 236.671 331.865 236.299 331.346 235.779C330.828 235.259 330.532 234.665 330.384 233.922L328.681 240.162L327.053 239.717L330.162 228.128C330.458 227.088 330.68 226.122 330.754 225.23L332.309 225.676L332.087 227.608C332.531 227.013 333.123 226.568 333.863 226.345C334.604 226.122 335.344 226.122 336.158 226.345C337.047 226.568 337.787 227.013 338.305 227.682ZM335.936 235.037C336.676 234.517 337.195 233.625 337.491 232.436C337.787 231.248 337.787 230.134 337.417 229.316C337.047 228.499 336.38 227.905 335.418 227.682C334.382 227.385 333.567 227.533 332.827 228.053C332.087 228.573 331.568 229.465 331.272 230.728C330.976 231.991 330.976 233.031 331.272 233.848C331.643 234.665 332.309 235.185 333.271 235.482C334.382 235.705 335.196 235.557 335.936 235.037Z" fill="#9014CA"/>
<path d="M350.816 234.74L343.265 233.551C343.043 234.888 343.265 235.928 343.709 236.671C344.227 237.414 345.042 237.934 346.152 238.083C347.337 238.231 348.521 238.008 349.631 237.414L350.002 238.677C349.483 239.048 348.891 239.271 348.151 239.42C347.411 239.568 346.67 239.568 345.93 239.494C344.301 239.271 343.117 238.603 342.377 237.488C341.636 236.374 341.34 235.037 341.562 233.328C341.71 232.288 342.081 231.397 342.599 230.579C343.117 229.837 343.783 229.317 344.598 228.945C345.412 228.574 346.3 228.499 347.189 228.648C348.521 228.871 349.557 229.465 350.224 230.505C350.89 231.545 351.038 232.808 350.816 234.368V234.74ZM344.82 230.431C344.227 230.877 343.709 231.545 343.487 232.437L349.483 233.328C349.557 232.362 349.409 231.545 348.965 230.951C348.521 230.357 347.929 229.985 347.04 229.911C346.152 229.837 345.486 229.985 344.82 230.431Z" fill="#9014CA"/>
<path fill-rule="evenodd" clip-rule="evenodd" d="M359.775 229.837L359.701 231.397C359.405 231.249 359.035 231.174 358.591 231.174C357.554 231.1 356.814 231.397 356.296 231.991C355.778 232.586 355.481 233.329 355.481 234.294L355.259 240.238L353.557 240.163L353.853 232.66C353.927 231.546 353.853 230.58 353.779 229.688L355.407 229.763L355.481 231.694C355.778 231.026 356.222 230.506 356.814 230.134C357.406 229.763 358.072 229.614 358.813 229.688C359.183 229.688 359.479 229.763 359.775 229.837Z" fill="#9014CA"/>
<path fill-rule="evenodd" clip-rule="evenodd" d="M361.329 239.196L361.773 237.934C362.365 238.305 362.958 238.602 363.55 238.751C364.142 238.899 364.808 238.974 365.549 238.899C366.363 238.825 366.955 238.676 367.325 238.379C367.696 238.082 367.918 237.636 367.844 237.191C367.844 236.745 367.622 236.448 367.325 236.225C367.029 236.002 366.585 235.853 365.919 235.779L364.142 235.482C363.254 235.333 362.588 235.036 362.069 234.591C361.551 234.145 361.255 233.551 361.181 232.882C361.107 231.99 361.403 231.173 362.069 230.579C362.736 229.91 363.698 229.613 364.882 229.465C365.623 229.39 366.289 229.465 366.955 229.613C367.622 229.762 368.214 230.059 368.658 230.505L368.214 231.768C367.177 231.025 366.067 230.728 364.957 230.802C364.216 230.876 363.624 231.025 363.254 231.396C362.884 231.768 362.736 232.139 362.736 232.659C362.736 233.105 362.958 233.402 363.18 233.625C363.476 233.848 363.846 233.996 364.438 234.071L366.215 234.368C367.177 234.516 367.918 234.813 368.436 235.185C368.954 235.631 369.25 236.225 369.25 236.968C369.324 237.859 369.028 238.602 368.362 239.196C367.696 239.791 366.733 240.162 365.475 240.236C363.846 240.385 362.44 240.014 361.329 239.196Z" fill="#9014CA"/>
<path fill-rule="evenodd" clip-rule="evenodd" d="M375.395 238.082C374.581 237.859 373.841 237.339 373.249 236.671C372.656 236.002 372.212 235.111 371.99 234.071C371.694 233.031 371.694 232.065 371.916 231.173C372.138 230.282 372.508 229.539 373.175 228.87C373.841 228.202 374.581 227.756 375.618 227.533C376.284 227.385 377.024 227.31 377.69 227.385C378.357 227.459 379.023 227.682 379.541 227.979L379.319 229.316C378.727 229.019 378.134 228.87 377.616 228.796C377.098 228.722 376.58 228.796 376.062 228.87C375.025 229.168 374.285 229.688 373.915 230.505C373.471 231.322 373.471 232.362 373.767 233.625C374.063 234.813 374.581 235.705 375.395 236.225C376.136 236.745 377.024 236.894 378.06 236.596C378.579 236.448 379.023 236.225 379.467 235.928C379.911 235.631 380.281 235.185 380.725 234.665L381.54 235.705C381.244 236.225 380.725 236.671 380.133 237.042C379.541 237.414 378.875 237.711 378.209 237.934C377.098 238.305 376.21 238.305 375.395 238.082Z" fill="#9014CA"/>
<path d="M389.089 222.109L393.679 231.47L392.198 232.213L391.384 230.504C391.384 231.247 391.236 231.915 390.791 232.436C390.347 232.956 389.829 233.476 389.089 233.847C388.274 234.293 387.46 234.441 386.646 234.367C385.832 234.293 385.091 233.921 384.351 233.401C383.685 232.807 383.092 232.064 382.574 231.098C382.056 230.133 381.834 229.167 381.834 228.275C381.834 227.384 382.056 226.567 382.426 225.824C382.87 225.081 383.463 224.561 384.277 224.115C385.017 223.744 385.757 223.595 386.424 223.669C387.164 223.744 387.756 223.967 388.348 224.412L387.534 222.778L389.089 222.109ZM390.495 230.578C390.717 229.687 390.495 228.721 389.903 227.532C389.311 226.344 388.645 225.601 387.83 225.23C387.016 224.858 386.202 224.858 385.239 225.378C384.277 225.898 383.759 226.492 383.537 227.384C383.315 228.275 383.537 229.315 384.055 230.43C384.647 231.544 385.313 232.361 386.128 232.733C386.942 233.104 387.83 233.03 388.719 232.584C389.755 232.138 390.273 231.47 390.495 230.578Z" fill="#9014CA"/>
<path fill-rule="evenodd" clip-rule="evenodd" d="M397.677 228.796L388.867 216.315L390.2 215.35L399.009 227.83L397.677 228.796Z" fill="#9014CA"/>
<path d="M405.376 215.349L399.824 220.624C400.713 221.589 401.675 222.109 402.563 222.184C403.452 222.258 404.34 221.886 405.154 221.144C406.043 220.326 406.561 219.212 406.783 217.949L408.041 218.469C407.967 219.064 407.819 219.732 407.449 220.401C407.079 221.069 406.635 221.664 406.117 222.184C404.932 223.298 403.674 223.818 402.341 223.744C401.009 223.669 399.75 223.001 398.64 221.812C397.9 221.069 397.381 220.178 397.159 219.286C396.937 218.395 396.863 217.503 397.085 216.686C397.307 215.869 397.752 215.052 398.492 214.458C399.528 213.492 400.565 213.12 401.823 213.195C403.008 213.343 404.192 213.938 405.228 215.126L405.376 215.349ZM398.344 217.355C398.27 218.098 398.566 218.915 399.084 219.732L403.526 215.572C402.785 214.903 402.045 214.532 401.379 214.532C400.639 214.532 399.972 214.755 399.38 215.349C398.714 215.943 398.344 216.612 398.344 217.355Z" fill="#9014CA"/>
<path fill-rule="evenodd" clip-rule="evenodd" d="M448.94 249.733C448.94 249.733 454.491 243.615 456.055 239.944C457.62 236.273 455.046 235.61 453.784 237.548C452.523 239.485 450.151 243.87 449.495 238.618C448.839 233.367 449.697 232.245 448.94 231.582C448.132 230.919 447.173 231.378 446.467 233.877C445.76 236.375 443.287 236.885 442.631 234.539C441.975 232.143 440.36 226.943 437.989 227.197C435.617 227.503 438.039 231.276 437.989 233.469C437.938 235.61 436.02 235.253 434.506 233.316C432.992 231.378 427.895 225.362 425.624 227.197C423.353 228.982 426.533 231.378 425.624 233.673C424.716 235.967 424.817 239.74 429.157 238.261C433.497 236.834 433.194 240.913 433.447 241.627C433.648 242.34 434.708 244.788 437.433 243.564C440.159 242.34 441.622 242.901 440.613 243.921C439.603 244.941 437.837 246.011 438.746 246.572C439.654 247.133 443.237 245.298 444.7 246.266C446.214 247.286 446.77 249.631 446.77 249.631H448.94V249.733Z" fill="#A93DDB"/>
<path fill-rule="evenodd" clip-rule="evenodd" d="M427.592 232.5C428.551 233.214 429.56 233.928 430.569 234.59C431.579 235.253 432.588 235.916 433.648 236.477C434.152 236.783 434.707 237.038 435.263 237.242C435.818 237.446 436.373 237.65 436.928 237.854L440.36 238.975C441.52 239.383 442.631 239.791 443.741 240.352C444.801 240.913 445.911 241.525 446.718 242.544C446.92 242.799 447.072 243.054 447.223 243.36C447.324 243.666 447.425 243.972 447.425 244.278C447.475 244.89 447.576 245.501 447.627 246.113C447.677 247.337 447.778 248.561 447.627 249.784C447.677 248.561 447.526 247.337 447.374 246.164C447.324 245.552 447.223 244.941 447.122 244.38C447.072 243.768 446.819 243.258 446.416 242.799C445.659 241.932 444.649 241.27 443.539 240.76C442.479 240.25 441.318 239.842 440.208 239.434L436.777 238.261C436.221 238.057 435.616 237.854 435.061 237.599C434.506 237.344 433.95 237.089 433.446 236.732C431.377 235.559 429.409 234.081 427.592 232.5Z" fill="#0A025D"/>
<path d="M448.277 250.6C451.733 250.6 454.535 250.199 454.535 249.704C454.535 249.21 451.733 248.809 448.277 248.809C444.821 248.809 442.02 249.21 442.02 249.704C442.02 250.199 444.821 250.6 448.277 250.6Z" fill="#351C52"/>
</svg>
