<?xml version="1.0" encoding="UTF-8"?>
<svg width="126px" height="113px" viewBox="0 0 126 113" version="1.1" xmlns="http://www.w3.org/2000/svg" xmlns:xlink="http://www.w3.org/1999/xlink">
    <!-- Generator: Sketch 52.5 (67469) - http://www.bohemiancoding.com/sketch -->
    <title>CI - Chal</title>
    <desc>Created with Sketch.</desc>
    <g id="CI---Chal" stroke="none" stroke-width="1" fill="none" fill-rule="evenodd">
        <g id="Group-12" transform="translate(1.000000, 2.000000)">
            <path d="M107.207619,55.0847574 C108.250205,54.6375731 109.538106,53.807088 110.21272,52.2100012 C110.335377,51.8905838 110.764678,51.9544673 110.826006,52.2738847 C111.132649,53.3599037 111.929921,54.6375731 113.769779,55.2125244 C114.076422,55.3402913 114.137751,55.7874756 113.831108,55.9152426 C112.84985,56.2985434 111.623278,57.1290285 110.887335,58.7899988 C110.764678,59.1094162 110.335377,59.0455327 110.274049,58.7261153 C109.967406,57.7039798 109.108806,56.3624269 107.207619,55.7874756 C106.962305,55.6597087 106.900976,55.2125244 107.207619,55.0847574 Z" id="Path" fill="#684FF1"></path>
            <path d="M0.229253244,42.0847574 C1.26853462,41.6375731 2.55235278,40.807088 3.22482896,39.2100012 C3.34709736,38.8905838 3.77503675,38.9544673 3.83617094,39.2738847 C4.14184194,40.3599037 4.93658651,41.6375731 6.77061246,42.2125244 C7.07628346,42.3402913 7.13741765,42.7874756 6.83174666,42.9152426 C5.85359949,43.2985434 4.63091552,44.1290285 3.89730514,45.7899988 C3.77503675,46.1094162 3.34709736,46.0455327 3.28596316,45.7261153 C2.98029217,44.7039798 2.12441339,43.3624269 0.229253244,42.7874756 C-0.0764177479,42.6597087 -0.0764177479,42.2125244 0.229253244,42.0847574 Z" id="Path" stroke="#ABABFC"></path>
            <path d="M115.182668,52.2106182 C116.046188,51.9238705 117.175407,51.2930255 117.773229,50.1460347 C117.906079,49.9166366 118.238202,49.9739861 118.304627,50.2033843 C118.570325,50.9489283 119.234572,51.866521 120.828763,52.3253173 C121.094462,52.3826668 121.094462,52.7267641 120.828763,52.7841136 C119.965243,53.0708613 118.902448,53.6443567 118.304627,54.848697 C118.171777,55.0780952 117.839654,55.0207457 117.773229,54.848697 C117.507531,54.103153 116.77686,53.1855604 115.116243,52.7267641 C114.983394,52.612065 114.916969,52.2679677 115.182668,52.2106182 Z" id="Path" stroke="#684FF1"></path>
            <g id="Group-8" transform="translate(60.156167, 59.000000)" stroke="#0A025D">
                <path d="M4.85732011,7.95280319 L0,7.95280319 C0,7.95280319 1.79804926,-2.04865833 13.1684471,0.380268038 C13.1684471,0.380268038 18.7113543,1.95192628 18.9894698,7.07904913 C19.1835039,10.6894668 16.6804641,14.0251191 12.7674433,15.4538993 C12.3276327,15.6132633 11.8619508,15.7616366 11.3574622,15.893524 C11.1698959,15.9429818 11.0470077,16.0858598 11.0470077,16.2507191 L11.0470077,18.85 L6.12500952,18.85 L6.12500952,16.1792801 C6.12500952,14.9263497 6.68124058,13.7063912 7.71608907,12.8106559 C8.32406256,12.2831063 9.12607015,11.832491 10.1673864,11.6731271 C11.2475096,11.5082678 12.2435512,11.0411666 12.9291384,10.3157859 C13.3754168,9.84318932 13.7893562,9.249696 13.9898581,8.55728713 C14.4814111,6.87572272 13.3948202,5.1227193 11.4674149,4.5457119 C10.5619224,4.27644178 9.39125007,4.21599339 7.94246218,4.73255239 C7.93599438,4.73255239 5.82749058,5.5128862 4.85732011,7.95280319 Z" id="Path" fill="#FEFEFE"></path>
                <ellipse id="Oval" fill="#684FF1" cx="8.48214286" cy="23.4" rx="3.05357143" ry="2.6"></ellipse>
            </g>
            <path d="M11,83 L26,74" id="Path" stroke="#684FF1" stroke-width="2" stroke-linecap="round" stroke-dasharray="6"></path>
            <path d="M2,56.0933442 L20,56.0933442" id="Path" stroke="#684FF1" stroke-width="2" stroke-linecap="round" stroke-dasharray="6"></path>
            <path d="M11,28 L25,38" id="Path" stroke="#684FF1" stroke-width="2" stroke-linecap="round" stroke-dasharray="6"></path>
            <path d="M29,8 L38,22" id="Path" stroke="#684FF1" stroke-width="2" stroke-linecap="round" stroke-dasharray="6"></path>
            <path d="M56.0931284,0 L56.0931284,18" id="Path" stroke="#684FF1" stroke-width="2" stroke-linecap="round" stroke-dasharray="6"></path>
            <path d="M76,22 L86,6" id="Path" stroke="#684FF1" stroke-width="2" stroke-linecap="round" stroke-dasharray="6"></path>
            <path d="M89,35 L105,26" id="Path" stroke="#684FF1" stroke-width="2" stroke-linecap="round" stroke-dasharray="6"></path>
            <g id="Puzzle2" transform="translate(32.000000, 30.156167)" stroke="#0A025D" stroke-width="3">
                <path d="M41.1677672,65.5307181 C43.156966,67.7037867 44.3677827,70.5259537 44.3677827,73.6303374 L43.4164268,73.6303374 L44.3677827,73.6303374 C44.3677827,74.3923225 44.2236379,75.0414209 44.137151,75.6622977 C44.2236379,76.2831744 44.2812958,76.9040512 44.2812958,77.5249279 C44.2812958,77.8353663 44.2524668,78.1458046 44.2236379,78.456243 L61.3192163,78.4844647 C61.8669667,78.4844647 62.2417433,78.117583 62.2994012,77.6660362 L62.3282302,77.6095929 L62.3282302,77.4684846 L62.3858881,77.3273762 L62.4435461,77.0451595 L62.4147171,60.3661524 L62.4435461,60.2814874 C62.6741778,58.9832906 63.7696786,58.0801972 65.0669822,57.9673105 L65.3264429,57.9108671 C65.7300485,57.9108671 66.133654,57.9955322 66.5372596,58.1930838 L66.6237465,58.2213055 L66.6525755,58.2495272 C68.1805108,58.9832906 69.88142,59.4066157 71.697645,59.4066157 L71.726474,59.4066157 C72.7931458,59.4066157 73.8309887,59.209064 74.8688315,58.9268473 C79.4526375,57.6286504 82.7967979,53.649395 82.7967979,48.9081544 L82.7967979,48.6541593 L82.7967979,48.6259377 L82.7967979,48.597716 L82.7967979,48.343721 C82.7967979,46.114209 82.0472447,44.0540271 80.7787701,42.3607269 C79.3661506,40.4416533 77.2904649,39.0023481 74.8688315,38.3250281 C74.2922522,38.155698 73.6868438,38.0428114 73.0814355,37.9581464 C72.620172,37.901703 72.1877375,37.8452597 71.726474,37.8452597 L71.697645,37.8452597 C69.88142,37.8452597 68.1805108,38.2685847 66.6525755,39.0305698 L66.6237465,39.0587915 L66.5660886,39.0870132 L66.5084306,39.1152348 C66.133654,39.2845648 65.7012195,39.3974515 65.2976139,39.3974515 L65.0669822,39.3410082 C63.7696786,39.2281215 62.6741778,38.3250281 62.4147171,37.0268312 L62.3858881,36.9421662 L62.4147171,20.2631592 L62.3858881,20.1220508 L62.3570591,19.9809425 L62.2994012,19.8398341 L62.2994012,19.6987258 C62.2705722,19.2189574 61.8669667,18.823854 61.3192163,18.823854 L42.1767811,18.8520757 L41.9173204,18.6263023 C41.2830831,18.1183122 40.8794775,17.3281055 40.8794775,16.4814554 C40.8794775,16.0581303 40.9947934,15.6065836 41.1965962,15.2114802 C41.9461494,13.8003967 42.3785839,12.1917615 42.3785839,10.4984613 C42.3785839,8.26894935 41.6290307,5.81366405 39.8416346,3.35837875 C39.5821739,2.99149704 39.2073973,2.65283699 38.8326207,2.39884196 C36.2668425,0.705541754 33.6722354,0 31.279431,0 C25.1388606,0 20.209107,4.71301891 20.180278,10.4702396 L20.180278,10.4984613 C20.180278,12.1917615 20.6127126,13.8003967 21.3622658,15.2114802 C21.5640685,15.6065836 21.6793844,16.0299086 21.6793844,16.425012 C21.6793844,17.3563271 21.1892919,18.1747556 20.4685677,18.6827456 L20.209107,18.8520757 L1.0090139,18.8802973 C0.432434529,18.8802973 0,19.3036224 0,19.8116124 L0.0288289686,37.1679396 L0.0576579373,37.4501563 L0.0576579373,37.5348213 L0.0576579373,37.647708 C0.0576579373,37.9299247 0.172973812,38.0992547 0.317118655,38.2685847 C0.490092467,38.4096931 0.749553184,38.5225798 1.0090139,38.5225798 L1.61442224,38.3532497 C3.63245005,37.1397179 6.02525444,36.4341762 8.56220368,36.4341762 C11.2432978,36.4341762 14.0973657,37.2243829 16.8937756,38.9459048 L16.9514336,38.9741265 L16.9802625,39.0023481 C17.9316185,39.7643332 18.7388296,40.639205 19.4307249,41.6269635 L19.4595538,41.6551851 L19.4883828,41.6834068 C20.9298312,44.0258054 21.5928975,46.3964257 21.6217265,48.6541593 L21.6217265,48.682381 C21.5928975,50.9401146 20.9298312,53.3107349 19.4883828,55.6531335 L19.4883828,55.6813552 L19.4595538,55.7095769 C18.7676586,56.6973353 17.9604475,57.5722071 17.0090915,58.3341922 L16.9514336,58.3624139 L16.8937756,58.3906355 C14.1261946,60.1403791 11.2432978,60.9023642 8.56220368,60.9023642 C6.02525444,60.9023642 3.63245005,60.1968224 1.61442224,58.9832906 L1.03784287,58.8139606 C0.778382153,58.8139606 0.518921435,58.9268473 0.345947624,59.0679556 C0.172973812,59.209064 0.0864869059,59.4066157 0.0864869059,59.6888324 L0.0864869059,59.8581624 L0.0864869059,59.9146057 L0.0576579373,60.1121574 L1.22905285e-14,77.4684846 C1.22905285e-14,77.948253 0.432434529,78.3997997 1.0090139,78.3997997 L18.364053,78.4280213 C18.3063951,78.032918 18.2775661,77.6378146 18.2775661,77.2144895 C18.2775661,76.5089478 18.4505399,75.9445144 18.5370268,75.464746 C18.4505399,74.8438692 18.364053,74.2512142 18.364053,73.6021157 C18.364053,71.0621654 19.2000931,68.3528851 21.0163181,65.7282698 L21.1892919,65.4178314 C21.5928975,64.853398 22.1118189,64.3736296 22.7172273,63.9785262 C24.2451626,62.9907678 25.773098,62.285226 27.3298623,61.861901 C27.8199547,61.7207926 28.2812182,61.6361276 28.7713107,61.5232409 C29.6361798,61.3539109 30.5010488,61.2692459 31.3659179,61.2692459 C35.2578286,61.2410242 38.7749628,62.9061028 41.1677672,65.5307181 Z" id="Path"></path>
            </g>
        </g>
    </g>
</svg>