<svg id="Layer_1" data-name="Layer 1" xmlns="http://www.w3.org/2000/svg" xmlns:xlink="http://www.w3.org/1999/xlink" viewBox="0 0 383.33 193.1"><defs><linearGradient id="linear-gradient" x1="-1335.92" y1="-265.21" x2="-1335.92" y2="-249.15" gradientTransform="translate(-1248.31 -192.39) rotate(180)" gradientUnits="userSpaceOnUse"><stop offset="0" stop-color="#818181" stop-opacity="0.25"/><stop offset="0.54" stop-color="#818181" stop-opacity="0.12"/><stop offset="1" stop-color="#818181" stop-opacity="0.1"/></linearGradient><linearGradient id="linear-gradient-2" x1="-1315.34" y1="-359.78" x2="-1315.34" y2="-239.54" xlink:href="#linear-gradient"/></defs><title>usecase</title><path d="M371.17,89.14c-.26-11.58-6.88-22.3-15.58-29.93s-19.39-12.59-30-17.11A554,554,0,0,0,192.7,4.43C159.17-.68,124.53-2.64,91.63,5.58S27.51,33.31,11.09,63s-15.19,69.92,7.66,95c21.85,24,56.9,29.75,89.22,32.34a880.39,880.39,0,0,0,194.54-6.09c20-2.86,40.74-6.79,56.67-19.17a63.75,63.75,0,0,0,23.87-55.55,63.76,63.76,0,0,0-34.3-49.8" fill="#f7f7f7"/><path d="M50,137.79c6.94.27,14.26,1.67,20.57,0,1.63-.44,3.1-1.07,4.79-1.42,3.88-.81,8.15,0,12.06.73a867.64,867.64,0,0,0,94,12.81c6.58.53,13.44,1,19.71-.27,4.59-.91,8.56-2.67,13.1-3.65,7.42-1.61,15.62-1,23.52-.76a250.38,250.38,0,0,0,60.83-5.41l1-.23c9.81-2.21,20.87-1.34,29.33,2.3a90.79,90.79,0,0,0,10.47,3.73c12.31,3.63,17.45,12.32,11.59,19.61l-.13.18c-3.22,4.1-5.91,8.69-12.22,11.29-6,2.46-13.77,2.56-21.06,2.57l-44.73.06a100.76,100.76,0,0,1-13.84-.63,85.41,85.41,0,0,1-11.55-2.76l-20-5.8c-8.06-2.34-16.9-4.75-25.72-3.67-9,1.1-15.5,5.52-23.35,8.31-12.18,4.33-28.38,4.5-40.82.42-6-1.95-11.14-4.8-17.64-6-10.73-2-22.13.78-33.18,2.13-21.49,2.62-46.81-1-63.27-9.62C2.17,150.49,27.07,136.91,50,137.79Z" fill="#f0e4e4"/><path d="M300.77,89.06c-.82-6.43,1.75-13,.23-19.34-1.18-4.86-4.66-8.91-5.8-13.78-1.68-7.22,2.16-14.63,7.07-20.17,3.37-3.82,7.6-7.29,12.65-8a17,17,0,0,1,9.2,1.51,23.33,23.33,0,0,1,12.54,13.78c.67,2,1,4,1.87,6,1.4,3.29,4,5.95,5.59,9.16a17.35,17.35,0,0,1,.59,14c-1.86,4.64-5.76,8.53-6.34,13.49-.42,3.58.93,7.5-.82,10.66-1.31,2.38-4,3.58-6.59,4.48-6,2.08-14.32,5.45-20.3,2.25A19,19,0,0,1,300.77,89.06Z" fill="#4cb6ac"/><path d="M317.53,93.63s8.79-3.55,9.9-5.54,2.66-13.74,2.66-13.74" fill="none" stroke="#333" stroke-miterlimit="10" stroke-width="3"/><line x1="317.44" y1="147.93" x2="317.44" y2="71.47" fill="none" stroke="#333" stroke-miterlimit="10" stroke-width="3"/><path d="M328.44,153.26s-3.49-11.86.67-20.59a18.74,18.74,0,0,0,1.51-11.75,31.21,31.21,0,0,0-1.66-5.51" fill="none" stroke="#545562" stroke-miterlimit="10" stroke-width="2"/><path d="M331.53,109.89c0,1.45-2.63,5.66-2.63,5.66s-2.63-4.21-2.63-5.66a2.63,2.63,0,1,1,5.26,0Z" fill="#5f4b8c"/><path d="M335.88,117.94c-.79,1.21-5.29,3.32-5.29,3.32s.08-5,.87-6.19a2.63,2.63,0,0,1,4.42,2.86h0Z" fill="#5f4b8c"/><path d="M335.69,131.69c-1.3.67-6.25.2-6.25.2s2.58-4.24,3.88-4.9a2.63,2.63,0,0,1,2.37,4.7Z" fill="#5f4b8c"/><path d="M333.2,142.07c-1.17.86-6.12,1.25-6.12,1.25s1.82-4.62,3-5.48a2.63,2.63,0,0,1,3.13,4.23Z" fill="#5f4b8c"/><path d="M325.06,121.55c1.05,1,5.9,2.06,5.9,2.06s-1.19-4.83-2.23-5.84a2.63,2.63,0,0,0-3.67,3.77Z" fill="#5f4b8c"/><path d="M322.31,133.72c1.3.66,6.25.2,6.25.2s-2.58-4.25-3.88-4.9a2.63,2.63,0,1,0-2.37,4.7Z" fill="#5f4b8c"/><path d="M321.25,145.92c1.17.86,6.13,1.25,6.13,1.25s-1.83-4.62-3-5.49a2.64,2.64,0,0,0-3.13,4.24Z" fill="#5f4b8c"/><path d="M331.53,109.89c0,1.45-2.63,5.66-2.63,5.66s-2.63-4.21-2.63-5.66a2.63,2.63,0,1,1,5.26,0Z" fill="#5f4b8c"/><path d="M335.88,117.94c-.79,1.21-5.29,3.32-5.29,3.32s.08-5,.87-6.19a2.63,2.63,0,0,1,4.42,2.86h0Z" fill="#5f4b8c"/><path d="M335.69,131.69c-1.3.67-6.25.2-6.25.2s2.58-4.24,3.88-4.9a2.63,2.63,0,0,1,2.37,4.7Z" fill="#5f4b8c"/><path d="M333.2,142.07c-1.17.86-6.12,1.25-6.12,1.25s1.82-4.62,3-5.48a2.63,2.63,0,0,1,3.13,4.23Z" fill="#5f4b8c"/><path d="M325.06,121.55c1.05,1,5.9,2.06,5.9,2.06s-1.19-4.83-2.23-5.84a2.63,2.63,0,0,0-3.67,3.77Z" fill="#5f4b8c"/><path d="M322.31,133.72c1.3.66,6.25.2,6.25.2s-2.58-4.25-3.88-4.9a2.63,2.63,0,1,0-2.37,4.7Z" fill="#5f4b8c"/><path d="M321.25,145.92c1.17.86,6.13,1.25,6.13,1.25s-1.83-4.62-3-5.49a2.64,2.64,0,0,0-3.13,4.24Z" fill="#5f4b8c"/><path d="M253.4,23.86a43.88,43.88,0,0,0-12.16,1.32,54.36,54.36,0,0,0-6.85,2c-8.31,2.87-18.57,8.19-29.18,18l21.1,5.09L233.5,67.3c5.57-4.25,12.38-7.84,19.39-7.68h.29a21.09,21.09,0,0,1,17.75,9.68l19.51-2.69,11.13-15.72A56.39,56.39,0,0,0,253.4,23.86Z" fill="#fff" stroke="#f7f7f7" stroke-miterlimit="10" stroke-width="2"/><path d="M219.83,80.61h0a74.78,74.78,0,0,1,13.21-13.32L226.12,50.5l-21.58-5.15a112.48,112.48,0,0,0-9.78,10.38s-.64-.67-1.81-1.83L167.52,79.15c.8,1,1.24,1.59,1.24,1.59h0a74.7,74.7,0,0,1-13.3,13.38L174,100.31l8.94,16.19a128.48,128.48,0,0,0,11.35-10.79s.27.32.78.89L221,82.11C220.24,81.17,219.83,80.61,219.83,80.61Z" fill="#fff" stroke="#f7f7f7" stroke-miterlimit="10" stroke-width="2"/><path d="M193.18,107.25l0,0,1.16-1.23Z" fill="#969396" stroke="#fff" stroke-miterlimit="10"/><path d="M266.83,135.11,255.2,120.34l1.29-18.74a21.22,21.22,0,0,1-3.31.26c-.39,0-.77,0-1.15,0-16.49-.34-31.63-20.89-31.81-21.15l-25.55,25.11c.38.44,26.7,31.34,58.73,30.93A56.57,56.57,0,0,0,266.83,135.11Z" fill="#d22151" stroke="#fff" stroke-miterlimit="10"/><path d="M309.83,80.16a56.15,56.15,0,0,0-8.08-29.11L290.83,66.48l-19.65,3.08a21.13,21.13,0,0,1-14.79,31.93l-1.19,18.92,11.9,14.5A56.44,56.44,0,0,0,309.83,80.16Z" fill="#fff" stroke="#f7f7f7" stroke-miterlimit="10" stroke-width="2"/><path d="M173.73,100.31l-17.3-6.58c-5.68,4.45-12.71,8.29-20,8.12h-.29a21.12,21.12,0,0,1-18.31-10.6l-12.5,15.41-18.12,3.45a56.41,56.41,0,0,0,47.91,26.6s21.71,2.05,48.27-20.25Z" fill="#fff" stroke="#f7f7f7" stroke-miterlimit="10" stroke-width="2"/><path d="M198.19,51.84l0,0-.47.52Z" fill="#969396" stroke="#fff" stroke-miterlimit="10"/><path d="M160.87,30.19a55.83,55.83,0,0,0-6-2.71c-6.6-2.62-13.46-4.16-20.11-3.69a56.8,56.8,0,0,0-14.07,1.77l-1.17,20,11.16,14.67a21,21,0,0,1,5.11-.63c.39,0,.77,0,1.15,0,16.59.34,31.82,21.16,31.82,21.16h0s-.38.51-1.08,1.37l.16.09L194.54,55.5C192.6,53.49,178.24,38.89,160.87,30.19Z" fill="#fff" stroke="#f7f7f7" stroke-miterlimit="10" stroke-width="2"/><path d="M120.65,25.57A56.45,56.45,0,0,0,86.79,110L105.36,106l12.31-14.5A21.13,21.13,0,0,1,131.39,60L119.52,44.49Z" fill="#fff" stroke="#f7f7f7" stroke-miterlimit="10" stroke-width="2"/><path d="M26.41,149.76s-6.46-21.9,1.21-38A34.58,34.58,0,0,0,30.41,90a58.45,58.45,0,0,0-3.07-10.2" fill="none" stroke="#545562" stroke-miterlimit="10" stroke-width="2"/><path d="M32.11,69.65c0,2.69-4.86,10.47-4.86,10.47s-4.86-7.78-4.86-10.47a4.86,4.86,0,0,1,9.72,0Z" fill="#5f4b8c"/><path d="M40.14,84.52c-1.46,2.26-9.77,6.15-9.77,6.15s.15-9.18,1.61-11.43a4.86,4.86,0,0,1,8.16,5.28Z" fill="#5f4b8c"/><path d="M39.79,109.93c-2.4,1.21-11.52.38-11.52.38s4.76-7.85,7.15-9.06a4.86,4.86,0,0,1,4.45,8.65l-.07,0Z" fill="#5f4b8c"/><path d="M35.2,129.1c-2.16,1.6-11.31,2.32-11.31,2.32s3.37-8.54,5.53-10.14a4.86,4.86,0,0,1,5.78,7.82Z" fill="#5f4b8c"/><path d="M20.17,91.19C22.09,93.06,31.06,95,31.06,95s-2.19-8.91-4.12-10.79a4.86,4.86,0,0,0-6.77,7Z" fill="#5f4b8c"/><path d="M15.08,113.68c2.39,1.21,11.52.37,11.52.37s-4.76-7.84-7.16-9a4.86,4.86,0,0,0-4.36,8.68Z" fill="#5f4b8c"/><path d="M13.13,136.2c2.16,1.6,11.3,2.32,11.3,2.32s-3.37-8.54-5.52-10.13a4.86,4.86,0,0,0-5.78,7.81Z" fill="#5f4b8c"/><path d="M32.11,69.65c0,2.69-4.86,10.47-4.86,10.47s-4.86-7.78-4.86-10.47a4.86,4.86,0,0,1,9.72,0Z" fill="#5f4b8c"/><path d="M40.14,84.52c-1.46,2.26-9.77,6.15-9.77,6.15s.15-9.18,1.61-11.43a4.86,4.86,0,0,1,8.16,5.28Z" fill="#5f4b8c"/><path d="M39.79,109.93c-2.4,1.21-11.52.38-11.52.38s4.76-7.85,7.15-9.06a4.86,4.86,0,0,1,4.45,8.65l-.07,0Z" fill="#5f4b8c"/><path d="M35.2,129.1c-2.16,1.6-11.31,2.32-11.31,2.32s3.37-8.54,5.53-10.14a4.86,4.86,0,0,1,5.78,7.82Z" fill="#5f4b8c"/><path d="M20.17,91.19C22.09,93.06,31.06,95,31.06,95s-2.19-8.91-4.12-10.79a4.86,4.86,0,0,0-6.77,7Z" fill="#5f4b8c"/><path d="M15.08,113.68c2.39,1.21,11.52.37,11.52.37s-4.76-7.84-7.16-9a4.86,4.86,0,0,0-4.36,8.68Z" fill="#5f4b8c"/><path d="M13.13,136.2c2.16,1.6,11.3,2.32,11.3,2.32s-3.37-8.54-5.52-10.13a4.86,4.86,0,0,0-5.78,7.81Z" fill="#5f4b8c"/><path d="M42.51,158.67s-2.82-9.57.53-16.62a15.12,15.12,0,0,0,1.22-9.48,25.46,25.46,0,0,0-1.34-4.46" fill="none" stroke="#545562" stroke-miterlimit="10" stroke-width="2"/><path d="M45,123.67c0,1.17-2.12,4.57-2.12,4.57s-2.13-3.4-2.13-4.57a2.13,2.13,0,1,1,4.25,0Z" fill="#5f4b8c"/><path d="M48.51,130.17c-.64,1-4.27,2.68-4.27,2.68s.07-4,.71-5a2.12,2.12,0,1,1,3.56,2.31Z" fill="#5f4b8c"/><path d="M48.36,141.27c-1,.53-5,.16-5,.16s2.08-3.42,3.12-4a2.12,2.12,0,1,1,1.92,3.79Z" fill="#5f4b8c"/><path d="M46.35,149.65c-.94.69-4.94,1-4.94,1s1.47-3.73,2.41-4.43a2.12,2.12,0,1,1,2.53,3.41Z" fill="#5f4b8c"/><path d="M39.77,133.08c.85.82,4.76,1.66,4.76,1.66s-1-3.89-1.8-4.71a2.13,2.13,0,0,0-3,3.05Z" fill="#5f4b8c"/><path d="M37.56,142.9c1,.53,5,.17,5,.17s-2.08-3.43-3.13-4a2.12,2.12,0,1,0-1.91,3.79Z" fill="#5f4b8c"/><path d="M36.71,152.75c.94.7,4.94,1,4.94,1s-1.48-3.73-2.42-4.43a2.13,2.13,0,0,0-2.53,3.42Z" fill="#5f4b8c"/><path d="M45,123.67c0,1.17-2.12,4.57-2.12,4.57s-2.13-3.4-2.13-4.57a2.13,2.13,0,1,1,4.25,0Z" fill="#010101" opacity="0.25" style="isolation:isolate"/><path d="M48.51,130.17c-.64,1-4.27,2.68-4.27,2.68s.07-4,.71-5a2.12,2.12,0,1,1,3.56,2.31Z" fill="#010101" opacity="0.25" style="isolation:isolate"/><path d="M48.36,141.27c-1,.53-5,.16-5,.16s2.08-3.42,3.12-4a2.12,2.12,0,1,1,1.92,3.79Z" fill="#010101" opacity="0.25" style="isolation:isolate"/><path d="M46.35,149.65c-.94.69-4.94,1-4.94,1s1.47-3.73,2.41-4.43a2.12,2.12,0,1,1,2.53,3.41Z" fill="#010101" opacity="0.25" style="isolation:isolate"/><path d="M39.77,133.08c.85.82,4.76,1.66,4.76,1.66s-1-3.89-1.8-4.71a2.13,2.13,0,0,0-3,3.05Z" fill="#010101" opacity="0.25" style="isolation:isolate"/><path d="M37.56,142.9c1,.53,5,.17,5,.17s-2.08-3.43-3.13-4a2.12,2.12,0,1,0-1.91,3.79Z" fill="#010101" opacity="0.25" style="isolation:isolate"/><path d="M36.71,152.75c.94.7,4.94,1,4.94,1s-1.48-3.73-2.42-4.43a2.13,2.13,0,0,0-2.53,3.42Z" fill="#010101" opacity="0.25" style="isolation:isolate"/><path d="M87.65,71.54v1.28L82.24,69.4l.57-.71.27.16,4.18-6.13V59.16l1.59.14v-.57c4.21-4.84,4.64.57,3.77,2.13a9.45,9.45,0,0,1-2.46,2.7c-.89.75-2.44,6.38-2.81,7.79Z" fill="url(#linear-gradient)"/><path d="M46.68,82.71h0s4.12,8.07,2.84,16.14c-.43,2.71-.25,4.37.18,5.38a10,10,0,0,1-.89,3.15c-1.56,3.27-1.56,6.68.43,10.67l.57,20.61s.71,9.67,0,11.66.28,11.53.28,11.53H50v5.26l10.66.28s2.5-1.18,2.94-2.07L68.9,167s5.9-1,2.44-2.42c-2.57-1.05-3.21-2.54-3.37-3.23l8.42-24.22s-1.56-20.61-7.25-27.74l-.58-4.19h.08l1.21-24.48h.07a27.17,27.17,0,0,0,9.39-.14A15,15,0,0,0,82,79.8l.16-.07h0a8.25,8.25,0,0,0,1.85-1l3.55-5.44-5.4-3.72-1.85,2.64a70.6,70.6,0,0,1-9-2.52,13.74,13.74,0,0,0-4.65-1l-3.47-.12-1.73-1,.54-1.4.16-.08,0-.3a8.3,8.3,0,0,0,6.05-10h.11c0-2.88-.93-3.16-.93-3.16,0-2.93-2.56-5.07-5.48-5.32a14.45,14.45,0,0,0-4.49.4,5.22,5.22,0,0,0-4,4.54C49.75,53.17,51,55.17,51,55.93c-.29,3.72.89,5.93,2.2,7.21a6.86,6.86,0,0,0,1.92,1.41l-.83,1.66H54l-.67,2h0l-.74.48A13.9,13.9,0,0,0,46.68,82.71Zm11.37,79.14v-6.4l2.71-18.92v-9.67L65.59,137l-5.2,21.89-.28-.07-1.2,4.3a2.76,2.76,0,0,1-.85-1.22Z" fill="url(#linear-gradient-2)"/><path d="M86.56,61.05v3.41l-4.07,6,4.07,2.65s1.81-7,2.79-7.79a9.1,9.1,0,0,0,2.36-2.59c.84-1.5.42-6.7-3.62-2v.55Z" fill="#f8a57e"/><path d="M54.16,69.19,55.78,66a.58.58,0,0,1,.5-.33l6.12-.31a.59.59,0,0,1,.63.56.69.69,0,0,1,0,.25l-1.58,4.08a.61.61,0,0,1-.61.38l-6.15-.55a.59.59,0,0,1-.54-.64A.54.54,0,0,1,54.16,69.19Z" fill="#f8a57e"/><polygon points="54.62 67.81 53.58 70.86 64.25 70.47 60.15 68.02 54.62 67.81" fill="#edeef8"/><polygon points="81.74 70.89 82.29 70.2 86.93 72.94 86.93 74.17 81.74 70.89" fill="#edeef8"/><path d="M50.35,101.12a10.1,10.1,0,0,1-.72,6.25c-1.5,3.14-1.5,6.43.41,10.25l.55,19.82s.68,9.29,0,11.2.27,11.07.27,11.07h7.65v-6.15l2.59-18.17v-9.3l4.66,9.71-5.32,22.41,7,2.87,8.74-25.15s-1.51-19.81-7-26.64l-1-7.45Z" fill="#7c7579"/><path d="M50.72,164.77v-5.06h7.79s.55,2,4.1,2.46S61,165,61,165Z" fill="#333"/><path d="M59.14,161.62l1.35-4.88L68,158.83s0,2.13,3.29,3.47-2.35,2.33-2.35,2.33Z" fill="#333"/><path d="M68.14,102.25l-17.79-.72a10,10,0,0,1,.13,3.22,2.14,2.14,0,0,0,2.56,1.4l15.57-.48Z" fill="#010101" opacity="0.1" style="isolation:isolate"/><path d="M53.93,69.72l-.71.48a13.37,13.37,0,0,0-5.64,13.47h0s4,7.75,2.73,15.51,2.74,6.56,2.74,6.56l15.64-.48,1.16-23.53s9.43,1.35,13.67-1.93l3.42-5.22L81.74,71,80,73.53a67,67,0,0,1-8.62-2.42,13,13,0,0,0-4.48-1Z" fill="#4cb6ac"/><path d="M54.07,107.58s-1,4.78,4.51,12.71" fill="#010101" opacity="0.1" style="isolation:isolate"/><path d="M69.92,81.75s6.55-2.19,9.43-2.19,2.39,1.24,2.39,1.24S77.17,82.84,69.92,81.75Z" fill="#010101" opacity="0.1" style="isolation:isolate"/><path d="M62.48,65.61l-2.61.31c-.08,0-.15.11-.2.27.58,1,1.29,1.65,2.07,1.65a1.6,1.6,0,0,0,.8-.22l.2-1.21C62.8,66,62.67,65.58,62.48,65.61Z" fill="#010101" opacity="0.1" style="isolation:isolate"/><circle cx="60.66" cy="59.6" r="7.97" fill="#f8a57e"/><path d="M67.44,55.09h0l-.4.36A1.38,1.38,0,0,0,67,57.4a1.21,1.21,0,0,0,.49.34h0S63.87,61.31,63.37,62s.08,2.4.08,2.4,1.58,2.91-6.72,2.25c0,0-5.48-1.17-4.9-8.56.06-.74-1.16-2.66,2.49-3.65h0a5,5,0,0,1,3.85-4.36,13.66,13.66,0,0,1,4.32-.38A5.41,5.41,0,0,1,67.44,55.09Z" fill="#010101" opacity="0.1" style="isolation:isolate"/><path d="M67.62,54.65h0s.84.26.88,3l-1.2-.08s-2.78,7.45-2.49,6.48c1.08-3.58-1.08-2.91-1.58-2.25s.08,2.41.08,2.41,1.58,2.91-6.72,2.24c0,0-5.48-1.16-4.9-8.55.06-.74-1.16-2.66,2.49-3.65h0A5,5,0,0,1,58,49.92a14,14,0,0,1,4.33-.38C65.16,49.78,67.62,51.84,67.62,54.65Z" fill="#1a184b"/><path d="M182.23,89a1.46,1.46,0,0,1,1.64,1.25,1.39,1.39,0,0,1-.22.93,1.68,1.68,0,0,1,1.08-.32,1.63,1.63,0,0,1,1,.5,1.48,1.48,0,0,1,.45,1.34,2.82,2.82,0,0,1-.88,1.54l-2,2-4.44-4.47,2-2A2.72,2.72,0,0,1,182.23,89Zm.72,2a.74.74,0,0,0-.22-.6.65.65,0,0,0-.58-.2,1.14,1.14,0,0,0-.66.38l-1.08,1.08,1.08,1.08,1.08-1.08A1.2,1.2,0,0,0,183,91Zm2,1.78a.74.74,0,0,0-.22-.68.69.69,0,0,0-.65-.2,1.53,1.53,0,0,0-.79.49l-1.09,1.07,1.18,1.18,1.08-1.07A1.53,1.53,0,0,0,185,92.81Z" fill="#969396"/><path d="M183.08,87l.83-.82,4.7,4.73-.83.83Z" fill="#969396"/><path d="M189.44,83.33l3.39,3.42-.83.83-.63-.63a1.72,1.72,0,0,1-.53,1.84,1.65,1.65,0,0,1-1.26.55,1.87,1.87,0,0,1-1.28-.62l-2.12-2.14.83-.83,1.89,1.89a1.08,1.08,0,0,0,.75.37,1,1,0,0,0,.74-.33,1.12,1.12,0,0,0,.35-.9,1.48,1.48,0,0,0-.46-.93l-1.68-1.68Z" fill="#969396"/><path d="M193.56,80.11a2.72,2.72,0,0,1,1.72.9l.24.26L193,83.77a1.38,1.38,0,0,0,.91.24,1.45,1.45,0,0,0,.84-.43,1.81,1.81,0,0,0,.4-.59,1.9,1.9,0,0,0,.14-.7l.9,0a2.3,2.3,0,0,1-.19,1,2.85,2.85,0,0,1-.66,1,2.66,2.66,0,0,1-1.14.7A2.11,2.11,0,0,1,193,85a2.47,2.47,0,0,1-1.11-.68,2.53,2.53,0,0,1-.68-1.13,2.15,2.15,0,0,1,0-1.23,2.6,2.6,0,0,1,.68-1.11A2.2,2.2,0,0,1,193.56,80.11Zm.65,1.35a1.17,1.17,0,0,0-.84-.35,1.37,1.37,0,0,0-1.24,1.22,1.41,1.41,0,0,0,.29.91Z" fill="#969396"/><path d="M201.7,73.77l.75-.74,1.68,1.7a4.31,4.31,0,0,1-.4,1.25,4.21,4.21,0,0,1-.78,1.09,3.3,3.3,0,0,1-1.5.88,3.19,3.19,0,0,1-1.68,0,3.15,3.15,0,0,1-1.47-.86,3,3,0,0,1-.84-1.47,3.24,3.24,0,0,1,.06-1.69,3.49,3.49,0,0,1,.92-1.52,3.85,3.85,0,0,1,1.12-.77,3.45,3.45,0,0,1,1.27-.32l.14,1.11a2.67,2.67,0,0,0-1,.21,2.5,2.5,0,0,0-.81.54,2.25,2.25,0,0,0-.58,1,2.2,2.2,0,0,0,0,1.11,2.12,2.12,0,0,0,.56,1,2.15,2.15,0,0,0,2.09.57,2,2,0,0,0,1-.57,2.39,2.39,0,0,0,.41-.55,2.75,2.75,0,0,0,.27-.69Z" fill="#969396"/><path d="M203.67,69.74a2,2,0,0,1,.51-.87l.8.81a1.54,1.54,0,0,0-.6,1.08,1.34,1.34,0,0,0,.42,1.07l1.64,1.65-.83.82-3.39-3.42.83-.82.65.66A1.82,1.82,0,0,1,203.67,69.74Z" fill="#969396"/><path d="M207.88,66.13a2.67,2.67,0,0,1,1.71.9l.25.26-2.53,2.5a1.32,1.32,0,0,0,1.75-.19,1.84,1.84,0,0,0,.41-.59,1.71,1.71,0,0,0,.13-.7l.91,0a2.44,2.44,0,0,1-.19,1,2.76,2.76,0,0,1-.66,1,2.66,2.66,0,0,1-1.14.7,2.11,2.11,0,0,1-1.22,0,2.5,2.5,0,0,1-1.12-.68,2.72,2.72,0,0,1-.68-1.13,2.24,2.24,0,0,1,0-1.23,2.5,2.5,0,0,1,.68-1.11A2.19,2.19,0,0,1,207.88,66.13Zm.65,1.35a1.17,1.17,0,0,0-.85-.35,1.23,1.23,0,0,0-.84.4,1.16,1.16,0,0,0-.39.82,1.41,1.41,0,0,0,.29.91Z" fill="#969396"/><path d="M211.66,62.38a2.7,2.7,0,0,1,1.71.9l.24.25L211.09,66a1.4,1.4,0,0,0,.91.23,1.36,1.36,0,0,0,.84-.42,2,2,0,0,0,.41-.6,1.71,1.71,0,0,0,.13-.7l.91,0a2.46,2.46,0,0,1-.19,1.06,3,3,0,0,1-.66,1,2.76,2.76,0,0,1-1.14.7,2.11,2.11,0,0,1-1.22,0A2.53,2.53,0,0,1,210,66.6a2.61,2.61,0,0,1-.69-1.12,2.24,2.24,0,0,1,0-1.23,2.59,2.59,0,0,1,.68-1.12A2.18,2.18,0,0,1,211.66,62.38Zm.65,1.35a1.14,1.14,0,0,0-.85-.36,1.39,1.39,0,0,0-1.24,1.23,1.43,1.43,0,0,0,.3.9Z" fill="#969396"/><path d="M215.65,58.18a1.91,1.91,0,0,1,1.3.62l2.11,2.14-.83.83-1.88-1.89a1.12,1.12,0,0,0-.77-.37,1.09,1.09,0,0,0-.76.35,1.2,1.2,0,0,0-.37.93,1.43,1.43,0,0,0,.46.94l1.66,1.68-.83.82-3.39-3.41.83-.83.64.64a1.82,1.82,0,0,1,.55-1.89A1.73,1.73,0,0,1,215.65,58.18Z" fill="#969396"/><path d="M194,74.9l.64-.72,4.27,7.57-.65.74Z" fill="#969396"/><path d="M226.88,106.44a2,2,0,0,0-.66-.62,2,2,0,0,0-1-.25,2.06,2.06,0,0,0-1,.31,2.31,2.31,0,0,0-.76.82,2.27,2.27,0,0,0-.3,1.07,2,2,0,0,0,.26,1,1.84,1.84,0,0,0,.74.75,2.16,2.16,0,0,0,.85.25,2.5,2.5,0,0,0,.94-.11l.2,1a3.26,3.26,0,0,1-1.35.16,2.93,2.93,0,0,1-1.25-.36,3,3,0,0,1-1.16-1.15,3.13,3.13,0,0,1-.41-1.58,3.48,3.48,0,0,1,1.62-2.87,3.15,3.15,0,0,1,1.57-.46,3.07,3.07,0,0,1,1.6.42,3,3,0,0,1,1,.85,3.14,3.14,0,0,1,.55,1.17l-1,.45A2.2,2.2,0,0,0,226.88,106.44Z" fill="#fff"/><path d="M229.54,106.54l1,.56-3.1,5.51-1-.56Z" fill="#fff"/><path d="M233.88,107.79l.82.46-6.49,6-.82-.47Z" fill="#fff"/><path d="M236.73,112a1.94,1.94,0,0,0-.66-.62,2,2,0,0,0-1-.26,2,2,0,0,0-1,.32,2.19,2.19,0,0,0-.76.81,2.3,2.3,0,0,0-.3,1.07,2.05,2.05,0,0,0,.25,1,2,2,0,0,0,1.6,1,2.5,2.5,0,0,0,.94-.1l.2,1a3.63,3.63,0,0,1-1.35.16,2.93,2.93,0,0,1-1.25-.36,3.12,3.12,0,0,1-1.57-2.74,3.27,3.27,0,0,1,.45-1.64,3.19,3.19,0,0,1,1.17-1.22A3,3,0,0,1,235,110a3.07,3.07,0,0,1,1.6.42,3,3,0,0,1,1,.85,3.14,3.14,0,0,1,.55,1.17l-1,.44A2.31,2.31,0,0,0,236.73,112Z" fill="#fff"/><path d="M242.76,114.43a2.94,2.94,0,0,1,.42,1.53,3.5,3.5,0,0,1-1.6,2.84,2.86,2.86,0,0,1-1.53.43,3.28,3.28,0,0,1-1.63-.44l-2.13-1.2,3.1-5.51,2.17,1.21A3.3,3.3,0,0,1,242.76,114.43ZM240,118.14a1.79,1.79,0,0,0,1-.31,2.16,2.16,0,0,0,.74-.81,2.19,2.19,0,0,0,.31-1.08,1.9,1.9,0,0,0-.24-1,2,2,0,0,0-.75-.72l-1.16-.65-2.05,3.65,1.19.67A1.88,1.88,0,0,0,240,118.14Z" fill="#fff"/><path d="M294.84,90a1.36,1.36,0,0,1-1.23.34,1.45,1.45,0,0,1-.84-.43,1.35,1.35,0,0,1-.36-.84,1.53,1.53,0,0,1-.7.83,1.65,1.65,0,0,1-1.09.15,1.54,1.54,0,0,1-1.16-.81,2.53,2.53,0,0,1-.18-1.68l.48-2.7L296,86l-.47,2.63A2.35,2.35,0,0,1,294.84,90Zm-4.43-1.51a.71.71,0,0,0,.56.41.72.72,0,0,0,.66-.19,1.45,1.45,0,0,0,.36-.81l.25-1.43-1.65-.29-.25,1.43A1.33,1.33,0,0,0,290.41,88.5Zm2.66.31a.72.72,0,0,0,.53.35.67.67,0,0,0,.59-.15,1,1,0,0,0,.31-.65l.26-1.44-1.52-.27L293,88.09A1.11,1.11,0,0,0,293.07,88.81Z" fill="#969396"/><path d="M293.22,92,292.9,93l-4.63-1.37.31-1.07Zm1.52,1.49a.72.72,0,0,1-.54,0,.77.77,0,0,1-.43-.31.61.61,0,0,1-.06-.49.56.56,0,0,1,.32-.38.79.79,0,0,1,1,.28.63.63,0,0,1-.25.87Z" fill="#969396"/><path d="M290.76,98.56l-4-1.7a2.35,2.35,0,0,1-1-.74,2,2,0,0,1-.4-1.08,2.72,2.72,0,0,1,.24-1.27,3.25,3.25,0,0,1,1.34-1.53l.61.74a2.26,2.26,0,0,0-1,1.12,1.34,1.34,0,0,0-.07,1,1.15,1.15,0,0,0,.7.7l.52.22a1.62,1.62,0,0,1-.29-.77,2.05,2.05,0,0,1,.84-1.73,2,2,0,0,1,1-.35,3,3,0,0,1,2.22.94,1.93,1.93,0,0,1,.46,1,2,2,0,0,1-.14,1.09,1.9,1.9,0,0,1-.52.71,1.59,1.59,0,0,1-.75.33l.67.29ZM288.3,96a1.49,1.49,0,0,0,.79.7,1.44,1.44,0,0,0,1.05.07,1.07,1.07,0,0,0,.7-.66,1.09,1.09,0,0,0,0-1,1.6,1.6,0,0,0-1.83-.78,1.12,1.12,0,0,0-.7.66A1.15,1.15,0,0,0,288.3,96Z" fill="#969396"/><path d="M287.14,106.2a2.78,2.78,0,0,1-1.56.23,3.25,3.25,0,0,1-1.55-.65,3.3,3.3,0,0,1-1.07-1.3,2.92,2.92,0,0,1-.23-1.57,3.21,3.21,0,0,1,.64-1.56l1.46-2,5.08,3.77-1.48,2A3.23,3.23,0,0,1,287.14,106.2ZM283.81,103a1.85,1.85,0,0,0,.19,1,2.46,2.46,0,0,0,1.74,1.28,1.8,1.8,0,0,0,1-.12,1.88,1.88,0,0,0,.81-.65l.79-1.06-3.36-2.5-.82,1.1A1.91,1.91,0,0,0,283.81,103Z" fill="#969396"/><path d="M279,106.22l.41.42a1.57,1.57,0,0,1,.11-.77,2.26,2.26,0,0,1,.52-.72,1.78,1.78,0,0,1,.74-.44,1.44,1.44,0,0,1,.77,0,1.52,1.52,0,0,1,.68.42,1.32,1.32,0,0,1,.41,1.08,2,2,0,0,1-.66,1.17l-1,.92.08.1a.86.86,0,0,0,.65.29,1.1,1.1,0,0,0,.72-.37,2.54,2.54,0,0,0,.67-1.26l.85.31a4.54,4.54,0,0,1-.39,1,3.53,3.53,0,0,1-.65.82,2,2,0,0,1-1.31.63,1.65,1.65,0,0,1-1.23-.57L278.2,107Zm1,.51a.84.84,0,0,0,.13.69l.3.32.84-.8a1.17,1.17,0,0,0,.37-.56.5.5,0,0,0-.16-.47.58.58,0,0,0-.5-.2.91.91,0,0,0-.55.28A1.45,1.45,0,0,0,280,106.73Z" fill="#969396"/><path d="M275.39,109.49a2.12,2.12,0,0,1,.7-1,1.36,1.36,0,0,1,1-.3,1.49,1.49,0,0,1,1,.64l1.44,1.9.51-.39.53.68-.52.39.8,1.06-.88.67-.8-1.06-1,.79-.52-.68,1-.8-1.32-1.73a.73.73,0,0,0-.38-.31.46.46,0,0,0-.37.11,1.62,1.62,0,0,0-.4.55Z" fill="#969396"/><path d="M272.32,111.06l.31.5a1.4,1.4,0,0,1,.28-.73,2.2,2.2,0,0,1,.65-.59,1.89,1.89,0,0,1,.82-.27,1.4,1.4,0,0,1,.76.17,1.53,1.53,0,0,1,.57.56,1.3,1.3,0,0,1,.16,1.14,2,2,0,0,1-.9,1l-1.14.69.07.11a.82.82,0,0,0,.56.43,1.18,1.18,0,0,0,.79-.2,2.61,2.61,0,0,0,.93-1.09l.76.49a5.27,5.27,0,0,1-.6.89,3.68,3.68,0,0,1-.81.66,2.05,2.05,0,0,1-1.42.33,1.65,1.65,0,0,1-1.08-.83l-1.64-2.7Zm.9.72a.84.84,0,0,0,0,.71l.22.37,1-.6a1.16,1.16,0,0,0,.49-.46.51.51,0,0,0-.06-.5.6.6,0,0,0-.44-.3.9.9,0,0,0-.6.15A1.45,1.45,0,0,0,273.22,111.78Z" fill="#969396"/><path d="M141,39.12l-1.35-.27-1.31-3-1.14.89-.32,1.59-1.12-.23,1.24-6.2,1.12.23-.61,3.09,3.27-2.56,1.32.26-2.78,2.17Z" fill="#969396"/><path d="M147,35.74l-1.25,4.67-1.09-.3.24-.86a1.61,1.61,0,0,1-1.78.49,1.55,1.55,0,0,1-1-.79,2,2,0,0,1-.08-1.43l.79-2.92,1.08.29-.69,2.59a1.13,1.13,0,0,0,0,.84,1,1,0,0,0,.62.47,1.06,1.06,0,0,0,.92-.17,1.57,1.57,0,0,0,.55-.87l.62-2.3Z" fill="#969396"/><path d="M152.07,37.72a2,2,0,0,1,.44,1.07,3,3,0,0,1-.16,1.31,3,3,0,0,1-.67,1.12,2,2,0,0,1-1,.56,2.06,2.06,0,0,1-1.17-.08,1.87,1.87,0,0,1-.79-.49,1.7,1.7,0,0,1-.41-.8l-.26.75L147,40.79l2.18-6.33,1.05.36-.86,2.52a1.69,1.69,0,0,1,.8-.38,1.85,1.85,0,0,1,.92.09A2,2,0,0,1,152.07,37.72Zm-1.46,2.86a1.61,1.61,0,0,0,.68-.88,1.52,1.52,0,0,0,0-1.11,1.21,1.21,0,0,0-.74-.69,1.25,1.25,0,0,0-1,.08,1.73,1.73,0,0,0-.68,2,1.18,1.18,0,0,0,.75.68A1.15,1.15,0,0,0,150.61,40.58Z" fill="#969396"/><path d="M157.28,40.21a2.78,2.78,0,0,1-.21,1.92c-.07.14-.11.25-.15.32l-3.11-1.32a1.42,1.42,0,0,0,.1.92,1.34,1.34,0,0,0,.67.61,1.75,1.75,0,0,0,.68.13,1.59,1.59,0,0,0,.67-.15l.29.84a2.45,2.45,0,0,1-1,.24,2.67,2.67,0,0,1-1.09-.23,2.43,2.43,0,0,1-1-.77,2.11,2.11,0,0,1-.43-1.11,2.74,2.74,0,0,1,.24-1.29,2.69,2.69,0,0,1,.77-1.07,2.27,2.27,0,0,1,1.1-.48A2.31,2.31,0,0,1,156,39,2,2,0,0,1,157.28,40.21Zm-1,1.12a1.2,1.2,0,0,0,0-.91,1.24,1.24,0,0,0-1.52-.65,1.38,1.38,0,0,0-.71.63Z" fill="#969396"/><path d="M160.52,41.33a1.79,1.79,0,0,1,.95.18l-.5,1a1.47,1.47,0,0,0-1.18-.19,1.35,1.35,0,0,0-.85.76l-1,2.09-1-.5,2.15-4.33,1,.5-.42.83A1.73,1.73,0,0,1,160.52,41.33Z" fill="#969396"/><path d="M165.56,44.42a2,2,0,0,1-.3,1.4l-1.52,2.61-1-.57,1.35-2.31a1.1,1.1,0,0,0,.17-.82.93.93,0,0,0-.49-.63,1.07,1.07,0,0,0-1-.1,1.44,1.44,0,0,0-.78.69l-1.2,2.05-1-.56L162.34,42l1,.56-.46.78a1.72,1.72,0,0,1,1.9,0A1.61,1.61,0,0,1,165.56,44.42Z" fill="#969396"/><path d="M170,47.66a2.79,2.79,0,0,1-.62,1.84l-.21.28-2.76-2a1.45,1.45,0,0,0-.09.93,1.27,1.27,0,0,0,.53.73,1.47,1.47,0,0,0,.63.27,1.56,1.56,0,0,0,.68,0l.11.88a2.24,2.24,0,0,1-1,0,2.64,2.64,0,0,1-1-.45,2.39,2.39,0,0,1-.83-1,2.15,2.15,0,0,1-.18-1.18,2.87,2.87,0,0,1,.5-1.21,2.72,2.72,0,0,1,1-.87,2.19,2.19,0,0,1,1.17-.24,2.33,2.33,0,0,1,1.17.45A2,2,0,0,1,170,47.66Zm-1.2.89a1.17,1.17,0,0,0,.22-.88,1.1,1.1,0,0,0-.5-.74,1.12,1.12,0,0,0-.85-.22,1.35,1.35,0,0,0-.82.46Z" fill="#969396"/><path d="M170.93,53.45a2.06,2.06,0,0,1-1.11-.46,1.32,1.32,0,0,1-.52-.9,1.47,1.47,0,0,1,.4-1.07l1.52-1.84-.49-.41.54-.67.5.42.85-1,.85.7-.85,1,1,.84-.55.66-1-.84-1.38,1.68a.65.65,0,0,0-.21.44.43.43,0,0,0,.18.34,1.49,1.49,0,0,0,.63.26Z" fill="#969396"/><path d="M176.74,53.57a2.82,2.82,0,0,1-.89,1.72l-.25.25-2.44-2.35a1.43,1.43,0,0,0-.23.9,1.27,1.27,0,0,0,.41.8,1.85,1.85,0,0,0,.58.37,1.76,1.76,0,0,0,.68.1l0,.89a2.43,2.43,0,0,1-1-.14,2.75,2.75,0,0,1-.93-.6,2.43,2.43,0,0,1-.68-1.08,2.13,2.13,0,0,1,0-1.2,2.82,2.82,0,0,1,.68-1.12,2.72,2.72,0,0,1,1.11-.72,2.1,2.1,0,0,1,1.19,0A2.43,2.43,0,0,1,176,52,2,2,0,0,1,176.74,53.57Zm-1.32.7a1.24,1.24,0,0,0,.35-.84,1.16,1.16,0,0,0-.39-.81,1.11,1.11,0,0,0-.8-.35,1.47,1.47,0,0,0-.89.33Z" fill="#969396"/><path d="M179,56.6a2.2,2.2,0,0,0-.34-.57.9.9,0,0,0-.38-.27.34.34,0,0,0-.35.09.38.38,0,0,0-.12.38,3.08,3.08,0,0,0,.24.67,7.48,7.48,0,0,1,.29.79,1.5,1.5,0,0,1,0,.7,1.21,1.21,0,0,1-.44.68,1.25,1.25,0,0,1-1.15.32,2.07,2.07,0,0,1-1.13-.72,3,3,0,0,1-.55-.9,2.31,2.31,0,0,1-.19-1l.88-.24a2.14,2.14,0,0,0,.15.84,2.77,2.77,0,0,0,.41.72.94.94,0,0,0,.41.29.36.36,0,0,0,.38-.08.4.4,0,0,0,.14-.41,3.9,3.9,0,0,0-.24-.71,6.21,6.21,0,0,1-.28-.75,1.34,1.34,0,0,1,0-.66,1.22,1.22,0,0,1,.42-.65,1.27,1.27,0,0,1,1.14-.35,2,2,0,0,1,1.1.69,2.87,2.87,0,0,1,.48.76,2.4,2.4,0,0,1,.23.84l-.9.26A3,3,0,0,0,179,56.6Z" fill="#969396"/><path d="M142.53,44.83a2.78,2.78,0,0,0-.78-.38,1.18,1.18,0,0,0-.67,0,.54.54,0,0,0-.35.38.6.6,0,0,0,.05.46,1.23,1.23,0,0,0,.33.39,4.89,4.89,0,0,0,.6.42,9.3,9.3,0,0,1,.87.62,1.84,1.84,0,0,1,.49.72,1.57,1.57,0,0,1,0,1,1.79,1.79,0,0,1-.54.9,2,2,0,0,1-1,.42,3,3,0,0,1-1.2-.09,3.57,3.57,0,0,1-1.25-.62,3.74,3.74,0,0,1-.94-1l.73-.87a3.62,3.62,0,0,0,.81.93,2.64,2.64,0,0,0,1,.52,1.38,1.38,0,0,0,.78,0,.66.66,0,0,0,.35-.92,1.31,1.31,0,0,0-.33-.38,6.46,6.46,0,0,0-.62-.42,6.72,6.72,0,0,1-.86-.62,1.76,1.76,0,0,1-.5-.69,1.54,1.54,0,0,1,0-1,1.65,1.65,0,0,1,.52-.86,1.77,1.77,0,0,1,.92-.41,2.94,2.94,0,0,1,1.2.08,3.89,3.89,0,0,1,1.06.48,3.59,3.59,0,0,1,.85.73l-.71.9A4.65,4.65,0,0,0,142.53,44.83Z" fill="#969396"/><path d="M146.15,51.05a2,2,0,0,1-1.2,0,1.3,1.3,0,0,1-.8-.64,1.46,1.46,0,0,1,0-1.15l.74-2.26-.61-.2.26-.82.61.2.42-1.26,1,.34-.42,1.26,1.25.41-.27.82-1.24-.41-.68,2.07a.71.71,0,0,0,0,.49.42.42,0,0,0,.29.24,1.51,1.51,0,0,0,.68,0Z" fill="#969396"/><path d="M151.44,48.5a2.13,2.13,0,0,1,.47,1.11,2.72,2.72,0,0,1-.18,1.3A2.58,2.58,0,0,1,151,52a2.09,2.09,0,0,1-1.1.5,2.52,2.52,0,0,1-1.28-.17,2.47,2.47,0,0,1-1.07-.75,2.23,2.23,0,0,1-.48-1.11,2.88,2.88,0,0,1,.94-2.4,2.15,2.15,0,0,1,1.11-.49,2.48,2.48,0,0,1,1.29.18A2.57,2.57,0,0,1,151.44,48.5Zm-2.45.22a1.56,1.56,0,0,0-.72.86,1.48,1.48,0,0,0-.05,1.11,1.18,1.18,0,0,0,.73.72,1.15,1.15,0,0,0,1,0,1.54,1.54,0,0,0,.72-.85,1.62,1.62,0,0,0,0-1.12,1.29,1.29,0,0,0-1.74-.68Z" fill="#969396"/><path d="M155.16,50.09a1.79,1.79,0,0,1,1,.16l-.48,1a1.42,1.42,0,0,0-1.17-.16,1.38,1.38,0,0,0-.83.78l-1,2.12-1-.47,2-4.39,1,.47-.39.85A1.71,1.71,0,0,1,155.16,50.09Z" fill="#969396"/><path d="M156.92,56.19l.28-.52a1.46,1.46,0,0,1-.77.13,2,2,0,0,1-.84-.27,1.73,1.73,0,0,1-.65-.57,1.41,1.41,0,0,1-.24-.74,1.65,1.65,0,0,1,.19-.77,1.34,1.34,0,0,1,.91-.71,1.89,1.89,0,0,1,1.31.26l1.18.63.06-.11a.84.84,0,0,0,.08-.7,1.12,1.12,0,0,0-.57-.57,2.42,2.42,0,0,0-1.41-.25l0-.91a5.08,5.08,0,0,1,1.08.06,3.41,3.41,0,0,1,1,.37,2,2,0,0,1,1,1.06,1.69,1.69,0,0,1-.16,1.35l-1.5,2.78Zm.17-1.15a.85.85,0,0,0,.62-.33l.2-.38-1-.55a1.19,1.19,0,0,0-.65-.19.49.49,0,0,0-.4.3.62.62,0,0,0,0,.53.91.91,0,0,0,.44.45A1.35,1.35,0,0,0,157.09,55Z" fill="#969396"/><path d="M165,55.52l-2.39,3.66a2.29,2.29,0,0,1-.9.83,1.91,1.91,0,0,1-1.13.2,2.71,2.71,0,0,1-1.21-.46,3.24,3.24,0,0,1-1.27-1.59l.84-.47a2.29,2.29,0,0,0,.92,1.21,1.37,1.37,0,0,0,1,.25,1.15,1.15,0,0,0,.8-.56l.32-.48a1.67,1.67,0,0,1-.81.15,1.84,1.84,0,0,1-.83-.31,1.91,1.91,0,0,1-.72-.83,2,2,0,0,1-.16-1.08,2.8,2.8,0,0,1,.45-1.16,2.77,2.77,0,0,1,.88-.86,2,2,0,0,1,1-.28,2,2,0,0,1,1.65,1,1.72,1.72,0,0,1,.2.8l.39-.6Zm-3,1.95a1.45,1.45,0,0,0,.83-.65,1.47,1.47,0,0,0,.27-1,1.13,1.13,0,0,0-.53-.8,1.11,1.11,0,0,0-.95-.16,1.61,1.61,0,0,0-1.09,1.67,1.13,1.13,0,0,0,.53.8A1.1,1.1,0,0,0,162,57.47Z" fill="#969396"/><path d="M168.69,59.18A2.85,2.85,0,0,1,168,61l-.23.27-2.65-2.1a1.44,1.44,0,0,0-.14.92,1.31,1.31,0,0,0,.48.76,1.62,1.62,0,0,0,.62.3,1.6,1.6,0,0,0,.69,0l.06.89a2.44,2.44,0,0,1-1,0,2.6,2.6,0,0,1-1-.51,2.49,2.49,0,0,1-.78-1,2.1,2.1,0,0,1-.11-1.19,2.75,2.75,0,0,1,.57-1.18,2.66,2.66,0,0,1,1-.82,2.12,2.12,0,0,1,1.19-.17,2.43,2.43,0,0,1,1.14.51A2,2,0,0,1,168.69,59.18Zm-1.25.82a1.25,1.25,0,0,0,.27-.87,1.15,1.15,0,0,0-.46-.77,1.16,1.16,0,0,0-.84-.27,1.46,1.46,0,0,0-.85.42Z" fill="#969396"/><path d="M128.28,108.91l1.13.2-.46,2.66,2.94.51.46-2.66,1.13.19L132.4,116l-1.13-.19.44-2.53-2.94-.51-.44,2.53-1.13-.19Z" fill="#969396"/><path d="M135.55,117.8a1.52,1.52,0,0,1-1,.24,1.55,1.55,0,0,1-.59-.14,1.88,1.88,0,0,1-.52-.36l.54-.86a1.35,1.35,0,0,0,.28.2,1,1,0,0,0,.29.08.71.71,0,0,0,.7-.45l.15-.31-1.59-4.85,1.15.07,1.08,3.58,1.41-3.43,1.12.07-2.39,5.3A2,2,0,0,1,135.55,117.8Z" fill="#969396"/><path d="M143,111.72a2.18,2.18,0,0,1,.81.84,2.85,2.85,0,0,1,.33,1.28,2.9,2.9,0,0,1-.2,1.28,2.12,2.12,0,0,1-.71.9,2.18,2.18,0,0,1-1.11.36,1.94,1.94,0,0,1-.92-.17,1.75,1.75,0,0,1-.68-.59l.12,2.54-1.11,0-.32-6.57,1.11-.06,0,.8a1.6,1.6,0,0,1,.61-.65,1.82,1.82,0,0,1,.89-.26A2.06,2.06,0,0,1,143,111.72Zm-.3,3.2a1.7,1.7,0,0,0-.1-2.09,1.17,1.17,0,0,0-.94-.36,1.13,1.13,0,0,0-.91.45,1.49,1.49,0,0,0-.31,1.06,1.51,1.51,0,0,0,.41,1,1.17,1.17,0,0,0,1,.36A1.15,1.15,0,0,0,142.7,114.92Z" fill="#969396"/><path d="M148.5,111.26a2.74,2.74,0,0,1,.86,1.73,2.06,2.06,0,0,1,0,.35l-3.33.58a1.45,1.45,0,0,0,.59.71,1.28,1.28,0,0,0,.89.15,1.63,1.63,0,0,0,.64-.26,1.41,1.41,0,0,0,.48-.49l.71.55a2.34,2.34,0,0,1-.72.75,2.66,2.66,0,0,1-1,.4,2.45,2.45,0,0,1-1.27-.09,2.16,2.16,0,0,1-1-.71,2.83,2.83,0,0,1-.51-1.21,2.72,2.72,0,0,1,.07-1.31,2.17,2.17,0,0,1,.67-1,2.31,2.31,0,0,1,1.13-.52A2.05,2.05,0,0,1,148.5,111.26Zm-.22,1.47a1.2,1.2,0,0,0-.47-.77,1.24,1.24,0,0,0-1.63.28,1.4,1.4,0,0,0-.26.91Z" fill="#969396"/><path d="M151.52,110a1.71,1.71,0,0,1,.83-.5l.3,1.09a1.48,1.48,0,0,0-1,.64,1.36,1.36,0,0,0-.13,1.14l.63,2.24-1.07.31-1.3-4.66,1.07-.3.25.9A1.65,1.65,0,0,1,151.52,110Z" fill="#969396"/><path d="M116.87,116.64a2,2,0,0,0-.69-.58,1.9,1.9,0,0,0-1-.21,1.94,1.94,0,0,0-1,.37,2.13,2.13,0,0,0-.72.85,2.2,2.2,0,0,0-.25,1.08,1.95,1.95,0,0,0,1.09,1.73,2,2,0,0,0,.86.21,2.49,2.49,0,0,0,.93-.15l.25,1a3.6,3.6,0,0,1-1.34.23,3.08,3.08,0,0,1-1.26-.31,3,3,0,0,1-1.23-1.1,3,3,0,0,1-.48-1.56,3.37,3.37,0,0,1,.37-1.65,3.23,3.23,0,0,1,1.11-1.28,3.11,3.11,0,0,1,1.54-.54,3.24,3.24,0,0,1,1.63.34,3.26,3.26,0,0,1,1.61,2l-1,.49A2.44,2.44,0,0,0,116.87,116.64Z" fill="#969396"/><path d="M121.62,119.24a2.18,2.18,0,0,1,.46,1.12,2.61,2.61,0,0,1-.18,1.3,2.92,2.92,0,0,1-.76,1.09,2.23,2.23,0,0,1-1.11.49,2.43,2.43,0,0,1-1.28-.18,2.55,2.55,0,0,1-1.06-.75,2.21,2.21,0,0,1-.48-1.12,2.92,2.92,0,0,1,1-2.39,2.23,2.23,0,0,1,1.11-.49,2.75,2.75,0,0,1,2.35.93Zm-2.45.22a1.71,1.71,0,0,0-.78,2,1.21,1.21,0,0,0,.72.73,1.19,1.19,0,0,0,1,0,1.72,1.72,0,0,0,.78-2,1.19,1.19,0,0,0-.71-.71A1.14,1.14,0,0,0,119.17,119.46Z" fill="#969396"/><path d="M127.33,121.26a1.89,1.89,0,0,1,0,1.43l-.85,2.9-1.07-.32.75-2.56a1.17,1.17,0,0,0,0-.85,1,1,0,0,0-.64-.49,1.09,1.09,0,0,0-1,.14,1.49,1.49,0,0,0-.59.86l-.67,2.28-1.07-.32,1.37-4.63,1.06.31-.25.87a1.7,1.7,0,0,1,1.84-.45A1.58,1.58,0,0,1,127.33,121.26Z" fill="#969396"/><path d="M128.23,121.05l1.15.21.46,3.84,1.86-3.38,1.1.22-2.64,4.4-1.13-.22Z" fill="#969396"/><path d="M136.69,123a2.76,2.76,0,0,1,.37,1.9c0,.15,0,.27-.05.35l-3.36-.34a1.42,1.42,0,0,0,.38.85,1.29,1.29,0,0,0,.81.38,1.62,1.62,0,0,0,.69-.08,1.52,1.52,0,0,0,.59-.34l.54.72a2.39,2.39,0,0,1-.9.52,2.51,2.51,0,0,1-1.1.11,2.43,2.43,0,0,1-1.2-.43,2.08,2.08,0,0,1-.74-.94,2.64,2.64,0,0,1-.16-1.3,2.81,2.81,0,0,1,.42-1.25,2.14,2.14,0,0,1,.91-.78,2.29,2.29,0,0,1,1.23-.19A2,2,0,0,1,136.69,123Zm-.6,1.36a1.2,1.2,0,0,0-.25-.87,1.25,1.25,0,0,0-1.65-.17,1.39,1.39,0,0,0-.49.81Z" fill="#969396"/><path d="M140,122.6a1.91,1.91,0,0,1,.94-.25v1.14a1.46,1.46,0,0,0-1.14.34,1.38,1.38,0,0,0-.43,1.06l0,2.33h-1.11l0-4.83h1.12v.93A1.85,1.85,0,0,1,140,122.6Z" fill="#969396"/><path d="M145.76,122l.41,4.35a2.33,2.33,0,0,1-.18,1.22,2,2,0,0,1-.76.86,2.75,2.75,0,0,1-1.23.39,3.22,3.22,0,0,1-2-.45l.37-.89a2.29,2.29,0,0,0,1.47.37,1.37,1.37,0,0,0,.94-.43,1.2,1.2,0,0,0,.28-.94l-.06-.57a1.55,1.55,0,0,1-.54.62,1.94,1.94,0,0,1-.83.28,2,2,0,0,1-1.09-.2,1.89,1.89,0,0,1-.79-.75,2.61,2.61,0,0,1-.37-1.18,2.56,2.56,0,0,1,.14-1.22,2,2,0,0,1,.64-.87,2,2,0,0,1,1-.39,1.74,1.74,0,0,1,.86.12,1.61,1.61,0,0,1,.66.5l-.07-.72Zm-1.14,3.4a1.63,1.63,0,0,0-.18-2,1.15,1.15,0,0,0-.91-.3,1.13,1.13,0,0,0-.84.47,1.52,1.52,0,0,0-.25,1,1.49,1.49,0,0,0,.44,1,1.14,1.14,0,0,0,.91.3A1.13,1.13,0,0,0,144.62,125.4Z" fill="#969396"/><path d="M150.56,121.62a2.81,2.81,0,0,1,.94,1.69,2.93,2.93,0,0,1,.07.34l-3.3.74a1.45,1.45,0,0,0,.62.69,1.31,1.31,0,0,0,.9.1,1.63,1.63,0,0,0,.63-.28,1.78,1.78,0,0,0,.46-.52l.72.52a2.4,2.4,0,0,1-.68.78,2.74,2.74,0,0,1-1,.45,2.5,2.5,0,0,1-1.28,0,2.16,2.16,0,0,1-1-.67,2.71,2.71,0,0,1-.57-1.18,2.8,2.8,0,0,1,0-1.32,2.19,2.19,0,0,1,.62-1,2.26,2.26,0,0,1,1.11-.56A2,2,0,0,1,150.56,121.62Zm-.15,1.49a1.17,1.17,0,0,0-.51-.76,1.14,1.14,0,0,0-.88-.13,1.16,1.16,0,0,0-.73.49,1.39,1.39,0,0,0-.21.92Z" fill="#969396"/><path d="M155.69,119.72a2,2,0,0,1,.89,1.12l1,2.84-1,.38-.91-2.52a1.19,1.19,0,0,0-.53-.66,1,1,0,0,0-.8,0,1.09,1.09,0,0,0-.69.68,1.5,1.5,0,0,0,0,1l.8,2.23-1,.38-1.65-4.54,1-.38.31.85a1.7,1.7,0,0,1,1.22-1.45A1.56,1.56,0,0,1,155.69,119.72Z" fill="#969396"/><path d="M159.21,118.64a1.16,1.16,0,0,0-.63.76,1.56,1.56,0,0,0,.16,1.08,1.48,1.48,0,0,0,.78.78,1.16,1.16,0,0,0,1-.05,1.44,1.44,0,0,0,.85-1.07l.89.23a2.07,2.07,0,0,1-.4,1,2.56,2.56,0,0,1-.94.76,2.29,2.29,0,0,1-1.21.26,2,2,0,0,1-1.11-.4,2.64,2.64,0,0,1-.84-1,2.67,2.67,0,0,1-.32-1.28,2.08,2.08,0,0,1,.35-1.15,2.37,2.37,0,0,1,.94-.82,2.41,2.41,0,0,1,1.1-.29,1.94,1.94,0,0,1,1,.22l-.3.91A1.51,1.51,0,0,0,159.21,118.64Z" fill="#969396"/><path d="M164.42,115.14a2.81,2.81,0,0,1,1.46,1.26l.18.3-2.85,1.82a1.48,1.48,0,0,0,.82.44,1.3,1.3,0,0,0,.88-.21,1.86,1.86,0,0,0,.49-.48,1.68,1.68,0,0,0,.25-.64l.86.23a2.3,2.3,0,0,1-.37,1,3,3,0,0,1-.8.77,2.48,2.48,0,0,1-1.21.4,2.06,2.06,0,0,1-1.16-.28,2.94,2.94,0,0,1-1.37-2.16,2.16,2.16,0,0,1,.22-1.18,2.31,2.31,0,0,1,.85-.91A2,2,0,0,1,164.42,115.14Zm.37,1.44a1.22,1.22,0,0,0-.74-.53,1.1,1.1,0,0,0-.88.18,1.16,1.16,0,0,0-.52.7,1.43,1.43,0,0,0,.11.94Z" fill="#969396"/><path d="M95.56,93.57l-.23-1.13L98,91.9,97.37,89l-2.65.55-.23-1.12,6.19-1.28.23,1.12-2.51.52.6,2.92,2.52-.52.23,1.13Z" fill="#969396"/><path d="M101.88,84.34a1.55,1.55,0,0,1,.4.91,1.73,1.73,0,0,1,0,.61,1.84,1.84,0,0,1-.27.57l-.94-.38a1.5,1.5,0,0,0,.15-.32.7.7,0,0,0-.53-.9l-.33-.11-4.51,2.4L95.68,86,99,84.3l-3.62-.8-.12-1.12,5.63,1.45A1.92,1.92,0,0,1,101.88,84.34Z" fill="#969396"/><path d="M95.46,77.58a2,2,0,0,1,.87-.77,2.87,2.87,0,0,1,1.28-.29,3,3,0,0,1,1.28.25,2,2,0,0,1,1.19,1.87,2,2,0,0,1-.2.91,1.68,1.68,0,0,1-.61.66l2.53,0,0,1.11-6.59.08V80.26H96a1.63,1.63,0,0,1-.62-.63,1.88,1.88,0,0,1-.23-.9A2.16,2.16,0,0,1,95.46,77.58Zm3.19.42a1.56,1.56,0,0,0-1.06-.35,1.51,1.51,0,0,0-1,.38,1.18,1.18,0,0,0-.4.92,1.2,1.2,0,0,0,.42.93,1.47,1.47,0,0,0,1.05.35,1.54,1.54,0,0,0,1-.37,1.26,1.26,0,0,0,0-1.86Z" fill="#969396"/><path d="M96.27,71.73a2.79,2.79,0,0,1,1.89-.36l.35,0-.35,3.36a1.42,1.42,0,0,0,.85-.37,1.24,1.24,0,0,0,.38-.82,1.56,1.56,0,0,0-.06-.68,1.82,1.82,0,0,0-.35-.6l.72-.52a2.3,2.3,0,0,1,.53.89,2.88,2.88,0,0,1,.1,1.11,2.52,2.52,0,0,1-.44,1.2,2.13,2.13,0,0,1-.94.73,3,3,0,0,1-2.55-.27,2.17,2.17,0,0,1-.78-.92,2.29,2.29,0,0,1-.18-1.23A2,2,0,0,1,96.27,71.73Zm1.36.61a1.22,1.22,0,0,0-.88.25,1.09,1.09,0,0,0-.4.8,1.12,1.12,0,0,0,.22.84,1.4,1.4,0,0,0,.81.5Z" fill="#969396"/><path d="M96.54,68.2a1.71,1.71,0,0,1-.06-1l1.11.24a1.48,1.48,0,0,0,.1,1.18,1.38,1.38,0,0,0,1,.63l2.28.49-.23,1.09-4.73-1,.24-1.09.91.2A1.63,1.63,0,0,1,96.54,68.2Z" fill="#969396"/><path d="M98.84,64.37a2.05,2.05,0,0,0-.35.56.8.8,0,0,0-.07.46.33.33,0,0,0,.23.27.37.37,0,0,0,.4-.06,3.2,3.2,0,0,0,.49-.52,6.1,6.1,0,0,1,.58-.62,1.5,1.5,0,0,1,.61-.33,1.4,1.4,0,0,1,1.61,1,2.06,2.06,0,0,1-.14,1.34,3.07,3.07,0,0,1-.55.89,2.37,2.37,0,0,1-.78.61l-.62-.67a2.1,2.1,0,0,0,.68-.52,2,2,0,0,0,.45-.69.86.86,0,0,0,.08-.5.37.37,0,0,0-.24-.3.42.42,0,0,0-.43.06,3.42,3.42,0,0,0-.52.54,6.8,6.8,0,0,1-.55.59,1.41,1.41,0,0,1-.58.31,1.19,1.19,0,0,1-.77-.09,1.27,1.27,0,0,1-.83-.86,2,2,0,0,1,.12-1.29,2.86,2.86,0,0,1,.46-.77,2.76,2.76,0,0,1,.65-.59l.63.69A3.49,3.49,0,0,0,98.84,64.37Z" fill="#969396"/><path d="M100.84,60.5a1.12,1.12,0,0,0-.12,1,1.53,1.53,0,0,0,.71.83,1.5,1.5,0,0,0,1.08.23,1.13,1.13,0,0,0,.8-.57,1.41,1.41,0,0,0,.14-1.35l.87-.29a2,2,0,0,1,.21,1.07,2.57,2.57,0,0,1-.38,1.13,2.32,2.32,0,0,1-.88.88,2.08,2.08,0,0,1-1.15.27,2.93,2.93,0,0,1-2.21-1.32,2,2,0,0,1-.33-1.14,2.34,2.34,0,0,1,.35-1.2,2.65,2.65,0,0,1,.77-.85,2,2,0,0,1,1-.35l.24.92A1.51,1.51,0,0,0,100.84,60.5Z" fill="#969396"/><path d="M107.22,58.3l-.45-.38a1.48,1.48,0,0,1,0,.78,2.09,2.09,0,0,1-.43.76,1.71,1.71,0,0,1-.7.52,1.36,1.36,0,0,1-.77.08,1.53,1.53,0,0,1-.71-.35,1.31,1.31,0,0,1-.52-1,2,2,0,0,1,.54-1.24l.86-1-.09-.08a.84.84,0,0,0-.68-.23,1.11,1.11,0,0,0-.67.43,2.44,2.44,0,0,0-.54,1.33l-.88-.22a4.66,4.66,0,0,1,.29-1,3.14,3.14,0,0,1,.56-.88,1.93,1.93,0,0,1,1.24-.75,1.66,1.66,0,0,1,1.29.43l2.41,2Zm-1.09-.4a.82.82,0,0,0-.2-.68l-.33-.28-.75.88a1.2,1.2,0,0,0-.32.59.49.49,0,0,0,.22.45.57.57,0,0,0,.51.15.89.89,0,0,0,.52-.33A1.37,1.37,0,0,0,106.13,57.9Z" fill="#969396"/><path d="M104.27,51.78l.83-.74,4.46,5-.83.74Z" fill="#969396"/><path d="M111.06,49.73a2.71,2.71,0,0,1,1.5,1.22l.19.29L110,53.15a1.4,1.4,0,0,0,.83.41,1.29,1.29,0,0,0,.87-.24,1.72,1.72,0,0,0,.48-.49,1.89,1.89,0,0,0,.24-.65l.86.21a2.3,2.3,0,0,1-.34,1,2.69,2.69,0,0,1-.78.8,2.48,2.48,0,0,1-1.2.44,2,2,0,0,1-1.16-.25,2.61,2.61,0,0,1-1-.89,2.66,2.66,0,0,1-.48-1.23,2.07,2.07,0,0,1,.19-1.18,2.37,2.37,0,0,1,.82-.94A2,2,0,0,1,111.06,49.73Zm.42,1.43a1.2,1.2,0,0,0-.76-.51,1.1,1.1,0,0,0-.87.21,1.14,1.14,0,0,0-.5.72,1.38,1.38,0,0,0,.15.93Z" fill="#969396"/><path d="M234.52,42.07l1.49-.55,3.18,2.95.49-4.3,1.48-.54,2.17,5.91-1.2.44-1.47-4-.43,4-.86.32-2.94-2.78,1.47,4-1.2.44Z" fill="#969396"/><path d="M247.86,39.52,249,44.24l-1.34.31-.2-.83a1.89,1.89,0,0,1-2.73,1.05,1.92,1.92,0,0,1-.76-1.22l-.68-3,1.35-.31.59,2.58a1,1,0,0,0,.4.64.86.86,0,0,0,.71.11,1,1,0,0,0,.68-.52,1.25,1.25,0,0,0,.08-.92l-.53-2.34Z" fill="#969396"/><path d="M249.26,37.46l1.38-.19.93,6.61-1.37.19Z" fill="#969396"/><path d="M255.79,43.25a2.1,2.1,0,0,1-.58.29,2.42,2.42,0,0,1-.65.13,1.55,1.55,0,0,1-1.12-.31,1.42,1.42,0,0,1-.5-1.08l-.15-2.23-.68,0-.06-1,.67,0-.09-1.33,1.38-.1L254.1,39l1.31-.09.06,1-1.31.09.14,2c0,.37.18.54.48.52a1.6,1.6,0,0,0,.66-.22Z" fill="#969396"/><path d="M256.58,38.7l1.39,0-.06,4.84-1.39,0Zm1.25-1.92a.78.78,0,0,1,.21.56.83.83,0,0,1-.22.56.77.77,0,0,1-.55.21.72.72,0,0,1-.53-.23.78.78,0,0,1-.21-.56.81.81,0,0,1,.22-.55.73.73,0,0,1,.54-.21A.7.7,0,0,1,257.83,36.78Z" fill="#969396"/><path d="M259.26,40.39l2.31.22-.09.92-2.31-.22Z" fill="#969396"/><path d="M267.14,40a1.93,1.93,0,0,0-.8-.42,1.82,1.82,0,0,0-1,0,1.88,1.88,0,0,0-.84.53A2,2,0,0,0,264,41a2,2,0,0,0,0,1,1.88,1.88,0,0,0,.51.86,1.71,1.71,0,0,0,.88.49,2,2,0,0,0,.88,0,2.93,2.93,0,0,0,.89-.34l.59,1.08a3.71,3.71,0,0,1-1.34.52,3.46,3.46,0,0,1-1.4,0,3.35,3.35,0,0,1-1.53-.82,3.07,3.07,0,0,1-.88-1.42,3.24,3.24,0,0,1,0-1.72,3.16,3.16,0,0,1,.82-1.5,3.12,3.12,0,0,1,1.45-.84,3.5,3.5,0,0,1,1.76,0A3.52,3.52,0,0,1,268.78,40l-1,.79A2.23,2.23,0,0,0,267.14,40Z" fill="#969396"/><path d="M270.59,39.34l1.28.53L269.32,46,268,45.51Z" fill="#969396"/><path d="M275.8,44.36a2.29,2.29,0,0,1,.34,1.21,2.64,2.64,0,0,1-.39,1.28,2.59,2.59,0,0,1-.95.94,2.17,2.17,0,0,1-1.23.27,3.12,3.12,0,0,1-2.33-1.4,2.2,2.2,0,0,1-.33-1.22,2.57,2.57,0,0,1,.39-1.27,2.49,2.49,0,0,1,.94-.94,2.18,2.18,0,0,1,1.23-.27,2.83,2.83,0,0,1,1.33.44A2.89,2.89,0,0,1,275.8,44.36Zm-2.54-.11a1.55,1.55,0,0,0-1,1.65,1.21,1.21,0,0,0,1.49.9,1.35,1.35,0,0,0,.79-.65,1.42,1.42,0,0,0,.21-1,1.14,1.14,0,0,0-.56-.77A1.12,1.12,0,0,0,273.26,44.25Z" fill="#969396"/><path d="M281.63,48.86l-3.27,3.57-1-.93.58-.63a1.71,1.71,0,0,1-1.81-.43,1.69,1.69,0,0,1-.6-1.23,1.83,1.83,0,0,1,.57-1.31l2.06-2.25,1,.94-1.79,1.95a1,1,0,0,0-.31.7.89.89,0,0,0,.31.64,1,1,0,0,0,.82.27,1.35,1.35,0,0,0,.81-.46l1.62-1.76Z" fill="#969396"/><path d="M287.29,53.06l-5.36,4L281.11,56l.57-.42a1.74,1.74,0,0,1-.85-.18,2,2,0,0,1-.68-.59,2.3,2.3,0,0,1-.47-1.15,2.06,2.06,0,0,1,.23-1.16,2.85,2.85,0,0,1,.87-1,3,3,0,0,1,1.2-.55,2.11,2.11,0,0,1,1.17.12,2.36,2.36,0,0,1,1,.76,1.81,1.81,0,0,1,.32,1.72l2-1.53Zm-5.23,1.77a1.45,1.45,0,0,0,1-.31,1.4,1.4,0,0,0,.57-.85,1.14,1.14,0,0,0-.22-.92,1.13,1.13,0,0,0-.82-.48,1.45,1.45,0,0,0-1,.3,1.47,1.47,0,0,0-.57.86,1.11,1.11,0,0,0,.23.92A1.12,1.12,0,0,0,282.06,54.83Z" fill="#969396"/></svg>