<?xml version="1.0" encoding="UTF-8"?>
<svg width="147px" height="101px" viewBox="0 0 147 101" version="1.1" xmlns="http://www.w3.org/2000/svg" xmlns:xlink="http://www.w3.org/1999/xlink">
    <!-- Generator: Sketch 52.5 (67469) - http://www.bohemiancoding.com/sketch -->
    <title>Group 21 Copy</title>
    <desc>Created with Sketch.</desc>
    <g id="Page-1" stroke="none" stroke-width="1" fill="none" fill-rule="evenodd">
        <g id="MO">
            <g id="Group-21-Copy" transform="translate(1.000000, 1.000000)">
                <g id="Group-3" transform="translate(52.000000, 0.000000)">
                    <g id="Group-2">
                        <circle id="Oval" fill="#6976F4" cx="20" cy="20" r="18"></circle>
                        <circle id="Oval-Copy" stroke="#6976F4" cx="20" cy="20" r="20"></circle>
                        <g id="Group" transform="translate(10.000000, 13.000000)" fill="#FEFEFE" fill-rule="nonzero">
                            <g id="loading-mule" transform="translate(0.106936, 0.493204)">
                                <path d="M18.1537804,22.3600431 C18.8806345,21.9419115 18.6364184,22.1349558 18.7298792,21.2986384 C18.9167737,19.5737471 18.1849071,16.5686313 16.8246867,15.4186948 C16.6273896,15.251453 16.6170141,15.1051029 16.7312259,14.8751047 C17.3853973,13.5370347 18.0810977,12.2094106 18.6521839,10.829503 C19.5866836,8.6028321 20.261606,6.32390493 20.1473942,3.84634423 C20.064309,2.12146655 18.9325392,0.532490456 17.3542437,0.11433931 C16.2120714,-0.188821166 15.2671692,0.103880458 14.5507176,1.07608597 C14.2807379,1.44196944 14.0419117,1.82875543 13.8653927,2.24690603 C13.2839041,3.55364396 13.0035488,4.94399736 12.7128179,6.34479659 C12.2870972,8.42509021 12.1209807,10.5158839 12.1832879,12.6380151 C12.1936904,13.0979843 12.1832879,13.5683993 12.1832879,13.9970039 C11.4876143,13.9447476 10.7814844,13.8610996 10.0754084,13.8610996 C9.35895683,13.8610996 8.64253221,13.9551663 7.91567816,14.0074497 C7.91567816,13.9342747 7.90530261,13.8506266 7.91567816,13.7670057 C8.16487987,10.2754399 7.72875666,6.85704919 6.76310338,3.51183351 C6.50352611,2.61280036 6.15046116,1.74511825 5.54822143,1.0133513 C5.10172267,0.469753079 4.5825951,0.0829727923 3.87651908,0.0307037634 C1.8932755,-0.126103323 0.117680803,1.57785747 0.013846045,3.73133158 C-0.0484548422,5.19488718 0.0969340257,6.6166052 0.501890722,8.02787739 C1.19758311,10.4113442 2.18398209,12.6693797 3.3780887,14.8333214 C3.49230053,15.0423736 3.58576128,15.2200884 3.34696206,15.4186948 C1.98671469,16.5581855 1.56097241,18.0844161 1.66480871,19.8093073 C1.71672416,20.7083269 1.84132771,21.6073736 1.9763122,22.5063932 C1.98669583,22.4854744 9.90931883,27.0538017 18.1537804,22.3600431 Z" id="Shape"></path>
                            </g>
                        </g>
                    </g>
                </g>
                <path d="M140.545486,81.3216597 C140.575107,81.0391505 140.590278,80.7553212 140.59094,80.4712741 C140.59094,75.9796797 136.987824,72.3398301 132.545633,72.3398301 C131.177353,72.3383707 129.832022,72.6901915 128.640705,73.3610177 C125.495308,71.2978019 120.780568,67 116.288832,67 C108.982603,67 103.302535,73.3542218 100.513495,78.0936377 C100.358498,78.0845766 100.202592,78.079593 100.045322,78.079593 C95.6026767,78.079593 92.0000157,81.7208018 92.0000157,86.2123962 C91.9969018,87.7989141 92.4567817,89.3520895 93.3236277,90.682697 C93.3236277,94.7239541 97.1503755,98 101.868925,98 L136.101931,98 C139.808227,98 142.812717,95.4275496 142.812717,92.2543473 C143.592234,90.9717385 144.002952,89.5001967 143.999968,88.0006072 C144.007431,85.3466416 142.718736,82.8550577 140.545486,81.3216597 Z" id="Path-Copy-4" stroke="#0A025D" stroke-width="3"></path>
                <path d="M92,20 L113.665894,20" id="Line-23" stroke="#684FF1" stroke-linecap="round" stroke-dasharray="4"></path>
                <path d="M113.665894,20 L113.665894,67" id="Line-24" stroke="#684FF1" stroke-linecap="round" stroke-dasharray="4"></path>
                <path d="M52,20 L24.1351971,20" id="Line-25" stroke="#684FF1" stroke-linecap="round" stroke-dasharray="3"></path>
                <path d="M24.1351971,20 L24.1351971,47" id="Line-26" stroke="#684FF1" stroke-linecap="round" stroke-dasharray="3"></path>
                <path d="M49.1226503,61.3216597 C49.1522712,61.0391505 49.1674421,60.7553212 49.1681041,60.4712741 C49.1681041,55.9796797 45.5649886,52.3398301 41.1227976,52.3398301 C39.7545175,52.3383707 38.4091869,52.6901915 37.2178695,53.3610177 C34.0724728,51.2978019 29.357732,47 24.8659965,47 C17.5597674,47 11.8796994,53.3542218 9.09065985,58.0936377 C8.9356627,58.0845766 8.77975648,58.079593 8.62248665,58.079593 C4.17984114,58.079593 0.577180176,61.7208018 0.577180176,66.2123962 C0.57406625,67.7989141 1.03394615,69.3520895 1.90079218,70.682697 C1.90079218,74.7239541 5.72753993,78 10.4460895,78 L44.6790958,78 C48.3853912,78 51.3898813,75.4275496 51.3898813,72.2543473 C52.1693982,70.9717385 52.5801165,69.5001967 52.5771322,68.0006072 C52.5845959,65.3466416 51.2959001,62.8550577 49.1226503,61.3216597 Z" id="Path" stroke="#0A025D" stroke-width="3"></path>
            </g>
        </g>
    </g>
</svg>