<?xml version="1.0" encoding="UTF-8"?>
<svg width="130px" height="94px" viewBox="0 0 130 94" version="1.1" xmlns="http://www.w3.org/2000/svg" xmlns:xlink="http://www.w3.org/1999/xlink">
    <!-- Generator: Sketch 52.5 (67469) - http://www.bohemiancoding.com/sketch -->
    <title>Ad - 02</title>
    <desc>Created with Sketch.</desc>
    <g id="Ad---02" stroke="none" stroke-width="1" fill="none" fill-rule="evenodd">
        <g id="Group-12-Copy" transform="translate(0.000000, 2.000000)">
            <g id="API-Infinity">
                <path d="M130,57.9058824 C130,65.1269535 127.156475,71.928007 121.976029,77.0328358 C116.632162,82.3153644 109.637743,84.9485514 102.626982,84.9485514 C95.6162207,84.9485514 88.6054596,82.3153644 83.2779349,77.0328358 L69.5669127,63.5115013 L67.7529395,61.734504 L47.7992349,41.9775241 C43.5012625,37.7127305 37.7651853,35.3703248 31.6859239,35.3703248 C25.5903204,35.3703248 19.8705853,37.7127305 15.5726129,41.9775241 C6.68251027,50.7655838 6.68251027,65.0623354 15.5726129,73.8503951 C24.4627155,82.6384548 38.9254744,82.6384548 47.815577,73.8503951 L61.5265993,60.2967515 L64.7623351,63.4953468 L51.0513129,77.0489903 C45.7074461,82.3315189 38.696685,84.9647059 31.6859239,84.9647059 C24.6751628,84.9647059 17.6644017,82.3315189 12.336877,77.0489903 C1.66548544,66.5000878 1.66548544,49.3278314 12.336877,38.7789289 C17.5009807,33.6741001 24.381005,30.8470588 31.6859239,30.8470588 C39.0071849,30.8470588 45.8708671,33.6579456 51.0513129,38.7789289 L64.745993,52.3164179 L70.4003598,57.9058824 L71.0213596,58.5197542 L72.8189906,60.2967515 L86.5136708,73.8342406 C95.4037734,82.6223003 109.866532,82.6223003 118.756635,73.8342406 C123.054607,69.5694469 125.424212,63.9153644 125.424212,57.9058824 C125.424212,51.8802458 123.054607,46.2261633 118.756635,41.9775241 C114.44232,37.7127305 108.722585,35.3703248 102.643324,35.3703248 C96.5640626,35.3703248 90.8279853,37.7127305 86.5300129,41.9775241 L72.8189906,55.5150132 L69.5832548,52.3164179 L83.2779349,38.7789289 C88.4420386,33.6741001 95.3220629,30.8470588 102.626982,30.8470588 C109.931901,30.8470588 116.811925,33.6579456 121.976029,38.7789289 C127.156475,43.8837577 130,50.6848112 130,57.9058824 Z" id="Path" fill="#0A025D"></path>
                <polygon id="Path" fill="#0A025D" points="65 60.0705882 56.3333333 60.3592157 64.8675722 68.7294118"></polygon>
                <ellipse id="Oval" stroke="#684FF1" stroke-width="3" cx="33.0416667" cy="60.6117647" rx="10.2916667" ry="10.2823529"></ellipse>
                <ellipse id="Oval" stroke="#684FF1" stroke-width="3" cx="62.2916667" cy="8.11764706" rx="8.125" ry="8.11764706"></ellipse>
                <ellipse id="Oval" stroke="#684FF1" stroke-width="3" cx="109.958333" cy="53.0352941" rx="8.125" ry="8.11764706"></ellipse>
                <ellipse id="Oval" fill="#684FF1" cx="80.1666667" cy="87.1294118" rx="4.33333333" ry="4.32941176"></ellipse>
                <ellipse id="Oval" stroke="#684FF1" stroke-width="3" cx="106.166667" cy="8.11764706" rx="4.33333333" ry="4.32941176"></ellipse>
                <ellipse id="Oval" fill="#684FF1" cx="5.41666667" cy="28.6823529" rx="5.41666667" ry="5.41176471"></ellipse>
                <path d="M7.58333333,33.0117647 L23.8333333,56.8235294" id="Path" stroke="#684FF1" stroke-linecap="round" stroke-dasharray="4"></path>
                <path d="M10.8333333,28.6823529 L54.1666667,12.4470588" id="Path" stroke="#684FF1" stroke-linecap="round" stroke-dasharray="4"></path>
                <path d="M67.1666667,14.6117647 L102.916667,49.2470588" id="Path" stroke="#684FF1" stroke-linecap="round" stroke-dasharray="5"></path>
                <path d="M105.083333,58.9882353 L83.4166667,84.9647059" id="Path" stroke="#684FF1" stroke-width="3"></path>
                <path d="M39.5416667,53.0352941 L59.0416667,16.2352941" id="Path" stroke="#684FF1" stroke-linecap="round" stroke-dasharray="4"></path>
                <path d="M42.25,65.4823529 L75.8333333,84.9647059" id="Path" stroke="#684FF1" stroke-linecap="round" stroke-dasharray="4"></path>
                <path d="M70.4166667,10.2823529 L101.833333,10.2823529" id="Path" stroke="#684FF1" stroke-linecap="round" stroke-dasharray="4"></path>
                <path d="M106.166667,12.4470588 L109.416667,44.9176471" id="Path" stroke="#684FF1" stroke-linecap="round" stroke-dasharray="4"></path>
            </g>
            <text id="&lt;/&gt;" font-family="Muli-Bold, Muli" font-size="7" font-weight="bold" fill="#0A025D">
                <tspan x="27" y="63">&lt;/&gt;</tspan>
            </text>
        </g>
    </g>
</svg>