<?xml version="1.0" encoding="UTF-8"?>
<svg width="117px" height="91px" viewBox="0 0 117 91" version="1.1" xmlns="http://www.w3.org/2000/svg" xmlns:xlink="http://www.w3.org/1999/xlink">
    <!-- Generator: Sketch 52.5 (67469) - http://www.bohemiancoding.com/sketch -->
    <title>Ad - 03</title>
    <desc>Created with Sketch.</desc>
    <g id="Ad---03" stroke="none" stroke-width="1" fill="none" fill-rule="evenodd">
        <g id="Group-19-Copy">
            <g id="Group-18">
                <path d="M57.7963342,4.28858223 L46.7885822,4.28858223 L46.7885822,13.8639791 L49.5017605,11.4512806 L61.5947838,23.2885822 L66.7885822,18.2369949 L55.0831559,6.8520743 L57.7963342,4.28858223 Z" id="Path" stroke="#684FF1" stroke-linecap="round" stroke-dasharray="3" transform="translate(56.788582, 13.788582) rotate(-315.000000) translate(-56.788582, -13.788582) "></path>
                <polygon id="Path" fill="#0A025D" transform="translate(57.788582, 76.365747) rotate(-225.000000) translate(-57.788582, -76.365747) " points="56.7033109 66.8657467 67.7885822 66.8657467 67.7885822 76.4411435 65.0754039 74.0284451 52.9048613 85.8657467 47.7885822 80.8141594 59.4164892 69.4292388"></polygon>
                <g id="Group-13" transform="translate(0.000000, 20.000000)" fill="#0A025D">
                    <path d="M116,25.5 C116,32.1716418 113.375207,38.4552239 108.593257,43.1716418 C103.660457,48.0522388 97.2040704,50.4850746 90.7325986,50.4850746 C84.2611268,50.4850746 77.7896551,48.0522388 72.8719399,43.1716418 L60.2156117,30.6791045 L58.5411749,29.0373134 L40.1223707,10.7835821 C36.1550115,6.84328358 30.860171,4.67910448 25.2485451,4.67910448 C19.6218343,4.67910448 14.3420787,6.84328358 10.3747196,10.7835821 C2.16847102,18.9029851 2.16847102,32.1119403 10.3747196,40.2313433 C18.5809682,48.3507463 31.9312071,48.3507463 40.1374557,40.2313433 L52.7937839,27.7089552 L55.7806171,30.6641791 L43.1242888,43.1865672 C38.1914887,48.0671642 31.7200169,50.5 25.2485451,50.5 C18.7770734,50.5 12.3056016,48.0671642 7.38788647,43.1865672 C-2.46262882,33.4402985 -2.46262882,17.5746269 7.38788647,7.82835821 C12.1547515,3.1119403 18.5055431,0.5 25.2485451,0.5 C32.0066322,0.5 38.3423388,3.09701493 43.1242888,7.82835821 L55.765532,20.3358209 L60.9849475,25.5 L61.5581781,26.0671642 L63.2175298,27.7089552 L75.858773,40.2164179 C84.0650216,48.3358209 97.4152606,48.3358209 105.621509,40.2164179 C109.588868,36.2761194 111.776196,31.0522388 111.776196,25.5 C111.776196,19.9328358 109.588868,14.7089552 105.621509,10.7835821 C101.639065,6.84328358 96.3593095,4.67910448 90.7476836,4.67910448 C85.1360577,4.67910448 79.8412172,6.84328358 75.8738581,10.7835821 L63.2175298,23.2910448 L60.2306967,20.3358209 L72.8719399,7.82835821 C77.6388049,3.1119403 83.9895965,0.5 90.7325986,0.5 C97.4756006,0.5 103.826392,3.09701493 108.593257,7.82835821 C113.375207,12.5447761 116,18.8283582 116,25.5 Z" id="Path"></path>
                    <polygon id="Path" points="56 27.5 48 27.7666667 55.8777589 35.5"></polygon>
                </g>
            </g>
        </g>
    </g>
</svg>