<?xml version="1.0" encoding="UTF-8"?>
<svg width="98px" height="99px" viewBox="0 0 98 99" version="1.1" xmlns="http://www.w3.org/2000/svg" xmlns:xlink="http://www.w3.org/1999/xlink">
    <!-- Generator: Sketch 52.5 (67469) - http://www.bohemiancoding.com/sketch -->
    <title>HY MO</title>
    <desc>Created with Sketch.</desc>
    <g id="HY-MO" stroke="none" stroke-width="1" fill="none" fill-rule="evenodd">
        <g id="Group-45" transform="translate(0.000000, 1.000000)">
            <g id="Group-44" transform="translate(12.000000, 63.000000)">
                <g id="Group" transform="translate(9.000000, 15.000000)" fill="#684FF1">
                    <path d="M0.652173913,9.15691489 C3.39130435,10.5839666 6.26086957,10.9407295 9.26086957,10.9407295 C12.2608696,10.9407295 15.1304348,10.5839666 17.7391304,9.15691489 C17.7391304,9.9893617 17.7391304,10.8218085 17.7391304,11.5353343 C17.7391304,13.081307 17.6086957,13.3191489 16.0434783,13.9137538 C14.6086957,14.3894377 13.173913,14.6272796 11.7391304,14.7462006 C9.52173913,14.9840426 7.43478261,14.9840426 5.2173913,14.5083587 C4.04347826,14.2705167 2.86956522,13.9137538 1.69565217,13.5569909 C0.913043478,13.3191489 0.52173913,12.7245441 0.52173913,11.8920973 C0.652173913,11.0596505 0.652173913,10.1082827 0.652173913,9.15691489 Z" id="Path"></path>
                    <path d="M0.652173913,14.0326748 C6.39130435,16.2921733 12,16.1732523 17.7391304,14.0326748 C17.7391304,14.0326748 17.7391304,14.1515957 17.7391304,14.2705167 C17.7391304,15.1029635 17.7391304,15.9354103 17.7391304,16.8867781 C17.7391304,17.600304 17.4782609,17.9570669 16.826087,18.3138298 C16.0434783,18.6705927 15.1304348,19.0273556 14.3478261,19.1462766 C10.5652174,19.8598024 6.91304348,19.8598024 3.13043478,18.9084347 C2.47826087,18.7895137 1.95652174,18.4327508 1.43478261,18.1949088 C0.913043478,17.9570669 0.652173913,17.481383 0.652173913,16.8867781 C0.652173913,15.9354103 0.652173913,14.9840426 0.652173913,14.0326748 Z" id="Path"></path>
                    <path d="M0.652173913,4.40007599 C4.82608696,6.77849544 14.0869565,6.5406535 17.7391304,4.40007599 C17.7391304,4.87575988 17.7391304,5.35144377 17.7391304,5.70820669 C17.7391304,6.30281155 17.7391304,6.89741641 17.7391304,7.3731003 C17.7391304,7.96770517 17.4782609,8.32446809 17.0869565,8.56231003 C16.173913,8.91907295 15.2608696,9.39475684 14.2173913,9.51367781 C10.6956522,10.2272036 7.17391304,10.2272036 3.65217391,9.39475684 C2.86956522,9.15691489 2.08695652,8.80015198 1.30434783,8.56231003 C0.782608696,8.32446809 0.652173913,7.96770517 0.652173913,7.3731003 C0.652173913,6.42173252 0.652173913,5.47036474 0.652173913,4.40007599 Z" id="Path"></path>
                    <path d="M9.13043478,5.35144377 C6.7826087,5.2325228 4.43478261,5.11360182 2.34782609,4.28115502 C1.82608696,4.16223404 1.43478261,3.9243921 1.04347826,3.56762918 C0.391304348,3.09194529 0.52173913,2.6162614 1.04347826,2.14057751 C1.82608696,1.54597264 2.73913043,1.18920973 3.7826087,1.07028875 C7.56521739,0.356762918 11.2173913,0.237841945 15,1.18920973 C15.7826087,1.3081307 16.4347826,1.66489362 17.0869565,2.02165653 C18.1304348,2.6162614 18.1304348,3.32978723 17.0869565,3.80547112 C16.173913,4.28115502 15.1304348,4.63791793 14.0869565,4.75683891 C12.3913043,5.11360182 10.826087,5.2325228 9.13043478,5.35144377 Z" id="Path"></path>
                </g>
                <g id="Group" transform="translate(28.000000, 15.000000)" fill="#684FF1">
                    <path d="M0.260869565,9.15691489 C3,10.5839666 5.86956522,10.9407295 8.86956522,10.9407295 C11.8695652,10.9407295 14.7391304,10.5839666 17.3478261,9.15691489 C17.3478261,9.9893617 17.3478261,10.8218085 17.3478261,11.5353343 C17.3478261,13.081307 17.2173913,13.3191489 15.6521739,13.9137538 C14.2173913,14.3894377 12.7826087,14.6272796 11.3478261,14.7462006 C9.13043478,14.9840426 7.04347826,14.9840426 4.82608696,14.5083587 C3.65217391,14.2705167 2.47826087,13.9137538 1.30434783,13.5569909 C0.52173913,13.3191489 0.130434783,12.7245441 0.130434783,11.8920973 C0.391304348,11.0596505 0.260869565,10.1082827 0.260869565,9.15691489 Z" id="Path"></path>
                    <path d="M0.260869565,14.0326748 C6,16.2921733 11.6086957,16.1732523 17.3478261,14.0326748 C17.3478261,14.0326748 17.3478261,14.1515957 17.3478261,14.2705167 C17.3478261,15.1029635 17.3478261,15.9354103 17.3478261,16.8867781 C17.3478261,17.600304 17.0869565,17.9570669 16.4347826,18.3138298 C15.6521739,18.6705927 14.7391304,19.0273556 13.9565217,19.1462766 C10.173913,19.8598024 6.52173913,19.8598024 2.73913043,18.9084347 C2.08695652,18.7895137 1.56521739,18.4327508 1.04347826,18.1949088 C0.52173913,17.9570669 0.260869565,17.481383 0.260869565,16.8867781 C0.260869565,15.9354103 0.260869565,14.9840426 0.260869565,14.0326748 Z" id="Path"></path>
                    <path d="M0.260869565,4.40007599 C4.43478261,6.77849544 13.6956522,6.5406535 17.3478261,4.40007599 C17.3478261,4.87575988 17.3478261,5.35144377 17.3478261,5.70820669 C17.3478261,6.30281155 17.3478261,6.89741641 17.3478261,7.3731003 C17.3478261,7.96770517 17.0869565,8.32446809 16.6956522,8.56231003 C15.7826087,8.91907295 14.8695652,9.39475684 13.826087,9.51367781 C10.3043478,10.2272036 6.7826087,10.2272036 3.26086957,9.39475684 C2.47826087,9.15691489 1.69565217,8.80015198 0.913043478,8.56231003 C0.391304348,8.32446809 0.260869565,7.96770517 0.260869565,7.3731003 C0.260869565,6.42173252 0.260869565,5.47036474 0.260869565,4.40007599 Z" id="Path"></path>
                    <path d="M8.86956522,5.35144377 C6.52173913,5.2325228 4.17391304,5.11360182 2.08695652,4.28115502 C1.56521739,4.16223404 1.17391304,3.9243921 0.782608696,3.56762918 C0.130434783,3.09194529 0.260869565,2.6162614 0.782608696,2.14057751 C1.56521739,1.54597264 2.47826087,1.18920973 3.52173913,1.07028875 C7.30434783,0.356762918 10.9565217,0.237841945 14.7391304,1.18920973 C15.5217391,1.3081307 16.173913,1.66489362 16.826087,2.02165653 C17.8695652,2.6162614 17.8695652,3.32978723 16.826087,3.80547112 C15.9130435,4.28115502 14.8695652,4.63791793 13.826087,4.75683891 C12,5.11360182 10.4347826,5.2325228 8.86956522,5.35144377 Z" id="Path"></path>
                </g>
                <g id="Group" transform="translate(46.000000, 15.000000)" fill="#684FF1">
                    <path d="M0.130434783,9.15691489 C2.86956522,10.5839666 5.73913043,10.9407295 8.73913043,10.9407295 C11.7391304,10.9407295 14.6086957,10.5839666 17.2173913,9.15691489 C17.2173913,9.9893617 17.2173913,10.8218085 17.2173913,11.5353343 C17.2173913,13.081307 17.0869565,13.3191489 15.5217391,13.9137538 C14.0869565,14.3894377 12.6521739,14.6272796 11.2173913,14.7462006 C9,14.9840426 6.91304348,14.9840426 4.69565217,14.5083587 C3.52173913,14.2705167 2.34782609,13.9137538 1.17391304,13.5569909 C0.391304348,13.3191489 -2.84217094e-14,12.7245441 -2.84217094e-14,11.8920973 C0.260869565,11.0596505 0.130434783,10.1082827 0.130434783,9.15691489 Z" id="Path"></path>
                    <path d="M0.130434783,14.0326748 C5.86956522,16.2921733 11.4782609,16.1732523 17.2173913,14.0326748 C17.2173913,14.0326748 17.2173913,14.1515957 17.2173913,14.2705167 C17.2173913,15.1029635 17.2173913,15.9354103 17.2173913,16.8867781 C17.2173913,17.600304 16.9565217,17.9570669 16.3043478,18.3138298 C15.5217391,18.6705927 14.6086957,19.0273556 13.826087,19.1462766 C10.0434783,19.8598024 6.39130435,19.8598024 2.60869565,18.9084347 C1.95652174,18.7895137 1.43478261,18.4327508 0.913043478,18.1949088 C0.391304348,17.9570669 0.130434783,17.481383 0.130434783,16.8867781 C0.260869565,15.9354103 0.130434783,14.9840426 0.130434783,14.0326748 Z" id="Path"></path>
                    <path d="M0.130434783,4.40007599 C4.30434783,6.77849544 13.5652174,6.5406535 17.2173913,4.40007599 C17.2173913,4.87575988 17.2173913,5.35144377 17.2173913,5.70820669 C17.2173913,6.30281155 17.2173913,6.89741641 17.2173913,7.3731003 C17.2173913,7.96770517 16.9565217,8.32446809 16.5652174,8.56231003 C15.6521739,8.91907295 14.7391304,9.39475684 13.6956522,9.51367781 C10.173913,10.2272036 6.65217391,10.2272036 3.13043478,9.39475684 C2.34782609,9.15691489 1.56521739,8.80015198 0.782608696,8.56231003 C0.260869565,8.32446809 0.130434783,7.96770517 0.130434783,7.3731003 C0.260869565,6.42173252 0.130434783,5.47036474 0.130434783,4.40007599 Z" id="Path"></path>
                    <path d="M8.73913043,5.35144377 C6.39130435,5.2325228 4.04347826,5.11360182 1.95652174,4.28115502 C1.43478261,4.16223404 1.04347826,3.9243921 0.652173913,3.56762918 C8.32667268e-17,3.09194529 0.130434783,2.6162614 0.652173913,2.14057751 C1.43478261,1.54597264 2.34782609,1.18920973 3.39130435,1.07028875 C7.17391304,0.356762918 10.826087,0.237841945 14.6086957,1.18920973 C15.3913043,1.3081307 16.0434783,1.66489362 16.6956522,2.02165653 C17.7391304,2.6162614 17.7391304,3.32978723 16.6956522,3.80547112 C15.7826087,4.28115502 14.7391304,4.63791793 13.6956522,4.75683891 C12,5.11360182 10.3043478,5.2325228 8.73913043,5.35144377 Z" id="Path"></path>
                </g>
                <g id="Group-43">
                    <g id="Group" transform="translate(0.333333, 0.478723)">
                        <path d="M69.1666667,19.6457447 L3.33333333,19.6457447 C2,19.6457447 1,18.6468085 1,17.3148936 L1,3.16329787 C1,1.83138298 2,0.832446809 3.33333333,0.832446809 L69.1666667,0.832446809 C70.5,0.832446809 71.5,1.83138298 71.5,3.16329787 L71.5,17.3148936 C71.3333333,18.6468085 70.3333333,19.6457447 69.1666667,19.6457447 Z" id="Path" fill="#FFFFFF"></path>
                        <path d="M69.1666667,20.4781915 L3.33333333,20.4781915 C1.5,20.4781915 0.166666667,18.9797872 0.166666667,17.3148936 L0.166666667,3.16329787 C0.166666667,1.33191489 1.66666667,0 3.33333333,0 L69.1666667,0 C71,0 72.3333333,1.49840426 72.3333333,3.16329787 L72.3333333,17.3148936 C72.3333333,18.9797872 70.8333333,20.4781915 69.1666667,20.4781915 Z M3.33333333,1.66489362 C2.5,1.66489362 2,2.33085106 2,2.99680851 L2,17.1484043 C2,17.9808511 2.66666667,18.4803191 3.33333333,18.4803191 L69.1666667,18.4803191 C70,18.4803191 70.5,17.8143617 70.5,17.1484043 L70.5,2.99680851 C70.5,2.1643617 69.8333333,1.66489362 69.1666667,1.66489362 L3.33333333,1.66489362 Z" id="Shape" fill="#0A025D" fill-rule="nonzero"></path>
                    </g>
                    <path d="M29.1666667,14.2973404 L9.33333333,14.2973404 C8.5,14.2973404 7.83333333,13.631383 7.83333333,12.7989362 L7.83333333,8.47021277 C7.83333333,7.63776596 8.5,6.97180851 9.33333333,6.97180851 L29,6.97180851 C29.8333333,6.97180851 30.5,7.63776596 30.5,8.47021277 L30.5,12.7989362 C30.5,13.631383 29.8333333,14.2973404 29.1666667,14.2973404 Z" id="Path" fill="#684FF1"></path>
                    <path d="M65.1666667,7.63776596 C66.5,7.63776596 66.5,5.63989362 65.1666667,5.63989362 C64,5.63989362 64,7.63776596 65.1666667,7.63776596 Z" id="Path" fill="#684FF1"></path>
                    <path d="M65.1666667,11.4670213 C66.5,11.4670213 66.5,9.46914894 65.1666667,9.46914894 C64,9.46914894 64,11.4670213 65.1666667,11.4670213 Z" id="Path" fill="#684FF1"></path>
                    <path d="M65.1666667,15.2962766 C66.5,15.2962766 66.5,13.2984043 65.1666667,13.2984043 C64,13.2984043 64,15.2962766 65.1666667,15.2962766 Z" id="Path" fill="#F16E6E"></path>
                    <path d="M40.5,15.2962766 C40,15.2962766 39.6666667,14.9632979 39.6666667,14.4638298 L39.6666667,7.13829787 C39.6666667,6.63882979 40,6.30585106 40.5,6.30585106 C41,6.30585106 41.3333333,6.63882979 41.3333333,7.13829787 L41.3333333,14.4638298 C41.3333333,14.7968085 41,15.2962766 40.5,15.2962766 Z" id="Path" fill="#684FF1"></path>
                    <path d="M45,15.2962766 C44.5,15.2962766 44.1666667,14.9632979 44.1666667,14.4638298 L44.1666667,7.13829787 C44.1666667,6.63882979 44.5,6.30585106 45,6.30585106 C45.5,6.30585106 45.8333333,6.63882979 45.8333333,7.13829787 L45.8333333,14.4638298 C45.8333333,14.7968085 45.5,15.2962766 45,15.2962766 Z" id="Path" fill="#684FF1"></path>
                    <path d="M49.5,15.2962766 C49,15.2962766 48.6666667,14.9632979 48.6666667,14.4638298 L48.6666667,7.13829787 C48.6666667,6.63882979 49,6.30585106 49.5,6.30585106 C50,6.30585106 50.3333333,6.63882979 50.3333333,7.13829787 L50.3333333,14.4638298 C50.3333333,14.7968085 50,15.2962766 49.5,15.2962766 Z" id="Path" fill="#684FF1"></path>
                    <path d="M54,15.2962766 C53.5,15.2962766 53.1666667,14.9632979 53.1666667,14.4638298 L53.1666667,7.13829787 C53.1666667,6.63882979 53.5,6.30585106 54,6.30585106 C54.5,6.30585106 54.8333333,6.63882979 54.8333333,7.13829787 L54.8333333,14.4638298 C54.8333333,14.7968085 54.5,15.2962766 54,15.2962766 Z" id="Path" fill="#684FF1"></path>
                    <path d="M58.3333333,15.2962766 C57.8333333,15.2962766 57.5,14.9632979 57.5,14.4638298 L57.5,7.13829787 C57.5,6.63882979 57.8333333,6.30585106 58.3333333,6.30585106 C58.8333333,6.30585106 59.1666667,6.63882979 59.1666667,7.13829787 L59.1666667,14.4638298 C59.3333333,14.7968085 58.8333333,15.2962766 58.3333333,15.2962766 Z" id="Path" fill="#684FF1"></path>
                </g>
            </g>
            <g id="Group-21-Copy">
                <path d="M69,20 L96.5,20" id="Line-23" stroke="#684FF1" stroke-linecap="round" stroke-dasharray="4"></path>
                <path d="M96.6658935,20 L96.6658935,71.5" id="Line-24" stroke="#684FF1" stroke-linecap="round" stroke-dasharray="4"></path>
                <path d="M29,20 L1.13519709,20" id="Line-25" stroke="#684FF1" stroke-linecap="round" stroke-dasharray="3"></path>
                <path d="M1.13519709,20 L1.13519709,73.5" id="Line-26" stroke="#684FF1" stroke-linecap="round" stroke-dasharray="3"></path>
                <path d="M1.13519709,71.5 L13.3333333,71.5" id="Line-28" stroke="#684FF1" stroke-linecap="round" stroke-dasharray="3"></path>
                <path d="M83.8333333,71.5 L96.6658935,71.5" id="Line-29" stroke="#684FF1" stroke-linecap="round" stroke-dasharray="3"></path>
                <g id="Group-3" transform="translate(29.000000, 0.000000)">
                    <g id="Group-2">
                        <circle id="Oval" fill="#6876F4" cx="20" cy="20" r="18"></circle>
                        <circle id="Oval-Copy" stroke="#6876F4" cx="20" cy="20" r="20"></circle>
                        <g id="Group" transform="translate(10.000000, 13.000000)" fill="#FEFEFE" fill-rule="nonzero">
                            <g id="loading-mule" transform="translate(0.106936, 0.493204)">
                                <path d="M18.1537804,22.3600431 C18.8806345,21.9419115 18.6364184,22.1349558 18.7298792,21.2986384 C18.9167737,19.5737471 18.1849071,16.5686313 16.8246867,15.4186948 C16.6273896,15.251453 16.6170141,15.1051029 16.7312259,14.8751047 C17.3853973,13.5370347 18.0810977,12.2094106 18.6521839,10.829503 C19.5866836,8.6028321 20.261606,6.32390493 20.1473942,3.84634423 C20.064309,2.12146655 18.9325392,0.532490456 17.3542437,0.11433931 C16.2120714,-0.188821166 15.2671692,0.103880458 14.5507176,1.07608597 C14.2807379,1.44196944 14.0419117,1.82875543 13.8653927,2.24690603 C13.2839041,3.55364396 13.0035488,4.94399736 12.7128179,6.34479659 C12.2870972,8.42509021 12.1209807,10.5158839 12.1832879,12.6380151 C12.1936904,13.0979843 12.1832879,13.5683993 12.1832879,13.9970039 C11.4876143,13.9447476 10.7814844,13.8610996 10.0754084,13.8610996 C9.35895683,13.8610996 8.64253221,13.9551663 7.91567816,14.0074497 C7.91567816,13.9342747 7.90530261,13.8506266 7.91567816,13.7670057 C8.16487987,10.2754399 7.72875666,6.85704919 6.76310338,3.51183351 C6.50352611,2.61280036 6.15046116,1.74511825 5.54822143,1.0133513 C5.10172267,0.469753079 4.5825951,0.0829727923 3.87651908,0.0307037634 C1.8932755,-0.126103323 0.117680803,1.57785747 0.013846045,3.73133158 C-0.0484548422,5.19488718 0.0969340257,6.6166052 0.501890722,8.02787739 C1.19758311,10.4113442 2.18398209,12.6693797 3.3780887,14.8333214 C3.49230053,15.0423736 3.58576128,15.2200884 3.34696206,15.4186948 C1.98671469,16.5581855 1.56097241,18.0844161 1.66480871,19.8093073 C1.71672416,20.7083269 1.84132771,21.6073736 1.9763122,22.5063932 C1.98669583,22.4854744 9.90931883,27.0538017 18.1537804,22.3600431 Z" id="Shape"></path>
                            </g>
                        </g>
                    </g>
                </g>
            </g>
        </g>
    </g>
</svg>