<?xml version="1.0" encoding="UTF-8"?>
<svg width="75px" height="60px" viewBox="0 0 75 60" version="1.1" xmlns="http://www.w3.org/2000/svg" xmlns:xlink="http://www.w3.org/1999/xlink">
    <!-- Generator: Sketch 52.5 (67469) - http://www.bohemiancoding.com/sketch -->
    <title>HY - Ad - 01</title>
    <desc>Created with Sketch.</desc>
    <g id="HY---Ad---01" stroke="none" stroke-width="1" fill="none" fill-rule="evenodd">
        <g id="Group-41">
            <g id="Group" transform="translate(2.000000, 0.542553)" fill="#FFFFFF">
                <rect id="Rectangle" x="0.5" y="0.970212766" width="70.5" height="55.9212766"></rect>
            </g>
            <path d="M71.3333333,21.4723404 L4,21.4723404 C2.16666667,21.4723404 0.666666667,19.9739362 0.666666667,18.1425532 L0.666666667,3.65797872 C0.666666667,1.82659574 2.16666667,0.328191489 4,0.328191489 L71.3333333,0.328191489 C73.1666667,0.328191489 74.6666667,1.82659574 74.6666667,3.65797872 L74.6666667,18.1425532 C74.5,19.9739362 73.1666667,21.4723404 71.3333333,21.4723404 Z M4,2.15957447 C3.16666667,2.15957447 2.5,2.82553191 2.5,3.65797872 L2.5,18.1425532 C2.5,18.975 3.16666667,19.6409574 4,19.6409574 L71.3333333,19.6409574 C72.1666667,19.6409574 72.8333333,18.975 72.8333333,18.1425532 L72.8333333,3.65797872 C72.8333333,2.82553191 72.1666667,2.15957447 71.3333333,2.15957447 L4,2.15957447 Z" id="Shape" fill="#0A025D" fill-rule="nonzero"></path>
            <path d="M30.6666667,14.6462766 L9.16666667,14.6462766 C8.66666667,14.6462766 8.33333333,14.3132979 8.33333333,13.8138298 L8.33333333,7.98670213 C8.33333333,7.48723404 8.66666667,7.15425532 9.16666667,7.15425532 L30.6666667,7.15425532 C31.1666667,7.15425532 31.5,7.48723404 31.5,7.98670213 L31.5,13.8138298 C31.5,14.1468085 31.1666667,14.6462766 30.6666667,14.6462766 Z" id="Path" fill="#684FF1"></path>
            <path d="M67,7.82021277 C68.3333333,7.82021277 68.3333333,5.82234043 67,5.82234043 C65.6666667,5.82234043 65.6666667,7.82021277 67,7.82021277 Z" id="Path" fill="#684FF1"></path>
            <path d="M67,11.6494681 C68.3333333,11.6494681 68.3333333,9.65159574 67,9.65159574 C65.6666667,9.65159574 65.6666667,11.6494681 67,11.6494681 Z" id="Path" fill="#684FF1"></path>
            <path d="M67,15.6452128 C68.3333333,15.6452128 68.3333333,13.6473404 67,13.6473404 C65.6666667,13.4808511 65.6666667,15.6452128 67,15.6452128 Z" id="Path" fill="#684FF1"></path>
            <path d="M41.6666667,15.4787234 C41.1666667,15.4787234 40.8333333,15.1457447 40.8333333,14.6462766 L40.8333333,7.15425532 C40.8333333,6.65478723 41.1666667,6.32180851 41.6666667,6.32180851 C42.1666667,6.32180851 42.5,6.65478723 42.5,7.15425532 L42.5,14.6462766 C42.6666667,15.1457447 42.1666667,15.4787234 41.6666667,15.4787234 Z" id="Path" fill="#684FF1"></path>
            <path d="M46.3333333,15.4787234 C45.8333333,15.4787234 45.5,15.1457447 45.5,14.6462766 L45.5,7.15425532 C45.5,6.65478723 45.8333333,6.32180851 46.3333333,6.32180851 C46.8333333,6.32180851 47.1666667,6.65478723 47.1666667,7.15425532 L47.1666667,14.6462766 C47.1666667,15.1457447 46.8333333,15.4787234 46.3333333,15.4787234 Z" id="Path" fill="#684FF1"></path>
            <path d="M50.8333333,15.4787234 C50.3333333,15.4787234 50,15.1457447 50,14.6462766 L50,7.15425532 C50,6.65478723 50.3333333,6.32180851 50.8333333,6.32180851 C51.3333333,6.32180851 51.6666667,6.65478723 51.6666667,7.15425532 L51.6666667,14.6462766 C51.8333333,15.1457447 51.3333333,15.4787234 50.8333333,15.4787234 Z" id="Path" fill="#684FF1"></path>
            <path d="M55.5,15.4787234 C55,15.4787234 54.6666667,15.1457447 54.6666667,14.6462766 L54.6666667,7.15425532 C54.6666667,6.65478723 55,6.32180851 55.5,6.32180851 C56,6.32180851 56.3333333,6.65478723 56.3333333,7.15425532 L56.3333333,14.6462766 C56.3333333,15.1457447 56,15.4787234 55.5,15.4787234 Z" id="Path" fill="#684FF1"></path>
            <path d="M60,15.4787234 C59.5,15.4787234 59.1666667,15.1457447 59.1666667,14.6462766 L59.1666667,7.15425532 C59.1666667,6.65478723 59.5,6.32180851 60,6.32180851 C60.5,6.32180851 60.8333333,6.65478723 60.8333333,7.15425532 L60.8333333,14.6462766 C61,15.1457447 60.5,15.4787234 60,15.4787234 Z" id="Path" fill="#684FF1"></path>
            <path d="M71.3333333,40.618617 L4,40.618617 C2.16666667,40.618617 0.666666667,39.1202128 0.666666667,37.2888298 L0.666666667,22.8042553 C0.666666667,20.9728723 2.16666667,19.4744681 4,19.4744681 L71.3333333,19.4744681 C73.1666667,19.4744681 74.6666667,20.9728723 74.6666667,22.8042553 L74.6666667,37.2888298 C74.5,39.1202128 73.1666667,40.618617 71.3333333,40.618617 Z M4,21.4723404 C3.16666667,21.4723404 2.5,22.1382979 2.5,22.9707447 L2.5,37.4553191 C2.5,38.287766 3.16666667,38.9537234 4,38.9537234 L71.3333333,38.9537234 C72.1666667,38.9537234 72.8333333,38.287766 72.8333333,37.4553191 L72.8333333,22.9707447 C72.8333333,22.1382979 72.1666667,21.4723404 71.3333333,21.4723404 L4,21.4723404 Z" id="Shape" fill="#0A025D" fill-rule="nonzero"></path>
            <path d="M30.6666667,33.7925532 L9.16666667,33.7925532 C8.66666667,33.7925532 8.33333333,33.4595745 8.33333333,32.9601064 L8.33333333,27.1329787 C8.33333333,26.6335106 8.66666667,26.3005319 9.16666667,26.3005319 L30.6666667,26.3005319 C31.1666667,26.3005319 31.5,26.6335106 31.5,27.1329787 L31.5,32.9601064 C31.5,33.4595745 31.1666667,33.7925532 30.6666667,33.7925532 Z" id="Path" fill="#684FF1"></path>
            <path d="M67,27.1329787 C68.3333333,27.1329787 68.3333333,25.1351064 67,25.1351064 C65.6666667,24.968617 65.6666667,27.1329787 67,27.1329787 Z" id="Path" fill="#684FF1"></path>
            <path d="M67,30.962234 C68.3333333,30.962234 68.3333333,28.9643617 67,28.9643617 C65.6666667,28.7978723 65.6666667,30.962234 67,30.962234 Z" id="Path" fill="#684FF1"></path>
            <path d="M67,34.7914894 C68.3333333,34.7914894 68.3333333,32.793617 67,32.793617 C65.6666667,32.793617 65.6666667,34.7914894 67,34.7914894 Z" id="Path" fill="#684FF1"></path>
            <path d="M41.6666667,34.7914894 C41.1666667,34.7914894 40.8333333,34.4585106 40.8333333,33.9590426 L40.8333333,26.4670213 C40.8333333,25.9675532 41.1666667,25.6345745 41.6666667,25.6345745 C42.1666667,25.6345745 42.5,25.9675532 42.5,26.4670213 L42.5,33.9590426 C42.6666667,34.2920213 42.1666667,34.7914894 41.6666667,34.7914894 Z" id="Path" fill="#684FF1"></path>
            <path d="M46.3333333,34.7914894 C45.8333333,34.7914894 45.5,34.4585106 45.5,33.9590426 L45.5,26.4670213 C45.5,25.9675532 45.8333333,25.6345745 46.3333333,25.6345745 C46.8333333,25.6345745 47.1666667,25.9675532 47.1666667,26.4670213 L47.1666667,33.9590426 C47.1666667,34.2920213 46.8333333,34.7914894 46.3333333,34.7914894 Z" id="Path" fill="#684FF1"></path>
            <path d="M50.8333333,34.7914894 C50.3333333,34.7914894 50,34.4585106 50,33.9590426 L50,26.4670213 C50,25.9675532 50.3333333,25.6345745 50.8333333,25.6345745 C51.3333333,25.6345745 51.6666667,25.9675532 51.6666667,26.4670213 L51.6666667,33.9590426 C51.8333333,34.2920213 51.3333333,34.7914894 50.8333333,34.7914894 Z" id="Path" fill="#684FF1"></path>
            <path d="M55.5,34.7914894 C55,34.7914894 54.6666667,34.4585106 54.6666667,33.9590426 L54.6666667,26.4670213 C54.6666667,25.9675532 55,25.6345745 55.5,25.6345745 C56,25.6345745 56.3333333,25.9675532 56.3333333,26.4670213 L56.3333333,33.9590426 C56.3333333,34.2920213 56,34.7914894 55.5,34.7914894 Z" id="Path" fill="#684FF1"></path>
            <path d="M60,34.7914894 C59.5,34.7914894 59.1666667,34.4585106 59.1666667,33.9590426 L59.1666667,26.4670213 C59.1666667,25.9675532 59.5,25.6345745 60,25.6345745 C60.5,25.6345745 60.8333333,25.9675532 60.8333333,26.4670213 L60.8333333,33.9590426 C61,34.2920213 60.5,34.7914894 60,34.7914894 Z" id="Path" fill="#684FF1"></path>
            <path d="M71.3333333,59.7648936 L4,59.7648936 C2.16666667,59.7648936 0.666666667,58.2664894 0.666666667,56.4351064 L0.666666667,42.1170213 C0.666666667,40.2856383 2.16666667,38.787234 4,38.787234 L71.3333333,38.787234 C73.1666667,38.787234 74.6666667,40.2856383 74.6666667,42.1170213 L74.6666667,56.6015957 C74.5,58.4329787 73.1666667,59.7648936 71.3333333,59.7648936 Z M4,40.618617 C3.16666667,40.618617 2.5,41.2845745 2.5,42.1170213 L2.5,56.6015957 C2.5,57.4340426 3.16666667,58.1 4,58.1 L71.3333333,58.1 C72.1666667,58.1 72.8333333,57.4340426 72.8333333,56.6015957 L72.8333333,42.1170213 C72.8333333,41.2845745 72.1666667,40.618617 71.3333333,40.618617 L4,40.618617 Z" id="Shape" fill="#0A025D" fill-rule="nonzero"></path>
            <path d="M30.6666667,52.9388298 L9.16666667,52.9388298 C8.66666667,52.9388298 8.33333333,52.6058511 8.33333333,52.106383 L8.33333333,46.2792553 C8.33333333,45.7797872 8.66666667,45.4468085 9.16666667,45.4468085 L30.6666667,45.4468085 C31.1666667,45.4468085 31.5,45.7797872 31.5,46.2792553 L31.5,52.106383 C31.5,52.6058511 31.1666667,52.9388298 30.6666667,52.9388298 Z" id="Path" fill="#684FF1"></path>
            <path d="M67,46.2792553 C68.3333333,46.2792553 68.3333333,44.281383 67,44.281383 C65.6666667,44.281383 65.6666667,46.2792553 67,46.2792553 Z" id="Path" fill="#684FF1"></path>
            <path d="M67,50.1085106 C68.3333333,50.1085106 68.3333333,48.1106383 67,48.1106383 C65.6666667,48.1106383 65.6666667,50.1085106 67,50.1085106 Z" id="Path" fill="#684FF1"></path>
            <path d="M67,53.937766 C68.3333333,53.937766 68.3333333,51.9398936 67,51.9398936 C65.6666667,51.9398936 65.6666667,53.937766 67,53.937766 Z" id="Path" fill="#684FF1"></path>
            <path d="M41.6666667,53.937766 C41.1666667,53.937766 40.8333333,53.6047872 40.8333333,53.1053191 L40.8333333,45.6132979 C40.8333333,45.1138298 41.1666667,44.7808511 41.6666667,44.7808511 C42.1666667,44.7808511 42.5,45.1138298 42.5,45.6132979 L42.5,53.1053191 C42.6666667,53.6047872 42.1666667,53.937766 41.6666667,53.937766 Z" id="Path" fill="#684FF1"></path>
            <path d="M46.3333333,53.937766 C45.8333333,53.937766 45.5,53.6047872 45.5,53.1053191 L45.5,45.6132979 C45.5,45.1138298 45.8333333,44.7808511 46.3333333,44.7808511 C46.8333333,44.7808511 47.1666667,45.1138298 47.1666667,45.6132979 L47.1666667,53.1053191 C47.1666667,53.6047872 46.8333333,53.937766 46.3333333,53.937766 Z" id="Path" fill="#684FF1"></path>
            <path d="M50.8333333,53.937766 C50.3333333,53.937766 50,53.6047872 50,53.1053191 L50,45.6132979 C50,45.1138298 50.3333333,44.7808511 50.8333333,44.7808511 C51.3333333,44.7808511 51.6666667,45.1138298 51.6666667,45.6132979 L51.6666667,53.1053191 C51.8333333,53.6047872 51.3333333,53.937766 50.8333333,53.937766 Z" id="Path" fill="#684FF1"></path>
            <path d="M55.5,53.937766 C55,53.937766 54.6666667,53.6047872 54.6666667,53.1053191 L54.6666667,45.6132979 C54.6666667,45.1138298 55,44.7808511 55.5,44.7808511 C56,44.7808511 56.3333333,45.1138298 56.3333333,45.6132979 L56.3333333,53.1053191 C56.3333333,53.6047872 56,53.937766 55.5,53.937766 Z" id="Path" fill="#684FF1"></path>
            <path d="M60,53.937766 C59.5,53.937766 59.1666667,53.6047872 59.1666667,53.1053191 L59.1666667,45.6132979 C59.1666667,45.1138298 59.5,44.7808511 60,44.7808511 C60.5,44.7808511 60.8333333,45.1138298 60.8333333,45.6132979 L60.8333333,53.1053191 C61,53.6047872 60.5,53.937766 60,53.937766 Z" id="Path" fill="#684FF1"></path>
        </g>
    </g>
</svg>