<?xml version="1.0" encoding="UTF-8"?>
<svg width="143px" height="96px" viewBox="0 0 143 96" version="1.1" xmlns="http://www.w3.org/2000/svg" xmlns:xlink="http://www.w3.org/1999/xlink">
    <!-- Generator: Sketch 52.5 (67469) - http://www.bohemiancoding.com/sketch -->
    <title>HY - Ad - 03</title>
    <desc>Created with Sketch.</desc>
    <g id="HY---Ad---03" stroke="none" stroke-width="1" fill="none" fill-rule="evenodd">
        <g id="Group-42" transform="translate(1.000000, 2.000000)">
            <g id="Group-29-Copy" transform="translate(16.000000, 11.000000)" fill="#FEFEFE" stroke="#0A025D" stroke-width="2">
                <g id="Group-12">
                    <g id="Group-11-Copy-6" transform="translate(0.860743, 0.481905)">
                        <path d="M11.1392573,1.51809524 C5.6164098,1.51809524 1.13925729,5.99524774 1.13925729,11.5180952 L1.13925729,62.5180952 C1.13925729,67.488658 5.16869455,71.5180952 10.1392573,71.5180952 L88.1392573,71.5180952 C93.10982,71.5180952 97.1392573,67.488658 97.1392573,62.5180952 L97.1392573,10.5180952 C97.1392573,5.54753249 93.10982,1.51809524 88.1392573,1.51809524 L11.1392573,1.51809524 Z" id="Rectangle"></path>
                    </g>
                </g>
            </g>
            <g id="Group-19-Copy" transform="translate(115.000000, 82.000000)" fill="#0A025D">
                <g id="Group-18">
                    <g id="Group-13">
                        <path d="M26,5.5 C26,6.93898156 25.4116844,8.29426397 24.339868,9.31153058 C23.2342404,10.3642084 21.7871192,10.8889377 20.3366169,10.8889377 C18.8861146,10.8889377 17.4356123,10.3642084 16.3333658,9.31153058 L13.4966026,6.61706175 L13.1212978,6.26294996 L8.99294515,2.32587065 C8.10370948,1.47600234 6.91693488,1.00921861 5.65915667,1.00921861 C4.39799733,1.00921861 3.21460386,1.47600234 2.32536818,2.32587065 C0.486036607,4.07711443 0.486036607,6.92610477 2.32536818,8.67734855 C4.16469976,10.4285923 7.1569947,10.4285923 8.99632628,8.67734855 L11.8330895,5.97644132 L12.5025521,6.61384255 L9.66578887,9.31474978 C8.56016125,10.3674276 7.10965896,10.8921569 5.65915667,10.8921569 C4.20865438,10.8921569 2.75815209,10.3674276 1.65590559,9.31474978 C-0.55196853,7.2126134 -0.55196853,3.79060579 1.65590559,1.68846942 C2.72434084,0.671202809 4.14779414,0.107843137 5.65915667,0.107843137 C7.17390032,0.107843137 8.5939725,0.667983611 9.66578887,1.68846942 L12.499171,4.38615745 L13.66904,5.5 L13.7975227,5.62232953 L14.1694463,5.97644132 L17.0028284,8.67412935 C18.84216,10.4253731 21.834455,10.4253731 23.6737865,8.67412935 C24.5630222,7.82426105 25.0532852,6.6975417 25.0532852,5.5 C25.0532852,4.2992391 24.5630222,3.17251975 23.6737865,2.32587065 C22.7811697,1.47600234 21.5977763,1.00921861 20.339998,1.00921861 C19.0822198,1.00921861 17.8954452,1.47600234 17.0062096,2.32587065 L14.1694463,5.02355868 L13.4999837,4.38615745 L16.3333658,1.68846942 C17.4018011,0.671202809 18.8252544,0.107843137 20.3366169,0.107843137 C21.8479795,0.107843137 23.2714328,0.667983611 24.339868,1.68846942 C25.4116844,2.70573603 26,4.06101844 26,5.5 Z" id="Path"></path>
                        <polygon id="Path" points="12.5517241 5.93137255 10.7586207 5.98888889 12.5243253 7.65686275"></polygon>
                    </g>
                </g>
            </g>
            <g id="Group" transform="translate(32.000000, 34.000000)" fill="#684FF1">
                <path d="M0.833333333,12.8196809 C4.33333333,14.8175532 8,15.3170213 11.8333333,15.3170213 C15.6666667,15.3170213 19.3333333,14.8175532 22.6666667,12.8196809 C22.6666667,13.9851064 22.6666667,15.1505319 22.6666667,16.1494681 C22.6666667,18.3138298 22.5,18.6468085 20.5,19.4792553 C18.6666667,20.1452128 16.8333333,20.4781915 15,20.6446809 C12.1666667,20.9776596 9.5,20.9776596 6.66666667,20.3117021 C5.16666667,19.9787234 3.66666667,19.4792553 2.16666667,18.9797872 C1.16666667,18.6468085 0.666666667,17.8143617 0.666666667,16.6489362 C0.833333333,15.4835106 0.833333333,14.1515957 0.833333333,12.8196809 Z" id="Path"></path>
                <path d="M0.833333333,19.6457447 C8.16666667,22.8090426 15.3333333,22.6425532 22.6666667,19.6457447 C22.6666667,19.6457447 22.6666667,19.812234 22.6666667,19.9787234 C22.6666667,21.1441489 22.6666667,22.3095745 22.6666667,23.6414894 C22.6666667,24.6404255 22.3333333,25.1398936 21.5,25.6393617 C20.5,26.1388298 19.3333333,26.6382979 18.3333333,26.8047872 C13.5,27.8037234 8.83333333,27.8037234 4,26.4718085 C3.16666667,26.3053191 2.5,25.8058511 1.83333333,25.4728723 C1.16666667,25.1398936 0.833333333,24.4739362 0.833333333,23.6414894 C0.833333333,22.3095745 0.833333333,20.9776596 0.833333333,19.6457447 Z" id="Path"></path>
                <path d="M0.833333333,6.16010638 C6.16666667,9.48989362 18,9.15691489 22.6666667,6.16010638 C22.6666667,6.82606383 22.6666667,7.49202128 22.6666667,7.99148936 C22.6666667,8.82393617 22.6666667,9.65638298 22.6666667,10.3223404 C22.6666667,11.1547872 22.3333333,11.6542553 21.8333333,11.987234 C20.6666667,12.4867021 19.5,13.1526596 18.1666667,13.3191489 C13.6666667,14.3180851 9.16666667,14.3180851 4.66666667,13.1526596 C3.66666667,12.8196809 2.66666667,12.3202128 1.66666667,11.987234 C1,11.6542553 0.833333333,11.1547872 0.833333333,10.3223404 C0.833333333,8.99042553 0.833333333,7.65851064 0.833333333,6.16010638 Z" id="Path"></path>
                <path d="M11.6666667,7.49202128 C8.66666667,7.32553191 5.66666667,7.15904255 3,5.99361702 C2.33333333,5.82712766 1.83333333,5.49414894 1.33333333,4.99468085 C0.5,4.3287234 0.666666667,3.66276596 1.33333333,2.99680851 C2.33333333,2.1643617 3.5,1.66489362 4.83333333,1.49840426 C9.66666667,0.499468085 14.3333333,0.332978723 19.1666667,1.66489362 C20.1666667,1.83138298 21,2.33085106 21.8333333,2.83031915 C23.1666667,3.66276596 23.1666667,4.66170213 21.8333333,5.32765957 C20.6666667,5.99361702 19.3333333,6.49308511 18,6.65957447 C15.8333333,7.15904255 13.8333333,7.32553191 11.6666667,7.49202128 Z" id="Path"></path>
            </g>
            <g id="Group" transform="translate(56.000000, 34.000000)" fill="#684FF1">
                <path d="M0.333333333,12.8196809 C3.83333333,14.8175532 7.5,15.3170213 11.3333333,15.3170213 C15.1666667,15.3170213 18.8333333,14.8175532 22.1666667,12.8196809 C22.1666667,13.9851064 22.1666667,15.1505319 22.1666667,16.1494681 C22.1666667,18.3138298 22,18.6468085 20,19.4792553 C18.1666667,20.1452128 16.3333333,20.4781915 14.5,20.6446809 C11.6666667,20.9776596 9,20.9776596 6.16666667,20.3117021 C4.66666667,19.9787234 3.16666667,19.4792553 1.66666667,18.9797872 C0.666666667,18.6468085 0.166666667,17.8143617 0.166666667,16.6489362 C0.5,15.4835106 0.333333333,14.1515957 0.333333333,12.8196809 Z" id="Path"></path>
                <path d="M0.333333333,19.6457447 C7.66666667,22.8090426 14.8333333,22.6425532 22.1666667,19.6457447 C22.1666667,19.6457447 22.1666667,19.812234 22.1666667,19.9787234 C22.1666667,21.1441489 22.1666667,22.3095745 22.1666667,23.6414894 C22.1666667,24.6404255 21.8333333,25.1398936 21,25.6393617 C20,26.1388298 18.8333333,26.6382979 17.8333333,26.8047872 C13,27.8037234 8.33333333,27.8037234 3.5,26.4718085 C2.66666667,26.3053191 2,25.8058511 1.33333333,25.4728723 C0.666666667,25.1398936 0.333333333,24.4739362 0.333333333,23.6414894 C0.333333333,22.3095745 0.333333333,20.9776596 0.333333333,19.6457447 Z" id="Path"></path>
                <path d="M0.333333333,6.16010638 C5.66666667,9.48989362 17.5,9.15691489 22.1666667,6.16010638 C22.1666667,6.82606383 22.1666667,7.49202128 22.1666667,7.99148936 C22.1666667,8.82393617 22.1666667,9.65638298 22.1666667,10.3223404 C22.1666667,11.1547872 21.8333333,11.6542553 21.3333333,11.987234 C20.1666667,12.4867021 19,13.1526596 17.6666667,13.3191489 C13.1666667,14.3180851 8.66666667,14.3180851 4.16666667,13.1526596 C3.16666667,12.8196809 2.16666667,12.3202128 1.16666667,11.987234 C0.5,11.6542553 0.333333333,11.1547872 0.333333333,10.3223404 C0.333333333,8.99042553 0.333333333,7.65851064 0.333333333,6.16010638 Z" id="Path"></path>
                <path d="M11.3333333,7.49202128 C8.33333333,7.32553191 5.33333333,7.15904255 2.66666667,5.99361702 C2,5.82712766 1.5,5.49414894 1,4.99468085 C0.166666667,4.3287234 0.333333333,3.66276596 1,2.99680851 C2,2.1643617 3.16666667,1.66489362 4.5,1.49840426 C9.33333333,0.499468085 14,0.332978723 18.8333333,1.66489362 C19.8333333,1.83138298 20.6666667,2.33085106 21.5,2.83031915 C22.8333333,3.66276596 22.8333333,4.66170213 21.5,5.32765957 C20.3333333,5.99361702 19,6.49308511 17.6666667,6.65957447 C15.3333333,7.15904255 13.3333333,7.32553191 11.3333333,7.49202128 Z" id="Path"></path>
            </g>
            <g id="Group" transform="translate(80.000000, 34.000000)" fill="#684FF1">
                <path d="M0.166666667,12.8196809 C3.66666667,14.8175532 7.33333333,15.3170213 11.1666667,15.3170213 C15,15.3170213 18.6666667,14.8175532 22,12.8196809 C22,13.9851064 22,15.1505319 22,16.1494681 C22,18.3138298 21.8333333,18.6468085 19.8333333,19.4792553 C18,20.1452128 16.1666667,20.4781915 14.3333333,20.6446809 C11.5,20.9776596 8.83333333,20.9776596 6,20.3117021 C4.5,19.9787234 3,19.4792553 1.5,18.9797872 C0.5,18.6468085 -2.84217094e-14,17.8143617 -2.84217094e-14,16.6489362 C0.333333333,15.4835106 0.166666667,14.1515957 0.166666667,12.8196809 Z" id="Path"></path>
                <path d="M0.166666667,19.6457447 C7.5,22.8090426 14.6666667,22.6425532 22,19.6457447 C22,19.6457447 22,19.812234 22,19.9787234 C22,21.1441489 22,22.3095745 22,23.6414894 C22,24.6404255 21.6666667,25.1398936 20.8333333,25.6393617 C19.8333333,26.1388298 18.6666667,26.6382979 17.6666667,26.8047872 C12.8333333,27.8037234 8.16666667,27.8037234 3.33333333,26.4718085 C2.5,26.3053191 1.83333333,25.8058511 1.16666667,25.4728723 C0.5,25.1398936 0.166666667,24.4739362 0.166666667,23.6414894 C0.333333333,22.3095745 0.166666667,20.9776596 0.166666667,19.6457447 Z" id="Path"></path>
                <path d="M0.166666667,6.16010638 C5.5,9.48989362 17.3333333,9.15691489 22,6.16010638 C22,6.82606383 22,7.49202128 22,7.99148936 C22,8.82393617 22,9.65638298 22,10.3223404 C22,11.1547872 21.6666667,11.6542553 21.1666667,11.987234 C20,12.4867021 18.8333333,13.1526596 17.5,13.3191489 C13,14.3180851 8.5,14.3180851 4,13.1526596 C3,12.8196809 2,12.3202128 1,11.987234 C0.333333333,11.6542553 0.166666667,11.1547872 0.166666667,10.3223404 C0.333333333,8.99042553 0.166666667,7.65851064 0.166666667,6.16010638 Z" id="Path"></path>
                <path d="M11.1666667,7.49202128 C8.16666667,7.32553191 5.16666667,7.15904255 2.5,5.99361702 C1.83333333,5.82712766 1.33333333,5.49414894 0.833333333,4.99468085 C0,4.3287234 0.166666667,3.66276596 0.833333333,2.99680851 C1.83333333,2.1643617 3,1.66489362 4.33333333,1.49840426 C9.16666667,0.499468085 13.8333333,0.332978723 18.6666667,1.66489362 C19.6666667,1.83138298 20.5,2.33085106 21.3333333,2.83031915 C22.6666667,3.66276596 22.6666667,4.66170213 21.3333333,5.32765957 C20.1666667,5.99361702 18.8333333,6.49308511 17.5,6.65957447 C15.3333333,7.15904255 13.1666667,7.32553191 11.1666667,7.49202128 Z" id="Path"></path>
            </g>
            <path d="M9.5,0.166666667 L9.5,18.5" id="Line-9" stroke="#684FF1" stroke-width="2" stroke-linecap="round"></path>
            <path d="M0.5,9.33333333 L18.5,9.33333333" id="Line-10" stroke="#684FF1" stroke-width="2" stroke-linecap="round"></path>
        </g>
    </g>
</svg>