<?xml version="1.0" encoding="UTF-8"?>
<svg width="107px" height="86px" viewBox="0 0 107 86" version="1.1" xmlns="http://www.w3.org/2000/svg" xmlns:xlink="http://www.w3.org/1999/xlink">
    <!-- Generator: Sketch 52.5 (67469) - http://www.bohemiancoding.com/sketch -->
    <title>MC - Ad -03</title>
    <desc>Created with Sketch.</desc>
    <g id="MC---Ad--03" stroke="none" stroke-width="1" fill="none" fill-rule="evenodd">
        <g id="Group-28" transform="translate(1.000000, 1.000000)">
            <path d="M11,13.5 C5.75329488,13.5 1.5,17.7532949 1.5,23 L1.5,74 C1.5,78.6944204 5.30557963,82.5 10,82.5 L88,82.5 C92.6944204,82.5 96.5,78.6944204 96.5,74 L96.5,22 C96.5,17.3055796 92.6944204,13.5 88,13.5 L11,13.5 Z" id="Rectangle" stroke="#0A025D" stroke-width="3" fill="#FEFEFE"></path>
            <path d="M18.5,27 L74.0535189,27" id="Line" stroke="#684FF1" stroke-width="2" stroke-linecap="round"></path>
            <path d="M18.5,34 L65.5,34" id="Line-Copy-2" stroke="#684FF1" stroke-width="2" stroke-linecap="round"></path>
            <path d="M32.5,61 L79.5,61" id="Line-Copy-5" stroke="#684FF1" stroke-width="2" stroke-linecap="round"></path>
            <path d="M18.5,41 L59.5,41" id="Line-Copy-3" stroke="#684FF1" stroke-width="2" stroke-linecap="round"></path>
            <path d="M18.5,48 L55.5,48" id="Line-Copy-4" stroke="#684FF1" stroke-width="2" stroke-linecap="round"></path>
            <path d="M42.5,69 L79.5,69" id="Line-Copy-6" stroke="#684FF1" stroke-width="2" stroke-linecap="round"></path>
            <g id="Group-30" transform="translate(0.000000, 12.000000)"></g>
            <g id="Group-12" transform="translate(74.000000, 0.000000)">
                <circle id="Oval" stroke="#684FF1" fill="#FEFEFE" cx="15.5" cy="15.5" r="15.5"></circle>
                <g id="Bell" transform="translate(8.000000, 7.000000)" fill="#684FF1" fill-rule="nonzero">
                    <path d="M7.93383948,15.3154378 C8.04772234,15.4651767 8.10845987,15.682298 8.10845987,15.8994194 C8.10845987,16.5133487 7.60737527,17 6.98481562,17 C6.36225597,17 5.86117137,16.5058618 5.86117137,15.8919324 C5.86117137,15.6748111 5.92190889,15.4576897 6.03579176,15.3079509 L7.93383948,15.3079509 L7.93383948,15.3154378 Z M14,13.3239109 L14,14.8138126 C14,14.9710384 13.8329718,15.0908295 13.681128,15.0908295 L0.280911063,15.0908295 C0.121475054,15.0908295 0,14.9635515 0,14.8138126 C0,14.4244916 0,13.7282059 0,13.2789893 C0,13.0169463 0.113882863,12.7623902 0.311279826,12.5827036 C0.751626898,12.1784086 1.54121475,11.3773057 1.79175705,10.5237942 C2.15618221,9.29593552 2.39913232,8.20284182 2.46746204,6.06157609 C2.59652928,1.77155768 5.90672451,1.34480192 5.90672451,1.34480192 C5.88394794,1.01537642 5.92190889,0.745846467 6.09652928,0.461342628 C6.12689805,0.41642097 6.15726681,0.364012368 6.19522777,0.326577652 C6.40780911,0.0795085288 6.7494577,-0.0402825612 7.07592191,0.0121260407 C7.35683297,0.0645346426 7.5845987,0.221760448 7.72885033,0.461342628 C7.91106291,0.745846467 7.94902386,1.01537642 7.9186551,1.34480192 C7.9186551,1.34480192 8.51084599,1.41967135 9.20932755,1.83894016 C9.18655098,1.95124431 9.17895879,2.06354846 9.17895879,2.18333955 C9.17895879,3.23899853 10.0065076,4.10748393 11.0542299,4.19732725 C11.2288503,4.72141327 11.3427332,5.34282955 11.3655098,6.06906303 C11.4262473,8.21781571 11.6843818,9.30342246 12.0488069,10.5312811 C12.3069414,11.4072535 13.1572668,12.2233303 13.6355748,12.6126513 C13.8557484,12.7773641 14,13.046894 14,13.3239109 Z M7.52386117,0.910559216 C7.50867679,0.618568434 7.30368764,0.334064595 6.9164859,0.334064595 C6.90889371,0.334064595 6.90130152,0.334064595 6.90130152,0.334064595 C6.89370933,0.334064595 6.88611714,0.334064595 6.88611714,0.334064595 C6.4989154,0.334064595 6.29392625,0.618568434 6.27874187,0.910559216 C6.27114967,1.00788948 6.28633406,1.11270668 6.32429501,1.20255 C6.45336226,1.18757611 6.59002169,1.18008917 6.72668113,1.18008917 C6.75704989,1.18008917 6.79501085,1.18008917 6.8329718,1.18008917 C6.85574837,1.18008917 6.87852495,1.18008917 6.90130152,1.18008917 C6.92407809,1.18008917 6.94685466,1.18008917 6.96963124,1.18008917 C7.00759219,1.18008917 7.03796095,1.18008917 7.07592191,1.18008917 C7.21258134,1.18757611 7.34924078,1.19506306 7.47830803,1.20255 C7.51626898,1.11270668 7.53145336,1.00788948 7.52386117,0.910559216 Z M13.2711497,2.04108763 C13.2711497,3.07428578 12.4208243,3.90533647 11.3806941,3.90533647 C10.3329718,3.90533647 9.49023861,3.06679884 9.49023861,2.04108763 C9.49023861,1.00788948 10.340564,0.17683879 11.3806941,0.17683879 C12.4208243,0.17683879 13.2711497,1.00788948 13.2711497,2.04108763 Z M11.494577,3.04433801 C11.494577,2.93203386 11.4186551,2.84219054 11.3047722,2.84219054 C11.1908894,2.84219054 11.1149675,2.93203386 11.1149675,3.04433801 L11.1149675,3.11920744 C11.1149675,3.23151159 11.1984816,3.3213549 11.3047722,3.3213549 C11.4186551,3.3213549 11.494577,3.23151159 11.494577,3.11920744 L11.494577,3.04433801 Z M11.494577,0.970454761 C11.494577,0.858150614 11.4186551,0.768307297 11.3047722,0.768307297 C11.1908894,0.768307297 11.1149675,0.858150614 11.1149675,0.970454761 L11.1149675,2.43789561 C11.1149675,2.55019976 11.1984816,2.64004308 11.3047722,2.64004308 C11.4186551,2.64004308 11.494577,2.55019976 11.494577,2.43789561 L11.494577,0.970454761 Z" id="Shape"></path>
                </g>
            </g>
            <circle id="Oval" fill="#684FF1" cx="10" cy="27" r="4"></circle>
            <circle id="Oval-Copy-2" fill="#684FF1" cx="87" cy="61" r="4"></circle>
        </g>
    </g>
</svg>