<?xml version="1.0" encoding="UTF-8"?>
<svg width="112px" height="73px" viewBox="0 0 112 73" version="1.1" xmlns="http://www.w3.org/2000/svg" xmlns:xlink="http://www.w3.org/1999/xlink">
    <!-- Generator: Sketch 52.5 (67469) - http://www.bohemiancoding.com/sketch -->
    <title>MC - Ad -04</title>
    <desc>Created with Sketch.</desc>
    <g id="MC---Ad--04" stroke="none" stroke-width="1" fill="none" fill-rule="evenodd">
        <g id="Group-3" transform="translate(2.000000, 2.000000)">
            <g id="Group-13" transform="translate(32.500000, 17.000000)">
                <g id="Group-9">
                    <g id="Group-2">
                        <path d="M7.7,40.9722222 L69.65,40.9722222" id="Line-Copy" stroke="#684FF1" stroke-width="2" stroke-linecap="round"></path>
                        <rect id="Rectangle" stroke="#0A025D" stroke-width="3" x="1.5" y="1.5" width="74" height="47" rx="10"></rect>
                    </g>
                </g>
                <polyline id="Path-14" stroke="#684FF1" stroke-width="2" stroke-linecap="round" points="8 41 19.8611419 28.8236706 31.8632281 30.6666667 46.8628764 18.1558446 51.3738318 19.8501817 69 10"></polyline>
            </g>
            <g id="Group-19" stroke="#0A025D" stroke-linecap="round" stroke-width="3">
                <path d="M53.5730681,31.9545455 C57.1537873,31.9545455 60,29.0909091 60,25.5909091 C60,23.8636364 59.3114002,22.2727273 58.1637337,21.1363636 C58.5768936,20.0909091 58.8064269,19 58.8064269,17.8181818 C58.8064269,12.7727273 54.6748279,8.68181818 49.579189,8.68181818 C48.7069625,8.68181818 47.8806427,8.81818182 47.1002295,9 C47.1002295,9 47.1002295,9 47.1002295,8.95454545 C47.1002295,5.40909091 44.2081102,2.59090909 40.6732976,2.59090909 C38.9747513,2.59090909 37.413925,3.22727273 36.2662586,4.31818182 C33.6495792,1.63636364 29.9770467,0 25.9372609,0 C18.4544759,0 12.3029839,5.63636364 11.6143841,12.9090909 C11.0175976,12.7727273 10.3749044,12.7272727 9.73221117,12.7272727 C4.36113236,12.7272727 0,17.0454545 0,22.3636364 C0,27.6818182 4.36113236,32 9.73221117,32" id="Path" fill="#FEFEFE"></path>
                <path d="M9.5,32 L53.5,32" id="Path"></path>
            </g>
            <g id="Group-19-Copy" transform="translate(6.000000, 44.000000)" stroke="#0A025D" stroke-linecap="round" stroke-width="2">
                <g id="Group-20">
                    <path d="M42.8584545,24.9644886 C45.7230298,24.9644886 48,22.7272727 48,19.9928977 C48,18.6434659 47.4491201,17.4005682 46.530987,16.5127841 C46.8615149,15.6960227 47.0451415,14.84375 47.0451415,13.9204545 C47.0451415,9.97869318 43.7398623,6.78267045 39.6633512,6.78267045 C38.96557,6.78267045 38.3045142,6.88920455 37.6801836,7.03125 C37.6801836,7.03125 37.6801836,7.03125 37.6801836,6.99573864 C37.6801836,4.22585227 35.3664881,2.02414773 32.5386381,2.02414773 C31.1798011,2.02414773 29.93114,2.52130682 29.0130069,3.37357955 C26.9196634,1.27840909 23.9816373,0 20.7498087,0 C14.7635807,0 9.84238715,4.40340909 9.29150727,10.0852273 C8.81407804,9.97869318 8.29992349,9.94318182 7.78576894,9.94318182 C3.48890589,9.94318182 0,13.3167614 0,17.4715909 C0,21.6264205 3.48890589,25 7.78576894,25" id="Path" fill="#FEFEFE"></path>
                    <path d="M7,25 L43,25" id="Path"></path>
                </g>
            </g>
            <g id="Group-32" transform="translate(29.000000, 13.500000) rotate(5.000000) translate(-29.000000, -13.500000) translate(22.000000, 10.000000)" stroke="#684FF1">
                <path d="M0.556140351,6.05344443 C4.00409357,1.98218519 8.39239766,0.964370379 13.7210526,3" id="Path-3"></path>
                <polyline id="Path-5" points="12.0786477 3.12638804e-13 13.7922947 3.5 11 5.68014799"></polyline>
            </g>
            <g id="Group-32-Copy" transform="translate(30.173583, 23.861555) rotate(-169.000000) translate(-30.173583, -23.861555) translate(23.173583, 20.361555)" stroke="#684FF1">
                <path d="M0.556140351,6.05344443 C4.00409357,1.98218519 8.39239766,0.964370379 13.7210526,3" id="Path-3"></path>
                <polyline id="Path-5" points="12.0786477 3.12638804e-13 13.7922947 3.5 11 5.68014799"></polyline>
            </g>
            <path d="" id="Path-4" stroke="#979797"></path>
        </g>
    </g>
</svg>