<?xml version="1.0" encoding="UTF-8"?>
<svg width="105px" height="109px" viewBox="0 0 105 109" version="1.1" xmlns="http://www.w3.org/2000/svg" xmlns:xlink="http://www.w3.org/1999/xlink">
    <!-- Generator: Sketch 52.5 (67469) - http://www.bohemiancoding.com/sketch -->
    <title>MC - Ad -02</title>
    <desc>Created with Sketch.</desc>
    <g id="MC---Ad--02" stroke="none" stroke-width="1" fill="none" fill-rule="evenodd">
        <g id="MDAP-Benefits-Icons-04-Copy" transform="translate(2.000000, 1.000000)">
            <g id="Group" transform="translate(36.000000, 14.000000)">
                <g id="Path">
                    <path d="M29.9302326,2.9804878 L29.9302326,10.2406504" stroke="#684FF1" stroke-width="5" stroke-linecap="round"></path>
                    <path d="M23.7139535,2.9804878 L23.7139535,10.2406504" stroke="#684FF1" stroke-width="5" stroke-linecap="round"></path>
                    <path d="M17.2674419,2.9804878 L17.2674419,10.2406504" stroke="#684FF1" stroke-width="5" stroke-linecap="round"></path>
                    <path d="M29.1627907,28.3528455 L29.1627907,25.4487805 C29.1627907,25.4487805 29.2395349,22.9268293 30.8511628,21.8569106 C30.8511628,21.8569106 32.3860465,20.7869919 32.3093023,19.0292683 L32.3093023,12.9918699 C32.3093023,12.9918699 29.9302326,15.4373984 26.6302326,12.3804878 C26.6302326,12.3804878 24.2511628,15.4373984 20.4139535,12.6861789 C20.4139535,12.6861789 17.1139535,15.5902439 14.044186,12.6097561 C14.044186,12.6097561 9.20930233,15.2845528 6.98372093,10.9284553 L5.90930233,10.9284553 C5.83255814,10.9284553 5.75581395,11.004878 5.75581395,11.0813008 L5.75581395,14.6731707 C5.75581395,14.902439 5.60232558,15.1317073 5.37209302,15.2081301 C5.14186047,15.2845528 4.83488372,15.3609756 4.52790698,15.2081301 C4.29767442,15.1317073 4.14418605,14.902439 4.14418605,14.6731707 L4.14418605,10.699187 C3.22325581,10.699187 2.99302326,9.4 3.8372093,9.09430894 C3.8372093,9.09430894 3.8372093,9.09430894 3.91395349,9.09430894 L5.44883721,9.09430894 C6.21627907,9.09430894 6.98372093,8.94146341 7.6744186,8.48292683 C8.67209302,7.87154472 9.66976744,6.80162602 9.51627907,4.58536585 L1.45813953,4.58536585 C0.920930233,4.58536585 0.460465116,5.04390244 0.460465116,5.57886179 L0.460465116,16.8130081 C0.460465116,16.8130081 0.460465116,19.6406504 2.99302326,21.704065 C3.3,21.9333333 3.53023256,22.0861789 3.8372093,22.3154472 C4.52790698,22.7739837 6.52325581,24.2260163 6.21627907,26.9772358 C6.21627907,27.3593496 6.21627907,27.9707317 6.21627907,28.3528455 L6.21627907,93.3886179 L29.9302326,93.3886179 L29.1627907,28.3528455 Z" fill="#684FF1"></path>
                    <path d="M8.44186047,2.9804878 C8.44186047,2.9804878 12.6627907,3.2097561 10.8209302,7.64227642 C10.8209302,7.64227642 10.4372093,8.86504065 8.21162791,10.2406504 C8.21162791,10.2406504 8.97906977,11.8455285 10.8976744,12.0747967 C11.5883721,12.1512195 12.2790698,11.998374 12.7395349,11.4634146 C12.8930233,11.3105691 12.9697674,11.1577236 12.9697674,10.9284553 C12.9697674,10.2406504 12.9697674,10.5463415 12.9697674,10.2406504 L12.9697674,3.13333333 C12.9697674,2.21626016 12.4325581,1.29918699 11.5883721,0.840650407 C11.0511628,0.611382114 10.3604651,0.458536585 9.51627907,0.840650407 C9.59302326,0.917073171 8.36511628,1.60487805 8.44186047,2.9804878 Z" fill="#684FF1"></path>
                </g>
                <path d="M24.8651163,19.4878049 L24.8651163,27.2829268" id="Path" stroke="#FEFEFE" stroke-width="3" stroke-linecap="round"></path>
                <rect id="Rectangle" fill="#FEFEFE" x="9.74651163" y="19.1056911" width="1.84186047" height="1.83414634"></rect>
                <rect id="Rectangle" fill="#FEFEFE" x="9.74651163" y="22.3154472" width="1.84186047" height="1.83414634"></rect>
                <rect id="Rectangle" fill="#FEFEFE" x="9.74651163" y="25.4487805" width="1.84186047" height="1.83414634"></rect>
            </g>
            <path d="M90.1813313,99.9232955 C96.2088753,99.9232955 101,95.0909091 101,89.1846591 C101,86.2698864 99.8408569,83.5852273 97.9089518,81.6676136 C98.6044376,79.9034091 98.9908187,78.0625 98.9908187,76.0681818 C98.9908187,67.5539773 92.0359602,60.6505682 83.4583015,60.6505682 C81.9900536,60.6505682 80.5990819,60.8806818 79.2853864,61.1875 C79.2853864,61.1875 79.2853864,61.1875 79.2853864,61.1107955 C79.2853864,55.1278409 74.4169855,50.3721591 68.4667177,50.3721591 C65.6074981,50.3721591 62.9801071,51.4460227 61.048202,53.2869318 C56.6434583,48.7613636 50.4613619,46 43.6610559,46 C31.0650344,46 20.710023,55.5113636 19.5508799,67.7840909 C18.5462892,67.5539773 17.4644223,67.4772727 16.3825555,67.4772727 C7.34123948,67.4772727 0,74.7642045 0,83.7386364 C0,92.7130682 7.34123948,100 16.3825555,100" id="Path" stroke="#0A025D" stroke-width="3" fill="#FEFEFE" stroke-linecap="round"></path>
            <path d="M53.3724138,88 L51.6275862,88 C49.0482759,88 47,85.84 47,83.12 L47,80.88 C47,78.16 49.0482759,76 51.6275862,76 L53.3724138,76 C55.9517241,76 58,78.16 58,80.88 L58,83.12 C58,85.84 55.9517241,88 53.3724138,88 Z" id="Path" stroke="#0A025D" stroke-width="2"></path>
            <path d="M25,11 L32,17" id="Path" stroke="#684FF1" stroke-linecap="round" stroke-dasharray="3"></path>
            <path d="M38,2 L42,10" id="Path" stroke="#684FF1" stroke-linecap="round" stroke-dasharray="3"></path>
            <path d="M53.75,0 L53.25,9" id="Path" stroke="#684FF1" stroke-linecap="round" stroke-dasharray="3"></path>
            <path d="M69,2 L65,10" id="Path" stroke="#684FF1" stroke-linecap="round" stroke-dasharray="3"></path>
            <path d="M82,11 L75,17" id="Path" stroke="#684FF1" stroke-linecap="round" stroke-dasharray="3"></path>
            <path d="M15.5,100 L90.5,100" id="Path" stroke="#0A025D" stroke-width="3" stroke-linecap="round"></path>
            <rect id="Rectangle" fill="#0A025D" x="45" y="83" width="15" height="11"></rect>
            <circle id="Oval" fill="#FEFEFE" cx="52.5" cy="87.5" r="2.5"></circle>
            <path d="M52.7777778,93 L52.2222222,93 C52.1111111,93 52,92.8297872 52,92.6595745 L52,89.3404255 C52,89.1702128 52.1111111,89 52.2222222,89 L52.7777778,89 C52.8888889,89 53,89.1702128 53,89.3404255 L53,92.6595745 C53,92.8297872 52.8888889,93 52.7777778,93 Z" id="Path" fill="#FEFEFE"></path>
        </g>
    </g>
</svg>