<?xml version="1.0" encoding="UTF-8"?>
<svg width="107px" height="115px" viewBox="0 0 107 115" version="1.1" xmlns="http://www.w3.org/2000/svg" xmlns:xlink="http://www.w3.org/1999/xlink">
    <!-- Generator: Sketch 52.5 (67469) - http://www.bohemiancoding.com/sketch -->
    <title>CI - Sol</title>
    <desc>Created with Sketch.</desc>
    <g id="CI---Sol" stroke="none" stroke-width="1" fill="none" fill-rule="evenodd">
        <g id="Group-10" transform="translate(2.000000, 2.000000)">
            <path d="M86.207619,81.0847574 C87.2502051,80.6375731 88.5381057,79.807088 89.2127203,78.2100012 C89.3353775,77.8905838 89.7646777,77.9544673 89.8260063,78.2738847 C90.1326493,79.3599037 90.9299211,80.6375731 92.769779,81.2125244 C93.076422,81.3402913 93.1377506,81.7874756 92.8311076,81.9152426 C91.84985,82.2985434 90.6232781,83.1290285 89.8873349,84.7899988 C89.7646777,85.1094162 89.3353775,85.0455327 89.2740489,84.7261153 C88.9674059,83.7039798 88.1088055,82.3624269 86.207619,81.7874756 C85.9623046,81.6597087 85.900976,81.2125244 86.207619,81.0847574 Z" id="Path" fill="#684FF1"></path>
            <path d="M6.22925324,15.0847574 C7.26853462,14.6375731 8.55235278,13.807088 9.22482896,12.2100012 C9.34709736,11.8905838 9.77503675,11.9544673 9.83617094,12.2738847 C10.1418419,13.3599037 10.9365865,14.6375731 12.7706125,15.2125244 C13.0762835,15.3402913 13.1374177,15.7874756 12.8317467,15.9152426 C11.8535995,16.2985434 10.6309155,17.1290285 9.89730514,18.7899988 C9.77503675,19.1094162 9.34709736,19.0455327 9.28596316,18.7261153 C8.98029217,17.7039798 8.12441339,16.3624269 6.22925324,15.7874756 C5.92358225,15.6597087 5.92358225,15.2125244 6.22925324,15.0847574 Z" id="Path" stroke="#ABABFC"></path>
            <path d="M94.1826678,78.2106182 C95.0461883,77.9238705 96.1754074,77.2930255 96.7732293,76.1460347 C96.9060786,75.9166366 97.2382019,75.9739861 97.3046266,76.2033843 C97.5703252,76.9489283 98.2345717,77.866521 99.8287634,78.3253173 C100.094462,78.3826668 100.094462,78.7267641 99.8287634,78.7841136 C98.9652429,79.0708613 97.9024484,79.6443567 97.3046266,80.848697 C97.1717772,81.0780952 96.839654,81.0207457 96.7732293,80.848697 C96.5075307,80.103153 95.7768595,79.1855604 94.1162431,78.7267641 C93.9833938,78.612065 93.9169692,78.2679677 94.1826678,78.2106182 Z" id="Path" stroke="#684FF1"></path>
            <g id="Solution">
                <path d="M66.904672,90 L34.095328,90 C32.9428976,90 32,88.9893048 32,87.7540107 L32,85.2459893 C32,84.0106952 32.9428976,83 34.095328,83 L66.904672,83 C68.0571024,83 69,84.0106952 69,85.2459893 L69,87.7540107 C69,88.9893048 68.0571024,90 66.904672,90 Z" id="Path" stroke="#0A025D" stroke-width="3" fill="#FEFEFE"></path>
                <path d="M66.904672,98 L34.095328,98 C32.9428976,98 32,96.9893048 32,95.7540107 L32,93.2459893 C32,92.0106952 32.9428976,91 34.095328,91 L66.904672,91 C68.0571024,91 69,92.0106952 69,93.2459893 L69,95.7540107 C69,96.9893048 68.0571024,98 66.904672,98 Z" id="Path" stroke="#0A025D" stroke-width="3" fill="#FEFEFE"></path>
                <path d="M36,100 L65,100 C65,100 63.9390244,104.781047 58.2097561,107.928282 C53.3292683,110.593974 47.370122,110.731558 42.4896341,108.083064 C39.7310976,106.604036 37.0963415,104.127522 36,100 Z" id="Path" stroke="#0A025D" stroke-width="3" fill="#FEFEFE"></path>
                <path d="M47.4454443,81 L43,62.2716763 C43,62.2716763 43.1979753,59.9306358 46.4375703,64.0231214 C46.4375703,64.0231214 48.4533183,66.3641618 49.1732283,63.9190751 L50.0911136,61.5953757 C50.0911136,61.5953757 51.2969629,58.0057803 52.6287964,61.5953757 L53.4386952,63.9190751 C53.4386952,63.9190751 53.9426322,66.3641618 55.8683915,64.1098266 C55.8683915,64.1098266 58.6040495,60.6069364 59,63.7283237 L55.7604049,81 L47.4454443,81 Z" id="Path" fill="#684FF1"></path>
                <path d="M66.9925418,77.0017508 C74.6843675,71.4712388 80,62.7175304 80,52.5195481 C80,36.2098216 66.798926,23 50.5,23 C34.201074,23 21,36.2098216 21,52.5195481 C21,62.4533339 25.9107995,71.2598817 33.4442124,76.5966496 C33.4442124,76.5966496 35.7852029,78.7630604 35.9084129,80.9999235 L65.8308473,80.9999235 C65.8308473,81.4770225 65.6020286,77.9880842 66.9925418,77.0017508 Z" id="Path" stroke="#0A025D" stroke-width="3"></path>
                <path d="M34,41 C34,41 37.4174757,36.7009346 42,36" id="Path" stroke="#684FF1" stroke-width="2" stroke-linecap="round"></path>
                <path d="M46,34.2840481 C46,34.2840481 48.0068669,33.8779774 50.8411264,34.0368747 C61.7380617,34.637153 69.2550107,45.212645 66.385543,55.7704818 C66.367939,55.8411028 66.3503349,55.929379 66.3151267,56" id="Path" stroke="#684FF1" stroke-width="2" stroke-linecap="round"></path>
                <path d="M6,80 L21,71" id="Path" stroke="#684FF1" stroke-width="2" stroke-linecap="round" stroke-dasharray="6"></path>
                <path d="M0,53 L16,53" id="Path" stroke="#684FF1" stroke-width="2" stroke-linecap="round" stroke-dasharray="6"></path>
                <path d="M6,27 L20,35" id="Path" stroke="#684FF1" stroke-width="2" stroke-linecap="round" stroke-dasharray="6"></path>
                <path d="M24,8 L33,23" id="Path" stroke="#684FF1" stroke-width="2" stroke-linecap="round" stroke-dasharray="6"></path>
                <path d="M50,0 L50,18" id="Path" stroke="#684FF1" stroke-width="2" stroke-linecap="round" stroke-dasharray="6"></path>
                <path d="M67,23 L77,8" id="Path" stroke="#684FF1" stroke-width="2" stroke-linecap="round" stroke-dasharray="6"></path>
                <path d="M80,35 L96,26" id="Path" stroke="#684FF1" stroke-width="2" stroke-linecap="round" stroke-dasharray="6"></path>
                <path d="M86,51 L103,51" id="Path" stroke="#684FF1" stroke-width="2" stroke-linecap="round" stroke-dasharray="6"></path>
            </g>
        </g>
    </g>
</svg>