<svg width="106" height="75" viewBox="0 0 106 75" fill="none" xmlns="http://www.w3.org/2000/svg">
<path d="M48.832 45.3145C48.832 54.722 46.6673 61.8672 42.3379 66.75C38.041 71.6003 32.2142 74.0254 24.8574 74.0254C17.4355 74.0254 11.5599 71.6003 7.23047 66.75C2.90104 61.8672 0.736328 54.722 0.736328 45.3145V29.6406C0.736328 20.2656 2.88477 13.1367 7.18164 8.25391C11.5111 3.33854 17.3704 0.880859 24.7598 0.880859C32.1165 0.880859 37.9596 3.33854 42.2891 8.25391C46.651 13.1367 48.832 20.2656 48.832 29.6406V45.3145ZM34.623 28.1758C34.623 22.5443 33.7767 18.4264 32.084 15.8223C30.3913 13.1855 27.9499 11.8672 24.7598 11.8672C21.5371 11.8672 19.0957 13.1693 17.4355 15.7734C15.7754 18.3776 14.9453 22.5117 14.9453 28.1758V46.6816C14.9453 52.4108 15.7754 56.5775 17.4355 59.1816C19.1283 61.7858 21.6022 63.0879 24.8574 63.0879C28.0475 63.0879 30.4727 61.7858 32.1328 59.1816C33.793 56.5775 34.623 52.4108 34.623 46.6816V28.1758ZM71.7324 31.3984H79.7402C83.1257 31.3984 85.6322 30.5195 87.2598 28.7617C88.8874 26.9714 89.7012 24.4974 89.7012 21.3398C89.7012 18.4753 88.8874 16.1803 87.2598 14.4551C85.6322 12.7298 83.2721 11.8672 80.1797 11.8672C77.5104 11.8672 75.2643 12.6484 73.4414 14.2109C71.6185 15.7734 70.707 17.8242 70.707 20.3633H56.8887L56.791 20.0703C56.5957 14.5039 58.7279 9.91406 63.1875 6.30078C67.6471 2.6875 73.181 0.880859 79.7891 0.880859C87.1458 0.880859 93.0052 2.63867 97.3672 6.1543C101.762 9.66992 103.959 14.6829 103.959 21.1934C103.959 24.2858 102.982 27.2318 101.029 30.0312C99.0762 32.7982 96.3906 34.9629 92.9727 36.5254C96.9115 37.9251 99.9062 40.0736 101.957 42.9707C104.04 45.8678 105.082 49.237 105.082 53.0781C105.082 59.5885 102.706 64.7155 97.9531 68.459C93.2331 72.1699 87.1784 74.0254 79.7891 74.0254C73.181 74.0254 67.5007 72.2839 62.748 68.8008C58.028 65.2852 55.7493 60.3372 55.9121 53.957L56.0098 53.6641H69.8281C69.8281 56.3984 70.8047 58.6608 72.7578 60.4512C74.7109 62.209 77.1849 63.0879 80.1797 63.0879C83.4674 63.0879 86.0553 62.1764 87.9434 60.3535C89.8639 58.5306 90.8242 56.0566 90.8242 52.9316C90.8242 49.1882 89.8802 46.4538 87.9922 44.7285C86.1367 42.9707 83.3861 42.0918 79.7402 42.0918H71.7324V31.3984Z" fill="white" fill-opacity="0.2"/>
</svg>
