<svg width="106" height="75" viewBox="0 0 106 75" fill="none" xmlns="http://www.w3.org/2000/svg">
<path d="M24.8574 74.0254C17.4355 74.0254 11.5599 71.6003 7.23047 66.75C2.90104 61.8672 0.736328 54.722 0.736328 45.3145V29.6406C0.736328 20.2656 2.88477 13.1367 7.18164 8.25391C11.5111 3.33854 17.3704 0.880859 24.7598 0.880859C32.1165 0.880859 37.9596 3.33854 42.2891 8.25391C46.651 13.1367 48.832 20.2656 48.832 29.6406V45.3145C48.832 54.722 46.6673 61.8672 42.3379 66.75C38.041 71.6003 32.2142 74.0254 24.8574 74.0254ZM24.8574 63.0879C28.0475 63.0879 30.4727 61.7858 32.1328 59.1816C33.793 56.5775 34.623 52.4108 34.623 46.6816V28.1758C34.623 22.5443 33.7767 18.4264 32.084 15.8223C30.3913 13.1855 27.9499 11.8672 24.7598 11.8672C21.5371 11.8672 19.0957 13.1693 17.4355 15.7734C15.7754 18.3776 14.9453 22.5117 14.9453 28.1758V46.6816C14.9453 52.4108 15.7754 56.5775 17.4355 59.1816C19.1283 61.7858 21.6022 63.0879 24.8574 63.0879ZM56.8887 73V63.6738L79.9355 38.918C83.4186 34.9792 85.8275 31.7565 87.1621 29.25C88.4967 26.7435 89.1641 24.2858 89.1641 21.877C89.1641 19.11 88.3665 16.7663 86.7715 14.8457C85.1764 12.9251 82.8652 11.9648 79.8379 11.9648C76.5501 11.9648 74.0599 13.0391 72.3672 15.1875C70.6745 17.3034 69.8281 20.2331 69.8281 23.9766H55.9609L55.8633 23.6836C55.7656 19.4193 56.6771 15.5618 58.5977 12.1113C60.5508 8.66081 63.3503 5.92643 66.9961 3.9082C70.6419 1.88997 74.9714 0.880859 79.9844 0.880859C84.8346 0.880859 89.0176 1.75977 92.5332 3.51758C96.0488 5.27539 98.7507 7.7168 100.639 10.8418C102.527 13.9342 103.471 17.5312 103.471 21.6328C103.471 24.4323 102.966 27.0853 101.957 29.5918C100.948 32.0983 99.3691 34.735 97.2207 37.502C95.0723 40.2689 92.3053 43.4427 88.9199 47.0234L75.1016 61.8672L75.1992 62.1113H93.6074L94.3398 55.3242H105.375V73H56.8887Z" fill="white" fill-opacity="0.2"/>
</svg>
