<svg width="445" height="41" viewBox="0 0 445 41" fill="none" xmlns="http://www.w3.org/2000/svg">
<path d="M6.5 20.4807C6.5 21.3749 5.8 22.0703 4.9 22.0703H1.6C0.7 22.0703 0 21.3749 0 20.4807C0 19.5866 0.7 18.8912 1.6 18.8912H4.8C5.7 18.7919 6.5 19.5866 6.5 20.4807Z" fill="white"/>
<path d="M19.8716 20.4807C19.8716 21.3749 19.2061 22.0703 18.3504 22.0703H10.4588C9.60306 22.0703 8.9375 21.3749 8.9375 20.4807C8.9375 19.5866 9.60306 18.8912 10.4588 18.8912H18.3504C19.111 18.7919 19.8716 19.5866 19.8716 20.4807Z" fill="white"/>
<path d="M9.60071 11.5398C9.60071 12.4339 8.93515 13.1293 8.07944 13.1293H5.0369C4.18119 13.1293 3.51562 12.4339 3.51562 11.5398C3.51562 10.6457 4.18119 9.95031 5.0369 9.95031H8.07944C8.84007 9.85097 9.60071 10.6457 9.60071 11.5398Z" fill="white"/>
<path d="M23.2935 11.5398C23.2935 12.4339 22.6279 13.1293 21.7722 13.1293H13.8806C13.0249 13.1293 12.3594 12.4339 12.3594 11.5398C12.3594 10.6457 13.0249 9.95031 13.8806 9.95031H21.7722C22.5329 9.85097 23.2935 10.6457 23.2935 11.5398Z" fill="white"/>
<path d="M9.60071 29.4217C9.60071 30.3158 8.93515 31.0112 8.07944 31.0112H5.0369C4.18119 31.0112 3.51562 30.3158 3.51562 29.4217C3.51562 28.5276 4.18119 27.8322 5.0369 27.8322H8.07944C8.84007 27.7328 9.60071 28.5276 9.60071 29.4217Z" fill="white"/>
<path d="M23.2935 29.4217C23.2935 30.3158 22.6279 31.0112 21.7722 31.0112H13.8806C13.0249 31.0112 12.3594 30.3158 12.3594 29.4217C12.3594 28.5276 13.0249 27.8322 13.8806 27.8322H21.7722C22.5329 27.7328 23.2935 28.5276 23.2935 29.4217Z" fill="white"/>
<path d="M24.3408 2.40031C24.3408 3.19506 23.6753 3.79112 22.8196 3.79112H15.5936C14.7378 3.79112 14.0723 3.19506 14.0723 2.40031C14.0723 1.60555 14.7378 1.00949 15.5936 1.00949H22.8196C23.5802 0.910148 24.3408 1.60555 24.3408 2.40031Z" fill="white"/>
<path d="M34.6074 2.40031C34.6074 3.19506 33.9418 3.79112 33.0861 3.79112H29.283C28.4273 3.79112 27.7617 3.19506 27.7617 2.40031C27.7617 1.60555 28.4273 1.00949 29.283 1.00949H33.0861C33.8468 0.910148 34.6074 1.60555 34.6074 2.40031Z" fill="white"/>
<path d="M24.3408 38.4621C24.3408 39.2569 23.6753 39.8529 22.8196 39.8529H15.5936C14.7378 39.8529 14.0723 39.2569 14.0723 38.4621C14.0723 37.6674 14.7378 37.0713 15.5936 37.0713H22.8196C23.5802 37.0713 24.3408 37.6674 24.3408 38.4621Z" fill="white"/>
<path d="M34.6074 38.4621C34.6074 39.2569 33.9418 39.8529 33.0861 39.8529H29.283C28.4273 39.8529 27.7617 39.2569 27.7617 38.4621C27.7617 37.6674 28.4273 37.0713 29.283 37.0713H33.0861C33.8468 37.0713 34.6074 37.6674 34.6074 38.4621Z" fill="white"/>
<path d="M56.0949 28.1301C60.6108 28.1301 64.2717 24.7498 64.2717 20.58C64.2717 16.4101 60.6108 13.0298 56.0949 13.0298C51.5789 13.0298 47.918 16.4101 47.918 20.58C47.918 24.7498 51.5789 28.1301 56.0949 28.1301Z" stroke="white" stroke-width="2.52" stroke-miterlimit="10"/>
<path d="M42.1187 25.5472C40.5974 27.1367 38.4106 28.1301 35.9385 28.1301C31.3747 28.1301 27.7617 24.7524 27.7617 20.58C27.7617 16.4075 31.4698 13.0298 35.9385 13.0298C38.4106 13.0298 40.5974 14.0232 42.1187 15.6127" stroke="white" stroke-width="2.52" stroke-miterlimit="10" stroke-linecap="round"/>
<path d="M71.8789 28.6275V13.7259C71.8789 13.7259 79.4852 11.739 83.2884 14.322C85.6654 15.9115 85.6654 18.3951 85.5703 28.3295" stroke="white" stroke-width="2.52" stroke-miterlimit="10" stroke-linecap="round"/>
<path d="M102.115 3.49316C102.115 3.49316 95.1738 5.38071 95.1738 10.2486C95.1738 14.2223 95.1738 28.6273 95.1738 28.6273" stroke="white" stroke-width="2.52" stroke-miterlimit="10" stroke-linecap="round"/>
<path d="M99.4524 13.3282C99.0721 13.3282 95.1738 12.7321 95.1738 17.0039V28.6272" stroke="white" stroke-width="2.52" stroke-miterlimit="10" stroke-linecap="round"/>
<path d="M110.195 6.47363V28.6274" stroke="white" stroke-width="2.52" stroke-miterlimit="10" stroke-linecap="round" stroke-linejoin="bevel"/>
<path d="M133.49 13.6264V27.4353C133.49 27.4353 125.598 29.4222 121.89 26.8392C119.513 25.2497 119.608 23.2628 119.703 13.4277" stroke="white" stroke-width="2.52" stroke-miterlimit="10" stroke-linecap="round"/>
<path d="M166.008 28.6275V13.7259C166.008 13.7259 173.614 11.739 177.417 14.322C179.794 15.9115 179.794 18.3951 179.699 28.3295" stroke="white" stroke-width="2.52" stroke-miterlimit="10" stroke-linecap="round"/>
<path d="M146.705 21.3749H157.068C157.068 21.3749 158.019 15.4142 152.6 13.7254C148.416 12.4339 141.285 13.4274 141.285 20.8782C141.285 29.1237 152.219 28.4283 157.354 27.5342" stroke="white" stroke-width="2.52" stroke-miterlimit="10" stroke-linecap="round"/>
<path d="M188.637 9.75195C188.637 9.75195 188.637 22.9647 188.637 23.8588C188.637 26.8392 190.728 28.4287 195.673 28.4287" stroke="white" stroke-width="2.52" stroke-miterlimit="10" stroke-linecap="round" stroke-linejoin="bevel"/>
<path d="M188.637 17.0036C188.637 12.7318 192.25 13.0299 192.535 13.0299" stroke="white" stroke-width="2.52" stroke-miterlimit="10" stroke-linecap="round" stroke-linejoin="bevel"/>
<path d="M397.597 12.6356C396.637 11.722 395.484 11.0397 394.17 10.607C392.86 10.1756 390.855 9.96582 388.042 9.96582H383.467V30.1845H390.116C392.743 30.1845 394.786 29.7489 396.187 28.8903C397.589 28.0304 398.685 26.8213 399.444 25.2986C400.196 23.792 400.577 22.1661 400.577 20.4678C400.577 18.7856 400.32 17.2761 399.814 15.9806C399.303 14.6747 398.557 13.5492 397.597 12.6356ZM397.286 20.2581C397.286 21.4017 397.104 22.4184 396.744 23.2811C396.389 24.1327 395.866 24.8624 395.189 25.4505C394.516 26.0352 393.712 26.4359 392.8 26.6422C391.842 26.8589 390.268 26.969 388.12 26.969H386.68V13.2335H387.29C389.374 13.2335 390.99 13.3401 392.092 13.5513C393.145 13.7527 394.073 14.1583 394.85 14.7583C395.621 15.3534 396.225 16.1374 396.645 17.088C397.07 18.0517 397.286 19.1187 397.286 20.2581Z" fill="white"/>
<path d="M425.365 9.93604H422.283V15.0466H419.945V17.9133H422.283V27.2608C422.283 28.2494 422.524 28.9987 423 29.4894C423.479 29.9834 424.195 30.2334 425.13 30.2334C425.576 30.2334 426.197 30.1652 427.029 30.0261L427.454 29.9546V27.224H425.751C425.565 27.224 425.444 27.2147 425.375 27.2093C425.37 27.1578 425.365 27.0857 425.365 26.9847V17.9133H428.051V15.0466H425.365V9.93604Z" fill="white"/>
<path d="M327.154 9.95703L320.047 24.5239L312.89 9.95703H311.553L308.697 30.2339H311.933L313.531 18.3339L319.381 30.2339H320.718L326.491 18.4415L328.087 30.2339H331.376L328.493 9.95703H327.154Z" fill="white"/>
<path d="M344.809 16.6638C343.565 15.5661 342.092 15.0107 340.417 15.0107C338.343 15.0107 336.562 15.7615 335.121 17.2414C333.683 18.7187 332.953 20.5186 332.953 22.5906C332.953 24.6613 333.677 26.4678 335.106 27.9608C336.539 29.4597 338.289 30.2197 340.307 30.2197C341.963 30.2197 343.472 29.64 344.809 28.4939V30.2332L347.783 30.2197V15.0464H344.809V16.6638ZM343.609 19.3239C344.482 20.2275 344.907 21.3199 344.907 22.6641C344.907 24.0063 344.476 25.0934 343.589 25.9878C342.703 26.8828 341.677 27.3175 340.454 27.3175C339.218 27.3175 338.187 26.8651 337.301 25.9334C336.41 24.997 335.976 23.9237 335.976 22.6523C335.976 21.3789 336.403 20.3042 337.279 19.3672C338.148 18.4387 339.183 17.987 340.441 17.987C341.703 17.987 342.74 18.4243 343.609 19.3239Z" fill="white"/>
<path d="M377.79 16.6638C376.545 15.5661 375.073 15.0107 373.398 15.0107C371.324 15.0107 369.542 15.7615 368.102 17.2414C366.663 18.7187 365.934 20.5186 365.934 22.5906C365.934 24.6613 366.658 26.4678 368.086 27.9608C369.519 29.4597 371.269 30.2197 373.288 30.2197C374.943 30.2197 376.453 29.64 377.79 28.4939V30.2332L380.764 30.2197V15.0464H377.79V16.6638ZM376.59 19.3239C377.463 20.2275 377.887 21.3199 377.887 22.6641C377.887 24.0063 377.456 25.0934 376.57 25.9878C375.683 26.8828 374.658 27.3175 373.434 27.3175C372.198 27.3175 371.167 26.8651 370.281 25.9334C369.39 24.997 368.957 23.9237 368.957 22.6523C368.957 21.3789 369.383 20.3042 370.26 19.3672C371.129 18.4387 372.163 17.987 373.422 17.987C374.684 17.987 375.72 18.4243 376.59 19.3239Z" fill="white"/>
<path d="M414.413 16.6638C413.168 15.5661 411.696 15.0107 410.021 15.0107C407.947 15.0107 406.165 15.7615 404.725 17.2414C403.286 18.7187 402.557 20.5186 402.557 22.5906C402.557 24.6613 403.281 26.4678 404.709 27.9608C406.142 29.4597 407.892 30.2197 409.911 30.2197C411.566 30.2197 413.076 29.64 414.413 28.4939V30.2332L417.387 30.2197V15.0464H414.413V16.6638ZM413.213 19.3239C414.086 20.2275 414.51 21.3199 414.51 22.6641C414.51 24.0063 414.079 25.0934 413.193 25.9878C412.306 26.8828 411.281 27.3175 410.057 27.3175C408.821 27.3175 407.79 26.8651 406.904 25.9334C406.013 24.997 405.58 23.9237 405.58 22.6523C405.58 21.3789 406.006 20.3042 406.883 19.3672C407.752 18.4387 408.786 17.987 410.045 17.987C411.307 17.987 412.343 18.4243 413.213 19.3239Z" fill="white"/>
<path d="M441.028 16.6638C439.783 15.5661 438.311 15.0107 436.636 15.0107C434.562 15.0107 432.78 15.7615 431.34 17.2414C429.901 18.7187 429.172 20.5186 429.172 22.5906C429.172 24.6613 429.896 26.4678 431.324 27.9608C432.758 29.4597 434.508 30.2197 436.526 30.2197C438.181 30.2197 439.691 29.64 441.028 28.4939V30.2332L444.002 30.2197V15.0464H441.028V16.6638ZM439.828 19.3239C440.701 20.2275 441.126 21.3199 441.126 22.6641C441.126 24.0063 440.695 25.0934 439.808 25.9878C438.922 26.8828 437.896 27.3175 436.672 27.3175C435.437 27.3175 434.405 26.8651 433.52 25.9334C432.628 24.997 432.195 23.9237 432.195 22.6523C432.195 21.3789 432.621 20.3042 433.498 19.3672C434.367 18.4387 435.402 17.987 436.66 17.987C437.922 17.987 438.958 18.4243 439.828 19.3239Z" fill="white"/>
<path d="M357.829 24.6248L353.57 15.0464H350.254L356.153 28.4583L353.262 35.1249H356.578L365.287 15.0464H361.945L357.829 24.6248Z" fill="white"/>
<path d="M269.961 14.7344V34.1179C269.961 34.6117 270.222 34.9921 270.647 35.2382L280.028 40.7912C280.45 41.0361 280.969 41.0826 281.391 40.8378L290.77 35.2551C291.195 35.0083 291.458 34.613 291.458 34.1179V14.7173L280.709 21.1726L269.961 14.7344Z" fill="white"/>
<path d="M266.784 32.0906V13.3793C266.784 13.0933 266.856 12.732 267.41 12.4552L280.319 4.70333C280.561 4.56418 280.858 4.56418 281.1 4.70333L294.25 12.5986C294.497 12.7402 294.64 12.8329 294.635 13.1585V32.0906C294.635 32.4833 295.065 32.6682 295.405 32.4779L298.048 30.894C298.299 30.7537 298.419 30.5424 298.419 30.2531V10.8853C298.419 10.5441 298.306 10.4273 298.063 10.2848L281.105 0.107668C280.86 -0.0355209 280.559 -0.0359132 280.314 0.10664L263.388 10.2746C263.144 10.4168 263 10.6594 263 10.9437V30.2531C263 30.5321 263.117 30.7403 263.353 30.8843L266.023 32.4832C266.363 32.6903 266.784 32.4918 266.784 32.0906Z" fill="white"/>
<path d="M288.369 12.9174L280.709 8.3291L273.049 12.9174L280.709 17.5057L288.369 12.9174Z" fill="white"/>
<path d="M224.32 17.968L220.848 26H219.616L216.192 17.968H217.552L220.272 24.592L223.024 17.968H224.32ZM228.647 26.112C227.293 26.112 226.221 25.7653 225.431 25.072L225.863 24.112C226.301 24.4533 226.743 24.6987 227.191 24.848C227.639 24.9973 228.141 25.072 228.695 25.072C229.303 25.072 229.762 24.9707 230.071 24.768C230.391 24.5547 230.551 24.2507 230.551 23.856C230.551 23.536 230.445 23.28 230.231 23.088C230.018 22.896 229.666 22.7467 229.175 22.64L227.815 22.32C227.143 22.1707 226.621 21.904 226.247 21.52C225.885 21.136 225.703 20.6773 225.703 20.144C225.703 19.44 225.986 18.8693 226.551 18.432C227.117 17.984 227.863 17.76 228.791 17.76C229.357 17.76 229.89 17.8507 230.391 18.032C230.893 18.2133 231.314 18.4747 231.655 18.816L231.223 19.76C230.466 19.1307 229.655 18.816 228.791 18.816C228.215 18.816 227.767 18.928 227.447 19.152C227.138 19.3653 226.983 19.6693 226.983 20.064C226.983 20.3947 227.079 20.656 227.271 20.848C227.474 21.04 227.794 21.1893 228.231 21.296L229.591 21.632C230.338 21.8027 230.893 22.0693 231.255 22.432C231.618 22.784 231.799 23.248 231.799 23.824C231.799 24.5173 231.517 25.072 230.951 25.488C230.386 25.904 229.618 26.112 228.647 26.112Z" fill="white"/>
</svg>
